%TF.GenerationSoftware,KiCad,Pcbnew,(7.0.0)*%
%TF.CreationDate,2023-08-06T02:23:00-04:00*%
%TF.ProjectId,Rotini-Hardware,526f7469-6e69-42d4-9861-726477617265,rev?*%
%TF.SameCoordinates,Original*%
%TF.FileFunction,Copper,L4,Bot*%
%TF.FilePolarity,Positive*%
%FSLAX46Y46*%
G04 Gerber Fmt 4.6, Leading zero omitted, Abs format (unit mm)*
G04 Created by KiCad (PCBNEW (7.0.0)) date 2023-08-06 02:23:00*
%MOMM*%
%LPD*%
G01*
G04 APERTURE LIST*
G04 Aperture macros list*
%AMRoundRect*
0 Rectangle with rounded corners*
0 $1 Rounding radius*
0 $2 $3 $4 $5 $6 $7 $8 $9 X,Y pos of 4 corners*
0 Add a 4 corners polygon primitive as box body*
4,1,4,$2,$3,$4,$5,$6,$7,$8,$9,$2,$3,0*
0 Add four circle primitives for the rounded corners*
1,1,$1+$1,$2,$3*
1,1,$1+$1,$4,$5*
1,1,$1+$1,$6,$7*
1,1,$1+$1,$8,$9*
0 Add four rect primitives between the rounded corners*
20,1,$1+$1,$2,$3,$4,$5,0*
20,1,$1+$1,$4,$5,$6,$7,0*
20,1,$1+$1,$6,$7,$8,$9,0*
20,1,$1+$1,$8,$9,$2,$3,0*%
G04 Aperture macros list end*
%TA.AperFunction,ComponentPad*%
%ADD10RoundRect,0.250000X-0.250000X0.250000X-0.250000X-0.250000X0.250000X-0.250000X0.250000X0.250000X0*%
%TD*%
%TA.AperFunction,ComponentPad*%
%ADD11R,1.000000X1.000000*%
%TD*%
%TA.AperFunction,ComponentPad*%
%ADD12RoundRect,0.350000X0.350000X-0.350000X0.350000X0.350000X-0.350000X0.350000X-0.350000X-0.350000X0*%
%TD*%
%TA.AperFunction,ComponentPad*%
%ADD13RoundRect,0.250000X0.250000X-0.250000X0.250000X0.250000X-0.250000X0.250000X-0.250000X-0.250000X0*%
%TD*%
%TA.AperFunction,ComponentPad*%
%ADD14O,0.900000X2.000000*%
%TD*%
%TA.AperFunction,ComponentPad*%
%ADD15O,0.900000X1.700000*%
%TD*%
%TA.AperFunction,SMDPad,CuDef*%
%ADD16RoundRect,0.375000X0.375000X0.375000X-0.375000X0.375000X-0.375000X-0.375000X0.375000X-0.375000X0*%
%TD*%
%TA.AperFunction,ViaPad*%
%ADD17C,0.450000*%
%TD*%
%TA.AperFunction,Conductor*%
%ADD18C,0.406400*%
%TD*%
%TA.AperFunction,Conductor*%
%ADD19C,0.203200*%
%TD*%
G04 APERTURE END LIST*
D10*
%TO.P,J2,1,Pin_1*%
%TO.N,GND*%
X-22800000Y4650000D03*
D11*
X-22799999Y3899999D03*
D10*
X-22800000Y3150000D03*
D11*
X-22049999Y4649999D03*
X-22049999Y3899999D03*
X-22049999Y3149999D03*
X-21299999Y4649999D03*
X-21299999Y3899999D03*
X-21299999Y3149999D03*
X-20549999Y4649999D03*
X-20549999Y3899999D03*
X-20549999Y3149999D03*
D10*
X-19800000Y4650000D03*
D11*
X-19799999Y3899999D03*
D10*
X-19800000Y3150000D03*
%TD*%
D12*
%TO.P,J3,1,Pin_1*%
%TO.N,SparePin1*%
X-17400000Y-5600000D03*
%TD*%
%TO.P,J7,1,Pin_1*%
%TO.N,SparePin2*%
X-17400000Y-1800000D03*
%TD*%
D13*
%TO.P,J208,1,Pin_1*%
%TO.N,PPM_B*%
X22800000Y3150000D03*
D11*
X22799999Y3899999D03*
D13*
X22800000Y4650000D03*
D11*
X22049999Y3149999D03*
X22049999Y3899999D03*
X22049999Y4649999D03*
X21299999Y3149999D03*
X21299999Y3899999D03*
X21299999Y4649999D03*
X20549999Y3149999D03*
X20549999Y3899999D03*
X20549999Y4649999D03*
D13*
X19800000Y3150000D03*
D11*
X19799999Y3899999D03*
D13*
X19800000Y4650000D03*
%TD*%
D10*
%TO.P,J207,1,Pin_1*%
%TO.N,PPM_F*%
X19800000Y850000D03*
D11*
X19799999Y99999D03*
D10*
X19800000Y-650000D03*
D11*
X20549999Y849999D03*
X20549999Y99999D03*
X20549999Y-649999D03*
X21299999Y849999D03*
X21299999Y99999D03*
X21299999Y-649999D03*
X22049999Y849999D03*
X22049999Y99999D03*
X22049999Y-649999D03*
D10*
X22800000Y850000D03*
D11*
X22799999Y99999D03*
D10*
X22800000Y-650000D03*
%TD*%
D14*
%TO.P,U52,S1,SHIELD*%
%TO.N,unconnected-(U52-SHIELD-PadS1)*%
X12679999Y-3984999D03*
D15*
X12679999Y-8154999D03*
D14*
X21319999Y-3984999D03*
D15*
X21319999Y-8154999D03*
%TD*%
D10*
%TO.P,J4,1,Pin_1*%
%TO.N,/LED1/LED_out*%
X-22800000Y8450000D03*
D11*
X-22799999Y7699999D03*
D10*
X-22800000Y6950000D03*
D11*
X-22049999Y8449999D03*
X-22049999Y7699999D03*
X-22049999Y6949999D03*
X-21299999Y8449999D03*
X-21299999Y7699999D03*
X-21299999Y6949999D03*
X-20549999Y8449999D03*
X-20549999Y7699999D03*
X-20549999Y6949999D03*
D10*
X-19800000Y8450000D03*
D11*
X-19799999Y7699999D03*
D10*
X-19800000Y6950000D03*
%TD*%
%TO.P,J6,1,Pin_1*%
%TO.N,GND*%
X19800000Y8450000D03*
D11*
X19799999Y7699999D03*
D10*
X19800000Y6950000D03*
D11*
X20549999Y8449999D03*
X20549999Y7699999D03*
X20549999Y6949999D03*
X21299999Y8449999D03*
X21299999Y7699999D03*
X21299999Y6949999D03*
X22049999Y8449999D03*
X22049999Y7699999D03*
X22049999Y6949999D03*
D10*
X22800000Y8450000D03*
D11*
X22799999Y7699999D03*
D10*
X22800000Y6950000D03*
%TD*%
%TO.P,J206,1,Pin_1*%
%TO.N,GND*%
X-22800000Y-6750000D03*
D11*
X-22799999Y-7499999D03*
D10*
X-22800000Y-8250000D03*
D11*
X-22049999Y-6749999D03*
X-22049999Y-7499999D03*
X-22049999Y-8249999D03*
X-21299999Y-6749999D03*
X-21299999Y-7499999D03*
X-21299999Y-8249999D03*
X-20549999Y-6749999D03*
X-20549999Y-7499999D03*
X-20549999Y-8249999D03*
D10*
X-19800000Y-6750000D03*
D11*
X-19799999Y-7499999D03*
D10*
X-19800000Y-8250000D03*
%TD*%
%TO.P,J205,1,Pin_1*%
%TO.N,Net-(J205-Pin_1)*%
X-22800000Y-2950000D03*
D11*
X-22799999Y-3699999D03*
D10*
X-22800000Y-4450000D03*
D11*
X-22049999Y-2949999D03*
X-22049999Y-3699999D03*
X-22049999Y-4449999D03*
X-21299999Y-2949999D03*
X-21299999Y-3699999D03*
X-21299999Y-4449999D03*
X-20549999Y-2949999D03*
X-20549999Y-3699999D03*
X-20549999Y-4449999D03*
D10*
X-19800000Y-2950000D03*
D11*
X-19799999Y-3699999D03*
D10*
X-19800000Y-4450000D03*
%TD*%
%TO.P,J5,1,Pin_1*%
%TO.N,+3V3*%
X-22800000Y850000D03*
D11*
X-22799999Y99999D03*
D10*
X-22800000Y-650000D03*
D11*
X-22049999Y849999D03*
X-22049999Y99999D03*
X-22049999Y-649999D03*
X-21299999Y849999D03*
X-21299999Y99999D03*
X-21299999Y-649999D03*
X-20549999Y849999D03*
X-20549999Y99999D03*
X-20549999Y-649999D03*
D10*
X-19800000Y850000D03*
D11*
X-19799999Y99999D03*
D10*
X-19800000Y-650000D03*
%TD*%
D12*
%TO.P,J8,1,Pin_1*%
%TO.N,SparePin3*%
X-17400000Y9600000D03*
%TD*%
D16*
%TO.P,TP3,1,1*%
%TO.N,GND*%
X-5000000Y-9800000D03*
%TD*%
%TO.P,TP7,1,1*%
%TO.N,X_BOOT*%
X-3000000Y-9800000D03*
%TD*%
%TO.P,TP5,1,1*%
%TO.N,E_EN*%
X5000000Y-9800000D03*
%TD*%
%TO.P,TP1,1,1*%
%TO.N,X_TX*%
X1000000Y-9800000D03*
%TD*%
%TO.P,TP2,1,1*%
%TO.N,X_RX*%
X-1000000Y-9800000D03*
%TD*%
%TO.P,TP4,1,1*%
%TO.N,E_BOOT*%
X3000000Y-9800000D03*
%TD*%
D17*
%TO.N,GND*%
X-13800000Y-1100000D03*
%TO.N,+3V3*%
X-9982947Y-2427287D03*
X-11706165Y-2434731D03*
X-10850139Y-2423565D03*
%TO.N,GND*%
X-9000000Y9100000D03*
X-3800000Y-3300000D03*
X-3205000Y4425000D03*
X-2500000Y-8100000D03*
X-14455000Y-75000D03*
X-8605000Y1625000D03*
X16940873Y-1000000D03*
X-10505000Y1625000D03*
X-405000Y1625000D03*
X3850000Y3500000D03*
X2750000Y2100000D03*
X-11900000Y5400000D03*
X10950000Y6650000D03*
X-3205000Y1625000D03*
X11900000Y-2300000D03*
X-10500000Y5400000D03*
X-8100000Y10450000D03*
X2842844Y7798463D03*
X-13355000Y1325000D03*
X-13800000Y-4000000D03*
X13800000Y-2500000D03*
X1550000Y-5450000D03*
X17500000Y9200000D03*
X4175000Y1050000D03*
X-5350000Y10450000D03*
X20200000Y-2500000D03*
X-5300000Y9050000D03*
X-11900000Y8300000D03*
X-700000Y7200000D03*
X-10200000Y9900000D03*
X-5300000Y5500000D03*
X-1700000Y3000000D03*
X-8605000Y3525000D03*
X11700000Y-100000D03*
X4500000Y4970700D03*
X16150000Y2825000D03*
X-13300000Y5400000D03*
X-9492500Y2537500D03*
X-5300000Y8200000D03*
X-13300000Y8900000D03*
X-13900000Y4000000D03*
X-7971583Y-1901100D03*
X-17300000Y5800000D03*
X-5905000Y2025000D03*
X-14200000Y10400000D03*
X9947514Y-200000D03*
X-13100000Y-8300000D03*
X4300000Y7900000D03*
X-14000000Y7100000D03*
X-10505000Y3525000D03*
%TO.N,+3V3*%
X4500000Y-5200000D03*
X9150000Y2150000D03*
X-18100000Y1400000D03*
X-14567281Y2215912D03*
X400000Y6400000D03*
X-3800000Y-400000D03*
X8400000Y8200000D03*
X6556253Y7542640D03*
X-2800000Y-3700000D03*
X2500000Y-8100000D03*
X5949088Y-4343290D03*
X15350000Y10300000D03*
X15950000Y4950000D03*
X-8900000Y-450000D03*
X6600000Y4600000D03*
X1600000Y3500000D03*
X-1400000Y6400000D03*
X-6755000Y875000D03*
X-4955000Y3825000D03*
X12400000Y-100000D03*
X9200000Y-1300000D03*
%TO.N,VCC*%
X-15222944Y3624500D03*
X-15500000Y1900000D03*
X-9900000Y-4700000D03*
X14500000Y400000D03*
%TO.N,Net-(U70-DCC_FB)*%
X-12605000Y3575000D03*
X-8205000Y-75000D03*
%TO.N,Net-(D20-A)*%
X14600000Y-2500000D03*
X19400000Y-2500000D03*
%TO.N,X_TX*%
X12750000Y2150000D03*
X400000Y-8100000D03*
X1400000Y-150000D03*
%TO.N,X_RX*%
X-500000Y-8099500D03*
X700000Y-150000D03*
X13050000Y4050000D03*
%TO.N,P_MOSI*%
X-644372Y-3144372D03*
X13450000Y5600000D03*
X2968140Y-2524973D03*
%TO.N,P_MISO*%
X47258Y-1647258D03*
X9425015Y4148001D03*
%TO.N,P_SCK*%
X5636905Y-1636905D03*
X-649503Y-2300000D03*
X13459387Y7170063D03*
%TO.N,Net-(D60-A)*%
X-4400000Y5800000D03*
X-300000Y7746100D03*
%TO.N,/ExpressLRS-RX/trace_antenna*%
X-550000Y6400000D03*
%TO.N,SNS_VER*%
X11950000Y2150000D03*
X16947800Y3700000D03*
%TO.N,SparePin3*%
X8400000Y9100000D03*
X-14200000Y8900000D03*
%TO.N,GPIO2*%
X-12600000Y2830000D03*
X-4905000Y2225000D03*
%TO.N,GPIO15*%
X-5305000Y2725000D03*
X-7705000Y5425000D03*
%TO.N,E_D+*%
X18027991Y127991D03*
X13500000Y8300000D03*
%TO.N,E_D-*%
X17473900Y700000D03*
X15500000Y7900000D03*
%TO.N,GPIO12*%
X-6705000Y2725000D03*
X-5405000Y4325000D03*
%TO.N,GPIO4*%
X-10205000Y-75000D03*
X-4905000Y1025000D03*
%TO.N,GPIO5*%
X-10905000Y-175000D03*
X-5000Y-175000D03*
%TO.N,PPM_F*%
X10300000Y9100000D03*
%TO.N,PPM_B*%
X9550000Y9100000D03*
%TO.N,A1_CS*%
X0Y-4300000D03*
X15350000Y4450000D03*
%TO.N,E_EN*%
X4800000Y-8400000D03*
%TO.N,E_BOOT*%
X1500000Y-8100000D03*
X5400000Y-7000000D03*
%TO.N,Mag_CS*%
X10602405Y4231247D03*
X-700000Y-1650497D03*
%TO.N,Mag_INT*%
X-700000Y-4000000D03*
X15350000Y5250000D03*
%TO.N,X_BOOT*%
X-4900000Y200000D03*
X-1350000Y-8099500D03*
%TO.N,A_INT*%
X3406571Y-3004171D03*
X13450000Y4850000D03*
%TO.N,LED_HV*%
X-14250000Y8150000D03*
X8400000Y6600000D03*
%TO.N,SparePin2*%
X14400000Y2150000D03*
%TO.N,SparePin1*%
X13550000Y2150000D03*
%TD*%
D18*
%TO.N,VCC*%
X-11200000Y-4700000D02*
X-15500000Y-400000D01*
X-9900000Y-4700000D02*
X-11200000Y-4700000D01*
X-5700000Y-6200000D02*
X-7200000Y-4700000D01*
X-7200000Y-4700000D02*
X-9900000Y-4700000D01*
X6000000Y-6200000D02*
X-5700000Y-6200000D01*
X11100000Y-1100000D02*
X6000000Y-6200000D01*
X12900000Y-1100000D02*
X11100000Y-1100000D01*
X14400000Y400000D02*
X12900000Y-1100000D01*
X14500000Y400000D02*
X14400000Y400000D01*
D19*
%TO.N,GND*%
X-3300000Y-8100000D02*
X-5000000Y-9800000D01*
X-2500000Y-8100000D02*
X-3300000Y-8100000D01*
%TO.N,VCC*%
X-15300000Y2100000D02*
X-15500000Y1900000D01*
D18*
X-15500000Y1900000D02*
X-15500000Y-400000D01*
D19*
X-15222944Y3624500D02*
X-15300000Y3547444D01*
X-15300000Y3547444D02*
X-15300000Y2100000D01*
%TO.N,Net-(U70-DCC_FB)*%
X-13205000Y2575000D02*
X-13205000Y3100000D01*
X-8205000Y-75000D02*
X-8805000Y525000D01*
X-13205000Y3100000D02*
X-12730000Y3575000D01*
X-12730000Y3575000D02*
X-12605000Y3575000D01*
X-11155000Y525000D02*
X-13205000Y2575000D01*
X-8805000Y525000D02*
X-11155000Y525000D01*
D18*
%TO.N,Net-(D20-A)*%
X14643914Y-2543914D02*
X19356086Y-2543914D01*
X14600000Y-2500000D02*
X14643914Y-2543914D01*
X19356086Y-2543914D02*
X19400000Y-2500000D01*
D19*
%TO.N,X_TX*%
X12200000Y2700000D02*
X8800000Y2700000D01*
X6150000Y50000D02*
X1600000Y50000D01*
X12750000Y2150000D02*
X12200000Y2700000D01*
X8800000Y2700000D02*
X6150000Y50000D01*
X400000Y-9200000D02*
X1000000Y-9800000D01*
X1600000Y50000D02*
X1400000Y-150000D01*
X400000Y-8100000D02*
X400000Y-9200000D01*
%TO.N,X_RX*%
X-500000Y-8099500D02*
X-500000Y-9300000D01*
X700000Y-100000D02*
X1300000Y500000D01*
X5900000Y500000D02*
X8550000Y3150000D01*
X700000Y-150000D02*
X700000Y-100000D01*
X-500000Y-9300000D02*
X-1000000Y-9800000D01*
X8550000Y3150000D02*
X12150000Y3150000D01*
X1300000Y500000D02*
X5900000Y500000D01*
X12150000Y3150000D02*
X13050000Y4050000D01*
%TO.N,/ExpressLRS-RX/trace_antenna*%
X-550000Y6400000D02*
X3450000Y10400000D01*
X3450000Y10400000D02*
X11300000Y10400000D01*
%TO.N,SparePin3*%
X9000000Y8000000D02*
X9000000Y8500000D01*
X-3589370Y7600000D02*
X-1692570Y5703200D01*
X2603200Y5703200D02*
X3606400Y6706400D01*
X-14200000Y8900000D02*
X-12900000Y7600000D01*
X-1692570Y5703200D02*
X2603200Y5703200D01*
X7706400Y6706400D02*
X9000000Y8000000D01*
X3606400Y6706400D02*
X7706400Y6706400D01*
X9000000Y8500000D02*
X8400000Y9100000D01*
X-12900000Y7600000D02*
X-3589370Y7600000D01*
%TO.N,GPIO2*%
X-5705000Y1425000D02*
X-8005000Y1425000D01*
X-8005000Y1425000D02*
X-8405000Y1025000D01*
X-4905000Y2225000D02*
X-5705000Y1425000D01*
X-8405000Y1025000D02*
X-10795000Y1025000D01*
X-10795000Y1025000D02*
X-12600000Y2830000D01*
%TO.N,GPIO15*%
X-5030000Y4950000D02*
X-7230000Y4950000D01*
X-4405000Y4325000D02*
X-5030000Y4950000D01*
X-5305000Y2725000D02*
X-4405000Y3625000D01*
X-7230000Y4950000D02*
X-7705000Y5425000D01*
X-4405000Y3625000D02*
X-4405000Y4325000D01*
%TO.N,E_D+*%
X15700000Y8500000D02*
X13700000Y8500000D01*
X18027991Y127991D02*
X18000000Y155982D01*
X18000000Y155982D02*
X18000000Y6200000D01*
X18000000Y6200000D02*
X15700000Y8500000D01*
X13700000Y8500000D02*
X13500000Y8300000D01*
%TO.N,E_D-*%
X15700000Y7900000D02*
X15500000Y7900000D01*
X17473900Y700000D02*
X17473900Y6126100D01*
X17473900Y6126100D02*
X15700000Y7900000D01*
%TO.N,GPIO12*%
X-6705000Y2725000D02*
X-6705000Y3025000D01*
X-6705000Y3025000D02*
X-5405000Y4325000D01*
%TO.N,GPIO4*%
X-6905000Y-975000D02*
X-9305000Y-975000D01*
X-9305000Y-975000D02*
X-10205000Y-75000D01*
X-4905000Y1025000D02*
X-6905000Y-975000D01*
%TO.N,GPIO5*%
X-10905000Y-175000D02*
X-9705000Y-1375000D01*
X-1205000Y-1375000D02*
X-5000Y-175000D01*
X-9705000Y-1375000D02*
X-1205000Y-1375000D01*
%TO.N,PPM_F*%
X15700127Y9100000D02*
X18403200Y6396927D01*
X18403200Y6396927D02*
X18403200Y2246800D01*
X10300000Y9100000D02*
X15700127Y9100000D01*
X18403200Y2246800D02*
X19800000Y850000D01*
%TO.N,PPM_B*%
X18806400Y6563937D02*
X15670337Y9700000D01*
X15670337Y9700000D02*
X10150000Y9700000D01*
X19800000Y4706400D02*
X18806400Y5700000D01*
X10150000Y9700000D02*
X9550000Y9100000D01*
X18806400Y5700000D02*
X18806400Y6563937D01*
X19800000Y4650000D02*
X19800000Y4706400D01*
%TO.N,E_EN*%
X4800000Y-8400000D02*
X4800000Y-9600000D01*
X4800000Y-9600000D02*
X5000000Y-9800000D01*
%TO.N,E_BOOT*%
X3000000Y-9600000D02*
X3000000Y-9800000D01*
X3000000Y-9400000D02*
X3000000Y-9800000D01*
X1500000Y-8100000D02*
X3000000Y-9600000D01*
X5400000Y-7000000D02*
X3000000Y-9400000D01*
%TO.N,X_BOOT*%
X-1350000Y-8099500D02*
X-3000000Y-9749500D01*
X-3000000Y-9749500D02*
X-3000000Y-9800000D01*
%TO.N,LED_HV*%
X-13303200Y7203200D02*
X-3762780Y7203200D01*
X-1859580Y5300000D02*
X2759580Y5300000D01*
X-3762780Y7203200D02*
X-1859580Y5300000D01*
X8103200Y6303200D02*
X8400000Y6600000D01*
X2759580Y5300000D02*
X3762780Y6303200D01*
X-14250000Y8150000D02*
X-13303200Y7203200D01*
X3762780Y6303200D02*
X8103200Y6303200D01*
%TO.N,SparePin2*%
X-13400000Y6800000D02*
X-13300000Y6800000D01*
X-16503200Y3767010D02*
X-13470210Y6800000D01*
X2929790Y4900000D02*
X3929790Y5900000D01*
X12200000Y5900000D02*
X12900000Y6600000D01*
X14550000Y5950000D02*
X14550000Y2300000D01*
X12900000Y6600000D02*
X13900000Y6600000D01*
X-16503200Y-903200D02*
X-16503200Y3767010D01*
X-17400000Y-1800000D02*
X-16503200Y-903200D01*
X-13300000Y6800000D02*
X-3929790Y6800000D01*
X-2029790Y4900000D02*
X2929790Y4900000D01*
X13900000Y6600000D02*
X14550000Y5950000D01*
X3929790Y5900000D02*
X12200000Y5900000D01*
X-13470210Y6800000D02*
X-13300000Y6800000D01*
X-3929790Y6800000D02*
X-2029790Y4900000D01*
X14550000Y2300000D02*
X14400000Y2150000D01*
%TO.N,SparePin1*%
X-4096800Y6396800D02*
X-2200000Y4500000D01*
X14050000Y2650000D02*
X13550000Y2150000D01*
X13700000Y6150000D02*
X14050000Y5800000D01*
X3100000Y4500000D02*
X4096800Y5496800D01*
X-17400000Y-5600000D02*
X-16100000Y-4300000D01*
X12496800Y5496800D02*
X13150000Y6150000D01*
X4096800Y5496800D02*
X12496800Y5496800D01*
X-16100000Y-4300000D02*
X-16100000Y3600000D01*
X-2200000Y4500000D02*
X3100000Y4500000D01*
X14050000Y5800000D02*
X14050000Y2650000D01*
X-16100000Y3600000D02*
X-13303200Y6396800D01*
X13150000Y6150000D02*
X13700000Y6150000D01*
X-13303200Y6396800D02*
X-4096800Y6396800D01*
%TD*%
M02*
