%TF.GenerationSoftware,KiCad,Pcbnew,(7.0.0)*%
%TF.CreationDate,2023-08-06T02:23:00-04:00*%
%TF.ProjectId,Rotini-Hardware,526f7469-6e69-42d4-9861-726477617265,rev?*%
%TF.SameCoordinates,Original*%
%TF.FileFunction,Soldermask,Bot*%
%TF.FilePolarity,Negative*%
%FSLAX46Y46*%
G04 Gerber Fmt 4.6, Leading zero omitted, Abs format (unit mm)*
G04 Created by KiCad (PCBNEW (7.0.0)) date 2023-08-06 02:23:00*
%MOMM*%
%LPD*%
G01*
G04 APERTURE LIST*
G04 Aperture macros list*
%AMRoundRect*
0 Rectangle with rounded corners*
0 $1 Rounding radius*
0 $2 $3 $4 $5 $6 $7 $8 $9 X,Y pos of 4 corners*
0 Add a 4 corners polygon primitive as box body*
4,1,4,$2,$3,$4,$5,$6,$7,$8,$9,$2,$3,0*
0 Add four circle primitives for the rounded corners*
1,1,$1+$1,$2,$3*
1,1,$1+$1,$4,$5*
1,1,$1+$1,$6,$7*
1,1,$1+$1,$8,$9*
0 Add four rect primitives between the rounded corners*
20,1,$1+$1,$2,$3,$4,$5,0*
20,1,$1+$1,$4,$5,$6,$7,0*
20,1,$1+$1,$6,$7,$8,$9,0*
20,1,$1+$1,$8,$9,$2,$3,0*%
G04 Aperture macros list end*
%ADD10C,3.200000*%
%ADD11RoundRect,0.250000X-0.250000X0.250000X-0.250000X-0.250000X0.250000X-0.250000X0.250000X0.250000X0*%
%ADD12R,1.000000X1.000000*%
%ADD13RoundRect,0.350000X0.350000X-0.350000X0.350000X0.350000X-0.350000X0.350000X-0.350000X-0.350000X0*%
%ADD14RoundRect,0.250000X0.250000X-0.250000X0.250000X0.250000X-0.250000X0.250000X-0.250000X-0.250000X0*%
%ADD15C,0.600000*%
%ADD16O,0.900000X2.000000*%
%ADD17O,0.900000X1.700000*%
%ADD18RoundRect,0.375000X0.375000X0.375000X-0.375000X0.375000X-0.375000X-0.375000X0.375000X-0.375000X0*%
G04 APERTURE END LIST*
D10*
%TO.C,*%
X8000000Y-8000000D03*
%TD*%
D11*
%TO.C,J2*%
X-22800000Y4650000D03*
D12*
X-22799999Y3899999D03*
D11*
X-22800000Y3150000D03*
D12*
X-22049999Y4649999D03*
X-22049999Y3899999D03*
X-22049999Y3149999D03*
X-21299999Y4649999D03*
X-21299999Y3899999D03*
X-21299999Y3149999D03*
X-20549999Y4649999D03*
X-20549999Y3899999D03*
X-20549999Y3149999D03*
D11*
X-19800000Y4650000D03*
D12*
X-19799999Y3899999D03*
D11*
X-19800000Y3150000D03*
%TD*%
D13*
%TO.C,J3*%
X-17400000Y-5600000D03*
%TD*%
D10*
%TO.C,*%
X-8000000Y-8000000D03*
%TD*%
D13*
%TO.C,J7*%
X-17400000Y-1800000D03*
%TD*%
D14*
%TO.C,J208*%
X22800000Y3150000D03*
D12*
X22799999Y3899999D03*
D14*
X22800000Y4650000D03*
D12*
X22049999Y3149999D03*
X22049999Y3899999D03*
X22049999Y4649999D03*
X21299999Y3149999D03*
X21299999Y3899999D03*
X21299999Y4649999D03*
X20549999Y3149999D03*
X20549999Y3899999D03*
X20549999Y4649999D03*
D14*
X19800000Y3150000D03*
D12*
X19799999Y3899999D03*
D14*
X19800000Y4650000D03*
%TD*%
D11*
%TO.C,J207*%
X19800000Y850000D03*
D12*
X19799999Y99999D03*
D11*
X19800000Y-650000D03*
D12*
X20549999Y849999D03*
X20549999Y99999D03*
X20549999Y-649999D03*
X21299999Y849999D03*
X21299999Y99999D03*
X21299999Y-649999D03*
X22049999Y849999D03*
X22049999Y99999D03*
X22049999Y-649999D03*
D11*
X22800000Y850000D03*
D12*
X22799999Y99999D03*
D11*
X22800000Y-650000D03*
%TD*%
D15*
%TO.C,U52*%
X14110000Y-4465000D03*
X19890000Y-4465000D03*
D16*
X12679999Y-3984999D03*
D17*
X12679999Y-8154999D03*
D16*
X21319999Y-3984999D03*
D17*
X21319999Y-8154999D03*
%TD*%
D11*
%TO.C,J4*%
X-22800000Y8450000D03*
D12*
X-22799999Y7699999D03*
D11*
X-22800000Y6950000D03*
D12*
X-22049999Y8449999D03*
X-22049999Y7699999D03*
X-22049999Y6949999D03*
X-21299999Y8449999D03*
X-21299999Y7699999D03*
X-21299999Y6949999D03*
X-20549999Y8449999D03*
X-20549999Y7699999D03*
X-20549999Y6949999D03*
D11*
X-19800000Y8450000D03*
D12*
X-19799999Y7699999D03*
D11*
X-19800000Y6950000D03*
%TD*%
%TO.C,J6*%
X19800000Y8450000D03*
D12*
X19799999Y7699999D03*
D11*
X19800000Y6950000D03*
D12*
X20549999Y8449999D03*
X20549999Y7699999D03*
X20549999Y6949999D03*
X21299999Y8449999D03*
X21299999Y7699999D03*
X21299999Y6949999D03*
X22049999Y8449999D03*
X22049999Y7699999D03*
X22049999Y6949999D03*
D11*
X22800000Y8450000D03*
D12*
X22799999Y7699999D03*
D11*
X22800000Y6950000D03*
%TD*%
%TO.C,J206*%
X-22800000Y-6750000D03*
D12*
X-22799999Y-7499999D03*
D11*
X-22800000Y-8250000D03*
D12*
X-22049999Y-6749999D03*
X-22049999Y-7499999D03*
X-22049999Y-8249999D03*
X-21299999Y-6749999D03*
X-21299999Y-7499999D03*
X-21299999Y-8249999D03*
X-20549999Y-6749999D03*
X-20549999Y-7499999D03*
X-20549999Y-8249999D03*
D11*
X-19800000Y-6750000D03*
D12*
X-19799999Y-7499999D03*
D11*
X-19800000Y-8250000D03*
%TD*%
%TO.C,J205*%
X-22800000Y-2950000D03*
D12*
X-22799999Y-3699999D03*
D11*
X-22800000Y-4450000D03*
D12*
X-22049999Y-2949999D03*
X-22049999Y-3699999D03*
X-22049999Y-4449999D03*
X-21299999Y-2949999D03*
X-21299999Y-3699999D03*
X-21299999Y-4449999D03*
X-20549999Y-2949999D03*
X-20549999Y-3699999D03*
X-20549999Y-4449999D03*
D11*
X-19800000Y-2950000D03*
D12*
X-19799999Y-3699999D03*
D11*
X-19800000Y-4450000D03*
%TD*%
%TO.C,J5*%
X-22800000Y850000D03*
D12*
X-22799999Y99999D03*
D11*
X-22800000Y-650000D03*
D12*
X-22049999Y849999D03*
X-22049999Y99999D03*
X-22049999Y-649999D03*
X-21299999Y849999D03*
X-21299999Y99999D03*
X-21299999Y-649999D03*
X-20549999Y849999D03*
X-20549999Y99999D03*
X-20549999Y-649999D03*
D11*
X-19800000Y850000D03*
D12*
X-19799999Y99999D03*
D11*
X-19800000Y-650000D03*
%TD*%
D13*
%TO.C,J8*%
X-17400000Y9600000D03*
%TD*%
D18*
%TO.C,TP3*%
X-5000000Y-9800000D03*
%TD*%
%TO.C,TP7*%
X-3000000Y-9800000D03*
%TD*%
%TO.C,TP5*%
X5000000Y-9800000D03*
%TD*%
%TO.C,TP1*%
X1000000Y-9800000D03*
%TD*%
%TO.C,TP2*%
X-1000000Y-9800000D03*
%TD*%
%TO.C,TP4*%
X3000000Y-9800000D03*
%TD*%
M02*
