%TF.GenerationSoftware,KiCad,Pcbnew,(7.0.0)*%
%TF.CreationDate,2023-08-06T02:23:00-04:00*%
%TF.ProjectId,Rotini-Hardware,526f7469-6e69-42d4-9861-726477617265,rev?*%
%TF.SameCoordinates,Original*%
%TF.FileFunction,Legend,Bot*%
%TF.FilePolarity,Positive*%
%FSLAX46Y46*%
G04 Gerber Fmt 4.6, Leading zero omitted, Abs format (unit mm)*
G04 Created by KiCad (PCBNEW (7.0.0)) date 2023-08-06 02:23:00*
%MOMM*%
%LPD*%
G01*
G04 APERTURE LIST*
G04 Aperture macros list*
%AMRoundRect*
0 Rectangle with rounded corners*
0 $1 Rounding radius*
0 $2 $3 $4 $5 $6 $7 $8 $9 X,Y pos of 4 corners*
0 Add a 4 corners polygon primitive as box body*
4,1,4,$2,$3,$4,$5,$6,$7,$8,$9,$2,$3,0*
0 Add four circle primitives for the rounded corners*
1,1,$1+$1,$2,$3*
1,1,$1+$1,$4,$5*
1,1,$1+$1,$6,$7*
1,1,$1+$1,$8,$9*
0 Add four rect primitives between the rounded corners*
20,1,$1+$1,$2,$3,$4,$5,0*
20,1,$1+$1,$4,$5,$6,$7,0*
20,1,$1+$1,$6,$7,$8,$9,0*
20,1,$1+$1,$8,$9,$2,$3,0*%
G04 Aperture macros list end*
%ADD10C,0.200000*%
%ADD11C,0.300000*%
%ADD12C,0.010000*%
%ADD13C,3.200000*%
%ADD14RoundRect,0.250000X-0.250000X0.250000X-0.250000X-0.250000X0.250000X-0.250000X0.250000X0.250000X0*%
%ADD15R,1.000000X1.000000*%
%ADD16RoundRect,0.350000X0.350000X-0.350000X0.350000X0.350000X-0.350000X0.350000X-0.350000X-0.350000X0*%
%ADD17RoundRect,0.250000X0.250000X-0.250000X0.250000X0.250000X-0.250000X0.250000X-0.250000X-0.250000X0*%
%ADD18C,0.600000*%
%ADD19O,0.900000X2.000000*%
%ADD20O,0.900000X1.700000*%
%ADD21RoundRect,0.375000X0.375000X0.375000X-0.375000X0.375000X-0.375000X-0.375000X0.375000X-0.375000X0*%
G04 APERTURE END LIST*
D10*
X-18193904Y-890476D02*
X-18193904Y-395238D01*
X-18193904Y-395238D02*
X-18498666Y-661904D01*
X-18498666Y-661904D02*
X-18498666Y-547619D01*
X-18498666Y-547619D02*
X-18536761Y-471428D01*
X-18536761Y-471428D02*
X-18574857Y-433333D01*
X-18574857Y-433333D02*
X-18651047Y-395238D01*
X-18651047Y-395238D02*
X-18841523Y-395238D01*
X-18841523Y-395238D02*
X-18917714Y-433333D01*
X-18917714Y-433333D02*
X-18955809Y-471428D01*
X-18955809Y-471428D02*
X-18993904Y-547619D01*
X-18993904Y-547619D02*
X-18993904Y-776190D01*
X-18993904Y-776190D02*
X-18955809Y-852381D01*
X-18955809Y-852381D02*
X-18917714Y-890476D01*
X-18193904Y-166666D02*
X-18993904Y100000D01*
X-18993904Y100000D02*
X-18193904Y366666D01*
X-18193904Y557142D02*
X-18193904Y1052380D01*
X-18193904Y1052380D02*
X-18498666Y785714D01*
X-18498666Y785714D02*
X-18498666Y899999D01*
X-18498666Y899999D02*
X-18536761Y976190D01*
X-18536761Y976190D02*
X-18574857Y1014285D01*
X-18574857Y1014285D02*
X-18651047Y1052380D01*
X-18651047Y1052380D02*
X-18841523Y1052380D01*
X-18841523Y1052380D02*
X-18917714Y1014285D01*
X-18917714Y1014285D02*
X-18955809Y976190D01*
X-18955809Y976190D02*
X-18993904Y899999D01*
X-18993904Y899999D02*
X-18993904Y671428D01*
X-18993904Y671428D02*
X-18955809Y595237D01*
X-18955809Y595237D02*
X-18917714Y557142D01*
X-2390476Y-7993904D02*
X-2847619Y-7993904D01*
X-2619047Y-8793904D02*
X-2619047Y-7993904D01*
X-3038095Y-7993904D02*
X-3571429Y-8793904D01*
X-3571429Y-7993904D02*
X-3038095Y-8793904D01*
X3571428Y-8374857D02*
X3304762Y-8374857D01*
X3190476Y-8793904D02*
X3571428Y-8793904D01*
X3571428Y-8793904D02*
X3571428Y-7993904D01*
X3571428Y-7993904D02*
X3190476Y-7993904D01*
X2580952Y-8374857D02*
X2466666Y-8412952D01*
X2466666Y-8412952D02*
X2428571Y-8451047D01*
X2428571Y-8451047D02*
X2390475Y-8527238D01*
X2390475Y-8527238D02*
X2390475Y-8641523D01*
X2390475Y-8641523D02*
X2428571Y-8717714D01*
X2428571Y-8717714D02*
X2466666Y-8755809D01*
X2466666Y-8755809D02*
X2542856Y-8793904D01*
X2542856Y-8793904D02*
X2847618Y-8793904D01*
X2847618Y-8793904D02*
X2847618Y-7993904D01*
X2847618Y-7993904D02*
X2580952Y-7993904D01*
X2580952Y-7993904D02*
X2504761Y-8032000D01*
X2504761Y-8032000D02*
X2466666Y-8070095D01*
X2466666Y-8070095D02*
X2428571Y-8146285D01*
X2428571Y-8146285D02*
X2428571Y-8222476D01*
X2428571Y-8222476D02*
X2466666Y-8298666D01*
X2466666Y-8298666D02*
X2504761Y-8336761D01*
X2504761Y-8336761D02*
X2580952Y-8374857D01*
X2580952Y-8374857D02*
X2847618Y-8374857D01*
X1766666Y-7993904D02*
X1233332Y-8793904D01*
X1233332Y-7993904D02*
X1766666Y-8793904D01*
X661904Y-8374857D02*
X547618Y-8412952D01*
X547618Y-8412952D02*
X509523Y-8451047D01*
X509523Y-8451047D02*
X471427Y-8527238D01*
X471427Y-8527238D02*
X471427Y-8641523D01*
X471427Y-8641523D02*
X509523Y-8717714D01*
X509523Y-8717714D02*
X547618Y-8755809D01*
X547618Y-8755809D02*
X623808Y-8793904D01*
X623808Y-8793904D02*
X928570Y-8793904D01*
X928570Y-8793904D02*
X928570Y-7993904D01*
X928570Y-7993904D02*
X661904Y-7993904D01*
X661904Y-7993904D02*
X585713Y-8032000D01*
X585713Y-8032000D02*
X547618Y-8070095D01*
X547618Y-8070095D02*
X509523Y-8146285D01*
X509523Y-8146285D02*
X509523Y-8222476D01*
X509523Y-8222476D02*
X547618Y-8298666D01*
X547618Y-8298666D02*
X585713Y-8336761D01*
X585713Y-8336761D02*
X661904Y-8374857D01*
X661904Y-8374857D02*
X928570Y-8374857D01*
X-5209523Y-8032000D02*
X-5133333Y-7993904D01*
X-5133333Y-7993904D02*
X-5019047Y-7993904D01*
X-5019047Y-7993904D02*
X-4904761Y-8032000D01*
X-4904761Y-8032000D02*
X-4828571Y-8108190D01*
X-4828571Y-8108190D02*
X-4790476Y-8184380D01*
X-4790476Y-8184380D02*
X-4752380Y-8336761D01*
X-4752380Y-8336761D02*
X-4752380Y-8451047D01*
X-4752380Y-8451047D02*
X-4790476Y-8603428D01*
X-4790476Y-8603428D02*
X-4828571Y-8679619D01*
X-4828571Y-8679619D02*
X-4904761Y-8755809D01*
X-4904761Y-8755809D02*
X-5019047Y-8793904D01*
X-5019047Y-8793904D02*
X-5095238Y-8793904D01*
X-5095238Y-8793904D02*
X-5209523Y-8755809D01*
X-5209523Y-8755809D02*
X-5247619Y-8717714D01*
X-5247619Y-8717714D02*
X-5247619Y-8451047D01*
X-5247619Y-8451047D02*
X-5095238Y-8451047D01*
X18574857Y823809D02*
X18574857Y1090475D01*
X18993904Y1090475D02*
X18193904Y1090475D01*
X18193904Y1090475D02*
X18193904Y709523D01*
X18193904Y252380D02*
X18193904Y99999D01*
X18193904Y99999D02*
X18232000Y23809D01*
X18232000Y23809D02*
X18308190Y-52381D01*
X18308190Y-52381D02*
X18460571Y-90476D01*
X18460571Y-90476D02*
X18727238Y-90476D01*
X18727238Y-90476D02*
X18879619Y-52381D01*
X18879619Y-52381D02*
X18955809Y23809D01*
X18955809Y23809D02*
X18993904Y99999D01*
X18993904Y99999D02*
X18993904Y252380D01*
X18993904Y252380D02*
X18955809Y328571D01*
X18955809Y328571D02*
X18879619Y404761D01*
X18879619Y404761D02*
X18727238Y442857D01*
X18727238Y442857D02*
X18460571Y442857D01*
X18460571Y442857D02*
X18308190Y404761D01*
X18308190Y404761D02*
X18232000Y328571D01*
X18232000Y328571D02*
X18193904Y252380D01*
X18193904Y-585714D02*
X18193904Y-738095D01*
X18193904Y-738095D02*
X18232000Y-814285D01*
X18232000Y-814285D02*
X18308190Y-890476D01*
X18308190Y-890476D02*
X18460571Y-928571D01*
X18460571Y-928571D02*
X18727238Y-928571D01*
X18727238Y-928571D02*
X18879619Y-890476D01*
X18879619Y-890476D02*
X18955809Y-814285D01*
X18955809Y-814285D02*
X18993904Y-738095D01*
X18993904Y-738095D02*
X18993904Y-585714D01*
X18993904Y-585714D02*
X18955809Y-509523D01*
X18955809Y-509523D02*
X18879619Y-433333D01*
X18879619Y-433333D02*
X18727238Y-395237D01*
X18727238Y-395237D02*
X18460571Y-395237D01*
X18460571Y-395237D02*
X18308190Y-433333D01*
X18308190Y-433333D02*
X18232000Y-509523D01*
X18232000Y-509523D02*
X18193904Y-585714D01*
X-19093904Y7185714D02*
X-19093904Y6804762D01*
X-19093904Y6804762D02*
X-18293904Y6804762D01*
X-18674857Y7452381D02*
X-18674857Y7719047D01*
X-19093904Y7833333D02*
X-19093904Y7452381D01*
X-19093904Y7452381D02*
X-18293904Y7452381D01*
X-18293904Y7452381D02*
X-18293904Y7833333D01*
X-19093904Y8176191D02*
X-18293904Y8176191D01*
X-18293904Y8176191D02*
X-18293904Y8366667D01*
X-18293904Y8366667D02*
X-18332000Y8480953D01*
X-18332000Y8480953D02*
X-18408190Y8557143D01*
X-18408190Y8557143D02*
X-18484380Y8595238D01*
X-18484380Y8595238D02*
X-18636761Y8633334D01*
X-18636761Y8633334D02*
X-18751047Y8633334D01*
X-18751047Y8633334D02*
X-18903428Y8595238D01*
X-18903428Y8595238D02*
X-18979619Y8557143D01*
X-18979619Y8557143D02*
X-19055809Y8480953D01*
X-19055809Y8480953D02*
X-19093904Y8366667D01*
X-19093904Y8366667D02*
X-19093904Y8176191D01*
X18574857Y4585714D02*
X18612952Y4471428D01*
X18612952Y4471428D02*
X18651047Y4433333D01*
X18651047Y4433333D02*
X18727238Y4395237D01*
X18727238Y4395237D02*
X18841523Y4395237D01*
X18841523Y4395237D02*
X18917714Y4433333D01*
X18917714Y4433333D02*
X18955809Y4471428D01*
X18955809Y4471428D02*
X18993904Y4547618D01*
X18993904Y4547618D02*
X18993904Y4852380D01*
X18993904Y4852380D02*
X18193904Y4852380D01*
X18193904Y4852380D02*
X18193904Y4585714D01*
X18193904Y4585714D02*
X18232000Y4509523D01*
X18232000Y4509523D02*
X18270095Y4471428D01*
X18270095Y4471428D02*
X18346285Y4433333D01*
X18346285Y4433333D02*
X18422476Y4433333D01*
X18422476Y4433333D02*
X18498666Y4471428D01*
X18498666Y4471428D02*
X18536761Y4509523D01*
X18536761Y4509523D02*
X18574857Y4585714D01*
X18574857Y4585714D02*
X18574857Y4852380D01*
X18765333Y4090476D02*
X18765333Y3709523D01*
X18993904Y4166666D02*
X18193904Y3899999D01*
X18193904Y3899999D02*
X18993904Y3633333D01*
X18993904Y2909523D02*
X18612952Y3176190D01*
X18993904Y3366666D02*
X18193904Y3366666D01*
X18193904Y3366666D02*
X18193904Y3061904D01*
X18193904Y3061904D02*
X18232000Y2985714D01*
X18232000Y2985714D02*
X18270095Y2947619D01*
X18270095Y2947619D02*
X18346285Y2909523D01*
X18346285Y2909523D02*
X18460571Y2909523D01*
X18460571Y2909523D02*
X18536761Y2947619D01*
X18536761Y2947619D02*
X18574857Y2985714D01*
X18574857Y2985714D02*
X18612952Y3061904D01*
X18612952Y3061904D02*
X18612952Y3366666D01*
X-15732000Y-5671428D02*
X-15693904Y-5747618D01*
X-15693904Y-5747618D02*
X-15693904Y-5861904D01*
X-15693904Y-5861904D02*
X-15732000Y-5976190D01*
X-15732000Y-5976190D02*
X-15808190Y-6052380D01*
X-15808190Y-6052380D02*
X-15884380Y-6090475D01*
X-15884380Y-6090475D02*
X-16036761Y-6128571D01*
X-16036761Y-6128571D02*
X-16151047Y-6128571D01*
X-16151047Y-6128571D02*
X-16303428Y-6090475D01*
X-16303428Y-6090475D02*
X-16379619Y-6052380D01*
X-16379619Y-6052380D02*
X-16455809Y-5976190D01*
X-16455809Y-5976190D02*
X-16493904Y-5861904D01*
X-16493904Y-5861904D02*
X-16493904Y-5785713D01*
X-16493904Y-5785713D02*
X-16455809Y-5671428D01*
X-16455809Y-5671428D02*
X-16417714Y-5633332D01*
X-16417714Y-5633332D02*
X-16151047Y-5633332D01*
X-16151047Y-5633332D02*
X-16151047Y-5785713D01*
X-16493904Y-5252380D02*
X-16493904Y-5099999D01*
X-16493904Y-5099999D02*
X-16455809Y-5023809D01*
X-16455809Y-5023809D02*
X-16417714Y-4985713D01*
X-16417714Y-4985713D02*
X-16303428Y-4909523D01*
X-16303428Y-4909523D02*
X-16151047Y-4871428D01*
X-16151047Y-4871428D02*
X-15846285Y-4871428D01*
X-15846285Y-4871428D02*
X-15770095Y-4909523D01*
X-15770095Y-4909523D02*
X-15732000Y-4947618D01*
X-15732000Y-4947618D02*
X-15693904Y-5023809D01*
X-15693904Y-5023809D02*
X-15693904Y-5176190D01*
X-15693904Y-5176190D02*
X-15732000Y-5252380D01*
X-15732000Y-5252380D02*
X-15770095Y-5290475D01*
X-15770095Y-5290475D02*
X-15846285Y-5328571D01*
X-15846285Y-5328571D02*
X-16036761Y-5328571D01*
X-16036761Y-5328571D02*
X-16112952Y-5290475D01*
X-16112952Y-5290475D02*
X-16151047Y-5252380D01*
X-16151047Y-5252380D02*
X-16189142Y-5176190D01*
X-16189142Y-5176190D02*
X-16189142Y-5023809D01*
X-16189142Y-5023809D02*
X-16151047Y-4947618D01*
X-16151047Y-4947618D02*
X-16112952Y-4909523D01*
X-16112952Y-4909523D02*
X-16036761Y-4871428D01*
X18232000Y8309523D02*
X18193904Y8385713D01*
X18193904Y8385713D02*
X18193904Y8499999D01*
X18193904Y8499999D02*
X18232000Y8614285D01*
X18232000Y8614285D02*
X18308190Y8690475D01*
X18308190Y8690475D02*
X18384380Y8728570D01*
X18384380Y8728570D02*
X18536761Y8766666D01*
X18536761Y8766666D02*
X18651047Y8766666D01*
X18651047Y8766666D02*
X18803428Y8728570D01*
X18803428Y8728570D02*
X18879619Y8690475D01*
X18879619Y8690475D02*
X18955809Y8614285D01*
X18955809Y8614285D02*
X18993904Y8499999D01*
X18993904Y8499999D02*
X18993904Y8423808D01*
X18993904Y8423808D02*
X18955809Y8309523D01*
X18955809Y8309523D02*
X18917714Y8271427D01*
X18917714Y8271427D02*
X18651047Y8271427D01*
X18651047Y8271427D02*
X18651047Y8423808D01*
X18993904Y7928570D02*
X18193904Y7928570D01*
X18193904Y7928570D02*
X18993904Y7471427D01*
X18993904Y7471427D02*
X18193904Y7471427D01*
X18993904Y7090475D02*
X18193904Y7090475D01*
X18193904Y7090475D02*
X18193904Y6899999D01*
X18193904Y6899999D02*
X18232000Y6785713D01*
X18232000Y6785713D02*
X18308190Y6709523D01*
X18308190Y6709523D02*
X18384380Y6671428D01*
X18384380Y6671428D02*
X18536761Y6633332D01*
X18536761Y6633332D02*
X18651047Y6633332D01*
X18651047Y6633332D02*
X18803428Y6671428D01*
X18803428Y6671428D02*
X18879619Y6709523D01*
X18879619Y6709523D02*
X18955809Y6785713D01*
X18955809Y6785713D02*
X18993904Y6899999D01*
X18993904Y6899999D02*
X18993904Y7090475D01*
X-18232000Y3190476D02*
X-18193904Y3114286D01*
X-18193904Y3114286D02*
X-18193904Y3000000D01*
X-18193904Y3000000D02*
X-18232000Y2885714D01*
X-18232000Y2885714D02*
X-18308190Y2809524D01*
X-18308190Y2809524D02*
X-18384380Y2771429D01*
X-18384380Y2771429D02*
X-18536761Y2733333D01*
X-18536761Y2733333D02*
X-18651047Y2733333D01*
X-18651047Y2733333D02*
X-18803428Y2771429D01*
X-18803428Y2771429D02*
X-18879619Y2809524D01*
X-18879619Y2809524D02*
X-18955809Y2885714D01*
X-18955809Y2885714D02*
X-18993904Y3000000D01*
X-18993904Y3000000D02*
X-18993904Y3076191D01*
X-18993904Y3076191D02*
X-18955809Y3190476D01*
X-18955809Y3190476D02*
X-18917714Y3228572D01*
X-18917714Y3228572D02*
X-18651047Y3228572D01*
X-18651047Y3228572D02*
X-18651047Y3076191D01*
X-18993904Y3571429D02*
X-18193904Y3571429D01*
X-18193904Y3571429D02*
X-18993904Y4028572D01*
X-18993904Y4028572D02*
X-18193904Y4028572D01*
X-18993904Y4409524D02*
X-18193904Y4409524D01*
X-18193904Y4409524D02*
X-18193904Y4600000D01*
X-18193904Y4600000D02*
X-18232000Y4714286D01*
X-18232000Y4714286D02*
X-18308190Y4790476D01*
X-18308190Y4790476D02*
X-18384380Y4828571D01*
X-18384380Y4828571D02*
X-18536761Y4866667D01*
X-18536761Y4866667D02*
X-18651047Y4866667D01*
X-18651047Y4866667D02*
X-18803428Y4828571D01*
X-18803428Y4828571D02*
X-18879619Y4790476D01*
X-18879619Y4790476D02*
X-18955809Y4714286D01*
X-18955809Y4714286D02*
X-18993904Y4600000D01*
X-18993904Y4600000D02*
X-18993904Y4409524D01*
X5590475Y-8374857D02*
X5323809Y-8374857D01*
X5209523Y-8793904D02*
X5590475Y-8793904D01*
X5590475Y-8793904D02*
X5590475Y-7993904D01*
X5590475Y-7993904D02*
X5209523Y-7993904D01*
X4866665Y-8793904D02*
X4866665Y-7993904D01*
X4866665Y-7993904D02*
X4409522Y-8793904D01*
X4409522Y-8793904D02*
X4409522Y-7993904D01*
X-18193904Y-4576189D02*
X-18993904Y-4309522D01*
X-18993904Y-4309522D02*
X-18193904Y-4042856D01*
X-18993904Y-3776189D02*
X-18193904Y-3776189D01*
X-18993904Y-3395237D02*
X-18193904Y-3395237D01*
X-18193904Y-3395237D02*
X-18993904Y-2938094D01*
X-18993904Y-2938094D02*
X-18193904Y-2938094D01*
X-15732000Y9047618D02*
X-15693904Y8971428D01*
X-15693904Y8971428D02*
X-15693904Y8857142D01*
X-15693904Y8857142D02*
X-15732000Y8742856D01*
X-15732000Y8742856D02*
X-15808190Y8666666D01*
X-15808190Y8666666D02*
X-15884380Y8628571D01*
X-15884380Y8628571D02*
X-16036761Y8590475D01*
X-16036761Y8590475D02*
X-16151047Y8590475D01*
X-16151047Y8590475D02*
X-16303428Y8628571D01*
X-16303428Y8628571D02*
X-16379619Y8666666D01*
X-16379619Y8666666D02*
X-16455809Y8742856D01*
X-16455809Y8742856D02*
X-16493904Y8857142D01*
X-16493904Y8857142D02*
X-16493904Y8933333D01*
X-16493904Y8933333D02*
X-16455809Y9047618D01*
X-16455809Y9047618D02*
X-16417714Y9085714D01*
X-16417714Y9085714D02*
X-16151047Y9085714D01*
X-16151047Y9085714D02*
X-16151047Y8933333D01*
X-15960571Y9771428D02*
X-16493904Y9771428D01*
X-15655809Y9580952D02*
X-16227238Y9390475D01*
X-16227238Y9390475D02*
X-16227238Y9885714D01*
X-15693904Y10342857D02*
X-15693904Y10419047D01*
X-15693904Y10419047D02*
X-15732000Y10495238D01*
X-15732000Y10495238D02*
X-15770095Y10533333D01*
X-15770095Y10533333D02*
X-15846285Y10571428D01*
X-15846285Y10571428D02*
X-15998666Y10609523D01*
X-15998666Y10609523D02*
X-16189142Y10609523D01*
X-16189142Y10609523D02*
X-16341523Y10571428D01*
X-16341523Y10571428D02*
X-16417714Y10533333D01*
X-16417714Y10533333D02*
X-16455809Y10495238D01*
X-16455809Y10495238D02*
X-16493904Y10419047D01*
X-16493904Y10419047D02*
X-16493904Y10342857D01*
X-16493904Y10342857D02*
X-16455809Y10266666D01*
X-16455809Y10266666D02*
X-16417714Y10228571D01*
X-16417714Y10228571D02*
X-16341523Y10190476D01*
X-16341523Y10190476D02*
X-16189142Y10152380D01*
X-16189142Y10152380D02*
X-15998666Y10152380D01*
X-15998666Y10152380D02*
X-15846285Y10190476D01*
X-15846285Y10190476D02*
X-15770095Y10228571D01*
X-15770095Y10228571D02*
X-15732000Y10266666D01*
X-15732000Y10266666D02*
X-15693904Y10342857D01*
X-18232000Y-8109523D02*
X-18193904Y-8185713D01*
X-18193904Y-8185713D02*
X-18193904Y-8299999D01*
X-18193904Y-8299999D02*
X-18232000Y-8414285D01*
X-18232000Y-8414285D02*
X-18308190Y-8490475D01*
X-18308190Y-8490475D02*
X-18384380Y-8528570D01*
X-18384380Y-8528570D02*
X-18536761Y-8566666D01*
X-18536761Y-8566666D02*
X-18651047Y-8566666D01*
X-18651047Y-8566666D02*
X-18803428Y-8528570D01*
X-18803428Y-8528570D02*
X-18879619Y-8490475D01*
X-18879619Y-8490475D02*
X-18955809Y-8414285D01*
X-18955809Y-8414285D02*
X-18993904Y-8299999D01*
X-18993904Y-8299999D02*
X-18993904Y-8223808D01*
X-18993904Y-8223808D02*
X-18955809Y-8109523D01*
X-18955809Y-8109523D02*
X-18917714Y-8071427D01*
X-18917714Y-8071427D02*
X-18651047Y-8071427D01*
X-18651047Y-8071427D02*
X-18651047Y-8223808D01*
X-18993904Y-7728570D02*
X-18193904Y-7728570D01*
X-18193904Y-7728570D02*
X-18993904Y-7271427D01*
X-18993904Y-7271427D02*
X-18193904Y-7271427D01*
X-18993904Y-6890475D02*
X-18193904Y-6890475D01*
X-18193904Y-6890475D02*
X-18193904Y-6699999D01*
X-18193904Y-6699999D02*
X-18232000Y-6585713D01*
X-18232000Y-6585713D02*
X-18308190Y-6509523D01*
X-18308190Y-6509523D02*
X-18384380Y-6471428D01*
X-18384380Y-6471428D02*
X-18536761Y-6433332D01*
X-18536761Y-6433332D02*
X-18651047Y-6433332D01*
X-18651047Y-6433332D02*
X-18803428Y-6471428D01*
X-18803428Y-6471428D02*
X-18879619Y-6509523D01*
X-18879619Y-6509523D02*
X-18955809Y-6585713D01*
X-18955809Y-6585713D02*
X-18993904Y-6699999D01*
X-18993904Y-6699999D02*
X-18993904Y-6890475D01*
X-866667Y-8793904D02*
X-600000Y-8412952D01*
X-409524Y-8793904D02*
X-409524Y-7993904D01*
X-409524Y-7993904D02*
X-714286Y-7993904D01*
X-714286Y-7993904D02*
X-790476Y-8032000D01*
X-790476Y-8032000D02*
X-828571Y-8070095D01*
X-828571Y-8070095D02*
X-866667Y-8146285D01*
X-866667Y-8146285D02*
X-866667Y-8260571D01*
X-866667Y-8260571D02*
X-828571Y-8336761D01*
X-828571Y-8336761D02*
X-790476Y-8374857D01*
X-790476Y-8374857D02*
X-714286Y-8412952D01*
X-714286Y-8412952D02*
X-409524Y-8412952D01*
X-1133333Y-7993904D02*
X-1666667Y-8793904D01*
X-1666667Y-7993904D02*
X-1133333Y-8793904D01*
X-15732000Y-2752381D02*
X-15693904Y-2828571D01*
X-15693904Y-2828571D02*
X-15693904Y-2942857D01*
X-15693904Y-2942857D02*
X-15732000Y-3057143D01*
X-15732000Y-3057143D02*
X-15808190Y-3133333D01*
X-15808190Y-3133333D02*
X-15884380Y-3171428D01*
X-15884380Y-3171428D02*
X-16036761Y-3209524D01*
X-16036761Y-3209524D02*
X-16151047Y-3209524D01*
X-16151047Y-3209524D02*
X-16303428Y-3171428D01*
X-16303428Y-3171428D02*
X-16379619Y-3133333D01*
X-16379619Y-3133333D02*
X-16455809Y-3057143D01*
X-16455809Y-3057143D02*
X-16493904Y-2942857D01*
X-16493904Y-2942857D02*
X-16493904Y-2866666D01*
X-16493904Y-2866666D02*
X-16455809Y-2752381D01*
X-16455809Y-2752381D02*
X-16417714Y-2714285D01*
X-16417714Y-2714285D02*
X-16151047Y-2714285D01*
X-16151047Y-2714285D02*
X-16151047Y-2866666D01*
X-16493904Y-1952381D02*
X-16493904Y-2409524D01*
X-16493904Y-2180952D02*
X-15693904Y-2180952D01*
X-15693904Y-2180952D02*
X-15808190Y-2257143D01*
X-15808190Y-2257143D02*
X-15884380Y-2333333D01*
X-15884380Y-2333333D02*
X-15922476Y-2409524D01*
X-15693904Y-1457142D02*
X-15693904Y-1380952D01*
X-15693904Y-1380952D02*
X-15732000Y-1304761D01*
X-15732000Y-1304761D02*
X-15770095Y-1266666D01*
X-15770095Y-1266666D02*
X-15846285Y-1228571D01*
X-15846285Y-1228571D02*
X-15998666Y-1190476D01*
X-15998666Y-1190476D02*
X-16189142Y-1190476D01*
X-16189142Y-1190476D02*
X-16341523Y-1228571D01*
X-16341523Y-1228571D02*
X-16417714Y-1266666D01*
X-16417714Y-1266666D02*
X-16455809Y-1304761D01*
X-16455809Y-1304761D02*
X-16493904Y-1380952D01*
X-16493904Y-1380952D02*
X-16493904Y-1457142D01*
X-16493904Y-1457142D02*
X-16455809Y-1533333D01*
X-16455809Y-1533333D02*
X-16417714Y-1571428D01*
X-16417714Y-1571428D02*
X-16341523Y-1609523D01*
X-16341523Y-1609523D02*
X-16189142Y-1647619D01*
X-16189142Y-1647619D02*
X-15998666Y-1647619D01*
X-15998666Y-1647619D02*
X-15846285Y-1609523D01*
X-15846285Y-1609523D02*
X-15770095Y-1571428D01*
X-15770095Y-1571428D02*
X-15732000Y-1533333D01*
X-15732000Y-1533333D02*
X-15693904Y-1457142D01*
D11*
X15971428Y8646000D02*
X15400000Y8646000D01*
X16085714Y8303142D02*
X15685714Y9503142D01*
X15685714Y9503142D02*
X15285714Y8303142D01*
X14714286Y8303142D02*
X14828571Y8360285D01*
X14828571Y8360285D02*
X14885714Y8474571D01*
X14885714Y8474571D02*
X14885714Y9503142D01*
X14428572Y9103142D02*
X13971429Y9103142D01*
X14257143Y8303142D02*
X14257143Y9331714D01*
X14257143Y9331714D02*
X14200000Y9446000D01*
X14200000Y9446000D02*
X14085715Y9503142D01*
X14085715Y9503142D02*
X13971429Y9503142D01*
X13571429Y8303142D02*
X13571429Y9103142D01*
X13571429Y8874571D02*
X13514286Y8988857D01*
X13514286Y8988857D02*
X13457144Y9046000D01*
X13457144Y9046000D02*
X13342858Y9103142D01*
X13342858Y9103142D02*
X13228572Y9103142D01*
X12371429Y8360285D02*
X12485715Y8303142D01*
X12485715Y8303142D02*
X12714287Y8303142D01*
X12714287Y8303142D02*
X12828572Y8360285D01*
X12828572Y8360285D02*
X12885715Y8474571D01*
X12885715Y8474571D02*
X12885715Y8931714D01*
X12885715Y8931714D02*
X12828572Y9046000D01*
X12828572Y9046000D02*
X12714287Y9103142D01*
X12714287Y9103142D02*
X12485715Y9103142D01*
X12485715Y9103142D02*
X12371429Y9046000D01*
X12371429Y9046000D02*
X12314287Y8931714D01*
X12314287Y8931714D02*
X12314287Y8817428D01*
X12314287Y8817428D02*
X12885715Y8703142D01*
X11285716Y8303142D02*
X11285716Y9503142D01*
X11285716Y8360285D02*
X11400001Y8303142D01*
X11400001Y8303142D02*
X11628573Y8303142D01*
X11628573Y8303142D02*
X11742858Y8360285D01*
X11742858Y8360285D02*
X11800001Y8417428D01*
X11800001Y8417428D02*
X11857144Y8531714D01*
X11857144Y8531714D02*
X11857144Y8874571D01*
X11857144Y8874571D02*
X11800001Y8988857D01*
X11800001Y8988857D02*
X11742858Y9046000D01*
X11742858Y9046000D02*
X11628573Y9103142D01*
X11628573Y9103142D02*
X11400001Y9103142D01*
X11400001Y9103142D02*
X11285716Y9046000D01*
X10542859Y8303142D02*
X10657144Y8360285D01*
X10657144Y8360285D02*
X10714287Y8417428D01*
X10714287Y8417428D02*
X10771430Y8531714D01*
X10771430Y8531714D02*
X10771430Y8874571D01*
X10771430Y8874571D02*
X10714287Y8988857D01*
X10714287Y8988857D02*
X10657144Y9046000D01*
X10657144Y9046000D02*
X10542859Y9103142D01*
X10542859Y9103142D02*
X10371430Y9103142D01*
X10371430Y9103142D02*
X10257144Y9046000D01*
X10257144Y9046000D02*
X10200002Y8988857D01*
X10200002Y8988857D02*
X10142859Y8874571D01*
X10142859Y8874571D02*
X10142859Y8531714D01*
X10142859Y8531714D02*
X10200002Y8417428D01*
X10200002Y8417428D02*
X10257144Y8360285D01*
X10257144Y8360285D02*
X10371430Y8303142D01*
X10371430Y8303142D02*
X10542859Y8303142D01*
X8965716Y8360285D02*
X8794288Y8303142D01*
X8794288Y8303142D02*
X8508573Y8303142D01*
X8508573Y8303142D02*
X8394288Y8360285D01*
X8394288Y8360285D02*
X8337145Y8417428D01*
X8337145Y8417428D02*
X8280002Y8531714D01*
X8280002Y8531714D02*
X8280002Y8646000D01*
X8280002Y8646000D02*
X8337145Y8760285D01*
X8337145Y8760285D02*
X8394288Y8817428D01*
X8394288Y8817428D02*
X8508573Y8874571D01*
X8508573Y8874571D02*
X8737145Y8931714D01*
X8737145Y8931714D02*
X8851430Y8988857D01*
X8851430Y8988857D02*
X8908573Y9046000D01*
X8908573Y9046000D02*
X8965716Y9160285D01*
X8965716Y9160285D02*
X8965716Y9274571D01*
X8965716Y9274571D02*
X8908573Y9388857D01*
X8908573Y9388857D02*
X8851430Y9446000D01*
X8851430Y9446000D02*
X8737145Y9503142D01*
X8737145Y9503142D02*
X8451430Y9503142D01*
X8451430Y9503142D02*
X8280002Y9446000D01*
X7880002Y9103142D02*
X7594288Y8303142D01*
X7308573Y9103142D02*
X7594288Y8303142D01*
X7594288Y8303142D02*
X7708573Y8017428D01*
X7708573Y8017428D02*
X7765716Y7960285D01*
X7765716Y7960285D02*
X7880002Y7903142D01*
X6908573Y8360285D02*
X6794287Y8303142D01*
X6794287Y8303142D02*
X6565716Y8303142D01*
X6565716Y8303142D02*
X6451430Y8360285D01*
X6451430Y8360285D02*
X6394287Y8474571D01*
X6394287Y8474571D02*
X6394287Y8531714D01*
X6394287Y8531714D02*
X6451430Y8646000D01*
X6451430Y8646000D02*
X6565716Y8703142D01*
X6565716Y8703142D02*
X6737145Y8703142D01*
X6737145Y8703142D02*
X6851430Y8760285D01*
X6851430Y8760285D02*
X6908573Y8874571D01*
X6908573Y8874571D02*
X6908573Y8931714D01*
X6908573Y8931714D02*
X6851430Y9046000D01*
X6851430Y9046000D02*
X6737145Y9103142D01*
X6737145Y9103142D02*
X6565716Y9103142D01*
X6565716Y9103142D02*
X6451430Y9046000D01*
X6051430Y9103142D02*
X5594287Y9103142D01*
X5880001Y9503142D02*
X5880001Y8474571D01*
X5880001Y8474571D02*
X5822858Y8360285D01*
X5822858Y8360285D02*
X5708573Y8303142D01*
X5708573Y8303142D02*
X5594287Y8303142D01*
X4737144Y8360285D02*
X4851430Y8303142D01*
X4851430Y8303142D02*
X5080002Y8303142D01*
X5080002Y8303142D02*
X5194287Y8360285D01*
X5194287Y8360285D02*
X5251430Y8474571D01*
X5251430Y8474571D02*
X5251430Y8931714D01*
X5251430Y8931714D02*
X5194287Y9046000D01*
X5194287Y9046000D02*
X5080002Y9103142D01*
X5080002Y9103142D02*
X4851430Y9103142D01*
X4851430Y9103142D02*
X4737144Y9046000D01*
X4737144Y9046000D02*
X4680002Y8931714D01*
X4680002Y8931714D02*
X4680002Y8817428D01*
X4680002Y8817428D02*
X5251430Y8703142D01*
X4165716Y8303142D02*
X4165716Y9103142D01*
X4165716Y8988857D02*
X4108573Y9046000D01*
X4108573Y9046000D02*
X3994288Y9103142D01*
X3994288Y9103142D02*
X3822859Y9103142D01*
X3822859Y9103142D02*
X3708573Y9046000D01*
X3708573Y9046000D02*
X3651431Y8931714D01*
X3651431Y8931714D02*
X3651431Y8303142D01*
X3651431Y8931714D02*
X3594288Y9046000D01*
X3594288Y9046000D02*
X3480002Y9103142D01*
X3480002Y9103142D02*
X3308573Y9103142D01*
X3308573Y9103142D02*
X3194288Y9046000D01*
X3194288Y9046000D02*
X3137145Y8931714D01*
X3137145Y8931714D02*
X3137145Y8303142D01*
X2622859Y8360285D02*
X2508573Y8303142D01*
X2508573Y8303142D02*
X2280002Y8303142D01*
X2280002Y8303142D02*
X2165716Y8360285D01*
X2165716Y8360285D02*
X2108573Y8474571D01*
X2108573Y8474571D02*
X2108573Y8531714D01*
X2108573Y8531714D02*
X2165716Y8646000D01*
X2165716Y8646000D02*
X2280002Y8703142D01*
X2280002Y8703142D02*
X2451431Y8703142D01*
X2451431Y8703142D02*
X2565716Y8760285D01*
X2565716Y8760285D02*
X2622859Y8874571D01*
X2622859Y8874571D02*
X2622859Y8931714D01*
X2622859Y8931714D02*
X2565716Y9046000D01*
X2565716Y9046000D02*
X2451431Y9103142D01*
X2451431Y9103142D02*
X2280002Y9103142D01*
X2280002Y9103142D02*
X2165716Y9046000D01*
X14942857Y7273428D02*
X15057142Y7330571D01*
X15057142Y7330571D02*
X15285714Y7330571D01*
X15285714Y7330571D02*
X15400000Y7273428D01*
X15400000Y7273428D02*
X15514285Y7159142D01*
X15514285Y7159142D02*
X15571428Y7044857D01*
X15571428Y7044857D02*
X15571428Y6816285D01*
X15571428Y6816285D02*
X15514285Y6702000D01*
X15514285Y6702000D02*
X15400000Y6587714D01*
X15400000Y6587714D02*
X15285714Y6530571D01*
X15285714Y6530571D02*
X15057142Y6530571D01*
X15057142Y6530571D02*
X14942857Y6587714D01*
X15171428Y7730571D02*
X15457142Y7673428D01*
X15457142Y7673428D02*
X15742857Y7502000D01*
X15742857Y7502000D02*
X15914285Y7216285D01*
X15914285Y7216285D02*
X15971428Y6930571D01*
X15971428Y6930571D02*
X15914285Y6644857D01*
X15914285Y6644857D02*
X15742857Y6359142D01*
X15742857Y6359142D02*
X15457142Y6187714D01*
X15457142Y6187714D02*
X15171428Y6130571D01*
X15171428Y6130571D02*
X14885714Y6187714D01*
X14885714Y6187714D02*
X14600000Y6359142D01*
X14600000Y6359142D02*
X14428571Y6644857D01*
X14428571Y6644857D02*
X14371428Y6930571D01*
X14371428Y6930571D02*
X14428571Y7216285D01*
X14428571Y7216285D02*
X14600000Y7502000D01*
X14600000Y7502000D02*
X14885714Y7673428D01*
X14885714Y7673428D02*
X15171428Y7730571D01*
X13194285Y7444857D02*
X13137142Y7502000D01*
X13137142Y7502000D02*
X13022857Y7559142D01*
X13022857Y7559142D02*
X12737142Y7559142D01*
X12737142Y7559142D02*
X12622857Y7502000D01*
X12622857Y7502000D02*
X12565714Y7444857D01*
X12565714Y7444857D02*
X12508571Y7330571D01*
X12508571Y7330571D02*
X12508571Y7216285D01*
X12508571Y7216285D02*
X12565714Y7044857D01*
X12565714Y7044857D02*
X13251428Y6359142D01*
X13251428Y6359142D02*
X12508571Y6359142D01*
X11765714Y7559142D02*
X11651428Y7559142D01*
X11651428Y7559142D02*
X11537142Y7502000D01*
X11537142Y7502000D02*
X11480000Y7444857D01*
X11480000Y7444857D02*
X11422857Y7330571D01*
X11422857Y7330571D02*
X11365714Y7102000D01*
X11365714Y7102000D02*
X11365714Y6816285D01*
X11365714Y6816285D02*
X11422857Y6587714D01*
X11422857Y6587714D02*
X11480000Y6473428D01*
X11480000Y6473428D02*
X11537142Y6416285D01*
X11537142Y6416285D02*
X11651428Y6359142D01*
X11651428Y6359142D02*
X11765714Y6359142D01*
X11765714Y6359142D02*
X11880000Y6416285D01*
X11880000Y6416285D02*
X11937142Y6473428D01*
X11937142Y6473428D02*
X11994285Y6587714D01*
X11994285Y6587714D02*
X12051428Y6816285D01*
X12051428Y6816285D02*
X12051428Y7102000D01*
X12051428Y7102000D02*
X11994285Y7330571D01*
X11994285Y7330571D02*
X11937142Y7444857D01*
X11937142Y7444857D02*
X11880000Y7502000D01*
X11880000Y7502000D02*
X11765714Y7559142D01*
X10908571Y7444857D02*
X10851428Y7502000D01*
X10851428Y7502000D02*
X10737143Y7559142D01*
X10737143Y7559142D02*
X10451428Y7559142D01*
X10451428Y7559142D02*
X10337143Y7502000D01*
X10337143Y7502000D02*
X10280000Y7444857D01*
X10280000Y7444857D02*
X10222857Y7330571D01*
X10222857Y7330571D02*
X10222857Y7216285D01*
X10222857Y7216285D02*
X10280000Y7044857D01*
X10280000Y7044857D02*
X10965714Y6359142D01*
X10965714Y6359142D02*
X10222857Y6359142D01*
X9822857Y7559142D02*
X9080000Y7559142D01*
X9080000Y7559142D02*
X9480000Y7102000D01*
X9480000Y7102000D02*
X9308571Y7102000D01*
X9308571Y7102000D02*
X9194286Y7044857D01*
X9194286Y7044857D02*
X9137143Y6987714D01*
X9137143Y6987714D02*
X9080000Y6873428D01*
X9080000Y6873428D02*
X9080000Y6587714D01*
X9080000Y6587714D02*
X9137143Y6473428D01*
X9137143Y6473428D02*
X9194286Y6416285D01*
X9194286Y6416285D02*
X9308571Y6359142D01*
X9308571Y6359142D02*
X9651428Y6359142D01*
X9651428Y6359142D02*
X9765714Y6416285D01*
X9765714Y6416285D02*
X9822857Y6473428D01*
X15228571Y4415142D02*
X15628571Y4986571D01*
X15914285Y4415142D02*
X15914285Y5615142D01*
X15914285Y5615142D02*
X15457142Y5615142D01*
X15457142Y5615142D02*
X15342857Y5558000D01*
X15342857Y5558000D02*
X15285714Y5500857D01*
X15285714Y5500857D02*
X15228571Y5386571D01*
X15228571Y5386571D02*
X15228571Y5215142D01*
X15228571Y5215142D02*
X15285714Y5100857D01*
X15285714Y5100857D02*
X15342857Y5043714D01*
X15342857Y5043714D02*
X15457142Y4986571D01*
X15457142Y4986571D02*
X15914285Y4986571D01*
X14542857Y4415142D02*
X14657142Y4472285D01*
X14657142Y4472285D02*
X14714285Y4529428D01*
X14714285Y4529428D02*
X14771428Y4643714D01*
X14771428Y4643714D02*
X14771428Y4986571D01*
X14771428Y4986571D02*
X14714285Y5100857D01*
X14714285Y5100857D02*
X14657142Y5158000D01*
X14657142Y5158000D02*
X14542857Y5215142D01*
X14542857Y5215142D02*
X14371428Y5215142D01*
X14371428Y5215142D02*
X14257142Y5158000D01*
X14257142Y5158000D02*
X14200000Y5100857D01*
X14200000Y5100857D02*
X14142857Y4986571D01*
X14142857Y4986571D02*
X14142857Y4643714D01*
X14142857Y4643714D02*
X14200000Y4529428D01*
X14200000Y4529428D02*
X14257142Y4472285D01*
X14257142Y4472285D02*
X14371428Y4415142D01*
X14371428Y4415142D02*
X14542857Y4415142D01*
X13800000Y5215142D02*
X13342857Y5215142D01*
X13628571Y5615142D02*
X13628571Y4586571D01*
X13628571Y4586571D02*
X13571428Y4472285D01*
X13571428Y4472285D02*
X13457143Y4415142D01*
X13457143Y4415142D02*
X13342857Y4415142D01*
X12942857Y4415142D02*
X12942857Y5215142D01*
X12942857Y5615142D02*
X13000000Y5558000D01*
X13000000Y5558000D02*
X12942857Y5500857D01*
X12942857Y5500857D02*
X12885714Y5558000D01*
X12885714Y5558000D02*
X12942857Y5615142D01*
X12942857Y5615142D02*
X12942857Y5500857D01*
X12371428Y5215142D02*
X12371428Y4415142D01*
X12371428Y5100857D02*
X12314285Y5158000D01*
X12314285Y5158000D02*
X12200000Y5215142D01*
X12200000Y5215142D02*
X12028571Y5215142D01*
X12028571Y5215142D02*
X11914285Y5158000D01*
X11914285Y5158000D02*
X11857143Y5043714D01*
X11857143Y5043714D02*
X11857143Y4415142D01*
X11285714Y4415142D02*
X11285714Y5215142D01*
X11285714Y5615142D02*
X11342857Y5558000D01*
X11342857Y5558000D02*
X11285714Y5500857D01*
X11285714Y5500857D02*
X11228571Y5558000D01*
X11228571Y5558000D02*
X11285714Y5615142D01*
X11285714Y5615142D02*
X11285714Y5500857D01*
X10165714Y5615142D02*
X9765714Y4415142D01*
X9765714Y4415142D02*
X9365714Y5615142D01*
X9080000Y5615142D02*
X8337143Y5615142D01*
X8337143Y5615142D02*
X8737143Y5158000D01*
X8737143Y5158000D02*
X8565714Y5158000D01*
X8565714Y5158000D02*
X8451429Y5100857D01*
X8451429Y5100857D02*
X8394286Y5043714D01*
X8394286Y5043714D02*
X8337143Y4929428D01*
X8337143Y4929428D02*
X8337143Y4643714D01*
X8337143Y4643714D02*
X8394286Y4529428D01*
X8394286Y4529428D02*
X8451429Y4472285D01*
X8451429Y4472285D02*
X8565714Y4415142D01*
X8565714Y4415142D02*
X8908571Y4415142D01*
X8908571Y4415142D02*
X9022857Y4472285D01*
X9022857Y4472285D02*
X9080000Y4529428D01*
%TO.C,G\u002A\u002A\u002A*%
G36*
X-6612234Y4820372D02*
G01*
X-6623940Y4718045D01*
X-6633909Y4686625D01*
X-6694121Y4574608D01*
X-6790610Y4465571D01*
X-6921216Y4360402D01*
X-7083780Y4259993D01*
X-7276142Y4165233D01*
X-7496143Y4077013D01*
X-7741624Y3996224D01*
X-8010425Y3923755D01*
X-8300387Y3860496D01*
X-8609351Y3807339D01*
X-8935158Y3765172D01*
X-9074886Y3753048D01*
X-9237743Y3744211D01*
X-9411424Y3739003D01*
X-9585989Y3737509D01*
X-9751502Y3739810D01*
X-9898023Y3745991D01*
X-10015615Y3756134D01*
X-10017447Y3756357D01*
X-10244168Y3793638D01*
X-10464242Y3848044D01*
X-10671245Y3917127D01*
X-10858752Y3998442D01*
X-11020339Y4089541D01*
X-11149581Y4187978D01*
X-11178329Y4215078D01*
X-11307745Y4365665D01*
X-11400524Y4529675D01*
X-11456573Y4706905D01*
X-11475801Y4897154D01*
X-11475780Y4906923D01*
X-11010641Y4906923D01*
X-11010599Y4889838D01*
X-11008320Y4799135D01*
X-11001047Y4732907D01*
X-10986672Y4678589D01*
X-10963084Y4623615D01*
X-10897160Y4516973D01*
X-10786705Y4402727D01*
X-10641854Y4303942D01*
X-10461925Y4220168D01*
X-10246239Y4150956D01*
X-10226434Y4145746D01*
X-10162505Y4130077D01*
X-10102802Y4118262D01*
X-10040108Y4109655D01*
X-9967206Y4103609D01*
X-9876878Y4099476D01*
X-9761907Y4096610D01*
X-9615077Y4094363D01*
X-9505157Y4093471D01*
X-9281448Y4095571D01*
X-9088940Y4103196D01*
X-8931392Y4116229D01*
X-8745169Y4140047D01*
X-8478221Y4183875D01*
X-8222111Y4237154D01*
X-7980872Y4298606D01*
X-7758538Y4366954D01*
X-7559143Y4440921D01*
X-7386720Y4519231D01*
X-7245304Y4600605D01*
X-7138927Y4683766D01*
X-7132118Y4690388D01*
X-7078463Y4757318D01*
X-7058579Y4820372D01*
X-7073442Y4881472D01*
X-7124029Y4942540D01*
X-7211317Y5005499D01*
X-7336281Y5072271D01*
X-7387147Y5095948D01*
X-7612288Y5185430D01*
X-7873567Y5267173D01*
X-8171361Y5341252D01*
X-8506045Y5407744D01*
X-8877994Y5466726D01*
X-9287585Y5518276D01*
X-9735193Y5562468D01*
X-9884617Y5575447D01*
X-9918694Y5460993D01*
X-9935715Y5389826D01*
X-9951795Y5293023D01*
X-9961166Y5200000D01*
X-9957771Y5071884D01*
X-9929584Y4969970D01*
X-9874609Y4891405D01*
X-9790923Y4832033D01*
X-9769701Y4821336D01*
X-9731946Y4805604D01*
X-9692207Y4796313D01*
X-9641229Y4792457D01*
X-9569757Y4793031D01*
X-9468538Y4797032D01*
X-9396521Y4801455D01*
X-9156834Y4830271D01*
X-8891038Y4881576D01*
X-8603028Y4954658D01*
X-8566906Y4964411D01*
X-8479777Y4984975D01*
X-8403384Y4999230D01*
X-8351020Y5004542D01*
X-8316212Y5002306D01*
X-8235231Y4977869D01*
X-8173338Y4931520D01*
X-8137156Y4869536D01*
X-8133308Y4798193D01*
X-8134477Y4793020D01*
X-8146319Y4766849D01*
X-8170009Y4742366D01*
X-8208864Y4718452D01*
X-8266204Y4693991D01*
X-8345347Y4667863D01*
X-8449613Y4638952D01*
X-8582319Y4606139D01*
X-8746786Y4568305D01*
X-8946331Y4524335D01*
X-8988438Y4515262D01*
X-9116765Y4489160D01*
X-9221668Y4471262D01*
X-9314325Y4460137D01*
X-9405915Y4454354D01*
X-9507615Y4452483D01*
X-9670542Y4457078D01*
X-9858941Y4479723D01*
X-10017279Y4521921D01*
X-10148118Y4584413D01*
X-10254020Y4667938D01*
X-10289577Y4706305D01*
X-10343526Y4784065D01*
X-10379864Y4873309D01*
X-10401691Y4982936D01*
X-10412106Y5121846D01*
X-10414254Y5195160D01*
X-10413538Y5274166D01*
X-10406989Y5336471D01*
X-10392998Y5395094D01*
X-10369959Y5463053D01*
X-10365898Y5474224D01*
X-10343412Y5538149D01*
X-10328516Y5584089D01*
X-10324258Y5602735D01*
X-10324901Y5602956D01*
X-10349847Y5604937D01*
X-10405295Y5607514D01*
X-10483775Y5610378D01*
X-10577815Y5613221D01*
X-10827399Y5620077D01*
X-10883737Y5473538D01*
X-10908113Y5409231D01*
X-10951084Y5287510D01*
X-10980568Y5186486D01*
X-10998819Y5096091D01*
X-11008092Y5006259D01*
X-11010641Y4906923D01*
X-11475780Y4906923D01*
X-11475751Y4920222D01*
X-11473500Y4985703D01*
X-11467037Y5050267D01*
X-11454992Y5118531D01*
X-11435996Y5195111D01*
X-11408679Y5284623D01*
X-11371670Y5391682D01*
X-11323601Y5520905D01*
X-11263100Y5676909D01*
X-11188800Y5864308D01*
X-11143234Y5979049D01*
X-11061917Y6187692D01*
X-10993538Y6369681D01*
X-10936062Y6531043D01*
X-10887452Y6677808D01*
X-10845671Y6816003D01*
X-10808684Y6951656D01*
X-10774453Y7090795D01*
X-10752721Y7188707D01*
X-10736562Y7280284D01*
X-10726995Y7368953D01*
X-10722555Y7468687D01*
X-10721780Y7593462D01*
X-10721811Y7599970D01*
X-10727725Y7776845D01*
X-10745208Y7928429D01*
X-10777084Y8067125D01*
X-10826178Y8205335D01*
X-10895314Y8355462D01*
X-10915155Y8395909D01*
X-10957682Y8493600D01*
X-10978664Y8568617D01*
X-10978500Y8628062D01*
X-10957592Y8679038D01*
X-10916338Y8728646D01*
X-10878320Y8762913D01*
X-10830054Y8788426D01*
X-10771299Y8795077D01*
X-10744194Y8793590D01*
X-10676567Y8773135D01*
X-10615255Y8725633D01*
X-10556176Y8647226D01*
X-10495249Y8534055D01*
X-10494426Y8532335D01*
X-10384574Y8260263D01*
X-10313075Y7982802D01*
X-10279801Y7698862D01*
X-10284623Y7407348D01*
X-10327413Y7107169D01*
X-10369712Y6917736D01*
X-10435637Y6666374D01*
X-10511656Y6413699D01*
X-10592618Y6177766D01*
X-10619127Y6104961D01*
X-10643583Y6035626D01*
X-10659488Y5987876D01*
X-10664262Y5969214D01*
X-10664169Y5969152D01*
X-10642942Y5967149D01*
X-10590627Y5964540D01*
X-10514895Y5961654D01*
X-10423419Y5958823D01*
X-10186453Y5952231D01*
X-10075789Y6241467D01*
X-9961150Y6565016D01*
X-9863009Y6905512D01*
X-9795759Y7227317D01*
X-9759124Y7532832D01*
X-9752830Y7824452D01*
X-9776598Y8104577D01*
X-9830154Y8375604D01*
X-9855362Y8466708D01*
X-9911430Y8627042D01*
X-9982710Y8779997D01*
X-10074395Y8936054D01*
X-10191674Y9105697D01*
X-10215492Y9143074D01*
X-10240495Y9223341D01*
X-10226638Y9299896D01*
X-10173877Y9373415D01*
X-10167740Y9379404D01*
X-10093552Y9429314D01*
X-10016424Y9440490D01*
X-9936215Y9412884D01*
X-9852783Y9346451D01*
X-9765986Y9241145D01*
X-9646880Y9049521D01*
X-9532733Y8807105D01*
X-9441795Y8543563D01*
X-9375571Y8265381D01*
X-9335568Y7979044D01*
X-9323292Y7691037D01*
X-9340248Y7407846D01*
X-9363625Y7242508D01*
X-9409739Y7001416D01*
X-9470342Y6746072D01*
X-9542497Y6487619D01*
X-9623266Y6237201D01*
X-9709712Y6005962D01*
X-9712766Y5998422D01*
X-9734153Y5943678D01*
X-9741016Y5915442D01*
X-9733545Y5904936D01*
X-9711928Y5903385D01*
X-9702948Y5903061D01*
X-9656758Y5899681D01*
X-9582994Y5893211D01*
X-9489706Y5884376D01*
X-9384944Y5873903D01*
X-9271963Y5861953D01*
X-8862884Y5811919D01*
X-8486013Y5754711D01*
X-8141901Y5690562D01*
X-7831101Y5619701D01*
X-7554164Y5542359D01*
X-7311642Y5458768D01*
X-7104086Y5369159D01*
X-6932049Y5273761D01*
X-6796081Y5172808D01*
X-6696734Y5066528D01*
X-6634561Y4955154D01*
X-6610112Y4838916D01*
X-6612234Y4820372D01*
G37*
D12*
X-6612234Y4820372D02*
X-6623940Y4718045D01*
X-6633909Y4686625D01*
X-6694121Y4574608D01*
X-6790610Y4465571D01*
X-6921216Y4360402D01*
X-7083780Y4259993D01*
X-7276142Y4165233D01*
X-7496143Y4077013D01*
X-7741624Y3996224D01*
X-8010425Y3923755D01*
X-8300387Y3860496D01*
X-8609351Y3807339D01*
X-8935158Y3765172D01*
X-9074886Y3753048D01*
X-9237743Y3744211D01*
X-9411424Y3739003D01*
X-9585989Y3737509D01*
X-9751502Y3739810D01*
X-9898023Y3745991D01*
X-10015615Y3756134D01*
X-10017447Y3756357D01*
X-10244168Y3793638D01*
X-10464242Y3848044D01*
X-10671245Y3917127D01*
X-10858752Y3998442D01*
X-11020339Y4089541D01*
X-11149581Y4187978D01*
X-11178329Y4215078D01*
X-11307745Y4365665D01*
X-11400524Y4529675D01*
X-11456573Y4706905D01*
X-11475801Y4897154D01*
X-11475780Y4906923D01*
X-11010641Y4906923D01*
X-11010599Y4889838D01*
X-11008320Y4799135D01*
X-11001047Y4732907D01*
X-10986672Y4678589D01*
X-10963084Y4623615D01*
X-10897160Y4516973D01*
X-10786705Y4402727D01*
X-10641854Y4303942D01*
X-10461925Y4220168D01*
X-10246239Y4150956D01*
X-10226434Y4145746D01*
X-10162505Y4130077D01*
X-10102802Y4118262D01*
X-10040108Y4109655D01*
X-9967206Y4103609D01*
X-9876878Y4099476D01*
X-9761907Y4096610D01*
X-9615077Y4094363D01*
X-9505157Y4093471D01*
X-9281448Y4095571D01*
X-9088940Y4103196D01*
X-8931392Y4116229D01*
X-8745169Y4140047D01*
X-8478221Y4183875D01*
X-8222111Y4237154D01*
X-7980872Y4298606D01*
X-7758538Y4366954D01*
X-7559143Y4440921D01*
X-7386720Y4519231D01*
X-7245304Y4600605D01*
X-7138927Y4683766D01*
X-7132118Y4690388D01*
X-7078463Y4757318D01*
X-7058579Y4820372D01*
X-7073442Y4881472D01*
X-7124029Y4942540D01*
X-7211317Y5005499D01*
X-7336281Y5072271D01*
X-7387147Y5095948D01*
X-7612288Y5185430D01*
X-7873567Y5267173D01*
X-8171361Y5341252D01*
X-8506045Y5407744D01*
X-8877994Y5466726D01*
X-9287585Y5518276D01*
X-9735193Y5562468D01*
X-9884617Y5575447D01*
X-9918694Y5460993D01*
X-9935715Y5389826D01*
X-9951795Y5293023D01*
X-9961166Y5200000D01*
X-9957771Y5071884D01*
X-9929584Y4969970D01*
X-9874609Y4891405D01*
X-9790923Y4832033D01*
X-9769701Y4821336D01*
X-9731946Y4805604D01*
X-9692207Y4796313D01*
X-9641229Y4792457D01*
X-9569757Y4793031D01*
X-9468538Y4797032D01*
X-9396521Y4801455D01*
X-9156834Y4830271D01*
X-8891038Y4881576D01*
X-8603028Y4954658D01*
X-8566906Y4964411D01*
X-8479777Y4984975D01*
X-8403384Y4999230D01*
X-8351020Y5004542D01*
X-8316212Y5002306D01*
X-8235231Y4977869D01*
X-8173338Y4931520D01*
X-8137156Y4869536D01*
X-8133308Y4798193D01*
X-8134477Y4793020D01*
X-8146319Y4766849D01*
X-8170009Y4742366D01*
X-8208864Y4718452D01*
X-8266204Y4693991D01*
X-8345347Y4667863D01*
X-8449613Y4638952D01*
X-8582319Y4606139D01*
X-8746786Y4568305D01*
X-8946331Y4524335D01*
X-8988438Y4515262D01*
X-9116765Y4489160D01*
X-9221668Y4471262D01*
X-9314325Y4460137D01*
X-9405915Y4454354D01*
X-9507615Y4452483D01*
X-9670542Y4457078D01*
X-9858941Y4479723D01*
X-10017279Y4521921D01*
X-10148118Y4584413D01*
X-10254020Y4667938D01*
X-10289577Y4706305D01*
X-10343526Y4784065D01*
X-10379864Y4873309D01*
X-10401691Y4982936D01*
X-10412106Y5121846D01*
X-10414254Y5195160D01*
X-10413538Y5274166D01*
X-10406989Y5336471D01*
X-10392998Y5395094D01*
X-10369959Y5463053D01*
X-10365898Y5474224D01*
X-10343412Y5538149D01*
X-10328516Y5584089D01*
X-10324258Y5602735D01*
X-10324901Y5602956D01*
X-10349847Y5604937D01*
X-10405295Y5607514D01*
X-10483775Y5610378D01*
X-10577815Y5613221D01*
X-10827399Y5620077D01*
X-10883737Y5473538D01*
X-10908113Y5409231D01*
X-10951084Y5287510D01*
X-10980568Y5186486D01*
X-10998819Y5096091D01*
X-11008092Y5006259D01*
X-11010641Y4906923D01*
X-11475780Y4906923D01*
X-11475751Y4920222D01*
X-11473500Y4985703D01*
X-11467037Y5050267D01*
X-11454992Y5118531D01*
X-11435996Y5195111D01*
X-11408679Y5284623D01*
X-11371670Y5391682D01*
X-11323601Y5520905D01*
X-11263100Y5676909D01*
X-11188800Y5864308D01*
X-11143234Y5979049D01*
X-11061917Y6187692D01*
X-10993538Y6369681D01*
X-10936062Y6531043D01*
X-10887452Y6677808D01*
X-10845671Y6816003D01*
X-10808684Y6951656D01*
X-10774453Y7090795D01*
X-10752721Y7188707D01*
X-10736562Y7280284D01*
X-10726995Y7368953D01*
X-10722555Y7468687D01*
X-10721780Y7593462D01*
X-10721811Y7599970D01*
X-10727725Y7776845D01*
X-10745208Y7928429D01*
X-10777084Y8067125D01*
X-10826178Y8205335D01*
X-10895314Y8355462D01*
X-10915155Y8395909D01*
X-10957682Y8493600D01*
X-10978664Y8568617D01*
X-10978500Y8628062D01*
X-10957592Y8679038D01*
X-10916338Y8728646D01*
X-10878320Y8762913D01*
X-10830054Y8788426D01*
X-10771299Y8795077D01*
X-10744194Y8793590D01*
X-10676567Y8773135D01*
X-10615255Y8725633D01*
X-10556176Y8647226D01*
X-10495249Y8534055D01*
X-10494426Y8532335D01*
X-10384574Y8260263D01*
X-10313075Y7982802D01*
X-10279801Y7698862D01*
X-10284623Y7407348D01*
X-10327413Y7107169D01*
X-10369712Y6917736D01*
X-10435637Y6666374D01*
X-10511656Y6413699D01*
X-10592618Y6177766D01*
X-10619127Y6104961D01*
X-10643583Y6035626D01*
X-10659488Y5987876D01*
X-10664262Y5969214D01*
X-10664169Y5969152D01*
X-10642942Y5967149D01*
X-10590627Y5964540D01*
X-10514895Y5961654D01*
X-10423419Y5958823D01*
X-10186453Y5952231D01*
X-10075789Y6241467D01*
X-9961150Y6565016D01*
X-9863009Y6905512D01*
X-9795759Y7227317D01*
X-9759124Y7532832D01*
X-9752830Y7824452D01*
X-9776598Y8104577D01*
X-9830154Y8375604D01*
X-9855362Y8466708D01*
X-9911430Y8627042D01*
X-9982710Y8779997D01*
X-10074395Y8936054D01*
X-10191674Y9105697D01*
X-10215492Y9143074D01*
X-10240495Y9223341D01*
X-10226638Y9299896D01*
X-10173877Y9373415D01*
X-10167740Y9379404D01*
X-10093552Y9429314D01*
X-10016424Y9440490D01*
X-9936215Y9412884D01*
X-9852783Y9346451D01*
X-9765986Y9241145D01*
X-9646880Y9049521D01*
X-9532733Y8807105D01*
X-9441795Y8543563D01*
X-9375571Y8265381D01*
X-9335568Y7979044D01*
X-9323292Y7691037D01*
X-9340248Y7407846D01*
X-9363625Y7242508D01*
X-9409739Y7001416D01*
X-9470342Y6746072D01*
X-9542497Y6487619D01*
X-9623266Y6237201D01*
X-9709712Y6005962D01*
X-9712766Y5998422D01*
X-9734153Y5943678D01*
X-9741016Y5915442D01*
X-9733545Y5904936D01*
X-9711928Y5903385D01*
X-9702948Y5903061D01*
X-9656758Y5899681D01*
X-9582994Y5893211D01*
X-9489706Y5884376D01*
X-9384944Y5873903D01*
X-9271963Y5861953D01*
X-8862884Y5811919D01*
X-8486013Y5754711D01*
X-8141901Y5690562D01*
X-7831101Y5619701D01*
X-7554164Y5542359D01*
X-7311642Y5458768D01*
X-7104086Y5369159D01*
X-6932049Y5273761D01*
X-6796081Y5172808D01*
X-6696734Y5066528D01*
X-6634561Y4955154D01*
X-6610112Y4838916D01*
X-6612234Y4820372D01*
G36*
X-6970329Y3232251D02*
G01*
X-7093125Y2957839D01*
X-7253024Y2690227D01*
X-7450159Y2429889D01*
X-7470994Y2405428D01*
X-7663274Y2205766D01*
X-7888626Y2011769D01*
X-8141732Y1826796D01*
X-8417278Y1654208D01*
X-8709950Y1497365D01*
X-9014431Y1359627D01*
X-9325407Y1244354D01*
X-9383375Y1225510D01*
X-9573144Y1168016D01*
X-9755069Y1120482D01*
X-9938535Y1081043D01*
X-10132923Y1047834D01*
X-10347617Y1018991D01*
X-10592000Y992648D01*
X-10651220Y988555D01*
X-10754345Y985051D01*
X-10879930Y983389D01*
X-11018700Y983495D01*
X-11161377Y985294D01*
X-11298683Y988712D01*
X-11421342Y993673D01*
X-11520077Y1000105D01*
X-11633641Y1010774D01*
X-12080043Y1073038D01*
X-12502655Y1165929D01*
X-12902350Y1289842D01*
X-13280001Y1445173D01*
X-13636480Y1632316D01*
X-13972660Y1851667D01*
X-14289414Y2103620D01*
X-14587615Y2388570D01*
X-14726055Y2539604D01*
X-14952360Y2823495D01*
X-15141806Y3116240D01*
X-15295638Y3420461D01*
X-15415102Y3738785D01*
X-15501444Y4073833D01*
X-15555909Y4428231D01*
X-15560628Y4475344D01*
X-15570521Y4636469D01*
X-15566769Y4769518D01*
X-15558885Y4818832D01*
X-15113147Y4818832D01*
X-15095251Y4762378D01*
X-15076603Y4732721D01*
X-15029838Y4679442D01*
X-14972997Y4629497D01*
X-14835533Y4540494D01*
X-14649839Y4449935D01*
X-14427630Y4366301D01*
X-14169973Y4289903D01*
X-13877935Y4221056D01*
X-13552583Y4160074D01*
X-13194984Y4107269D01*
X-13134632Y4099239D01*
X-13013476Y4081246D01*
X-12923465Y4063851D01*
X-12859077Y4045207D01*
X-12814791Y4023469D01*
X-12785085Y3996791D01*
X-12764436Y3963326D01*
X-12751118Y3929437D01*
X-12752127Y3893267D01*
X-12775026Y3846273D01*
X-12804058Y3806740D01*
X-12855725Y3769230D01*
X-12926856Y3748929D01*
X-13023252Y3744416D01*
X-13150717Y3754272D01*
X-13248490Y3765937D01*
X-13638469Y3822732D01*
X-14005670Y3892997D01*
X-14346339Y3975845D01*
X-14656719Y4070388D01*
X-14933058Y4175737D01*
X-14953034Y4184242D01*
X-15020971Y4211740D01*
X-15060718Y4224042D01*
X-15078062Y4222438D01*
X-15078787Y4208218D01*
X-15078275Y4206368D01*
X-15067956Y4162363D01*
X-15056639Y4105846D01*
X-15046435Y4057707D01*
X-15010069Y3927870D01*
X-14958797Y3778687D01*
X-14896534Y3619836D01*
X-14827197Y3460998D01*
X-14754701Y3311852D01*
X-14682961Y3182076D01*
X-14645449Y3121324D01*
X-14462919Y2864655D01*
X-14248168Y2616314D01*
X-14006721Y2381779D01*
X-13744108Y2166528D01*
X-13465856Y1976037D01*
X-13305449Y1881167D01*
X-12979497Y1716083D01*
X-12638957Y1580251D01*
X-12278128Y1471538D01*
X-11891308Y1387817D01*
X-11870340Y1384266D01*
X-11747838Y1368740D01*
X-11596309Y1356035D01*
X-11424007Y1346311D01*
X-11239185Y1339726D01*
X-11050097Y1336440D01*
X-10864996Y1336609D01*
X-10692137Y1340395D01*
X-10539771Y1347954D01*
X-10416154Y1359447D01*
X-10282639Y1378191D01*
X-9879162Y1457449D01*
X-9490812Y1568118D01*
X-9120513Y1708987D01*
X-8771185Y1878845D01*
X-8445751Y2076478D01*
X-8147132Y2300674D01*
X-8061881Y2375315D01*
X-7856176Y2587430D01*
X-7675059Y2822041D01*
X-7525617Y3070370D01*
X-7441398Y3232251D01*
X-7526891Y3221694D01*
X-7567916Y3215550D01*
X-7642513Y3202929D01*
X-7740320Y3185533D01*
X-7853407Y3164774D01*
X-7973846Y3142066D01*
X-8172336Y3105810D01*
X-8646771Y3033580D01*
X-9097485Y2986045D01*
X-9523748Y2963113D01*
X-9924830Y2964690D01*
X-10299999Y2990682D01*
X-10648527Y3040995D01*
X-10969682Y3115536D01*
X-11262734Y3214212D01*
X-11526953Y3336928D01*
X-11761609Y3483591D01*
X-11965971Y3654107D01*
X-12053945Y3743256D01*
X-12187982Y3903523D01*
X-12294852Y4071188D01*
X-12380636Y4256466D01*
X-12451416Y4469574D01*
X-12477260Y4585092D01*
X-12495151Y4791844D01*
X-12483166Y5022596D01*
X-12441298Y5277934D01*
X-12438735Y5290037D01*
X-12419535Y5381918D01*
X-12403903Y5458841D01*
X-12393388Y5513057D01*
X-12389538Y5536818D01*
X-12396844Y5544260D01*
X-12434179Y5550042D01*
X-12504435Y5549800D01*
X-12609023Y5543471D01*
X-12749356Y5530989D01*
X-12926846Y5512292D01*
X-13151248Y5485741D01*
X-13488287Y5438464D01*
X-13792764Y5385506D01*
X-14068572Y5325992D01*
X-14319607Y5259044D01*
X-14549761Y5183789D01*
X-14762929Y5099349D01*
X-14801757Y5082284D01*
X-14926868Y5022587D01*
X-15017748Y4969248D01*
X-15077210Y4919412D01*
X-15108071Y4870225D01*
X-15113147Y4818832D01*
X-15558885Y4818832D01*
X-15548873Y4881458D01*
X-15516333Y4979257D01*
X-15469386Y5062660D01*
X-15378952Y5167526D01*
X-15261624Y5262513D01*
X-15124275Y5341277D01*
X-14982339Y5404628D01*
X-14723909Y5503279D01*
X-14440941Y5591425D01*
X-14131134Y5669564D01*
X-13792187Y5738195D01*
X-13421797Y5797814D01*
X-13017664Y5848919D01*
X-12577486Y5892009D01*
X-12493469Y5899674D01*
X-12393308Y5910203D01*
X-12311892Y5920380D01*
X-12255960Y5929340D01*
X-12232254Y5936222D01*
X-12221883Y5952370D01*
X-12197674Y6002717D01*
X-12164928Y6079182D01*
X-12126198Y6175376D01*
X-12084038Y6284909D01*
X-12041001Y6401391D01*
X-11999639Y6518432D01*
X-11922353Y6758187D01*
X-11844768Y7051597D01*
X-11793645Y7325196D01*
X-11768384Y7583487D01*
X-11768387Y7830972D01*
X-11793056Y8072154D01*
X-11841797Y8318183D01*
X-11919779Y8570047D01*
X-12022937Y8795717D01*
X-12152368Y8998017D01*
X-12168789Y9020466D01*
X-12224125Y9108861D01*
X-12250774Y9182905D01*
X-12250515Y9250461D01*
X-12225128Y9319392D01*
X-12209171Y9344513D01*
X-12148472Y9396177D01*
X-12070660Y9423055D01*
X-11987190Y9422516D01*
X-11909517Y9391926D01*
X-11854730Y9343985D01*
X-11787804Y9263199D01*
X-11716227Y9158601D01*
X-11644041Y9037025D01*
X-11575286Y8905305D01*
X-11514003Y8770275D01*
X-11464232Y8638769D01*
X-11432796Y8536311D01*
X-11378837Y8306457D01*
X-11340632Y8061812D01*
X-11319412Y7814362D01*
X-11316406Y7576095D01*
X-11332845Y7359000D01*
X-11387991Y7039857D01*
X-11474177Y6692819D01*
X-11589964Y6326271D01*
X-11734714Y5942462D01*
X-11768093Y5859824D01*
X-11842876Y5670195D01*
X-11903096Y5508886D01*
X-11950167Y5370799D01*
X-11985506Y5250831D01*
X-12010528Y5143884D01*
X-12026648Y5044856D01*
X-12035283Y4948646D01*
X-12037846Y4850156D01*
X-12028610Y4689759D01*
X-11984528Y4472314D01*
X-11905520Y4268533D01*
X-11793159Y4080195D01*
X-11649015Y3909081D01*
X-11474660Y3756968D01*
X-11271665Y3625638D01*
X-11041601Y3516869D01*
X-10786039Y3432441D01*
X-10778288Y3430372D01*
X-10635384Y3394515D01*
X-10502534Y3366589D01*
X-10371564Y3345704D01*
X-10234299Y3330975D01*
X-10082566Y3321514D01*
X-9908191Y3316432D01*
X-9703000Y3314843D01*
X-9423466Y3319193D01*
X-9041038Y3340393D01*
X-8654230Y3380046D01*
X-8256085Y3439070D01*
X-7839645Y3518384D01*
X-7397952Y3618905D01*
X-7311325Y3639390D01*
X-7203777Y3661437D01*
X-7122219Y3672080D01*
X-7059833Y3671632D01*
X-7009804Y3660404D01*
X-6965315Y3638709D01*
X-6921940Y3605006D01*
X-6897156Y3563085D01*
X-6891847Y3506964D01*
X-6905395Y3429750D01*
X-6937183Y3324550D01*
X-6968885Y3235476D01*
X-6970329Y3232251D01*
G37*
X-6970329Y3232251D02*
X-7093125Y2957839D01*
X-7253024Y2690227D01*
X-7450159Y2429889D01*
X-7470994Y2405428D01*
X-7663274Y2205766D01*
X-7888626Y2011769D01*
X-8141732Y1826796D01*
X-8417278Y1654208D01*
X-8709950Y1497365D01*
X-9014431Y1359627D01*
X-9325407Y1244354D01*
X-9383375Y1225510D01*
X-9573144Y1168016D01*
X-9755069Y1120482D01*
X-9938535Y1081043D01*
X-10132923Y1047834D01*
X-10347617Y1018991D01*
X-10592000Y992648D01*
X-10651220Y988555D01*
X-10754345Y985051D01*
X-10879930Y983389D01*
X-11018700Y983495D01*
X-11161377Y985294D01*
X-11298683Y988712D01*
X-11421342Y993673D01*
X-11520077Y1000105D01*
X-11633641Y1010774D01*
X-12080043Y1073038D01*
X-12502655Y1165929D01*
X-12902350Y1289842D01*
X-13280001Y1445173D01*
X-13636480Y1632316D01*
X-13972660Y1851667D01*
X-14289414Y2103620D01*
X-14587615Y2388570D01*
X-14726055Y2539604D01*
X-14952360Y2823495D01*
X-15141806Y3116240D01*
X-15295638Y3420461D01*
X-15415102Y3738785D01*
X-15501444Y4073833D01*
X-15555909Y4428231D01*
X-15560628Y4475344D01*
X-15570521Y4636469D01*
X-15566769Y4769518D01*
X-15558885Y4818832D01*
X-15113147Y4818832D01*
X-15095251Y4762378D01*
X-15076603Y4732721D01*
X-15029838Y4679442D01*
X-14972997Y4629497D01*
X-14835533Y4540494D01*
X-14649839Y4449935D01*
X-14427630Y4366301D01*
X-14169973Y4289903D01*
X-13877935Y4221056D01*
X-13552583Y4160074D01*
X-13194984Y4107269D01*
X-13134632Y4099239D01*
X-13013476Y4081246D01*
X-12923465Y4063851D01*
X-12859077Y4045207D01*
X-12814791Y4023469D01*
X-12785085Y3996791D01*
X-12764436Y3963326D01*
X-12751118Y3929437D01*
X-12752127Y3893267D01*
X-12775026Y3846273D01*
X-12804058Y3806740D01*
X-12855725Y3769230D01*
X-12926856Y3748929D01*
X-13023252Y3744416D01*
X-13150717Y3754272D01*
X-13248490Y3765937D01*
X-13638469Y3822732D01*
X-14005670Y3892997D01*
X-14346339Y3975845D01*
X-14656719Y4070388D01*
X-14933058Y4175737D01*
X-14953034Y4184242D01*
X-15020971Y4211740D01*
X-15060718Y4224042D01*
X-15078062Y4222438D01*
X-15078787Y4208218D01*
X-15078275Y4206368D01*
X-15067956Y4162363D01*
X-15056639Y4105846D01*
X-15046435Y4057707D01*
X-15010069Y3927870D01*
X-14958797Y3778687D01*
X-14896534Y3619836D01*
X-14827197Y3460998D01*
X-14754701Y3311852D01*
X-14682961Y3182076D01*
X-14645449Y3121324D01*
X-14462919Y2864655D01*
X-14248168Y2616314D01*
X-14006721Y2381779D01*
X-13744108Y2166528D01*
X-13465856Y1976037D01*
X-13305449Y1881167D01*
X-12979497Y1716083D01*
X-12638957Y1580251D01*
X-12278128Y1471538D01*
X-11891308Y1387817D01*
X-11870340Y1384266D01*
X-11747838Y1368740D01*
X-11596309Y1356035D01*
X-11424007Y1346311D01*
X-11239185Y1339726D01*
X-11050097Y1336440D01*
X-10864996Y1336609D01*
X-10692137Y1340395D01*
X-10539771Y1347954D01*
X-10416154Y1359447D01*
X-10282639Y1378191D01*
X-9879162Y1457449D01*
X-9490812Y1568118D01*
X-9120513Y1708987D01*
X-8771185Y1878845D01*
X-8445751Y2076478D01*
X-8147132Y2300674D01*
X-8061881Y2375315D01*
X-7856176Y2587430D01*
X-7675059Y2822041D01*
X-7525617Y3070370D01*
X-7441398Y3232251D01*
X-7526891Y3221694D01*
X-7567916Y3215550D01*
X-7642513Y3202929D01*
X-7740320Y3185533D01*
X-7853407Y3164774D01*
X-7973846Y3142066D01*
X-8172336Y3105810D01*
X-8646771Y3033580D01*
X-9097485Y2986045D01*
X-9523748Y2963113D01*
X-9924830Y2964690D01*
X-10299999Y2990682D01*
X-10648527Y3040995D01*
X-10969682Y3115536D01*
X-11262734Y3214212D01*
X-11526953Y3336928D01*
X-11761609Y3483591D01*
X-11965971Y3654107D01*
X-12053945Y3743256D01*
X-12187982Y3903523D01*
X-12294852Y4071188D01*
X-12380636Y4256466D01*
X-12451416Y4469574D01*
X-12477260Y4585092D01*
X-12495151Y4791844D01*
X-12483166Y5022596D01*
X-12441298Y5277934D01*
X-12438735Y5290037D01*
X-12419535Y5381918D01*
X-12403903Y5458841D01*
X-12393388Y5513057D01*
X-12389538Y5536818D01*
X-12396844Y5544260D01*
X-12434179Y5550042D01*
X-12504435Y5549800D01*
X-12609023Y5543471D01*
X-12749356Y5530989D01*
X-12926846Y5512292D01*
X-13151248Y5485741D01*
X-13488287Y5438464D01*
X-13792764Y5385506D01*
X-14068572Y5325992D01*
X-14319607Y5259044D01*
X-14549761Y5183789D01*
X-14762929Y5099349D01*
X-14801757Y5082284D01*
X-14926868Y5022587D01*
X-15017748Y4969248D01*
X-15077210Y4919412D01*
X-15108071Y4870225D01*
X-15113147Y4818832D01*
X-15558885Y4818832D01*
X-15548873Y4881458D01*
X-15516333Y4979257D01*
X-15469386Y5062660D01*
X-15378952Y5167526D01*
X-15261624Y5262513D01*
X-15124275Y5341277D01*
X-14982339Y5404628D01*
X-14723909Y5503279D01*
X-14440941Y5591425D01*
X-14131134Y5669564D01*
X-13792187Y5738195D01*
X-13421797Y5797814D01*
X-13017664Y5848919D01*
X-12577486Y5892009D01*
X-12493469Y5899674D01*
X-12393308Y5910203D01*
X-12311892Y5920380D01*
X-12255960Y5929340D01*
X-12232254Y5936222D01*
X-12221883Y5952370D01*
X-12197674Y6002717D01*
X-12164928Y6079182D01*
X-12126198Y6175376D01*
X-12084038Y6284909D01*
X-12041001Y6401391D01*
X-11999639Y6518432D01*
X-11922353Y6758187D01*
X-11844768Y7051597D01*
X-11793645Y7325196D01*
X-11768384Y7583487D01*
X-11768387Y7830972D01*
X-11793056Y8072154D01*
X-11841797Y8318183D01*
X-11919779Y8570047D01*
X-12022937Y8795717D01*
X-12152368Y8998017D01*
X-12168789Y9020466D01*
X-12224125Y9108861D01*
X-12250774Y9182905D01*
X-12250515Y9250461D01*
X-12225128Y9319392D01*
X-12209171Y9344513D01*
X-12148472Y9396177D01*
X-12070660Y9423055D01*
X-11987190Y9422516D01*
X-11909517Y9391926D01*
X-11854730Y9343985D01*
X-11787804Y9263199D01*
X-11716227Y9158601D01*
X-11644041Y9037025D01*
X-11575286Y8905305D01*
X-11514003Y8770275D01*
X-11464232Y8638769D01*
X-11432796Y8536311D01*
X-11378837Y8306457D01*
X-11340632Y8061812D01*
X-11319412Y7814362D01*
X-11316406Y7576095D01*
X-11332845Y7359000D01*
X-11387991Y7039857D01*
X-11474177Y6692819D01*
X-11589964Y6326271D01*
X-11734714Y5942462D01*
X-11768093Y5859824D01*
X-11842876Y5670195D01*
X-11903096Y5508886D01*
X-11950167Y5370799D01*
X-11985506Y5250831D01*
X-12010528Y5143884D01*
X-12026648Y5044856D01*
X-12035283Y4948646D01*
X-12037846Y4850156D01*
X-12028610Y4689759D01*
X-11984528Y4472314D01*
X-11905520Y4268533D01*
X-11793159Y4080195D01*
X-11649015Y3909081D01*
X-11474660Y3756968D01*
X-11271665Y3625638D01*
X-11041601Y3516869D01*
X-10786039Y3432441D01*
X-10778288Y3430372D01*
X-10635384Y3394515D01*
X-10502534Y3366589D01*
X-10371564Y3345704D01*
X-10234299Y3330975D01*
X-10082566Y3321514D01*
X-9908191Y3316432D01*
X-9703000Y3314843D01*
X-9423466Y3319193D01*
X-9041038Y3340393D01*
X-8654230Y3380046D01*
X-8256085Y3439070D01*
X-7839645Y3518384D01*
X-7397952Y3618905D01*
X-7311325Y3639390D01*
X-7203777Y3661437D01*
X-7122219Y3672080D01*
X-7059833Y3671632D01*
X-7009804Y3660404D01*
X-6965315Y3638709D01*
X-6921940Y3605006D01*
X-6897156Y3563085D01*
X-6891847Y3506964D01*
X-6905395Y3429750D01*
X-6937183Y3324550D01*
X-6968885Y3235476D01*
X-6970329Y3232251D01*
%TD*%
%LPC*%
D13*
%TO.C,*%
X8000000Y-8000000D03*
%TD*%
D14*
%TO.C,J2*%
X-22800000Y4650000D03*
D15*
X-22799999Y3899999D03*
D14*
X-22800000Y3150000D03*
D15*
X-22049999Y4649999D03*
X-22049999Y3899999D03*
X-22049999Y3149999D03*
X-21299999Y4649999D03*
X-21299999Y3899999D03*
X-21299999Y3149999D03*
X-20549999Y4649999D03*
X-20549999Y3899999D03*
X-20549999Y3149999D03*
D14*
X-19800000Y4650000D03*
D15*
X-19799999Y3899999D03*
D14*
X-19800000Y3150000D03*
%TD*%
D16*
%TO.C,J3*%
X-17400000Y-5600000D03*
%TD*%
D13*
%TO.C,*%
X-8000000Y-8000000D03*
%TD*%
D16*
%TO.C,J7*%
X-17400000Y-1800000D03*
%TD*%
D17*
%TO.C,J208*%
X22800000Y3150000D03*
D15*
X22799999Y3899999D03*
D17*
X22800000Y4650000D03*
D15*
X22049999Y3149999D03*
X22049999Y3899999D03*
X22049999Y4649999D03*
X21299999Y3149999D03*
X21299999Y3899999D03*
X21299999Y4649999D03*
X20549999Y3149999D03*
X20549999Y3899999D03*
X20549999Y4649999D03*
D17*
X19800000Y3150000D03*
D15*
X19799999Y3899999D03*
D17*
X19800000Y4650000D03*
%TD*%
D14*
%TO.C,J207*%
X19800000Y850000D03*
D15*
X19799999Y99999D03*
D14*
X19800000Y-650000D03*
D15*
X20549999Y849999D03*
X20549999Y99999D03*
X20549999Y-649999D03*
X21299999Y849999D03*
X21299999Y99999D03*
X21299999Y-649999D03*
X22049999Y849999D03*
X22049999Y99999D03*
X22049999Y-649999D03*
D14*
X22800000Y850000D03*
D15*
X22799999Y99999D03*
D14*
X22800000Y-650000D03*
%TD*%
D18*
%TO.C,U52*%
X14110000Y-4465000D03*
X19890000Y-4465000D03*
D19*
X12679999Y-3984999D03*
D20*
X12679999Y-8154999D03*
D19*
X21319999Y-3984999D03*
D20*
X21319999Y-8154999D03*
%TD*%
D14*
%TO.C,J4*%
X-22800000Y8450000D03*
D15*
X-22799999Y7699999D03*
D14*
X-22800000Y6950000D03*
D15*
X-22049999Y8449999D03*
X-22049999Y7699999D03*
X-22049999Y6949999D03*
X-21299999Y8449999D03*
X-21299999Y7699999D03*
X-21299999Y6949999D03*
X-20549999Y8449999D03*
X-20549999Y7699999D03*
X-20549999Y6949999D03*
D14*
X-19800000Y8450000D03*
D15*
X-19799999Y7699999D03*
D14*
X-19800000Y6950000D03*
%TD*%
%TO.C,J6*%
X19800000Y8450000D03*
D15*
X19799999Y7699999D03*
D14*
X19800000Y6950000D03*
D15*
X20549999Y8449999D03*
X20549999Y7699999D03*
X20549999Y6949999D03*
X21299999Y8449999D03*
X21299999Y7699999D03*
X21299999Y6949999D03*
X22049999Y8449999D03*
X22049999Y7699999D03*
X22049999Y6949999D03*
D14*
X22800000Y8450000D03*
D15*
X22799999Y7699999D03*
D14*
X22800000Y6950000D03*
%TD*%
%TO.C,J206*%
X-22800000Y-6750000D03*
D15*
X-22799999Y-7499999D03*
D14*
X-22800000Y-8250000D03*
D15*
X-22049999Y-6749999D03*
X-22049999Y-7499999D03*
X-22049999Y-8249999D03*
X-21299999Y-6749999D03*
X-21299999Y-7499999D03*
X-21299999Y-8249999D03*
X-20549999Y-6749999D03*
X-20549999Y-7499999D03*
X-20549999Y-8249999D03*
D14*
X-19800000Y-6750000D03*
D15*
X-19799999Y-7499999D03*
D14*
X-19800000Y-8250000D03*
%TD*%
%TO.C,J205*%
X-22800000Y-2950000D03*
D15*
X-22799999Y-3699999D03*
D14*
X-22800000Y-4450000D03*
D15*
X-22049999Y-2949999D03*
X-22049999Y-3699999D03*
X-22049999Y-4449999D03*
X-21299999Y-2949999D03*
X-21299999Y-3699999D03*
X-21299999Y-4449999D03*
X-20549999Y-2949999D03*
X-20549999Y-3699999D03*
X-20549999Y-4449999D03*
D14*
X-19800000Y-2950000D03*
D15*
X-19799999Y-3699999D03*
D14*
X-19800000Y-4450000D03*
%TD*%
%TO.C,J5*%
X-22800000Y850000D03*
D15*
X-22799999Y99999D03*
D14*
X-22800000Y-650000D03*
D15*
X-22049999Y849999D03*
X-22049999Y99999D03*
X-22049999Y-649999D03*
X-21299999Y849999D03*
X-21299999Y99999D03*
X-21299999Y-649999D03*
X-20549999Y849999D03*
X-20549999Y99999D03*
X-20549999Y-649999D03*
D14*
X-19800000Y850000D03*
D15*
X-19799999Y99999D03*
D14*
X-19800000Y-650000D03*
%TD*%
D16*
%TO.C,J8*%
X-17400000Y9600000D03*
%TD*%
D21*
%TO.C,TP3*%
X-5000000Y-9800000D03*
%TD*%
%TO.C,TP7*%
X-3000000Y-9800000D03*
%TD*%
%TO.C,TP5*%
X5000000Y-9800000D03*
%TD*%
%TO.C,TP1*%
X1000000Y-9800000D03*
%TD*%
%TO.C,TP2*%
X-1000000Y-9800000D03*
%TD*%
%TO.C,TP4*%
X3000000Y-9800000D03*
%TD*%
M02*
