%TF.GenerationSoftware,KiCad,Pcbnew,(6.0.5)*%
%TF.CreationDate,2022-12-28T13:41:51-05:00*%
%TF.ProjectId,Rotini-Hardware,526f7469-6e69-42d4-9861-726477617265,rev?*%
%TF.SameCoordinates,Original*%
%TF.FileFunction,Legend,Bot*%
%TF.FilePolarity,Positive*%
%FSLAX46Y46*%
G04 Gerber Fmt 4.6, Leading zero omitted, Abs format (unit mm)*
G04 Created by KiCad (PCBNEW (6.0.5)) date 2022-12-28 13:41:51*
%MOMM*%
%LPD*%
G01*
G04 APERTURE LIST*
G04 Aperture macros list*
%AMRoundRect*
0 Rectangle with rounded corners*
0 $1 Rounding radius*
0 $2 $3 $4 $5 $6 $7 $8 $9 X,Y pos of 4 corners*
0 Add a 4 corners polygon primitive as box body*
4,1,4,$2,$3,$4,$5,$6,$7,$8,$9,$2,$3,0*
0 Add four circle primitives for the rounded corners*
1,1,$1+$1,$2,$3*
1,1,$1+$1,$4,$5*
1,1,$1+$1,$6,$7*
1,1,$1+$1,$8,$9*
0 Add four rect primitives between the rounded corners*
20,1,$1+$1,$2,$3,$4,$5,0*
20,1,$1+$1,$4,$5,$6,$7,0*
20,1,$1+$1,$6,$7,$8,$9,0*
20,1,$1+$1,$8,$9,$2,$3,0*%
%AMFreePoly0*
4,1,13,0.500000,-0.500000,0.000000,-0.500000,-0.095671,-0.480970,-0.176777,-0.426777,-0.230970,-0.345671,-0.250000,-0.250000,-0.250000,0.250000,-0.230970,0.345671,-0.176777,0.426777,-0.095671,0.480970,0.000000,0.500000,0.500000,0.500000,0.500000,-0.500000,0.500000,-0.500000,$1*%
%AMFreePoly1*
4,1,13,0.095671,0.480970,0.176777,0.426777,0.230970,0.345671,0.250000,0.250000,0.250000,-0.250000,0.230970,-0.345671,0.176777,-0.426777,0.095671,-0.480970,0.000000,-0.500000,-0.500000,-0.500000,-0.500000,0.500000,0.000000,0.500000,0.095671,0.480970,0.095671,0.480970,$1*%
G04 Aperture macros list end*
%ADD10C,0.200000*%
%ADD11C,0.300000*%
%ADD12C,0.120000*%
%ADD13C,0.010000*%
%ADD14C,3.200000*%
%ADD15C,1.778000*%
%ADD16C,0.600000*%
%ADD17O,0.900000X2.000000*%
%ADD18O,0.900000X1.700000*%
%ADD19FreePoly0,90.000000*%
%ADD20FreePoly1,90.000000*%
%ADD21RoundRect,0.375000X-0.375000X-0.375000X0.375000X-0.375000X0.375000X0.375000X-0.375000X0.375000X0*%
%ADD22RoundRect,0.375000X1.125000X-0.375000X1.125000X0.375000X-1.125000X0.375000X-1.125000X-0.375000X0*%
%ADD23RoundRect,0.375000X0.375000X-0.375000X0.375000X0.375000X-0.375000X0.375000X-0.375000X-0.375000X0*%
%ADD24FreePoly0,270.000000*%
%ADD25FreePoly1,270.000000*%
%ADD26RoundRect,0.375000X-0.375000X0.375000X-0.375000X-0.375000X0.375000X-0.375000X0.375000X0.375000X0*%
%ADD27RoundRect,0.375000X-1.125000X0.375000X-1.125000X-0.375000X1.125000X-0.375000X1.125000X0.375000X0*%
G04 APERTURE END LIST*
D10*
X21323809Y3557142D02*
X21590476Y3557142D01*
X21590476Y3138095D02*
X21590476Y3938095D01*
X21209523Y3938095D01*
X20752380Y3938095D02*
X20600000Y3938095D01*
X20523809Y3900000D01*
X20447619Y3823809D01*
X20409523Y3671428D01*
X20409523Y3404761D01*
X20447619Y3252380D01*
X20523809Y3176190D01*
X20600000Y3138095D01*
X20752380Y3138095D01*
X20828571Y3176190D01*
X20904761Y3252380D01*
X20942857Y3404761D01*
X20942857Y3671428D01*
X20904761Y3823809D01*
X20828571Y3900000D01*
X20752380Y3938095D01*
X19914285Y3938095D02*
X19761904Y3938095D01*
X19685714Y3900000D01*
X19609523Y3823809D01*
X19571428Y3671428D01*
X19571428Y3404761D01*
X19609523Y3252380D01*
X19685714Y3176190D01*
X19761904Y3138095D01*
X19914285Y3138095D01*
X19990476Y3176190D01*
X20066666Y3252380D01*
X20104761Y3404761D01*
X20104761Y3671428D01*
X20066666Y3823809D01*
X19990476Y3900000D01*
X19914285Y3938095D01*
X-19290476Y-5650000D02*
X-19214285Y-5611904D01*
X-19100000Y-5611904D01*
X-18985714Y-5650000D01*
X-18909523Y-5726190D01*
X-18871428Y-5802380D01*
X-18833333Y-5954761D01*
X-18833333Y-6069047D01*
X-18871428Y-6221428D01*
X-18909523Y-6297619D01*
X-18985714Y-6373809D01*
X-19100000Y-6411904D01*
X-19176190Y-6411904D01*
X-19290476Y-6373809D01*
X-19328571Y-6335714D01*
X-19328571Y-6069047D01*
X-19176190Y-6069047D01*
X-19671428Y-6411904D02*
X-19671428Y-5611904D01*
X-20128571Y-6411904D01*
X-20128571Y-5611904D01*
X-20509523Y-6411904D02*
X-20509523Y-5611904D01*
X-20700000Y-5611904D01*
X-20814285Y-5650000D01*
X-20890476Y-5726190D01*
X-20928571Y-5802380D01*
X-20966666Y-5954761D01*
X-20966666Y-6069047D01*
X-20928571Y-6221428D01*
X-20890476Y-6297619D01*
X-20814285Y-6373809D01*
X-20700000Y-6411904D01*
X-20509523Y-6411904D01*
X21335714Y5757142D02*
X21221428Y5719047D01*
X21183333Y5680952D01*
X21145238Y5604761D01*
X21145238Y5490476D01*
X21183333Y5414285D01*
X21221428Y5376190D01*
X21297619Y5338095D01*
X21602380Y5338095D01*
X21602380Y6138095D01*
X21335714Y6138095D01*
X21259523Y6100000D01*
X21221428Y6061904D01*
X21183333Y5985714D01*
X21183333Y5909523D01*
X21221428Y5833333D01*
X21259523Y5795238D01*
X21335714Y5757142D01*
X21602380Y5757142D01*
X20840476Y5566666D02*
X20459523Y5566666D01*
X20916666Y5338095D02*
X20650000Y6138095D01*
X20383333Y5338095D01*
X19659523Y5338095D02*
X19926190Y5719047D01*
X20116666Y5338095D02*
X20116666Y6138095D01*
X19811904Y6138095D01*
X19735714Y6100000D01*
X19697619Y6061904D01*
X19659523Y5985714D01*
X19659523Y5871428D01*
X19697619Y5795238D01*
X19735714Y5757142D01*
X19811904Y5719047D01*
X20116666Y5719047D01*
X1609523Y-5061904D02*
X1152380Y-5061904D01*
X1380952Y-5861904D02*
X1380952Y-5061904D01*
X961904Y-5061904D02*
X428571Y-5861904D01*
X428571Y-5061904D02*
X961904Y-5861904D01*
X5178571Y-7673809D02*
X5064285Y-7711904D01*
X4873809Y-7711904D01*
X4797619Y-7673809D01*
X4759523Y-7635714D01*
X4721428Y-7559523D01*
X4721428Y-7483333D01*
X4759523Y-7407142D01*
X4797619Y-7369047D01*
X4873809Y-7330952D01*
X5026190Y-7292857D01*
X5102380Y-7254761D01*
X5140476Y-7216666D01*
X5178571Y-7140476D01*
X5178571Y-7064285D01*
X5140476Y-6988095D01*
X5102380Y-6950000D01*
X5026190Y-6911904D01*
X4835714Y-6911904D01*
X4721428Y-6950000D01*
X3921428Y-7635714D02*
X3959523Y-7673809D01*
X4073809Y-7711904D01*
X4150000Y-7711904D01*
X4264285Y-7673809D01*
X4340476Y-7597619D01*
X4378571Y-7521428D01*
X4416666Y-7369047D01*
X4416666Y-7254761D01*
X4378571Y-7102380D01*
X4340476Y-7026190D01*
X4264285Y-6950000D01*
X4150000Y-6911904D01*
X4073809Y-6911904D01*
X3959523Y-6950000D01*
X3921428Y-6988095D01*
X3578571Y-7711904D02*
X3578571Y-6911904D01*
X3121428Y-7711904D02*
X3464285Y-7254761D01*
X3121428Y-6911904D02*
X3578571Y-7369047D01*
X2207142Y6888095D02*
X2207142Y7688095D01*
X1940476Y7116666D01*
X1673809Y7688095D01*
X1673809Y6888095D01*
X1292857Y6888095D02*
X1292857Y7688095D01*
X949999Y6926190D02*
X835714Y6888095D01*
X645238Y6888095D01*
X569047Y6926190D01*
X530952Y6964285D01*
X492857Y7040476D01*
X492857Y7116666D01*
X530952Y7192857D01*
X569047Y7230952D01*
X645238Y7269047D01*
X797619Y7307142D01*
X873809Y7345238D01*
X911904Y7383333D01*
X949999Y7459523D01*
X949999Y7535714D01*
X911904Y7611904D01*
X873809Y7650000D01*
X797619Y7688095D01*
X607142Y7688095D01*
X492857Y7650000D01*
X-2380Y7688095D02*
X-154761Y7688095D01*
X-230952Y7650000D01*
X-307142Y7573809D01*
X-345238Y7421428D01*
X-345238Y7154761D01*
X-307142Y7002380D01*
X-230952Y6926190D01*
X-154761Y6888095D01*
X-2380Y6888095D01*
X73809Y6926190D01*
X149999Y7002380D01*
X188095Y7154761D01*
X188095Y7421428D01*
X149999Y7573809D01*
X73809Y7650000D01*
X-2380Y7688095D01*
X-1528571Y-400000D02*
X-1452380Y-361904D01*
X-1338095Y-361904D01*
X-1223809Y-400000D01*
X-1147619Y-476190D01*
X-1109523Y-552380D01*
X-1071428Y-704761D01*
X-1071428Y-819047D01*
X-1109523Y-971428D01*
X-1147619Y-1047619D01*
X-1223809Y-1123809D01*
X-1338095Y-1161904D01*
X-1414285Y-1161904D01*
X-1528571Y-1123809D01*
X-1566666Y-1085714D01*
X-1566666Y-819047D01*
X-1414285Y-819047D01*
X-2061904Y-361904D02*
X-2138095Y-361904D01*
X-2214285Y-400000D01*
X-2252380Y-438095D01*
X-2290476Y-514285D01*
X-2328571Y-666666D01*
X-2328571Y-857142D01*
X-2290476Y-1009523D01*
X-2252380Y-1085714D01*
X-2214285Y-1123809D01*
X-2138095Y-1161904D01*
X-2061904Y-1161904D01*
X-1985714Y-1123809D01*
X-1947619Y-1085714D01*
X-1909523Y-1009523D01*
X-1871428Y-857142D01*
X-1871428Y-666666D01*
X-1909523Y-514285D01*
X-1947619Y-438095D01*
X-1985714Y-400000D01*
X-2061904Y-361904D01*
X9847619Y-2942857D02*
X9733333Y-2980952D01*
X9695238Y-3019047D01*
X9657142Y-3095238D01*
X9657142Y-3209523D01*
X9695238Y-3285714D01*
X9733333Y-3323809D01*
X9809523Y-3361904D01*
X10114285Y-3361904D01*
X10114285Y-2561904D01*
X9847619Y-2561904D01*
X9771428Y-2600000D01*
X9733333Y-2638095D01*
X9695238Y-2714285D01*
X9695238Y-2790476D01*
X9733333Y-2866666D01*
X9771428Y-2904761D01*
X9847619Y-2942857D01*
X10114285Y-2942857D01*
X9428571Y-2561904D02*
X8971428Y-2561904D01*
X9200000Y-3361904D02*
X9200000Y-2561904D01*
X-4209523Y-5200000D02*
X-4133333Y-5161904D01*
X-4019047Y-5161904D01*
X-3904761Y-5200000D01*
X-3828571Y-5276190D01*
X-3790476Y-5352380D01*
X-3752380Y-5504761D01*
X-3752380Y-5619047D01*
X-3790476Y-5771428D01*
X-3828571Y-5847619D01*
X-3904761Y-5923809D01*
X-4019047Y-5961904D01*
X-4095238Y-5961904D01*
X-4209523Y-5923809D01*
X-4247619Y-5885714D01*
X-4247619Y-5619047D01*
X-4095238Y-5619047D01*
X-1283333Y7688095D02*
X-1816666Y6888095D01*
X-1816666Y7688095D02*
X-1283333Y6888095D01*
X-9785714Y6766666D02*
X-10166666Y6766666D01*
X-9709523Y6538095D02*
X-9976190Y7338095D01*
X-10242857Y6538095D01*
X-10509523Y6538095D02*
X-10509523Y7338095D01*
X-10966666Y6538095D01*
X-10966666Y7338095D01*
X-11233333Y7338095D02*
X-11690476Y7338095D01*
X-11461904Y6538095D02*
X-11461904Y7338095D01*
X-4209523Y-6950000D02*
X-4133333Y-6911904D01*
X-4019047Y-6911904D01*
X-3904761Y-6950000D01*
X-3828571Y-7026190D01*
X-3790476Y-7102380D01*
X-3752380Y-7254761D01*
X-3752380Y-7369047D01*
X-3790476Y-7521428D01*
X-3828571Y-7597619D01*
X-3904761Y-7673809D01*
X-4019047Y-7711904D01*
X-4095238Y-7711904D01*
X-4209523Y-7673809D01*
X-4247619Y-7635714D01*
X-4247619Y-7369047D01*
X-4095238Y-7369047D01*
X4464285Y6964285D02*
X4502380Y6926190D01*
X4616666Y6888095D01*
X4692857Y6888095D01*
X4807142Y6926190D01*
X4883333Y7002380D01*
X4921428Y7078571D01*
X4959523Y7230952D01*
X4959523Y7345238D01*
X4921428Y7497619D01*
X4883333Y7573809D01*
X4807142Y7650000D01*
X4692857Y7688095D01*
X4616666Y7688095D01*
X4502380Y7650000D01*
X4464285Y7611904D01*
X4159523Y6926190D02*
X4045238Y6888095D01*
X3854761Y6888095D01*
X3778571Y6926190D01*
X3740476Y6964285D01*
X3702380Y7040476D01*
X3702380Y7116666D01*
X3740476Y7192857D01*
X3778571Y7230952D01*
X3854761Y7269047D01*
X4007142Y7307142D01*
X4083333Y7345238D01*
X4121428Y7383333D01*
X4159523Y7459523D01*
X4159523Y7535714D01*
X4121428Y7611904D01*
X4083333Y7650000D01*
X4007142Y7688095D01*
X3816666Y7688095D01*
X3702380Y7650000D01*
X3397619Y7611904D02*
X3359523Y7650000D01*
X3283333Y7688095D01*
X3092857Y7688095D01*
X3016666Y7650000D01*
X2978571Y7611904D01*
X2940476Y7535714D01*
X2940476Y7459523D01*
X2978571Y7345238D01*
X3435714Y6888095D01*
X2940476Y6888095D01*
X-809523Y-6961904D02*
X-1304761Y-6961904D01*
X-1038095Y-7266666D01*
X-1152380Y-7266666D01*
X-1228571Y-7304761D01*
X-1266666Y-7342857D01*
X-1304761Y-7419047D01*
X-1304761Y-7609523D01*
X-1266666Y-7685714D01*
X-1228571Y-7723809D01*
X-1152380Y-7761904D01*
X-923809Y-7761904D01*
X-847619Y-7723809D01*
X-809523Y-7685714D01*
X-1533333Y-6961904D02*
X-1800000Y-7761904D01*
X-2066666Y-6961904D01*
X-2257142Y-6961904D02*
X-2752380Y-6961904D01*
X-2485714Y-7266666D01*
X-2600000Y-7266666D01*
X-2676190Y-7304761D01*
X-2714285Y-7342857D01*
X-2752380Y-7419047D01*
X-2752380Y-7609523D01*
X-2714285Y-7685714D01*
X-2676190Y-7723809D01*
X-2600000Y-7761904D01*
X-2371428Y-7761904D01*
X-2295238Y-7723809D01*
X-2257142Y-7685714D01*
X2457142Y-7761904D02*
X2457142Y-6961904D01*
X2190476Y-7533333D01*
X1923809Y-6961904D01*
X1923809Y-7761904D01*
X1390476Y-6961904D02*
X1238095Y-6961904D01*
X1161904Y-7000000D01*
X1085714Y-7076190D01*
X1047619Y-7228571D01*
X1047619Y-7495238D01*
X1085714Y-7647619D01*
X1161904Y-7723809D01*
X1238095Y-7761904D01*
X1390476Y-7761904D01*
X1466666Y-7723809D01*
X1542857Y-7647619D01*
X1580952Y-7495238D01*
X1580952Y-7228571D01*
X1542857Y-7076190D01*
X1466666Y-7000000D01*
X1390476Y-6961904D01*
X742857Y-7723809D02*
X628571Y-7761904D01*
X438095Y-7761904D01*
X361904Y-7723809D01*
X323809Y-7685714D01*
X285714Y-7609523D01*
X285714Y-7533333D01*
X323809Y-7457142D01*
X361904Y-7419047D01*
X438095Y-7380952D01*
X590476Y-7342857D01*
X666666Y-7304761D01*
X704761Y-7266666D01*
X742857Y-7190476D01*
X742857Y-7114285D01*
X704761Y-7038095D01*
X666666Y-7000000D01*
X590476Y-6961904D01*
X400000Y-6961904D01*
X285714Y-7000000D01*
X-57142Y-7761904D02*
X-57142Y-6961904D01*
X5290476Y-2942857D02*
X5023809Y-2942857D01*
X4909523Y-3361904D02*
X5290476Y-3361904D01*
X5290476Y-2561904D01*
X4909523Y-2561904D01*
X4566666Y-3361904D02*
X4566666Y-2561904D01*
X4109523Y-3361904D01*
X4109523Y-2561904D01*
X-3583333Y7688095D02*
X-4116666Y6888095D01*
X-4116666Y7688095D02*
X-3583333Y6888095D01*
X-18923809Y-6711904D02*
X-19190476Y-7511904D01*
X-19457142Y-6711904D01*
X-19723809Y-7511904D02*
X-19723809Y-6711904D01*
X-20104761Y-7511904D02*
X-20104761Y-6711904D01*
X-20561904Y-7511904D01*
X-20561904Y-6711904D01*
X-1466666Y-5861904D02*
X-1199999Y-5480952D01*
X-1009523Y-5861904D02*
X-1009523Y-5061904D01*
X-1314285Y-5061904D01*
X-1390476Y-5100000D01*
X-1428571Y-5138095D01*
X-1466666Y-5214285D01*
X-1466666Y-5328571D01*
X-1428571Y-5404761D01*
X-1390476Y-5442857D01*
X-1314285Y-5480952D01*
X-1009523Y-5480952D01*
X-1733333Y-5061904D02*
X-2266666Y-5861904D01*
X-2266666Y-5061904D02*
X-1733333Y-5861904D01*
D11*
X21780714Y9032000D02*
X21209285Y9032000D01*
X21895000Y8689142D02*
X21495000Y9889142D01*
X21095000Y8689142D01*
X20523571Y8689142D02*
X20637857Y8746285D01*
X20695000Y8860571D01*
X20695000Y9889142D01*
X20237857Y9489142D02*
X19780714Y9489142D01*
X20066428Y8689142D02*
X20066428Y9717714D01*
X20009285Y9832000D01*
X19895000Y9889142D01*
X19780714Y9889142D01*
X19380714Y8689142D02*
X19380714Y9489142D01*
X19380714Y9260571D02*
X19323571Y9374857D01*
X19266428Y9432000D01*
X19152142Y9489142D01*
X19037857Y9489142D01*
X18180714Y8746285D02*
X18295000Y8689142D01*
X18523571Y8689142D01*
X18637857Y8746285D01*
X18695000Y8860571D01*
X18695000Y9317714D01*
X18637857Y9432000D01*
X18523571Y9489142D01*
X18295000Y9489142D01*
X18180714Y9432000D01*
X18123571Y9317714D01*
X18123571Y9203428D01*
X18695000Y9089142D01*
X17095000Y8689142D02*
X17095000Y9889142D01*
X17095000Y8746285D02*
X17209285Y8689142D01*
X17437857Y8689142D01*
X17552142Y8746285D01*
X17609285Y8803428D01*
X17666428Y8917714D01*
X17666428Y9260571D01*
X17609285Y9374857D01*
X17552142Y9432000D01*
X17437857Y9489142D01*
X17209285Y9489142D01*
X17095000Y9432000D01*
X16352142Y8689142D02*
X16466428Y8746285D01*
X16523571Y8803428D01*
X16580714Y8917714D01*
X16580714Y9260571D01*
X16523571Y9374857D01*
X16466428Y9432000D01*
X16352142Y9489142D01*
X16180714Y9489142D01*
X16066428Y9432000D01*
X16009285Y9374857D01*
X15952142Y9260571D01*
X15952142Y8917714D01*
X16009285Y8803428D01*
X16066428Y8746285D01*
X16180714Y8689142D01*
X16352142Y8689142D01*
X14580714Y8746285D02*
X14409285Y8689142D01*
X14123571Y8689142D01*
X14009285Y8746285D01*
X13952142Y8803428D01*
X13895000Y8917714D01*
X13895000Y9032000D01*
X13952142Y9146285D01*
X14009285Y9203428D01*
X14123571Y9260571D01*
X14352142Y9317714D01*
X14466428Y9374857D01*
X14523571Y9432000D01*
X14580714Y9546285D01*
X14580714Y9660571D01*
X14523571Y9774857D01*
X14466428Y9832000D01*
X14352142Y9889142D01*
X14066428Y9889142D01*
X13895000Y9832000D01*
X13495000Y9489142D02*
X13209285Y8689142D01*
X12923571Y9489142D02*
X13209285Y8689142D01*
X13323571Y8403428D01*
X13380714Y8346285D01*
X13495000Y8289142D01*
X12523571Y8746285D02*
X12409285Y8689142D01*
X12180714Y8689142D01*
X12066428Y8746285D01*
X12009285Y8860571D01*
X12009285Y8917714D01*
X12066428Y9032000D01*
X12180714Y9089142D01*
X12352142Y9089142D01*
X12466428Y9146285D01*
X12523571Y9260571D01*
X12523571Y9317714D01*
X12466428Y9432000D01*
X12352142Y9489142D01*
X12180714Y9489142D01*
X12066428Y9432000D01*
X11666428Y9489142D02*
X11209285Y9489142D01*
X11495000Y9889142D02*
X11495000Y8860571D01*
X11437857Y8746285D01*
X11323571Y8689142D01*
X11209285Y8689142D01*
X10352142Y8746285D02*
X10466428Y8689142D01*
X10695000Y8689142D01*
X10809285Y8746285D01*
X10866428Y8860571D01*
X10866428Y9317714D01*
X10809285Y9432000D01*
X10695000Y9489142D01*
X10466428Y9489142D01*
X10352142Y9432000D01*
X10295000Y9317714D01*
X10295000Y9203428D01*
X10866428Y9089142D01*
X9780714Y8689142D02*
X9780714Y9489142D01*
X9780714Y9374857D02*
X9723571Y9432000D01*
X9609285Y9489142D01*
X9437857Y9489142D01*
X9323571Y9432000D01*
X9266428Y9317714D01*
X9266428Y8689142D01*
X9266428Y9317714D02*
X9209285Y9432000D01*
X9095000Y9489142D01*
X8923571Y9489142D01*
X8809285Y9432000D01*
X8752142Y9317714D01*
X8752142Y8689142D01*
X8237857Y8746285D02*
X8123571Y8689142D01*
X7895000Y8689142D01*
X7780714Y8746285D01*
X7723571Y8860571D01*
X7723571Y8917714D01*
X7780714Y9032000D01*
X7895000Y9089142D01*
X8066428Y9089142D01*
X8180714Y9146285D01*
X8237857Y9260571D01*
X8237857Y9317714D01*
X8180714Y9432000D01*
X8066428Y9489142D01*
X7895000Y9489142D01*
X7780714Y9432000D01*
X13780714Y7671428D02*
X13895000Y7728571D01*
X14123571Y7728571D01*
X14237857Y7671428D01*
X14352142Y7557142D01*
X14409285Y7442857D01*
X14409285Y7214285D01*
X14352142Y7100000D01*
X14237857Y6985714D01*
X14123571Y6928571D01*
X13895000Y6928571D01*
X13780714Y6985714D01*
X14009285Y8128571D02*
X14295000Y8071428D01*
X14580714Y7900000D01*
X14752142Y7614285D01*
X14809285Y7328571D01*
X14752142Y7042857D01*
X14580714Y6757142D01*
X14295000Y6585714D01*
X14009285Y6528571D01*
X13723571Y6585714D01*
X13437857Y6757142D01*
X13266428Y7042857D01*
X13209285Y7328571D01*
X13266428Y7614285D01*
X13437857Y7900000D01*
X13723571Y8071428D01*
X14009285Y8128571D01*
X11837857Y7842857D02*
X11780714Y7900000D01*
X11666428Y7957142D01*
X11380714Y7957142D01*
X11266428Y7900000D01*
X11209285Y7842857D01*
X11152142Y7728571D01*
X11152142Y7614285D01*
X11209285Y7442857D01*
X11895000Y6757142D01*
X11152142Y6757142D01*
X10409285Y7957142D02*
X10295000Y7957142D01*
X10180714Y7900000D01*
X10123571Y7842857D01*
X10066428Y7728571D01*
X10009285Y7500000D01*
X10009285Y7214285D01*
X10066428Y6985714D01*
X10123571Y6871428D01*
X10180714Y6814285D01*
X10295000Y6757142D01*
X10409285Y6757142D01*
X10523571Y6814285D01*
X10580714Y6871428D01*
X10637857Y6985714D01*
X10695000Y7214285D01*
X10695000Y7500000D01*
X10637857Y7728571D01*
X10580714Y7842857D01*
X10523571Y7900000D01*
X10409285Y7957142D01*
X9552142Y7842857D02*
X9495000Y7900000D01*
X9380714Y7957142D01*
X9095000Y7957142D01*
X8980714Y7900000D01*
X8923571Y7842857D01*
X8866428Y7728571D01*
X8866428Y7614285D01*
X8923571Y7442857D01*
X9609285Y6757142D01*
X8866428Y6757142D01*
X8409285Y7842857D02*
X8352142Y7900000D01*
X8237857Y7957142D01*
X7952142Y7957142D01*
X7837857Y7900000D01*
X7780714Y7842857D01*
X7723571Y7728571D01*
X7723571Y7614285D01*
X7780714Y7442857D01*
X8466428Y6757142D01*
X7723571Y6757142D01*
X14809285Y4825142D02*
X15209285Y5396571D01*
X15495000Y4825142D02*
X15495000Y6025142D01*
X15037857Y6025142D01*
X14923571Y5968000D01*
X14866428Y5910857D01*
X14809285Y5796571D01*
X14809285Y5625142D01*
X14866428Y5510857D01*
X14923571Y5453714D01*
X15037857Y5396571D01*
X15495000Y5396571D01*
X14123571Y4825142D02*
X14237857Y4882285D01*
X14295000Y4939428D01*
X14352142Y5053714D01*
X14352142Y5396571D01*
X14295000Y5510857D01*
X14237857Y5568000D01*
X14123571Y5625142D01*
X13952142Y5625142D01*
X13837857Y5568000D01*
X13780714Y5510857D01*
X13723571Y5396571D01*
X13723571Y5053714D01*
X13780714Y4939428D01*
X13837857Y4882285D01*
X13952142Y4825142D01*
X14123571Y4825142D01*
X13380714Y5625142D02*
X12923571Y5625142D01*
X13209285Y6025142D02*
X13209285Y4996571D01*
X13152142Y4882285D01*
X13037857Y4825142D01*
X12923571Y4825142D01*
X12523571Y4825142D02*
X12523571Y5625142D01*
X12523571Y6025142D02*
X12580714Y5968000D01*
X12523571Y5910857D01*
X12466428Y5968000D01*
X12523571Y6025142D01*
X12523571Y5910857D01*
X11952142Y5625142D02*
X11952142Y4825142D01*
X11952142Y5510857D02*
X11895000Y5568000D01*
X11780714Y5625142D01*
X11609285Y5625142D01*
X11495000Y5568000D01*
X11437857Y5453714D01*
X11437857Y4825142D01*
X10866428Y4825142D02*
X10866428Y5625142D01*
X10866428Y6025142D02*
X10923571Y5968000D01*
X10866428Y5910857D01*
X10809285Y5968000D01*
X10866428Y6025142D01*
X10866428Y5910857D01*
X9552142Y6025142D02*
X9152142Y4825142D01*
X8752142Y6025142D01*
X8409285Y5910857D02*
X8352142Y5968000D01*
X8237857Y6025142D01*
X7952142Y6025142D01*
X7837857Y5968000D01*
X7780714Y5910857D01*
X7723571Y5796571D01*
X7723571Y5682285D01*
X7780714Y5510857D01*
X8466428Y4825142D01*
X7723571Y4825142D01*
D12*
%TO.C,JP2*%
X4100000Y-900000D02*
X4100000Y-2300000D01*
X5300000Y-2300000D02*
X5300000Y-900000D01*
%TO.C,JP60*%
X-2300000Y1400000D02*
X-2300000Y0D01*
X-1100000Y0D02*
X-1100000Y1400000D01*
%TO.C,G\u002A\u002A\u002A*%
G36*
X-13983909Y5636625D02*
G01*
X-14044121Y5524608D01*
X-14140610Y5415571D01*
X-14271216Y5310402D01*
X-14433780Y5209993D01*
X-14626142Y5115233D01*
X-14846143Y5027013D01*
X-15091624Y4946224D01*
X-15360425Y4873755D01*
X-15650387Y4810496D01*
X-15959351Y4757339D01*
X-16285158Y4715172D01*
X-16424886Y4703048D01*
X-16587743Y4694211D01*
X-16761424Y4689003D01*
X-16935989Y4687509D01*
X-17101502Y4689810D01*
X-17248023Y4695991D01*
X-17365615Y4706134D01*
X-17367447Y4706357D01*
X-17594168Y4743638D01*
X-17814242Y4798044D01*
X-18021245Y4867127D01*
X-18208752Y4948442D01*
X-18370339Y5039541D01*
X-18499581Y5137978D01*
X-18528329Y5165078D01*
X-18657745Y5315665D01*
X-18750524Y5479675D01*
X-18806573Y5656905D01*
X-18825801Y5847154D01*
X-18825780Y5856923D01*
X-18360641Y5856923D01*
X-18360599Y5839838D01*
X-18358320Y5749135D01*
X-18351047Y5682907D01*
X-18336672Y5628589D01*
X-18313084Y5573615D01*
X-18247160Y5466973D01*
X-18136705Y5352727D01*
X-17991854Y5253942D01*
X-17811925Y5170168D01*
X-17596239Y5100956D01*
X-17576434Y5095746D01*
X-17512505Y5080077D01*
X-17452802Y5068262D01*
X-17390108Y5059655D01*
X-17317206Y5053609D01*
X-17226878Y5049476D01*
X-17111907Y5046610D01*
X-16965077Y5044363D01*
X-16855157Y5043471D01*
X-16631448Y5045571D01*
X-16438940Y5053196D01*
X-16281392Y5066229D01*
X-16095169Y5090047D01*
X-15828221Y5133875D01*
X-15572111Y5187154D01*
X-15330872Y5248606D01*
X-15108538Y5316954D01*
X-14909143Y5390921D01*
X-14736720Y5469231D01*
X-14595304Y5550605D01*
X-14488927Y5633766D01*
X-14482118Y5640388D01*
X-14428463Y5707318D01*
X-14408579Y5770372D01*
X-14423442Y5831472D01*
X-14474029Y5892540D01*
X-14561317Y5955499D01*
X-14686281Y6022271D01*
X-14737147Y6045948D01*
X-14962288Y6135430D01*
X-15223567Y6217173D01*
X-15521361Y6291252D01*
X-15856045Y6357744D01*
X-16227994Y6416726D01*
X-16637585Y6468276D01*
X-17085193Y6512468D01*
X-17234617Y6525447D01*
X-17268694Y6410993D01*
X-17285715Y6339826D01*
X-17301795Y6243023D01*
X-17311166Y6150000D01*
X-17307771Y6021884D01*
X-17279584Y5919970D01*
X-17224609Y5841405D01*
X-17140923Y5782033D01*
X-17119701Y5771336D01*
X-17081946Y5755604D01*
X-17042207Y5746313D01*
X-16991229Y5742457D01*
X-16919757Y5743031D01*
X-16818538Y5747032D01*
X-16746521Y5751455D01*
X-16506834Y5780271D01*
X-16241038Y5831576D01*
X-15953028Y5904658D01*
X-15916906Y5914411D01*
X-15829777Y5934975D01*
X-15753384Y5949230D01*
X-15701020Y5954542D01*
X-15666212Y5952306D01*
X-15585231Y5927869D01*
X-15523338Y5881520D01*
X-15487156Y5819536D01*
X-15483308Y5748193D01*
X-15484477Y5743020D01*
X-15496319Y5716849D01*
X-15520009Y5692366D01*
X-15558864Y5668452D01*
X-15616204Y5643991D01*
X-15695347Y5617863D01*
X-15799613Y5588952D01*
X-15932319Y5556139D01*
X-16096786Y5518305D01*
X-16296331Y5474335D01*
X-16338438Y5465262D01*
X-16466765Y5439160D01*
X-16571668Y5421262D01*
X-16664325Y5410137D01*
X-16755915Y5404354D01*
X-16857615Y5402483D01*
X-17020542Y5407078D01*
X-17208941Y5429723D01*
X-17367279Y5471921D01*
X-17498118Y5534413D01*
X-17604020Y5617938D01*
X-17639577Y5656305D01*
X-17693526Y5734065D01*
X-17729864Y5823309D01*
X-17751691Y5932936D01*
X-17762106Y6071846D01*
X-17764254Y6145160D01*
X-17763538Y6224166D01*
X-17756989Y6286471D01*
X-17742998Y6345094D01*
X-17719959Y6413053D01*
X-17715898Y6424224D01*
X-17693412Y6488149D01*
X-17678516Y6534089D01*
X-17674258Y6552735D01*
X-17674901Y6552956D01*
X-17699847Y6554937D01*
X-17755295Y6557514D01*
X-17833775Y6560378D01*
X-17927815Y6563221D01*
X-18177399Y6570077D01*
X-18233737Y6423538D01*
X-18258113Y6359231D01*
X-18301084Y6237510D01*
X-18330568Y6136486D01*
X-18348819Y6046091D01*
X-18358092Y5956259D01*
X-18360641Y5856923D01*
X-18825780Y5856923D01*
X-18825751Y5870222D01*
X-18823500Y5935703D01*
X-18817037Y6000267D01*
X-18804992Y6068531D01*
X-18785996Y6145111D01*
X-18758679Y6234623D01*
X-18721670Y6341682D01*
X-18673601Y6470905D01*
X-18613100Y6626909D01*
X-18538800Y6814308D01*
X-18493234Y6929049D01*
X-18411917Y7137692D01*
X-18343538Y7319681D01*
X-18286062Y7481043D01*
X-18237452Y7627808D01*
X-18195671Y7766003D01*
X-18158684Y7901656D01*
X-18124453Y8040795D01*
X-18102721Y8138707D01*
X-18086562Y8230284D01*
X-18076995Y8318953D01*
X-18072555Y8418687D01*
X-18071780Y8543462D01*
X-18071811Y8549970D01*
X-18077725Y8726845D01*
X-18095208Y8878429D01*
X-18127084Y9017125D01*
X-18176178Y9155335D01*
X-18245314Y9305462D01*
X-18265155Y9345909D01*
X-18307682Y9443600D01*
X-18328664Y9518617D01*
X-18328500Y9578062D01*
X-18307592Y9629038D01*
X-18266338Y9678646D01*
X-18228320Y9712913D01*
X-18180054Y9738426D01*
X-18121299Y9745077D01*
X-18094194Y9743590D01*
X-18026567Y9723135D01*
X-17965255Y9675633D01*
X-17906176Y9597226D01*
X-17845249Y9484055D01*
X-17844426Y9482335D01*
X-17734574Y9210263D01*
X-17663075Y8932802D01*
X-17629801Y8648862D01*
X-17634623Y8357348D01*
X-17677413Y8057169D01*
X-17719712Y7867736D01*
X-17785637Y7616374D01*
X-17861656Y7363699D01*
X-17942618Y7127766D01*
X-17969127Y7054961D01*
X-17993583Y6985626D01*
X-18009488Y6937876D01*
X-18014262Y6919214D01*
X-18014169Y6919152D01*
X-17992942Y6917149D01*
X-17940627Y6914540D01*
X-17864895Y6911654D01*
X-17773419Y6908823D01*
X-17536453Y6902231D01*
X-17425789Y7191467D01*
X-17311150Y7515016D01*
X-17213009Y7855512D01*
X-17145759Y8177317D01*
X-17109124Y8482832D01*
X-17102830Y8774452D01*
X-17126598Y9054577D01*
X-17180154Y9325604D01*
X-17205362Y9416708D01*
X-17261430Y9577042D01*
X-17332710Y9729997D01*
X-17424395Y9886054D01*
X-17541674Y10055697D01*
X-17565492Y10093074D01*
X-17590495Y10173341D01*
X-17576638Y10249896D01*
X-17523877Y10323415D01*
X-17517740Y10329404D01*
X-17443552Y10379314D01*
X-17366424Y10390490D01*
X-17286215Y10362884D01*
X-17202783Y10296451D01*
X-17115986Y10191145D01*
X-16996880Y9999521D01*
X-16882733Y9757105D01*
X-16791795Y9493563D01*
X-16725571Y9215381D01*
X-16685568Y8929044D01*
X-16673292Y8641037D01*
X-16690248Y8357846D01*
X-16713625Y8192508D01*
X-16759739Y7951416D01*
X-16820342Y7696072D01*
X-16892497Y7437619D01*
X-16973266Y7187201D01*
X-17059712Y6955962D01*
X-17062766Y6948422D01*
X-17084153Y6893678D01*
X-17091016Y6865442D01*
X-17083545Y6854936D01*
X-17061928Y6853385D01*
X-17052948Y6853061D01*
X-17006758Y6849681D01*
X-16932994Y6843211D01*
X-16839706Y6834376D01*
X-16734944Y6823903D01*
X-16621963Y6811953D01*
X-16212884Y6761919D01*
X-15836013Y6704711D01*
X-15491901Y6640562D01*
X-15181101Y6569701D01*
X-14904164Y6492359D01*
X-14661642Y6408768D01*
X-14454086Y6319159D01*
X-14282049Y6223761D01*
X-14146081Y6122808D01*
X-14046734Y6016528D01*
X-13984561Y5905154D01*
X-13960112Y5788916D01*
X-13962234Y5770372D01*
X-13973940Y5668045D01*
X-13983909Y5636625D01*
G37*
D13*
X-13983909Y5636625D02*
X-14044121Y5524608D01*
X-14140610Y5415571D01*
X-14271216Y5310402D01*
X-14433780Y5209993D01*
X-14626142Y5115233D01*
X-14846143Y5027013D01*
X-15091624Y4946224D01*
X-15360425Y4873755D01*
X-15650387Y4810496D01*
X-15959351Y4757339D01*
X-16285158Y4715172D01*
X-16424886Y4703048D01*
X-16587743Y4694211D01*
X-16761424Y4689003D01*
X-16935989Y4687509D01*
X-17101502Y4689810D01*
X-17248023Y4695991D01*
X-17365615Y4706134D01*
X-17367447Y4706357D01*
X-17594168Y4743638D01*
X-17814242Y4798044D01*
X-18021245Y4867127D01*
X-18208752Y4948442D01*
X-18370339Y5039541D01*
X-18499581Y5137978D01*
X-18528329Y5165078D01*
X-18657745Y5315665D01*
X-18750524Y5479675D01*
X-18806573Y5656905D01*
X-18825801Y5847154D01*
X-18825780Y5856923D01*
X-18360641Y5856923D01*
X-18360599Y5839838D01*
X-18358320Y5749135D01*
X-18351047Y5682907D01*
X-18336672Y5628589D01*
X-18313084Y5573615D01*
X-18247160Y5466973D01*
X-18136705Y5352727D01*
X-17991854Y5253942D01*
X-17811925Y5170168D01*
X-17596239Y5100956D01*
X-17576434Y5095746D01*
X-17512505Y5080077D01*
X-17452802Y5068262D01*
X-17390108Y5059655D01*
X-17317206Y5053609D01*
X-17226878Y5049476D01*
X-17111907Y5046610D01*
X-16965077Y5044363D01*
X-16855157Y5043471D01*
X-16631448Y5045571D01*
X-16438940Y5053196D01*
X-16281392Y5066229D01*
X-16095169Y5090047D01*
X-15828221Y5133875D01*
X-15572111Y5187154D01*
X-15330872Y5248606D01*
X-15108538Y5316954D01*
X-14909143Y5390921D01*
X-14736720Y5469231D01*
X-14595304Y5550605D01*
X-14488927Y5633766D01*
X-14482118Y5640388D01*
X-14428463Y5707318D01*
X-14408579Y5770372D01*
X-14423442Y5831472D01*
X-14474029Y5892540D01*
X-14561317Y5955499D01*
X-14686281Y6022271D01*
X-14737147Y6045948D01*
X-14962288Y6135430D01*
X-15223567Y6217173D01*
X-15521361Y6291252D01*
X-15856045Y6357744D01*
X-16227994Y6416726D01*
X-16637585Y6468276D01*
X-17085193Y6512468D01*
X-17234617Y6525447D01*
X-17268694Y6410993D01*
X-17285715Y6339826D01*
X-17301795Y6243023D01*
X-17311166Y6150000D01*
X-17307771Y6021884D01*
X-17279584Y5919970D01*
X-17224609Y5841405D01*
X-17140923Y5782033D01*
X-17119701Y5771336D01*
X-17081946Y5755604D01*
X-17042207Y5746313D01*
X-16991229Y5742457D01*
X-16919757Y5743031D01*
X-16818538Y5747032D01*
X-16746521Y5751455D01*
X-16506834Y5780271D01*
X-16241038Y5831576D01*
X-15953028Y5904658D01*
X-15916906Y5914411D01*
X-15829777Y5934975D01*
X-15753384Y5949230D01*
X-15701020Y5954542D01*
X-15666212Y5952306D01*
X-15585231Y5927869D01*
X-15523338Y5881520D01*
X-15487156Y5819536D01*
X-15483308Y5748193D01*
X-15484477Y5743020D01*
X-15496319Y5716849D01*
X-15520009Y5692366D01*
X-15558864Y5668452D01*
X-15616204Y5643991D01*
X-15695347Y5617863D01*
X-15799613Y5588952D01*
X-15932319Y5556139D01*
X-16096786Y5518305D01*
X-16296331Y5474335D01*
X-16338438Y5465262D01*
X-16466765Y5439160D01*
X-16571668Y5421262D01*
X-16664325Y5410137D01*
X-16755915Y5404354D01*
X-16857615Y5402483D01*
X-17020542Y5407078D01*
X-17208941Y5429723D01*
X-17367279Y5471921D01*
X-17498118Y5534413D01*
X-17604020Y5617938D01*
X-17639577Y5656305D01*
X-17693526Y5734065D01*
X-17729864Y5823309D01*
X-17751691Y5932936D01*
X-17762106Y6071846D01*
X-17764254Y6145160D01*
X-17763538Y6224166D01*
X-17756989Y6286471D01*
X-17742998Y6345094D01*
X-17719959Y6413053D01*
X-17715898Y6424224D01*
X-17693412Y6488149D01*
X-17678516Y6534089D01*
X-17674258Y6552735D01*
X-17674901Y6552956D01*
X-17699847Y6554937D01*
X-17755295Y6557514D01*
X-17833775Y6560378D01*
X-17927815Y6563221D01*
X-18177399Y6570077D01*
X-18233737Y6423538D01*
X-18258113Y6359231D01*
X-18301084Y6237510D01*
X-18330568Y6136486D01*
X-18348819Y6046091D01*
X-18358092Y5956259D01*
X-18360641Y5856923D01*
X-18825780Y5856923D01*
X-18825751Y5870222D01*
X-18823500Y5935703D01*
X-18817037Y6000267D01*
X-18804992Y6068531D01*
X-18785996Y6145111D01*
X-18758679Y6234623D01*
X-18721670Y6341682D01*
X-18673601Y6470905D01*
X-18613100Y6626909D01*
X-18538800Y6814308D01*
X-18493234Y6929049D01*
X-18411917Y7137692D01*
X-18343538Y7319681D01*
X-18286062Y7481043D01*
X-18237452Y7627808D01*
X-18195671Y7766003D01*
X-18158684Y7901656D01*
X-18124453Y8040795D01*
X-18102721Y8138707D01*
X-18086562Y8230284D01*
X-18076995Y8318953D01*
X-18072555Y8418687D01*
X-18071780Y8543462D01*
X-18071811Y8549970D01*
X-18077725Y8726845D01*
X-18095208Y8878429D01*
X-18127084Y9017125D01*
X-18176178Y9155335D01*
X-18245314Y9305462D01*
X-18265155Y9345909D01*
X-18307682Y9443600D01*
X-18328664Y9518617D01*
X-18328500Y9578062D01*
X-18307592Y9629038D01*
X-18266338Y9678646D01*
X-18228320Y9712913D01*
X-18180054Y9738426D01*
X-18121299Y9745077D01*
X-18094194Y9743590D01*
X-18026567Y9723135D01*
X-17965255Y9675633D01*
X-17906176Y9597226D01*
X-17845249Y9484055D01*
X-17844426Y9482335D01*
X-17734574Y9210263D01*
X-17663075Y8932802D01*
X-17629801Y8648862D01*
X-17634623Y8357348D01*
X-17677413Y8057169D01*
X-17719712Y7867736D01*
X-17785637Y7616374D01*
X-17861656Y7363699D01*
X-17942618Y7127766D01*
X-17969127Y7054961D01*
X-17993583Y6985626D01*
X-18009488Y6937876D01*
X-18014262Y6919214D01*
X-18014169Y6919152D01*
X-17992942Y6917149D01*
X-17940627Y6914540D01*
X-17864895Y6911654D01*
X-17773419Y6908823D01*
X-17536453Y6902231D01*
X-17425789Y7191467D01*
X-17311150Y7515016D01*
X-17213009Y7855512D01*
X-17145759Y8177317D01*
X-17109124Y8482832D01*
X-17102830Y8774452D01*
X-17126598Y9054577D01*
X-17180154Y9325604D01*
X-17205362Y9416708D01*
X-17261430Y9577042D01*
X-17332710Y9729997D01*
X-17424395Y9886054D01*
X-17541674Y10055697D01*
X-17565492Y10093074D01*
X-17590495Y10173341D01*
X-17576638Y10249896D01*
X-17523877Y10323415D01*
X-17517740Y10329404D01*
X-17443552Y10379314D01*
X-17366424Y10390490D01*
X-17286215Y10362884D01*
X-17202783Y10296451D01*
X-17115986Y10191145D01*
X-16996880Y9999521D01*
X-16882733Y9757105D01*
X-16791795Y9493563D01*
X-16725571Y9215381D01*
X-16685568Y8929044D01*
X-16673292Y8641037D01*
X-16690248Y8357846D01*
X-16713625Y8192508D01*
X-16759739Y7951416D01*
X-16820342Y7696072D01*
X-16892497Y7437619D01*
X-16973266Y7187201D01*
X-17059712Y6955962D01*
X-17062766Y6948422D01*
X-17084153Y6893678D01*
X-17091016Y6865442D01*
X-17083545Y6854936D01*
X-17061928Y6853385D01*
X-17052948Y6853061D01*
X-17006758Y6849681D01*
X-16932994Y6843211D01*
X-16839706Y6834376D01*
X-16734944Y6823903D01*
X-16621963Y6811953D01*
X-16212884Y6761919D01*
X-15836013Y6704711D01*
X-15491901Y6640562D01*
X-15181101Y6569701D01*
X-14904164Y6492359D01*
X-14661642Y6408768D01*
X-14454086Y6319159D01*
X-14282049Y6223761D01*
X-14146081Y6122808D01*
X-14046734Y6016528D01*
X-13984561Y5905154D01*
X-13960112Y5788916D01*
X-13962234Y5770372D01*
X-13973940Y5668045D01*
X-13983909Y5636625D01*
G36*
X-14603024Y3640227D02*
G01*
X-14800159Y3379889D01*
X-14820994Y3355428D01*
X-15013274Y3155766D01*
X-15238626Y2961769D01*
X-15491732Y2776796D01*
X-15767278Y2604208D01*
X-16059950Y2447365D01*
X-16364431Y2309627D01*
X-16675407Y2194354D01*
X-16733375Y2175510D01*
X-16923144Y2118016D01*
X-17105069Y2070482D01*
X-17288535Y2031043D01*
X-17482923Y1997834D01*
X-17697617Y1968991D01*
X-17942000Y1942648D01*
X-18001220Y1938555D01*
X-18104345Y1935051D01*
X-18229930Y1933389D01*
X-18368700Y1933495D01*
X-18511377Y1935294D01*
X-18648683Y1938712D01*
X-18771342Y1943673D01*
X-18870077Y1950105D01*
X-18983641Y1960774D01*
X-19430043Y2023038D01*
X-19852655Y2115929D01*
X-20252350Y2239842D01*
X-20630001Y2395173D01*
X-20986480Y2582316D01*
X-21322660Y2801667D01*
X-21639414Y3053620D01*
X-21937615Y3338570D01*
X-22076055Y3489604D01*
X-22302360Y3773495D01*
X-22491806Y4066240D01*
X-22645638Y4370461D01*
X-22765102Y4688785D01*
X-22851444Y5023833D01*
X-22905909Y5378231D01*
X-22910628Y5425344D01*
X-22920521Y5586469D01*
X-22916769Y5719518D01*
X-22908885Y5768832D01*
X-22463147Y5768832D01*
X-22445251Y5712378D01*
X-22426603Y5682721D01*
X-22379838Y5629442D01*
X-22322997Y5579497D01*
X-22185533Y5490494D01*
X-21999839Y5399935D01*
X-21777630Y5316301D01*
X-21519973Y5239903D01*
X-21227935Y5171056D01*
X-20902583Y5110074D01*
X-20544984Y5057269D01*
X-20484632Y5049239D01*
X-20363476Y5031246D01*
X-20273465Y5013851D01*
X-20209077Y4995207D01*
X-20164791Y4973469D01*
X-20135085Y4946791D01*
X-20114436Y4913326D01*
X-20101118Y4879437D01*
X-20102127Y4843267D01*
X-20125026Y4796273D01*
X-20154058Y4756740D01*
X-20205725Y4719230D01*
X-20276856Y4698929D01*
X-20373252Y4694416D01*
X-20500717Y4704272D01*
X-20598490Y4715937D01*
X-20988469Y4772732D01*
X-21355670Y4842997D01*
X-21696339Y4925845D01*
X-22006719Y5020388D01*
X-22283058Y5125737D01*
X-22303034Y5134242D01*
X-22370971Y5161740D01*
X-22410718Y5174042D01*
X-22428062Y5172438D01*
X-22428787Y5158218D01*
X-22428275Y5156368D01*
X-22417956Y5112363D01*
X-22406639Y5055846D01*
X-22396435Y5007707D01*
X-22360069Y4877870D01*
X-22308797Y4728687D01*
X-22246534Y4569836D01*
X-22177197Y4410998D01*
X-22104701Y4261852D01*
X-22032961Y4132076D01*
X-21995449Y4071324D01*
X-21812919Y3814655D01*
X-21598168Y3566314D01*
X-21356721Y3331779D01*
X-21094108Y3116528D01*
X-20815856Y2926037D01*
X-20655449Y2831167D01*
X-20329497Y2666083D01*
X-19988957Y2530251D01*
X-19628128Y2421538D01*
X-19241308Y2337817D01*
X-19220340Y2334266D01*
X-19097838Y2318740D01*
X-18946309Y2306035D01*
X-18774007Y2296311D01*
X-18589185Y2289726D01*
X-18400097Y2286440D01*
X-18214996Y2286609D01*
X-18042137Y2290395D01*
X-17889771Y2297954D01*
X-17766154Y2309447D01*
X-17632639Y2328191D01*
X-17229162Y2407449D01*
X-16840812Y2518118D01*
X-16470513Y2658987D01*
X-16121185Y2828845D01*
X-15795751Y3026478D01*
X-15497132Y3250674D01*
X-15411881Y3325315D01*
X-15206176Y3537430D01*
X-15025059Y3772041D01*
X-14875617Y4020370D01*
X-14791398Y4182251D01*
X-14876891Y4171694D01*
X-14917916Y4165550D01*
X-14992513Y4152929D01*
X-15090320Y4135533D01*
X-15203407Y4114774D01*
X-15323846Y4092066D01*
X-15522336Y4055810D01*
X-15996771Y3983580D01*
X-16447485Y3936045D01*
X-16873748Y3913113D01*
X-17274830Y3914690D01*
X-17649999Y3940682D01*
X-17998527Y3990995D01*
X-18319682Y4065536D01*
X-18612734Y4164212D01*
X-18876953Y4286928D01*
X-19111609Y4433591D01*
X-19315971Y4604107D01*
X-19403945Y4693256D01*
X-19537982Y4853523D01*
X-19644852Y5021188D01*
X-19730636Y5206466D01*
X-19801416Y5419574D01*
X-19827260Y5535092D01*
X-19845151Y5741844D01*
X-19833166Y5972596D01*
X-19791298Y6227934D01*
X-19788735Y6240037D01*
X-19769535Y6331918D01*
X-19753903Y6408841D01*
X-19743388Y6463057D01*
X-19739538Y6486818D01*
X-19746844Y6494260D01*
X-19784179Y6500042D01*
X-19854435Y6499800D01*
X-19959023Y6493471D01*
X-20099356Y6480989D01*
X-20276846Y6462292D01*
X-20501248Y6435741D01*
X-20838287Y6388464D01*
X-21142764Y6335506D01*
X-21418572Y6275992D01*
X-21669607Y6209044D01*
X-21899761Y6133789D01*
X-22112929Y6049349D01*
X-22151757Y6032284D01*
X-22276868Y5972587D01*
X-22367748Y5919248D01*
X-22427210Y5869412D01*
X-22458071Y5820225D01*
X-22463147Y5768832D01*
X-22908885Y5768832D01*
X-22898873Y5831458D01*
X-22866333Y5929257D01*
X-22819386Y6012660D01*
X-22728952Y6117526D01*
X-22611624Y6212513D01*
X-22474275Y6291277D01*
X-22332339Y6354628D01*
X-22073909Y6453279D01*
X-21790941Y6541425D01*
X-21481134Y6619564D01*
X-21142187Y6688195D01*
X-20771797Y6747814D01*
X-20367664Y6798919D01*
X-19927486Y6842009D01*
X-19843469Y6849674D01*
X-19743308Y6860203D01*
X-19661892Y6870380D01*
X-19605960Y6879340D01*
X-19582254Y6886222D01*
X-19571883Y6902370D01*
X-19547674Y6952717D01*
X-19514928Y7029182D01*
X-19476198Y7125376D01*
X-19434038Y7234909D01*
X-19391001Y7351391D01*
X-19349639Y7468432D01*
X-19272353Y7708187D01*
X-19194768Y8001597D01*
X-19143645Y8275196D01*
X-19118384Y8533487D01*
X-19118387Y8780972D01*
X-19143056Y9022154D01*
X-19191797Y9268183D01*
X-19269779Y9520047D01*
X-19372937Y9745717D01*
X-19502368Y9948017D01*
X-19518789Y9970466D01*
X-19574125Y10058861D01*
X-19600774Y10132905D01*
X-19600515Y10200461D01*
X-19575128Y10269392D01*
X-19559171Y10294513D01*
X-19498472Y10346177D01*
X-19420660Y10373055D01*
X-19337190Y10372516D01*
X-19259517Y10341926D01*
X-19204730Y10293985D01*
X-19137804Y10213199D01*
X-19066227Y10108601D01*
X-18994041Y9987025D01*
X-18925286Y9855305D01*
X-18864003Y9720275D01*
X-18814232Y9588769D01*
X-18782796Y9486311D01*
X-18728837Y9256457D01*
X-18690632Y9011812D01*
X-18669412Y8764362D01*
X-18666406Y8526095D01*
X-18682845Y8309000D01*
X-18737991Y7989857D01*
X-18824177Y7642819D01*
X-18939964Y7276271D01*
X-19084714Y6892462D01*
X-19118093Y6809824D01*
X-19192876Y6620195D01*
X-19253096Y6458886D01*
X-19300167Y6320799D01*
X-19335506Y6200831D01*
X-19360528Y6093884D01*
X-19376648Y5994856D01*
X-19385283Y5898646D01*
X-19387846Y5800156D01*
X-19378610Y5639759D01*
X-19334528Y5422314D01*
X-19255520Y5218533D01*
X-19143159Y5030195D01*
X-18999015Y4859081D01*
X-18824660Y4706968D01*
X-18621665Y4575638D01*
X-18391601Y4466869D01*
X-18136039Y4382441D01*
X-18128288Y4380372D01*
X-17985384Y4344515D01*
X-17852534Y4316589D01*
X-17721564Y4295704D01*
X-17584299Y4280975D01*
X-17432566Y4271514D01*
X-17258191Y4266432D01*
X-17053000Y4264843D01*
X-16773466Y4269193D01*
X-16391038Y4290393D01*
X-16004230Y4330046D01*
X-15606085Y4389070D01*
X-15189645Y4468384D01*
X-14747952Y4568905D01*
X-14661325Y4589390D01*
X-14553777Y4611437D01*
X-14472219Y4622080D01*
X-14409833Y4621632D01*
X-14359804Y4610404D01*
X-14315315Y4588709D01*
X-14271940Y4555006D01*
X-14247156Y4513085D01*
X-14241847Y4456964D01*
X-14255395Y4379750D01*
X-14287183Y4274550D01*
X-14318885Y4185476D01*
X-14320329Y4182251D01*
X-14443125Y3907839D01*
X-14603024Y3640227D01*
G37*
X-14603024Y3640227D02*
X-14800159Y3379889D01*
X-14820994Y3355428D01*
X-15013274Y3155766D01*
X-15238626Y2961769D01*
X-15491732Y2776796D01*
X-15767278Y2604208D01*
X-16059950Y2447365D01*
X-16364431Y2309627D01*
X-16675407Y2194354D01*
X-16733375Y2175510D01*
X-16923144Y2118016D01*
X-17105069Y2070482D01*
X-17288535Y2031043D01*
X-17482923Y1997834D01*
X-17697617Y1968991D01*
X-17942000Y1942648D01*
X-18001220Y1938555D01*
X-18104345Y1935051D01*
X-18229930Y1933389D01*
X-18368700Y1933495D01*
X-18511377Y1935294D01*
X-18648683Y1938712D01*
X-18771342Y1943673D01*
X-18870077Y1950105D01*
X-18983641Y1960774D01*
X-19430043Y2023038D01*
X-19852655Y2115929D01*
X-20252350Y2239842D01*
X-20630001Y2395173D01*
X-20986480Y2582316D01*
X-21322660Y2801667D01*
X-21639414Y3053620D01*
X-21937615Y3338570D01*
X-22076055Y3489604D01*
X-22302360Y3773495D01*
X-22491806Y4066240D01*
X-22645638Y4370461D01*
X-22765102Y4688785D01*
X-22851444Y5023833D01*
X-22905909Y5378231D01*
X-22910628Y5425344D01*
X-22920521Y5586469D01*
X-22916769Y5719518D01*
X-22908885Y5768832D01*
X-22463147Y5768832D01*
X-22445251Y5712378D01*
X-22426603Y5682721D01*
X-22379838Y5629442D01*
X-22322997Y5579497D01*
X-22185533Y5490494D01*
X-21999839Y5399935D01*
X-21777630Y5316301D01*
X-21519973Y5239903D01*
X-21227935Y5171056D01*
X-20902583Y5110074D01*
X-20544984Y5057269D01*
X-20484632Y5049239D01*
X-20363476Y5031246D01*
X-20273465Y5013851D01*
X-20209077Y4995207D01*
X-20164791Y4973469D01*
X-20135085Y4946791D01*
X-20114436Y4913326D01*
X-20101118Y4879437D01*
X-20102127Y4843267D01*
X-20125026Y4796273D01*
X-20154058Y4756740D01*
X-20205725Y4719230D01*
X-20276856Y4698929D01*
X-20373252Y4694416D01*
X-20500717Y4704272D01*
X-20598490Y4715937D01*
X-20988469Y4772732D01*
X-21355670Y4842997D01*
X-21696339Y4925845D01*
X-22006719Y5020388D01*
X-22283058Y5125737D01*
X-22303034Y5134242D01*
X-22370971Y5161740D01*
X-22410718Y5174042D01*
X-22428062Y5172438D01*
X-22428787Y5158218D01*
X-22428275Y5156368D01*
X-22417956Y5112363D01*
X-22406639Y5055846D01*
X-22396435Y5007707D01*
X-22360069Y4877870D01*
X-22308797Y4728687D01*
X-22246534Y4569836D01*
X-22177197Y4410998D01*
X-22104701Y4261852D01*
X-22032961Y4132076D01*
X-21995449Y4071324D01*
X-21812919Y3814655D01*
X-21598168Y3566314D01*
X-21356721Y3331779D01*
X-21094108Y3116528D01*
X-20815856Y2926037D01*
X-20655449Y2831167D01*
X-20329497Y2666083D01*
X-19988957Y2530251D01*
X-19628128Y2421538D01*
X-19241308Y2337817D01*
X-19220340Y2334266D01*
X-19097838Y2318740D01*
X-18946309Y2306035D01*
X-18774007Y2296311D01*
X-18589185Y2289726D01*
X-18400097Y2286440D01*
X-18214996Y2286609D01*
X-18042137Y2290395D01*
X-17889771Y2297954D01*
X-17766154Y2309447D01*
X-17632639Y2328191D01*
X-17229162Y2407449D01*
X-16840812Y2518118D01*
X-16470513Y2658987D01*
X-16121185Y2828845D01*
X-15795751Y3026478D01*
X-15497132Y3250674D01*
X-15411881Y3325315D01*
X-15206176Y3537430D01*
X-15025059Y3772041D01*
X-14875617Y4020370D01*
X-14791398Y4182251D01*
X-14876891Y4171694D01*
X-14917916Y4165550D01*
X-14992513Y4152929D01*
X-15090320Y4135533D01*
X-15203407Y4114774D01*
X-15323846Y4092066D01*
X-15522336Y4055810D01*
X-15996771Y3983580D01*
X-16447485Y3936045D01*
X-16873748Y3913113D01*
X-17274830Y3914690D01*
X-17649999Y3940682D01*
X-17998527Y3990995D01*
X-18319682Y4065536D01*
X-18612734Y4164212D01*
X-18876953Y4286928D01*
X-19111609Y4433591D01*
X-19315971Y4604107D01*
X-19403945Y4693256D01*
X-19537982Y4853523D01*
X-19644852Y5021188D01*
X-19730636Y5206466D01*
X-19801416Y5419574D01*
X-19827260Y5535092D01*
X-19845151Y5741844D01*
X-19833166Y5972596D01*
X-19791298Y6227934D01*
X-19788735Y6240037D01*
X-19769535Y6331918D01*
X-19753903Y6408841D01*
X-19743388Y6463057D01*
X-19739538Y6486818D01*
X-19746844Y6494260D01*
X-19784179Y6500042D01*
X-19854435Y6499800D01*
X-19959023Y6493471D01*
X-20099356Y6480989D01*
X-20276846Y6462292D01*
X-20501248Y6435741D01*
X-20838287Y6388464D01*
X-21142764Y6335506D01*
X-21418572Y6275992D01*
X-21669607Y6209044D01*
X-21899761Y6133789D01*
X-22112929Y6049349D01*
X-22151757Y6032284D01*
X-22276868Y5972587D01*
X-22367748Y5919248D01*
X-22427210Y5869412D01*
X-22458071Y5820225D01*
X-22463147Y5768832D01*
X-22908885Y5768832D01*
X-22898873Y5831458D01*
X-22866333Y5929257D01*
X-22819386Y6012660D01*
X-22728952Y6117526D01*
X-22611624Y6212513D01*
X-22474275Y6291277D01*
X-22332339Y6354628D01*
X-22073909Y6453279D01*
X-21790941Y6541425D01*
X-21481134Y6619564D01*
X-21142187Y6688195D01*
X-20771797Y6747814D01*
X-20367664Y6798919D01*
X-19927486Y6842009D01*
X-19843469Y6849674D01*
X-19743308Y6860203D01*
X-19661892Y6870380D01*
X-19605960Y6879340D01*
X-19582254Y6886222D01*
X-19571883Y6902370D01*
X-19547674Y6952717D01*
X-19514928Y7029182D01*
X-19476198Y7125376D01*
X-19434038Y7234909D01*
X-19391001Y7351391D01*
X-19349639Y7468432D01*
X-19272353Y7708187D01*
X-19194768Y8001597D01*
X-19143645Y8275196D01*
X-19118384Y8533487D01*
X-19118387Y8780972D01*
X-19143056Y9022154D01*
X-19191797Y9268183D01*
X-19269779Y9520047D01*
X-19372937Y9745717D01*
X-19502368Y9948017D01*
X-19518789Y9970466D01*
X-19574125Y10058861D01*
X-19600774Y10132905D01*
X-19600515Y10200461D01*
X-19575128Y10269392D01*
X-19559171Y10294513D01*
X-19498472Y10346177D01*
X-19420660Y10373055D01*
X-19337190Y10372516D01*
X-19259517Y10341926D01*
X-19204730Y10293985D01*
X-19137804Y10213199D01*
X-19066227Y10108601D01*
X-18994041Y9987025D01*
X-18925286Y9855305D01*
X-18864003Y9720275D01*
X-18814232Y9588769D01*
X-18782796Y9486311D01*
X-18728837Y9256457D01*
X-18690632Y9011812D01*
X-18669412Y8764362D01*
X-18666406Y8526095D01*
X-18682845Y8309000D01*
X-18737991Y7989857D01*
X-18824177Y7642819D01*
X-18939964Y7276271D01*
X-19084714Y6892462D01*
X-19118093Y6809824D01*
X-19192876Y6620195D01*
X-19253096Y6458886D01*
X-19300167Y6320799D01*
X-19335506Y6200831D01*
X-19360528Y6093884D01*
X-19376648Y5994856D01*
X-19385283Y5898646D01*
X-19387846Y5800156D01*
X-19378610Y5639759D01*
X-19334528Y5422314D01*
X-19255520Y5218533D01*
X-19143159Y5030195D01*
X-18999015Y4859081D01*
X-18824660Y4706968D01*
X-18621665Y4575638D01*
X-18391601Y4466869D01*
X-18136039Y4382441D01*
X-18128288Y4380372D01*
X-17985384Y4344515D01*
X-17852534Y4316589D01*
X-17721564Y4295704D01*
X-17584299Y4280975D01*
X-17432566Y4271514D01*
X-17258191Y4266432D01*
X-17053000Y4264843D01*
X-16773466Y4269193D01*
X-16391038Y4290393D01*
X-16004230Y4330046D01*
X-15606085Y4389070D01*
X-15189645Y4468384D01*
X-14747952Y4568905D01*
X-14661325Y4589390D01*
X-14553777Y4611437D01*
X-14472219Y4622080D01*
X-14409833Y4621632D01*
X-14359804Y4610404D01*
X-14315315Y4588709D01*
X-14271940Y4555006D01*
X-14247156Y4513085D01*
X-14241847Y4456964D01*
X-14255395Y4379750D01*
X-14287183Y4274550D01*
X-14318885Y4185476D01*
X-14320329Y4182251D01*
X-14443125Y3907839D01*
X-14603024Y3640227D01*
D12*
%TO.C,JP1*%
X10300000Y-2300000D02*
X10300000Y-900000D01*
X9100000Y-900000D02*
X9100000Y-2300000D01*
%TD*%
%LPC*%
D14*
%TO.C,*%
X8500000Y-8000000D03*
%TD*%
%TO.C,*%
X-8500000Y-8000000D03*
%TD*%
D15*
%TO.C,U30*%
X3810000Y8890000D03*
X1270000Y8890000D03*
X-1270000Y8890000D03*
X-3810000Y8890000D03*
X-3810000Y-8890000D03*
X-1270000Y-8890000D03*
X1270000Y-8890000D03*
X3810000Y-8890000D03*
%TD*%
D16*
%TO.C,U52*%
X14110000Y-4465000D03*
X19890000Y-4465000D03*
D17*
X12680000Y-3985000D03*
D18*
X21320000Y-8155000D03*
X12680000Y-8155000D03*
D17*
X21320000Y-3985000D03*
%TD*%
D19*
%TO.C,JP2*%
X4700000Y-2200000D03*
D20*
X4700000Y-1000000D03*
%TD*%
D21*
%TO.C,TP2*%
X-1500000Y-4000000D03*
%TD*%
D19*
%TO.C,JP60*%
X-1700000Y100000D03*
D20*
X-1700000Y1300000D03*
%TD*%
D22*
%TO.C,J208*%
X20250000Y7150000D03*
D23*
X19500000Y7150000D03*
%TD*%
D21*
%TO.C,TP1*%
X1000000Y-4000000D03*
%TD*%
D23*
%TO.C,J207*%
X19500000Y2250000D03*
D22*
X20250000Y2250000D03*
%TD*%
D24*
%TO.C,JP1*%
X9700000Y-1000000D03*
D25*
X9700000Y-2200000D03*
%TD*%
D26*
%TO.C,J206*%
X-19500000Y-4600000D03*
D27*
X-20250000Y-4600000D03*
%TD*%
D23*
%TO.C,J61*%
X-11950000Y8300000D03*
D22*
X-11200000Y8300000D03*
%TD*%
D26*
%TO.C,J205*%
X-19500000Y-8500000D03*
D27*
X-20250000Y-8500000D03*
%TD*%
D21*
%TO.C,TP3*%
X-4000000Y-4000000D03*
%TD*%
M02*
