M48
; DRILL file {KiCad (7.0.0)} date Sun Aug  6 02:23:00 2023
; FORMAT={-:-/ absolute / inch / decimal}
; #@! TF.CreationDate,2023-08-06T02:23:00-04:00
; #@! TF.GenerationSoftware,Kicad,Pcbnew,(7.0.0)
; #@! TF.FileFunction,Plated,1,4,PTH
FMAT,2
INCH
; #@! TA.AperFunction,Plated,PTH,ViaDrill
T1C0.0079
; #@! TA.AperFunction,Plated,PTH,ComponentDrill
T2C0.0197
; #@! TA.AperFunction,Plated,PTH,ComponentDrill
T3C0.0236
; #@! TA.AperFunction,Plated,PTH,ComponentDrill
T4C0.0315
%
G90
G05
T1
X-0.7126Y0.0551
X-0.6811Y0.2283
X-0.6102Y0.0748
X-0.5993Y0.1427
X-0.5735Y0.0872
X-0.5691Y-0.003
X-0.561Y0.3209
X-0.5591Y0.4094
X-0.5591Y0.3504
X-0.5512Y0.2795
X-0.5472Y0.1575
X-0.5433Y-0.0433
X-0.5433Y-0.1575
X-0.5258Y0.0522
X-0.5236Y0.3504
X-0.5236Y0.2126
X-0.5157Y-0.3268
X-0.4963Y0.1407
X-0.4961Y0.1114
X-0.4685Y0.3268
X-0.4685Y0.2126
X-0.4609Y-0.0959
X-0.4293Y-0.0069
X-0.4272Y-0.0954
X-0.4136Y0.1388
X-0.4136Y0.064
X-0.4134Y0.2126
X-0.4018Y-0.003
X-0.4016Y0.3898
X-0.393Y-0.0956
X-0.3898Y-0.185
X-0.3737Y0.0999
X-0.3543Y0.3583
X-0.3504Y-0.0177
X-0.3388Y0.1388
X-0.3388Y0.064
X-0.323Y-0.003
X-0.3189Y0.4114
X-0.3138Y-0.0748
X-0.3033Y0.2136
X-0.2659Y0.0344
X-0.264Y0.1073
X-0.2325Y0.0797
X-0.2128Y0.1703
X-0.2106Y0.4114
X-0.2089Y0.1073
X-0.2087Y0.3563
X-0.2087Y0.3228
X-0.2087Y0.2165
X-0.1951Y0.1506
X-0.1931Y0.0876
X-0.1931Y0.0404
X-0.1929Y0.0079
X-0.1732Y0.2283
X-0.1496Y-0.0157
X-0.1496Y-0.1299
X-0.1262Y0.1742
X-0.1262Y0.064
X-0.1102Y-0.1457
X-0.0984Y-0.3189
X-0.0669Y0.1181
X-0.0551Y0.252
X-0.0531Y-0.3189
X-0.0276Y0.2835
X-0.0276Y-0.065
X-0.0276Y-0.1575
X-0.0256Y-0.0906
X-0.0254Y-0.1238
X-0.0217Y0.252
X-0.0197Y-0.3189
X-0.0159Y0.064
X-0.0118Y0.305
X-0.0002Y-0.0069
X0.0Y-0.1693
X0.0019Y-0.0649
X0.0157Y0.252
X0.0157Y-0.3189
X0.0276Y-0.0059
X0.0551Y-0.0059
X0.0591Y-0.3189
X0.061Y-0.2146
X0.063Y0.1378
X0.0984Y-0.3189
X0.1083Y0.0827
X0.1119Y0.307
X0.1169Y-0.0994
X0.1341Y-0.1183
X0.1516Y0.1378
X0.1644Y0.0413
X0.1693Y0.311
X0.1772Y0.1957
X0.1772Y-0.2047
X0.189Y-0.3307
X0.2126Y-0.2756
X0.2219Y-0.0644
X0.2342Y-0.171
X0.2581Y0.297
X0.2598Y0.1811
X0.3307Y0.3583
X0.3307Y0.3228
X0.3307Y0.2598
X0.3602Y0.0846
X0.3622Y-0.0512
X0.3711Y0.1633
X0.376Y0.3583
X0.3916Y-0.0079
X0.4055Y0.3583
X0.4174Y0.1666
X0.4311Y0.2618
X0.4606Y-0.0039
X0.4685Y-0.0906
X0.4705Y0.0846
X0.4882Y-0.0039
X0.502Y0.0846
X0.5138Y0.1594
X0.5295Y0.2205
X0.5295Y0.1909
X0.5299Y0.2823
X0.5315Y0.3268
X0.5335Y0.0846
X0.5433Y-0.0984
X0.5669Y0.0846
X0.5709Y0.0157
X0.5748Y-0.0984
X0.6043Y0.4055
X0.6043Y0.2067
X0.6043Y0.1752
X0.6102Y0.311
X0.628Y0.1949
X0.6358Y0.1112
X0.667Y-0.0394
X0.6672Y0.1457
X0.6879Y0.0276
X0.689Y0.3622
X0.7098Y0.005
X0.7638Y-0.0984
X0.7953Y-0.0984
T2
X-0.8976Y0.3327
X-0.8976Y0.3031
X-0.8976Y0.2736
X-0.8976Y0.1831
X-0.8976Y0.1535
X-0.8976Y0.124
X-0.8976Y0.0335
X-0.8976Y0.0039
X-0.8976Y-0.0256
X-0.8976Y-0.1161
X-0.8976Y-0.1457
X-0.8976Y-0.1752
X-0.8976Y-0.2657
X-0.8976Y-0.2953
X-0.8976Y-0.3248
X-0.8681Y0.3327
X-0.8681Y0.3031
X-0.8681Y0.2736
X-0.8681Y0.1831
X-0.8681Y0.1535
X-0.8681Y0.124
X-0.8681Y0.0335
X-0.8681Y0.0039
X-0.8681Y-0.0256
X-0.8681Y-0.1161
X-0.8681Y-0.1457
X-0.8681Y-0.1752
X-0.8681Y-0.2657
X-0.8681Y-0.2953
X-0.8681Y-0.3248
X-0.8386Y0.3327
X-0.8386Y0.3031
X-0.8386Y0.2736
X-0.8386Y0.1831
X-0.8386Y0.1535
X-0.8386Y0.124
X-0.8386Y0.0335
X-0.8386Y0.0039
X-0.8386Y-0.0256
X-0.8386Y-0.1161
X-0.8386Y-0.1457
X-0.8386Y-0.1752
X-0.8386Y-0.2657
X-0.8386Y-0.2953
X-0.8386Y-0.3248
X-0.8091Y0.3327
X-0.8091Y0.3031
X-0.8091Y0.2736
X-0.8091Y0.1831
X-0.8091Y0.1535
X-0.8091Y0.124
X-0.8091Y0.0335
X-0.8091Y0.0039
X-0.8091Y-0.0256
X-0.8091Y-0.1161
X-0.8091Y-0.1457
X-0.8091Y-0.1752
X-0.8091Y-0.2657
X-0.8091Y-0.2953
X-0.8091Y-0.3248
X-0.7795Y0.3327
X-0.7795Y0.3031
X-0.7795Y0.2736
X-0.7795Y0.1831
X-0.7795Y0.1535
X-0.7795Y0.124
X-0.7795Y0.0335
X-0.7795Y0.0039
X-0.7795Y-0.0256
X-0.7795Y-0.1161
X-0.7795Y-0.1457
X-0.7795Y-0.1752
X-0.7795Y-0.2657
X-0.7795Y-0.2953
X-0.7795Y-0.3248
X0.7795Y0.3327
X0.7795Y0.3031
X0.7795Y0.2736
X0.7795Y0.1831
X0.7795Y0.1535
X0.7795Y0.124
X0.7795Y0.0335
X0.7795Y0.0039
X0.7795Y-0.0256
X0.8091Y0.3327
X0.8091Y0.3031
X0.8091Y0.2736
X0.8091Y0.1831
X0.8091Y0.1535
X0.8091Y0.124
X0.8091Y0.0335
X0.8091Y0.0039
X0.8091Y-0.0256
X0.8386Y0.3327
X0.8386Y0.3031
X0.8386Y0.2736
X0.8386Y0.1831
X0.8386Y0.1535
X0.8386Y0.124
X0.8386Y0.0335
X0.8386Y0.0039
X0.8386Y-0.0256
X0.8681Y0.3327
X0.8681Y0.3031
X0.8681Y0.2736
X0.8681Y0.1831
X0.8681Y0.1535
X0.8681Y0.124
X0.8681Y0.0335
X0.8681Y0.0039
X0.8681Y-0.0256
X0.8976Y0.3327
X0.8976Y0.3031
X0.8976Y0.2736
X0.8976Y0.1831
X0.8976Y0.1535
X0.8976Y0.124
X0.8976Y0.0335
X0.8976Y0.0039
X0.8976Y-0.0256
T4
X-0.685Y0.378
X-0.685Y-0.0709
X-0.685Y-0.2205
T3
G00X0.4992Y-0.1785
M15
G01X0.4992Y-0.1352
M16
G05
G00X0.4992Y-0.3368
M15
G01X0.4992Y-0.3053
M16
G05
G00X0.8394Y-0.1785
M15
G01X0.8394Y-0.1352
M16
G05
G00X0.8394Y-0.3368
M15
G01X0.8394Y-0.3053
M16
G05
T0
M30
