%TF.GenerationSoftware,KiCad,Pcbnew,(7.0.0)*%
%TF.CreationDate,2023-08-06T02:22:59-04:00*%
%TF.ProjectId,Rotini-Hardware,526f7469-6e69-42d4-9861-726477617265,rev?*%
%TF.SameCoordinates,Original*%
%TF.FileFunction,Copper,L2,Inr*%
%TF.FilePolarity,Positive*%
%FSLAX46Y46*%
G04 Gerber Fmt 4.6, Leading zero omitted, Abs format (unit mm)*
G04 Created by KiCad (PCBNEW (7.0.0)) date 2023-08-06 02:22:59*
%MOMM*%
%LPD*%
G01*
G04 APERTURE LIST*
G04 Aperture macros list*
%AMRoundRect*
0 Rectangle with rounded corners*
0 $1 Rounding radius*
0 $2 $3 $4 $5 $6 $7 $8 $9 X,Y pos of 4 corners*
0 Add a 4 corners polygon primitive as box body*
4,1,4,$2,$3,$4,$5,$6,$7,$8,$9,$2,$3,0*
0 Add four circle primitives for the rounded corners*
1,1,$1+$1,$2,$3*
1,1,$1+$1,$4,$5*
1,1,$1+$1,$6,$7*
1,1,$1+$1,$8,$9*
0 Add four rect primitives between the rounded corners*
20,1,$1+$1,$2,$3,$4,$5,0*
20,1,$1+$1,$4,$5,$6,$7,0*
20,1,$1+$1,$6,$7,$8,$9,0*
20,1,$1+$1,$8,$9,$2,$3,0*%
G04 Aperture macros list end*
%TA.AperFunction,ComponentPad*%
%ADD10RoundRect,0.250000X-0.250000X0.250000X-0.250000X-0.250000X0.250000X-0.250000X0.250000X0.250000X0*%
%TD*%
%TA.AperFunction,ComponentPad*%
%ADD11R,1.000000X1.000000*%
%TD*%
%TA.AperFunction,ComponentPad*%
%ADD12RoundRect,0.350000X0.350000X-0.350000X0.350000X0.350000X-0.350000X0.350000X-0.350000X-0.350000X0*%
%TD*%
%TA.AperFunction,ComponentPad*%
%ADD13RoundRect,0.250000X0.250000X-0.250000X0.250000X0.250000X-0.250000X0.250000X-0.250000X-0.250000X0*%
%TD*%
%TA.AperFunction,ComponentPad*%
%ADD14O,0.900000X2.000000*%
%TD*%
%TA.AperFunction,ComponentPad*%
%ADD15O,0.900000X1.700000*%
%TD*%
%TA.AperFunction,ViaPad*%
%ADD16C,0.450000*%
%TD*%
%TA.AperFunction,Conductor*%
%ADD17C,0.203200*%
%TD*%
G04 APERTURE END LIST*
D10*
%TO.N,GND*%
%TO.C,J2*%
X-22800000Y4650000D03*
D11*
X-22799999Y3899999D03*
D10*
X-22800000Y3150000D03*
D11*
X-22049999Y4649999D03*
X-22049999Y3899999D03*
X-22049999Y3149999D03*
X-21299999Y4649999D03*
X-21299999Y3899999D03*
X-21299999Y3149999D03*
X-20549999Y4649999D03*
X-20549999Y3899999D03*
X-20549999Y3149999D03*
D10*
X-19800000Y4650000D03*
D11*
X-19799999Y3899999D03*
D10*
X-19800000Y3150000D03*
%TD*%
D12*
%TO.N,SparePin1*%
%TO.C,J3*%
X-17400000Y-5600000D03*
%TD*%
%TO.N,SparePin2*%
%TO.C,J7*%
X-17400000Y-1800000D03*
%TD*%
D13*
%TO.N,PPM_B*%
%TO.C,J208*%
X22800000Y3150000D03*
D11*
X22799999Y3899999D03*
D13*
X22800000Y4650000D03*
D11*
X22049999Y3149999D03*
X22049999Y3899999D03*
X22049999Y4649999D03*
X21299999Y3149999D03*
X21299999Y3899999D03*
X21299999Y4649999D03*
X20549999Y3149999D03*
X20549999Y3899999D03*
X20549999Y4649999D03*
D13*
X19800000Y3150000D03*
D11*
X19799999Y3899999D03*
D13*
X19800000Y4650000D03*
%TD*%
D10*
%TO.N,PPM_F*%
%TO.C,J207*%
X19800000Y850000D03*
D11*
X19799999Y99999D03*
D10*
X19800000Y-650000D03*
D11*
X20549999Y849999D03*
X20549999Y99999D03*
X20549999Y-649999D03*
X21299999Y849999D03*
X21299999Y99999D03*
X21299999Y-649999D03*
X22049999Y849999D03*
X22049999Y99999D03*
X22049999Y-649999D03*
D10*
X22800000Y850000D03*
D11*
X22799999Y99999D03*
D10*
X22800000Y-650000D03*
%TD*%
D14*
%TO.N,unconnected-(U52-SHIELD-PadS1)*%
%TO.C,U52*%
X12679999Y-3984999D03*
D15*
X12679999Y-8154999D03*
D14*
X21319999Y-3984999D03*
D15*
X21319999Y-8154999D03*
%TD*%
D10*
%TO.N,/LED1/LED_out*%
%TO.C,J4*%
X-22800000Y8450000D03*
D11*
X-22799999Y7699999D03*
D10*
X-22800000Y6950000D03*
D11*
X-22049999Y8449999D03*
X-22049999Y7699999D03*
X-22049999Y6949999D03*
X-21299999Y8449999D03*
X-21299999Y7699999D03*
X-21299999Y6949999D03*
X-20549999Y8449999D03*
X-20549999Y7699999D03*
X-20549999Y6949999D03*
D10*
X-19800000Y8450000D03*
D11*
X-19799999Y7699999D03*
D10*
X-19800000Y6950000D03*
%TD*%
%TO.N,GND*%
%TO.C,J6*%
X19800000Y8450000D03*
D11*
X19799999Y7699999D03*
D10*
X19800000Y6950000D03*
D11*
X20549999Y8449999D03*
X20549999Y7699999D03*
X20549999Y6949999D03*
X21299999Y8449999D03*
X21299999Y7699999D03*
X21299999Y6949999D03*
X22049999Y8449999D03*
X22049999Y7699999D03*
X22049999Y6949999D03*
D10*
X22800000Y8450000D03*
D11*
X22799999Y7699999D03*
D10*
X22800000Y6950000D03*
%TD*%
%TO.N,GND*%
%TO.C,J206*%
X-22800000Y-6750000D03*
D11*
X-22799999Y-7499999D03*
D10*
X-22800000Y-8250000D03*
D11*
X-22049999Y-6749999D03*
X-22049999Y-7499999D03*
X-22049999Y-8249999D03*
X-21299999Y-6749999D03*
X-21299999Y-7499999D03*
X-21299999Y-8249999D03*
X-20549999Y-6749999D03*
X-20549999Y-7499999D03*
X-20549999Y-8249999D03*
D10*
X-19800000Y-6750000D03*
D11*
X-19799999Y-7499999D03*
D10*
X-19800000Y-8250000D03*
%TD*%
%TO.N,Net-(J205-Pin_1)*%
%TO.C,J205*%
X-22800000Y-2950000D03*
D11*
X-22799999Y-3699999D03*
D10*
X-22800000Y-4450000D03*
D11*
X-22049999Y-2949999D03*
X-22049999Y-3699999D03*
X-22049999Y-4449999D03*
X-21299999Y-2949999D03*
X-21299999Y-3699999D03*
X-21299999Y-4449999D03*
X-20549999Y-2949999D03*
X-20549999Y-3699999D03*
X-20549999Y-4449999D03*
D10*
X-19800000Y-2950000D03*
D11*
X-19799999Y-3699999D03*
D10*
X-19800000Y-4450000D03*
%TD*%
%TO.N,+3V3*%
%TO.C,J5*%
X-22800000Y850000D03*
D11*
X-22799999Y99999D03*
D10*
X-22800000Y-650000D03*
D11*
X-22049999Y849999D03*
X-22049999Y99999D03*
X-22049999Y-649999D03*
X-21299999Y849999D03*
X-21299999Y99999D03*
X-21299999Y-649999D03*
X-20549999Y849999D03*
X-20549999Y99999D03*
X-20549999Y-649999D03*
D10*
X-19800000Y850000D03*
D11*
X-19799999Y99999D03*
D10*
X-19800000Y-650000D03*
%TD*%
D12*
%TO.N,SparePin3*%
%TO.C,J8*%
X-17400000Y9600000D03*
%TD*%
D16*
%TO.N,GND*%
X-13800000Y-1100000D03*
%TO.N,+3V3*%
X-9982947Y-2427287D03*
X-11706165Y-2434731D03*
X-10850139Y-2423565D03*
%TO.N,GND*%
X-9000000Y9100000D03*
X-3800000Y-3300000D03*
X-3205000Y4425000D03*
X-2500000Y-8100000D03*
X-14455000Y-75000D03*
X-8605000Y1625000D03*
X16940873Y-1000000D03*
X-10505000Y1625000D03*
X-405000Y1625000D03*
X3850000Y3500000D03*
X2750000Y2100000D03*
X-11900000Y5400000D03*
X10950000Y6650000D03*
X-3205000Y1625000D03*
X11900000Y-2300000D03*
X-10500000Y5400000D03*
X-8100000Y10450000D03*
X2842844Y7798463D03*
X-13355000Y1325000D03*
X-13800000Y-4000000D03*
X13800000Y-2500000D03*
X1550000Y-5450000D03*
X17500000Y9200000D03*
X4175000Y1050000D03*
X-5350000Y10450000D03*
X20200000Y-2500000D03*
X-5300000Y9050000D03*
X-11900000Y8300000D03*
X-700000Y7200000D03*
X-10200000Y9900000D03*
X-5300000Y5500000D03*
X-1700000Y3000000D03*
X-8605000Y3525000D03*
X11700000Y-100000D03*
X4500000Y4970700D03*
X16150000Y2825000D03*
X-13300000Y5400000D03*
X-9492500Y2537500D03*
X-5300000Y8200000D03*
X-13300000Y8900000D03*
X-13900000Y4000000D03*
X-7971583Y-1901100D03*
X-17300000Y5800000D03*
X-5905000Y2025000D03*
X-14200000Y10400000D03*
X9947514Y-200000D03*
X-13100000Y-8300000D03*
X4300000Y7900000D03*
X-14000000Y7100000D03*
X-10505000Y3525000D03*
%TO.N,+3V3*%
X4500000Y-5200000D03*
X9150000Y2150000D03*
X-18100000Y1400000D03*
X-14567281Y2215912D03*
X400000Y6400000D03*
X-3800000Y-400000D03*
X8400000Y8200000D03*
X6556253Y7542640D03*
X-2800000Y-3700000D03*
X2500000Y-8100000D03*
X5949088Y-4343290D03*
X15350000Y10300000D03*
X15950000Y4950000D03*
X-8900000Y-450000D03*
X6600000Y4600000D03*
X1600000Y3500000D03*
X-1400000Y6400000D03*
X-6755000Y875000D03*
X-4955000Y3825000D03*
X12400000Y-100000D03*
X9200000Y-1300000D03*
%TO.N,VCC*%
X-15222944Y3624500D03*
X-15500000Y1900000D03*
X-9900000Y-4700000D03*
X14500000Y400000D03*
%TO.N,Net-(U70-DCC_FB)*%
X-12605000Y3575000D03*
X-8205000Y-75000D03*
%TO.N,Net-(D20-A)*%
X14600000Y-2500000D03*
X19400000Y-2500000D03*
%TO.N,X_TX*%
X12750000Y2150000D03*
X400000Y-8100000D03*
X1400000Y-150000D03*
%TO.N,X_RX*%
X-500000Y-8099500D03*
X700000Y-150000D03*
X13050000Y4050000D03*
%TO.N,P_MOSI*%
X-644372Y-3144372D03*
X13450000Y5600000D03*
X2968140Y-2524973D03*
%TO.N,P_MISO*%
X47258Y-1647258D03*
X9425015Y4148001D03*
%TO.N,P_SCK*%
X5636905Y-1636905D03*
X-649503Y-2300000D03*
X13459387Y7170063D03*
%TO.N,Net-(D60-A)*%
X-4400000Y5800000D03*
X-300000Y7746100D03*
%TO.N,/ExpressLRS-RX/trace_antenna*%
X-550000Y6400000D03*
%TO.N,SNS_VER*%
X11950000Y2150000D03*
X16947800Y3700000D03*
%TO.N,SparePin3*%
X8400000Y9100000D03*
X-14200000Y8900000D03*
%TO.N,GPIO2*%
X-12600000Y2830000D03*
X-4905000Y2225000D03*
%TO.N,GPIO15*%
X-5305000Y2725000D03*
X-7705000Y5425000D03*
%TO.N,E_D+*%
X18027991Y127991D03*
X13500000Y8300000D03*
%TO.N,E_D-*%
X17473900Y700000D03*
X15500000Y7900000D03*
%TO.N,GPIO12*%
X-6705000Y2725000D03*
X-5405000Y4325000D03*
%TO.N,GPIO4*%
X-10205000Y-75000D03*
X-4905000Y1025000D03*
%TO.N,GPIO5*%
X-10905000Y-175000D03*
X-5000Y-175000D03*
%TO.N,PPM_F*%
X10300000Y9100000D03*
%TO.N,PPM_B*%
X9550000Y9100000D03*
%TO.N,A1_CS*%
X0Y-4300000D03*
X15350000Y4450000D03*
%TO.N,E_EN*%
X4800000Y-8400000D03*
%TO.N,E_BOOT*%
X1500000Y-8100000D03*
X5400000Y-7000000D03*
%TO.N,Mag_CS*%
X10602405Y4231247D03*
X-700000Y-1650497D03*
%TO.N,Mag_INT*%
X-700000Y-4000000D03*
X15350000Y5250000D03*
%TO.N,X_BOOT*%
X-4900000Y200000D03*
X-1350000Y-8099500D03*
%TO.N,A_INT*%
X3406571Y-3004171D03*
X13450000Y4850000D03*
%TO.N,LED_HV*%
X-14250000Y8150000D03*
X8400000Y6600000D03*
%TO.N,SparePin2*%
X14400000Y2150000D03*
%TO.N,SparePin1*%
X13550000Y2150000D03*
%TD*%
D17*
%TO.N,P_MOSI*%
X3093113Y-2400000D02*
X5618533Y-2400000D01*
X6346800Y-1671733D02*
X6346800Y717010D01*
X-400000Y-2900000D02*
X-644372Y-3144372D01*
X2593113Y-2900000D02*
X-400000Y-2900000D01*
X2968140Y-2524973D02*
X3093113Y-2400000D01*
X8732989Y3103200D02*
X10953200Y3103200D01*
X5618533Y-2400000D02*
X6346800Y-1671733D01*
X10953200Y3103200D02*
X13450000Y5600000D01*
X6346800Y717010D02*
X8732989Y3103200D01*
X2968140Y-2524973D02*
X2593113Y-2900000D01*
%TO.N,P_MISO*%
X4996800Y-1503200D02*
X5540400Y-959600D01*
X8637368Y4148001D02*
X9425015Y4148001D01*
X191316Y-1503200D02*
X4996800Y-1503200D01*
X5540400Y-959600D02*
X5540400Y1051032D01*
X47258Y-1647258D02*
X191316Y-1503200D01*
X5540400Y1051032D02*
X8637368Y4148001D01*
%TO.N,P_SCK*%
X5193602Y-1906400D02*
X2793600Y-1906400D01*
X10622283Y3506400D02*
X11129005Y4013122D01*
X8565978Y3506400D02*
X10622283Y3506400D01*
X11129005Y4013122D02*
X11129005Y4029005D01*
X2793600Y-1906400D02*
X2400000Y-2300000D01*
X5636905Y-1636905D02*
X5463097Y-1636905D01*
X11129005Y4029005D02*
X13459387Y6359387D01*
X5943600Y884021D02*
X8565978Y3506400D01*
X13459387Y6359387D02*
X13459387Y7170063D01*
X5943601Y-1156400D02*
X5943600Y884021D01*
X5463097Y-1636905D02*
X5193602Y-1906400D01*
X5636905Y-1636905D02*
X5636905Y-1463096D01*
X5636905Y-1463096D02*
X5943601Y-1156400D01*
X2400000Y-2300000D02*
X-649503Y-2300000D01*
%TO.N,A1_CS*%
X15350000Y1785065D02*
X14761735Y1196800D01*
X3915107Y-3810571D02*
X3791707Y-3933971D01*
X7653200Y-2075963D02*
X5918592Y-3810571D01*
X15350000Y4450000D02*
X15350000Y1785065D01*
X3791707Y-3933971D02*
X366029Y-3933971D01*
X14761735Y1196800D02*
X8537220Y1196800D01*
X366029Y-3933971D02*
X0Y-4300000D01*
X5918592Y-3810571D02*
X3915107Y-3810571D01*
X8537220Y1196800D02*
X7653200Y312780D01*
X7653200Y312780D02*
X7653200Y-2075963D01*
%TO.N,Mag_CS*%
X-149503Y-1100000D02*
X4800000Y-1100000D01*
X-700000Y-1650497D02*
X-149503Y-1100000D01*
X5137200Y1237200D02*
X8600000Y4700000D01*
X10133652Y4700000D02*
X10602405Y4231247D01*
X8600000Y4700000D02*
X10133652Y4700000D01*
X4800000Y-1100000D02*
X5137200Y-762800D01*
X5137200Y-762800D02*
X5137200Y1237200D01*
%TO.N,Mag_INT*%
X14800000Y4700000D02*
X14800000Y3400000D01*
X3748096Y-3407371D02*
X3624696Y-3530771D01*
X-230771Y-3530771D02*
X-700000Y-4000000D01*
X14926600Y3273400D02*
X14926600Y1931875D01*
X14594725Y1600000D02*
X8370210Y1600000D01*
X14800000Y3400000D02*
X14926600Y3273400D01*
X7250000Y479790D02*
X7250000Y-1908953D01*
X15350000Y5250000D02*
X14800000Y4700000D01*
X8370210Y1600000D02*
X7250000Y479790D01*
X14926600Y1931875D02*
X14594725Y1600000D01*
X5751582Y-3407371D02*
X3748096Y-3407371D01*
X7250000Y-1908953D02*
X5751582Y-3407371D01*
X3624696Y-3530771D02*
X-230771Y-3530771D01*
%TO.N,A_INT*%
X13600000Y4700000D02*
X13450000Y4850000D01*
X8900000Y2700000D02*
X12500000Y2700000D01*
X5584572Y-3004171D02*
X6800000Y-1788743D01*
X12500000Y2700000D02*
X13600000Y3800000D01*
X6800000Y600000D02*
X8900000Y2700000D01*
X3406571Y-3004171D02*
X5584572Y-3004171D01*
X13600000Y3800000D02*
X13600000Y4700000D01*
X6800000Y-1788743D02*
X6800000Y600000D01*
%TD*%
%TA.AperFunction,Conductor*%
%TO.N,GND*%
G36*
X-5014352Y10760148D02*
G01*
X-5000000Y10725500D01*
X-5000000Y7900000D01*
X-4990253Y7900000D01*
X-763801Y7900000D01*
X-737114Y7892095D01*
X-719037Y7870930D01*
X-715404Y7843335D01*
X-727146Y7769196D01*
X-730804Y7746100D01*
X-709719Y7612974D01*
X-707969Y7609540D01*
X-707969Y7609539D01*
X-701654Y7597145D01*
X-648528Y7492880D01*
X-553220Y7397572D01*
X-549785Y7395822D01*
X-436560Y7338130D01*
X-436556Y7338128D01*
X-433126Y7336381D01*
X-300000Y7315296D01*
X-296193Y7315899D01*
X-170680Y7335778D01*
X-170678Y7335778D01*
X-166874Y7336381D01*
X-163445Y7338127D01*
X-163439Y7338130D01*
X-50214Y7395822D01*
X-50212Y7395822D01*
X-46780Y7397572D01*
X-44056Y7400295D01*
X-44053Y7400298D01*
X45801Y7490153D01*
X48528Y7492880D01*
X101654Y7597145D01*
X107969Y7609539D01*
X107969Y7609540D01*
X109719Y7612974D01*
X130804Y7746100D01*
X127146Y7769196D01*
X115404Y7843335D01*
X119037Y7870930D01*
X137114Y7892095D01*
X163801Y7900000D01*
X6193569Y7900000D01*
X6228217Y7885648D01*
X6242569Y7851000D01*
X6228217Y7816352D01*
X6207725Y7795860D01*
X6204575Y7789678D01*
X6148283Y7679200D01*
X6148281Y7679196D01*
X6146534Y7675766D01*
X6125449Y7542640D01*
X6146534Y7409514D01*
X6148280Y7406085D01*
X6148283Y7406079D01*
X6205975Y7292854D01*
X6207725Y7289420D01*
X6210448Y7286696D01*
X6210451Y7286693D01*
X6300306Y7196838D01*
X6300309Y7196835D01*
X6303033Y7194112D01*
X6306465Y7192362D01*
X6306467Y7192362D01*
X6419692Y7134670D01*
X6419698Y7134667D01*
X6423127Y7132921D01*
X6426931Y7132318D01*
X6426933Y7132318D01*
X6552446Y7112439D01*
X6556253Y7111836D01*
X6560060Y7112439D01*
X6685572Y7132318D01*
X6689379Y7132921D01*
X6692809Y7134668D01*
X6692813Y7134670D01*
X6806038Y7192362D01*
X6809473Y7194112D01*
X6904781Y7289420D01*
X6965972Y7409514D01*
X6987057Y7542640D01*
X6965972Y7675766D01*
X6904781Y7795860D01*
X6884289Y7816352D01*
X6869937Y7851000D01*
X6884289Y7885648D01*
X6918937Y7900000D01*
X7490253Y7900000D01*
X7500000Y7900000D01*
X7894400Y8294400D01*
X7921383Y8308149D01*
X7951293Y8303411D01*
X7972707Y8281998D01*
X7977445Y8252087D01*
X7969799Y8203808D01*
X7969196Y8200000D01*
X7990281Y8066874D01*
X7992027Y8063445D01*
X7992030Y8063439D01*
X8037886Y7973444D01*
X8051472Y7946780D01*
X8054195Y7944056D01*
X8054198Y7944053D01*
X8144053Y7854198D01*
X8144056Y7854195D01*
X8146780Y7851472D01*
X8150212Y7849722D01*
X8150214Y7849722D01*
X8263439Y7792030D01*
X8263445Y7792027D01*
X8266874Y7790281D01*
X8270678Y7789678D01*
X8270680Y7789678D01*
X8396193Y7769799D01*
X8400000Y7769196D01*
X8403807Y7769799D01*
X8409370Y7770680D01*
X8533126Y7790281D01*
X8536556Y7792028D01*
X8536560Y7792030D01*
X8649785Y7849722D01*
X8653220Y7851472D01*
X8748528Y7946780D01*
X8809719Y8066874D01*
X8830804Y8200000D01*
X8809719Y8333126D01*
X8748528Y8453220D01*
X8685396Y8516352D01*
X8671044Y8551000D01*
X8685396Y8585648D01*
X8720044Y8600000D01*
X12851000Y8600000D01*
X12885648Y8585648D01*
X12900000Y8551000D01*
X12900000Y6247530D01*
X12885648Y6212882D01*
X11068256Y4395490D01*
X11041273Y4381741D01*
X11011362Y4386479D01*
X10989950Y4407890D01*
X10950933Y4484467D01*
X10855625Y4579775D01*
X10735531Y4640966D01*
X10613884Y4660232D01*
X10586905Y4673979D01*
X10387009Y4873875D01*
X10382558Y4878991D01*
X10380934Y4881140D01*
X10378909Y4885210D01*
X10343153Y4917804D01*
X10341559Y4919325D01*
X10327475Y4933411D01*
X10324486Y4935457D01*
X10319172Y4939665D01*
X10295442Y4961300D01*
X10280758Y4966987D01*
X10270776Y4972248D01*
X10257790Y4981146D01*
X10226529Y4988498D01*
X10220064Y4990500D01*
X10190124Y5002100D01*
X10185581Y5002100D01*
X10174383Y5002100D01*
X10163164Y5003402D01*
X10147846Y5007005D01*
X10122017Y5003402D01*
X10116052Y5002570D01*
X10109282Y5002100D01*
X8656210Y5002100D01*
X8649440Y5002570D01*
X8646765Y5002942D01*
X8642460Y5004386D01*
X8594138Y5002152D01*
X8591875Y5002100D01*
X8572007Y5002100D01*
X8568453Y5001435D01*
X8561712Y5000652D01*
X8529636Y4999170D01*
X8515229Y4992808D01*
X8504446Y4989470D01*
X8488979Y4986579D01*
X8461682Y4969677D01*
X8455688Y4966518D01*
X8426315Y4953549D01*
X8423105Y4950339D01*
X8415187Y4942421D01*
X8406333Y4935408D01*
X8396810Y4929512D01*
X8396807Y4929509D01*
X8392951Y4927122D01*
X8386482Y4918556D01*
X8373602Y4901500D01*
X8369147Y4896381D01*
X4963331Y1490565D01*
X4958213Y1486111D01*
X4956053Y1484480D01*
X4951990Y1482457D01*
X4948931Y1479102D01*
X4948930Y1479101D01*
X4919406Y1446714D01*
X4917843Y1445077D01*
X4903789Y1431023D01*
X4902514Y1429162D01*
X4902505Y1429151D01*
X4901740Y1428033D01*
X4897528Y1422714D01*
X4875900Y1398990D01*
X4870804Y1385834D01*
X4870213Y1384309D01*
X4864947Y1374320D01*
X4858620Y1365084D01*
X4856054Y1361338D01*
X4855014Y1356919D01*
X4855014Y1356918D01*
X4848702Y1330085D01*
X4846696Y1323607D01*
X4835100Y1293672D01*
X4835100Y1289128D01*
X4835100Y1277931D01*
X4833798Y1266712D01*
X4830195Y1251394D01*
X4830822Y1246897D01*
X4830822Y1246894D01*
X4834630Y1219600D01*
X4835100Y1212830D01*
X4835100Y-617370D01*
X4820748Y-652018D01*
X4689218Y-783548D01*
X4654570Y-797900D01*
X-93292Y-797900D01*
X-100062Y-797430D01*
X-102742Y-797055D01*
X-107044Y-795614D01*
X-111573Y-795823D01*
X-111577Y-795823D01*
X-155366Y-797848D01*
X-157629Y-797900D01*
X-177496Y-797900D01*
X-179710Y-798313D01*
X-179722Y-798315D01*
X-181056Y-798565D01*
X-187795Y-799347D01*
X-215334Y-800620D01*
X-215336Y-800620D01*
X-219867Y-800830D01*
X-224014Y-802661D01*
X-224018Y-802662D01*
X-234269Y-807189D01*
X-245056Y-810529D01*
X-256057Y-812585D01*
X-256061Y-812586D01*
X-260524Y-813421D01*
X-264384Y-815811D01*
X-264389Y-815813D01*
X-287818Y-830319D01*
X-293818Y-833482D01*
X-319034Y-844617D01*
X-319037Y-844619D01*
X-323188Y-846452D01*
X-326398Y-849662D01*
X-334312Y-857576D01*
X-343165Y-864588D01*
X-352690Y-870485D01*
X-352696Y-870490D01*
X-356552Y-872878D01*
X-369694Y-890281D01*
X-375902Y-898502D01*
X-380357Y-903621D01*
X-684498Y-1207762D01*
X-711481Y-1221511D01*
X-829319Y-1240175D01*
X-833126Y-1240778D01*
X-836556Y-1242525D01*
X-836560Y-1242527D01*
X-922926Y-1286533D01*
X-953220Y-1301969D01*
X-1048528Y-1397277D01*
X-1109719Y-1517371D01*
X-1130804Y-1650497D01*
X-1109719Y-1783623D01*
X-1048528Y-1903717D01*
X-1003345Y-1948900D01*
X-986396Y-1965849D01*
X-972044Y-2000497D01*
X-986395Y-2035144D01*
X-998031Y-2046780D01*
X-1059222Y-2166874D01*
X-1080307Y-2300000D01*
X-1059222Y-2433126D01*
X-998031Y-2553220D01*
X-902723Y-2648528D01*
X-899284Y-2650279D01*
X-899286Y-2650279D01*
X-841282Y-2679834D01*
X-817782Y-2705933D01*
X-817782Y-2741053D01*
X-841281Y-2767152D01*
X-897592Y-2795844D01*
X-992900Y-2891152D01*
X-1054091Y-3011246D01*
X-1075176Y-3144372D01*
X-1054091Y-3277498D01*
X-992900Y-3397592D01*
X-897592Y-3492900D01*
X-894153Y-3494651D01*
X-894155Y-3494651D01*
X-855485Y-3514355D01*
X-831985Y-3540454D01*
X-831985Y-3575574D01*
X-855483Y-3601672D01*
X-953220Y-3651472D01*
X-1048528Y-3746780D01*
X-1109719Y-3866874D01*
X-1130804Y-4000000D01*
X-1109719Y-4133126D01*
X-1048528Y-4253220D01*
X-953220Y-4348528D01*
X-833126Y-4409719D01*
X-700000Y-4430804D01*
X-566874Y-4409719D01*
X-484975Y-4367989D01*
X-455065Y-4363252D01*
X-428082Y-4377001D01*
X-414334Y-4403983D01*
X-409719Y-4433126D01*
X-348528Y-4553220D01*
X-253220Y-4648528D01*
X-133126Y-4709719D01*
X0Y-4730804D01*
X133126Y-4709719D01*
X253220Y-4648528D01*
X348528Y-4553220D01*
X409719Y-4433126D01*
X428985Y-4311480D01*
X442735Y-4284498D01*
X476813Y-4250422D01*
X511460Y-4236071D01*
X3735495Y-4236071D01*
X3742265Y-4236541D01*
X3744943Y-4236914D01*
X3749247Y-4238357D01*
X3797569Y-4236122D01*
X3799832Y-4236071D01*
X3817436Y-4236071D01*
X3819700Y-4236071D01*
X3823258Y-4235405D01*
X3829994Y-4234623D01*
X3862071Y-4233141D01*
X3876469Y-4226783D01*
X3887262Y-4223441D01*
X3902728Y-4220550D01*
X3930025Y-4203648D01*
X3936005Y-4200495D01*
X3965392Y-4187520D01*
X3976520Y-4176391D01*
X3985374Y-4169378D01*
X3998756Y-4161093D01*
X4018103Y-4135471D01*
X4022559Y-4130352D01*
X4025888Y-4127023D01*
X4060536Y-4112671D01*
X5509084Y-4112671D01*
X5539921Y-4123591D01*
X5557013Y-4151483D01*
X5552743Y-4183915D01*
X5539369Y-4210164D01*
X5538766Y-4213966D01*
X5538765Y-4213972D01*
X5525140Y-4300000D01*
X5518284Y-4343290D01*
X5539369Y-4476416D01*
X5541116Y-4479846D01*
X5541118Y-4479850D01*
X5554547Y-4506205D01*
X5600560Y-4596510D01*
X5695868Y-4691818D01*
X5815962Y-4753009D01*
X5949088Y-4774094D01*
X6082214Y-4753009D01*
X6202308Y-4691818D01*
X6297616Y-4596510D01*
X6308105Y-4575925D01*
X12029500Y-4575925D01*
X12029690Y-4577433D01*
X12029691Y-4577440D01*
X12043796Y-4689091D01*
X12044929Y-4698058D01*
X12046063Y-4700922D01*
X12102821Y-4844278D01*
X12105432Y-4850871D01*
X12202037Y-4983837D01*
X12328674Y-5088600D01*
X12477387Y-5158579D01*
X12638830Y-5189376D01*
X12802860Y-5179056D01*
X12959171Y-5128268D01*
X13097940Y-5040202D01*
X13210448Y-4920393D01*
X13289627Y-4776368D01*
X13330500Y-4617177D01*
X13330500Y-4502921D01*
X13555619Y-4502921D01*
X13556300Y-4506201D01*
X13556301Y-4506205D01*
X13585724Y-4647797D01*
X13585725Y-4647802D01*
X13586408Y-4651085D01*
X13587950Y-4654062D01*
X13587952Y-4654066D01*
X13647608Y-4769196D01*
X13656029Y-4785447D01*
X13658314Y-4787893D01*
X13658315Y-4787895D01*
X13662177Y-4792030D01*
X13759320Y-4896044D01*
X13888618Y-4974672D01*
X14034335Y-5015500D01*
X14145985Y-5015500D01*
X14147658Y-5015500D01*
X14259920Y-5000070D01*
X14398720Y-4939780D01*
X14516108Y-4844278D01*
X14603377Y-4720647D01*
X14654054Y-4578056D01*
X14659193Y-4502921D01*
X19335619Y-4502921D01*
X19336300Y-4506201D01*
X19336301Y-4506205D01*
X19365724Y-4647797D01*
X19365725Y-4647802D01*
X19366408Y-4651085D01*
X19367950Y-4654062D01*
X19367952Y-4654066D01*
X19427608Y-4769196D01*
X19436029Y-4785447D01*
X19438314Y-4787893D01*
X19438315Y-4787895D01*
X19442177Y-4792030D01*
X19539320Y-4896044D01*
X19668618Y-4974672D01*
X19814335Y-5015500D01*
X19925985Y-5015500D01*
X19927658Y-5015500D01*
X20039920Y-5000070D01*
X20178720Y-4939780D01*
X20296108Y-4844278D01*
X20383377Y-4720647D01*
X20434054Y-4578056D01*
X20434200Y-4575925D01*
X20669500Y-4575925D01*
X20669690Y-4577433D01*
X20669691Y-4577440D01*
X20683796Y-4689091D01*
X20684929Y-4698058D01*
X20686063Y-4700922D01*
X20742821Y-4844278D01*
X20745432Y-4850871D01*
X20842037Y-4983837D01*
X20968674Y-5088600D01*
X21117387Y-5158579D01*
X21278830Y-5189376D01*
X21442860Y-5179056D01*
X21599171Y-5128268D01*
X21737940Y-5040202D01*
X21850448Y-4920393D01*
X21929627Y-4776368D01*
X21970500Y-4617177D01*
X21970500Y-3394075D01*
X21955071Y-3271942D01*
X21894568Y-3119129D01*
X21797963Y-2986163D01*
X21760641Y-2955288D01*
X21673700Y-2883364D01*
X21671326Y-2881400D01*
X21620510Y-2857488D01*
X21525397Y-2812731D01*
X21525396Y-2812730D01*
X21522613Y-2811421D01*
X21440956Y-2795844D01*
X21364196Y-2781201D01*
X21364194Y-2781200D01*
X21361170Y-2780624D01*
X21358098Y-2780817D01*
X21358094Y-2780817D01*
X21200214Y-2790750D01*
X21200209Y-2790750D01*
X21197140Y-2790944D01*
X21194216Y-2791894D01*
X21194211Y-2791895D01*
X21043758Y-2840780D01*
X21043755Y-2840781D01*
X21040829Y-2841732D01*
X21038231Y-2843380D01*
X21038228Y-2843382D01*
X20904661Y-2928147D01*
X20904659Y-2928148D01*
X20902060Y-2929798D01*
X20899953Y-2932040D01*
X20899950Y-2932044D01*
X20791661Y-3047360D01*
X20791657Y-3047365D01*
X20789552Y-3049607D01*
X20788068Y-3052304D01*
X20788068Y-3052306D01*
X20711856Y-3190933D01*
X20711853Y-3190938D01*
X20710373Y-3193632D01*
X20709608Y-3196608D01*
X20709607Y-3196613D01*
X20670266Y-3349837D01*
X20670265Y-3349842D01*
X20669500Y-3352823D01*
X20669500Y-4575925D01*
X20434200Y-4575925D01*
X20444381Y-4427079D01*
X20413592Y-4278915D01*
X20408868Y-4269799D01*
X20385389Y-4224486D01*
X20343971Y-4144553D01*
X20329743Y-4129319D01*
X20254289Y-4048528D01*
X20240680Y-4033956D01*
X20237822Y-4032218D01*
X20237821Y-4032217D01*
X20114242Y-3957067D01*
X20114240Y-3957066D01*
X20111382Y-3955328D01*
X20108156Y-3954424D01*
X19968894Y-3915404D01*
X19968888Y-3915403D01*
X19965665Y-3914500D01*
X19852342Y-3914500D01*
X19850693Y-3914726D01*
X19850687Y-3914727D01*
X19743396Y-3929474D01*
X19743394Y-3929474D01*
X19740080Y-3929930D01*
X19737012Y-3931262D01*
X19737007Y-3931264D01*
X19604355Y-3988884D01*
X19604353Y-3988885D01*
X19601280Y-3990220D01*
X19598684Y-3992331D01*
X19598679Y-3992335D01*
X19486493Y-4083605D01*
X19486489Y-4083608D01*
X19483892Y-4085722D01*
X19481960Y-4088457D01*
X19481956Y-4088463D01*
X19398557Y-4206611D01*
X19398552Y-4206619D01*
X19396623Y-4209353D01*
X19395500Y-4212510D01*
X19395500Y-4212512D01*
X19347067Y-4348787D01*
X19347065Y-4348793D01*
X19345946Y-4351944D01*
X19345717Y-4355283D01*
X19345717Y-4355286D01*
X19335847Y-4499575D01*
X19335847Y-4499581D01*
X19335619Y-4502921D01*
X14659193Y-4502921D01*
X14664381Y-4427079D01*
X14633592Y-4278915D01*
X14628868Y-4269799D01*
X14605389Y-4224486D01*
X14563971Y-4144553D01*
X14549743Y-4129319D01*
X14474289Y-4048528D01*
X14460680Y-4033956D01*
X14457822Y-4032218D01*
X14457821Y-4032217D01*
X14334242Y-3957067D01*
X14334240Y-3957066D01*
X14331382Y-3955328D01*
X14328156Y-3954424D01*
X14188894Y-3915404D01*
X14188888Y-3915403D01*
X14185665Y-3914500D01*
X14072342Y-3914500D01*
X14070693Y-3914726D01*
X14070687Y-3914727D01*
X13963396Y-3929474D01*
X13963394Y-3929474D01*
X13960080Y-3929930D01*
X13957012Y-3931262D01*
X13957007Y-3931264D01*
X13824355Y-3988884D01*
X13824353Y-3988885D01*
X13821280Y-3990220D01*
X13818684Y-3992331D01*
X13818679Y-3992335D01*
X13706493Y-4083605D01*
X13706489Y-4083608D01*
X13703892Y-4085722D01*
X13701960Y-4088457D01*
X13701956Y-4088463D01*
X13618557Y-4206611D01*
X13618552Y-4206619D01*
X13616623Y-4209353D01*
X13615500Y-4212510D01*
X13615500Y-4212512D01*
X13567067Y-4348787D01*
X13567065Y-4348793D01*
X13565946Y-4351944D01*
X13565717Y-4355283D01*
X13565717Y-4355286D01*
X13555847Y-4499575D01*
X13555847Y-4499581D01*
X13555619Y-4502921D01*
X13330500Y-4502921D01*
X13330500Y-3394075D01*
X13315071Y-3271942D01*
X13254568Y-3119129D01*
X13157963Y-2986163D01*
X13120641Y-2955288D01*
X13033700Y-2883364D01*
X13031326Y-2881400D01*
X12980510Y-2857488D01*
X12885397Y-2812731D01*
X12885396Y-2812730D01*
X12882613Y-2811421D01*
X12800956Y-2795844D01*
X12724196Y-2781201D01*
X12724194Y-2781200D01*
X12721170Y-2780624D01*
X12718098Y-2780817D01*
X12718094Y-2780817D01*
X12560214Y-2790750D01*
X12560209Y-2790750D01*
X12557140Y-2790944D01*
X12554216Y-2791894D01*
X12554211Y-2791895D01*
X12403758Y-2840780D01*
X12403755Y-2840781D01*
X12400829Y-2841732D01*
X12398231Y-2843380D01*
X12398228Y-2843382D01*
X12264661Y-2928147D01*
X12264659Y-2928148D01*
X12262060Y-2929798D01*
X12259953Y-2932040D01*
X12259950Y-2932044D01*
X12151661Y-3047360D01*
X12151657Y-3047365D01*
X12149552Y-3049607D01*
X12148068Y-3052304D01*
X12148068Y-3052306D01*
X12071856Y-3190933D01*
X12071853Y-3190938D01*
X12070373Y-3193632D01*
X12069608Y-3196608D01*
X12069607Y-3196613D01*
X12030266Y-3349837D01*
X12030265Y-3349842D01*
X12029500Y-3352823D01*
X12029500Y-4575925D01*
X6308105Y-4575925D01*
X6358807Y-4476416D01*
X6379892Y-4343290D01*
X6358807Y-4210164D01*
X6345433Y-4183917D01*
X6331957Y-4157468D01*
X6297616Y-4090070D01*
X6216619Y-4009073D01*
X6202267Y-3974425D01*
X6216619Y-3939777D01*
X7020989Y-3135407D01*
X7656395Y-2500000D01*
X14169196Y-2500000D01*
X14190281Y-2633126D01*
X14192028Y-2636556D01*
X14192030Y-2636560D01*
X14224610Y-2700500D01*
X14251472Y-2753220D01*
X14346780Y-2848528D01*
X14466874Y-2909719D01*
X14600000Y-2930804D01*
X14733126Y-2909719D01*
X14853220Y-2848528D01*
X14948528Y-2753220D01*
X15009719Y-2633126D01*
X15030804Y-2500000D01*
X18969196Y-2500000D01*
X18990281Y-2633126D01*
X18992028Y-2636556D01*
X18992030Y-2636560D01*
X19024610Y-2700500D01*
X19051472Y-2753220D01*
X19146780Y-2848528D01*
X19266874Y-2909719D01*
X19400000Y-2930804D01*
X19533126Y-2909719D01*
X19653220Y-2848528D01*
X19748528Y-2753220D01*
X19809719Y-2633126D01*
X19830804Y-2500000D01*
X19809719Y-2366874D01*
X19748528Y-2246780D01*
X19653220Y-2151472D01*
X19606942Y-2127892D01*
X19536560Y-2092030D01*
X19536556Y-2092028D01*
X19533126Y-2090281D01*
X19507378Y-2086203D01*
X19454090Y-2077763D01*
X19400000Y-2069196D01*
X19396193Y-2069799D01*
X19270680Y-2089678D01*
X19270678Y-2089678D01*
X19266874Y-2090281D01*
X19263445Y-2092027D01*
X19263439Y-2092030D01*
X19150214Y-2149722D01*
X19150212Y-2149722D01*
X19146780Y-2151472D01*
X19144056Y-2154195D01*
X19144053Y-2154198D01*
X19054198Y-2244053D01*
X19054195Y-2244056D01*
X19051472Y-2246780D01*
X19049722Y-2250212D01*
X19049722Y-2250214D01*
X18992030Y-2363439D01*
X18992027Y-2363445D01*
X18990281Y-2366874D01*
X18989678Y-2370678D01*
X18989678Y-2370680D01*
X18979244Y-2436560D01*
X18969196Y-2500000D01*
X15030804Y-2500000D01*
X15009719Y-2366874D01*
X14948528Y-2246780D01*
X14853220Y-2151472D01*
X14806942Y-2127892D01*
X14736560Y-2092030D01*
X14736556Y-2092028D01*
X14733126Y-2090281D01*
X14707378Y-2086203D01*
X14654090Y-2077763D01*
X14600000Y-2069196D01*
X14596193Y-2069799D01*
X14470680Y-2089678D01*
X14470678Y-2089678D01*
X14466874Y-2090281D01*
X14463445Y-2092027D01*
X14463439Y-2092030D01*
X14350214Y-2149722D01*
X14350212Y-2149722D01*
X14346780Y-2151472D01*
X14344056Y-2154195D01*
X14344053Y-2154198D01*
X14254198Y-2244053D01*
X14254195Y-2244056D01*
X14251472Y-2246780D01*
X14249722Y-2250212D01*
X14249722Y-2250214D01*
X14192030Y-2363439D01*
X14192027Y-2363445D01*
X14190281Y-2366874D01*
X14189678Y-2370678D01*
X14189678Y-2370680D01*
X14179244Y-2436560D01*
X14169196Y-2500000D01*
X7656395Y-2500000D01*
X7827075Y-2329320D01*
X7832191Y-2324869D01*
X7834340Y-2323245D01*
X7838410Y-2321220D01*
X7871004Y-2285464D01*
X7872525Y-2283870D01*
X7886611Y-2269786D01*
X7888657Y-2266797D01*
X7892865Y-2261483D01*
X7914500Y-2237753D01*
X7920187Y-2223069D01*
X7925448Y-2213087D01*
X7934346Y-2200101D01*
X7941698Y-2168840D01*
X7943700Y-2162375D01*
X7955300Y-2132435D01*
X7955300Y-2116694D01*
X7956602Y-2105475D01*
X7960205Y-2090157D01*
X7955770Y-2058363D01*
X7955300Y-2051593D01*
X7955300Y-1300000D01*
X8769196Y-1300000D01*
X8790281Y-1433126D01*
X8792028Y-1436556D01*
X8792030Y-1436560D01*
X8831456Y-1513936D01*
X8851472Y-1553220D01*
X8946780Y-1648528D01*
X9066874Y-1709719D01*
X9200000Y-1730804D01*
X9333126Y-1709719D01*
X9453220Y-1648528D01*
X9548528Y-1553220D01*
X9609719Y-1433126D01*
X9630804Y-1300000D01*
X9609719Y-1166874D01*
X9548528Y-1046780D01*
X9453220Y-951472D01*
X9422926Y-936036D01*
X9336560Y-892030D01*
X9336556Y-892028D01*
X9333126Y-890281D01*
X9200000Y-869196D01*
X9196193Y-869799D01*
X9070680Y-889678D01*
X9070678Y-889678D01*
X9066874Y-890281D01*
X9063445Y-892027D01*
X9063439Y-892030D01*
X8950214Y-949722D01*
X8950212Y-949722D01*
X8946780Y-951472D01*
X8944056Y-954195D01*
X8944053Y-954198D01*
X8854198Y-1044053D01*
X8854195Y-1044056D01*
X8851472Y-1046780D01*
X8849722Y-1050212D01*
X8849722Y-1050214D01*
X8792030Y-1163439D01*
X8792027Y-1163445D01*
X8790281Y-1166874D01*
X8789678Y-1170678D01*
X8789678Y-1170680D01*
X8781915Y-1219693D01*
X8769196Y-1300000D01*
X7955300Y-1300000D01*
X7955300Y-100000D01*
X11969196Y-100000D01*
X11990281Y-233126D01*
X11992028Y-236556D01*
X11992030Y-236560D01*
X12032953Y-316874D01*
X12051472Y-353220D01*
X12146780Y-448528D01*
X12266874Y-509719D01*
X12400000Y-530804D01*
X12533126Y-509719D01*
X12653220Y-448528D01*
X12748528Y-353220D01*
X12809719Y-233126D01*
X12830804Y-100000D01*
X12809719Y33126D01*
X12748528Y153220D01*
X12653220Y248528D01*
X12533126Y309719D01*
X12400000Y330804D01*
X12266874Y309719D01*
X12146780Y248528D01*
X12051472Y153220D01*
X12049722Y149785D01*
X11992030Y36560D01*
X11992028Y36556D01*
X11990281Y33126D01*
X11969196Y-100000D01*
X7955300Y-100000D01*
X7955300Y167350D01*
X7969652Y201998D01*
X8648002Y880348D01*
X8682650Y894700D01*
X14329559Y894700D01*
X14359895Y884181D01*
X14377205Y857139D01*
X14374058Y825186D01*
X14351805Y802041D01*
X14246780Y748528D01*
X14151472Y653220D01*
X14139022Y628786D01*
X14092030Y536560D01*
X14092028Y536556D01*
X14090281Y533126D01*
X14089678Y529319D01*
X14081592Y478268D01*
X14069196Y400000D01*
X14069799Y396193D01*
X14087836Y282308D01*
X14090281Y266874D01*
X14092027Y263445D01*
X14092030Y263439D01*
X14149722Y150214D01*
X14151472Y146780D01*
X14154195Y144056D01*
X14154198Y144053D01*
X14244053Y54198D01*
X14244056Y54195D01*
X14246780Y51472D01*
X14250212Y49722D01*
X14250214Y49722D01*
X14357877Y-5135D01*
X14366874Y-9719D01*
X14500000Y-30804D01*
X14633126Y-9719D01*
X14753220Y51472D01*
X14848528Y146780D01*
X14900371Y248528D01*
X14907969Y263439D01*
X14907969Y263440D01*
X14909719Y266874D01*
X14930804Y400000D01*
X14909719Y533126D01*
X14848528Y653220D01*
X14801748Y700000D01*
X17043096Y700000D01*
X17043699Y696194D01*
X17043699Y696193D01*
X17059937Y593666D01*
X17064181Y566874D01*
X17065927Y563445D01*
X17065930Y563439D01*
X17123622Y450214D01*
X17125372Y446780D01*
X17128095Y444056D01*
X17128098Y444053D01*
X17217953Y354198D01*
X17217956Y354195D01*
X17220680Y351472D01*
X17224112Y349722D01*
X17224114Y349722D01*
X17337339Y292030D01*
X17337345Y292027D01*
X17340774Y290281D01*
X17344578Y289678D01*
X17344580Y289678D01*
X17421028Y277570D01*
X17463766Y270801D01*
X17470093Y269799D01*
X17473900Y269196D01*
X17477707Y269799D01*
X17484034Y270801D01*
X17526772Y277570D01*
X17556687Y282308D01*
X17586598Y277570D01*
X17608011Y256157D01*
X17612748Y226246D01*
X17597187Y127991D01*
X17618272Y-5135D01*
X17620019Y-8565D01*
X17620021Y-8569D01*
X17655810Y-78807D01*
X17679463Y-125229D01*
X17774771Y-220537D01*
X17894865Y-281728D01*
X18027991Y-302813D01*
X18161117Y-281728D01*
X18281211Y-220537D01*
X18376519Y-125229D01*
X18437710Y-5135D01*
X18458795Y127991D01*
X18437710Y261117D01*
X18376519Y381211D01*
X18281211Y476519D01*
X18161117Y537710D01*
X18027991Y558795D01*
X17945201Y545682D01*
X17915293Y550420D01*
X17893879Y571834D01*
X17889141Y601741D01*
X17904704Y700000D01*
X17883619Y833126D01*
X17822428Y953220D01*
X17727120Y1048528D01*
X17607026Y1109719D01*
X17473900Y1130804D01*
X17340774Y1109719D01*
X17220680Y1048528D01*
X17125372Y953220D01*
X17123622Y949785D01*
X17065930Y836560D01*
X17065928Y836556D01*
X17064181Y833126D01*
X17043096Y700000D01*
X14801748Y700000D01*
X14753220Y748528D01*
X14648195Y802041D01*
X14625942Y825186D01*
X14622795Y857139D01*
X14640105Y884181D01*
X14670441Y894700D01*
X14705523Y894700D01*
X14712293Y894230D01*
X14714973Y893855D01*
X14719275Y892414D01*
X14723804Y892623D01*
X14723808Y892623D01*
X14767597Y894648D01*
X14769860Y894700D01*
X14787465Y894700D01*
X14789728Y894700D01*
X14791942Y895113D01*
X14791954Y895115D01*
X14793288Y895365D01*
X14800027Y896147D01*
X14827564Y897420D01*
X14827565Y897420D01*
X14832099Y897630D01*
X14846504Y903989D01*
X14857284Y907328D01*
X14868291Y909386D01*
X14872756Y910221D01*
X14900051Y927120D01*
X14906048Y930281D01*
X14931264Y941416D01*
X14935420Y943251D01*
X14946546Y954377D01*
X14955398Y961389D01*
X14964924Y967287D01*
X14964927Y967289D01*
X14968784Y969678D01*
X14988131Y995298D01*
X14992586Y1000417D01*
X15523867Y1531698D01*
X15528986Y1536153D01*
X15531146Y1537784D01*
X15535210Y1539808D01*
X15541458Y1546661D01*
X15567803Y1575561D01*
X15569367Y1577198D01*
X15581806Y1589637D01*
X15583411Y1591242D01*
X15585457Y1594229D01*
X15589661Y1599539D01*
X15611300Y1623275D01*
X15616985Y1637951D01*
X15622253Y1647947D01*
X15628580Y1657182D01*
X15628580Y1657183D01*
X15631145Y1660927D01*
X15638497Y1692186D01*
X15640494Y1698636D01*
X15652100Y1728593D01*
X15652100Y1744334D01*
X15653402Y1755553D01*
X15655964Y1766447D01*
X15657005Y1770871D01*
X15652570Y1802665D01*
X15652100Y1809435D01*
X15652100Y2351704D01*
X15662673Y2382108D01*
X15689830Y2399390D01*
X15693407Y2400235D01*
X15700000Y2400000D01*
X15700000Y3700000D01*
X16516996Y3700000D01*
X16517599Y3696193D01*
X16529848Y3618852D01*
X16538081Y3566874D01*
X16539827Y3563445D01*
X16539830Y3563439D01*
X16597522Y3450214D01*
X16599272Y3446780D01*
X16601995Y3444056D01*
X16601998Y3444053D01*
X16691853Y3354198D01*
X16691856Y3354195D01*
X16694580Y3351472D01*
X16698012Y3349722D01*
X16698014Y3349722D01*
X16811239Y3292030D01*
X16811245Y3292027D01*
X16814674Y3290281D01*
X16818478Y3289678D01*
X16818480Y3289678D01*
X16943993Y3269799D01*
X16947800Y3269196D01*
X16951607Y3269799D01*
X17007794Y3278698D01*
X17080926Y3290281D01*
X17084356Y3292028D01*
X17084360Y3292030D01*
X17197585Y3349722D01*
X17201020Y3351472D01*
X17296328Y3446780D01*
X17357519Y3566874D01*
X17378604Y3700000D01*
X17357519Y3833126D01*
X17296328Y3953220D01*
X17201020Y4048528D01*
X17080926Y4109719D01*
X16947800Y4130804D01*
X16814674Y4109719D01*
X16694580Y4048528D01*
X16599272Y3953220D01*
X16587543Y3930201D01*
X16539830Y3836560D01*
X16539828Y3836556D01*
X16538081Y3833126D01*
X16516996Y3700000D01*
X15700000Y3700000D01*
X15700000Y4187905D01*
X15705341Y4210151D01*
X15757969Y4313439D01*
X15757969Y4313440D01*
X15759719Y4316874D01*
X15780804Y4450000D01*
X15775759Y4481851D01*
X15780497Y4511761D01*
X15801910Y4533175D01*
X15831821Y4537913D01*
X15946193Y4519799D01*
X15950000Y4519196D01*
X15953807Y4519799D01*
X16079319Y4539678D01*
X16083126Y4540281D01*
X16086556Y4542028D01*
X16086560Y4542030D01*
X16199785Y4599722D01*
X16203220Y4601472D01*
X16298528Y4696780D01*
X16359719Y4816874D01*
X16380804Y4950000D01*
X16359719Y5083126D01*
X16298528Y5203220D01*
X16203220Y5298528D01*
X16083126Y5359719D01*
X15950000Y5380804D01*
X15816874Y5359719D01*
X15816564Y5359561D01*
X15784256Y5360829D01*
X15759348Y5383852D01*
X15705339Y5489851D01*
X15700000Y5512095D01*
X15700000Y6646935D01*
X19100001Y6646935D01*
X19100107Y6644664D01*
X19102572Y6618362D01*
X19103835Y6612581D01*
X19146441Y6490819D01*
X19149834Y6484399D01*
X19226027Y6381162D01*
X19231162Y6376027D01*
X19334399Y6299834D01*
X19340819Y6296441D01*
X19462580Y6253835D01*
X19468362Y6252572D01*
X19494666Y6250105D01*
X19496933Y6250000D01*
X19690253Y6250000D01*
X19697145Y6252854D01*
X19700000Y6259747D01*
X19900000Y6259747D01*
X19902854Y6252854D01*
X19909747Y6250000D01*
X20440253Y6250000D01*
X20447145Y6252854D01*
X20450000Y6259747D01*
X20650000Y6259747D01*
X20652854Y6252854D01*
X20659747Y6250000D01*
X21190253Y6250000D01*
X21197145Y6252854D01*
X21200000Y6259747D01*
X21400000Y6259747D01*
X21402854Y6252854D01*
X21409747Y6250000D01*
X21940253Y6250000D01*
X21947145Y6252854D01*
X21950000Y6259747D01*
X22150000Y6259747D01*
X22152854Y6252854D01*
X22159747Y6250000D01*
X22690253Y6250000D01*
X22697145Y6252854D01*
X22700000Y6259747D01*
X22700000Y6840253D01*
X22697145Y6847145D01*
X22690253Y6850000D01*
X22159747Y6850000D01*
X22152854Y6847145D01*
X22150000Y6840253D01*
X22150000Y6259747D01*
X21950000Y6259747D01*
X21950000Y6840253D01*
X21947145Y6847145D01*
X21940253Y6850000D01*
X21409747Y6850000D01*
X21402854Y6847145D01*
X21400000Y6840253D01*
X21400000Y6259747D01*
X21200000Y6259747D01*
X21200000Y6840253D01*
X21197145Y6847145D01*
X21190253Y6850000D01*
X20659747Y6850000D01*
X20652854Y6847145D01*
X20650000Y6840253D01*
X20650000Y6259747D01*
X20450000Y6259747D01*
X20450000Y6840253D01*
X20447145Y6847145D01*
X20440253Y6850000D01*
X19909747Y6850000D01*
X19902854Y6847145D01*
X19900000Y6840253D01*
X19900000Y6259747D01*
X19700000Y6259747D01*
X19700000Y6840253D01*
X19697145Y6847145D01*
X19690253Y6850000D01*
X19109748Y6850000D01*
X19102855Y6847145D01*
X19100001Y6840253D01*
X19100001Y6646935D01*
X15700000Y6646935D01*
X15700000Y7059747D01*
X19100000Y7059747D01*
X19102854Y7052854D01*
X19109747Y7050000D01*
X19690253Y7050000D01*
X19697145Y7052854D01*
X19700000Y7059747D01*
X19900000Y7059747D01*
X19902854Y7052854D01*
X19909747Y7050000D01*
X20440253Y7050000D01*
X20447145Y7052854D01*
X20450000Y7059747D01*
X20650000Y7059747D01*
X20652854Y7052854D01*
X20659747Y7050000D01*
X21190253Y7050000D01*
X21197145Y7052854D01*
X21200000Y7059747D01*
X21400000Y7059747D01*
X21402854Y7052854D01*
X21409747Y7050000D01*
X21940253Y7050000D01*
X21947145Y7052854D01*
X21950000Y7059747D01*
X22150000Y7059747D01*
X22152854Y7052854D01*
X22159747Y7050000D01*
X22690253Y7050000D01*
X22697145Y7052854D01*
X22700000Y7059747D01*
X22700000Y7590253D01*
X22697145Y7597145D01*
X22690253Y7600000D01*
X22159747Y7600000D01*
X22152854Y7597145D01*
X22150000Y7590253D01*
X22150000Y7059747D01*
X21950000Y7059747D01*
X21950000Y7590253D01*
X21947145Y7597145D01*
X21940253Y7600000D01*
X21409747Y7600000D01*
X21402854Y7597145D01*
X21400000Y7590253D01*
X21400000Y7059747D01*
X21200000Y7059747D01*
X21200000Y7590253D01*
X21197145Y7597145D01*
X21190253Y7600000D01*
X20659747Y7600000D01*
X20652854Y7597145D01*
X20650000Y7590253D01*
X20650000Y7059747D01*
X20450000Y7059747D01*
X20450000Y7590253D01*
X20447145Y7597145D01*
X20440253Y7600000D01*
X19909747Y7600000D01*
X19902854Y7597145D01*
X19900000Y7590253D01*
X19900000Y7059747D01*
X19700000Y7059747D01*
X19700000Y7590253D01*
X19697145Y7597145D01*
X19690253Y7600000D01*
X19109747Y7600000D01*
X19102854Y7597145D01*
X19100000Y7590253D01*
X19100000Y7059747D01*
X15700000Y7059747D01*
X15700000Y7494328D01*
X15707221Y7519930D01*
X15726755Y7537987D01*
X15749783Y7549720D01*
X15749786Y7549722D01*
X15753220Y7551472D01*
X15848528Y7646780D01*
X15909719Y7766874D01*
X15916509Y7809747D01*
X19100000Y7809747D01*
X19102854Y7802854D01*
X19109747Y7800000D01*
X19690253Y7800000D01*
X19697145Y7802854D01*
X19700000Y7809747D01*
X19900000Y7809747D01*
X19902854Y7802854D01*
X19909747Y7800000D01*
X20440253Y7800000D01*
X20447145Y7802854D01*
X20450000Y7809747D01*
X20650000Y7809747D01*
X20652854Y7802854D01*
X20659747Y7800000D01*
X21190253Y7800000D01*
X21197145Y7802854D01*
X21200000Y7809747D01*
X21400000Y7809747D01*
X21402854Y7802854D01*
X21409747Y7800000D01*
X21940253Y7800000D01*
X21947145Y7802854D01*
X21950000Y7809747D01*
X22150000Y7809747D01*
X22152854Y7802854D01*
X22159747Y7800000D01*
X22690253Y7800000D01*
X22697145Y7802854D01*
X22700000Y7809747D01*
X22700000Y8340253D01*
X22697145Y8347145D01*
X22690253Y8350000D01*
X22159747Y8350000D01*
X22152854Y8347145D01*
X22150000Y8340253D01*
X22150000Y7809747D01*
X21950000Y7809747D01*
X21950000Y8340253D01*
X21947145Y8347145D01*
X21940253Y8350000D01*
X21409747Y8350000D01*
X21402854Y8347145D01*
X21400000Y8340253D01*
X21400000Y7809747D01*
X21200000Y7809747D01*
X21200000Y8340253D01*
X21197145Y8347145D01*
X21190253Y8350000D01*
X20659747Y8350000D01*
X20652854Y8347145D01*
X20650000Y8340253D01*
X20650000Y7809747D01*
X20450000Y7809747D01*
X20450000Y8340253D01*
X20447145Y8347145D01*
X20440253Y8350000D01*
X19909747Y8350000D01*
X19902854Y8347145D01*
X19900000Y8340253D01*
X19900000Y7809747D01*
X19700000Y7809747D01*
X19700000Y8340253D01*
X19697145Y8347145D01*
X19690253Y8350000D01*
X19109747Y8350000D01*
X19102854Y8347145D01*
X19100000Y8340253D01*
X19100000Y7809747D01*
X15916509Y7809747D01*
X15930804Y7900000D01*
X15909719Y8033126D01*
X15848528Y8153220D01*
X15753220Y8248528D01*
X15740830Y8254840D01*
X15726755Y8262013D01*
X15707221Y8280070D01*
X15700000Y8305672D01*
X15700000Y8559747D01*
X19100000Y8559747D01*
X19102854Y8552854D01*
X19109747Y8550000D01*
X19690253Y8550000D01*
X19697145Y8552854D01*
X19700000Y8559747D01*
X19900000Y8559747D01*
X19902854Y8552854D01*
X19909747Y8550000D01*
X20440253Y8550000D01*
X20447145Y8552854D01*
X20450000Y8559747D01*
X20650000Y8559747D01*
X20652854Y8552854D01*
X20659747Y8550000D01*
X21190253Y8550000D01*
X21197145Y8552854D01*
X21200000Y8559747D01*
X21400000Y8559747D01*
X21402854Y8552854D01*
X21409747Y8550000D01*
X21940253Y8550000D01*
X21947145Y8552854D01*
X21950000Y8559747D01*
X22150000Y8559747D01*
X22152854Y8552854D01*
X22159747Y8550000D01*
X22690253Y8550000D01*
X22697145Y8552854D01*
X22700000Y8559747D01*
X22700000Y9140252D01*
X22697145Y9147144D01*
X22690253Y9149999D01*
X22569706Y9149999D01*
X22569690Y9150000D01*
X22159747Y9150000D01*
X22152854Y9147145D01*
X22150000Y9140253D01*
X22150000Y8559747D01*
X21950000Y8559747D01*
X21950000Y9140253D01*
X21947145Y9147145D01*
X21940253Y9150000D01*
X21409747Y9150000D01*
X21402854Y9147145D01*
X21400000Y9140253D01*
X21400000Y8559747D01*
X21200000Y8559747D01*
X21200000Y9140253D01*
X21197145Y9147145D01*
X21190253Y9150000D01*
X20659747Y9150000D01*
X20652854Y9147145D01*
X20650000Y9140253D01*
X20650000Y8559747D01*
X20450000Y8559747D01*
X20450000Y9140253D01*
X20447145Y9147145D01*
X20440253Y9150000D01*
X20030304Y9150000D01*
X20030300Y9149999D01*
X19909747Y9149999D01*
X19902854Y9147144D01*
X19900000Y9140252D01*
X19900000Y8559747D01*
X19700000Y8559747D01*
X19700000Y9140252D01*
X19697145Y9147144D01*
X19690253Y9149999D01*
X19496935Y9149999D01*
X19494664Y9149892D01*
X19468362Y9147427D01*
X19462581Y9146164D01*
X19340819Y9103558D01*
X19334399Y9100165D01*
X19231162Y9023972D01*
X19226027Y9018837D01*
X19149834Y8915600D01*
X19146441Y8909180D01*
X19103835Y8787419D01*
X19102572Y8781637D01*
X19100105Y8755333D01*
X19100000Y8753067D01*
X19100000Y8559747D01*
X15700000Y8559747D01*
X15700000Y10037905D01*
X15705341Y10060151D01*
X15757969Y10163439D01*
X15757969Y10163440D01*
X15759719Y10166874D01*
X15780804Y10300000D01*
X15759719Y10433126D01*
X15705341Y10539849D01*
X15700000Y10562095D01*
X15700000Y10725500D01*
X15714352Y10760148D01*
X15749000Y10774500D01*
X21469141Y10774500D01*
X21487892Y10770770D01*
X21503789Y10760148D01*
X23030288Y9233648D01*
X23044640Y9199000D01*
X23030288Y9164352D01*
X22995640Y9150000D01*
X22909747Y9150000D01*
X22902854Y9147145D01*
X22900000Y9140253D01*
X22900000Y6259748D01*
X22902854Y6252855D01*
X22909747Y6250001D01*
X23103065Y6250001D01*
X23105335Y6250107D01*
X23131637Y6252572D01*
X23137418Y6253835D01*
X23259180Y6296441D01*
X23265600Y6299834D01*
X23368837Y6376027D01*
X23373972Y6381162D01*
X23386075Y6397561D01*
X23410620Y6415150D01*
X23440816Y6415009D01*
X23465196Y6397191D01*
X23474500Y6368464D01*
X23474500Y5232379D01*
X23465196Y5203652D01*
X23440816Y5185834D01*
X23410620Y5185693D01*
X23386076Y5203280D01*
X23372150Y5222150D01*
X23262882Y5302793D01*
X23134699Y5347646D01*
X23104266Y5350500D01*
X22569748Y5350500D01*
X21819748Y5350500D01*
X21069748Y5350500D01*
X20104266Y5350500D01*
X19495734Y5350500D01*
X19494604Y5350394D01*
X19494603Y5350394D01*
X19490402Y5350000D01*
X19465301Y5347646D01*
X19337118Y5302793D01*
X19334164Y5300613D01*
X19334162Y5300612D01*
X19249851Y5238387D01*
X19227850Y5222150D01*
X19225669Y5219195D01*
X19149387Y5115837D01*
X19149384Y5115832D01*
X19147207Y5112882D01*
X19145994Y5109417D01*
X19145994Y5109416D01*
X19105193Y4992811D01*
X19102354Y4984699D01*
X19102076Y4981736D01*
X19102075Y4981731D01*
X19099605Y4955396D01*
X19099604Y4955375D01*
X19099500Y4954266D01*
X19099500Y4419748D01*
X19099500Y3454266D01*
X19099500Y2845734D01*
X19099603Y2844625D01*
X19099605Y2844603D01*
X19102075Y2818268D01*
X19102076Y2818261D01*
X19102354Y2815301D01*
X19103336Y2812492D01*
X19103338Y2812487D01*
X19145994Y2690583D01*
X19145995Y2690579D01*
X19147207Y2687118D01*
X19149382Y2684169D01*
X19149387Y2684162D01*
X19225669Y2580804D01*
X19225672Y2580800D01*
X19227850Y2577850D01*
X19230800Y2575672D01*
X19230804Y2575669D01*
X19334162Y2499387D01*
X19334169Y2499382D01*
X19337118Y2497207D01*
X19340579Y2495995D01*
X19340583Y2495994D01*
X19462487Y2453338D01*
X19462492Y2453336D01*
X19465301Y2452354D01*
X19468261Y2452076D01*
X19468268Y2452075D01*
X19494603Y2449605D01*
X19494625Y2449603D01*
X19495734Y2449500D01*
X20030252Y2449500D01*
X20104266Y2449500D01*
X20780252Y2449500D01*
X21069748Y2449500D01*
X21530252Y2449500D01*
X21819748Y2449500D01*
X22495734Y2449500D01*
X22569748Y2449500D01*
X23103130Y2449500D01*
X23104266Y2449500D01*
X23105375Y2449604D01*
X23105396Y2449605D01*
X23131731Y2452075D01*
X23131736Y2452076D01*
X23134699Y2452354D01*
X23137509Y2453337D01*
X23137512Y2453338D01*
X23259416Y2495994D01*
X23259417Y2495994D01*
X23262882Y2497207D01*
X23265832Y2499384D01*
X23265837Y2499387D01*
X23369195Y2575669D01*
X23372150Y2577850D01*
X23386076Y2596719D01*
X23410620Y2614307D01*
X23440816Y2614166D01*
X23465196Y2596348D01*
X23474500Y2567621D01*
X23474500Y1432379D01*
X23465196Y1403652D01*
X23440816Y1385834D01*
X23410620Y1385693D01*
X23386076Y1403280D01*
X23372150Y1422150D01*
X23262882Y1502793D01*
X23134699Y1547646D01*
X23104266Y1550500D01*
X22569748Y1550500D01*
X21819748Y1550500D01*
X21069748Y1550500D01*
X20104266Y1550500D01*
X19495734Y1550500D01*
X19494604Y1550394D01*
X19494603Y1550394D01*
X19489078Y1549875D01*
X19465301Y1547646D01*
X19337118Y1502793D01*
X19334164Y1500613D01*
X19334162Y1500612D01*
X19305016Y1479101D01*
X19227850Y1422150D01*
X19225669Y1419195D01*
X19149387Y1315837D01*
X19149384Y1315832D01*
X19147207Y1312882D01*
X19145994Y1309417D01*
X19145994Y1309416D01*
X19114987Y1220801D01*
X19102354Y1184699D01*
X19102076Y1181736D01*
X19102075Y1181731D01*
X19099605Y1155396D01*
X19099604Y1155375D01*
X19099500Y1154266D01*
X19099500Y619748D01*
X19099500Y-345734D01*
X19099500Y-954266D01*
X19099604Y-955375D01*
X19099605Y-955396D01*
X19102075Y-981731D01*
X19102076Y-981736D01*
X19102354Y-984699D01*
X19103337Y-987509D01*
X19103338Y-987512D01*
X19125500Y-1050847D01*
X19147207Y-1112882D01*
X19149384Y-1115832D01*
X19149387Y-1115837D01*
X19213925Y-1203282D01*
X19227850Y-1222150D01*
X19230804Y-1224330D01*
X19334162Y-1300612D01*
X19334164Y-1300613D01*
X19337118Y-1302793D01*
X19465301Y-1347646D01*
X19489078Y-1349875D01*
X19494603Y-1350394D01*
X19494604Y-1350394D01*
X19495734Y-1350500D01*
X20030252Y-1350500D01*
X20104266Y-1350500D01*
X20780252Y-1350500D01*
X21069748Y-1350500D01*
X21530252Y-1350500D01*
X21819748Y-1350500D01*
X22495734Y-1350500D01*
X22569748Y-1350500D01*
X23103130Y-1350500D01*
X23104266Y-1350500D01*
X23134699Y-1347646D01*
X23262882Y-1302793D01*
X23372150Y-1222150D01*
X23386076Y-1203280D01*
X23410620Y-1185693D01*
X23440816Y-1185834D01*
X23465196Y-1203652D01*
X23474500Y-1232379D01*
X23474500Y-8769141D01*
X23460148Y-8803789D01*
X21503789Y-10760148D01*
X21469141Y-10774500D01*
X-21469141Y-10774500D01*
X-21487892Y-10770770D01*
X-21503789Y-10760148D01*
X-23263046Y-9000890D01*
X-23277090Y-8971728D01*
X-23269887Y-8940172D01*
X-23244581Y-8919992D01*
X-23212214Y-8919992D01*
X-23137418Y-8946164D01*
X-23131637Y-8947427D01*
X-23105333Y-8949894D01*
X-23103067Y-8950000D01*
X-22909747Y-8950000D01*
X-22902854Y-8947145D01*
X-22900000Y-8940253D01*
X-22900000Y-8940252D01*
X-22700000Y-8940252D01*
X-22697145Y-8947144D01*
X-22690253Y-8949999D01*
X-22569706Y-8949999D01*
X-22569690Y-8950000D01*
X-22159747Y-8950000D01*
X-22152854Y-8947145D01*
X-22150000Y-8940253D01*
X-21950000Y-8940253D01*
X-21947145Y-8947145D01*
X-21940253Y-8950000D01*
X-21409747Y-8950000D01*
X-21402854Y-8947145D01*
X-21400000Y-8940253D01*
X-21200000Y-8940253D01*
X-21197145Y-8947145D01*
X-21190253Y-8950000D01*
X-20659747Y-8950000D01*
X-20652854Y-8947145D01*
X-20650000Y-8940253D01*
X-20450000Y-8940253D01*
X-20447145Y-8947145D01*
X-20440253Y-8950000D01*
X-20030304Y-8950000D01*
X-20030300Y-8949999D01*
X-19909747Y-8949999D01*
X-19902854Y-8947144D01*
X-19900000Y-8940252D01*
X-19700000Y-8940252D01*
X-19697145Y-8947144D01*
X-19690253Y-8949999D01*
X-19496935Y-8949999D01*
X-19494664Y-8949892D01*
X-19468362Y-8947427D01*
X-19462581Y-8946164D01*
X-19340819Y-8903558D01*
X-19334399Y-8900165D01*
X-19231162Y-8823972D01*
X-19226027Y-8818837D01*
X-19149834Y-8715600D01*
X-19146441Y-8709180D01*
X-19103835Y-8587419D01*
X-19102572Y-8581637D01*
X-19100105Y-8555333D01*
X-19100000Y-8553067D01*
X-19100000Y-8359747D01*
X-19102854Y-8352854D01*
X-19109747Y-8350000D01*
X-19690253Y-8350000D01*
X-19697145Y-8352854D01*
X-19700000Y-8359747D01*
X-19700000Y-8940252D01*
X-19900000Y-8940252D01*
X-19900000Y-8359747D01*
X-19902854Y-8352854D01*
X-19909747Y-8350000D01*
X-20440253Y-8350000D01*
X-20447145Y-8352854D01*
X-20450000Y-8359747D01*
X-20450000Y-8940253D01*
X-20650000Y-8940253D01*
X-20650000Y-8359747D01*
X-20652854Y-8352854D01*
X-20659747Y-8350000D01*
X-21190253Y-8350000D01*
X-21197145Y-8352854D01*
X-21200000Y-8359747D01*
X-21200000Y-8940253D01*
X-21400000Y-8940253D01*
X-21400000Y-8359747D01*
X-21402854Y-8352854D01*
X-21409747Y-8350000D01*
X-21940253Y-8350000D01*
X-21947145Y-8352854D01*
X-21950000Y-8359747D01*
X-21950000Y-8940253D01*
X-22150000Y-8940253D01*
X-22150000Y-8359747D01*
X-22152854Y-8352854D01*
X-22159747Y-8350000D01*
X-22690253Y-8350000D01*
X-22697145Y-8352854D01*
X-22700000Y-8359747D01*
X-22700000Y-8940252D01*
X-22900000Y-8940252D01*
X-22900000Y-8140253D01*
X-22700000Y-8140253D01*
X-22697145Y-8147145D01*
X-22690253Y-8150000D01*
X-22159747Y-8150000D01*
X-22152854Y-8147145D01*
X-22150000Y-8140253D01*
X-21950000Y-8140253D01*
X-21947145Y-8147145D01*
X-21940253Y-8150000D01*
X-21409747Y-8150000D01*
X-21402854Y-8147145D01*
X-21400000Y-8140253D01*
X-21200000Y-8140253D01*
X-21197145Y-8147145D01*
X-21190253Y-8150000D01*
X-20659747Y-8150000D01*
X-20652854Y-8147145D01*
X-20650000Y-8140253D01*
X-20450000Y-8140253D01*
X-20447145Y-8147145D01*
X-20440253Y-8150000D01*
X-19909747Y-8150000D01*
X-19902854Y-8147145D01*
X-19900000Y-8140253D01*
X-19700000Y-8140253D01*
X-19697145Y-8147145D01*
X-19690253Y-8150000D01*
X-19109747Y-8150000D01*
X-19102854Y-8147145D01*
X-19100000Y-8140253D01*
X-19100000Y-8067765D01*
X-9854212Y-8067765D01*
X-9824586Y-8337018D01*
X-9756072Y-8599088D01*
X-9650130Y-8848390D01*
X-9509018Y-9079610D01*
X-9335745Y-9287820D01*
X-9134002Y-9468582D01*
X-8908090Y-9618044D01*
X-8662824Y-9733020D01*
X-8403431Y-9811060D01*
X-8135439Y-9850500D01*
X-7933261Y-9850500D01*
X-7932369Y-9850500D01*
X-7729844Y-9835677D01*
X-7465447Y-9776780D01*
X-7212442Y-9680014D01*
X-6976223Y-9547441D01*
X-6974807Y-9546347D01*
X-6974803Y-9546345D01*
X-6763244Y-9382985D01*
X-6761823Y-9381888D01*
X-6760579Y-9380598D01*
X-6575060Y-9188174D01*
X-6575056Y-9188169D01*
X-6573814Y-9186881D01*
X-6568286Y-9179155D01*
X-6417241Y-8968033D01*
X-6417239Y-8968030D01*
X-6416201Y-8966579D01*
X-6415387Y-8964996D01*
X-6415384Y-8964991D01*
X-6293163Y-8727268D01*
X-6293162Y-8727267D01*
X-6292344Y-8725675D01*
X-6288906Y-8715600D01*
X-6218704Y-8509821D01*
X-6204882Y-8469305D01*
X-6192081Y-8400000D01*
X-6156005Y-8204690D01*
X-6156004Y-8204682D01*
X-6155681Y-8202933D01*
X-6155615Y-8201152D01*
X-6155615Y-8201144D01*
X-6151900Y-8099500D01*
X-1780804Y-8099500D01*
X-1759719Y-8232626D01*
X-1698528Y-8352720D01*
X-1603220Y-8448028D01*
X-1483126Y-8509219D01*
X-1350000Y-8530304D01*
X-1216874Y-8509219D01*
X-1096780Y-8448028D01*
X-1001472Y-8352720D01*
X-999722Y-8349286D01*
X-999720Y-8349283D01*
X-968659Y-8288321D01*
X-942560Y-8264821D01*
X-907440Y-8264821D01*
X-881340Y-8288321D01*
X-848528Y-8352720D01*
X-753220Y-8448028D01*
X-633126Y-8509219D01*
X-500000Y-8530304D01*
X-366874Y-8509219D01*
X-246780Y-8448028D01*
X-151472Y-8352720D01*
X-93786Y-8239505D01*
X-67687Y-8216006D01*
X-32567Y-8216006D01*
X-6468Y-8239506D01*
X49720Y-8349783D01*
X49722Y-8349786D01*
X51472Y-8353220D01*
X146780Y-8448528D01*
X266874Y-8509719D01*
X400000Y-8530804D01*
X533126Y-8509719D01*
X653220Y-8448528D01*
X748528Y-8353220D01*
X809719Y-8233126D01*
X830804Y-8100000D01*
X1069196Y-8100000D01*
X1090281Y-8233126D01*
X1092028Y-8236556D01*
X1092030Y-8236560D01*
X1118404Y-8288321D01*
X1151472Y-8353220D01*
X1246780Y-8448528D01*
X1366874Y-8509719D01*
X1500000Y-8530804D01*
X1633126Y-8509719D01*
X1753220Y-8448528D01*
X1848528Y-8353220D01*
X1909719Y-8233126D01*
X1930804Y-8100000D01*
X2069196Y-8100000D01*
X2090281Y-8233126D01*
X2092028Y-8236556D01*
X2092030Y-8236560D01*
X2118404Y-8288321D01*
X2151472Y-8353220D01*
X2246780Y-8448528D01*
X2366874Y-8509719D01*
X2500000Y-8530804D01*
X2633126Y-8509719D01*
X2753220Y-8448528D01*
X2801748Y-8400000D01*
X4369196Y-8400000D01*
X4369799Y-8403807D01*
X4386494Y-8509219D01*
X4390281Y-8533126D01*
X4392028Y-8536556D01*
X4392030Y-8536560D01*
X4423890Y-8599088D01*
X4451472Y-8653220D01*
X4546780Y-8748528D01*
X4634819Y-8793386D01*
X4657753Y-8805072D01*
X4666874Y-8809719D01*
X4800000Y-8830804D01*
X4933126Y-8809719D01*
X5053220Y-8748528D01*
X5148528Y-8653220D01*
X5209719Y-8533126D01*
X5230804Y-8400000D01*
X5209719Y-8266874D01*
X5148528Y-8146780D01*
X5069513Y-8067765D01*
X6145788Y-8067765D01*
X6145982Y-8069535D01*
X6145983Y-8069541D01*
X6175218Y-8335245D01*
X6175220Y-8335257D01*
X6175414Y-8337018D01*
X6175863Y-8338737D01*
X6175864Y-8338740D01*
X6242700Y-8594394D01*
X6243928Y-8599088D01*
X6244629Y-8600739D01*
X6244630Y-8600740D01*
X6349167Y-8846737D01*
X6349170Y-8846743D01*
X6349870Y-8848390D01*
X6490982Y-9079610D01*
X6664255Y-9287820D01*
X6865998Y-9468582D01*
X7091910Y-9618044D01*
X7337176Y-9733020D01*
X7596569Y-9811060D01*
X7864561Y-9850500D01*
X8066739Y-9850500D01*
X8067631Y-9850500D01*
X8270156Y-9835677D01*
X8534553Y-9776780D01*
X8787558Y-9680014D01*
X9023777Y-9547441D01*
X9238177Y-9381888D01*
X9426186Y-9186881D01*
X9583799Y-8966579D01*
X9707656Y-8725675D01*
X9751921Y-8595925D01*
X12029500Y-8595925D01*
X12029690Y-8597433D01*
X12029691Y-8597440D01*
X12034711Y-8637177D01*
X12044929Y-8718058D01*
X12046063Y-8720922D01*
X12097137Y-8849922D01*
X12105432Y-8870871D01*
X12202037Y-9003837D01*
X12328674Y-9108600D01*
X12477387Y-9178579D01*
X12638830Y-9209376D01*
X12802860Y-9199056D01*
X12959171Y-9148268D01*
X13097940Y-9060202D01*
X13210448Y-8940393D01*
X13289627Y-8796368D01*
X13330500Y-8637177D01*
X13330500Y-8595925D01*
X20669500Y-8595925D01*
X20669690Y-8597433D01*
X20669691Y-8597440D01*
X20674711Y-8637177D01*
X20684929Y-8718058D01*
X20686063Y-8720922D01*
X20737137Y-8849922D01*
X20745432Y-8870871D01*
X20842037Y-9003837D01*
X20968674Y-9108600D01*
X21117387Y-9178579D01*
X21278830Y-9209376D01*
X21442860Y-9199056D01*
X21599171Y-9148268D01*
X21737940Y-9060202D01*
X21850448Y-8940393D01*
X21929627Y-8796368D01*
X21970500Y-8637177D01*
X21970500Y-7714075D01*
X21955071Y-7591942D01*
X21894568Y-7439129D01*
X21797963Y-7306163D01*
X21759477Y-7274325D01*
X21673700Y-7203364D01*
X21671326Y-7201400D01*
X21522613Y-7131421D01*
X21492346Y-7125647D01*
X21364196Y-7101201D01*
X21364194Y-7101200D01*
X21361170Y-7100624D01*
X21358098Y-7100817D01*
X21358094Y-7100817D01*
X21200214Y-7110750D01*
X21200209Y-7110750D01*
X21197140Y-7110944D01*
X21194216Y-7111894D01*
X21194211Y-7111895D01*
X21043758Y-7160780D01*
X21043755Y-7160781D01*
X21040829Y-7161732D01*
X21038231Y-7163380D01*
X21038228Y-7163382D01*
X20904661Y-7248147D01*
X20904659Y-7248148D01*
X20902060Y-7249798D01*
X20899953Y-7252040D01*
X20899950Y-7252044D01*
X20791661Y-7367360D01*
X20791657Y-7367365D01*
X20789552Y-7369607D01*
X20788068Y-7372304D01*
X20788068Y-7372306D01*
X20711856Y-7510933D01*
X20711853Y-7510938D01*
X20710373Y-7513632D01*
X20709608Y-7516608D01*
X20709607Y-7516613D01*
X20670266Y-7669837D01*
X20670265Y-7669842D01*
X20669500Y-7672823D01*
X20669500Y-8595925D01*
X13330500Y-8595925D01*
X13330500Y-7714075D01*
X13315071Y-7591942D01*
X13254568Y-7439129D01*
X13157963Y-7306163D01*
X13119477Y-7274325D01*
X13033700Y-7203364D01*
X13031326Y-7201400D01*
X12882613Y-7131421D01*
X12852346Y-7125647D01*
X12724196Y-7101201D01*
X12724194Y-7101200D01*
X12721170Y-7100624D01*
X12718098Y-7100817D01*
X12718094Y-7100817D01*
X12560214Y-7110750D01*
X12560209Y-7110750D01*
X12557140Y-7110944D01*
X12554216Y-7111894D01*
X12554211Y-7111895D01*
X12403758Y-7160780D01*
X12403755Y-7160781D01*
X12400829Y-7161732D01*
X12398231Y-7163380D01*
X12398228Y-7163382D01*
X12264661Y-7248147D01*
X12264659Y-7248148D01*
X12262060Y-7249798D01*
X12259953Y-7252040D01*
X12259950Y-7252044D01*
X12151661Y-7367360D01*
X12151657Y-7367365D01*
X12149552Y-7369607D01*
X12148068Y-7372304D01*
X12148068Y-7372306D01*
X12071856Y-7510933D01*
X12071853Y-7510938D01*
X12070373Y-7513632D01*
X12069608Y-7516608D01*
X12069607Y-7516613D01*
X12030266Y-7669837D01*
X12030265Y-7669842D01*
X12029500Y-7672823D01*
X12029500Y-8595925D01*
X9751921Y-8595925D01*
X9795118Y-8469305D01*
X9844319Y-8202933D01*
X9854212Y-7932235D01*
X9824586Y-7662982D01*
X9756072Y-7400912D01*
X9650130Y-7151610D01*
X9509018Y-6920390D01*
X9335745Y-6712180D01*
X9176165Y-6569196D01*
X9135334Y-6532611D01*
X9135330Y-6532608D01*
X9134002Y-6531418D01*
X9087269Y-6500500D01*
X8909583Y-6382944D01*
X8908090Y-6381956D01*
X8906465Y-6381194D01*
X8664444Y-6267739D01*
X8664439Y-6267737D01*
X8662824Y-6266980D01*
X8578996Y-6241759D01*
X8405148Y-6189456D01*
X8405140Y-6189454D01*
X8403431Y-6188940D01*
X8401661Y-6188679D01*
X8401659Y-6188679D01*
X8137204Y-6149759D01*
X8137193Y-6149758D01*
X8135439Y-6149500D01*
X7932369Y-6149500D01*
X7931486Y-6149564D01*
X7931475Y-6149565D01*
X7731627Y-6164192D01*
X7731620Y-6164192D01*
X7729844Y-6164323D01*
X7728115Y-6164707D01*
X7728102Y-6164710D01*
X7467190Y-6222831D01*
X7467180Y-6222833D01*
X7465447Y-6223220D01*
X7463785Y-6223855D01*
X7463777Y-6223858D01*
X7214112Y-6319347D01*
X7214108Y-6319348D01*
X7212442Y-6319986D01*
X7210892Y-6320855D01*
X7210881Y-6320861D01*
X6977783Y-6451683D01*
X6977778Y-6451686D01*
X6976223Y-6452559D01*
X6974816Y-6453645D01*
X6974803Y-6453654D01*
X6763244Y-6617014D01*
X6763237Y-6617019D01*
X6761823Y-6618112D01*
X6760588Y-6619392D01*
X6760579Y-6619401D01*
X6575060Y-6811825D01*
X6575050Y-6811836D01*
X6573814Y-6813119D01*
X6572774Y-6814572D01*
X6572767Y-6814581D01*
X6417241Y-7031966D01*
X6417235Y-7031975D01*
X6416201Y-7033421D01*
X6415390Y-7034996D01*
X6415384Y-7035008D01*
X6293163Y-7272731D01*
X6293160Y-7272736D01*
X6292344Y-7274325D01*
X6291768Y-7276011D01*
X6291765Y-7276020D01*
X6245948Y-7410321D01*
X6204882Y-7530695D01*
X6204558Y-7532445D01*
X6204558Y-7532448D01*
X6156005Y-7795309D01*
X6156003Y-7795318D01*
X6155681Y-7797067D01*
X6155615Y-7798846D01*
X6155615Y-7798855D01*
X6145967Y-8062854D01*
X6145788Y-8067765D01*
X5069513Y-8067765D01*
X5053220Y-8051472D01*
X5022926Y-8036036D01*
X4936560Y-7992030D01*
X4936556Y-7992028D01*
X4933126Y-7990281D01*
X4800000Y-7969196D01*
X4796193Y-7969799D01*
X4670680Y-7989678D01*
X4670678Y-7989678D01*
X4666874Y-7990281D01*
X4663445Y-7992027D01*
X4663439Y-7992030D01*
X4550214Y-8049722D01*
X4550212Y-8049722D01*
X4546780Y-8051472D01*
X4544056Y-8054195D01*
X4544053Y-8054198D01*
X4454198Y-8144053D01*
X4454195Y-8144056D01*
X4451472Y-8146780D01*
X4449722Y-8150212D01*
X4449722Y-8150214D01*
X4392030Y-8263439D01*
X4392027Y-8263445D01*
X4390281Y-8266874D01*
X4369196Y-8400000D01*
X2801748Y-8400000D01*
X2848528Y-8353220D01*
X2909719Y-8233126D01*
X2930804Y-8100000D01*
X2909719Y-7966874D01*
X2906213Y-7959994D01*
X2892981Y-7934023D01*
X2848528Y-7846780D01*
X2753220Y-7751472D01*
X2722926Y-7736036D01*
X2636560Y-7692030D01*
X2636556Y-7692028D01*
X2633126Y-7690281D01*
X2500000Y-7669196D01*
X2496193Y-7669799D01*
X2370680Y-7689678D01*
X2370678Y-7689678D01*
X2366874Y-7690281D01*
X2363445Y-7692027D01*
X2363439Y-7692030D01*
X2250214Y-7749722D01*
X2250212Y-7749722D01*
X2246780Y-7751472D01*
X2244056Y-7754195D01*
X2244053Y-7754198D01*
X2154198Y-7844053D01*
X2154195Y-7844056D01*
X2151472Y-7846780D01*
X2149722Y-7850212D01*
X2149722Y-7850214D01*
X2092030Y-7963439D01*
X2092027Y-7963445D01*
X2090281Y-7966874D01*
X2089678Y-7970678D01*
X2089678Y-7970680D01*
X2074020Y-8069541D01*
X2069196Y-8100000D01*
X1930804Y-8100000D01*
X1909719Y-7966874D01*
X1906213Y-7959994D01*
X1892981Y-7934023D01*
X1848528Y-7846780D01*
X1753220Y-7751472D01*
X1722926Y-7736036D01*
X1636560Y-7692030D01*
X1636556Y-7692028D01*
X1633126Y-7690281D01*
X1500000Y-7669196D01*
X1496193Y-7669799D01*
X1370680Y-7689678D01*
X1370678Y-7689678D01*
X1366874Y-7690281D01*
X1363445Y-7692027D01*
X1363439Y-7692030D01*
X1250214Y-7749722D01*
X1250212Y-7749722D01*
X1246780Y-7751472D01*
X1244056Y-7754195D01*
X1244053Y-7754198D01*
X1154198Y-7844053D01*
X1154195Y-7844056D01*
X1151472Y-7846780D01*
X1149722Y-7850212D01*
X1149722Y-7850214D01*
X1092030Y-7963439D01*
X1092027Y-7963445D01*
X1090281Y-7966874D01*
X1089678Y-7970678D01*
X1089678Y-7970680D01*
X1074020Y-8069541D01*
X1069196Y-8100000D01*
X830804Y-8100000D01*
X809719Y-7966874D01*
X806213Y-7959994D01*
X792981Y-7934023D01*
X748528Y-7846780D01*
X653220Y-7751472D01*
X622926Y-7736036D01*
X536560Y-7692030D01*
X536556Y-7692028D01*
X533126Y-7690281D01*
X400000Y-7669196D01*
X396193Y-7669799D01*
X270680Y-7689678D01*
X270678Y-7689678D01*
X266874Y-7690281D01*
X263445Y-7692027D01*
X263439Y-7692030D01*
X150214Y-7749722D01*
X150212Y-7749722D01*
X146780Y-7751472D01*
X144056Y-7754195D01*
X144053Y-7754198D01*
X54198Y-7844053D01*
X54195Y-7844056D01*
X51472Y-7846780D01*
X49724Y-7850210D01*
X49720Y-7850216D01*
X-6213Y-7959993D01*
X-32312Y-7983493D01*
X-67432Y-7983494D01*
X-93531Y-7959994D01*
X-149722Y-7849714D01*
X-149722Y-7849712D01*
X-151472Y-7846280D01*
X-154195Y-7843556D01*
X-154198Y-7843553D01*
X-244053Y-7753698D01*
X-244056Y-7753695D01*
X-246780Y-7750972D01*
X-250212Y-7749222D01*
X-250214Y-7749222D01*
X-363439Y-7691530D01*
X-363445Y-7691527D01*
X-366874Y-7689781D01*
X-370678Y-7689178D01*
X-370680Y-7689178D01*
X-496193Y-7669299D01*
X-500000Y-7668696D01*
X-633126Y-7689781D01*
X-636556Y-7691528D01*
X-636560Y-7691530D01*
X-722926Y-7735536D01*
X-753220Y-7750972D01*
X-848528Y-7846280D01*
X-850532Y-7850214D01*
X-881341Y-7910679D01*
X-907440Y-7934178D01*
X-942560Y-7934178D01*
X-968659Y-7910679D01*
X-999722Y-7849714D01*
X-999722Y-7849712D01*
X-1001472Y-7846280D01*
X-1004195Y-7843556D01*
X-1004198Y-7843553D01*
X-1094053Y-7753698D01*
X-1094056Y-7753695D01*
X-1096780Y-7750972D01*
X-1100212Y-7749222D01*
X-1100214Y-7749222D01*
X-1213439Y-7691530D01*
X-1213445Y-7691527D01*
X-1216874Y-7689781D01*
X-1220678Y-7689178D01*
X-1220680Y-7689178D01*
X-1346193Y-7669299D01*
X-1350000Y-7668696D01*
X-1483126Y-7689781D01*
X-1486556Y-7691528D01*
X-1486560Y-7691530D01*
X-1572926Y-7735536D01*
X-1603220Y-7750972D01*
X-1698528Y-7846280D01*
X-1759719Y-7966374D01*
X-1780804Y-8099500D01*
X-6151900Y-8099500D01*
X-6145853Y-7934023D01*
X-6145853Y-7934018D01*
X-6145788Y-7932235D01*
X-6145982Y-7930465D01*
X-6145983Y-7930458D01*
X-6175218Y-7664754D01*
X-6175220Y-7664740D01*
X-6175414Y-7662982D01*
X-6189331Y-7609747D01*
X-6243474Y-7402646D01*
X-6243476Y-7402637D01*
X-6243928Y-7400912D01*
X-6244630Y-7399259D01*
X-6349167Y-7153262D01*
X-6349172Y-7153251D01*
X-6349870Y-7151610D01*
X-6350801Y-7150083D01*
X-6350805Y-7150077D01*
X-6442396Y-7000000D01*
X4969196Y-7000000D01*
X4990281Y-7133126D01*
X4992028Y-7136556D01*
X4992030Y-7136560D01*
X5004371Y-7160780D01*
X5051472Y-7253220D01*
X5146780Y-7348528D01*
X5266874Y-7409719D01*
X5400000Y-7430804D01*
X5533126Y-7409719D01*
X5653220Y-7348528D01*
X5748528Y-7253220D01*
X5809719Y-7133126D01*
X5830804Y-7000000D01*
X5809719Y-6866874D01*
X5802575Y-6852854D01*
X5781670Y-6811825D01*
X5748528Y-6746780D01*
X5653220Y-6651472D01*
X5622926Y-6636036D01*
X5536560Y-6592030D01*
X5536556Y-6592028D01*
X5533126Y-6590281D01*
X5400000Y-6569196D01*
X5396193Y-6569799D01*
X5270680Y-6589678D01*
X5270678Y-6589678D01*
X5266874Y-6590281D01*
X5263445Y-6592027D01*
X5263439Y-6592030D01*
X5150214Y-6649722D01*
X5150212Y-6649722D01*
X5146780Y-6651472D01*
X5144056Y-6654195D01*
X5144053Y-6654198D01*
X5054198Y-6744053D01*
X5054195Y-6744056D01*
X5051472Y-6746780D01*
X5049722Y-6750212D01*
X5049722Y-6750214D01*
X4992030Y-6863439D01*
X4992027Y-6863445D01*
X4990281Y-6866874D01*
X4969196Y-7000000D01*
X-6442396Y-7000000D01*
X-6490047Y-6921921D01*
X-6490051Y-6921914D01*
X-6490982Y-6920390D01*
X-6492123Y-6919018D01*
X-6492128Y-6919012D01*
X-6663111Y-6713554D01*
X-6663115Y-6713549D01*
X-6664255Y-6712180D01*
X-6665586Y-6710987D01*
X-6864665Y-6532611D01*
X-6864676Y-6532602D01*
X-6865998Y-6531418D01*
X-6867481Y-6530436D01*
X-6867490Y-6530430D01*
X-7090416Y-6382944D01*
X-7090420Y-6382941D01*
X-7091910Y-6381956D01*
X-7093526Y-6381198D01*
X-7093534Y-6381194D01*
X-7335555Y-6267739D01*
X-7335565Y-6267735D01*
X-7337176Y-6266980D01*
X-7338891Y-6266464D01*
X-7594851Y-6189456D01*
X-7594862Y-6189453D01*
X-7596569Y-6188940D01*
X-7598335Y-6188680D01*
X-7598340Y-6188679D01*
X-7862795Y-6149759D01*
X-7862807Y-6149758D01*
X-7864561Y-6149500D01*
X-8067631Y-6149500D01*
X-8068514Y-6149564D01*
X-8068524Y-6149565D01*
X-8268372Y-6164192D01*
X-8268377Y-6164192D01*
X-8270156Y-6164323D01*
X-8271886Y-6164708D01*
X-8271897Y-6164710D01*
X-8532809Y-6222831D01*
X-8532815Y-6222832D01*
X-8534553Y-6223220D01*
X-8536217Y-6223856D01*
X-8536222Y-6223858D01*
X-8650953Y-6267739D01*
X-8787558Y-6319986D01*
X-8789112Y-6320858D01*
X-8789118Y-6320861D01*
X-8899737Y-6382944D01*
X-9023777Y-6452559D01*
X-9025189Y-6453649D01*
X-9025196Y-6453654D01*
X-9229788Y-6611634D01*
X-9238177Y-6618112D01*
X-9239418Y-6619399D01*
X-9239420Y-6619401D01*
X-9424939Y-6811825D01*
X-9424942Y-6811829D01*
X-9426186Y-6813119D01*
X-9583799Y-7033421D01*
X-9707656Y-7274325D01*
X-9795118Y-7530695D01*
X-9844319Y-7797067D01*
X-9846136Y-7846780D01*
X-9853716Y-8054198D01*
X-9854212Y-8067765D01*
X-19100000Y-8067765D01*
X-19100000Y-7609747D01*
X-19102854Y-7602854D01*
X-19109747Y-7600000D01*
X-19690253Y-7600000D01*
X-19697145Y-7602854D01*
X-19700000Y-7609747D01*
X-19700000Y-8140253D01*
X-19900000Y-8140253D01*
X-19900000Y-7609747D01*
X-19902854Y-7602854D01*
X-19909747Y-7600000D01*
X-20440253Y-7600000D01*
X-20447145Y-7602854D01*
X-20450000Y-7609747D01*
X-20450000Y-8140253D01*
X-20650000Y-8140253D01*
X-20650000Y-7609747D01*
X-20652854Y-7602854D01*
X-20659747Y-7600000D01*
X-21190253Y-7600000D01*
X-21197145Y-7602854D01*
X-21200000Y-7609747D01*
X-21200000Y-8140253D01*
X-21400000Y-8140253D01*
X-21400000Y-7609747D01*
X-21402854Y-7602854D01*
X-21409747Y-7600000D01*
X-21940253Y-7600000D01*
X-21947145Y-7602854D01*
X-21950000Y-7609747D01*
X-21950000Y-8140253D01*
X-22150000Y-8140253D01*
X-22150000Y-7609747D01*
X-22152854Y-7602854D01*
X-22159747Y-7600000D01*
X-22690253Y-7600000D01*
X-22697145Y-7602854D01*
X-22700000Y-7609747D01*
X-22700000Y-8140253D01*
X-22900000Y-8140253D01*
X-22900000Y-7390253D01*
X-22700000Y-7390253D01*
X-22697145Y-7397145D01*
X-22690253Y-7400000D01*
X-22159747Y-7400000D01*
X-22152854Y-7397145D01*
X-22150000Y-7390253D01*
X-21950000Y-7390253D01*
X-21947145Y-7397145D01*
X-21940253Y-7400000D01*
X-21409747Y-7400000D01*
X-21402854Y-7397145D01*
X-21400000Y-7390253D01*
X-21200000Y-7390253D01*
X-21197145Y-7397145D01*
X-21190253Y-7400000D01*
X-20659747Y-7400000D01*
X-20652854Y-7397145D01*
X-20650000Y-7390253D01*
X-20450000Y-7390253D01*
X-20447145Y-7397145D01*
X-20440253Y-7400000D01*
X-19909747Y-7400000D01*
X-19902854Y-7397145D01*
X-19900000Y-7390253D01*
X-19700000Y-7390253D01*
X-19697145Y-7397145D01*
X-19690253Y-7400000D01*
X-19109747Y-7400000D01*
X-19102854Y-7397145D01*
X-19100000Y-7390253D01*
X-19100000Y-6859747D01*
X-19102854Y-6852854D01*
X-19109747Y-6850000D01*
X-19690253Y-6850000D01*
X-19697145Y-6852854D01*
X-19700000Y-6859747D01*
X-19700000Y-7390253D01*
X-19900000Y-7390253D01*
X-19900000Y-6859747D01*
X-19902854Y-6852854D01*
X-19909747Y-6850000D01*
X-20440253Y-6850000D01*
X-20447145Y-6852854D01*
X-20450000Y-6859747D01*
X-20450000Y-7390253D01*
X-20650000Y-7390253D01*
X-20650000Y-6859747D01*
X-20652854Y-6852854D01*
X-20659747Y-6850000D01*
X-21190253Y-6850000D01*
X-21197145Y-6852854D01*
X-21200000Y-6859747D01*
X-21200000Y-7390253D01*
X-21400000Y-7390253D01*
X-21400000Y-6859747D01*
X-21402854Y-6852854D01*
X-21409747Y-6850000D01*
X-21940253Y-6850000D01*
X-21947145Y-6852854D01*
X-21950000Y-6859747D01*
X-21950000Y-7390253D01*
X-22150000Y-7390253D01*
X-22150000Y-6859747D01*
X-22152854Y-6852854D01*
X-22159747Y-6850000D01*
X-22690253Y-6850000D01*
X-22697145Y-6852854D01*
X-22700000Y-6859747D01*
X-22700000Y-7390253D01*
X-22900000Y-7390253D01*
X-22900000Y-6640253D01*
X-22700000Y-6640253D01*
X-22697145Y-6647145D01*
X-22690253Y-6650000D01*
X-22159747Y-6650000D01*
X-22152854Y-6647145D01*
X-22150000Y-6640253D01*
X-21950000Y-6640253D01*
X-21947145Y-6647145D01*
X-21940253Y-6650000D01*
X-21409747Y-6650000D01*
X-21402854Y-6647145D01*
X-21400000Y-6640253D01*
X-21200000Y-6640253D01*
X-21197145Y-6647145D01*
X-21190253Y-6650000D01*
X-20659747Y-6650000D01*
X-20652854Y-6647145D01*
X-20650000Y-6640253D01*
X-20450000Y-6640253D01*
X-20447145Y-6647145D01*
X-20440253Y-6650000D01*
X-19909747Y-6650000D01*
X-19902854Y-6647145D01*
X-19900000Y-6640253D01*
X-19700000Y-6640253D01*
X-19697145Y-6647145D01*
X-19690253Y-6650000D01*
X-19109748Y-6650000D01*
X-19102855Y-6647145D01*
X-19100001Y-6640253D01*
X-19100001Y-6446935D01*
X-19100107Y-6444664D01*
X-19102572Y-6418362D01*
X-19103835Y-6412581D01*
X-19146441Y-6290819D01*
X-19149834Y-6284399D01*
X-19226027Y-6181162D01*
X-19231162Y-6176027D01*
X-19334399Y-6099834D01*
X-19340819Y-6096441D01*
X-19462580Y-6053835D01*
X-19468362Y-6052572D01*
X-19494666Y-6050105D01*
X-19496933Y-6050000D01*
X-19690253Y-6050000D01*
X-19697145Y-6052854D01*
X-19700000Y-6059747D01*
X-19700000Y-6640253D01*
X-19900000Y-6640253D01*
X-19900000Y-6059747D01*
X-19902854Y-6052854D01*
X-19909747Y-6050000D01*
X-20440253Y-6050000D01*
X-20447145Y-6052854D01*
X-20450000Y-6059747D01*
X-20450000Y-6640253D01*
X-20650000Y-6640253D01*
X-20650000Y-6059747D01*
X-20652854Y-6052854D01*
X-20659747Y-6050000D01*
X-21190253Y-6050000D01*
X-21197145Y-6052854D01*
X-21200000Y-6059747D01*
X-21200000Y-6640253D01*
X-21400000Y-6640253D01*
X-21400000Y-6059747D01*
X-21402854Y-6052854D01*
X-21409747Y-6050000D01*
X-21940253Y-6050000D01*
X-21947145Y-6052854D01*
X-21950000Y-6059747D01*
X-21950000Y-6640253D01*
X-22150000Y-6640253D01*
X-22150000Y-6059747D01*
X-22152854Y-6052854D01*
X-22159747Y-6050000D01*
X-22690253Y-6050000D01*
X-22697145Y-6052854D01*
X-22700000Y-6059747D01*
X-22700000Y-6640253D01*
X-22900000Y-6640253D01*
X-22900000Y-6059748D01*
X-22902854Y-6052855D01*
X-22909747Y-6050001D01*
X-23103065Y-6050001D01*
X-23105335Y-6050107D01*
X-23131637Y-6052572D01*
X-23137418Y-6053835D01*
X-23259180Y-6096441D01*
X-23265600Y-6099834D01*
X-23368837Y-6176027D01*
X-23373972Y-6181162D01*
X-23386075Y-6197561D01*
X-23410620Y-6215150D01*
X-23440816Y-6215009D01*
X-23465196Y-6197191D01*
X-23474500Y-6168464D01*
X-23474500Y-5993102D01*
X-18300500Y-5993102D01*
X-18289877Y-6081564D01*
X-18234361Y-6222342D01*
X-18142922Y-6342922D01*
X-18022342Y-6434361D01*
X-17881564Y-6489877D01*
X-17793102Y-6500500D01*
X-17008359Y-6500500D01*
X-17006898Y-6500500D01*
X-16918436Y-6489877D01*
X-16777658Y-6434361D01*
X-16657078Y-6342922D01*
X-16565639Y-6222342D01*
X-16517328Y-6099834D01*
X-16511275Y-6084486D01*
X-16511274Y-6084483D01*
X-16510123Y-6081564D01*
X-16506333Y-6050001D01*
X-16499674Y-5994556D01*
X-16499673Y-5994545D01*
X-16499500Y-5993102D01*
X-16499500Y-5206898D01*
X-16499673Y-5205454D01*
X-16499674Y-5205443D01*
X-16500328Y-5200000D01*
X4069196Y-5200000D01*
X4090281Y-5333126D01*
X4092028Y-5336556D01*
X4092030Y-5336560D01*
X4136036Y-5422926D01*
X4151472Y-5453220D01*
X4246780Y-5548528D01*
X4366874Y-5609719D01*
X4500000Y-5630804D01*
X4633126Y-5609719D01*
X4753220Y-5548528D01*
X4848528Y-5453220D01*
X4909719Y-5333126D01*
X4930804Y-5200000D01*
X4909719Y-5066874D01*
X4901262Y-5050277D01*
X4885425Y-5019195D01*
X4848528Y-4946780D01*
X4753220Y-4851472D01*
X4717214Y-4833126D01*
X4636560Y-4792030D01*
X4636556Y-4792028D01*
X4633126Y-4790281D01*
X4597882Y-4784699D01*
X4503807Y-4769799D01*
X4500000Y-4769196D01*
X4496193Y-4769799D01*
X4370680Y-4789678D01*
X4370678Y-4789678D01*
X4366874Y-4790281D01*
X4363445Y-4792027D01*
X4363439Y-4792030D01*
X4250214Y-4849722D01*
X4250212Y-4849722D01*
X4246780Y-4851472D01*
X4244056Y-4854195D01*
X4244053Y-4854198D01*
X4154198Y-4944053D01*
X4154195Y-4944056D01*
X4151472Y-4946780D01*
X4149722Y-4950212D01*
X4149722Y-4950214D01*
X4092030Y-5063439D01*
X4092027Y-5063445D01*
X4090281Y-5066874D01*
X4089678Y-5070678D01*
X4089678Y-5070680D01*
X4077644Y-5146661D01*
X4069196Y-5200000D01*
X-16500328Y-5200000D01*
X-16509748Y-5121558D01*
X-16509748Y-5121557D01*
X-16510123Y-5118436D01*
X-16511273Y-5115517D01*
X-16511275Y-5115513D01*
X-16564411Y-4980771D01*
X-16564412Y-4980768D01*
X-16565639Y-4977658D01*
X-16567659Y-4974993D01*
X-16567662Y-4974989D01*
X-16655054Y-4859746D01*
X-16655057Y-4859742D01*
X-16657078Y-4857078D01*
X-16659742Y-4855057D01*
X-16659746Y-4855054D01*
X-16774989Y-4767662D01*
X-16774993Y-4767659D01*
X-16777658Y-4765639D01*
X-16780768Y-4764412D01*
X-16780771Y-4764411D01*
X-16915513Y-4711275D01*
X-16915517Y-4711273D01*
X-16918436Y-4710123D01*
X-16921557Y-4709748D01*
X-16921558Y-4709748D01*
X-17002728Y-4700000D01*
X-10330804Y-4700000D01*
X-10309719Y-4833126D01*
X-10248528Y-4953220D01*
X-10153220Y-5048528D01*
X-10033126Y-5109719D01*
X-9900000Y-5130804D01*
X-9766874Y-5109719D01*
X-9755659Y-5104005D01*
X-9690256Y-5070680D01*
X-9646780Y-5048528D01*
X-9551472Y-4953220D01*
X-9521092Y-4893596D01*
X-9492030Y-4836560D01*
X-9492028Y-4836556D01*
X-9490281Y-4833126D01*
X-9469196Y-4700000D01*
X-9488510Y-4578056D01*
X-9489678Y-4570680D01*
X-9489678Y-4570678D01*
X-9490281Y-4566874D01*
X-9492027Y-4563445D01*
X-9492030Y-4563439D01*
X-9549722Y-4450214D01*
X-9549722Y-4450212D01*
X-9551472Y-4446780D01*
X-9554195Y-4444056D01*
X-9554198Y-4444053D01*
X-9644053Y-4354198D01*
X-9644056Y-4354195D01*
X-9646780Y-4351472D01*
X-9650212Y-4349722D01*
X-9650214Y-4349722D01*
X-9763439Y-4292030D01*
X-9763445Y-4292027D01*
X-9766874Y-4290281D01*
X-9770678Y-4289678D01*
X-9770680Y-4289678D01*
X-9896193Y-4269799D01*
X-9900000Y-4269196D01*
X-9903807Y-4269799D01*
X-9996613Y-4284498D01*
X-10033126Y-4290281D01*
X-10036556Y-4292028D01*
X-10036560Y-4292030D01*
X-10107352Y-4328101D01*
X-10153220Y-4351472D01*
X-10248528Y-4446780D01*
X-10309719Y-4566874D01*
X-10330804Y-4700000D01*
X-17002728Y-4700000D01*
X-17005443Y-4699674D01*
X-17005454Y-4699673D01*
X-17006898Y-4699500D01*
X-17793102Y-4699500D01*
X-17794545Y-4699673D01*
X-17794556Y-4699674D01*
X-17863627Y-4707969D01*
X-17881564Y-4710123D01*
X-17884483Y-4711274D01*
X-17884486Y-4711275D01*
X-17985877Y-4751259D01*
X-18022342Y-4765639D01*
X-18025008Y-4767661D01*
X-18025010Y-4767662D01*
X-18111337Y-4833126D01*
X-18142922Y-4857078D01*
X-18234361Y-4977658D01*
X-18289877Y-5118436D01*
X-18300500Y-5206898D01*
X-18300500Y-5993102D01*
X-23474500Y-5993102D01*
X-23474500Y-5032379D01*
X-23465196Y-5003652D01*
X-23440816Y-4985834D01*
X-23410620Y-4985693D01*
X-23386076Y-5003280D01*
X-23372150Y-5022150D01*
X-23262882Y-5102793D01*
X-23134699Y-5147646D01*
X-23104266Y-5150500D01*
X-22569748Y-5150500D01*
X-22495734Y-5150500D01*
X-21819748Y-5150500D01*
X-21530252Y-5150500D01*
X-21069748Y-5150500D01*
X-20780252Y-5150500D01*
X-20104266Y-5150500D01*
X-20030252Y-5150500D01*
X-19496870Y-5150500D01*
X-19495734Y-5150500D01*
X-19494604Y-5150394D01*
X-19494603Y-5150394D01*
X-19489078Y-5149875D01*
X-19465301Y-5147646D01*
X-19337118Y-5102793D01*
X-19334164Y-5100613D01*
X-19334162Y-5100612D01*
X-19230804Y-5024330D01*
X-19227850Y-5022150D01*
X-19210569Y-4998735D01*
X-19149387Y-4915837D01*
X-19149384Y-4915832D01*
X-19147207Y-4912882D01*
X-19141315Y-4896044D01*
X-19103338Y-4787512D01*
X-19103337Y-4787509D01*
X-19102354Y-4784699D01*
X-19102076Y-4781736D01*
X-19102075Y-4781731D01*
X-19099605Y-4755396D01*
X-19099604Y-4755375D01*
X-19099500Y-4754266D01*
X-19099500Y-4145734D01*
X-19099500Y-3700000D01*
X-3230804Y-3700000D01*
X-3209719Y-3833126D01*
X-3148528Y-3953220D01*
X-3053220Y-4048528D01*
X-2933126Y-4109719D01*
X-2800000Y-4130804D01*
X-2666874Y-4109719D01*
X-2546780Y-4048528D01*
X-2451472Y-3953220D01*
X-2419403Y-3890281D01*
X-2392030Y-3836560D01*
X-2392028Y-3836556D01*
X-2390281Y-3833126D01*
X-2369196Y-3700000D01*
X-2390281Y-3566874D01*
X-2392027Y-3563445D01*
X-2392030Y-3563439D01*
X-2449722Y-3450214D01*
X-2449722Y-3450212D01*
X-2451472Y-3446780D01*
X-2454195Y-3444056D01*
X-2454198Y-3444053D01*
X-2544053Y-3354198D01*
X-2544056Y-3354195D01*
X-2546780Y-3351472D01*
X-2550212Y-3349722D01*
X-2550214Y-3349722D01*
X-2663439Y-3292030D01*
X-2663445Y-3292027D01*
X-2666874Y-3290281D01*
X-2670678Y-3289678D01*
X-2670680Y-3289678D01*
X-2796193Y-3269799D01*
X-2800000Y-3269196D01*
X-2828380Y-3273691D01*
X-2874098Y-3280932D01*
X-2933126Y-3290281D01*
X-2936556Y-3292028D01*
X-2936560Y-3292030D01*
X-3022926Y-3336036D01*
X-3053220Y-3351472D01*
X-3148528Y-3446780D01*
X-3209719Y-3566874D01*
X-3230804Y-3700000D01*
X-19099500Y-3700000D01*
X-19099500Y-3180252D01*
X-19099500Y-2645734D01*
X-19099603Y-2644625D01*
X-19099605Y-2644603D01*
X-19102075Y-2618268D01*
X-19102076Y-2618261D01*
X-19102354Y-2615301D01*
X-19103336Y-2612492D01*
X-19103338Y-2612487D01*
X-19145994Y-2490583D01*
X-19145995Y-2490579D01*
X-19147207Y-2487118D01*
X-19149382Y-2484169D01*
X-19149387Y-2484162D01*
X-19225669Y-2380804D01*
X-19225672Y-2380800D01*
X-19227850Y-2377850D01*
X-19230800Y-2375672D01*
X-19230804Y-2375669D01*
X-19334162Y-2299387D01*
X-19334169Y-2299382D01*
X-19337118Y-2297207D01*
X-19340579Y-2295995D01*
X-19340583Y-2295994D01*
X-19462487Y-2253338D01*
X-19462492Y-2253336D01*
X-19465301Y-2252354D01*
X-19468261Y-2252076D01*
X-19468268Y-2252075D01*
X-19494603Y-2249605D01*
X-19494625Y-2249603D01*
X-19495734Y-2249500D01*
X-20030252Y-2249500D01*
X-20780252Y-2249500D01*
X-21530252Y-2249500D01*
X-22495734Y-2249500D01*
X-23104266Y-2249500D01*
X-23105375Y-2249604D01*
X-23105396Y-2249605D01*
X-23131731Y-2252075D01*
X-23131736Y-2252076D01*
X-23134699Y-2252354D01*
X-23137509Y-2253337D01*
X-23137512Y-2253338D01*
X-23259416Y-2295994D01*
X-23259417Y-2295994D01*
X-23262882Y-2297207D01*
X-23265832Y-2299384D01*
X-23265837Y-2299387D01*
X-23352624Y-2363439D01*
X-23372150Y-2377850D01*
X-23386076Y-2396719D01*
X-23410620Y-2414307D01*
X-23440816Y-2414166D01*
X-23465196Y-2396348D01*
X-23474500Y-2367621D01*
X-23474500Y-2193102D01*
X-18300500Y-2193102D01*
X-18289877Y-2281564D01*
X-18234361Y-2422342D01*
X-18142922Y-2542922D01*
X-18022342Y-2634361D01*
X-17881564Y-2689877D01*
X-17793102Y-2700500D01*
X-17008359Y-2700500D01*
X-17006898Y-2700500D01*
X-16918436Y-2689877D01*
X-16777658Y-2634361D01*
X-16657078Y-2542922D01*
X-16612519Y-2484162D01*
X-16575034Y-2434731D01*
X-12136969Y-2434731D01*
X-12115884Y-2567857D01*
X-12054693Y-2687951D01*
X-11959385Y-2783259D01*
X-11839291Y-2844450D01*
X-11706165Y-2865535D01*
X-11573039Y-2844450D01*
X-11567704Y-2841732D01*
X-11542745Y-2829014D01*
X-11452945Y-2783259D01*
X-11357637Y-2687951D01*
X-11318966Y-2612055D01*
X-11292867Y-2588556D01*
X-11257747Y-2588556D01*
X-11231648Y-2612055D01*
X-11198667Y-2676785D01*
X-11103359Y-2772093D01*
X-10983265Y-2833284D01*
X-10850139Y-2854369D01*
X-10717013Y-2833284D01*
X-10596919Y-2772093D01*
X-10501611Y-2676785D01*
X-10461150Y-2597376D01*
X-10435051Y-2573877D01*
X-10399931Y-2573877D01*
X-10373831Y-2597377D01*
X-10331475Y-2680507D01*
X-10236167Y-2775815D01*
X-10116073Y-2837006D01*
X-9982947Y-2858091D01*
X-9849821Y-2837006D01*
X-9843697Y-2833886D01*
X-9799608Y-2811421D01*
X-9729727Y-2775815D01*
X-9634419Y-2680507D01*
X-9612027Y-2636560D01*
X-9574977Y-2563847D01*
X-9574975Y-2563843D01*
X-9573228Y-2560413D01*
X-9552143Y-2427287D01*
X-9568364Y-2324869D01*
X-9572625Y-2297967D01*
X-9572625Y-2297965D01*
X-9573228Y-2294161D01*
X-9574974Y-2290732D01*
X-9574977Y-2290726D01*
X-9632669Y-2177501D01*
X-9632669Y-2177499D01*
X-9634419Y-2174067D01*
X-9637142Y-2171343D01*
X-9637145Y-2171340D01*
X-9727000Y-2081485D01*
X-9727003Y-2081482D01*
X-9729727Y-2078759D01*
X-9733159Y-2077009D01*
X-9733161Y-2077009D01*
X-9846386Y-2019317D01*
X-9846392Y-2019314D01*
X-9849821Y-2017568D01*
X-9853625Y-2016965D01*
X-9853627Y-2016965D01*
X-9966897Y-1999025D01*
X-9982947Y-1996483D01*
X-10116073Y-2017568D01*
X-10119503Y-2019315D01*
X-10119507Y-2019317D01*
X-10182851Y-2051593D01*
X-10236167Y-2078759D01*
X-10331475Y-2174067D01*
X-10333225Y-2177501D01*
X-10333226Y-2177503D01*
X-10371935Y-2253474D01*
X-10398034Y-2276974D01*
X-10433154Y-2276975D01*
X-10459253Y-2253475D01*
X-10499860Y-2173779D01*
X-10499864Y-2173773D01*
X-10501611Y-2170345D01*
X-10504334Y-2167621D01*
X-10504337Y-2167618D01*
X-10594192Y-2077763D01*
X-10594195Y-2077760D01*
X-10596919Y-2075037D01*
X-10600351Y-2073287D01*
X-10600353Y-2073287D01*
X-10713578Y-2015595D01*
X-10713584Y-2015592D01*
X-10717013Y-2013846D01*
X-10720817Y-2013243D01*
X-10720819Y-2013243D01*
X-10846332Y-1993364D01*
X-10850139Y-1992761D01*
X-10983265Y-2013846D01*
X-10986695Y-2015593D01*
X-10986699Y-2015595D01*
X-11070634Y-2058363D01*
X-11103359Y-2075037D01*
X-11198667Y-2170345D01*
X-11200417Y-2173779D01*
X-11200418Y-2173781D01*
X-11237337Y-2246239D01*
X-11263436Y-2269739D01*
X-11298556Y-2269740D01*
X-11324655Y-2246240D01*
X-11355886Y-2184945D01*
X-11355890Y-2184939D01*
X-11357637Y-2181511D01*
X-11360360Y-2178787D01*
X-11360363Y-2178784D01*
X-11450218Y-2088929D01*
X-11450221Y-2088926D01*
X-11452945Y-2086203D01*
X-11456377Y-2084453D01*
X-11456379Y-2084453D01*
X-11569604Y-2026761D01*
X-11569610Y-2026758D01*
X-11573039Y-2025012D01*
X-11576843Y-2024409D01*
X-11576845Y-2024409D01*
X-11702358Y-2004530D01*
X-11706165Y-2003927D01*
X-11839291Y-2025012D01*
X-11842721Y-2026759D01*
X-11842725Y-2026761D01*
X-11892680Y-2052215D01*
X-11959385Y-2086203D01*
X-12054693Y-2181511D01*
X-12095438Y-2261477D01*
X-12114030Y-2297967D01*
X-12115884Y-2301605D01*
X-12136969Y-2434731D01*
X-16575034Y-2434731D01*
X-16567662Y-2425010D01*
X-16567661Y-2425008D01*
X-16565639Y-2422342D01*
X-16549257Y-2380800D01*
X-16511275Y-2284486D01*
X-16511274Y-2284483D01*
X-16510123Y-2281564D01*
X-16506285Y-2249605D01*
X-16499674Y-2194556D01*
X-16499673Y-2194545D01*
X-16499500Y-2193102D01*
X-16499500Y-1406898D01*
X-16499673Y-1405454D01*
X-16499674Y-1405443D01*
X-16509748Y-1321558D01*
X-16509748Y-1321557D01*
X-16510123Y-1318436D01*
X-16511273Y-1315517D01*
X-16511275Y-1315513D01*
X-16564411Y-1180771D01*
X-16564412Y-1180768D01*
X-16565639Y-1177658D01*
X-16567659Y-1174993D01*
X-16567662Y-1174989D01*
X-16655054Y-1059746D01*
X-16655057Y-1059742D01*
X-16657078Y-1057078D01*
X-16659742Y-1055057D01*
X-16659746Y-1055054D01*
X-16774989Y-967662D01*
X-16774993Y-967659D01*
X-16777658Y-965639D01*
X-16780768Y-964412D01*
X-16780771Y-964411D01*
X-16915513Y-911275D01*
X-16915517Y-911273D01*
X-16918436Y-910123D01*
X-16921557Y-909748D01*
X-16921558Y-909748D01*
X-17005443Y-899674D01*
X-17005454Y-899673D01*
X-17006898Y-899500D01*
X-17793102Y-899500D01*
X-17794545Y-899673D01*
X-17794556Y-899674D01*
X-17874866Y-909318D01*
X-17881564Y-910123D01*
X-17884483Y-911274D01*
X-17884486Y-911275D01*
X-17981980Y-949722D01*
X-18022342Y-965639D01*
X-18025008Y-967661D01*
X-18025010Y-967662D01*
X-18134705Y-1050847D01*
X-18142922Y-1057078D01*
X-18234361Y-1177658D01*
X-18289877Y-1318436D01*
X-18300500Y-1406898D01*
X-18300500Y-2193102D01*
X-23474500Y-2193102D01*
X-23474500Y-1232379D01*
X-23465196Y-1203652D01*
X-23440816Y-1185834D01*
X-23410620Y-1185693D01*
X-23386076Y-1203280D01*
X-23372150Y-1222150D01*
X-23262882Y-1302793D01*
X-23134699Y-1347646D01*
X-23104266Y-1350500D01*
X-22569748Y-1350500D01*
X-22495734Y-1350500D01*
X-21819748Y-1350500D01*
X-21530252Y-1350500D01*
X-21069748Y-1350500D01*
X-20780252Y-1350500D01*
X-20104266Y-1350500D01*
X-20030252Y-1350500D01*
X-19496870Y-1350500D01*
X-19495734Y-1350500D01*
X-19494604Y-1350394D01*
X-19494603Y-1350394D01*
X-19489078Y-1349875D01*
X-19465301Y-1347646D01*
X-19337118Y-1302793D01*
X-19334164Y-1300613D01*
X-19334162Y-1300612D01*
X-19230804Y-1224330D01*
X-19227850Y-1222150D01*
X-19213925Y-1203282D01*
X-19149387Y-1115837D01*
X-19149384Y-1115832D01*
X-19147207Y-1112882D01*
X-19125500Y-1050847D01*
X-19103338Y-987512D01*
X-19103337Y-987509D01*
X-19102354Y-984699D01*
X-19102076Y-981736D01*
X-19102075Y-981731D01*
X-19099605Y-955396D01*
X-19099604Y-955375D01*
X-19099500Y-954266D01*
X-19099500Y-345734D01*
X-19099500Y-175000D01*
X-11335804Y-175000D01*
X-11314719Y-308126D01*
X-11253528Y-428220D01*
X-11158220Y-523528D01*
X-11038126Y-584719D01*
X-10905000Y-605804D01*
X-10771874Y-584719D01*
X-10651780Y-523528D01*
X-10556472Y-428220D01*
X-10552340Y-420111D01*
X-10530927Y-398700D01*
X-10501015Y-393964D01*
X-10474034Y-407713D01*
X-10458220Y-423528D01*
X-10338126Y-484719D01*
X-10205000Y-505804D01*
X-10071874Y-484719D01*
X-10003734Y-450000D01*
X-9330804Y-450000D01*
X-9309719Y-583126D01*
X-9248528Y-703220D01*
X-9153220Y-798528D01*
X-9033126Y-859719D01*
X-8900000Y-880804D01*
X-8766874Y-859719D01*
X-8646780Y-798528D01*
X-8551472Y-703220D01*
X-8524245Y-649785D01*
X-8492030Y-586560D01*
X-8492028Y-586556D01*
X-8490281Y-583126D01*
X-8475047Y-486942D01*
X-8461298Y-459959D01*
X-8434315Y-446210D01*
X-8404405Y-450947D01*
X-8338126Y-484719D01*
X-8205000Y-505804D01*
X-8071874Y-484719D01*
X-7951780Y-423528D01*
X-7928252Y-400000D01*
X-4230804Y-400000D01*
X-4209719Y-533126D01*
X-4148528Y-653220D01*
X-4053220Y-748528D01*
X-3933126Y-809719D01*
X-3800000Y-830804D01*
X-3666874Y-809719D01*
X-3661908Y-807189D01*
X-3615511Y-783548D01*
X-3546780Y-748528D01*
X-3451472Y-653220D01*
X-3417507Y-586560D01*
X-3392030Y-536560D01*
X-3392028Y-536556D01*
X-3390281Y-533126D01*
X-3369196Y-400000D01*
X-3387928Y-281728D01*
X-3389678Y-270680D01*
X-3389678Y-270678D01*
X-3390281Y-266874D01*
X-3392027Y-263445D01*
X-3392030Y-263439D01*
X-3437093Y-175000D01*
X-435804Y-175000D01*
X-414719Y-308126D01*
X-353528Y-428220D01*
X-258220Y-523528D01*
X-138126Y-584719D01*
X-5000Y-605804D01*
X128126Y-584719D01*
X248220Y-523528D01*
X325352Y-446395D01*
X360000Y-432044D01*
X394647Y-446395D01*
X446780Y-498528D01*
X566874Y-559719D01*
X700000Y-580804D01*
X833126Y-559719D01*
X953220Y-498528D01*
X1015352Y-436396D01*
X1050000Y-422044D01*
X1084648Y-436396D01*
X1146780Y-498528D01*
X1266874Y-559719D01*
X1400000Y-580804D01*
X1533126Y-559719D01*
X1653220Y-498528D01*
X1748528Y-403220D01*
X1809719Y-283126D01*
X1830804Y-150000D01*
X1809719Y-16874D01*
X1806073Y-9719D01*
X1785733Y30201D01*
X1748528Y103220D01*
X1653220Y198528D01*
X1533126Y259719D01*
X1400000Y280804D01*
X1266874Y259719D01*
X1146780Y198528D01*
X1144053Y195801D01*
X1084648Y136396D01*
X1050000Y122044D01*
X1015352Y136396D01*
X994035Y157713D01*
X953220Y198528D01*
X833126Y259719D01*
X700000Y280804D01*
X566874Y259719D01*
X446780Y198528D01*
X444053Y195801D01*
X369647Y121395D01*
X347681Y108713D01*
X322316Y108713D01*
X300355Y121391D01*
X248220Y173528D01*
X128126Y234719D01*
X-5000Y255804D01*
X-138126Y234719D01*
X-258220Y173528D01*
X-353528Y78220D01*
X-414719Y-41874D01*
X-435804Y-175000D01*
X-3437093Y-175000D01*
X-3449722Y-150214D01*
X-3449722Y-150212D01*
X-3451472Y-146780D01*
X-3454195Y-144056D01*
X-3454198Y-144053D01*
X-3544053Y-54198D01*
X-3544056Y-54195D01*
X-3546780Y-51472D01*
X-3550212Y-49722D01*
X-3550214Y-49722D01*
X-3663439Y7969D01*
X-3663440Y7969D01*
X-3666874Y9719D01*
X-3800000Y30804D01*
X-3933126Y9719D01*
X-4053220Y-51472D01*
X-4148528Y-146780D01*
X-4209719Y-266874D01*
X-4230804Y-400000D01*
X-7928252Y-400000D01*
X-7856472Y-328220D01*
X-7827154Y-270680D01*
X-7797030Y-211560D01*
X-7797028Y-211556D01*
X-7795281Y-208126D01*
X-7774196Y-75000D01*
X-7795281Y58126D01*
X-7797028Y61556D01*
X-7797030Y61560D01*
X-7846023Y157713D01*
X-7856472Y178220D01*
X-7951780Y273528D01*
X-8071874Y334719D01*
X-8205000Y355804D01*
X-8338126Y334719D01*
X-8458220Y273528D01*
X-8553528Y178220D01*
X-8614719Y58126D01*
X-8629953Y-38059D01*
X-8643700Y-65040D01*
X-8670683Y-78789D01*
X-8700594Y-74052D01*
X-8741480Y-53220D01*
X-8766874Y-40281D01*
X-8770678Y-39678D01*
X-8770680Y-39678D01*
X-8896193Y-19799D01*
X-8900000Y-19196D01*
X-9033126Y-40281D01*
X-9036556Y-42028D01*
X-9036560Y-42030D01*
X-9122926Y-86036D01*
X-9153220Y-101472D01*
X-9248528Y-196780D01*
X-9294273Y-286560D01*
X-9307011Y-311560D01*
X-9309719Y-316874D01*
X-9330804Y-450000D01*
X-10003734Y-450000D01*
X-9951780Y-423528D01*
X-9856472Y-328220D01*
X-9827154Y-270680D01*
X-9797030Y-211560D01*
X-9797028Y-211556D01*
X-9795281Y-208126D01*
X-9774196Y-75000D01*
X-9795281Y58126D01*
X-9797028Y61556D01*
X-9797030Y61560D01*
X-9846023Y157713D01*
X-9856472Y178220D01*
X-9951780Y273528D01*
X-10071874Y334719D01*
X-10205000Y355804D01*
X-10338126Y334719D01*
X-10458220Y273528D01*
X-10553528Y178220D01*
X-10557308Y170801D01*
X-10557657Y170116D01*
X-10579071Y148702D01*
X-10608982Y143964D01*
X-10635965Y157713D01*
X-10649053Y170801D01*
X-10651780Y173528D01*
X-10771874Y234719D01*
X-10905000Y255804D01*
X-11038126Y234719D01*
X-11158220Y173528D01*
X-11253528Y78220D01*
X-11314719Y-41874D01*
X-11335804Y-175000D01*
X-19099500Y-175000D01*
X-19099500Y619748D01*
X-19099500Y875000D01*
X-7185804Y875000D01*
X-7164719Y741874D01*
X-7103528Y621780D01*
X-7008220Y526472D01*
X-6977926Y511036D01*
X-6891560Y467030D01*
X-6891556Y467028D01*
X-6888126Y465281D01*
X-6755000Y444196D01*
X-6751193Y444799D01*
X-6625680Y464678D01*
X-6625678Y464678D01*
X-6621874Y465281D01*
X-6618445Y467027D01*
X-6618439Y467030D01*
X-6505214Y524722D01*
X-6505212Y524722D01*
X-6501780Y526472D01*
X-6499056Y529195D01*
X-6499053Y529198D01*
X-6409198Y619053D01*
X-6409195Y619056D01*
X-6406472Y621780D01*
X-6401605Y631332D01*
X-6347030Y738439D01*
X-6347027Y738445D01*
X-6345281Y741874D01*
X-6335751Y802041D01*
X-6324799Y871193D01*
X-6324196Y875000D01*
X-6345281Y1008126D01*
X-6347028Y1011556D01*
X-6347030Y1011560D01*
X-6353878Y1025000D01*
X-5335804Y1025000D01*
X-5314719Y891874D01*
X-5312969Y888440D01*
X-5312969Y888439D01*
X-5299283Y861580D01*
X-5253528Y771780D01*
X-5158220Y676472D01*
X-5154787Y674723D01*
X-5154783Y674720D01*
X-5115854Y654885D01*
X-5092354Y628786D01*
X-5092354Y593666D01*
X-5115852Y567567D01*
X-5153220Y548528D01*
X-5248528Y453220D01*
X-5309719Y333126D01*
X-5330804Y200000D01*
X-5309719Y66874D01*
X-5307969Y63440D01*
X-5307969Y63439D01*
X-5303322Y54319D01*
X-5248528Y-53220D01*
X-5153220Y-148528D01*
X-5033126Y-209719D01*
X-4900000Y-230804D01*
X-4766874Y-209719D01*
X-4646780Y-148528D01*
X-4551472Y-53220D01*
X-4532953Y-16874D01*
X-4492030Y63439D01*
X-4492027Y63445D01*
X-4490281Y66874D01*
X-4469196Y200000D01*
X-4490281Y333126D01*
X-4492028Y336556D01*
X-4492030Y336560D01*
X-4549722Y449785D01*
X-4551472Y453220D01*
X-4646780Y548528D01*
X-4689146Y570114D01*
X-4712645Y596212D01*
X-4712646Y631332D01*
X-4689147Y657432D01*
X-4655212Y674723D01*
X-4655210Y674724D01*
X-4651780Y676472D01*
X-4649056Y679195D01*
X-4649053Y679198D01*
X-4559198Y769053D01*
X-4559195Y769056D01*
X-4556472Y771780D01*
X-4527154Y829319D01*
X-4497030Y888439D01*
X-4497027Y888445D01*
X-4495281Y891874D01*
X-4494402Y897420D01*
X-4474799Y1021193D01*
X-4474196Y1025000D01*
X-4495281Y1158126D01*
X-4497028Y1161556D01*
X-4497030Y1161560D01*
X-4548941Y1263439D01*
X-4556472Y1278220D01*
X-4651780Y1373528D01*
X-4771874Y1434719D01*
X-4905000Y1455804D01*
X-5038126Y1434719D01*
X-5158220Y1373528D01*
X-5253528Y1278220D01*
X-5314719Y1158126D01*
X-5335804Y1025000D01*
X-6353878Y1025000D01*
X-6404722Y1124785D01*
X-6406472Y1128220D01*
X-6501780Y1223528D01*
X-6621874Y1284719D01*
X-6755000Y1305804D01*
X-6888126Y1284719D01*
X-7008220Y1223528D01*
X-7103528Y1128220D01*
X-7164719Y1008126D01*
X-7185804Y875000D01*
X-19099500Y875000D01*
X-19099500Y1154266D01*
X-19099604Y1155375D01*
X-19099605Y1155396D01*
X-19102075Y1181731D01*
X-19102076Y1181736D01*
X-19102354Y1184699D01*
X-19114987Y1220801D01*
X-19145994Y1309416D01*
X-19145994Y1309417D01*
X-19147207Y1312882D01*
X-19149384Y1315832D01*
X-19149387Y1315837D01*
X-19211502Y1400000D01*
X-18530804Y1400000D01*
X-18509719Y1266874D01*
X-18448528Y1146780D01*
X-18353220Y1051472D01*
X-18349785Y1049722D01*
X-18236560Y992030D01*
X-18236556Y992028D01*
X-18233126Y990281D01*
X-18100000Y969196D01*
X-18096193Y969799D01*
X-17970680Y989678D01*
X-17970678Y989678D01*
X-17966874Y990281D01*
X-17963445Y992027D01*
X-17963439Y992030D01*
X-17850214Y1049722D01*
X-17850212Y1049722D01*
X-17846780Y1051472D01*
X-17844056Y1054195D01*
X-17844053Y1054198D01*
X-17754198Y1144053D01*
X-17754195Y1144056D01*
X-17751472Y1146780D01*
X-17749722Y1150214D01*
X-17692030Y1263439D01*
X-17692027Y1263445D01*
X-17690281Y1266874D01*
X-17687454Y1284719D01*
X-17669799Y1396193D01*
X-17669196Y1400000D01*
X-17690281Y1533126D01*
X-17692028Y1536556D01*
X-17692030Y1536560D01*
X-17749722Y1649785D01*
X-17751472Y1653220D01*
X-17846780Y1748528D01*
X-17937592Y1794799D01*
X-17963439Y1807969D01*
X-17963440Y1807969D01*
X-17966874Y1809719D01*
X-18100000Y1830804D01*
X-18233126Y1809719D01*
X-18353220Y1748528D01*
X-18448528Y1653220D01*
X-18509719Y1533126D01*
X-18530804Y1400000D01*
X-19211502Y1400000D01*
X-19225669Y1419195D01*
X-19227850Y1422150D01*
X-19305016Y1479101D01*
X-19334162Y1500612D01*
X-19334164Y1500613D01*
X-19337118Y1502793D01*
X-19465301Y1547646D01*
X-19489078Y1549875D01*
X-19494603Y1550394D01*
X-19494604Y1550394D01*
X-19495734Y1550500D01*
X-20030252Y1550500D01*
X-20780252Y1550500D01*
X-21530252Y1550500D01*
X-22495734Y1550500D01*
X-23104266Y1550500D01*
X-23134699Y1547646D01*
X-23262882Y1502793D01*
X-23372150Y1422150D01*
X-23386076Y1403280D01*
X-23410620Y1385693D01*
X-23440816Y1385834D01*
X-23465196Y1403652D01*
X-23474500Y1432379D01*
X-23474500Y1900000D01*
X-15930804Y1900000D01*
X-15909719Y1766874D01*
X-15907969Y1763440D01*
X-15907969Y1763439D01*
X-15901130Y1750017D01*
X-15848528Y1646780D01*
X-15753220Y1551472D01*
X-15730328Y1539808D01*
X-15636560Y1492030D01*
X-15636556Y1492028D01*
X-15633126Y1490281D01*
X-15500000Y1469196D01*
X-15496193Y1469799D01*
X-15370680Y1489678D01*
X-15370678Y1489678D01*
X-15366874Y1490281D01*
X-15363445Y1492027D01*
X-15363439Y1492030D01*
X-15250214Y1549722D01*
X-15250212Y1549722D01*
X-15246780Y1551472D01*
X-15244056Y1554195D01*
X-15244053Y1554198D01*
X-15154198Y1644053D01*
X-15154195Y1644056D01*
X-15151472Y1646780D01*
X-15149722Y1650214D01*
X-15092030Y1763439D01*
X-15092027Y1763445D01*
X-15090281Y1766874D01*
X-15087297Y1785711D01*
X-15069799Y1896193D01*
X-15069196Y1900000D01*
X-15090281Y2033126D01*
X-15092028Y2036556D01*
X-15092030Y2036560D01*
X-15149722Y2149785D01*
X-15151472Y2153220D01*
X-15214164Y2215912D01*
X-14998085Y2215912D01*
X-14977000Y2082786D01*
X-14915809Y1962692D01*
X-14820501Y1867384D01*
X-14817066Y1865634D01*
X-14703841Y1807942D01*
X-14703837Y1807940D01*
X-14700407Y1806193D01*
X-14567281Y1785108D01*
X-14563474Y1785711D01*
X-14437961Y1805590D01*
X-14437959Y1805590D01*
X-14434155Y1806193D01*
X-14430726Y1807939D01*
X-14430720Y1807942D01*
X-14317495Y1865634D01*
X-14317493Y1865634D01*
X-14314061Y1867384D01*
X-14311337Y1870107D01*
X-14311334Y1870110D01*
X-14221479Y1959965D01*
X-14221476Y1959968D01*
X-14218753Y1962692D01*
X-14213325Y1973345D01*
X-14159311Y2079351D01*
X-14159308Y2079357D01*
X-14157562Y2082786D01*
X-14156666Y2088439D01*
X-14137080Y2212105D01*
X-14136477Y2215912D01*
X-14151057Y2307969D01*
X-14156959Y2345231D01*
X-14157562Y2349038D01*
X-14159309Y2352468D01*
X-14159311Y2352472D01*
X-14208750Y2449500D01*
X-14218753Y2469132D01*
X-14314061Y2564440D01*
X-14434155Y2625631D01*
X-14567281Y2646716D01*
X-14700407Y2625631D01*
X-14820501Y2564440D01*
X-14915809Y2469132D01*
X-14977000Y2349038D01*
X-14998085Y2215912D01*
X-15214164Y2215912D01*
X-15246780Y2248528D01*
X-15366874Y2309719D01*
X-15500000Y2330804D01*
X-15633126Y2309719D01*
X-15753220Y2248528D01*
X-15848528Y2153220D01*
X-15909719Y2033126D01*
X-15930804Y1900000D01*
X-23474500Y1900000D01*
X-23474500Y2568464D01*
X-23465196Y2597191D01*
X-23440816Y2615009D01*
X-23410620Y2615150D01*
X-23386075Y2597561D01*
X-23373972Y2581162D01*
X-23368837Y2576027D01*
X-23265600Y2499834D01*
X-23259180Y2496441D01*
X-23137419Y2453835D01*
X-23131637Y2452572D01*
X-23105333Y2450105D01*
X-23103067Y2450000D01*
X-22909747Y2450000D01*
X-22902854Y2452854D01*
X-22900000Y2459747D01*
X-22700000Y2459747D01*
X-22697145Y2452854D01*
X-22690253Y2450000D01*
X-22159747Y2450000D01*
X-22152854Y2452854D01*
X-22150000Y2459747D01*
X-21950000Y2459747D01*
X-21947145Y2452854D01*
X-21940253Y2450000D01*
X-21409747Y2450000D01*
X-21402854Y2452854D01*
X-21400000Y2459747D01*
X-21200000Y2459747D01*
X-21197145Y2452854D01*
X-21190253Y2450000D01*
X-20659747Y2450000D01*
X-20652854Y2452854D01*
X-20650000Y2459747D01*
X-20450000Y2459747D01*
X-20447145Y2452854D01*
X-20440253Y2450000D01*
X-19909747Y2450000D01*
X-19902854Y2452854D01*
X-19900000Y2459747D01*
X-19900000Y2459748D01*
X-19700000Y2459748D01*
X-19697145Y2452855D01*
X-19690253Y2450001D01*
X-19496935Y2450001D01*
X-19494664Y2450107D01*
X-19468362Y2452572D01*
X-19462581Y2453835D01*
X-19340819Y2496441D01*
X-19334399Y2499834D01*
X-19231162Y2576027D01*
X-19226027Y2581162D01*
X-19149834Y2684399D01*
X-19146441Y2690819D01*
X-19103835Y2812580D01*
X-19102572Y2818362D01*
X-19100105Y2844666D01*
X-19100000Y2846933D01*
X-19100000Y3040253D01*
X-19102854Y3047145D01*
X-19109747Y3050000D01*
X-19690253Y3050000D01*
X-19697145Y3047145D01*
X-19700000Y3040253D01*
X-19700000Y2459748D01*
X-19900000Y2459748D01*
X-19900000Y3040253D01*
X-19902854Y3047145D01*
X-19909747Y3050000D01*
X-20440253Y3050000D01*
X-20447145Y3047145D01*
X-20450000Y3040253D01*
X-20450000Y2459747D01*
X-20650000Y2459747D01*
X-20650000Y3040253D01*
X-20652854Y3047145D01*
X-20659747Y3050000D01*
X-21190253Y3050000D01*
X-21197145Y3047145D01*
X-21200000Y3040253D01*
X-21200000Y2459747D01*
X-21400000Y2459747D01*
X-21400000Y3040253D01*
X-21402854Y3047145D01*
X-21409747Y3050000D01*
X-21940253Y3050000D01*
X-21947145Y3047145D01*
X-21950000Y3040253D01*
X-21950000Y2459747D01*
X-22150000Y2459747D01*
X-22150000Y3040253D01*
X-22152854Y3047145D01*
X-22159747Y3050000D01*
X-22690253Y3050000D01*
X-22697145Y3047145D01*
X-22700000Y3040253D01*
X-22700000Y2459747D01*
X-22900000Y2459747D01*
X-22900000Y3259747D01*
X-22700000Y3259747D01*
X-22697145Y3252854D01*
X-22690253Y3250000D01*
X-22159747Y3250000D01*
X-22152854Y3252854D01*
X-22150000Y3259747D01*
X-21950000Y3259747D01*
X-21947145Y3252854D01*
X-21940253Y3250000D01*
X-21409747Y3250000D01*
X-21402854Y3252854D01*
X-21400000Y3259747D01*
X-21200000Y3259747D01*
X-21197145Y3252854D01*
X-21190253Y3250000D01*
X-20659747Y3250000D01*
X-20652854Y3252854D01*
X-20650000Y3259747D01*
X-20450000Y3259747D01*
X-20447145Y3252854D01*
X-20440253Y3250000D01*
X-19909747Y3250000D01*
X-19902854Y3252854D01*
X-19900000Y3259747D01*
X-19700000Y3259747D01*
X-19697145Y3252854D01*
X-19690253Y3250000D01*
X-19109747Y3250000D01*
X-19102854Y3252854D01*
X-19100000Y3259747D01*
X-19100000Y3624500D01*
X-15653748Y3624500D01*
X-15632663Y3491374D01*
X-15571472Y3371280D01*
X-15476164Y3275972D01*
X-15472729Y3274222D01*
X-15359504Y3216530D01*
X-15359500Y3216528D01*
X-15356070Y3214781D01*
X-15222944Y3193696D01*
X-15219137Y3194299D01*
X-15093624Y3214178D01*
X-15093622Y3214178D01*
X-15089818Y3214781D01*
X-15086389Y3216527D01*
X-15086383Y3216530D01*
X-14973158Y3274222D01*
X-14973156Y3274222D01*
X-14969724Y3275972D01*
X-14967000Y3278695D01*
X-14966997Y3278698D01*
X-14877142Y3368553D01*
X-14877139Y3368556D01*
X-14874416Y3371280D01*
X-14872666Y3374714D01*
X-14814974Y3487939D01*
X-14814971Y3487945D01*
X-14813225Y3491374D01*
X-14799980Y3575000D01*
X-13035804Y3575000D01*
X-13014719Y3441874D01*
X-12953528Y3321780D01*
X-12950801Y3319053D01*
X-12866396Y3234648D01*
X-12852044Y3200000D01*
X-12866396Y3165352D01*
X-12948528Y3083220D01*
X-13009719Y2963126D01*
X-13030804Y2830000D01*
X-13009719Y2696874D01*
X-12948528Y2576780D01*
X-12853220Y2481472D01*
X-12840938Y2475214D01*
X-12736560Y2422030D01*
X-12736556Y2422028D01*
X-12733126Y2420281D01*
X-12600000Y2399196D01*
X-12596193Y2399799D01*
X-12470680Y2419678D01*
X-12470678Y2419678D01*
X-12466874Y2420281D01*
X-12463445Y2422027D01*
X-12463439Y2422030D01*
X-12350214Y2479722D01*
X-12350212Y2479722D01*
X-12346780Y2481472D01*
X-12344056Y2484195D01*
X-12344053Y2484198D01*
X-12254198Y2574053D01*
X-12254195Y2574056D01*
X-12251472Y2576780D01*
X-12249722Y2580214D01*
X-12192030Y2693439D01*
X-12192027Y2693445D01*
X-12190281Y2696874D01*
X-12189606Y2701132D01*
X-12185826Y2725000D01*
X-7135804Y2725000D01*
X-7114719Y2591874D01*
X-7112969Y2588440D01*
X-7112969Y2588439D01*
X-7101632Y2566189D01*
X-7053528Y2471780D01*
X-6958220Y2376472D01*
X-6954785Y2374722D01*
X-6841560Y2317030D01*
X-6841556Y2317028D01*
X-6838126Y2315281D01*
X-6705000Y2294196D01*
X-6701193Y2294799D01*
X-6575680Y2314678D01*
X-6575678Y2314678D01*
X-6571874Y2315281D01*
X-6568445Y2317027D01*
X-6568439Y2317030D01*
X-6455214Y2374722D01*
X-6455212Y2374722D01*
X-6451780Y2376472D01*
X-6449056Y2379195D01*
X-6449053Y2379198D01*
X-6359198Y2469053D01*
X-6359195Y2469056D01*
X-6356472Y2471780D01*
X-6354722Y2475214D01*
X-6297030Y2588439D01*
X-6297027Y2588445D01*
X-6295281Y2591874D01*
X-6290211Y2623881D01*
X-6274799Y2721193D01*
X-6274196Y2725000D01*
X-5735804Y2725000D01*
X-5714719Y2591874D01*
X-5712969Y2588440D01*
X-5712969Y2588439D01*
X-5701632Y2566189D01*
X-5653528Y2471780D01*
X-5558220Y2376472D01*
X-5554785Y2374722D01*
X-5441560Y2317030D01*
X-5441556Y2317028D01*
X-5438126Y2315281D01*
X-5434319Y2314678D01*
X-5372755Y2304927D01*
X-5349583Y2294610D01*
X-5334674Y2274088D01*
X-5332024Y2248863D01*
X-5335804Y2225000D01*
X-5314719Y2091874D01*
X-5312969Y2088440D01*
X-5312969Y2088439D01*
X-5308338Y2079351D01*
X-5253528Y1971780D01*
X-5158220Y1876472D01*
X-5154785Y1874722D01*
X-5041560Y1817030D01*
X-5041556Y1817028D01*
X-5038126Y1815281D01*
X-5034319Y1814678D01*
X-4976939Y1805590D01*
X-4905000Y1794196D01*
X-4901193Y1794799D01*
X-4775680Y1814678D01*
X-4775678Y1814678D01*
X-4771874Y1815281D01*
X-4768445Y1817027D01*
X-4768439Y1817030D01*
X-4655214Y1874722D01*
X-4655212Y1874722D01*
X-4651780Y1876472D01*
X-4649056Y1879195D01*
X-4649053Y1879198D01*
X-4559198Y1969053D01*
X-4559195Y1969056D01*
X-4556472Y1971780D01*
X-4549355Y1985748D01*
X-4497030Y2088439D01*
X-4497027Y2088445D01*
X-4495281Y2091874D01*
X-4474196Y2225000D01*
X-4488772Y2317030D01*
X-4494678Y2354319D01*
X-4495281Y2358126D01*
X-4497028Y2361556D01*
X-4497030Y2361560D01*
X-4544047Y2453835D01*
X-4556472Y2478220D01*
X-4651780Y2573528D01*
X-4771874Y2634719D01*
X-4828888Y2643748D01*
X-4837243Y2645072D01*
X-4869219Y2664667D01*
X-4877975Y2701132D01*
X-4874799Y2721190D01*
X-4874799Y2721193D01*
X-4874196Y2725000D01*
X-4895281Y2858126D01*
X-4897028Y2861556D01*
X-4897030Y2861560D01*
X-4941036Y2947926D01*
X-4956472Y2978220D01*
X-5051780Y3073528D01*
X-5171874Y3134719D01*
X-5305000Y3155804D01*
X-5438126Y3134719D01*
X-5558220Y3073528D01*
X-5653528Y2978220D01*
X-5714719Y2858126D01*
X-5735804Y2725000D01*
X-6274196Y2725000D01*
X-6295281Y2858126D01*
X-6297028Y2861556D01*
X-6297030Y2861560D01*
X-6341036Y2947926D01*
X-6356472Y2978220D01*
X-6451780Y3073528D01*
X-6571874Y3134719D01*
X-6705000Y3155804D01*
X-6838126Y3134719D01*
X-6958220Y3073528D01*
X-7053528Y2978220D01*
X-7114719Y2858126D01*
X-7135804Y2725000D01*
X-12185826Y2725000D01*
X-12169799Y2826193D01*
X-12169196Y2830000D01*
X-12190281Y2963126D01*
X-12192028Y2966556D01*
X-12192030Y2966560D01*
X-12236036Y3052926D01*
X-12251472Y3083220D01*
X-12338604Y3170352D01*
X-12352956Y3205000D01*
X-12338604Y3239648D01*
X-12259198Y3319053D01*
X-12259195Y3319056D01*
X-12256472Y3321780D01*
X-12254722Y3325214D01*
X-12197030Y3438439D01*
X-12197027Y3438445D01*
X-12195281Y3441874D01*
X-12174196Y3575000D01*
X-12195281Y3708126D01*
X-12197028Y3711556D01*
X-12197030Y3711560D01*
X-12254722Y3824785D01*
X-12256472Y3828220D01*
X-12351780Y3923528D01*
X-12461038Y3979198D01*
X-12468439Y3982969D01*
X-12468440Y3982969D01*
X-12471874Y3984719D01*
X-12605000Y4005804D01*
X-12738126Y3984719D01*
X-12858220Y3923528D01*
X-12953528Y3828220D01*
X-13014719Y3708126D01*
X-13035804Y3575000D01*
X-14799980Y3575000D01*
X-14792140Y3624500D01*
X-14813225Y3757626D01*
X-14814972Y3761056D01*
X-14814974Y3761060D01*
X-14872666Y3874285D01*
X-14874416Y3877720D01*
X-14969724Y3973028D01*
X-15089818Y4034219D01*
X-15222944Y4055304D01*
X-15356070Y4034219D01*
X-15476164Y3973028D01*
X-15571472Y3877720D01*
X-15632663Y3757626D01*
X-15653748Y3624500D01*
X-19100000Y3624500D01*
X-19100000Y3790253D01*
X-19102854Y3797145D01*
X-19109747Y3800000D01*
X-19690253Y3800000D01*
X-19697145Y3797145D01*
X-19700000Y3790253D01*
X-19700000Y3259747D01*
X-19900000Y3259747D01*
X-19900000Y3790253D01*
X-19902854Y3797145D01*
X-19909747Y3800000D01*
X-20440253Y3800000D01*
X-20447145Y3797145D01*
X-20450000Y3790253D01*
X-20450000Y3259747D01*
X-20650000Y3259747D01*
X-20650000Y3790253D01*
X-20652854Y3797145D01*
X-20659747Y3800000D01*
X-21190253Y3800000D01*
X-21197145Y3797145D01*
X-21200000Y3790253D01*
X-21200000Y3259747D01*
X-21400000Y3259747D01*
X-21400000Y3790253D01*
X-21402854Y3797145D01*
X-21409747Y3800000D01*
X-21940253Y3800000D01*
X-21947145Y3797145D01*
X-21950000Y3790253D01*
X-21950000Y3259747D01*
X-22150000Y3259747D01*
X-22150000Y3790253D01*
X-22152854Y3797145D01*
X-22159747Y3800000D01*
X-22690253Y3800000D01*
X-22697145Y3797145D01*
X-22700000Y3790253D01*
X-22700000Y3259747D01*
X-22900000Y3259747D01*
X-22900000Y4009747D01*
X-22700000Y4009747D01*
X-22697145Y4002854D01*
X-22690253Y4000000D01*
X-22159747Y4000000D01*
X-22152854Y4002854D01*
X-22150000Y4009747D01*
X-21950000Y4009747D01*
X-21947145Y4002854D01*
X-21940253Y4000000D01*
X-21409747Y4000000D01*
X-21402854Y4002854D01*
X-21400000Y4009747D01*
X-21200000Y4009747D01*
X-21197145Y4002854D01*
X-21190253Y4000000D01*
X-20659747Y4000000D01*
X-20652854Y4002854D01*
X-20650000Y4009747D01*
X-20450000Y4009747D01*
X-20447145Y4002854D01*
X-20440253Y4000000D01*
X-19909747Y4000000D01*
X-19902854Y4002854D01*
X-19900000Y4009747D01*
X-19700000Y4009747D01*
X-19697145Y4002854D01*
X-19690253Y4000000D01*
X-19109747Y4000000D01*
X-19102854Y4002854D01*
X-19100000Y4009747D01*
X-19100000Y4325000D01*
X-5835804Y4325000D01*
X-5814719Y4191874D01*
X-5812969Y4188440D01*
X-5812969Y4188439D01*
X-5805371Y4173528D01*
X-5753528Y4071780D01*
X-5658220Y3976472D01*
X-5628954Y3961560D01*
X-5541560Y3917030D01*
X-5541556Y3917028D01*
X-5538126Y3915281D01*
X-5534321Y3914678D01*
X-5534320Y3914678D01*
X-5423979Y3897202D01*
X-5400807Y3886885D01*
X-5385898Y3866364D01*
X-5383248Y3841137D01*
X-5384862Y3830946D01*
X-5385804Y3825000D01*
X-5364719Y3691874D01*
X-5303528Y3571780D01*
X-5208220Y3476472D01*
X-5204785Y3474722D01*
X-5091560Y3417030D01*
X-5091556Y3417028D01*
X-5088126Y3415281D01*
X-4955000Y3394196D01*
X-4951193Y3394799D01*
X-4825680Y3414678D01*
X-4825678Y3414678D01*
X-4821874Y3415281D01*
X-4818445Y3417027D01*
X-4818439Y3417030D01*
X-4705214Y3474722D01*
X-4705212Y3474722D01*
X-4701780Y3476472D01*
X-4699056Y3479195D01*
X-4699053Y3479198D01*
X-4678251Y3500000D01*
X1169196Y3500000D01*
X1169799Y3496193D01*
X1185953Y3394196D01*
X1190281Y3366874D01*
X1192027Y3363445D01*
X1192030Y3363439D01*
X1239743Y3269799D01*
X1251472Y3246780D01*
X1254195Y3244056D01*
X1254198Y3244053D01*
X1344053Y3154198D01*
X1344056Y3154195D01*
X1346780Y3151472D01*
X1350212Y3149722D01*
X1350214Y3149722D01*
X1463439Y3092030D01*
X1463445Y3092027D01*
X1466874Y3090281D01*
X1470678Y3089678D01*
X1470680Y3089678D01*
X1533143Y3079785D01*
X1589866Y3070801D01*
X1596193Y3069799D01*
X1600000Y3069196D01*
X1603807Y3069799D01*
X1610134Y3070801D01*
X1733126Y3090281D01*
X1736556Y3092028D01*
X1736560Y3092030D01*
X1849785Y3149722D01*
X1853220Y3151472D01*
X1948528Y3246780D01*
X2009719Y3366874D01*
X2030804Y3500000D01*
X2009719Y3633126D01*
X1948528Y3753220D01*
X1853220Y3848528D01*
X1733126Y3909719D01*
X1600000Y3930804D01*
X1466874Y3909719D01*
X1346780Y3848528D01*
X1251472Y3753220D01*
X1249722Y3749785D01*
X1192030Y3636560D01*
X1192028Y3636556D01*
X1190281Y3633126D01*
X1169196Y3500000D01*
X-4678251Y3500000D01*
X-4609198Y3569053D01*
X-4609195Y3569056D01*
X-4606472Y3571780D01*
X-4604722Y3575214D01*
X-4547030Y3688439D01*
X-4547027Y3688445D01*
X-4545281Y3691874D01*
X-4529097Y3794053D01*
X-4524799Y3821193D01*
X-4524196Y3825000D01*
X-4545281Y3958126D01*
X-4547028Y3961556D01*
X-4547030Y3961560D01*
X-4594033Y4053807D01*
X-4606472Y4078220D01*
X-4701780Y4173528D01*
X-4792523Y4219764D01*
X-4818439Y4232969D01*
X-4818440Y4232969D01*
X-4821874Y4234719D01*
X-4936021Y4252798D01*
X-4967996Y4272392D01*
X-4976752Y4308858D01*
X-4974799Y4321191D01*
X-4974799Y4321193D01*
X-4974196Y4325000D01*
X-4993994Y4450000D01*
X-4994678Y4454319D01*
X-4995281Y4458126D01*
X-4997028Y4461556D01*
X-4997030Y4461560D01*
X-5054722Y4574785D01*
X-5056472Y4578220D01*
X-5078252Y4600000D01*
X6169196Y4600000D01*
X6169799Y4596193D01*
X6187494Y4484467D01*
X6190281Y4466874D01*
X6192027Y4463445D01*
X6192030Y4463439D01*
X6249722Y4350214D01*
X6251472Y4346780D01*
X6254195Y4344056D01*
X6254198Y4344053D01*
X6344053Y4254198D01*
X6344056Y4254195D01*
X6346780Y4251472D01*
X6350212Y4249722D01*
X6350214Y4249722D01*
X6463439Y4192030D01*
X6463445Y4192027D01*
X6466874Y4190281D01*
X6470678Y4189678D01*
X6470680Y4189678D01*
X6561606Y4175277D01*
X6589866Y4170801D01*
X6596193Y4169799D01*
X6600000Y4169196D01*
X6603807Y4169799D01*
X6610134Y4170801D01*
X6687951Y4183126D01*
X6729319Y4189678D01*
X6733126Y4190281D01*
X6736556Y4192028D01*
X6736560Y4192030D01*
X6822926Y4236036D01*
X6853220Y4251472D01*
X6948528Y4346780D01*
X6994283Y4436580D01*
X7007969Y4463439D01*
X7007969Y4463440D01*
X7009719Y4466874D01*
X7030804Y4600000D01*
X7009719Y4733126D01*
X6948528Y4853220D01*
X6853220Y4948528D01*
X6733126Y5009719D01*
X6600000Y5030804D01*
X6466874Y5009719D01*
X6463440Y5007969D01*
X6463439Y5007969D01*
X6446170Y4999170D01*
X6346780Y4948528D01*
X6251472Y4853220D01*
X6249722Y4849785D01*
X6192030Y4736560D01*
X6192028Y4736556D01*
X6190281Y4733126D01*
X6169196Y4600000D01*
X-5078252Y4600000D01*
X-5151780Y4673528D01*
X-5271874Y4734719D01*
X-5405000Y4755804D01*
X-5538126Y4734719D01*
X-5658220Y4673528D01*
X-5753528Y4578220D01*
X-5814719Y4458126D01*
X-5835804Y4325000D01*
X-19100000Y4325000D01*
X-19100000Y4540253D01*
X-19102854Y4547145D01*
X-19109747Y4550000D01*
X-19690253Y4550000D01*
X-19697145Y4547145D01*
X-19700000Y4540253D01*
X-19700000Y4009747D01*
X-19900000Y4009747D01*
X-19900000Y4540253D01*
X-19902854Y4547145D01*
X-19909747Y4550000D01*
X-20440253Y4550000D01*
X-20447145Y4547145D01*
X-20450000Y4540253D01*
X-20450000Y4009747D01*
X-20650000Y4009747D01*
X-20650000Y4540253D01*
X-20652854Y4547145D01*
X-20659747Y4550000D01*
X-21190253Y4550000D01*
X-21197145Y4547145D01*
X-21200000Y4540253D01*
X-21200000Y4009747D01*
X-21400000Y4009747D01*
X-21400000Y4540253D01*
X-21402854Y4547145D01*
X-21409747Y4550000D01*
X-21940253Y4550000D01*
X-21947145Y4547145D01*
X-21950000Y4540253D01*
X-21950000Y4009747D01*
X-22150000Y4009747D01*
X-22150000Y4540253D01*
X-22152854Y4547145D01*
X-22159747Y4550000D01*
X-22690253Y4550000D01*
X-22697145Y4547145D01*
X-22700000Y4540253D01*
X-22700000Y4009747D01*
X-22900000Y4009747D01*
X-22900000Y4759747D01*
X-22700000Y4759747D01*
X-22697145Y4752854D01*
X-22690253Y4750000D01*
X-22159747Y4750000D01*
X-22152854Y4752854D01*
X-22150000Y4759747D01*
X-21950000Y4759747D01*
X-21947145Y4752854D01*
X-21940253Y4750000D01*
X-21409747Y4750000D01*
X-21402854Y4752854D01*
X-21400000Y4759747D01*
X-21200000Y4759747D01*
X-21197145Y4752854D01*
X-21190253Y4750000D01*
X-20659747Y4750000D01*
X-20652854Y4752854D01*
X-20650000Y4759747D01*
X-20450000Y4759747D01*
X-20447145Y4752854D01*
X-20440253Y4750000D01*
X-19909747Y4750000D01*
X-19902854Y4752854D01*
X-19900000Y4759747D01*
X-19700000Y4759747D01*
X-19697145Y4752854D01*
X-19690253Y4750000D01*
X-19109748Y4750000D01*
X-19102855Y4752854D01*
X-19100001Y4759747D01*
X-19100001Y4953065D01*
X-19100107Y4955335D01*
X-19102572Y4981637D01*
X-19103835Y4987418D01*
X-19146441Y5109180D01*
X-19149834Y5115600D01*
X-19226027Y5218837D01*
X-19231162Y5223972D01*
X-19334399Y5300165D01*
X-19340819Y5303558D01*
X-19462580Y5346164D01*
X-19468362Y5347427D01*
X-19494666Y5349894D01*
X-19496933Y5350000D01*
X-19690253Y5350000D01*
X-19697145Y5347145D01*
X-19700000Y5340253D01*
X-19700000Y4759747D01*
X-19900000Y4759747D01*
X-19900000Y5340252D01*
X-19902854Y5347144D01*
X-19909747Y5349999D01*
X-20030292Y5349999D01*
X-20030312Y5350000D01*
X-20440253Y5350000D01*
X-20447145Y5347145D01*
X-20450000Y5340253D01*
X-20450000Y4759747D01*
X-20650000Y4759747D01*
X-20650000Y5340253D01*
X-20652854Y5347145D01*
X-20659747Y5350000D01*
X-21190253Y5350000D01*
X-21197145Y5347145D01*
X-21200000Y5340253D01*
X-21200000Y4759747D01*
X-21400000Y4759747D01*
X-21400000Y5340253D01*
X-21402854Y5347145D01*
X-21409747Y5350000D01*
X-21940253Y5350000D01*
X-21947145Y5347145D01*
X-21950000Y5340253D01*
X-21950000Y4759747D01*
X-22150000Y4759747D01*
X-22150000Y5340253D01*
X-22152854Y5347145D01*
X-22159747Y5350000D01*
X-22569696Y5350000D01*
X-22569700Y5349999D01*
X-22690253Y5349999D01*
X-22697145Y5347144D01*
X-22700000Y5340252D01*
X-22700000Y4759747D01*
X-22900000Y4759747D01*
X-22900000Y5340252D01*
X-22902854Y5347144D01*
X-22909747Y5349999D01*
X-23103065Y5349999D01*
X-23105335Y5349892D01*
X-23131637Y5347427D01*
X-23137418Y5346164D01*
X-23259180Y5303558D01*
X-23265600Y5300165D01*
X-23368837Y5223972D01*
X-23373972Y5218837D01*
X-23386075Y5202439D01*
X-23410620Y5184850D01*
X-23440816Y5184991D01*
X-23465196Y5202809D01*
X-23474500Y5231536D01*
X-23474500Y5425000D01*
X-8135804Y5425000D01*
X-8114719Y5291874D01*
X-8053528Y5171780D01*
X-7958220Y5076472D01*
X-7954785Y5074722D01*
X-7841560Y5017030D01*
X-7841556Y5017028D01*
X-7838126Y5015281D01*
X-7705000Y4994196D01*
X-7701193Y4994799D01*
X-7575680Y5014678D01*
X-7575678Y5014678D01*
X-7571874Y5015281D01*
X-7568445Y5017027D01*
X-7568439Y5017030D01*
X-7455214Y5074722D01*
X-7455212Y5074722D01*
X-7451780Y5076472D01*
X-7449056Y5079195D01*
X-7449053Y5079198D01*
X-7359198Y5169053D01*
X-7359195Y5169056D01*
X-7356472Y5171780D01*
X-7349812Y5184850D01*
X-7297030Y5288439D01*
X-7297027Y5288445D01*
X-7295281Y5291874D01*
X-7293551Y5302793D01*
X-7274799Y5421193D01*
X-7274196Y5425000D01*
X-7295281Y5558126D01*
X-7297028Y5561556D01*
X-7297030Y5561560D01*
X-7354722Y5674785D01*
X-7356472Y5678220D01*
X-7451780Y5773528D01*
X-7503734Y5800000D01*
X-4830804Y5800000D01*
X-4809719Y5666874D01*
X-4748528Y5546780D01*
X-4653220Y5451472D01*
X-4649785Y5449722D01*
X-4536560Y5392030D01*
X-4536556Y5392028D01*
X-4533126Y5390281D01*
X-4400000Y5369196D01*
X-4396193Y5369799D01*
X-4270680Y5389678D01*
X-4270678Y5389678D01*
X-4266874Y5390281D01*
X-4263445Y5392027D01*
X-4263439Y5392030D01*
X-4150214Y5449722D01*
X-4150212Y5449722D01*
X-4146780Y5451472D01*
X-4144056Y5454195D01*
X-4144053Y5454198D01*
X-4054198Y5544053D01*
X-4054195Y5544056D01*
X-4051472Y5546780D01*
X-4049722Y5550214D01*
X-3992030Y5663439D01*
X-3992027Y5663445D01*
X-3990281Y5666874D01*
X-3969196Y5800000D01*
X-3990281Y5933126D01*
X-3992028Y5936556D01*
X-3992030Y5936560D01*
X-4049722Y6049785D01*
X-4051472Y6053220D01*
X-4146780Y6148528D01*
X-4266874Y6209719D01*
X-4400000Y6230804D01*
X-4533126Y6209719D01*
X-4653220Y6148528D01*
X-4748528Y6053220D01*
X-4809719Y5933126D01*
X-4830804Y5800000D01*
X-7503734Y5800000D01*
X-7571874Y5834719D01*
X-7705000Y5855804D01*
X-7838126Y5834719D01*
X-7958220Y5773528D01*
X-8053528Y5678220D01*
X-8114719Y5558126D01*
X-8135804Y5425000D01*
X-23474500Y5425000D01*
X-23474500Y6367621D01*
X-23465196Y6396348D01*
X-23440816Y6414166D01*
X-23410620Y6414307D01*
X-23386076Y6396719D01*
X-23372150Y6377850D01*
X-23369195Y6375669D01*
X-23265837Y6299387D01*
X-23265832Y6299384D01*
X-23262882Y6297207D01*
X-23259417Y6295994D01*
X-23259416Y6295994D01*
X-23137512Y6253338D01*
X-23137509Y6253337D01*
X-23134699Y6252354D01*
X-23131736Y6252076D01*
X-23131731Y6252075D01*
X-23105396Y6249605D01*
X-23105375Y6249604D01*
X-23104266Y6249500D01*
X-22569748Y6249500D01*
X-22495734Y6249500D01*
X-21819748Y6249500D01*
X-21530252Y6249500D01*
X-21069748Y6249500D01*
X-20780252Y6249500D01*
X-20104266Y6249500D01*
X-20030252Y6249500D01*
X-19496870Y6249500D01*
X-19495734Y6249500D01*
X-19494625Y6249603D01*
X-19494603Y6249605D01*
X-19468268Y6252075D01*
X-19468261Y6252076D01*
X-19465301Y6252354D01*
X-19462492Y6253336D01*
X-19462487Y6253338D01*
X-19340583Y6295994D01*
X-19340579Y6295995D01*
X-19337118Y6297207D01*
X-19334169Y6299382D01*
X-19334162Y6299387D01*
X-19230804Y6375669D01*
X-19230800Y6375672D01*
X-19227850Y6377850D01*
X-19225672Y6380800D01*
X-19225669Y6380804D01*
X-19211502Y6400000D01*
X-1830804Y6400000D01*
X-1809719Y6266874D01*
X-1807969Y6263440D01*
X-1807969Y6263439D01*
X-1799863Y6247530D01*
X-1748528Y6146780D01*
X-1653220Y6051472D01*
X-1649785Y6049722D01*
X-1536560Y5992030D01*
X-1536556Y5992028D01*
X-1533126Y5990281D01*
X-1400000Y5969196D01*
X-1396193Y5969799D01*
X-1270680Y5989678D01*
X-1270678Y5989678D01*
X-1266874Y5990281D01*
X-1263445Y5992027D01*
X-1263439Y5992030D01*
X-1150214Y6049722D01*
X-1150212Y6049722D01*
X-1146780Y6051472D01*
X-1144056Y6054195D01*
X-1144053Y6054198D01*
X-1054198Y6144053D01*
X-1054195Y6144056D01*
X-1051472Y6146780D01*
X-1018659Y6211179D01*
X-992560Y6234678D01*
X-957440Y6234678D01*
X-931341Y6211179D01*
X-898528Y6146780D01*
X-803220Y6051472D01*
X-799785Y6049722D01*
X-686560Y5992030D01*
X-686556Y5992028D01*
X-683126Y5990281D01*
X-550000Y5969196D01*
X-546193Y5969799D01*
X-420680Y5989678D01*
X-420678Y5989678D01*
X-416874Y5990281D01*
X-413445Y5992027D01*
X-413439Y5992030D01*
X-300214Y6049722D01*
X-300212Y6049722D01*
X-296780Y6051472D01*
X-294056Y6054195D01*
X-294053Y6054198D01*
X-204198Y6144053D01*
X-204195Y6144056D01*
X-201472Y6146780D01*
X-179614Y6189678D01*
X-142030Y6263439D01*
X-142027Y6263445D01*
X-140281Y6266874D01*
X-135060Y6299834D01*
X-123397Y6373475D01*
X-108542Y6399999D01*
X-41457Y6399999D01*
X-26603Y6373475D01*
X-9719Y6266874D01*
X-7969Y6263440D01*
X-7969Y6263439D01*
X20294Y6207969D01*
X51472Y6146780D01*
X54195Y6144056D01*
X54198Y6144053D01*
X144053Y6054198D01*
X144056Y6054195D01*
X146780Y6051472D01*
X150212Y6049722D01*
X150214Y6049722D01*
X263439Y5992030D01*
X263445Y5992027D01*
X266874Y5990281D01*
X270678Y5989678D01*
X270680Y5989678D01*
X396193Y5969799D01*
X400000Y5969196D01*
X403807Y5969799D01*
X529319Y5989678D01*
X533126Y5990281D01*
X536556Y5992028D01*
X536560Y5992030D01*
X649785Y6049722D01*
X653220Y6051472D01*
X748528Y6146780D01*
X799863Y6247530D01*
X807969Y6263439D01*
X807969Y6263440D01*
X809719Y6266874D01*
X830804Y6400000D01*
X809719Y6533126D01*
X775645Y6600000D01*
X7969196Y6600000D01*
X7969799Y6596193D01*
X7986488Y6490819D01*
X7990281Y6466874D01*
X7992027Y6463445D01*
X7992030Y6463439D01*
X8036752Y6375669D01*
X8051472Y6346780D01*
X8054195Y6344056D01*
X8054198Y6344053D01*
X8144053Y6254198D01*
X8144056Y6254195D01*
X8146780Y6251472D01*
X8150212Y6249722D01*
X8150214Y6249722D01*
X8263439Y6192030D01*
X8263445Y6192027D01*
X8266874Y6190281D01*
X8270678Y6189678D01*
X8270680Y6189678D01*
X8396193Y6169799D01*
X8400000Y6169196D01*
X8403807Y6169799D01*
X8529319Y6189678D01*
X8533126Y6190281D01*
X8536556Y6192028D01*
X8536560Y6192030D01*
X8645483Y6247530D01*
X8653220Y6251472D01*
X8748528Y6346780D01*
X8809719Y6466874D01*
X8830804Y6600000D01*
X8809719Y6733126D01*
X8748528Y6853220D01*
X8653220Y6948528D01*
X8533126Y7009719D01*
X8400000Y7030804D01*
X8266874Y7009719D01*
X8146780Y6948528D01*
X8051472Y6853220D01*
X8039743Y6830201D01*
X7992030Y6736560D01*
X7992028Y6736556D01*
X7990281Y6733126D01*
X7969196Y6600000D01*
X775645Y6600000D01*
X748528Y6653220D01*
X653220Y6748528D01*
X533126Y6809719D01*
X400000Y6830804D01*
X266874Y6809719D01*
X146780Y6748528D01*
X51472Y6653220D01*
X-9719Y6533126D01*
X-17474Y6484162D01*
X-26603Y6426524D01*
X-41457Y6399999D01*
X-108542Y6399999D01*
X-123397Y6426524D01*
X-139678Y6529320D01*
X-139678Y6529321D01*
X-140281Y6533126D01*
X-142028Y6536556D01*
X-142030Y6536560D01*
X-186036Y6622926D01*
X-201472Y6653220D01*
X-296780Y6748528D01*
X-416874Y6809719D01*
X-550000Y6830804D01*
X-683126Y6809719D01*
X-803220Y6748528D01*
X-898528Y6653220D01*
X-923705Y6603807D01*
X-931341Y6588821D01*
X-957440Y6565321D01*
X-992560Y6565321D01*
X-1018659Y6588821D01*
X-1049720Y6649783D01*
X-1049722Y6649786D01*
X-1051472Y6653220D01*
X-1146780Y6748528D01*
X-1266874Y6809719D01*
X-1400000Y6830804D01*
X-1533126Y6809719D01*
X-1653220Y6748528D01*
X-1748528Y6653220D01*
X-1809719Y6533126D01*
X-1830804Y6400000D01*
X-19211502Y6400000D01*
X-19149387Y6484162D01*
X-19149382Y6484169D01*
X-19147207Y6487118D01*
X-19145995Y6490579D01*
X-19145994Y6490583D01*
X-19103338Y6612487D01*
X-19103336Y6612492D01*
X-19102354Y6615301D01*
X-19102076Y6618261D01*
X-19102075Y6618268D01*
X-19099605Y6644603D01*
X-19099603Y6644625D01*
X-19099500Y6645734D01*
X-19099500Y7254266D01*
X-19099500Y8150000D01*
X-14680804Y8150000D01*
X-14659719Y8016874D01*
X-14598528Y7896780D01*
X-14503220Y7801472D01*
X-14499785Y7799722D01*
X-14386560Y7742030D01*
X-14386556Y7742028D01*
X-14383126Y7740281D01*
X-14250000Y7719196D01*
X-14246193Y7719799D01*
X-14120680Y7739678D01*
X-14120678Y7739678D01*
X-14116874Y7740281D01*
X-14113445Y7742027D01*
X-14113439Y7742030D01*
X-14000214Y7799722D01*
X-14000212Y7799722D01*
X-13996780Y7801472D01*
X-13994056Y7804195D01*
X-13994053Y7804198D01*
X-13904198Y7894053D01*
X-13904195Y7894056D01*
X-13901472Y7896780D01*
X-13899722Y7900214D01*
X-13842030Y8013439D01*
X-13842027Y8013445D01*
X-13840281Y8016874D01*
X-13819196Y8150000D01*
X-13840281Y8283126D01*
X-13842028Y8286556D01*
X-13842030Y8286560D01*
X-13899722Y8399785D01*
X-13901472Y8403220D01*
X-13967287Y8469035D01*
X-13981036Y8496017D01*
X-13976299Y8525928D01*
X-13954886Y8547341D01*
X-13952342Y8548637D01*
X-13950212Y8549723D01*
X-13950210Y8549723D01*
X-13946780Y8551472D01*
X-13944056Y8554195D01*
X-13944053Y8554198D01*
X-13854198Y8644053D01*
X-13854195Y8644056D01*
X-13851472Y8646780D01*
X-13849722Y8650214D01*
X-13792030Y8763439D01*
X-13792027Y8763445D01*
X-13790281Y8766874D01*
X-13782746Y8814445D01*
X-13769799Y8896193D01*
X-13769196Y8900000D01*
X-13790281Y9033126D01*
X-13792028Y9036556D01*
X-13792030Y9036560D01*
X-13836036Y9122926D01*
X-13851472Y9153220D01*
X-13946780Y9248528D01*
X-14066874Y9309719D01*
X-14200000Y9330804D01*
X-14333126Y9309719D01*
X-14453220Y9248528D01*
X-14548528Y9153220D01*
X-14609719Y9033126D01*
X-14630804Y8900000D01*
X-14609719Y8766874D01*
X-14548528Y8646780D01*
X-14545801Y8644053D01*
X-14482712Y8580964D01*
X-14468963Y8553980D01*
X-14473702Y8524068D01*
X-14495113Y8502658D01*
X-14503220Y8498528D01*
X-14598528Y8403220D01*
X-14659719Y8283126D01*
X-14680804Y8150000D01*
X-19099500Y8150000D01*
X-19099500Y8219748D01*
X-19099500Y8754266D01*
X-19099604Y8755375D01*
X-19099605Y8755396D01*
X-19102075Y8781731D01*
X-19102076Y8781736D01*
X-19102354Y8784699D01*
X-19112763Y8814445D01*
X-19145994Y8909416D01*
X-19145994Y8909417D01*
X-19147207Y8912882D01*
X-19149384Y8915832D01*
X-19149387Y8915837D01*
X-19225669Y9019195D01*
X-19227850Y9022150D01*
X-19249851Y9038387D01*
X-19334162Y9100612D01*
X-19334164Y9100613D01*
X-19337118Y9102793D01*
X-19465301Y9147646D01*
X-19490402Y9150000D01*
X-19494603Y9150394D01*
X-19494604Y9150394D01*
X-19495734Y9150500D01*
X-20030252Y9150500D01*
X-20780252Y9150500D01*
X-21530252Y9150500D01*
X-22495734Y9150500D01*
X-22995140Y9150500D01*
X-23029788Y9164852D01*
X-23044140Y9199500D01*
X-23041076Y9206898D01*
X-18300500Y9206898D01*
X-18289877Y9118436D01*
X-18234361Y8977658D01*
X-18142922Y8857078D01*
X-18140253Y8855054D01*
X-18043439Y8781637D01*
X-18022342Y8765639D01*
X-18019228Y8764411D01*
X-17884486Y8711275D01*
X-17884483Y8711274D01*
X-17881564Y8710123D01*
X-17878441Y8709748D01*
X-17794556Y8699674D01*
X-17794545Y8699673D01*
X-17793102Y8699500D01*
X-17008359Y8699500D01*
X-17006898Y8699500D01*
X-17005454Y8699673D01*
X-17005443Y8699674D01*
X-16921558Y8709748D01*
X-16921557Y8709748D01*
X-16918436Y8710123D01*
X-16915517Y8711273D01*
X-16915513Y8711275D01*
X-16780771Y8764411D01*
X-16780768Y8764412D01*
X-16777658Y8765639D01*
X-16774993Y8767659D01*
X-16774989Y8767662D01*
X-16659746Y8855054D01*
X-16659742Y8855057D01*
X-16657078Y8857078D01*
X-16655057Y8859742D01*
X-16655054Y8859746D01*
X-16567662Y8974989D01*
X-16567659Y8974993D01*
X-16565639Y8977658D01*
X-16549400Y9018837D01*
X-16511275Y9115513D01*
X-16511273Y9115517D01*
X-16510123Y9118436D01*
X-16506793Y9146164D01*
X-16499674Y9205443D01*
X-16499673Y9205454D01*
X-16499500Y9206898D01*
X-16499500Y9993102D01*
X-16499673Y9994545D01*
X-16499674Y9994556D01*
X-16509748Y10078441D01*
X-16510123Y10081564D01*
X-16542411Y10163439D01*
X-16564411Y10219228D01*
X-16565639Y10222342D01*
X-16657078Y10342922D01*
X-16777658Y10434361D01*
X-16918436Y10489877D01*
X-17006898Y10500500D01*
X-17793102Y10500500D01*
X-17881564Y10489877D01*
X-18022342Y10434361D01*
X-18142922Y10342922D01*
X-18234361Y10222342D01*
X-18289877Y10081564D01*
X-18300500Y9993102D01*
X-18300500Y9206898D01*
X-23041076Y9206898D01*
X-23029788Y9234148D01*
X-21503789Y10760148D01*
X-21487892Y10770770D01*
X-21469141Y10774500D01*
X-5049000Y10774500D01*
X-5014352Y10760148D01*
G37*
%TD.AperFunction*%
%TD*%
M02*
