%TF.GenerationSoftware,KiCad,Pcbnew,(6.0.5)*%
%TF.CreationDate,2022-11-23T01:52:27-05:00*%
%TF.ProjectId,Eggman3,4567676d-616e-4332-9e6b-696361645f70,rev?*%
%TF.SameCoordinates,Original*%
%TF.FileFunction,Copper,L1,Top*%
%TF.FilePolarity,Positive*%
%FSLAX46Y46*%
G04 Gerber Fmt 4.6, Leading zero omitted, Abs format (unit mm)*
G04 Created by KiCad (PCBNEW (6.0.5)) date 2022-11-23 01:52:27*
%MOMM*%
%LPD*%
G01*
G04 APERTURE LIST*
G04 Aperture macros list*
%AMRoundRect*
0 Rectangle with rounded corners*
0 $1 Rounding radius*
0 $2 $3 $4 $5 $6 $7 $8 $9 X,Y pos of 4 corners*
0 Add a 4 corners polygon primitive as box body*
4,1,4,$2,$3,$4,$5,$6,$7,$8,$9,$2,$3,0*
0 Add four circle primitives for the rounded corners*
1,1,$1+$1,$2,$3*
1,1,$1+$1,$4,$5*
1,1,$1+$1,$6,$7*
1,1,$1+$1,$8,$9*
0 Add four rect primitives between the rounded corners*
20,1,$1+$1,$2,$3,$4,$5,0*
20,1,$1+$1,$4,$5,$6,$7,0*
20,1,$1+$1,$6,$7,$8,$9,0*
20,1,$1+$1,$8,$9,$2,$3,0*%
G04 Aperture macros list end*
%TA.AperFunction,ComponentPad*%
%ADD10C,1.800000*%
%TD*%
%TA.AperFunction,ComponentPad*%
%ADD11RoundRect,0.200000X-1.260293X0.392633X-0.713061X-1.110875X1.260293X-0.392633X0.713061X1.110875X0*%
%TD*%
%TA.AperFunction,ComponentPad*%
%ADD12RoundRect,0.200000X1.260293X-0.392633X0.713061X1.110875X-1.260293X0.392633X-0.713061X-1.110875X0*%
%TD*%
%TA.AperFunction,ComponentPad*%
%ADD13RoundRect,0.200000X-0.713061X1.110875X-1.260293X-0.392633X0.713061X-1.110875X1.260293X0.392633X0*%
%TD*%
%TA.AperFunction,ComponentPad*%
%ADD14RoundRect,0.200000X0.713061X-1.110875X1.260293X0.392633X-0.713061X1.110875X-1.260293X-0.392633X0*%
%TD*%
%TA.AperFunction,ComponentPad*%
%ADD15C,4.000000*%
%TD*%
%TA.AperFunction,ComponentPad*%
%ADD16RoundRect,1.500000X1.250000X0.000000X1.250000X0.000000X-1.250000X0.000000X-1.250000X0.000000X0*%
%TD*%
%TA.AperFunction,ComponentPad*%
%ADD17RoundRect,0.375000X-0.375000X-0.375000X0.375000X-0.375000X0.375000X0.375000X-0.375000X0.375000X0*%
%TD*%
%TA.AperFunction,SMDPad,CuDef*%
%ADD18RoundRect,0.375000X-0.375000X-1.125000X0.375000X-1.125000X0.375000X1.125000X-0.375000X1.125000X0*%
%TD*%
%TA.AperFunction,ComponentPad*%
%ADD19RoundRect,0.375000X-0.375000X0.375000X-0.375000X-0.375000X0.375000X-0.375000X0.375000X0.375000X0*%
%TD*%
%TA.AperFunction,SMDPad,CuDef*%
%ADD20RoundRect,0.375000X-1.125000X0.375000X-1.125000X-0.375000X1.125000X-0.375000X1.125000X0.375000X0*%
%TD*%
%TA.AperFunction,ComponentPad*%
%ADD21RoundRect,0.375000X0.375000X-0.375000X0.375000X0.375000X-0.375000X0.375000X-0.375000X-0.375000X0*%
%TD*%
%TA.AperFunction,SMDPad,CuDef*%
%ADD22RoundRect,0.375000X1.125000X-0.375000X1.125000X0.375000X-1.125000X0.375000X-1.125000X-0.375000X0*%
%TD*%
%TA.AperFunction,Conductor*%
%ADD23C,1.000000*%
%TD*%
G04 APERTURE END LIST*
D10*
%TO.P,C2,1*%
%TO.N,VDD*%
X-10650000Y15000000D03*
%TO.P,C2,2*%
%TO.N,GND*%
X-7350000Y15000000D03*
%TD*%
%TO.P,C1,1*%
%TO.N,VDD*%
X7350000Y15000000D03*
%TO.P,C1,2*%
%TO.N,GND*%
X10650000Y15000000D03*
%TD*%
D11*
%TO.P,J11,1,Pin_1*%
%TO.N,VDD*%
X6198566Y22694079D03*
D12*
X4758957Y22170104D03*
D11*
%TO.P,J11,2,Pin_2*%
%TO.N,GND*%
X7241043Y19829896D03*
D12*
X5801434Y19305921D03*
%TD*%
D13*
%TO.P,J10,1,Pin_1*%
%TO.N,GND*%
X-4718923Y22170104D03*
D14*
X-6158532Y22694079D03*
D13*
%TO.P,J10,2,Pin_2*%
%TO.N,VDD*%
X-5761400Y19305921D03*
D14*
X-7201010Y19829896D03*
%TD*%
D15*
%TO.P,J9,1,Pin_1*%
%TO.N,GND*%
X-9000000Y8000000D03*
%TO.P,J9,2,Pin_2*%
%TO.N,Net-(J8-Pad1)*%
X-9000000Y3000000D03*
%TD*%
%TO.P,J8,1,Pin_1*%
%TO.N,Net-(J8-Pad1)*%
X9000000Y3000000D03*
%TO.P,J8,2,Pin_2*%
%TO.N,Net-(J7-Pad1)*%
X9000000Y8000000D03*
%TD*%
D16*
%TO.P,J7,1,Pin_1*%
%TO.N,Net-(J7-Pad1)*%
X0Y3500000D03*
%TO.P,J7,2,Pin_2*%
%TO.N,VDD*%
X0Y9500000D03*
%TD*%
D17*
%TO.P,J4,1,Pin_1*%
%TO.N,GND*%
X-3300000Y14250000D03*
D18*
X-3300000Y15000000D03*
%TD*%
D17*
%TO.P,J3,1,Pin_1*%
%TO.N,VDD*%
X-1100000Y14250000D03*
D18*
X-1100000Y15000000D03*
%TD*%
D19*
%TO.P,J2,1,Pin_1*%
%TO.N,PPM_B*%
X1250000Y24500000D03*
D20*
X2000000Y24500000D03*
%TD*%
D17*
%TO.P,J1,1,Pin_1*%
%TO.N,PPM_F*%
X1100000Y14250000D03*
D18*
X1100000Y15000000D03*
%TD*%
D17*
%TO.P,J6,1,Pin_1*%
%TO.N,PPM_B*%
X3300000Y14250000D03*
D18*
X3300000Y15000000D03*
%TD*%
D21*
%TO.P,J5,1,Pin_1*%
%TO.N,PPM_F*%
X-1250000Y24500000D03*
D22*
X-2000000Y24500000D03*
%TD*%
D23*
%TO.N,PPM_B*%
X1250000Y18500000D02*
X1250000Y24500000D01*
X3300000Y16450000D02*
X1250000Y18500000D01*
X3300000Y14250000D02*
X3300000Y16450000D01*
%TO.N,PPM_F*%
X-1250000Y18687500D02*
X-1250000Y24500000D01*
X1100000Y16337500D02*
X-1250000Y18687500D01*
X1100000Y14250000D02*
X1100000Y16337500D01*
%TD*%
M02*
