M48
; DRILL file {KiCad (6.0.5)} date Wed Nov 23 01:52:28 2022
; FORMAT={-:-/ absolute / inch / decimal}
; #@! TF.CreationDate,2022-11-23T01:52:28-05:00
; #@! TF.GenerationSoftware,Kicad,Pcbnew,(6.0.5)
; #@! TF.FileFunction,Plated,1,2,PTH
FMAT,2
INCH
; #@! TA.AperFunction,Plated,PTH,ComponentDrill
T1C0.0315
; #@! TA.AperFunction,Plated,PTH,ComponentDrill
T2C0.0354
; #@! TA.AperFunction,Plated,PTH,ComponentDrill
T3C0.0394
; #@! TA.AperFunction,Plated,PTH,ComponentDrill
T4C0.0591
; #@! TA.AperFunction,Plated,PTH,ComponentDrill
T5C0.1063
%
G90
G05
T1
X-0.1299Y0.561
X-0.0492Y0.9646
X-0.0433Y0.561
X0.0433Y0.561
X0.0492Y0.9646
X0.1299Y0.561
T2
X-0.4193Y0.5906
X-0.2894Y0.5906
X0.2894Y0.5906
X0.4193Y0.5906
T3
X-0.2928Y0.7841
X-0.2517Y0.8968
X-0.2176Y0.7567
X-0.1765Y0.8695
X0.1781Y0.8695
X0.2192Y0.7567
X0.2533Y0.8968
X0.2943Y0.7841
T5
X-0.3543Y0.315
X-0.3543Y0.1181
X0.3543Y0.315
X0.3543Y0.1181
T4
G00X-0.0492Y0.374
M15
G01X0.0492Y0.374
M16
G05
G00X-0.0492Y0.1378
M15
G01X0.0492Y0.1378
M16
G05
T0
M30
