%TF.GenerationSoftware,KiCad,Pcbnew,(6.0.5)*%
%TF.CreationDate,2022-11-23T01:52:28-05:00*%
%TF.ProjectId,Eggman3,4567676d-616e-4332-9e6b-696361645f70,rev?*%
%TF.SameCoordinates,Original*%
%TF.FileFunction,Legend,Bot*%
%TF.FilePolarity,Positive*%
%FSLAX46Y46*%
G04 Gerber Fmt 4.6, Leading zero omitted, Abs format (unit mm)*
G04 Created by KiCad (PCBNEW (6.0.5)) date 2022-11-23 01:52:28*
%MOMM*%
%LPD*%
G01*
G04 APERTURE LIST*
G04 Aperture macros list*
%AMRoundRect*
0 Rectangle with rounded corners*
0 $1 Rounding radius*
0 $2 $3 $4 $5 $6 $7 $8 $9 X,Y pos of 4 corners*
0 Add a 4 corners polygon primitive as box body*
4,1,4,$2,$3,$4,$5,$6,$7,$8,$9,$2,$3,0*
0 Add four circle primitives for the rounded corners*
1,1,$1+$1,$2,$3*
1,1,$1+$1,$4,$5*
1,1,$1+$1,$6,$7*
1,1,$1+$1,$8,$9*
0 Add four rect primitives between the rounded corners*
20,1,$1+$1,$2,$3,$4,$5,0*
20,1,$1+$1,$4,$5,$6,$7,0*
20,1,$1+$1,$6,$7,$8,$9,0*
20,1,$1+$1,$8,$9,$2,$3,0*%
G04 Aperture macros list end*
%ADD10C,0.010000*%
%ADD11C,1.800000*%
%ADD12C,2.600000*%
%ADD13RoundRect,0.200000X-1.260293X0.392633X-0.713061X-1.110875X1.260293X-0.392633X0.713061X1.110875X0*%
%ADD14RoundRect,0.200000X1.260293X-0.392633X0.713061X1.110875X-1.260293X0.392633X-0.713061X-1.110875X0*%
%ADD15RoundRect,0.200000X-0.713061X1.110875X-1.260293X-0.392633X0.713061X-1.110875X1.260293X0.392633X0*%
%ADD16RoundRect,0.200000X0.713061X-1.110875X1.260293X0.392633X-0.713061X1.110875X-1.260293X-0.392633X0*%
%ADD17C,4.000000*%
%ADD18RoundRect,1.500000X1.250000X0.000000X1.250000X0.000000X-1.250000X0.000000X-1.250000X0.000000X0*%
%ADD19RoundRect,0.375000X-0.375000X-0.375000X0.375000X-0.375000X0.375000X0.375000X-0.375000X0.375000X0*%
%ADD20RoundRect,0.375000X-0.375000X0.375000X-0.375000X-0.375000X0.375000X-0.375000X0.375000X0.375000X0*%
%ADD21RoundRect,0.375000X0.375000X-0.375000X0.375000X0.375000X-0.375000X0.375000X-0.375000X-0.375000X0*%
G04 APERTURE END LIST*
%TO.C,G\u002A\u002A\u002A*%
G36*
X3846976Y16740227D02*
G01*
X3649841Y16479889D01*
X3629006Y16455428D01*
X3436726Y16255766D01*
X3211374Y16061769D01*
X2958268Y15876796D01*
X2682722Y15704208D01*
X2390050Y15547365D01*
X2085569Y15409627D01*
X1774593Y15294354D01*
X1716625Y15275510D01*
X1526856Y15218016D01*
X1344931Y15170482D01*
X1161465Y15131043D01*
X967077Y15097834D01*
X752383Y15068991D01*
X508000Y15042648D01*
X448780Y15038555D01*
X345655Y15035051D01*
X220070Y15033389D01*
X81300Y15033495D01*
X-61377Y15035294D01*
X-198683Y15038712D01*
X-321342Y15043673D01*
X-420077Y15050105D01*
X-533641Y15060774D01*
X-980043Y15123038D01*
X-1402655Y15215929D01*
X-1802350Y15339842D01*
X-2180001Y15495173D01*
X-2536480Y15682316D01*
X-2872660Y15901667D01*
X-3189414Y16153620D01*
X-3487615Y16438570D01*
X-3626055Y16589604D01*
X-3852360Y16873495D01*
X-4041806Y17166240D01*
X-4195638Y17470461D01*
X-4315102Y17788785D01*
X-4401444Y18123833D01*
X-4455909Y18478231D01*
X-4460628Y18525344D01*
X-4470521Y18686469D01*
X-4466769Y18819518D01*
X-4458885Y18868832D01*
X-4013147Y18868832D01*
X-3995251Y18812378D01*
X-3976603Y18782721D01*
X-3929838Y18729442D01*
X-3872997Y18679497D01*
X-3735533Y18590494D01*
X-3549839Y18499935D01*
X-3327630Y18416301D01*
X-3069973Y18339903D01*
X-2777935Y18271056D01*
X-2452583Y18210074D01*
X-2094984Y18157269D01*
X-2034632Y18149239D01*
X-1913476Y18131246D01*
X-1823465Y18113851D01*
X-1759077Y18095207D01*
X-1714791Y18073469D01*
X-1685085Y18046791D01*
X-1664436Y18013326D01*
X-1651118Y17979437D01*
X-1652127Y17943267D01*
X-1675026Y17896273D01*
X-1704058Y17856740D01*
X-1755725Y17819230D01*
X-1826856Y17798929D01*
X-1923252Y17794416D01*
X-2050717Y17804272D01*
X-2148490Y17815937D01*
X-2538469Y17872732D01*
X-2905670Y17942997D01*
X-3246339Y18025845D01*
X-3556719Y18120388D01*
X-3833058Y18225737D01*
X-3853034Y18234242D01*
X-3920971Y18261740D01*
X-3960718Y18274042D01*
X-3978062Y18272438D01*
X-3978787Y18258218D01*
X-3978275Y18256368D01*
X-3967956Y18212363D01*
X-3956639Y18155846D01*
X-3946435Y18107707D01*
X-3910069Y17977870D01*
X-3858797Y17828687D01*
X-3796534Y17669836D01*
X-3727197Y17510998D01*
X-3654701Y17361852D01*
X-3582961Y17232076D01*
X-3545449Y17171324D01*
X-3362919Y16914655D01*
X-3148168Y16666314D01*
X-2906721Y16431779D01*
X-2644108Y16216528D01*
X-2365856Y16026037D01*
X-2205449Y15931167D01*
X-1879497Y15766083D01*
X-1538957Y15630251D01*
X-1178128Y15521538D01*
X-791308Y15437817D01*
X-770340Y15434266D01*
X-647838Y15418740D01*
X-496309Y15406035D01*
X-324007Y15396311D01*
X-139185Y15389726D01*
X49903Y15386440D01*
X235004Y15386609D01*
X407863Y15390395D01*
X560229Y15397954D01*
X683846Y15409447D01*
X817361Y15428191D01*
X1220838Y15507449D01*
X1609188Y15618118D01*
X1979487Y15758987D01*
X2328815Y15928845D01*
X2654249Y16126478D01*
X2952868Y16350674D01*
X3038119Y16425315D01*
X3243824Y16637430D01*
X3424941Y16872041D01*
X3574383Y17120370D01*
X3658602Y17282251D01*
X3573109Y17271694D01*
X3532084Y17265550D01*
X3457487Y17252929D01*
X3359680Y17235533D01*
X3246593Y17214774D01*
X3126154Y17192066D01*
X2927664Y17155810D01*
X2453229Y17083580D01*
X2002515Y17036045D01*
X1576252Y17013113D01*
X1175170Y17014690D01*
X800001Y17040682D01*
X451473Y17090995D01*
X130318Y17165536D01*
X-162734Y17264212D01*
X-426953Y17386928D01*
X-661609Y17533591D01*
X-865971Y17704107D01*
X-953945Y17793256D01*
X-1087982Y17953523D01*
X-1194852Y18121188D01*
X-1280636Y18306466D01*
X-1351416Y18519574D01*
X-1377260Y18635092D01*
X-1395151Y18841844D01*
X-1383166Y19072596D01*
X-1341298Y19327934D01*
X-1338735Y19340037D01*
X-1319535Y19431918D01*
X-1303903Y19508841D01*
X-1293388Y19563057D01*
X-1289538Y19586818D01*
X-1296844Y19594260D01*
X-1334179Y19600042D01*
X-1404435Y19599800D01*
X-1509023Y19593471D01*
X-1649356Y19580989D01*
X-1826846Y19562292D01*
X-2051248Y19535741D01*
X-2388287Y19488464D01*
X-2692764Y19435506D01*
X-2968572Y19375992D01*
X-3219607Y19309044D01*
X-3449761Y19233789D01*
X-3662929Y19149349D01*
X-3701757Y19132284D01*
X-3826868Y19072587D01*
X-3917748Y19019248D01*
X-3977210Y18969412D01*
X-4008071Y18920225D01*
X-4013147Y18868832D01*
X-4458885Y18868832D01*
X-4448873Y18931458D01*
X-4416333Y19029257D01*
X-4369386Y19112660D01*
X-4278952Y19217526D01*
X-4161624Y19312513D01*
X-4024275Y19391277D01*
X-3882339Y19454628D01*
X-3623909Y19553279D01*
X-3340941Y19641425D01*
X-3031134Y19719564D01*
X-2692187Y19788195D01*
X-2321797Y19847814D01*
X-1917664Y19898919D01*
X-1477486Y19942009D01*
X-1393469Y19949674D01*
X-1293308Y19960203D01*
X-1211892Y19970380D01*
X-1155960Y19979340D01*
X-1132254Y19986222D01*
X-1121883Y20002370D01*
X-1097674Y20052717D01*
X-1064928Y20129182D01*
X-1026198Y20225376D01*
X-984038Y20334909D01*
X-941001Y20451391D01*
X-899639Y20568432D01*
X-822353Y20808187D01*
X-744768Y21101597D01*
X-693645Y21375196D01*
X-668384Y21633487D01*
X-668387Y21880972D01*
X-693056Y22122154D01*
X-741797Y22368183D01*
X-819779Y22620047D01*
X-922937Y22845717D01*
X-1052368Y23048017D01*
X-1068789Y23070466D01*
X-1124125Y23158861D01*
X-1150774Y23232905D01*
X-1150515Y23300461D01*
X-1125128Y23369392D01*
X-1109171Y23394513D01*
X-1048472Y23446177D01*
X-970660Y23473055D01*
X-887190Y23472516D01*
X-809517Y23441926D01*
X-754730Y23393985D01*
X-687804Y23313199D01*
X-616227Y23208601D01*
X-544041Y23087025D01*
X-475286Y22955305D01*
X-414003Y22820275D01*
X-364232Y22688769D01*
X-332796Y22586311D01*
X-278837Y22356457D01*
X-240632Y22111812D01*
X-219412Y21864362D01*
X-216406Y21626095D01*
X-232845Y21409000D01*
X-287991Y21089857D01*
X-374177Y20742819D01*
X-489964Y20376271D01*
X-634714Y19992462D01*
X-668093Y19909824D01*
X-742876Y19720195D01*
X-803096Y19558886D01*
X-850167Y19420799D01*
X-885506Y19300831D01*
X-910528Y19193884D01*
X-926648Y19094856D01*
X-935283Y18998646D01*
X-937846Y18900156D01*
X-928610Y18739759D01*
X-884528Y18522314D01*
X-805520Y18318533D01*
X-693159Y18130195D01*
X-549015Y17959081D01*
X-374660Y17806968D01*
X-171665Y17675638D01*
X58399Y17566869D01*
X313961Y17482441D01*
X321712Y17480372D01*
X464616Y17444515D01*
X597466Y17416589D01*
X728436Y17395704D01*
X865701Y17380975D01*
X1017434Y17371514D01*
X1191809Y17366432D01*
X1397000Y17364843D01*
X1676534Y17369193D01*
X2058962Y17390393D01*
X2445770Y17430046D01*
X2843915Y17489070D01*
X3260355Y17568384D01*
X3702048Y17668905D01*
X3788675Y17689390D01*
X3896223Y17711437D01*
X3977781Y17722080D01*
X4040167Y17721632D01*
X4090196Y17710404D01*
X4134685Y17688709D01*
X4178060Y17655006D01*
X4202844Y17613085D01*
X4208153Y17556964D01*
X4194605Y17479750D01*
X4162817Y17374550D01*
X4131115Y17285476D01*
X4129671Y17282251D01*
X4006875Y17007839D01*
X3846976Y16740227D01*
G37*
D10*
X3846976Y16740227D02*
X3649841Y16479889D01*
X3629006Y16455428D01*
X3436726Y16255766D01*
X3211374Y16061769D01*
X2958268Y15876796D01*
X2682722Y15704208D01*
X2390050Y15547365D01*
X2085569Y15409627D01*
X1774593Y15294354D01*
X1716625Y15275510D01*
X1526856Y15218016D01*
X1344931Y15170482D01*
X1161465Y15131043D01*
X967077Y15097834D01*
X752383Y15068991D01*
X508000Y15042648D01*
X448780Y15038555D01*
X345655Y15035051D01*
X220070Y15033389D01*
X81300Y15033495D01*
X-61377Y15035294D01*
X-198683Y15038712D01*
X-321342Y15043673D01*
X-420077Y15050105D01*
X-533641Y15060774D01*
X-980043Y15123038D01*
X-1402655Y15215929D01*
X-1802350Y15339842D01*
X-2180001Y15495173D01*
X-2536480Y15682316D01*
X-2872660Y15901667D01*
X-3189414Y16153620D01*
X-3487615Y16438570D01*
X-3626055Y16589604D01*
X-3852360Y16873495D01*
X-4041806Y17166240D01*
X-4195638Y17470461D01*
X-4315102Y17788785D01*
X-4401444Y18123833D01*
X-4455909Y18478231D01*
X-4460628Y18525344D01*
X-4470521Y18686469D01*
X-4466769Y18819518D01*
X-4458885Y18868832D01*
X-4013147Y18868832D01*
X-3995251Y18812378D01*
X-3976603Y18782721D01*
X-3929838Y18729442D01*
X-3872997Y18679497D01*
X-3735533Y18590494D01*
X-3549839Y18499935D01*
X-3327630Y18416301D01*
X-3069973Y18339903D01*
X-2777935Y18271056D01*
X-2452583Y18210074D01*
X-2094984Y18157269D01*
X-2034632Y18149239D01*
X-1913476Y18131246D01*
X-1823465Y18113851D01*
X-1759077Y18095207D01*
X-1714791Y18073469D01*
X-1685085Y18046791D01*
X-1664436Y18013326D01*
X-1651118Y17979437D01*
X-1652127Y17943267D01*
X-1675026Y17896273D01*
X-1704058Y17856740D01*
X-1755725Y17819230D01*
X-1826856Y17798929D01*
X-1923252Y17794416D01*
X-2050717Y17804272D01*
X-2148490Y17815937D01*
X-2538469Y17872732D01*
X-2905670Y17942997D01*
X-3246339Y18025845D01*
X-3556719Y18120388D01*
X-3833058Y18225737D01*
X-3853034Y18234242D01*
X-3920971Y18261740D01*
X-3960718Y18274042D01*
X-3978062Y18272438D01*
X-3978787Y18258218D01*
X-3978275Y18256368D01*
X-3967956Y18212363D01*
X-3956639Y18155846D01*
X-3946435Y18107707D01*
X-3910069Y17977870D01*
X-3858797Y17828687D01*
X-3796534Y17669836D01*
X-3727197Y17510998D01*
X-3654701Y17361852D01*
X-3582961Y17232076D01*
X-3545449Y17171324D01*
X-3362919Y16914655D01*
X-3148168Y16666314D01*
X-2906721Y16431779D01*
X-2644108Y16216528D01*
X-2365856Y16026037D01*
X-2205449Y15931167D01*
X-1879497Y15766083D01*
X-1538957Y15630251D01*
X-1178128Y15521538D01*
X-791308Y15437817D01*
X-770340Y15434266D01*
X-647838Y15418740D01*
X-496309Y15406035D01*
X-324007Y15396311D01*
X-139185Y15389726D01*
X49903Y15386440D01*
X235004Y15386609D01*
X407863Y15390395D01*
X560229Y15397954D01*
X683846Y15409447D01*
X817361Y15428191D01*
X1220838Y15507449D01*
X1609188Y15618118D01*
X1979487Y15758987D01*
X2328815Y15928845D01*
X2654249Y16126478D01*
X2952868Y16350674D01*
X3038119Y16425315D01*
X3243824Y16637430D01*
X3424941Y16872041D01*
X3574383Y17120370D01*
X3658602Y17282251D01*
X3573109Y17271694D01*
X3532084Y17265550D01*
X3457487Y17252929D01*
X3359680Y17235533D01*
X3246593Y17214774D01*
X3126154Y17192066D01*
X2927664Y17155810D01*
X2453229Y17083580D01*
X2002515Y17036045D01*
X1576252Y17013113D01*
X1175170Y17014690D01*
X800001Y17040682D01*
X451473Y17090995D01*
X130318Y17165536D01*
X-162734Y17264212D01*
X-426953Y17386928D01*
X-661609Y17533591D01*
X-865971Y17704107D01*
X-953945Y17793256D01*
X-1087982Y17953523D01*
X-1194852Y18121188D01*
X-1280636Y18306466D01*
X-1351416Y18519574D01*
X-1377260Y18635092D01*
X-1395151Y18841844D01*
X-1383166Y19072596D01*
X-1341298Y19327934D01*
X-1338735Y19340037D01*
X-1319535Y19431918D01*
X-1303903Y19508841D01*
X-1293388Y19563057D01*
X-1289538Y19586818D01*
X-1296844Y19594260D01*
X-1334179Y19600042D01*
X-1404435Y19599800D01*
X-1509023Y19593471D01*
X-1649356Y19580989D01*
X-1826846Y19562292D01*
X-2051248Y19535741D01*
X-2388287Y19488464D01*
X-2692764Y19435506D01*
X-2968572Y19375992D01*
X-3219607Y19309044D01*
X-3449761Y19233789D01*
X-3662929Y19149349D01*
X-3701757Y19132284D01*
X-3826868Y19072587D01*
X-3917748Y19019248D01*
X-3977210Y18969412D01*
X-4008071Y18920225D01*
X-4013147Y18868832D01*
X-4458885Y18868832D01*
X-4448873Y18931458D01*
X-4416333Y19029257D01*
X-4369386Y19112660D01*
X-4278952Y19217526D01*
X-4161624Y19312513D01*
X-4024275Y19391277D01*
X-3882339Y19454628D01*
X-3623909Y19553279D01*
X-3340941Y19641425D01*
X-3031134Y19719564D01*
X-2692187Y19788195D01*
X-2321797Y19847814D01*
X-1917664Y19898919D01*
X-1477486Y19942009D01*
X-1393469Y19949674D01*
X-1293308Y19960203D01*
X-1211892Y19970380D01*
X-1155960Y19979340D01*
X-1132254Y19986222D01*
X-1121883Y20002370D01*
X-1097674Y20052717D01*
X-1064928Y20129182D01*
X-1026198Y20225376D01*
X-984038Y20334909D01*
X-941001Y20451391D01*
X-899639Y20568432D01*
X-822353Y20808187D01*
X-744768Y21101597D01*
X-693645Y21375196D01*
X-668384Y21633487D01*
X-668387Y21880972D01*
X-693056Y22122154D01*
X-741797Y22368183D01*
X-819779Y22620047D01*
X-922937Y22845717D01*
X-1052368Y23048017D01*
X-1068789Y23070466D01*
X-1124125Y23158861D01*
X-1150774Y23232905D01*
X-1150515Y23300461D01*
X-1125128Y23369392D01*
X-1109171Y23394513D01*
X-1048472Y23446177D01*
X-970660Y23473055D01*
X-887190Y23472516D01*
X-809517Y23441926D01*
X-754730Y23393985D01*
X-687804Y23313199D01*
X-616227Y23208601D01*
X-544041Y23087025D01*
X-475286Y22955305D01*
X-414003Y22820275D01*
X-364232Y22688769D01*
X-332796Y22586311D01*
X-278837Y22356457D01*
X-240632Y22111812D01*
X-219412Y21864362D01*
X-216406Y21626095D01*
X-232845Y21409000D01*
X-287991Y21089857D01*
X-374177Y20742819D01*
X-489964Y20376271D01*
X-634714Y19992462D01*
X-668093Y19909824D01*
X-742876Y19720195D01*
X-803096Y19558886D01*
X-850167Y19420799D01*
X-885506Y19300831D01*
X-910528Y19193884D01*
X-926648Y19094856D01*
X-935283Y18998646D01*
X-937846Y18900156D01*
X-928610Y18739759D01*
X-884528Y18522314D01*
X-805520Y18318533D01*
X-693159Y18130195D01*
X-549015Y17959081D01*
X-374660Y17806968D01*
X-171665Y17675638D01*
X58399Y17566869D01*
X313961Y17482441D01*
X321712Y17480372D01*
X464616Y17444515D01*
X597466Y17416589D01*
X728436Y17395704D01*
X865701Y17380975D01*
X1017434Y17371514D01*
X1191809Y17366432D01*
X1397000Y17364843D01*
X1676534Y17369193D01*
X2058962Y17390393D01*
X2445770Y17430046D01*
X2843915Y17489070D01*
X3260355Y17568384D01*
X3702048Y17668905D01*
X3788675Y17689390D01*
X3896223Y17711437D01*
X3977781Y17722080D01*
X4040167Y17721632D01*
X4090196Y17710404D01*
X4134685Y17688709D01*
X4178060Y17655006D01*
X4202844Y17613085D01*
X4208153Y17556964D01*
X4194605Y17479750D01*
X4162817Y17374550D01*
X4131115Y17285476D01*
X4129671Y17282251D01*
X4006875Y17007839D01*
X3846976Y16740227D01*
G36*
X4466091Y18736625D02*
G01*
X4405879Y18624608D01*
X4309390Y18515571D01*
X4178784Y18410402D01*
X4016220Y18309993D01*
X3823858Y18215233D01*
X3603857Y18127013D01*
X3358376Y18046224D01*
X3089575Y17973755D01*
X2799613Y17910496D01*
X2490649Y17857339D01*
X2164842Y17815172D01*
X2025114Y17803048D01*
X1862257Y17794211D01*
X1688576Y17789003D01*
X1514011Y17787509D01*
X1348498Y17789810D01*
X1201977Y17795991D01*
X1084385Y17806134D01*
X1082553Y17806357D01*
X855832Y17843638D01*
X635758Y17898044D01*
X428755Y17967127D01*
X241248Y18048442D01*
X79661Y18139541D01*
X-49581Y18237978D01*
X-78329Y18265078D01*
X-207745Y18415665D01*
X-300524Y18579675D01*
X-356573Y18756905D01*
X-375801Y18947154D01*
X-375780Y18956923D01*
X89359Y18956923D01*
X89401Y18939838D01*
X91680Y18849135D01*
X98953Y18782907D01*
X113328Y18728589D01*
X136916Y18673615D01*
X202840Y18566973D01*
X313295Y18452727D01*
X458146Y18353942D01*
X638075Y18270168D01*
X853761Y18200956D01*
X873566Y18195746D01*
X937495Y18180077D01*
X997198Y18168262D01*
X1059892Y18159655D01*
X1132794Y18153609D01*
X1223122Y18149476D01*
X1338093Y18146610D01*
X1484923Y18144363D01*
X1594843Y18143471D01*
X1818552Y18145571D01*
X2011060Y18153196D01*
X2168608Y18166229D01*
X2354831Y18190047D01*
X2621779Y18233875D01*
X2877889Y18287154D01*
X3119128Y18348606D01*
X3341462Y18416954D01*
X3540857Y18490921D01*
X3713280Y18569231D01*
X3854696Y18650605D01*
X3961073Y18733766D01*
X3967882Y18740388D01*
X4021537Y18807318D01*
X4041421Y18870372D01*
X4026558Y18931472D01*
X3975971Y18992540D01*
X3888683Y19055499D01*
X3763719Y19122271D01*
X3712853Y19145948D01*
X3487712Y19235430D01*
X3226433Y19317173D01*
X2928639Y19391252D01*
X2593955Y19457744D01*
X2222006Y19516726D01*
X1812415Y19568276D01*
X1364807Y19612468D01*
X1215383Y19625447D01*
X1181306Y19510993D01*
X1164285Y19439826D01*
X1148205Y19343023D01*
X1138834Y19250000D01*
X1142229Y19121884D01*
X1170416Y19019970D01*
X1225391Y18941405D01*
X1309077Y18882033D01*
X1330299Y18871336D01*
X1368054Y18855604D01*
X1407793Y18846313D01*
X1458771Y18842457D01*
X1530243Y18843031D01*
X1631462Y18847032D01*
X1703479Y18851455D01*
X1943166Y18880271D01*
X2208962Y18931576D01*
X2496972Y19004658D01*
X2533094Y19014411D01*
X2620223Y19034975D01*
X2696616Y19049230D01*
X2748980Y19054542D01*
X2783788Y19052306D01*
X2864769Y19027869D01*
X2926662Y18981520D01*
X2962844Y18919536D01*
X2966692Y18848193D01*
X2965523Y18843020D01*
X2953681Y18816849D01*
X2929991Y18792366D01*
X2891136Y18768452D01*
X2833796Y18743991D01*
X2754653Y18717863D01*
X2650387Y18688952D01*
X2517681Y18656139D01*
X2353214Y18618305D01*
X2153669Y18574335D01*
X2111562Y18565262D01*
X1983235Y18539160D01*
X1878332Y18521262D01*
X1785675Y18510137D01*
X1694085Y18504354D01*
X1592385Y18502483D01*
X1429458Y18507078D01*
X1241059Y18529723D01*
X1082721Y18571921D01*
X951882Y18634413D01*
X845980Y18717938D01*
X810423Y18756305D01*
X756474Y18834065D01*
X720136Y18923309D01*
X698309Y19032936D01*
X687894Y19171846D01*
X685746Y19245160D01*
X686462Y19324166D01*
X693011Y19386471D01*
X707002Y19445094D01*
X730041Y19513053D01*
X734102Y19524224D01*
X756588Y19588149D01*
X771484Y19634089D01*
X775742Y19652735D01*
X775099Y19652956D01*
X750153Y19654937D01*
X694705Y19657514D01*
X616225Y19660378D01*
X522185Y19663221D01*
X272601Y19670077D01*
X216263Y19523538D01*
X191887Y19459231D01*
X148916Y19337510D01*
X119432Y19236486D01*
X101181Y19146091D01*
X91908Y19056259D01*
X89359Y18956923D01*
X-375780Y18956923D01*
X-375751Y18970222D01*
X-373500Y19035703D01*
X-367037Y19100267D01*
X-354992Y19168531D01*
X-335996Y19245111D01*
X-308679Y19334623D01*
X-271670Y19441682D01*
X-223601Y19570905D01*
X-163100Y19726909D01*
X-88800Y19914308D01*
X-43234Y20029049D01*
X38083Y20237692D01*
X106462Y20419681D01*
X163938Y20581043D01*
X212548Y20727808D01*
X254329Y20866003D01*
X291316Y21001656D01*
X325547Y21140795D01*
X347279Y21238707D01*
X363438Y21330284D01*
X373005Y21418953D01*
X377445Y21518687D01*
X378220Y21643462D01*
X378189Y21649970D01*
X372275Y21826845D01*
X354792Y21978429D01*
X322916Y22117125D01*
X273822Y22255335D01*
X204686Y22405462D01*
X184845Y22445909D01*
X142318Y22543600D01*
X121336Y22618617D01*
X121500Y22678062D01*
X142408Y22729038D01*
X183662Y22778646D01*
X221680Y22812913D01*
X269946Y22838426D01*
X328701Y22845077D01*
X355806Y22843590D01*
X423433Y22823135D01*
X484745Y22775633D01*
X543824Y22697226D01*
X604751Y22584055D01*
X605574Y22582335D01*
X715426Y22310263D01*
X786925Y22032802D01*
X820199Y21748862D01*
X815377Y21457348D01*
X772587Y21157169D01*
X730288Y20967736D01*
X664363Y20716374D01*
X588344Y20463699D01*
X507382Y20227766D01*
X480873Y20154961D01*
X456417Y20085626D01*
X440512Y20037876D01*
X435738Y20019214D01*
X435831Y20019152D01*
X457058Y20017149D01*
X509373Y20014540D01*
X585105Y20011654D01*
X676581Y20008823D01*
X913547Y20002231D01*
X1024211Y20291467D01*
X1138850Y20615016D01*
X1236991Y20955512D01*
X1304241Y21277317D01*
X1340876Y21582832D01*
X1347170Y21874452D01*
X1323402Y22154577D01*
X1269846Y22425604D01*
X1244638Y22516708D01*
X1188570Y22677042D01*
X1117290Y22829997D01*
X1025605Y22986054D01*
X908326Y23155697D01*
X884508Y23193074D01*
X859505Y23273341D01*
X873362Y23349896D01*
X926123Y23423415D01*
X932260Y23429404D01*
X1006448Y23479314D01*
X1083576Y23490490D01*
X1163785Y23462884D01*
X1247217Y23396451D01*
X1334014Y23291145D01*
X1453120Y23099521D01*
X1567267Y22857105D01*
X1658205Y22593563D01*
X1724429Y22315381D01*
X1764432Y22029044D01*
X1776708Y21741037D01*
X1759752Y21457846D01*
X1736375Y21292508D01*
X1690261Y21051416D01*
X1629658Y20796072D01*
X1557503Y20537619D01*
X1476734Y20287201D01*
X1390288Y20055962D01*
X1387234Y20048422D01*
X1365847Y19993678D01*
X1358984Y19965442D01*
X1366455Y19954936D01*
X1388072Y19953385D01*
X1397052Y19953061D01*
X1443242Y19949681D01*
X1517006Y19943211D01*
X1610294Y19934376D01*
X1715056Y19923903D01*
X1828037Y19911953D01*
X2237116Y19861919D01*
X2613987Y19804711D01*
X2958099Y19740562D01*
X3268899Y19669701D01*
X3545836Y19592359D01*
X3788358Y19508768D01*
X3995914Y19419159D01*
X4167951Y19323761D01*
X4303919Y19222808D01*
X4403266Y19116528D01*
X4465439Y19005154D01*
X4489888Y18888916D01*
X4487766Y18870372D01*
X4476060Y18768045D01*
X4466091Y18736625D01*
G37*
X4466091Y18736625D02*
X4405879Y18624608D01*
X4309390Y18515571D01*
X4178784Y18410402D01*
X4016220Y18309993D01*
X3823858Y18215233D01*
X3603857Y18127013D01*
X3358376Y18046224D01*
X3089575Y17973755D01*
X2799613Y17910496D01*
X2490649Y17857339D01*
X2164842Y17815172D01*
X2025114Y17803048D01*
X1862257Y17794211D01*
X1688576Y17789003D01*
X1514011Y17787509D01*
X1348498Y17789810D01*
X1201977Y17795991D01*
X1084385Y17806134D01*
X1082553Y17806357D01*
X855832Y17843638D01*
X635758Y17898044D01*
X428755Y17967127D01*
X241248Y18048442D01*
X79661Y18139541D01*
X-49581Y18237978D01*
X-78329Y18265078D01*
X-207745Y18415665D01*
X-300524Y18579675D01*
X-356573Y18756905D01*
X-375801Y18947154D01*
X-375780Y18956923D01*
X89359Y18956923D01*
X89401Y18939838D01*
X91680Y18849135D01*
X98953Y18782907D01*
X113328Y18728589D01*
X136916Y18673615D01*
X202840Y18566973D01*
X313295Y18452727D01*
X458146Y18353942D01*
X638075Y18270168D01*
X853761Y18200956D01*
X873566Y18195746D01*
X937495Y18180077D01*
X997198Y18168262D01*
X1059892Y18159655D01*
X1132794Y18153609D01*
X1223122Y18149476D01*
X1338093Y18146610D01*
X1484923Y18144363D01*
X1594843Y18143471D01*
X1818552Y18145571D01*
X2011060Y18153196D01*
X2168608Y18166229D01*
X2354831Y18190047D01*
X2621779Y18233875D01*
X2877889Y18287154D01*
X3119128Y18348606D01*
X3341462Y18416954D01*
X3540857Y18490921D01*
X3713280Y18569231D01*
X3854696Y18650605D01*
X3961073Y18733766D01*
X3967882Y18740388D01*
X4021537Y18807318D01*
X4041421Y18870372D01*
X4026558Y18931472D01*
X3975971Y18992540D01*
X3888683Y19055499D01*
X3763719Y19122271D01*
X3712853Y19145948D01*
X3487712Y19235430D01*
X3226433Y19317173D01*
X2928639Y19391252D01*
X2593955Y19457744D01*
X2222006Y19516726D01*
X1812415Y19568276D01*
X1364807Y19612468D01*
X1215383Y19625447D01*
X1181306Y19510993D01*
X1164285Y19439826D01*
X1148205Y19343023D01*
X1138834Y19250000D01*
X1142229Y19121884D01*
X1170416Y19019970D01*
X1225391Y18941405D01*
X1309077Y18882033D01*
X1330299Y18871336D01*
X1368054Y18855604D01*
X1407793Y18846313D01*
X1458771Y18842457D01*
X1530243Y18843031D01*
X1631462Y18847032D01*
X1703479Y18851455D01*
X1943166Y18880271D01*
X2208962Y18931576D01*
X2496972Y19004658D01*
X2533094Y19014411D01*
X2620223Y19034975D01*
X2696616Y19049230D01*
X2748980Y19054542D01*
X2783788Y19052306D01*
X2864769Y19027869D01*
X2926662Y18981520D01*
X2962844Y18919536D01*
X2966692Y18848193D01*
X2965523Y18843020D01*
X2953681Y18816849D01*
X2929991Y18792366D01*
X2891136Y18768452D01*
X2833796Y18743991D01*
X2754653Y18717863D01*
X2650387Y18688952D01*
X2517681Y18656139D01*
X2353214Y18618305D01*
X2153669Y18574335D01*
X2111562Y18565262D01*
X1983235Y18539160D01*
X1878332Y18521262D01*
X1785675Y18510137D01*
X1694085Y18504354D01*
X1592385Y18502483D01*
X1429458Y18507078D01*
X1241059Y18529723D01*
X1082721Y18571921D01*
X951882Y18634413D01*
X845980Y18717938D01*
X810423Y18756305D01*
X756474Y18834065D01*
X720136Y18923309D01*
X698309Y19032936D01*
X687894Y19171846D01*
X685746Y19245160D01*
X686462Y19324166D01*
X693011Y19386471D01*
X707002Y19445094D01*
X730041Y19513053D01*
X734102Y19524224D01*
X756588Y19588149D01*
X771484Y19634089D01*
X775742Y19652735D01*
X775099Y19652956D01*
X750153Y19654937D01*
X694705Y19657514D01*
X616225Y19660378D01*
X522185Y19663221D01*
X272601Y19670077D01*
X216263Y19523538D01*
X191887Y19459231D01*
X148916Y19337510D01*
X119432Y19236486D01*
X101181Y19146091D01*
X91908Y19056259D01*
X89359Y18956923D01*
X-375780Y18956923D01*
X-375751Y18970222D01*
X-373500Y19035703D01*
X-367037Y19100267D01*
X-354992Y19168531D01*
X-335996Y19245111D01*
X-308679Y19334623D01*
X-271670Y19441682D01*
X-223601Y19570905D01*
X-163100Y19726909D01*
X-88800Y19914308D01*
X-43234Y20029049D01*
X38083Y20237692D01*
X106462Y20419681D01*
X163938Y20581043D01*
X212548Y20727808D01*
X254329Y20866003D01*
X291316Y21001656D01*
X325547Y21140795D01*
X347279Y21238707D01*
X363438Y21330284D01*
X373005Y21418953D01*
X377445Y21518687D01*
X378220Y21643462D01*
X378189Y21649970D01*
X372275Y21826845D01*
X354792Y21978429D01*
X322916Y22117125D01*
X273822Y22255335D01*
X204686Y22405462D01*
X184845Y22445909D01*
X142318Y22543600D01*
X121336Y22618617D01*
X121500Y22678062D01*
X142408Y22729038D01*
X183662Y22778646D01*
X221680Y22812913D01*
X269946Y22838426D01*
X328701Y22845077D01*
X355806Y22843590D01*
X423433Y22823135D01*
X484745Y22775633D01*
X543824Y22697226D01*
X604751Y22584055D01*
X605574Y22582335D01*
X715426Y22310263D01*
X786925Y22032802D01*
X820199Y21748862D01*
X815377Y21457348D01*
X772587Y21157169D01*
X730288Y20967736D01*
X664363Y20716374D01*
X588344Y20463699D01*
X507382Y20227766D01*
X480873Y20154961D01*
X456417Y20085626D01*
X440512Y20037876D01*
X435738Y20019214D01*
X435831Y20019152D01*
X457058Y20017149D01*
X509373Y20014540D01*
X585105Y20011654D01*
X676581Y20008823D01*
X913547Y20002231D01*
X1024211Y20291467D01*
X1138850Y20615016D01*
X1236991Y20955512D01*
X1304241Y21277317D01*
X1340876Y21582832D01*
X1347170Y21874452D01*
X1323402Y22154577D01*
X1269846Y22425604D01*
X1244638Y22516708D01*
X1188570Y22677042D01*
X1117290Y22829997D01*
X1025605Y22986054D01*
X908326Y23155697D01*
X884508Y23193074D01*
X859505Y23273341D01*
X873362Y23349896D01*
X926123Y23423415D01*
X932260Y23429404D01*
X1006448Y23479314D01*
X1083576Y23490490D01*
X1163785Y23462884D01*
X1247217Y23396451D01*
X1334014Y23291145D01*
X1453120Y23099521D01*
X1567267Y22857105D01*
X1658205Y22593563D01*
X1724429Y22315381D01*
X1764432Y22029044D01*
X1776708Y21741037D01*
X1759752Y21457846D01*
X1736375Y21292508D01*
X1690261Y21051416D01*
X1629658Y20796072D01*
X1557503Y20537619D01*
X1476734Y20287201D01*
X1390288Y20055962D01*
X1387234Y20048422D01*
X1365847Y19993678D01*
X1358984Y19965442D01*
X1366455Y19954936D01*
X1388072Y19953385D01*
X1397052Y19953061D01*
X1443242Y19949681D01*
X1517006Y19943211D01*
X1610294Y19934376D01*
X1715056Y19923903D01*
X1828037Y19911953D01*
X2237116Y19861919D01*
X2613987Y19804711D01*
X2958099Y19740562D01*
X3268899Y19669701D01*
X3545836Y19592359D01*
X3788358Y19508768D01*
X3995914Y19419159D01*
X4167951Y19323761D01*
X4303919Y19222808D01*
X4403266Y19116528D01*
X4465439Y19005154D01*
X4489888Y18888916D01*
X4487766Y18870372D01*
X4476060Y18768045D01*
X4466091Y18736625D01*
%TD*%
%LPC*%
D11*
%TO.C,C2*%
X-10650000Y15000000D03*
X-7350000Y15000000D03*
%TD*%
%TO.C,C1*%
X7350000Y15000000D03*
X10650000Y15000000D03*
%TD*%
D12*
%TO.C,*%
X-11000000Y19000000D03*
%TD*%
%TO.C,*%
X11000000Y19000000D03*
%TD*%
D13*
%TO.C,J11*%
X6198566Y22694079D03*
D14*
X4758957Y22170104D03*
D13*
X7241043Y19829896D03*
D14*
X5801434Y19305921D03*
%TD*%
D15*
%TO.C,J10*%
X-4718923Y22170104D03*
D16*
X-6158532Y22694079D03*
D15*
X-5761400Y19305921D03*
D16*
X-7201010Y19829896D03*
%TD*%
D17*
%TO.C,J9*%
X-9000000Y8000000D03*
X-9000000Y3000000D03*
%TD*%
%TO.C,J8*%
X9000000Y3000000D03*
X9000000Y8000000D03*
%TD*%
D18*
%TO.C,J7*%
X0Y3500000D03*
X0Y9500000D03*
%TD*%
D19*
%TO.C,J4*%
X-3300000Y14250000D03*
%TD*%
%TO.C,J3*%
X-1100000Y14250000D03*
%TD*%
D20*
%TO.C,J2*%
X1250000Y24500000D03*
%TD*%
D19*
%TO.C,J1*%
X1100000Y14250000D03*
%TD*%
%TO.C,J6*%
X3300000Y14250000D03*
%TD*%
D21*
%TO.C,J5*%
X-1250000Y24500000D03*
%TD*%
M02*
