%TF.GenerationSoftware,KiCad,Pcbnew,(6.0.5)*%
%TF.CreationDate,2022-11-23T01:52:28-05:00*%
%TF.ProjectId,Eggman3,4567676d-616e-4332-9e6b-696361645f70,rev?*%
%TF.SameCoordinates,Original*%
%TF.FileFunction,Legend,Top*%
%TF.FilePolarity,Positive*%
%FSLAX46Y46*%
G04 Gerber Fmt 4.6, Leading zero omitted, Abs format (unit mm)*
G04 Created by KiCad (PCBNEW (6.0.5)) date 2022-11-23 01:52:28*
%MOMM*%
%LPD*%
G01*
G04 APERTURE LIST*
G04 Aperture macros list*
%AMRoundRect*
0 Rectangle with rounded corners*
0 $1 Rounding radius*
0 $2 $3 $4 $5 $6 $7 $8 $9 X,Y pos of 4 corners*
0 Add a 4 corners polygon primitive as box body*
4,1,4,$2,$3,$4,$5,$6,$7,$8,$9,$2,$3,0*
0 Add four circle primitives for the rounded corners*
1,1,$1+$1,$2,$3*
1,1,$1+$1,$4,$5*
1,1,$1+$1,$6,$7*
1,1,$1+$1,$8,$9*
0 Add four rect primitives between the rounded corners*
20,1,$1+$1,$2,$3,$4,$5,0*
20,1,$1+$1,$4,$5,$6,$7,0*
20,1,$1+$1,$6,$7,$8,$9,0*
20,1,$1+$1,$8,$9,$2,$3,0*%
G04 Aperture macros list end*
%ADD10C,0.200000*%
%ADD11C,0.400000*%
%ADD12C,0.150000*%
%ADD13C,0.120000*%
%ADD14C,1.800000*%
%ADD15C,2.600000*%
%ADD16RoundRect,0.200000X-1.260293X0.392633X-0.713061X-1.110875X1.260293X-0.392633X0.713061X1.110875X0*%
%ADD17RoundRect,0.200000X1.260293X-0.392633X0.713061X1.110875X-1.260293X0.392633X-0.713061X-1.110875X0*%
%ADD18RoundRect,0.200000X-0.713061X1.110875X-1.260293X-0.392633X0.713061X-1.110875X1.260293X0.392633X0*%
%ADD19RoundRect,0.200000X0.713061X-1.110875X1.260293X0.392633X-0.713061X1.110875X-1.260293X-0.392633X0*%
%ADD20C,4.000000*%
%ADD21RoundRect,1.500000X1.250000X0.000000X1.250000X0.000000X-1.250000X0.000000X-1.250000X0.000000X0*%
%ADD22RoundRect,0.375000X-0.375000X-0.375000X0.375000X-0.375000X0.375000X0.375000X-0.375000X0.375000X0*%
%ADD23RoundRect,0.375000X-0.375000X-1.125000X0.375000X-1.125000X0.375000X1.125000X-0.375000X1.125000X0*%
%ADD24RoundRect,0.375000X-0.375000X0.375000X-0.375000X-0.375000X0.375000X-0.375000X0.375000X0.375000X0*%
%ADD25RoundRect,0.375000X-1.125000X0.375000X-1.125000X-0.375000X1.125000X-0.375000X1.125000X0.375000X0*%
%ADD26RoundRect,0.375000X0.375000X-0.375000X0.375000X0.375000X-0.375000X0.375000X-0.375000X-0.375000X0*%
%ADD27RoundRect,0.375000X1.125000X-0.375000X1.125000X0.375000X-1.125000X0.375000X-1.125000X-0.375000X0*%
G04 APERTURE END LIST*
D10*
X-876190Y17900000D02*
X-952380Y17938095D01*
X-1066666Y17938095D01*
X-1180952Y17900000D01*
X-1257142Y17823809D01*
X-1295238Y17747619D01*
X-1333333Y17595238D01*
X-1333333Y17480952D01*
X-1295238Y17328571D01*
X-1257142Y17252380D01*
X-1180952Y17176190D01*
X-1066666Y17138095D01*
X-990476Y17138095D01*
X-876190Y17176190D01*
X-838095Y17214285D01*
X-838095Y17480952D01*
X-990476Y17480952D01*
X-609523Y17938095D02*
X-342857Y17138095D01*
X-76190Y17938095D01*
X457142Y17557142D02*
X190476Y17557142D01*
X190476Y17138095D02*
X190476Y17938095D01*
X571428Y17938095D01*
X1142857Y17557142D02*
X1257142Y17519047D01*
X1295238Y17480952D01*
X1333333Y17404761D01*
X1333333Y17290476D01*
X1295238Y17214285D01*
X1257142Y17176190D01*
X1180952Y17138095D01*
X876190Y17138095D01*
X876190Y17938095D01*
X1142857Y17938095D01*
X1219047Y17900000D01*
X1257142Y17861904D01*
X1295238Y17785714D01*
X1295238Y17709523D01*
X1257142Y17633333D01*
X1219047Y17595238D01*
X1142857Y17557142D01*
X876190Y17557142D01*
X4214285Y12557142D02*
X3947619Y12557142D01*
X3947619Y12138095D02*
X3947619Y12938095D01*
X4328571Y12938095D01*
X4900000Y12557142D02*
X5014285Y12519047D01*
X5052380Y12480952D01*
X5090476Y12404761D01*
X5090476Y12290476D01*
X5052380Y12214285D01*
X5014285Y12176190D01*
X4938095Y12138095D01*
X4633333Y12138095D01*
X4633333Y12938095D01*
X4900000Y12938095D01*
X4976190Y12900000D01*
X5014285Y12861904D01*
X5052380Y12785714D01*
X5052380Y12709523D01*
X5014285Y12633333D01*
X4976190Y12595238D01*
X4900000Y12557142D01*
X4633333Y12557142D01*
X-4633333Y12900000D02*
X-4709523Y12938095D01*
X-4823809Y12938095D01*
X-4938095Y12900000D01*
X-5014285Y12823809D01*
X-5052380Y12747619D01*
X-5090476Y12595238D01*
X-5090476Y12480952D01*
X-5052380Y12328571D01*
X-5014285Y12252380D01*
X-4938095Y12176190D01*
X-4823809Y12138095D01*
X-4747619Y12138095D01*
X-4633333Y12176190D01*
X-4595238Y12214285D01*
X-4595238Y12480952D01*
X-4747619Y12480952D01*
X-4366666Y12938095D02*
X-4100000Y12138095D01*
X-3833333Y12938095D01*
X-3876190Y19438095D02*
X-3609523Y18638095D01*
X-3342857Y19438095D01*
X-3076190Y18638095D02*
X-3076190Y19438095D01*
X-2695238Y18638095D02*
X-2695238Y19438095D01*
X-2238095Y18638095D01*
X-2238095Y19438095D01*
X1623809Y21938095D02*
X1890476Y21138095D01*
X2157142Y21938095D01*
X2423809Y21138095D02*
X2423809Y21938095D01*
X2804761Y21138095D02*
X2804761Y21938095D01*
X3261904Y21138095D01*
X3261904Y21938095D01*
X2390476Y19400000D02*
X2314285Y19438095D01*
X2200000Y19438095D01*
X2085714Y19400000D01*
X2009523Y19323809D01*
X1971428Y19247619D01*
X1933333Y19095238D01*
X1933333Y18980952D01*
X1971428Y18828571D01*
X2009523Y18752380D01*
X2085714Y18676190D01*
X2200000Y18638095D01*
X2276190Y18638095D01*
X2390476Y18676190D01*
X2428571Y18714285D01*
X2428571Y18980952D01*
X2276190Y18980952D01*
X2771428Y18638095D02*
X2771428Y19438095D01*
X3228571Y18638095D01*
X3228571Y19438095D01*
X3609523Y18638095D02*
X3609523Y19438095D01*
X3800000Y19438095D01*
X3914285Y19400000D01*
X3990476Y19323809D01*
X4028571Y19247619D01*
X4066666Y19095238D01*
X4066666Y18980952D01*
X4028571Y18828571D01*
X3990476Y18752380D01*
X3914285Y18676190D01*
X3800000Y18638095D01*
X3609523Y18638095D01*
X-2609523Y21900000D02*
X-2685714Y21938095D01*
X-2800000Y21938095D01*
X-2914285Y21900000D01*
X-2990476Y21823809D01*
X-3028571Y21747619D01*
X-3066666Y21595238D01*
X-3066666Y21480952D01*
X-3028571Y21328571D01*
X-2990476Y21252380D01*
X-2914285Y21176190D01*
X-2800000Y21138095D01*
X-2723809Y21138095D01*
X-2609523Y21176190D01*
X-2571428Y21214285D01*
X-2571428Y21480952D01*
X-2723809Y21480952D01*
X-2228571Y21138095D02*
X-2228571Y21938095D01*
X-1771428Y21138095D01*
X-1771428Y21938095D01*
X-1390476Y21138095D02*
X-1390476Y21938095D01*
X-1200000Y21938095D01*
X-1085714Y21900000D01*
X-1009523Y21823809D01*
X-971428Y21747619D01*
X-933333Y21595238D01*
X-933333Y21480952D01*
X-971428Y21328571D01*
X-1009523Y21252380D01*
X-1085714Y21176190D01*
X-1200000Y21138095D01*
X-1390476Y21138095D01*
D11*
X-17523809Y21000000D02*
X-17714285Y21095238D01*
X-18000000Y21095238D01*
X-18285714Y21000000D01*
X-18476190Y20809523D01*
X-18571428Y20619047D01*
X-18666666Y20238095D01*
X-18666666Y19952380D01*
X-18571428Y19571428D01*
X-18476190Y19380952D01*
X-18285714Y19190476D01*
X-18000000Y19095238D01*
X-17809523Y19095238D01*
X-17523809Y19190476D01*
X-17428571Y19285714D01*
X-17428571Y19952380D01*
X-17809523Y19952380D01*
X-16571428Y19095238D02*
X-16571428Y21095238D01*
X-15428571Y19095238D01*
X-15428571Y21095238D01*
X-14476190Y19095238D02*
X-14476190Y21095238D01*
X-14000000Y21095238D01*
X-13714285Y21000000D01*
X-13523809Y20809523D01*
X-13428571Y20619047D01*
X-13333333Y20238095D01*
X-13333333Y19952380D01*
X-13428571Y19571428D01*
X-13523809Y19380952D01*
X-13714285Y19190476D01*
X-14000000Y19095238D01*
X-14476190Y19095238D01*
D12*
%TO.C,*%
D13*
%TO.C,C2*%
X-12250000Y16250000D02*
X-11250000Y16250000D01*
X-11750000Y16750000D02*
X-11750000Y15750000D01*
X-5000000Y15000000D02*
G75*
G03*
X-5000000Y15000000I-4000000J0D01*
G01*
%TO.C,C1*%
X5750000Y16250000D02*
X6750000Y16250000D01*
X6250000Y16750000D02*
X6250000Y15750000D01*
X13000000Y15000000D02*
G75*
G03*
X13000000Y15000000I-4000000J0D01*
G01*
%TO.C,J9*%
X-10410000Y10710000D02*
X-11710000Y9010000D01*
X-7590000Y10710000D02*
X-10410000Y10710000D01*
X-7590000Y10710000D02*
X-6290000Y9010000D01*
X-6290000Y290000D02*
X-11710000Y290000D01*
X-6290000Y9010000D02*
X-6290000Y290000D01*
X-11710000Y9010000D02*
X-11710000Y290000D01*
%TO.C,J8*%
X10410000Y290000D02*
X11710000Y1990000D01*
X7590000Y290000D02*
X10410000Y290000D01*
X7590000Y290000D02*
X6290000Y1990000D01*
X6290000Y10710000D02*
X11710000Y10710000D01*
X6290000Y1990000D02*
X6290000Y10710000D01*
X11710000Y1990000D02*
X11710000Y10710000D01*
%TO.C,J7*%
X3250000Y100000D02*
X-3250000Y100000D01*
X3250000Y12900000D02*
X3250000Y100000D01*
X-3250000Y12900000D02*
X3250000Y12900000D01*
X-3250000Y100000D02*
X-3250000Y12900000D01*
%TD*%
%LPC*%
D14*
%TO.C,C2*%
X-10650000Y15000000D03*
X-7350000Y15000000D03*
%TD*%
%TO.C,C1*%
X7350000Y15000000D03*
X10650000Y15000000D03*
%TD*%
D15*
%TO.C,*%
X-11000000Y19000000D03*
%TD*%
%TO.C,*%
X11000000Y19000000D03*
%TD*%
D16*
%TO.C,J11*%
X6198566Y22694079D03*
D17*
X4758957Y22170104D03*
D16*
X7241043Y19829896D03*
D17*
X5801434Y19305921D03*
%TD*%
D18*
%TO.C,J10*%
X-4718923Y22170104D03*
D19*
X-6158532Y22694079D03*
D18*
X-5761400Y19305921D03*
D19*
X-7201010Y19829896D03*
%TD*%
D20*
%TO.C,J9*%
X-9000000Y8000000D03*
X-9000000Y3000000D03*
%TD*%
%TO.C,J8*%
X9000000Y3000000D03*
X9000000Y8000000D03*
%TD*%
D21*
%TO.C,J7*%
X0Y3500000D03*
X0Y9500000D03*
%TD*%
D22*
%TO.C,J4*%
X-3300000Y14250000D03*
D23*
X-3300000Y15000000D03*
%TD*%
D22*
%TO.C,J3*%
X-1100000Y14250000D03*
D23*
X-1100000Y15000000D03*
%TD*%
D24*
%TO.C,J2*%
X1250000Y24500000D03*
D25*
X2000000Y24500000D03*
%TD*%
D22*
%TO.C,J1*%
X1100000Y14250000D03*
D23*
X1100000Y15000000D03*
%TD*%
D22*
%TO.C,J6*%
X3300000Y14250000D03*
D23*
X3300000Y15000000D03*
%TD*%
D26*
%TO.C,J5*%
X-1250000Y24500000D03*
D27*
X-2000000Y24500000D03*
%TD*%
M02*
