%TF.GenerationSoftware,KiCad,Pcbnew,(6.0.5)*%
%TF.CreationDate,2022-12-07T13:07:59-05:00*%
%TF.ProjectId,Rotini-Hardware,526f7469-6e69-42d4-9861-726477617265,rev?*%
%TF.SameCoordinates,Original*%
%TF.FileFunction,Legend,Top*%
%TF.FilePolarity,Positive*%
%FSLAX46Y46*%
G04 Gerber Fmt 4.6, Leading zero omitted, Abs format (unit mm)*
G04 Created by KiCad (PCBNEW (6.0.5)) date 2022-12-07 13:07:59*
%MOMM*%
%LPD*%
G01*
G04 APERTURE LIST*
G04 Aperture macros list*
%AMRoundRect*
0 Rectangle with rounded corners*
0 $1 Rounding radius*
0 $2 $3 $4 $5 $6 $7 $8 $9 X,Y pos of 4 corners*
0 Add a 4 corners polygon primitive as box body*
4,1,4,$2,$3,$4,$5,$6,$7,$8,$9,$2,$3,0*
0 Add four circle primitives for the rounded corners*
1,1,$1+$1,$2,$3*
1,1,$1+$1,$4,$5*
1,1,$1+$1,$6,$7*
1,1,$1+$1,$8,$9*
0 Add four rect primitives between the rounded corners*
20,1,$1+$1,$2,$3,$4,$5,0*
20,1,$1+$1,$4,$5,$6,$7,0*
20,1,$1+$1,$6,$7,$8,$9,0*
20,1,$1+$1,$8,$9,$2,$3,0*%
%AMRotRect*
0 Rectangle, with rotation*
0 The origin of the aperture is its center*
0 $1 length*
0 $2 width*
0 $3 Rotation angle, in degrees counterclockwise*
0 Add horizontal line*
21,1,$1,$2,0,0,$3*%
G04 Aperture macros list end*
%ADD10C,0.300000*%
%ADD11C,0.120000*%
%ADD12C,0.254000*%
%ADD13C,0.200000*%
%ADD14C,0.150000*%
%ADD15C,0.100000*%
%ADD16RoundRect,0.375000X0.375000X-0.375000X0.375000X0.375000X-0.375000X0.375000X-0.375000X-0.375000X0*%
%ADD17RoundRect,0.375000X-0.375000X0.375000X-0.375000X-0.375000X0.375000X-0.375000X0.375000X0.375000X0*%
%ADD18RoundRect,0.150000X0.625000X-0.150000X0.625000X0.150000X-0.625000X0.150000X-0.625000X-0.150000X0*%
%ADD19RoundRect,0.250000X0.650000X-0.350000X0.650000X0.350000X-0.650000X0.350000X-0.650000X-0.350000X0*%
%ADD20RoundRect,0.150000X-0.625000X0.150000X-0.625000X-0.150000X0.625000X-0.150000X0.625000X0.150000X0*%
%ADD21RoundRect,0.250000X-0.650000X0.350000X-0.650000X-0.350000X0.650000X-0.350000X0.650000X0.350000X0*%
%ADD22C,3.200000*%
%ADD23RoundRect,0.135000X0.135000X0.185000X-0.135000X0.185000X-0.135000X-0.185000X0.135000X-0.185000X0*%
%ADD24RoundRect,0.135000X-0.135000X-0.185000X0.135000X-0.185000X0.135000X0.185000X-0.135000X0.185000X0*%
%ADD25R,1.000000X1.000000*%
%ADD26RoundRect,0.218750X0.218750X0.256250X-0.218750X0.256250X-0.218750X-0.256250X0.218750X-0.256250X0*%
%ADD27RoundRect,0.135000X-0.185000X0.135000X-0.185000X-0.135000X0.185000X-0.135000X0.185000X0.135000X0*%
%ADD28RoundRect,0.140000X-0.170000X0.140000X-0.170000X-0.140000X0.170000X-0.140000X0.170000X0.140000X0*%
%ADD29RoundRect,0.140000X-0.140000X-0.170000X0.140000X-0.170000X0.140000X0.170000X-0.140000X0.170000X0*%
%ADD30RoundRect,0.135000X0.185000X-0.135000X0.185000X0.135000X-0.185000X0.135000X-0.185000X-0.135000X0*%
%ADD31RoundRect,0.225000X0.250000X-0.225000X0.250000X0.225000X-0.250000X0.225000X-0.250000X-0.225000X0*%
%ADD32RoundRect,0.140000X0.170000X-0.140000X0.170000X0.140000X-0.170000X0.140000X-0.170000X-0.140000X0*%
%ADD33RoundRect,0.140000X0.140000X0.170000X-0.140000X0.170000X-0.140000X-0.170000X0.140000X-0.170000X0*%
%ADD34RoundRect,0.050000X0.050000X-0.387500X0.050000X0.387500X-0.050000X0.387500X-0.050000X-0.387500X0*%
%ADD35RoundRect,0.050000X0.387500X-0.050000X0.387500X0.050000X-0.387500X0.050000X-0.387500X-0.050000X0*%
%ADD36R,4.000000X4.000000*%
%ADD37RoundRect,0.150000X0.587500X0.150000X-0.587500X0.150000X-0.587500X-0.150000X0.587500X-0.150000X0*%
%ADD38RoundRect,0.212500X0.887500X-0.212500X0.887500X0.212500X-0.887500X0.212500X-0.887500X-0.212500X0*%
%ADD39RoundRect,0.075000X-0.350000X-0.075000X0.350000X-0.075000X0.350000X0.075000X-0.350000X0.075000X0*%
%ADD40RoundRect,0.075000X-0.075000X-0.350000X0.075000X-0.350000X0.075000X0.350000X-0.075000X0.350000X0*%
%ADD41R,2.650000X2.650000*%
%ADD42RoundRect,0.140000X0.219203X0.021213X0.021213X0.219203X-0.219203X-0.021213X-0.021213X-0.219203X0*%
%ADD43C,1.778000*%
%ADD44RotRect,1.000000X0.300000X135.000000*%
%ADD45RotRect,0.300000X1.000000X135.000000*%
%ADD46C,0.600000*%
%ADD47R,0.600000X1.160000*%
%ADD48R,0.300000X1.160000*%
%ADD49O,0.900000X2.000000*%
%ADD50O,0.900000X1.700000*%
%ADD51R,0.800000X0.900000*%
%ADD52RoundRect,0.147500X-0.147500X-0.172500X0.147500X-0.172500X0.147500X0.172500X-0.147500X0.172500X0*%
%ADD53RoundRect,0.150000X-0.150000X0.512500X-0.150000X-0.512500X0.150000X-0.512500X0.150000X0.512500X0*%
%ADD54R,2.200000X1.050000*%
%ADD55R,1.050000X1.000000*%
%ADD56RoundRect,0.147500X0.172500X-0.147500X0.172500X0.147500X-0.172500X0.147500X-0.172500X-0.147500X0*%
%ADD57R,0.900000X0.800000*%
%ADD58RoundRect,0.062500X-0.062500X0.337500X-0.062500X-0.337500X0.062500X-0.337500X0.062500X0.337500X0*%
%ADD59RoundRect,0.062500X-0.337500X0.062500X-0.337500X-0.062500X0.337500X-0.062500X0.337500X0.062500X0*%
%ADD60R,3.700000X3.700000*%
G04 APERTURE END LIST*
D10*
X3464285Y-3938095D02*
X3030952Y-3319047D01*
X2721428Y-3938095D02*
X2721428Y-2638095D01*
X3216666Y-2638095D01*
X3340476Y-2700000D01*
X3402380Y-2761904D01*
X3464285Y-2885714D01*
X3464285Y-3071428D01*
X3402380Y-3195238D01*
X3340476Y-3257142D01*
X3216666Y-3319047D01*
X2721428Y-3319047D01*
X4207142Y-3938095D02*
X4083333Y-3876190D01*
X4021428Y-3814285D01*
X3959523Y-3690476D01*
X3959523Y-3319047D01*
X4021428Y-3195238D01*
X4083333Y-3133333D01*
X4207142Y-3071428D01*
X4392857Y-3071428D01*
X4516666Y-3133333D01*
X4578571Y-3195238D01*
X4640476Y-3319047D01*
X4640476Y-3690476D01*
X4578571Y-3814285D01*
X4516666Y-3876190D01*
X4392857Y-3938095D01*
X4207142Y-3938095D01*
X5011904Y-3071428D02*
X5507142Y-3071428D01*
X5197619Y-2638095D02*
X5197619Y-3752380D01*
X5259523Y-3876190D01*
X5383333Y-3938095D01*
X5507142Y-3938095D01*
X5940476Y-3938095D02*
X5940476Y-3071428D01*
X5940476Y-2638095D02*
X5878571Y-2700000D01*
X5940476Y-2761904D01*
X6002380Y-2700000D01*
X5940476Y-2638095D01*
X5940476Y-2761904D01*
X6559523Y-3071428D02*
X6559523Y-3938095D01*
X6559523Y-3195238D02*
X6621428Y-3133333D01*
X6745238Y-3071428D01*
X6930952Y-3071428D01*
X7054761Y-3133333D01*
X7116666Y-3257142D01*
X7116666Y-3938095D01*
X7735714Y-3938095D02*
X7735714Y-3071428D01*
X7735714Y-2638095D02*
X7673809Y-2700000D01*
X7735714Y-2761904D01*
X7797619Y-2700000D01*
X7735714Y-2638095D01*
X7735714Y-2761904D01*
X9159523Y-2638095D02*
X9592857Y-3938095D01*
X10026190Y-2638095D01*
X10397619Y-2761904D02*
X10459523Y-2700000D01*
X10583333Y-2638095D01*
X10892857Y-2638095D01*
X11016666Y-2700000D01*
X11078571Y-2761904D01*
X11140476Y-2885714D01*
X11140476Y-3009523D01*
X11078571Y-3195238D01*
X10335714Y-3938095D01*
X11140476Y-3938095D01*
D11*
X-5100000Y10200000D02*
X5100000Y10200000D01*
X5100000Y10200000D02*
X5100000Y7600000D01*
X5100000Y7600000D02*
X-5100000Y7600000D01*
X-5100000Y7600000D02*
X-5100000Y10200000D01*
D12*
X-5452000Y-8000000D02*
G75*
G03*
X-5452000Y-8000000I-3048000J0D01*
G01*
X11548000Y-8000000D02*
G75*
G03*
X11548000Y-8000000I-3048000J0D01*
G01*
D11*
X-5100000Y-7600000D02*
X5100000Y-7600000D01*
X5100000Y-7600000D02*
X5100000Y-10200000D01*
X5100000Y-10200000D02*
X-5100000Y-10200000D01*
X-5100000Y-10200000D02*
X-5100000Y-7600000D01*
D13*
X17002380Y8738095D02*
X17269047Y7938095D01*
X17535714Y8738095D01*
X17764285Y8661904D02*
X17802380Y8700000D01*
X17878571Y8738095D01*
X18069047Y8738095D01*
X18145238Y8700000D01*
X18183333Y8661904D01*
X18221428Y8585714D01*
X18221428Y8509523D01*
X18183333Y8395238D01*
X17726190Y7938095D01*
X18221428Y7938095D01*
D14*
%TO.C,*%
D11*
%TO.C,J203*%
X22885000Y3260000D02*
X22885000Y6140000D01*
X18415000Y7310000D02*
X18415000Y6260000D01*
X18415000Y2090000D02*
X18415000Y3140000D01*
X20915000Y2090000D02*
X18415000Y2090000D01*
X18415000Y3140000D02*
X17425000Y3140000D01*
X20915000Y7310000D02*
X18415000Y7310000D01*
%TO.C,J202*%
X-18415000Y-5490000D02*
X-17425000Y-5490000D01*
X-20915000Y-8660000D02*
X-18415000Y-8660000D01*
X-18415000Y-8660000D02*
X-18415000Y-7610000D01*
X-20915000Y-4440000D02*
X-18415000Y-4440000D01*
X-22885000Y-5610000D02*
X-22885000Y-7490000D01*
X-18415000Y-4440000D02*
X-18415000Y-5490000D01*
%TO.C,R60*%
X2953641Y5870000D02*
X2646359Y5870000D01*
X2953641Y6630000D02*
X2646359Y6630000D01*
%TO.C,R63*%
X-1978641Y6770000D02*
X-1671359Y6770000D01*
X-1978641Y7530000D02*
X-1671359Y7530000D01*
%TO.C,D42*%
X-6800000Y-4400000D02*
X-5100000Y-4400000D01*
X-6800000Y-4400000D02*
X-6800000Y-1250000D01*
X-5100000Y-4400000D02*
X-5100000Y-1250000D01*
%TO.C,D60*%
X19800000Y8765000D02*
X22085000Y8765000D01*
X22085000Y10235000D02*
X19800000Y10235000D01*
X22085000Y8765000D02*
X22085000Y10235000D01*
%TO.C,D20*%
X13300000Y-1300000D02*
X16450000Y-1300000D01*
X13300000Y400000D02*
X16450000Y400000D01*
X13300000Y400000D02*
X13300000Y-1300000D01*
%TO.C,R33*%
X-23330000Y7013641D02*
X-23330000Y6706359D01*
X-22570000Y7013641D02*
X-22570000Y6706359D01*
%TO.C,C12*%
X5190000Y8107836D02*
X5190000Y7892164D01*
X5910000Y8107836D02*
X5910000Y7892164D01*
%TO.C,C63*%
X2742164Y6790000D02*
X2957836Y6790000D01*
X2742164Y7510000D02*
X2957836Y7510000D01*
%TO.C,R41*%
X19246359Y880000D02*
X19553641Y880000D01*
X19246359Y120000D02*
X19553641Y120000D01*
%TO.C,C10*%
X6060000Y2607836D02*
X6060000Y2392164D01*
X5340000Y2607836D02*
X5340000Y2392164D01*
%TO.C,D40*%
X23235000Y-1985000D02*
X23235000Y-515000D01*
X20950000Y-1985000D02*
X23235000Y-1985000D01*
X23235000Y-515000D02*
X20950000Y-515000D01*
%TO.C,C62*%
X2692164Y3860000D02*
X2907836Y3860000D01*
X2692164Y3140000D02*
X2907836Y3140000D01*
%TO.C,R56*%
X22520000Y-7053641D02*
X22520000Y-6746359D01*
X23280000Y-7053641D02*
X23280000Y-6746359D01*
%TO.C,C20*%
X-16660000Y-5740580D02*
X-16660000Y-5459420D01*
X-15640000Y-5740580D02*
X-15640000Y-5459420D01*
%TO.C,C4*%
X15790000Y3792164D02*
X15790000Y4007836D01*
X16510000Y3792164D02*
X16510000Y4007836D01*
%TO.C,C102*%
X-6607836Y8760000D02*
X-6392164Y8760000D01*
X-6607836Y8040000D02*
X-6392164Y8040000D01*
%TO.C,C7*%
X15740000Y9722164D02*
X15740000Y9937836D01*
X16460000Y9722164D02*
X16460000Y9937836D01*
%TO.C,R67*%
X-3696359Y7530000D02*
X-4003641Y7530000D01*
X-3696359Y6770000D02*
X-4003641Y6770000D01*
%TO.C,C13*%
X8060000Y-792164D02*
X8060000Y-1007836D01*
X7340000Y-792164D02*
X7340000Y-1007836D01*
%TO.C,C61*%
X2937836Y-660000D02*
X2722164Y-660000D01*
X2937836Y60000D02*
X2722164Y60000D01*
%TO.C,R4*%
X19080000Y9953641D02*
X19080000Y9646359D01*
X18320000Y9953641D02*
X18320000Y9646359D01*
%TO.C,D41*%
X23235000Y1085000D02*
X20950000Y1085000D01*
X20950000Y-385000D02*
X23235000Y-385000D01*
X23235000Y-385000D02*
X23235000Y1085000D01*
%TO.C,R35*%
X-14580000Y5696359D02*
X-14580000Y6003641D01*
X-13820000Y5696359D02*
X-13820000Y6003641D01*
%TO.C,R20*%
X-14096359Y-1780000D02*
X-14403641Y-1780000D01*
X-14096359Y-1020000D02*
X-14403641Y-1020000D01*
%TO.C,C11*%
X5357836Y4210000D02*
X5142164Y4210000D01*
X5357836Y3490000D02*
X5142164Y3490000D01*
%TO.C,C70*%
X-7757836Y-765000D02*
X-7542164Y-765000D01*
X-7757836Y-1485000D02*
X-7542164Y-1485000D01*
%TO.C,U1*%
X14560000Y3040000D02*
X13910000Y3040000D01*
X7340000Y9610000D02*
X7340000Y10260000D01*
X14560000Y9610000D02*
X14560000Y10260000D01*
X14560000Y10260000D02*
X13910000Y10260000D01*
X14560000Y3690000D02*
X14560000Y3040000D01*
X7340000Y3690000D02*
X7340000Y3040000D01*
X7340000Y10260000D02*
X7990000Y10260000D01*
%TO.C,C9*%
X6960000Y842164D02*
X6960000Y1057836D01*
X6240000Y842164D02*
X6240000Y1057836D01*
%TO.C,Q20*%
X-15900000Y-10610000D02*
X-16550000Y-10610000D01*
X-15900000Y-7490000D02*
X-15250000Y-7490000D01*
X-15900000Y-10610000D02*
X-14225000Y-10610000D01*
X-15900000Y-7490000D02*
X-16550000Y-7490000D01*
%TO.C,C74*%
X-13597164Y4090000D02*
X-13812836Y4090000D01*
X-13597164Y4810000D02*
X-13812836Y4810000D01*
%TO.C,R1*%
X7180000Y-746359D02*
X7180000Y-1053641D01*
X6420000Y-746359D02*
X6420000Y-1053641D01*
%TO.C,R32*%
X-14580000Y7536359D02*
X-14580000Y7843641D01*
X-13820000Y7536359D02*
X-13820000Y7843641D01*
%TO.C,R43*%
X-8403641Y-3530000D02*
X-8096359Y-3530000D01*
X-8403641Y-2770000D02*
X-8096359Y-2770000D01*
%TO.C,C6*%
X17310000Y9722164D02*
X17310000Y9937836D01*
X16590000Y9722164D02*
X16590000Y9937836D01*
%TO.C,C14*%
X10290000Y1057836D02*
X10290000Y842164D01*
X11010000Y1057836D02*
X11010000Y842164D01*
%TO.C,C104*%
X-5640000Y6792164D02*
X-5640000Y7007836D01*
X-6360000Y6792164D02*
X-6360000Y7007836D01*
%TO.C,C1*%
X7590000Y812164D02*
X7590000Y1027836D01*
X8310000Y812164D02*
X8310000Y1027836D01*
%TO.C,U70*%
X-11195000Y4690000D02*
X-11645000Y4690000D01*
X-11645000Y470000D02*
X-11645000Y920000D01*
X-7425000Y470000D02*
X-7425000Y920000D01*
X-7875000Y4690000D02*
X-7425000Y4690000D01*
X-11195000Y470000D02*
X-11645000Y470000D01*
X-7425000Y4690000D02*
X-7425000Y4240000D01*
X-7875000Y470000D02*
X-7425000Y470000D01*
%TO.C,Q33*%
X-16600000Y3040000D02*
X-17250000Y3040000D01*
X-16600000Y6160000D02*
X-17250000Y6160000D01*
X-16600000Y3040000D02*
X-14925000Y3040000D01*
X-16600000Y6160000D02*
X-15950000Y6160000D01*
%TO.C,R66*%
X-5525000Y2678641D02*
X-5525000Y2371359D01*
X-6285000Y2678641D02*
X-6285000Y2371359D01*
%TO.C,C31*%
X-3078307Y-6659059D02*
X-3230810Y-6506556D01*
X-2569190Y-6149942D02*
X-2721693Y-5997439D01*
%TO.C,C3*%
X8490000Y812164D02*
X8490000Y1027836D01*
X9210000Y812164D02*
X9210000Y1027836D01*
%TO.C,U30*%
X-6350000Y7620000D02*
G75*
G03*
X-6350000Y7620000I-1270000J0D01*
G01*
X8890000Y-7620000D02*
G75*
G03*
X8890000Y-7620000I-1270000J0D01*
G01*
X8890000Y7620000D02*
G75*
G03*
X8890000Y7620000I-1270000J0D01*
G01*
X-6350000Y-7620000D02*
G75*
G03*
X-6350000Y-7620000I-1270000J0D01*
G01*
X-2500000Y2000000D02*
X-4500000Y2000000D01*
X-4500000Y2000000D02*
X-4500000Y-2000000D01*
X-4500000Y-2000000D02*
X-2500000Y-2000000D01*
X-2500000Y-2000000D02*
X-2500000Y2000000D01*
X1500000Y1500000D02*
X-1500000Y1500000D01*
X-1500000Y1500000D02*
X-1500000Y-1500000D01*
X-1500000Y-1500000D02*
X1500000Y-1500000D01*
X1500000Y-1500000D02*
X1500000Y1500000D01*
X10160000Y10668000D02*
X-10160000Y10668000D01*
X-10160000Y10668000D02*
X-10160000Y-10668000D01*
X-10160000Y-10668000D02*
X10160000Y-10668000D01*
X10160000Y-10668000D02*
X10160000Y10668000D01*
%TO.C,R40*%
X19246359Y-880000D02*
X19553641Y-880000D01*
X19246359Y-120000D02*
X19553641Y-120000D01*
D15*
%TO.C,U31*%
X-2262742Y-4700000D02*
X-2050610Y-4487868D01*
X247487Y-2684746D02*
X0Y-2437258D01*
X212132Y-6750610D02*
X636396Y-7174874D01*
X-247487Y-6715254D02*
X0Y-6962742D01*
X-2050610Y-4912132D02*
X-2262742Y-4700000D01*
X0Y-2437258D02*
X-212132Y-2649390D01*
X0Y-6962742D02*
X212132Y-6750610D01*
X2050610Y-4912132D02*
X2262742Y-4700000D01*
X2262742Y-4700000D02*
X2050610Y-4487868D01*
D11*
%TO.C,U52*%
X12530000Y-10755000D02*
X12530000Y-9295000D01*
X12530000Y-5245000D02*
X12530000Y-7045000D01*
X21470000Y-5245000D02*
X21470000Y-7045000D01*
X21470000Y-10755000D02*
X12530000Y-10755000D01*
X21470000Y-10755000D02*
X21470000Y-9295000D01*
%TO.C,Q30*%
X-20500000Y10510000D02*
X-19850000Y10510000D01*
X-20500000Y7390000D02*
X-18825000Y7390000D01*
X-20500000Y7390000D02*
X-21150000Y7390000D01*
X-20500000Y10510000D02*
X-21150000Y10510000D01*
%TO.C,R65*%
X-5525000Y878641D02*
X-5525000Y571359D01*
X-6285000Y878641D02*
X-6285000Y571359D01*
%TO.C,C5*%
X16660000Y7922164D02*
X16660000Y8137836D01*
X15940000Y7922164D02*
X15940000Y8137836D01*
%TO.C,R64*%
X-13551359Y2345000D02*
X-13858641Y2345000D01*
X-13551359Y3105000D02*
X-13858641Y3105000D01*
%TO.C,C65*%
X1007836Y6790000D02*
X792164Y6790000D01*
X1007836Y7510000D02*
X792164Y7510000D01*
%TO.C,U2*%
X3900000Y7050000D02*
X3900000Y4350000D01*
X6200000Y7050000D02*
X3900000Y7050000D01*
%TO.C,C40*%
X11190000Y1057836D02*
X11190000Y842164D01*
X11910000Y1057836D02*
X11910000Y842164D01*
%TO.C,Q31*%
X-16600000Y9560000D02*
X-17250000Y9560000D01*
X-16600000Y6440000D02*
X-17250000Y6440000D01*
X-16600000Y9560000D02*
X-15950000Y9560000D01*
X-16600000Y6440000D02*
X-14925000Y6440000D01*
%TO.C,C72*%
X-8690000Y-1442164D02*
X-8690000Y-1657836D01*
X-9410000Y-1442164D02*
X-9410000Y-1657836D01*
%TO.C,C60*%
X5340000Y562164D02*
X5340000Y777836D01*
X6060000Y562164D02*
X6060000Y777836D01*
%TO.C,C71*%
X-13597164Y3240000D02*
X-13812836Y3240000D01*
X-13597164Y3960000D02*
X-13812836Y3960000D01*
%TO.C,U20*%
X-15510000Y-4900000D02*
X-15510000Y-4100000D01*
X-15510000Y-4900000D02*
X-15510000Y-5700000D01*
X-12390000Y-4900000D02*
X-12390000Y-5700000D01*
X-12390000Y-4900000D02*
X-12390000Y-3100000D01*
%TO.C,C73*%
X-4357836Y-1510000D02*
X-4142164Y-1510000D01*
X-4357836Y-790000D02*
X-4142164Y-790000D01*
%TO.C,D21*%
X-12050000Y-7000000D02*
X-12050000Y-10150000D01*
X-12050000Y-7000000D02*
X-13750000Y-7000000D01*
X-13750000Y-7000000D02*
X-13750000Y-10150000D01*
%TO.C,C101*%
X-8360000Y7792164D02*
X-8360000Y8007836D01*
X-7640000Y7792164D02*
X-7640000Y8007836D01*
%TO.C,J204*%
X-22885000Y2090000D02*
X-22885000Y-1790000D01*
X-18415000Y3260000D02*
X-18415000Y2210000D01*
X-18415000Y2210000D02*
X-17425000Y2210000D01*
X-18415000Y-2960000D02*
X-18415000Y-1910000D01*
X-20915000Y-2960000D02*
X-18415000Y-2960000D01*
X-20915000Y3260000D02*
X-18415000Y3260000D01*
%TO.C,J60*%
X-10515000Y9700000D02*
X-10515000Y9060000D01*
X-13235000Y6950000D02*
X-13235000Y9650000D01*
X-10515000Y6900000D02*
X-10515000Y7540000D01*
X-10515000Y7540000D02*
X-9885000Y7540000D01*
%TO.C,R21*%
X-16030000Y-1746359D02*
X-16030000Y-2053641D01*
X-15270000Y-1746359D02*
X-15270000Y-2053641D01*
%TO.C,R5*%
X18230000Y9646359D02*
X18230000Y9953641D01*
X17470000Y9646359D02*
X17470000Y9953641D01*
%TO.C,C103*%
X-6692164Y9040000D02*
X-6907836Y9040000D01*
X-6692164Y9760000D02*
X-6907836Y9760000D01*
%TO.C,C8*%
X5240000Y9857836D02*
X5240000Y9642164D01*
X5960000Y9857836D02*
X5960000Y9642164D01*
%TO.C,Q32*%
X-20500000Y3990000D02*
X-21150000Y3990000D01*
X-20500000Y3990000D02*
X-18825000Y3990000D01*
X-20500000Y7110000D02*
X-21150000Y7110000D01*
X-20500000Y7110000D02*
X-19850000Y7110000D01*
%TO.C,C21*%
X-12010000Y-4692164D02*
X-12010000Y-4907836D01*
X-11290000Y-4692164D02*
X-11290000Y-4907836D01*
%TO.C,R22*%
X-18746359Y-10580000D02*
X-19053641Y-10580000D01*
X-18746359Y-9820000D02*
X-19053641Y-9820000D01*
%TO.C,R31*%
X-15653641Y9870000D02*
X-15346359Y9870000D01*
X-15653641Y10630000D02*
X-15346359Y10630000D01*
%TO.C,C64*%
X2927836Y4940000D02*
X2712164Y4940000D01*
X2927836Y5660000D02*
X2712164Y5660000D01*
%TO.C,R68*%
X12880000Y1103641D02*
X12880000Y796359D01*
X12120000Y1103641D02*
X12120000Y796359D01*
%TO.C,R42*%
X-8096359Y-3670000D02*
X-8403641Y-3670000D01*
X-8096359Y-4430000D02*
X-8403641Y-4430000D01*
%TO.C,R30*%
X-17453641Y9870000D02*
X-17146359Y9870000D01*
X-17453641Y10630000D02*
X-17146359Y10630000D01*
%TO.C,R57*%
X23280000Y-4746359D02*
X23280000Y-5053641D01*
X22520000Y-4746359D02*
X22520000Y-5053641D01*
%TO.C,U71*%
X-12755000Y-725000D02*
X-12755000Y1975000D01*
X-15055000Y-725000D02*
X-12755000Y-725000D01*
%TO.C,U61*%
X4800000Y2700000D02*
X2100000Y2700000D01*
X4800000Y400000D02*
X4800000Y2700000D01*
%TO.C,U60*%
X830000Y890000D02*
X830000Y415000D01*
X830000Y415000D02*
X355000Y415000D01*
X-4390000Y415000D02*
X-3915000Y415000D01*
X-4390000Y5635000D02*
X-3915000Y5635000D01*
X-4390000Y5160000D02*
X-4390000Y5635000D01*
X-4390000Y890000D02*
X-4390000Y415000D01*
X830000Y5160000D02*
X830000Y5635000D01*
%TO.C,C2*%
X9390000Y812164D02*
X9390000Y1027836D01*
X10110000Y812164D02*
X10110000Y1027836D01*
%TO.C,C23*%
X-13210000Y-1792164D02*
X-13210000Y-2007836D01*
X-12490000Y-1792164D02*
X-12490000Y-2007836D01*
%TO.C,R34*%
X-22570000Y5113641D02*
X-22570000Y4806359D01*
X-23330000Y5113641D02*
X-23330000Y4806359D01*
%TO.C,R3*%
X15770000Y6383641D02*
X15770000Y6076359D01*
X16530000Y6383641D02*
X16530000Y6076359D01*
%TO.C,C22*%
X-14162164Y-1940000D02*
X-14377836Y-1940000D01*
X-14162164Y-2660000D02*
X-14377836Y-2660000D01*
%TO.C,R62*%
X2973641Y4780000D02*
X2666359Y4780000D01*
X2973641Y4020000D02*
X2666359Y4020000D01*
%TO.C,C100*%
X-8640000Y7792164D02*
X-8640000Y8007836D01*
X-9360000Y7792164D02*
X-9360000Y8007836D01*
%TD*%
%LPC*%
D16*
%TO.C,J208*%
X19500000Y7150000D03*
%TD*%
%TO.C,J207*%
X19500000Y2250000D03*
%TD*%
D17*
%TO.C,J206*%
X-19500000Y-4600000D03*
%TD*%
%TO.C,J205*%
X-19500000Y-8500000D03*
%TD*%
D18*
%TO.C,J203*%
X18200000Y3700000D03*
X18200000Y4700000D03*
X18200000Y5700000D03*
D19*
X22075000Y7000000D03*
X22075000Y2400000D03*
%TD*%
D20*
%TO.C,J202*%
X-18200000Y-6050000D03*
X-18200000Y-7050000D03*
D21*
X-22075000Y-4750000D03*
X-22075000Y-8350000D03*
%TD*%
D22*
%TO.C,*%
X-8500000Y-8000000D03*
%TD*%
D16*
%TO.C,J61*%
X-11950000Y8300000D03*
%TD*%
D22*
%TO.C,*%
X8500000Y-8000000D03*
%TD*%
D23*
%TO.C,R60*%
X3310000Y6250000D03*
X2290000Y6250000D03*
%TD*%
D24*
%TO.C,R63*%
X-2335000Y7150000D03*
X-1315000Y7150000D03*
%TD*%
D25*
%TO.C,D42*%
X-5950000Y-3750000D03*
X-5950000Y-1250000D03*
%TD*%
D26*
%TO.C,D60*%
X19812500Y9500000D03*
X21387500Y9500000D03*
%TD*%
D25*
%TO.C,D20*%
X16450000Y-450000D03*
X13950000Y-450000D03*
%TD*%
D27*
%TO.C,R33*%
X-22950000Y7370000D03*
X-22950000Y6350000D03*
%TD*%
D28*
%TO.C,C12*%
X5550000Y8480000D03*
X5550000Y7520000D03*
%TD*%
D29*
%TO.C,C63*%
X2370000Y7150000D03*
X3330000Y7150000D03*
%TD*%
D24*
%TO.C,R41*%
X18890000Y500000D03*
X19910000Y500000D03*
%TD*%
D28*
%TO.C,C10*%
X5700000Y2980000D03*
X5700000Y2020000D03*
%TD*%
D26*
%TO.C,D40*%
X22537500Y-1250000D03*
X20962500Y-1250000D03*
%TD*%
D29*
%TO.C,C62*%
X2320000Y3500000D03*
X3280000Y3500000D03*
%TD*%
D30*
%TO.C,R56*%
X22900000Y-7410000D03*
X22900000Y-6390000D03*
%TD*%
D31*
%TO.C,C20*%
X-16150000Y-6375000D03*
X-16150000Y-4825000D03*
%TD*%
D32*
%TO.C,C4*%
X16150000Y3420000D03*
X16150000Y4380000D03*
%TD*%
D29*
%TO.C,C102*%
X-6980000Y8400000D03*
X-6020000Y8400000D03*
%TD*%
D32*
%TO.C,C7*%
X16100000Y9350000D03*
X16100000Y10310000D03*
%TD*%
D23*
%TO.C,R67*%
X-3340000Y7150000D03*
X-4360000Y7150000D03*
%TD*%
D28*
%TO.C,C13*%
X7700000Y-1380000D03*
X7700000Y-420000D03*
%TD*%
D33*
%TO.C,C61*%
X2350000Y-300000D03*
X3310000Y-300000D03*
%TD*%
D27*
%TO.C,R4*%
X18700000Y10310000D03*
X18700000Y9290000D03*
%TD*%
D26*
%TO.C,D41*%
X22537500Y350000D03*
X20962500Y350000D03*
%TD*%
D30*
%TO.C,R35*%
X-14200000Y5340000D03*
X-14200000Y6360000D03*
%TD*%
D23*
%TO.C,R20*%
X-13740000Y-1400000D03*
X-14760000Y-1400000D03*
%TD*%
D33*
%TO.C,C11*%
X5730000Y3850000D03*
X4770000Y3850000D03*
%TD*%
D29*
%TO.C,C70*%
X-8130000Y-1125000D03*
X-7170000Y-1125000D03*
%TD*%
D34*
%TO.C,U1*%
X8350000Y3212500D03*
X8750000Y3212500D03*
X9150000Y3212500D03*
X9550000Y3212500D03*
X9950000Y3212500D03*
X10350000Y3212500D03*
X10750000Y3212500D03*
X11150000Y3212500D03*
X11550000Y3212500D03*
X11950000Y3212500D03*
X12350000Y3212500D03*
X12750000Y3212500D03*
X13150000Y3212500D03*
X13550000Y3212500D03*
D35*
X14387500Y4050000D03*
X14387500Y4450000D03*
X14387500Y4850000D03*
X14387500Y5250000D03*
X14387500Y5650000D03*
X14387500Y6050000D03*
X14387500Y6450000D03*
X14387500Y6850000D03*
X14387500Y7250000D03*
X14387500Y7650000D03*
X14387500Y8050000D03*
X14387500Y8450000D03*
X14387500Y8850000D03*
X14387500Y9250000D03*
D34*
X13550000Y10087500D03*
X13150000Y10087500D03*
X12750000Y10087500D03*
X12350000Y10087500D03*
X11950000Y10087500D03*
X11550000Y10087500D03*
X11150000Y10087500D03*
X10750000Y10087500D03*
X10350000Y10087500D03*
X9950000Y10087500D03*
X9550000Y10087500D03*
X9150000Y10087500D03*
X8750000Y10087500D03*
X8350000Y10087500D03*
D35*
X7512500Y9250000D03*
X7512500Y8850000D03*
X7512500Y8450000D03*
X7512500Y8050000D03*
X7512500Y7650000D03*
X7512500Y7250000D03*
X7512500Y6850000D03*
X7512500Y6450000D03*
X7512500Y6050000D03*
X7512500Y5650000D03*
X7512500Y5250000D03*
X7512500Y4850000D03*
X7512500Y4450000D03*
X7512500Y4050000D03*
D36*
X10950000Y6650000D03*
%TD*%
D32*
%TO.C,C9*%
X6600000Y1430000D03*
X6600000Y470000D03*
%TD*%
D37*
%TO.C,Q20*%
X-16837500Y-9050000D03*
X-14962500Y-8100000D03*
X-14962500Y-10000000D03*
%TD*%
D33*
%TO.C,C74*%
X-13225000Y4450000D03*
X-14185000Y4450000D03*
%TD*%
D27*
%TO.C,R1*%
X6800000Y-1410000D03*
X6800000Y-390000D03*
%TD*%
D38*
%TO.C,L20*%
X-10950000Y-3025000D03*
X-10950000Y-1375000D03*
%TD*%
D30*
%TO.C,R32*%
X-14200000Y7180000D03*
X-14200000Y8200000D03*
%TD*%
D24*
%TO.C,R43*%
X-8760000Y-3150000D03*
X-7740000Y-3150000D03*
%TD*%
D32*
%TO.C,C6*%
X16950000Y9350000D03*
X16950000Y10310000D03*
%TD*%
D28*
%TO.C,C14*%
X10650000Y470000D03*
X10650000Y1430000D03*
%TD*%
D32*
%TO.C,C104*%
X-6000000Y6420000D03*
X-6000000Y7380000D03*
%TD*%
%TO.C,C1*%
X7950000Y1400000D03*
X7950000Y440000D03*
%TD*%
D39*
%TO.C,U70*%
X-11485000Y3830000D03*
X-11485000Y3330000D03*
X-11485000Y2830000D03*
X-11485000Y2330000D03*
X-11485000Y1830000D03*
X-11485000Y1330000D03*
D40*
X-10785000Y630000D03*
X-10285000Y630000D03*
X-9785000Y630000D03*
X-9285000Y630000D03*
X-8785000Y630000D03*
X-8285000Y630000D03*
D39*
X-7585000Y1330000D03*
X-7585000Y1830000D03*
X-7585000Y2330000D03*
X-7585000Y2830000D03*
X-7585000Y3330000D03*
X-7585000Y3830000D03*
D40*
X-8285000Y4530000D03*
X-8785000Y4530000D03*
X-9285000Y4530000D03*
X-9785000Y4530000D03*
X-10285000Y4530000D03*
X-10785000Y4530000D03*
D41*
X-9535000Y2580000D03*
%TD*%
D37*
%TO.C,Q33*%
X-15662500Y3650000D03*
X-15662500Y5550000D03*
X-17537500Y4600000D03*
%TD*%
D27*
%TO.C,R66*%
X-5905000Y3035000D03*
X-5905000Y2015000D03*
%TD*%
D42*
%TO.C,C31*%
X-3239411Y-5988838D03*
X-2560589Y-6667660D03*
%TD*%
D32*
%TO.C,C3*%
X8850000Y1400000D03*
X8850000Y440000D03*
%TD*%
D43*
%TO.C,U30*%
X3810000Y-8890000D03*
X1270000Y-8890000D03*
X-1270000Y-8890000D03*
X-3810000Y-8890000D03*
X-3810000Y8890000D03*
X-1270000Y8890000D03*
X1270000Y8890000D03*
X3810000Y8890000D03*
%TD*%
D24*
%TO.C,R40*%
X18890000Y-500000D03*
X19910000Y-500000D03*
%TD*%
D44*
%TO.C,U31*%
X318198Y-6432412D03*
X671751Y-6078858D03*
X1025305Y-5725305D03*
X1378858Y-5371751D03*
X1732412Y-5018198D03*
D45*
X1378858Y-4028249D03*
X1025305Y-3674695D03*
X671751Y-3321142D03*
D44*
X-318198Y-2967588D03*
X-671751Y-3321142D03*
X-1025305Y-3674695D03*
X-1378858Y-4028249D03*
X-1732412Y-4381802D03*
D45*
X-1378858Y-5371751D03*
X-1025305Y-5725305D03*
X-671751Y-6078858D03*
%TD*%
D46*
%TO.C,U52*%
X14110000Y-4465000D03*
X19890000Y-4465000D03*
D47*
X13800000Y-3405000D03*
X14600000Y-3405000D03*
D48*
X15750000Y-3405000D03*
X16750000Y-3405000D03*
X17250000Y-3405000D03*
X18250000Y-3405000D03*
D47*
X19400000Y-3405000D03*
X20200000Y-3405000D03*
X20200000Y-3405000D03*
X19400000Y-3405000D03*
D48*
X18750000Y-3405000D03*
X17750000Y-3405000D03*
X16250000Y-3405000D03*
X15250000Y-3405000D03*
D47*
X14600000Y-3405000D03*
X13800000Y-3405000D03*
D49*
X12680000Y-3985000D03*
D50*
X21320000Y-8155000D03*
X12680000Y-8155000D03*
D49*
X21320000Y-3985000D03*
%TD*%
D37*
%TO.C,Q30*%
X-19562500Y8000000D03*
X-19562500Y9900000D03*
X-21437500Y8950000D03*
%TD*%
D27*
%TO.C,R65*%
X-5905000Y1235000D03*
X-5905000Y215000D03*
%TD*%
D32*
%TO.C,C5*%
X16300000Y7550000D03*
X16300000Y8510000D03*
%TD*%
D23*
%TO.C,R64*%
X-13195000Y2725000D03*
X-14215000Y2725000D03*
%TD*%
D33*
%TO.C,C65*%
X1380000Y7150000D03*
X420000Y7150000D03*
%TD*%
D51*
%TO.C,U2*%
X4500000Y6400000D03*
X4500000Y5000000D03*
X5600000Y5000000D03*
X5600000Y6400000D03*
%TD*%
D28*
%TO.C,C40*%
X11550000Y470000D03*
X11550000Y1430000D03*
%TD*%
D37*
%TO.C,Q31*%
X-15662500Y7050000D03*
X-15662500Y8950000D03*
X-17537500Y8000000D03*
%TD*%
D28*
%TO.C,C72*%
X-9050000Y-1070000D03*
X-9050000Y-2030000D03*
%TD*%
D32*
%TO.C,C60*%
X5700000Y1150000D03*
X5700000Y190000D03*
%TD*%
D52*
%TO.C,L101*%
X-8985000Y6400000D03*
X-8015000Y6400000D03*
%TD*%
D33*
%TO.C,C71*%
X-13225000Y3600000D03*
X-14185000Y3600000D03*
%TD*%
D53*
%TO.C,U20*%
X-13000000Y-3762500D03*
X-13950000Y-3762500D03*
X-14900000Y-3762500D03*
X-14900000Y-6037500D03*
X-13950000Y-6037500D03*
X-13000000Y-6037500D03*
%TD*%
D29*
%TO.C,C73*%
X-4730000Y-1150000D03*
X-3770000Y-1150000D03*
%TD*%
D25*
%TO.C,D21*%
X-12900000Y-10150000D03*
X-12900000Y-7650000D03*
%TD*%
D32*
%TO.C,C101*%
X-8000000Y7420000D03*
X-8000000Y8380000D03*
%TD*%
D21*
%TO.C,J204*%
X-22075000Y-2650000D03*
X-22075000Y2950000D03*
D20*
X-18200000Y-1350000D03*
X-18200000Y-350000D03*
X-18200000Y650000D03*
X-18200000Y1650000D03*
%TD*%
D54*
%TO.C,J60*%
X-11875000Y9775000D03*
X-11875000Y6825000D03*
D55*
X-10350000Y8300000D03*
%TD*%
D27*
%TO.C,R21*%
X-15650000Y-1390000D03*
X-15650000Y-2410000D03*
%TD*%
D56*
%TO.C,L102*%
X-7000000Y6415000D03*
X-7000000Y7385000D03*
%TD*%
D30*
%TO.C,R5*%
X17850000Y9290000D03*
X17850000Y10310000D03*
%TD*%
D33*
%TO.C,C103*%
X-7280000Y9400000D03*
X-6320000Y9400000D03*
%TD*%
D28*
%TO.C,C8*%
X5600000Y10230000D03*
X5600000Y9270000D03*
%TD*%
D37*
%TO.C,Q32*%
X-19562500Y4600000D03*
X-19562500Y6500000D03*
X-21437500Y5550000D03*
%TD*%
D28*
%TO.C,C21*%
X-11650000Y-4320000D03*
X-11650000Y-5280000D03*
%TD*%
D23*
%TO.C,R22*%
X-19410000Y-10200000D03*
X-18390000Y-10200000D03*
%TD*%
D24*
%TO.C,R31*%
X-16010000Y10250000D03*
X-14990000Y10250000D03*
%TD*%
D33*
%TO.C,C64*%
X3300000Y5300000D03*
X2340000Y5300000D03*
%TD*%
D27*
%TO.C,R68*%
X12500000Y440000D03*
X12500000Y1460000D03*
%TD*%
D23*
%TO.C,R42*%
X-7740000Y-4050000D03*
X-8760000Y-4050000D03*
%TD*%
D24*
%TO.C,R30*%
X-17810000Y10250000D03*
X-16790000Y10250000D03*
%TD*%
D27*
%TO.C,R57*%
X22900000Y-4390000D03*
X22900000Y-5410000D03*
%TD*%
D51*
%TO.C,U71*%
X-13355000Y-75000D03*
X-13355000Y1325000D03*
X-14455000Y1325000D03*
X-14455000Y-75000D03*
%TD*%
D57*
%TO.C,U61*%
X4150000Y2100000D03*
X2750000Y2100000D03*
X2750000Y1000000D03*
X4150000Y1000000D03*
%TD*%
D58*
%TO.C,U60*%
X-30000Y5475000D03*
X-530000Y5475000D03*
X-1030000Y5475000D03*
X-1530000Y5475000D03*
X-2030000Y5475000D03*
X-2530000Y5475000D03*
X-3030000Y5475000D03*
X-3530000Y5475000D03*
D59*
X-4230000Y4775000D03*
X-4230000Y4275000D03*
X-4230000Y3775000D03*
X-4230000Y3275000D03*
X-4230000Y2775000D03*
X-4230000Y2275000D03*
X-4230000Y1775000D03*
X-4230000Y1275000D03*
D58*
X-3530000Y575000D03*
X-3030000Y575000D03*
X-2530000Y575000D03*
X-2030000Y575000D03*
X-1530000Y575000D03*
X-1030000Y575000D03*
X-530000Y575000D03*
X-30000Y575000D03*
D59*
X670000Y1275000D03*
X670000Y1775000D03*
X670000Y2275000D03*
X670000Y2775000D03*
X670000Y3275000D03*
X670000Y3775000D03*
X670000Y4275000D03*
X670000Y4775000D03*
D60*
X-1780000Y3025000D03*
%TD*%
D32*
%TO.C,C2*%
X9750000Y1400000D03*
X9750000Y440000D03*
%TD*%
D28*
%TO.C,C23*%
X-12850000Y-1420000D03*
X-12850000Y-2380000D03*
%TD*%
D27*
%TO.C,R34*%
X-22950000Y5470000D03*
X-22950000Y4450000D03*
%TD*%
%TO.C,R3*%
X16150000Y6740000D03*
X16150000Y5720000D03*
%TD*%
D33*
%TO.C,C22*%
X-13790000Y-2300000D03*
X-14750000Y-2300000D03*
%TD*%
D23*
%TO.C,R62*%
X3330000Y4400000D03*
X2310000Y4400000D03*
%TD*%
D32*
%TO.C,C100*%
X-9000000Y7420000D03*
X-9000000Y8380000D03*
%TD*%
M02*
