%TF.GenerationSoftware,KiCad,Pcbnew,(6.0.5)*%
%TF.CreationDate,2022-11-25T19:57:39-05:00*%
%TF.ProjectId,Rotini-Hardware,526f7469-6e69-42d4-9861-726477617265,rev?*%
%TF.SameCoordinates,Original*%
%TF.FileFunction,Copper,L2,Inr*%
%TF.FilePolarity,Positive*%
%FSLAX46Y46*%
G04 Gerber Fmt 4.6, Leading zero omitted, Abs format (unit mm)*
G04 Created by KiCad (PCBNEW (6.0.5)) date 2022-11-25 19:57:39*
%MOMM*%
%LPD*%
G01*
G04 APERTURE LIST*
%TA.AperFunction,ComponentPad*%
%ADD10R,1.700000X1.700000*%
%TD*%
%TA.AperFunction,ComponentPad*%
%ADD11O,1.700000X1.700000*%
%TD*%
%TA.AperFunction,ComponentPad*%
%ADD12O,2.000000X0.900000*%
%TD*%
%TA.AperFunction,ComponentPad*%
%ADD13O,1.700000X0.900000*%
%TD*%
%TA.AperFunction,ComponentPad*%
%ADD14C,1.778000*%
%TD*%
%TA.AperFunction,ComponentPad*%
%ADD15O,0.900000X2.000000*%
%TD*%
%TA.AperFunction,ComponentPad*%
%ADD16O,0.900000X1.700000*%
%TD*%
%TA.AperFunction,ViaPad*%
%ADD17C,0.400000*%
%TD*%
%TA.AperFunction,Conductor*%
%ADD18C,0.203200*%
%TD*%
G04 APERTURE END LIST*
D10*
%TO.N,E_RXD*%
%TO.C,J2*%
X15700000Y6625000D03*
D11*
%TO.N,E_TXD*%
X15700000Y9165000D03*
%TD*%
D12*
%TO.N,unconnected-(U51-PadS1)*%
%TO.C,U51*%
X24670000Y-9420000D03*
X24670000Y-780000D03*
D13*
X28840000Y-9420000D03*
X28840000Y-780000D03*
%TD*%
D14*
%TO.N,A2_CS*%
%TO.C,U30*%
X3810000Y8990000D03*
%TO.N,P_MISO*%
X1270000Y8990000D03*
%TO.N,unconnected-(U30-Pad3)*%
X-1270000Y8990000D03*
%TO.N,unconnected-(U30-Pad4)*%
X-3810000Y8990000D03*
%TO.N,GND*%
X-3810000Y-8790000D03*
%TO.N,+3V3*%
X-1270000Y-8790000D03*
%TO.N,P_MOSI*%
X1270000Y-8790000D03*
%TO.N,P_SCK*%
X3810000Y-8790000D03*
%TD*%
D15*
%TO.N,unconnected-(U52-PadS1)*%
%TO.C,U52*%
X6180000Y-4395000D03*
D16*
X14820000Y-8565000D03*
X6180000Y-8565000D03*
D15*
X14820000Y-4395000D03*
%TD*%
D10*
%TO.N,X_RX*%
%TO.C,J1*%
X-10575000Y100000D03*
D11*
%TO.N,X_TX*%
X-8035000Y100000D03*
%TD*%
D17*
%TO.N,GND*%
X-12300000Y7600000D03*
X20100000Y6200000D03*
X5200000Y8600000D03*
X19000000Y-1300000D03*
X-17700000Y4800000D03*
X18400000Y-8000000D03*
X-19600000Y4800000D03*
X21400000Y-1300000D03*
X-18500000Y1300000D03*
X26900000Y4300000D03*
X-22800000Y-10000000D03*
X-9500000Y4800000D03*
X9550000Y3400000D03*
X10850000Y2050000D03*
X-5200000Y7000000D03*
X-7300000Y5700000D03*
X2700000Y6200000D03*
X5200000Y10200000D03*
X-10800000Y6200000D03*
X-7600000Y9600000D03*
X5500000Y-6800000D03*
X-27000000Y10400000D03*
X10850000Y4750000D03*
X-12300000Y4800000D03*
X13800000Y-2900000D03*
X14200000Y-100000D03*
X8150000Y4750000D03*
X-26900000Y-3900000D03*
X-17400000Y-3100000D03*
X2700000Y2200000D03*
X-5420000Y3780000D03*
X20400000Y-8000000D03*
X-24300000Y3100000D03*
X2875000Y-5825000D03*
X-14200000Y-9100000D03*
X2700000Y5400000D03*
X20400000Y-6000000D03*
X23200000Y-8400000D03*
X-26900000Y-4900000D03*
X-16700000Y9300000D03*
X13800000Y8000000D03*
X26900000Y6300000D03*
X-17700000Y6700000D03*
X-26900000Y1600000D03*
X-29100000Y9800000D03*
X4100000Y-4000000D03*
X12900000Y-2400000D03*
X14200000Y2600000D03*
X-25000000Y10400000D03*
X9400000Y10000000D03*
X15800000Y-200000D03*
X-18587500Y5712500D03*
X-1500000Y-6850000D03*
X8400000Y8700000D03*
X-12600000Y-6500000D03*
X-15800000Y1300000D03*
X-8500000Y-8600000D03*
X-9500000Y7600000D03*
X2700000Y3000000D03*
X18400000Y9200000D03*
X-10600000Y10300000D03*
X-15000000Y5200000D03*
X-21800000Y4500000D03*
X-3250000Y-4300000D03*
X8000000Y-2500000D03*
X19400000Y-7000000D03*
X23200000Y-1800000D03*
X18400000Y-6000000D03*
X26700000Y2300000D03*
X-26900000Y3600000D03*
X-13100000Y-1100000D03*
X-19600000Y6700000D03*
X8150000Y2050000D03*
%TO.N,+3V3*%
X4900000Y5000000D03*
X-6875000Y-4975000D03*
X-23900000Y5900000D03*
X-12700000Y3000000D03*
X0Y-7600000D03*
X-4800000Y2300000D03*
X-17880000Y2720000D03*
X6950000Y8150000D03*
X-5800000Y10100000D03*
X11800000Y-1100000D03*
X2700000Y7000000D03*
X8900000Y-1100000D03*
X11700000Y7800000D03*
X22600000Y10100000D03*
X-15850000Y4050000D03*
X-10100000Y9500000D03*
X-14100000Y7000000D03*
X19800000Y-1300000D03*
X15800000Y-2500000D03*
X-7700000Y6800000D03*
X14200000Y1200000D03*
%TO.N,E_EN*%
X18900000Y4500000D03*
X6437500Y6837500D03*
%TO.N,E_IO0*%
X21300000Y3900000D03*
X5000000Y4300000D03*
%TO.N,VCC*%
X-21400000Y-5700000D03*
X-21400000Y-3100000D03*
X-21400000Y800000D03*
%TO.N,VBUS*%
X12600000Y-5000000D03*
X21650000Y-4750000D03*
X25700000Y-2800000D03*
X8400000Y-5000000D03*
X25100000Y-7200000D03*
X-15400000Y-10300000D03*
%TO.N,Net-(C70-Pad1)*%
X-21700000Y6750000D03*
X-17300000Y3100000D03*
%TO.N,X_TX*%
X5200000Y1700000D03*
%TO.N,X_RX*%
X6900000Y1300000D03*
%TO.N,E_TXD*%
X20000000Y-10300000D03*
%TO.N,E_RXD*%
X19400000Y-10300000D03*
X9700000Y5950000D03*
%TO.N,P_MOSI*%
X2300000Y-3000000D03*
X8100000Y-900000D03*
%TO.N,P_MISO*%
X8500000Y800000D03*
X2300000Y-2300000D03*
%TO.N,P_SCK*%
X7300000Y-900000D03*
X3000000Y-3000000D03*
%TO.N,CP_RTS*%
X19000000Y0D03*
X18800000Y-10300000D03*
%TO.N,CP_DTR*%
X21100000Y800000D03*
X20900000Y-10300000D03*
%TO.N,LED_1*%
X-13100000Y-2900000D03*
X4600000Y300000D03*
%TO.N,LED_2*%
X-13100000Y-2000000D03*
X5200000Y700000D03*
%TO.N,GPIO2*%
X-21695000Y6005000D03*
X-14000000Y5400000D03*
%TO.N,GPIO15*%
X-14400000Y5900000D03*
X-16800000Y8600000D03*
%TO.N,A2_CS*%
X7200000Y6000000D03*
%TO.N,Net-(U50-Pad4)*%
X25000000Y-5300000D03*
X22600000Y-7000000D03*
%TO.N,GPIO12*%
X-15900000Y5900000D03*
X-14500000Y7500000D03*
%TO.N,GPIO4*%
X-19300000Y3100000D03*
X-14000000Y4200000D03*
%TO.N,GPIO5*%
X-19900000Y3100000D03*
X-9100000Y3000000D03*
%TO.N,A1_CS*%
X7700000Y800000D03*
X1600000Y-2300000D03*
%TD*%
D18*
%TO.N,P_MOSI*%
X1270000Y-4030000D02*
X2300000Y-3000000D01*
X1270000Y-8790000D02*
X1270000Y-4030000D01*
%TO.N,CP_RTS*%
X19100000Y-9700000D02*
X20600000Y-9700000D01*
X21000000Y-5700000D02*
X20300000Y-5000000D01*
X21000000Y-9300000D02*
X21000000Y-5700000D01*
X20600000Y-9700000D02*
X21000000Y-9300000D01*
X18800000Y-10000000D02*
X19100000Y-9700000D01*
X20300000Y-5000000D02*
X20300000Y-1100000D01*
X19200000Y0D02*
X19000000Y0D01*
X18800000Y-10300000D02*
X18800000Y-10000000D01*
X20300000Y-1100000D02*
X19200000Y0D01*
%TO.N,CP_DTR*%
X20900000Y-10300000D02*
X21500000Y-9700000D01*
X20800000Y500000D02*
X21100000Y800000D01*
X21500000Y-5450000D02*
X20800000Y-4750000D01*
X21500000Y-9700000D02*
X21500000Y-5450000D01*
X20800000Y-4750000D02*
X20800000Y500000D01*
%TD*%
%TA.AperFunction,Conductor*%
%TO.N,GND*%
G36*
X-5801102Y10587918D02*
G01*
X-5799739Y10590142D01*
X-5770937Y10599500D01*
X22570937Y10599500D01*
X22598898Y10587918D01*
X22600261Y10590142D01*
X22629063Y10599500D01*
X28896654Y10599500D01*
X28931302Y10585148D01*
X30785148Y8731302D01*
X30799500Y8696654D01*
X30799500Y-8696655D01*
X30785148Y-8731303D01*
X29969072Y-9547378D01*
X29934424Y-9561730D01*
X29899776Y-9547378D01*
X29885424Y-9512730D01*
X29886292Y-9503548D01*
X29893799Y-9464196D01*
X29893799Y-9464194D01*
X29894376Y-9461170D01*
X29884056Y-9297140D01*
X29877839Y-9278004D01*
X29834220Y-9143758D01*
X29834219Y-9143756D01*
X29833268Y-9140829D01*
X29745202Y-9002060D01*
X29653914Y-8916335D01*
X29627639Y-8891661D01*
X29627638Y-8891661D01*
X29625393Y-8889552D01*
X29603755Y-8877656D01*
X29543075Y-8844297D01*
X29481368Y-8810373D01*
X29386686Y-8786063D01*
X29325162Y-8770266D01*
X29325159Y-8770266D01*
X29322177Y-8769500D01*
X28399075Y-8769500D01*
X28293601Y-8782825D01*
X28279997Y-8784543D01*
X28276942Y-8784929D01*
X28124129Y-8845432D01*
X27991163Y-8942037D01*
X27886400Y-9068674D01*
X27885089Y-9071461D01*
X27817731Y-9214602D01*
X27817730Y-9214606D01*
X27816421Y-9217387D01*
X27815844Y-9220412D01*
X27791049Y-9350393D01*
X27785624Y-9378830D01*
X27795944Y-9542860D01*
X27796894Y-9545785D01*
X27796895Y-9545788D01*
X27844672Y-9692832D01*
X27846732Y-9699171D01*
X27869798Y-9735517D01*
X27930465Y-9831112D01*
X27934798Y-9837940D01*
X27937045Y-9840050D01*
X28047118Y-9943415D01*
X28054607Y-9950448D01*
X28057305Y-9951931D01*
X28057306Y-9951932D01*
X28080136Y-9964483D01*
X28198632Y-10029627D01*
X28262822Y-10046108D01*
X28354838Y-10069734D01*
X28354841Y-10069734D01*
X28357823Y-10070500D01*
X29280925Y-10070500D01*
X29282435Y-10070309D01*
X29282439Y-10070309D01*
X29300452Y-10068033D01*
X29327824Y-10064575D01*
X29363997Y-10074471D01*
X29382579Y-10107047D01*
X29372683Y-10143221D01*
X29368613Y-10147837D01*
X28931302Y-10585148D01*
X28896654Y-10599500D01*
X21276849Y-10599500D01*
X21242201Y-10585148D01*
X21227849Y-10550500D01*
X21233190Y-10528254D01*
X21283896Y-10428738D01*
X21285646Y-10425304D01*
X21298910Y-10341557D01*
X21312659Y-10314574D01*
X21674061Y-9953172D01*
X21679277Y-9948669D01*
X21683240Y-9946732D01*
X21715472Y-9911986D01*
X21717734Y-9909547D01*
X21719010Y-9908223D01*
X21733484Y-9893749D01*
X21734756Y-9891895D01*
X21735642Y-9890829D01*
X21739040Y-9886579D01*
X21756701Y-9867540D01*
X21759777Y-9864224D01*
X21766150Y-9848250D01*
X21771256Y-9838688D01*
X21776453Y-9831112D01*
X21780980Y-9824513D01*
X21783611Y-9813429D01*
X21788018Y-9794857D01*
X21790182Y-9788014D01*
X21800200Y-9762905D01*
X21800201Y-9762901D01*
X21801480Y-9759695D01*
X21802100Y-9753372D01*
X21802100Y-9741252D01*
X21803424Y-9729938D01*
X21805921Y-9719417D01*
X21805921Y-9719416D01*
X21806966Y-9715013D01*
X21802548Y-9682550D01*
X21802100Y-9675942D01*
X21802100Y-9378830D01*
X23465624Y-9378830D01*
X23475944Y-9542860D01*
X23476894Y-9545785D01*
X23476895Y-9545788D01*
X23524672Y-9692832D01*
X23526732Y-9699171D01*
X23549798Y-9735517D01*
X23610465Y-9831112D01*
X23614798Y-9837940D01*
X23617045Y-9840050D01*
X23727118Y-9943415D01*
X23734607Y-9950448D01*
X23737305Y-9951931D01*
X23737306Y-9951932D01*
X23760136Y-9964483D01*
X23878632Y-10029627D01*
X23942822Y-10046108D01*
X24034838Y-10069734D01*
X24034841Y-10069734D01*
X24037823Y-10070500D01*
X25260925Y-10070500D01*
X25366399Y-10057175D01*
X25380003Y-10055457D01*
X25383058Y-10055071D01*
X25535871Y-9994568D01*
X25668837Y-9897963D01*
X25671005Y-9895343D01*
X25746030Y-9804652D01*
X25773600Y-9771326D01*
X25808932Y-9696242D01*
X25842269Y-9625398D01*
X25842270Y-9625394D01*
X25843579Y-9622613D01*
X25855854Y-9558268D01*
X25873799Y-9464196D01*
X25873799Y-9464194D01*
X25874376Y-9461170D01*
X25864056Y-9297140D01*
X25857839Y-9278004D01*
X25814220Y-9143758D01*
X25814219Y-9143756D01*
X25813268Y-9140829D01*
X25725202Y-9002060D01*
X25633914Y-8916335D01*
X25607639Y-8891661D01*
X25607638Y-8891661D01*
X25605393Y-8889552D01*
X25583755Y-8877656D01*
X25523075Y-8844297D01*
X25461368Y-8810373D01*
X25366686Y-8786063D01*
X25305162Y-8770266D01*
X25305159Y-8770266D01*
X25302177Y-8769500D01*
X24079075Y-8769500D01*
X23973601Y-8782825D01*
X23959997Y-8784543D01*
X23956942Y-8784929D01*
X23804129Y-8845432D01*
X23671163Y-8942037D01*
X23566400Y-9068674D01*
X23565089Y-9071461D01*
X23497731Y-9214602D01*
X23497730Y-9214606D01*
X23496421Y-9217387D01*
X23495844Y-9220412D01*
X23471049Y-9350393D01*
X23465624Y-9378830D01*
X21802100Y-9378830D01*
X21802100Y-8024891D01*
X24595420Y-8024891D01*
X24596080Y-8028164D01*
X24596080Y-8028165D01*
X24615420Y-8124075D01*
X24625233Y-8172743D01*
X24626749Y-8175719D01*
X24626750Y-8175721D01*
X24692188Y-8304152D01*
X24692190Y-8304155D01*
X24693707Y-8307132D01*
X24795799Y-8418156D01*
X24923986Y-8497635D01*
X24927189Y-8498566D01*
X24927190Y-8498566D01*
X25066353Y-8538997D01*
X25066355Y-8538997D01*
X25068825Y-8539715D01*
X25071389Y-8539903D01*
X25071393Y-8539904D01*
X25075122Y-8540177D01*
X25079515Y-8540500D01*
X25187785Y-8540500D01*
X25189432Y-8540274D01*
X25189438Y-8540274D01*
X25243733Y-8532836D01*
X25299432Y-8525206D01*
X25302499Y-8523879D01*
X25434789Y-8466632D01*
X25434790Y-8466631D01*
X25437855Y-8465305D01*
X25555070Y-8370386D01*
X25642442Y-8247442D01*
X25652209Y-8220315D01*
X25692402Y-8108674D01*
X25692402Y-8108673D01*
X25693533Y-8105532D01*
X25693894Y-8100628D01*
X25702466Y-7983896D01*
X25704580Y-7955109D01*
X25702693Y-7945751D01*
X25675428Y-7810533D01*
X25675427Y-7810530D01*
X25674767Y-7807257D01*
X25673119Y-7804022D01*
X25607812Y-7675848D01*
X25607810Y-7675845D01*
X25606293Y-7672868D01*
X25594275Y-7659798D01*
X25539287Y-7600000D01*
X25504201Y-7561844D01*
X25470331Y-7540844D01*
X25433503Y-7518009D01*
X25411619Y-7487553D01*
X25417679Y-7450543D01*
X25424676Y-7441716D01*
X25428050Y-7438342D01*
X25485646Y-7325304D01*
X25505492Y-7200000D01*
X25494205Y-7128738D01*
X25486249Y-7078502D01*
X25486249Y-7078501D01*
X25485646Y-7074696D01*
X25428050Y-6961658D01*
X25338342Y-6871950D01*
X25334909Y-6870201D01*
X25334908Y-6870200D01*
X25281823Y-6843152D01*
X25225304Y-6814354D01*
X25221499Y-6813751D01*
X25221498Y-6813751D01*
X25103807Y-6795111D01*
X25100000Y-6794508D01*
X25096193Y-6795111D01*
X24978502Y-6813751D01*
X24978501Y-6813751D01*
X24974696Y-6814354D01*
X24918177Y-6843152D01*
X24865092Y-6870200D01*
X24865091Y-6870201D01*
X24861658Y-6871950D01*
X24771950Y-6961658D01*
X24714354Y-7074696D01*
X24713751Y-7078501D01*
X24713751Y-7078502D01*
X24705795Y-7128738D01*
X24694508Y-7200000D01*
X24714354Y-7325304D01*
X24771950Y-7438342D01*
X24816016Y-7482408D01*
X24830368Y-7517056D01*
X24816016Y-7551704D01*
X24812205Y-7555136D01*
X24744930Y-7609614D01*
X24657558Y-7732558D01*
X24656427Y-7735698D01*
X24656426Y-7735701D01*
X24614557Y-7851996D01*
X24606467Y-7874468D01*
X24606223Y-7877796D01*
X24606222Y-7877799D01*
X24603039Y-7921140D01*
X24595420Y-8024891D01*
X21802100Y-8024891D01*
X21802100Y-7000000D01*
X22194508Y-7000000D01*
X22195111Y-7003807D01*
X22206339Y-7074696D01*
X22214354Y-7125304D01*
X22271950Y-7238342D01*
X22361658Y-7328050D01*
X22365091Y-7329799D01*
X22365092Y-7329800D01*
X22418177Y-7356848D01*
X22474696Y-7385646D01*
X22478501Y-7386249D01*
X22478502Y-7386249D01*
X22596193Y-7404889D01*
X22600000Y-7405492D01*
X22603807Y-7404889D01*
X22721498Y-7386249D01*
X22721499Y-7386249D01*
X22725304Y-7385646D01*
X22781823Y-7356848D01*
X22834908Y-7329800D01*
X22834909Y-7329799D01*
X22838342Y-7328050D01*
X22928050Y-7238342D01*
X22985646Y-7125304D01*
X22993662Y-7074696D01*
X23004889Y-7003807D01*
X23005492Y-7000000D01*
X22985646Y-6874696D01*
X22928050Y-6761658D01*
X22838342Y-6671950D01*
X22834909Y-6670201D01*
X22834908Y-6670200D01*
X22781823Y-6643152D01*
X22725304Y-6614354D01*
X22721499Y-6613751D01*
X22721498Y-6613751D01*
X22603807Y-6595111D01*
X22600000Y-6594508D01*
X22596193Y-6595111D01*
X22478502Y-6613751D01*
X22478501Y-6613751D01*
X22474696Y-6614354D01*
X22418177Y-6643152D01*
X22365092Y-6670200D01*
X22365091Y-6670201D01*
X22361658Y-6671950D01*
X22271950Y-6761658D01*
X22214354Y-6874696D01*
X22194508Y-7000000D01*
X21802100Y-7000000D01*
X21802100Y-5505934D01*
X21802605Y-5499063D01*
X21804036Y-5494895D01*
X21802134Y-5444230D01*
X21802100Y-5442393D01*
X21802100Y-5421903D01*
X21801686Y-5419678D01*
X21801560Y-5418317D01*
X21800958Y-5412897D01*
X21799984Y-5386958D01*
X21799814Y-5382433D01*
X21798029Y-5378278D01*
X21798027Y-5378270D01*
X21793026Y-5366632D01*
X21789874Y-5356260D01*
X21787555Y-5343807D01*
X21786727Y-5339361D01*
X21770731Y-5313410D01*
X21767426Y-5307048D01*
X21764398Y-5300000D01*
X24594508Y-5300000D01*
X24595111Y-5303807D01*
X24611753Y-5408879D01*
X24614354Y-5425304D01*
X24632877Y-5461658D01*
X24649813Y-5494895D01*
X24671950Y-5538342D01*
X24761658Y-5628050D01*
X24765091Y-5629799D01*
X24765092Y-5629800D01*
X24818177Y-5656848D01*
X24874696Y-5685646D01*
X24878501Y-5686249D01*
X24878502Y-5686249D01*
X24996193Y-5704889D01*
X25000000Y-5705492D01*
X25003807Y-5704889D01*
X25121498Y-5686249D01*
X25121499Y-5686249D01*
X25125304Y-5685646D01*
X25181823Y-5656848D01*
X25234908Y-5629800D01*
X25234909Y-5629799D01*
X25238342Y-5628050D01*
X25328050Y-5538342D01*
X25350188Y-5494895D01*
X25367123Y-5461658D01*
X25385646Y-5425304D01*
X25388248Y-5408879D01*
X25404889Y-5303807D01*
X25405492Y-5300000D01*
X25395731Y-5238368D01*
X25386249Y-5178502D01*
X25386249Y-5178501D01*
X25385646Y-5174696D01*
X25350740Y-5106190D01*
X25329800Y-5065092D01*
X25329799Y-5065091D01*
X25328050Y-5061658D01*
X25238342Y-4971950D01*
X25234909Y-4970201D01*
X25234908Y-4970200D01*
X25181823Y-4943152D01*
X25125304Y-4914354D01*
X25121499Y-4913751D01*
X25121498Y-4913751D01*
X25003807Y-4895111D01*
X25000000Y-4894508D01*
X24996193Y-4895111D01*
X24878502Y-4913751D01*
X24878501Y-4913751D01*
X24874696Y-4914354D01*
X24818177Y-4943152D01*
X24765092Y-4970200D01*
X24765091Y-4970201D01*
X24761658Y-4971950D01*
X24671950Y-5061658D01*
X24670201Y-5065091D01*
X24670200Y-5065092D01*
X24649260Y-5106190D01*
X24614354Y-5174696D01*
X24613751Y-5178501D01*
X24613751Y-5178502D01*
X24604269Y-5238368D01*
X24594508Y-5300000D01*
X21764398Y-5300000D01*
X21756755Y-5282211D01*
X21756754Y-5282210D01*
X21755389Y-5279032D01*
X21751356Y-5274122D01*
X21742789Y-5265555D01*
X21735725Y-5256619D01*
X21730048Y-5247410D01*
X21727674Y-5243558D01*
X21720815Y-5238342D01*
X21709770Y-5229943D01*
X21690877Y-5197547D01*
X21700425Y-5161280D01*
X21731764Y-5142542D01*
X21771498Y-5136249D01*
X21771499Y-5136249D01*
X21775304Y-5135646D01*
X21857551Y-5093739D01*
X21884908Y-5079800D01*
X21884909Y-5079799D01*
X21888342Y-5078050D01*
X21978050Y-4988342D01*
X21982909Y-4978807D01*
X22033896Y-4878738D01*
X22035646Y-4875304D01*
X22055492Y-4750000D01*
X22042459Y-4667710D01*
X22036249Y-4628502D01*
X22036249Y-4628501D01*
X22035646Y-4624696D01*
X21978050Y-4511658D01*
X21888342Y-4421950D01*
X21884909Y-4420201D01*
X21884908Y-4420200D01*
X21831823Y-4393152D01*
X21775304Y-4364354D01*
X21771499Y-4363751D01*
X21771498Y-4363751D01*
X21653807Y-4345111D01*
X21650000Y-4344508D01*
X21646193Y-4345111D01*
X21528502Y-4363751D01*
X21528501Y-4363751D01*
X21524696Y-4364354D01*
X21468177Y-4393152D01*
X21415092Y-4420200D01*
X21415091Y-4420201D01*
X21411658Y-4421950D01*
X21321950Y-4511658D01*
X21264354Y-4624696D01*
X21263751Y-4628501D01*
X21263751Y-4628502D01*
X21257190Y-4669928D01*
X21237595Y-4701905D01*
X21201128Y-4710660D01*
X21174145Y-4696911D01*
X21116452Y-4639218D01*
X21102100Y-4604570D01*
X21102100Y-2244891D01*
X24595420Y-2244891D01*
X24596080Y-2248164D01*
X24596080Y-2248165D01*
X24623924Y-2386249D01*
X24625233Y-2392743D01*
X24626749Y-2395719D01*
X24626750Y-2395721D01*
X24692188Y-2524152D01*
X24692190Y-2524155D01*
X24693707Y-2527132D01*
X24795799Y-2638156D01*
X24798636Y-2639915D01*
X24917722Y-2713751D01*
X24923986Y-2717635D01*
X24927189Y-2718566D01*
X24927190Y-2718566D01*
X25066353Y-2758997D01*
X25066355Y-2758997D01*
X25068825Y-2759715D01*
X25071389Y-2759903D01*
X25071393Y-2759904D01*
X25075122Y-2760177D01*
X25079515Y-2760500D01*
X25187785Y-2760500D01*
X25189432Y-2760274D01*
X25189438Y-2760274D01*
X25226889Y-2755143D01*
X25239461Y-2753421D01*
X25275736Y-2762938D01*
X25294658Y-2795318D01*
X25294836Y-2797930D01*
X25294508Y-2800000D01*
X25295111Y-2803807D01*
X25311121Y-2904889D01*
X25314354Y-2925304D01*
X25316104Y-2928738D01*
X25363368Y-3021498D01*
X25371950Y-3038342D01*
X25461658Y-3128050D01*
X25465091Y-3129799D01*
X25465092Y-3129800D01*
X25481857Y-3138342D01*
X25574696Y-3185646D01*
X25578501Y-3186249D01*
X25578502Y-3186249D01*
X25696193Y-3204889D01*
X25700000Y-3205492D01*
X25703807Y-3204889D01*
X25821498Y-3186249D01*
X25821499Y-3186249D01*
X25825304Y-3185646D01*
X25918143Y-3138342D01*
X25934908Y-3129800D01*
X25934909Y-3129799D01*
X25938342Y-3128050D01*
X26028050Y-3038342D01*
X26036633Y-3021498D01*
X26083896Y-2928738D01*
X26085646Y-2925304D01*
X26088880Y-2904889D01*
X26104889Y-2803807D01*
X26105492Y-2800000D01*
X26099200Y-2760274D01*
X26086249Y-2678502D01*
X26086249Y-2678501D01*
X26085646Y-2674696D01*
X26033294Y-2571950D01*
X26029800Y-2565092D01*
X26029799Y-2565091D01*
X26028050Y-2561658D01*
X25938342Y-2471950D01*
X25934909Y-2470201D01*
X25934908Y-2470200D01*
X25846794Y-2425304D01*
X25825304Y-2414354D01*
X25821499Y-2413751D01*
X25821498Y-2413751D01*
X25786468Y-2408203D01*
X25728889Y-2399084D01*
X25696913Y-2379489D01*
X25688158Y-2343022D01*
X25690450Y-2334096D01*
X25693533Y-2325532D01*
X25695129Y-2303807D01*
X25704335Y-2178441D01*
X25704580Y-2175109D01*
X25695230Y-2128738D01*
X25675428Y-2030533D01*
X25675427Y-2030530D01*
X25674767Y-2027257D01*
X25660879Y-2000000D01*
X25607812Y-1895848D01*
X25607810Y-1895845D01*
X25606293Y-1892868D01*
X25504201Y-1781844D01*
X25382470Y-1706368D01*
X25378848Y-1704122D01*
X25378847Y-1704122D01*
X25376014Y-1702365D01*
X25320543Y-1686249D01*
X25233647Y-1661003D01*
X25233645Y-1661003D01*
X25231175Y-1660285D01*
X25228611Y-1660097D01*
X25228607Y-1660096D01*
X25224878Y-1659823D01*
X25220485Y-1659500D01*
X25112215Y-1659500D01*
X25110568Y-1659726D01*
X25110562Y-1659726D01*
X25056267Y-1667164D01*
X25000568Y-1674794D01*
X24997502Y-1676121D01*
X24997501Y-1676121D01*
X24865211Y-1733368D01*
X24865210Y-1733369D01*
X24862145Y-1734695D01*
X24859550Y-1736796D01*
X24859549Y-1736797D01*
X24824608Y-1765092D01*
X24744930Y-1829614D01*
X24657558Y-1952558D01*
X24656427Y-1955698D01*
X24656426Y-1955701D01*
X24629485Y-2030533D01*
X24606467Y-2094468D01*
X24606223Y-2097796D01*
X24606222Y-2097799D01*
X24604878Y-2116104D01*
X24595420Y-2244891D01*
X21102100Y-2244891D01*
X21102100Y-738830D01*
X23465624Y-738830D01*
X23475944Y-902860D01*
X23476894Y-905785D01*
X23476895Y-905788D01*
X23525780Y-1056242D01*
X23526732Y-1059171D01*
X23528383Y-1061772D01*
X23597868Y-1171262D01*
X23614798Y-1197940D01*
X23657360Y-1237909D01*
X23708196Y-1285646D01*
X23734607Y-1310448D01*
X23878632Y-1389627D01*
X23955629Y-1409396D01*
X24034838Y-1429734D01*
X24034841Y-1429734D01*
X24037823Y-1430500D01*
X25260925Y-1430500D01*
X25366399Y-1417175D01*
X25380003Y-1415457D01*
X25383058Y-1415071D01*
X25535871Y-1354568D01*
X25668837Y-1257963D01*
X25773600Y-1131326D01*
X25825281Y-1021498D01*
X25842269Y-985398D01*
X25842270Y-985394D01*
X25843579Y-982613D01*
X25849795Y-950029D01*
X25873799Y-824196D01*
X25873799Y-824194D01*
X25874376Y-821170D01*
X25869196Y-738830D01*
X27785624Y-738830D01*
X27795944Y-902860D01*
X27796894Y-905785D01*
X27796895Y-905788D01*
X27845780Y-1056242D01*
X27846732Y-1059171D01*
X27848383Y-1061772D01*
X27917868Y-1171262D01*
X27934798Y-1197940D01*
X27977360Y-1237909D01*
X28028196Y-1285646D01*
X28054607Y-1310448D01*
X28198632Y-1389627D01*
X28275629Y-1409396D01*
X28354838Y-1429734D01*
X28354841Y-1429734D01*
X28357823Y-1430500D01*
X29280925Y-1430500D01*
X29386399Y-1417175D01*
X29400003Y-1415457D01*
X29403058Y-1415071D01*
X29555871Y-1354568D01*
X29688837Y-1257963D01*
X29793600Y-1131326D01*
X29845281Y-1021498D01*
X29862269Y-985398D01*
X29862270Y-985394D01*
X29863579Y-982613D01*
X29869795Y-950029D01*
X29893799Y-824196D01*
X29893799Y-824194D01*
X29894376Y-821170D01*
X29884056Y-657140D01*
X29876806Y-634825D01*
X29834220Y-503758D01*
X29834219Y-503756D01*
X29833268Y-500829D01*
X29768189Y-398281D01*
X29746853Y-364661D01*
X29746852Y-364659D01*
X29745202Y-362060D01*
X29625393Y-249552D01*
X29605003Y-238342D01*
X29484067Y-171857D01*
X29481368Y-170373D01*
X29386686Y-146063D01*
X29325162Y-130266D01*
X29325159Y-130266D01*
X29322177Y-129500D01*
X28399075Y-129500D01*
X28293601Y-142825D01*
X28279997Y-144543D01*
X28276942Y-144929D01*
X28124129Y-205432D01*
X27991163Y-302037D01*
X27989199Y-304411D01*
X27966847Y-331430D01*
X27886400Y-428674D01*
X27885089Y-431461D01*
X27817731Y-574602D01*
X27817730Y-574606D01*
X27816421Y-577387D01*
X27815844Y-580412D01*
X27789754Y-717182D01*
X27785624Y-738830D01*
X25869196Y-738830D01*
X25864056Y-657140D01*
X25856806Y-634825D01*
X25814220Y-503758D01*
X25814219Y-503756D01*
X25813268Y-500829D01*
X25748189Y-398281D01*
X25726853Y-364661D01*
X25726852Y-364659D01*
X25725202Y-362060D01*
X25605393Y-249552D01*
X25585003Y-238342D01*
X25464067Y-171857D01*
X25461368Y-170373D01*
X25366686Y-146063D01*
X25305162Y-130266D01*
X25305159Y-130266D01*
X25302177Y-129500D01*
X24079075Y-129500D01*
X23973601Y-142825D01*
X23959997Y-144543D01*
X23956942Y-144929D01*
X23804129Y-205432D01*
X23671163Y-302037D01*
X23669199Y-304411D01*
X23646847Y-331430D01*
X23566400Y-428674D01*
X23565089Y-431461D01*
X23497731Y-574602D01*
X23497730Y-574606D01*
X23496421Y-577387D01*
X23495844Y-580412D01*
X23469754Y-717182D01*
X23465624Y-738830D01*
X21102100Y-738830D01*
X21102100Y352991D01*
X21116452Y387639D01*
X21143434Y401388D01*
X21184177Y407840D01*
X21221498Y413751D01*
X21221499Y413751D01*
X21225304Y414354D01*
X21318143Y461658D01*
X21334908Y470200D01*
X21334909Y470201D01*
X21338342Y471950D01*
X21428050Y561658D01*
X21436633Y578502D01*
X21462770Y629800D01*
X21485646Y674696D01*
X21486482Y679971D01*
X21504889Y796193D01*
X21505492Y800000D01*
X21496910Y854185D01*
X21486249Y921498D01*
X21486249Y921499D01*
X21485646Y925304D01*
X21455545Y984381D01*
X21429800Y1034908D01*
X21429799Y1034909D01*
X21428050Y1038342D01*
X21338342Y1128050D01*
X21334909Y1129799D01*
X21334908Y1129800D01*
X21246794Y1174696D01*
X21225304Y1185646D01*
X21221499Y1186249D01*
X21221498Y1186249D01*
X21103807Y1204889D01*
X21100000Y1205492D01*
X21096193Y1204889D01*
X20978502Y1186249D01*
X20978501Y1186249D01*
X20974696Y1185646D01*
X20953206Y1174696D01*
X20865092Y1129800D01*
X20865091Y1129799D01*
X20861658Y1128050D01*
X20771950Y1038342D01*
X20770201Y1034909D01*
X20770200Y1034908D01*
X20744455Y984381D01*
X20714354Y925304D01*
X20713751Y921499D01*
X20713751Y921498D01*
X20701090Y841558D01*
X20687341Y814575D01*
X20625935Y753169D01*
X20620722Y748668D01*
X20616760Y746732D01*
X20613683Y743415D01*
X20582279Y709561D01*
X20581003Y708237D01*
X20566515Y693749D01*
X20565236Y691885D01*
X20564359Y690829D01*
X20560960Y686578D01*
X20540223Y664224D01*
X20538546Y660022D01*
X20538546Y660021D01*
X20533851Y648252D01*
X20528745Y638690D01*
X20522647Y629800D01*
X20519020Y624513D01*
X20517976Y620113D01*
X20517975Y620111D01*
X20511982Y594857D01*
X20509818Y588014D01*
X20499800Y562905D01*
X20499799Y562901D01*
X20498520Y559695D01*
X20497900Y553372D01*
X20497900Y541252D01*
X20496576Y529938D01*
X20493034Y515013D01*
X20497452Y482550D01*
X20497900Y475942D01*
X20497900Y-752370D01*
X20483548Y-787018D01*
X20448900Y-801370D01*
X20414252Y-787018D01*
X19453169Y174065D01*
X19448668Y179278D01*
X19446732Y183240D01*
X19409561Y217721D01*
X19408237Y218997D01*
X19393749Y233485D01*
X19391885Y234764D01*
X19390829Y235641D01*
X19386578Y239040D01*
X19364224Y259777D01*
X19348250Y266150D01*
X19338690Y271255D01*
X19328244Y278421D01*
X19328242Y278422D01*
X19324513Y280980D01*
X19320113Y282024D01*
X19320111Y282025D01*
X19294857Y288018D01*
X19288014Y290182D01*
X19277737Y294282D01*
X19261246Y305146D01*
X19238342Y328050D01*
X19234909Y329799D01*
X19234908Y329800D01*
X19155618Y370200D01*
X19125304Y385646D01*
X19121499Y386249D01*
X19121498Y386249D01*
X19003807Y404889D01*
X19000000Y405492D01*
X18996193Y404889D01*
X18878502Y386249D01*
X18878501Y386249D01*
X18874696Y385646D01*
X18844382Y370200D01*
X18765092Y329800D01*
X18765091Y329799D01*
X18761658Y328050D01*
X18671950Y238342D01*
X18614354Y125304D01*
X18613751Y121499D01*
X18613751Y121498D01*
X18603842Y58932D01*
X18594508Y0D01*
X18595111Y-3807D01*
X18611121Y-104889D01*
X18614354Y-125304D01*
X18671950Y-238342D01*
X18761658Y-328050D01*
X18765091Y-329799D01*
X18765092Y-329800D01*
X18818177Y-356848D01*
X18874696Y-385646D01*
X18878501Y-386249D01*
X18878502Y-386249D01*
X18996193Y-404889D01*
X19000000Y-405492D01*
X19003807Y-404889D01*
X19125304Y-385646D01*
X19125464Y-386656D01*
X19158650Y-389272D01*
X19171047Y-398281D01*
X19635237Y-862471D01*
X19649589Y-897119D01*
X19635237Y-931767D01*
X19622835Y-940778D01*
X19594596Y-955167D01*
X19561658Y-971950D01*
X19471950Y-1061658D01*
X19414354Y-1174696D01*
X19413751Y-1178501D01*
X19413751Y-1178502D01*
X19406335Y-1225324D01*
X19394508Y-1300000D01*
X19395111Y-1303807D01*
X19412554Y-1413937D01*
X19414354Y-1425304D01*
X19471950Y-1538342D01*
X19561658Y-1628050D01*
X19565091Y-1629799D01*
X19565092Y-1629800D01*
X19602099Y-1648656D01*
X19674696Y-1685646D01*
X19678501Y-1686249D01*
X19678502Y-1686249D01*
X19796193Y-1704889D01*
X19800000Y-1705492D01*
X19803807Y-1704889D01*
X19921498Y-1686249D01*
X19921499Y-1686249D01*
X19925304Y-1685646D01*
X19928738Y-1683896D01*
X19932407Y-1682704D01*
X19932978Y-1684461D01*
X19964038Y-1682014D01*
X19992557Y-1706368D01*
X19997900Y-1728617D01*
X19997900Y-4944062D01*
X19997395Y-4950936D01*
X19995964Y-4955104D01*
X19997792Y-5003807D01*
X19997866Y-5005768D01*
X19997900Y-5007606D01*
X19997900Y-5028097D01*
X19998312Y-5030311D01*
X19998434Y-5031631D01*
X19999042Y-5037101D01*
X20000186Y-5067566D01*
X20001973Y-5071724D01*
X20001973Y-5071726D01*
X20006974Y-5083365D01*
X20010125Y-5093737D01*
X20013273Y-5110639D01*
X20015648Y-5114492D01*
X20029268Y-5136588D01*
X20032577Y-5142958D01*
X20044611Y-5170968D01*
X20046805Y-5173639D01*
X20046806Y-5173641D01*
X20047875Y-5174943D01*
X20047884Y-5174953D01*
X20048643Y-5175877D01*
X20057211Y-5184445D01*
X20064275Y-5193381D01*
X20072326Y-5206442D01*
X20098110Y-5226049D01*
X20098414Y-5226280D01*
X20103402Y-5230636D01*
X20683548Y-5810782D01*
X20697900Y-5845430D01*
X20697900Y-9154570D01*
X20683548Y-9189218D01*
X20489218Y-9383548D01*
X20454570Y-9397900D01*
X19155938Y-9397900D01*
X19149064Y-9397395D01*
X19144896Y-9395964D01*
X19094232Y-9397866D01*
X19092394Y-9397900D01*
X19071903Y-9397900D01*
X19069689Y-9398312D01*
X19068369Y-9398434D01*
X19062899Y-9399042D01*
X19036958Y-9400016D01*
X19036957Y-9400016D01*
X19032434Y-9400186D01*
X19028276Y-9401973D01*
X19028274Y-9401973D01*
X19016635Y-9406974D01*
X19006263Y-9410125D01*
X19001853Y-9410947D01*
X18993810Y-9412444D01*
X18993808Y-9412445D01*
X18989361Y-9413273D01*
X18985508Y-9415648D01*
X18963412Y-9429268D01*
X18957042Y-9432577D01*
X18932209Y-9443246D01*
X18929032Y-9444611D01*
X18926361Y-9446805D01*
X18926359Y-9446806D01*
X18925057Y-9447875D01*
X18925047Y-9447884D01*
X18924123Y-9448643D01*
X18915555Y-9457211D01*
X18906619Y-9464275D01*
X18893558Y-9472326D01*
X18887298Y-9480558D01*
X18873720Y-9498414D01*
X18869364Y-9503402D01*
X18625935Y-9746831D01*
X18620722Y-9751332D01*
X18616760Y-9753268D01*
X18613683Y-9756585D01*
X18582279Y-9790439D01*
X18581003Y-9791763D01*
X18566515Y-9806251D01*
X18565236Y-9808115D01*
X18564359Y-9809171D01*
X18560960Y-9813422D01*
X18540223Y-9835776D01*
X18538546Y-9839978D01*
X18538546Y-9839979D01*
X18533851Y-9851748D01*
X18528745Y-9861310D01*
X18519020Y-9875487D01*
X18517976Y-9879887D01*
X18517975Y-9879889D01*
X18511982Y-9905143D01*
X18509818Y-9911986D01*
X18499800Y-9937095D01*
X18499799Y-9937099D01*
X18498520Y-9940305D01*
X18497900Y-9946628D01*
X18497900Y-9958748D01*
X18496576Y-9970062D01*
X18493034Y-9984987D01*
X18496417Y-10009842D01*
X18486868Y-10046108D01*
X18482512Y-10051096D01*
X18471950Y-10061658D01*
X18470201Y-10065091D01*
X18470200Y-10065092D01*
X18465421Y-10074471D01*
X18414354Y-10174696D01*
X18394508Y-10300000D01*
X18395111Y-10303807D01*
X18398600Y-10325833D01*
X18414354Y-10425304D01*
X18416104Y-10428738D01*
X18466810Y-10528254D01*
X18469753Y-10565642D01*
X18445397Y-10594159D01*
X18423151Y-10599500D01*
X-15023151Y-10599500D01*
X-15057799Y-10585148D01*
X-15072151Y-10550500D01*
X-15066810Y-10528254D01*
X-15016104Y-10428738D01*
X-15014354Y-10425304D01*
X-14998599Y-10325833D01*
X-14995111Y-10303807D01*
X-14994508Y-10300000D01*
X-15014354Y-10174696D01*
X-15065421Y-10074471D01*
X-15070200Y-10065092D01*
X-15070201Y-10065091D01*
X-15071950Y-10061658D01*
X-15161658Y-9971950D01*
X-15165091Y-9970201D01*
X-15165092Y-9970200D01*
X-15223765Y-9940305D01*
X-15274696Y-9914354D01*
X-15278501Y-9913751D01*
X-15278502Y-9913751D01*
X-15396193Y-9895111D01*
X-15400000Y-9894508D01*
X-15403807Y-9895111D01*
X-15521498Y-9913751D01*
X-15521499Y-9913751D01*
X-15525304Y-9914354D01*
X-15576235Y-9940305D01*
X-15634908Y-9970200D01*
X-15634909Y-9970201D01*
X-15638342Y-9971950D01*
X-15728050Y-10061658D01*
X-15729799Y-10065091D01*
X-15729800Y-10065092D01*
X-15734579Y-10074471D01*
X-15785646Y-10174696D01*
X-15805492Y-10300000D01*
X-15804889Y-10303807D01*
X-15801400Y-10325833D01*
X-15785646Y-10425304D01*
X-15783896Y-10428738D01*
X-15733190Y-10528254D01*
X-15730247Y-10565642D01*
X-15754603Y-10594159D01*
X-15776849Y-10599500D01*
X-28896655Y-10599500D01*
X-28931303Y-10585148D01*
X-29886680Y-9629770D01*
X-4504414Y-9629770D01*
X-4501421Y-9636863D01*
X-4499877Y-9638367D01*
X-4496397Y-9641186D01*
X-4333720Y-9749884D01*
X-4329787Y-9752019D01*
X-4150027Y-9829249D01*
X-4145768Y-9830633D01*
X-3954942Y-9873814D01*
X-3950507Y-9874397D01*
X-3755009Y-9882078D01*
X-3750538Y-9881844D01*
X-3556908Y-9853769D01*
X-3552567Y-9852727D01*
X-3367289Y-9789834D01*
X-3363207Y-9788016D01*
X-3192503Y-9692417D01*
X-3188814Y-9689882D01*
X-3121364Y-9633783D01*
X-3117890Y-9627181D01*
X-3119534Y-9621887D01*
X-3803107Y-8938314D01*
X-3810000Y-8935459D01*
X-3816893Y-8938314D01*
X-4501631Y-9623052D01*
X-4504414Y-9629770D01*
X-29886680Y-9629770D01*
X-30752837Y-8763613D01*
X-4903143Y-8763613D01*
X-4890347Y-8958849D01*
X-4889647Y-8963263D01*
X-4841488Y-9152891D01*
X-4839992Y-9157115D01*
X-4758085Y-9334787D01*
X-4755841Y-9338672D01*
X-4655566Y-9480558D01*
X-4649256Y-9484540D01*
X-4644997Y-9483576D01*
X-3958314Y-8796893D01*
X-3955459Y-8790000D01*
X-3664541Y-8790000D01*
X-3661686Y-8796893D01*
X-2979342Y-9479237D01*
X-2972449Y-9482092D01*
X-2967326Y-9479970D01*
X-2910118Y-9411186D01*
X-2907583Y-9407497D01*
X-2811984Y-9236793D01*
X-2810166Y-9232711D01*
X-2747273Y-9047433D01*
X-2746231Y-9043092D01*
X-2718041Y-8848668D01*
X-2717796Y-8845792D01*
X-2716373Y-8791453D01*
X-2716468Y-8788551D01*
X-2718967Y-8761358D01*
X-2363793Y-8761358D01*
X-2350697Y-8961166D01*
X-2301408Y-9155241D01*
X-2300472Y-9157271D01*
X-2300470Y-9157277D01*
X-2234574Y-9300215D01*
X-2217577Y-9337084D01*
X-2102012Y-9500605D01*
X-2100404Y-9502171D01*
X-2100401Y-9502175D01*
X-2054661Y-9546732D01*
X-1958582Y-9640328D01*
X-1956720Y-9641572D01*
X-1956719Y-9641573D01*
X-1794621Y-9749884D01*
X-1792092Y-9751574D01*
X-1608117Y-9830616D01*
X-1605925Y-9831112D01*
X-1415008Y-9874312D01*
X-1415002Y-9874313D01*
X-1412818Y-9874807D01*
X-1328599Y-9878116D01*
X-1214983Y-9882580D01*
X-1214980Y-9882580D01*
X-1212736Y-9882668D01*
X-1210517Y-9882346D01*
X-1210512Y-9882346D01*
X-1085528Y-9864224D01*
X-1014572Y-9853936D01*
X-1012450Y-9853216D01*
X-1012447Y-9853215D01*
X-914491Y-9819963D01*
X-824962Y-9789572D01*
X-766059Y-9756585D01*
X-652218Y-9692832D01*
X-652216Y-9692831D01*
X-650256Y-9691733D01*
X-639214Y-9682550D01*
X-498029Y-9565127D01*
X-496306Y-9563694D01*
X-481414Y-9545788D01*
X-369703Y-9411471D01*
X-369701Y-9411469D01*
X-368267Y-9409744D01*
X-367008Y-9407497D01*
X-271524Y-9236995D01*
X-270428Y-9235038D01*
X-206064Y-9045428D01*
X-191073Y-8942037D01*
X-177539Y-8848694D01*
X-177539Y-8848688D01*
X-177332Y-8847264D01*
X-176404Y-8811857D01*
X-175870Y-8791452D01*
X-175870Y-8791451D01*
X-175832Y-8790000D01*
X-176465Y-8783107D01*
X-178463Y-8761358D01*
X176207Y-8761358D01*
X189303Y-8961166D01*
X238592Y-9155241D01*
X239528Y-9157271D01*
X239530Y-9157277D01*
X305426Y-9300215D01*
X322423Y-9337084D01*
X437988Y-9500605D01*
X439596Y-9502171D01*
X439599Y-9502175D01*
X485339Y-9546732D01*
X581418Y-9640328D01*
X583280Y-9641572D01*
X583281Y-9641573D01*
X745379Y-9749884D01*
X747908Y-9751574D01*
X931883Y-9830616D01*
X934075Y-9831112D01*
X1124992Y-9874312D01*
X1124998Y-9874313D01*
X1127182Y-9874807D01*
X1211401Y-9878116D01*
X1325017Y-9882580D01*
X1325020Y-9882580D01*
X1327264Y-9882668D01*
X1329483Y-9882346D01*
X1329488Y-9882346D01*
X1454472Y-9864224D01*
X1525428Y-9853936D01*
X1527550Y-9853216D01*
X1527553Y-9853215D01*
X1625509Y-9819963D01*
X1715038Y-9789572D01*
X1773941Y-9756585D01*
X1887782Y-9692832D01*
X1887784Y-9692831D01*
X1889744Y-9691733D01*
X1900786Y-9682550D01*
X2041971Y-9565127D01*
X2043694Y-9563694D01*
X2058586Y-9545788D01*
X2170297Y-9411471D01*
X2170299Y-9411469D01*
X2171733Y-9409744D01*
X2172992Y-9407497D01*
X2268476Y-9236995D01*
X2269572Y-9235038D01*
X2333936Y-9045428D01*
X2348927Y-8942037D01*
X2362461Y-8848694D01*
X2362461Y-8848688D01*
X2362668Y-8847264D01*
X2363596Y-8811857D01*
X2364130Y-8791452D01*
X2364130Y-8791451D01*
X2364168Y-8790000D01*
X2363535Y-8783107D01*
X2361537Y-8761358D01*
X2716207Y-8761358D01*
X2729303Y-8961166D01*
X2778592Y-9155241D01*
X2779528Y-9157271D01*
X2779530Y-9157277D01*
X2845426Y-9300215D01*
X2862423Y-9337084D01*
X2977988Y-9500605D01*
X2979596Y-9502171D01*
X2979599Y-9502175D01*
X3025339Y-9546732D01*
X3121418Y-9640328D01*
X3123280Y-9641572D01*
X3123281Y-9641573D01*
X3285379Y-9749884D01*
X3287908Y-9751574D01*
X3471883Y-9830616D01*
X3474075Y-9831112D01*
X3664992Y-9874312D01*
X3664998Y-9874313D01*
X3667182Y-9874807D01*
X3751401Y-9878116D01*
X3865017Y-9882580D01*
X3865020Y-9882580D01*
X3867264Y-9882668D01*
X3869483Y-9882346D01*
X3869488Y-9882346D01*
X3994472Y-9864224D01*
X4065428Y-9853936D01*
X4067550Y-9853216D01*
X4067553Y-9853215D01*
X4165509Y-9819963D01*
X4255038Y-9789572D01*
X4313941Y-9756585D01*
X4427782Y-9692832D01*
X4427784Y-9692831D01*
X4429744Y-9691733D01*
X4440786Y-9682550D01*
X4581971Y-9565127D01*
X4583694Y-9563694D01*
X4598586Y-9545788D01*
X4710297Y-9411471D01*
X4710299Y-9411469D01*
X4711733Y-9409744D01*
X4712992Y-9407497D01*
X4808476Y-9236995D01*
X4809572Y-9235038D01*
X4873936Y-9045428D01*
X4879664Y-9005925D01*
X5529500Y-9005925D01*
X5544929Y-9128058D01*
X5605432Y-9280871D01*
X5702037Y-9413837D01*
X5828674Y-9518600D01*
X5894021Y-9549350D01*
X5974602Y-9587269D01*
X5974606Y-9587270D01*
X5977387Y-9588579D01*
X5980412Y-9589156D01*
X6135804Y-9618799D01*
X6135806Y-9618799D01*
X6138830Y-9619376D01*
X6302860Y-9609056D01*
X6305785Y-9608106D01*
X6305788Y-9608105D01*
X6456242Y-9559220D01*
X6456244Y-9559219D01*
X6459171Y-9558268D01*
X6530927Y-9512730D01*
X6595339Y-9471853D01*
X6595341Y-9471852D01*
X6597940Y-9470202D01*
X6710448Y-9350393D01*
X6789627Y-9206368D01*
X6830500Y-9047177D01*
X6830500Y-9005925D01*
X14169500Y-9005925D01*
X14184929Y-9128058D01*
X14245432Y-9280871D01*
X14342037Y-9413837D01*
X14468674Y-9518600D01*
X14534021Y-9549350D01*
X14614602Y-9587269D01*
X14614606Y-9587270D01*
X14617387Y-9588579D01*
X14620412Y-9589156D01*
X14775804Y-9618799D01*
X14775806Y-9618799D01*
X14778830Y-9619376D01*
X14942860Y-9609056D01*
X14945785Y-9608106D01*
X14945788Y-9608105D01*
X15096242Y-9559220D01*
X15096244Y-9559219D01*
X15099171Y-9558268D01*
X15170927Y-9512730D01*
X15235339Y-9471853D01*
X15235341Y-9471852D01*
X15237940Y-9470202D01*
X15350448Y-9350393D01*
X15429627Y-9206368D01*
X15470500Y-9047177D01*
X15470500Y-8124075D01*
X15457175Y-8018601D01*
X15455457Y-8004997D01*
X15455071Y-8001942D01*
X15394568Y-7849129D01*
X15297963Y-7716163D01*
X15285606Y-7705940D01*
X15173700Y-7613364D01*
X15171326Y-7611400D01*
X15071238Y-7564302D01*
X15025398Y-7542731D01*
X15025394Y-7542730D01*
X15022613Y-7541421D01*
X14992346Y-7535647D01*
X14864196Y-7511201D01*
X14864194Y-7511201D01*
X14861170Y-7510624D01*
X14697140Y-7520944D01*
X14694215Y-7521894D01*
X14694212Y-7521895D01*
X14543758Y-7570780D01*
X14543756Y-7570781D01*
X14540829Y-7571732D01*
X14481137Y-7609614D01*
X14404661Y-7658147D01*
X14404659Y-7658148D01*
X14402060Y-7659798D01*
X14289552Y-7779607D01*
X14210373Y-7923632D01*
X14194900Y-7983896D01*
X14175910Y-8057859D01*
X14169500Y-8082823D01*
X14169500Y-9005925D01*
X6830500Y-9005925D01*
X6830500Y-8124075D01*
X6817175Y-8018601D01*
X6815457Y-8004997D01*
X6815071Y-8001942D01*
X6754568Y-7849129D01*
X6657963Y-7716163D01*
X6645606Y-7705940D01*
X6533700Y-7613364D01*
X6531326Y-7611400D01*
X6431238Y-7564302D01*
X6385398Y-7542731D01*
X6385394Y-7542730D01*
X6382613Y-7541421D01*
X6352346Y-7535647D01*
X6224196Y-7511201D01*
X6224194Y-7511201D01*
X6221170Y-7510624D01*
X6057140Y-7520944D01*
X6054215Y-7521894D01*
X6054212Y-7521895D01*
X5903758Y-7570780D01*
X5903756Y-7570781D01*
X5900829Y-7571732D01*
X5841137Y-7609614D01*
X5764661Y-7658147D01*
X5764659Y-7658148D01*
X5762060Y-7659798D01*
X5649552Y-7779607D01*
X5570373Y-7923632D01*
X5554900Y-7983896D01*
X5535910Y-8057859D01*
X5529500Y-8082823D01*
X5529500Y-9005925D01*
X4879664Y-9005925D01*
X4888927Y-8942037D01*
X4902461Y-8848694D01*
X4902461Y-8848688D01*
X4902668Y-8847264D01*
X4903596Y-8811857D01*
X4904130Y-8791452D01*
X4904130Y-8791451D01*
X4904168Y-8790000D01*
X4903535Y-8783107D01*
X4886052Y-8592841D01*
X4886051Y-8592836D01*
X4885846Y-8590604D01*
X4850508Y-8465305D01*
X4832106Y-8400054D01*
X4832105Y-8400051D01*
X4831494Y-8397885D01*
X4742932Y-8218299D01*
X4623125Y-8057859D01*
X4566475Y-8005492D01*
X4477738Y-7923464D01*
X4477737Y-7923463D01*
X4476087Y-7921938D01*
X4448924Y-7904799D01*
X4395872Y-7871326D01*
X4306742Y-7815089D01*
X4279002Y-7804022D01*
X4122845Y-7741721D01*
X4122841Y-7741720D01*
X4120761Y-7740890D01*
X4118560Y-7740452D01*
X4118556Y-7740451D01*
X3986576Y-7714199D01*
X3924372Y-7701826D01*
X3828972Y-7700577D01*
X3726401Y-7699234D01*
X3726396Y-7699234D01*
X3724153Y-7699205D01*
X3721936Y-7699586D01*
X3721935Y-7699586D01*
X3660911Y-7710072D01*
X3526808Y-7733115D01*
X3524704Y-7733891D01*
X3524701Y-7733892D01*
X3341057Y-7801642D01*
X3341054Y-7801643D01*
X3338949Y-7802420D01*
X3337021Y-7803567D01*
X3337019Y-7803568D01*
X3325312Y-7810533D01*
X3166864Y-7904799D01*
X3165176Y-7906279D01*
X3165175Y-7906280D01*
X3120167Y-7945751D01*
X3016319Y-8036824D01*
X3014934Y-8038580D01*
X3014930Y-8038585D01*
X2893744Y-8192309D01*
X2893741Y-8192313D01*
X2892354Y-8194073D01*
X2799121Y-8371280D01*
X2739742Y-8562510D01*
X2739478Y-8564742D01*
X2739477Y-8564746D01*
X2736417Y-8590604D01*
X2716207Y-8761358D01*
X2361537Y-8761358D01*
X2346052Y-8592841D01*
X2346051Y-8592836D01*
X2345846Y-8590604D01*
X2310508Y-8465305D01*
X2292106Y-8400054D01*
X2292105Y-8400051D01*
X2291494Y-8397885D01*
X2202932Y-8218299D01*
X2083125Y-8057859D01*
X2026475Y-8005492D01*
X1937738Y-7923464D01*
X1937737Y-7923463D01*
X1936087Y-7921938D01*
X1908924Y-7904799D01*
X1855872Y-7871326D01*
X1766742Y-7815089D01*
X1602943Y-7749740D01*
X1576079Y-7723570D01*
X1572100Y-7704228D01*
X1572100Y-4985925D01*
X5529500Y-4985925D01*
X5544929Y-5108058D01*
X5605432Y-5260871D01*
X5702037Y-5393837D01*
X5704411Y-5395801D01*
X5720220Y-5408879D01*
X5828674Y-5498600D01*
X5844260Y-5505934D01*
X5974602Y-5567269D01*
X5974606Y-5567270D01*
X5977387Y-5568579D01*
X5980412Y-5569156D01*
X6135804Y-5598799D01*
X6135806Y-5598799D01*
X6138830Y-5599376D01*
X6302860Y-5589056D01*
X6305785Y-5588106D01*
X6305788Y-5588105D01*
X6456242Y-5539220D01*
X6456244Y-5539219D01*
X6459171Y-5538268D01*
X6534636Y-5490376D01*
X6595339Y-5451853D01*
X6595341Y-5451852D01*
X6597940Y-5450202D01*
X6661579Y-5382433D01*
X6708339Y-5332639D01*
X6708339Y-5332638D01*
X6710448Y-5330393D01*
X6721468Y-5310349D01*
X6759693Y-5240818D01*
X6789627Y-5186368D01*
X6814787Y-5088376D01*
X6829734Y-5030162D01*
X6829734Y-5030159D01*
X6830500Y-5027177D01*
X6830500Y-4909891D01*
X7055420Y-4909891D01*
X7056080Y-4913164D01*
X7056080Y-4913165D01*
X7081071Y-5037101D01*
X7085233Y-5057743D01*
X7086749Y-5060719D01*
X7086750Y-5060721D01*
X7152188Y-5189152D01*
X7152190Y-5189155D01*
X7153707Y-5192132D01*
X7255799Y-5303156D01*
X7258636Y-5304915D01*
X7380530Y-5380492D01*
X7383986Y-5382635D01*
X7387189Y-5383566D01*
X7387190Y-5383566D01*
X7526353Y-5423997D01*
X7526355Y-5423997D01*
X7528825Y-5424715D01*
X7531389Y-5424903D01*
X7531393Y-5424904D01*
X7535122Y-5425177D01*
X7539515Y-5425500D01*
X7647785Y-5425500D01*
X7649432Y-5425274D01*
X7649438Y-5425274D01*
X7703733Y-5417836D01*
X7759432Y-5410206D01*
X7762499Y-5408879D01*
X7894789Y-5351632D01*
X7894790Y-5351631D01*
X7897855Y-5350305D01*
X7900451Y-5348203D01*
X8012476Y-5257487D01*
X8012478Y-5257485D01*
X8015070Y-5255386D01*
X8016319Y-5253629D01*
X8050117Y-5238368D01*
X8086304Y-5252696D01*
X8161658Y-5328050D01*
X8165091Y-5329799D01*
X8165092Y-5329800D01*
X8201210Y-5348203D01*
X8274696Y-5385646D01*
X8278501Y-5386249D01*
X8278502Y-5386249D01*
X8396193Y-5404889D01*
X8400000Y-5405492D01*
X8403807Y-5404889D01*
X8521498Y-5386249D01*
X8521499Y-5386249D01*
X8525304Y-5385646D01*
X8598790Y-5348203D01*
X8634908Y-5329800D01*
X8634909Y-5329799D01*
X8638342Y-5328050D01*
X8728050Y-5238342D01*
X8731977Y-5230636D01*
X8780376Y-5135646D01*
X8785646Y-5125304D01*
X8787359Y-5114492D01*
X8804889Y-5003807D01*
X8805492Y-5000000D01*
X12194508Y-5000000D01*
X12195111Y-5003807D01*
X12212642Y-5114492D01*
X12214354Y-5125304D01*
X12219624Y-5135646D01*
X12268024Y-5230636D01*
X12271950Y-5238342D01*
X12361658Y-5328050D01*
X12365091Y-5329799D01*
X12365092Y-5329800D01*
X12401210Y-5348203D01*
X12474696Y-5385646D01*
X12478501Y-5386249D01*
X12478502Y-5386249D01*
X12596193Y-5404889D01*
X12600000Y-5405492D01*
X12603807Y-5404889D01*
X12721498Y-5386249D01*
X12721499Y-5386249D01*
X12725304Y-5385646D01*
X12798790Y-5348203D01*
X12834908Y-5329800D01*
X12834909Y-5329799D01*
X12838342Y-5328050D01*
X12917003Y-5249389D01*
X12951651Y-5235037D01*
X12987719Y-5250870D01*
X13035799Y-5303156D01*
X13038636Y-5304915D01*
X13160530Y-5380492D01*
X13163986Y-5382635D01*
X13167189Y-5383566D01*
X13167190Y-5383566D01*
X13306353Y-5423997D01*
X13306355Y-5423997D01*
X13308825Y-5424715D01*
X13311389Y-5424903D01*
X13311393Y-5424904D01*
X13315122Y-5425177D01*
X13319515Y-5425500D01*
X13427785Y-5425500D01*
X13429432Y-5425274D01*
X13429438Y-5425274D01*
X13483733Y-5417836D01*
X13539432Y-5410206D01*
X13542499Y-5408879D01*
X13674789Y-5351632D01*
X13674790Y-5351631D01*
X13677855Y-5350305D01*
X13685880Y-5343807D01*
X13739976Y-5300000D01*
X13795070Y-5255386D01*
X13879496Y-5136588D01*
X13880507Y-5135165D01*
X13880507Y-5135164D01*
X13882442Y-5132442D01*
X13886383Y-5121498D01*
X13932402Y-4993674D01*
X13932402Y-4993673D01*
X13933533Y-4990532D01*
X13933872Y-4985925D01*
X14169500Y-4985925D01*
X14184929Y-5108058D01*
X14245432Y-5260871D01*
X14342037Y-5393837D01*
X14344411Y-5395801D01*
X14360220Y-5408879D01*
X14468674Y-5498600D01*
X14484260Y-5505934D01*
X14614602Y-5567269D01*
X14614606Y-5567270D01*
X14617387Y-5568579D01*
X14620412Y-5569156D01*
X14775804Y-5598799D01*
X14775806Y-5598799D01*
X14778830Y-5599376D01*
X14942860Y-5589056D01*
X14945785Y-5588106D01*
X14945788Y-5588105D01*
X15096242Y-5539220D01*
X15096244Y-5539219D01*
X15099171Y-5538268D01*
X15174636Y-5490376D01*
X15235339Y-5451853D01*
X15235341Y-5451852D01*
X15237940Y-5450202D01*
X15301579Y-5382433D01*
X15348339Y-5332639D01*
X15348339Y-5332638D01*
X15350448Y-5330393D01*
X15361468Y-5310349D01*
X15399693Y-5240818D01*
X15429627Y-5186368D01*
X15454787Y-5088376D01*
X15469734Y-5030162D01*
X15469734Y-5030159D01*
X15470500Y-5027177D01*
X15470500Y-3804075D01*
X15455071Y-3681942D01*
X15394568Y-3529129D01*
X15297963Y-3396163D01*
X15171326Y-3291400D01*
X15085004Y-3250780D01*
X15025398Y-3222731D01*
X15025394Y-3222730D01*
X15022613Y-3221421D01*
X14935950Y-3204889D01*
X14864196Y-3191201D01*
X14864194Y-3191201D01*
X14861170Y-3190624D01*
X14697140Y-3200944D01*
X14694215Y-3201894D01*
X14694212Y-3201895D01*
X14543758Y-3250780D01*
X14543756Y-3250781D01*
X14540829Y-3251732D01*
X14486439Y-3286249D01*
X14404661Y-3338147D01*
X14404659Y-3338148D01*
X14402060Y-3339798D01*
X14289552Y-3459607D01*
X14210373Y-3603632D01*
X14169500Y-3762823D01*
X14169500Y-4985925D01*
X13933872Y-4985925D01*
X13944335Y-4843441D01*
X13944580Y-4840109D01*
X13928761Y-4761658D01*
X13915428Y-4695533D01*
X13915427Y-4695530D01*
X13914767Y-4692257D01*
X13905809Y-4674676D01*
X13847812Y-4560848D01*
X13847810Y-4560845D01*
X13846293Y-4557868D01*
X13744201Y-4446844D01*
X13704051Y-4421950D01*
X13618848Y-4369122D01*
X13618847Y-4369122D01*
X13616014Y-4367365D01*
X13611674Y-4366104D01*
X13473647Y-4326003D01*
X13473645Y-4326003D01*
X13471175Y-4325285D01*
X13468611Y-4325097D01*
X13468607Y-4325096D01*
X13464878Y-4324823D01*
X13460485Y-4324500D01*
X13352215Y-4324500D01*
X13350568Y-4324726D01*
X13350562Y-4324726D01*
X13296267Y-4332164D01*
X13240568Y-4339794D01*
X13237502Y-4341121D01*
X13237501Y-4341121D01*
X13105211Y-4398368D01*
X13105210Y-4398369D01*
X13102145Y-4399695D01*
X12984930Y-4494614D01*
X12931277Y-4570111D01*
X12900264Y-4613751D01*
X12897558Y-4617558D01*
X12893618Y-4628502D01*
X12890659Y-4636721D01*
X12865419Y-4664459D01*
X12827957Y-4666225D01*
X12822310Y-4663781D01*
X12774102Y-4639218D01*
X12725304Y-4614354D01*
X12721499Y-4613751D01*
X12721498Y-4613751D01*
X12603807Y-4595111D01*
X12600000Y-4594508D01*
X12596193Y-4595111D01*
X12478502Y-4613751D01*
X12478501Y-4613751D01*
X12474696Y-4614354D01*
X12425898Y-4639218D01*
X12365092Y-4670200D01*
X12365091Y-4670201D01*
X12361658Y-4671950D01*
X12271950Y-4761658D01*
X12214354Y-4874696D01*
X12213751Y-4878501D01*
X12213751Y-4878502D01*
X12209307Y-4906559D01*
X12194508Y-5000000D01*
X8805492Y-5000000D01*
X8790693Y-4906559D01*
X8786249Y-4878502D01*
X8786249Y-4878501D01*
X8785646Y-4874696D01*
X8728050Y-4761658D01*
X8638342Y-4671950D01*
X8634909Y-4670201D01*
X8634908Y-4670200D01*
X8574102Y-4639218D01*
X8525304Y-4614354D01*
X8521499Y-4613751D01*
X8521498Y-4613751D01*
X8403807Y-4595111D01*
X8400000Y-4594508D01*
X8396193Y-4595111D01*
X8278502Y-4613751D01*
X8278501Y-4613751D01*
X8274696Y-4614354D01*
X8225898Y-4639218D01*
X8175755Y-4664767D01*
X8138367Y-4667710D01*
X8109850Y-4643354D01*
X8095074Y-4614354D01*
X8066293Y-4557868D01*
X7964201Y-4446844D01*
X7924051Y-4421950D01*
X7838848Y-4369122D01*
X7838847Y-4369122D01*
X7836014Y-4367365D01*
X7831674Y-4366104D01*
X7693647Y-4326003D01*
X7693645Y-4326003D01*
X7691175Y-4325285D01*
X7688611Y-4325097D01*
X7688607Y-4325096D01*
X7684878Y-4324823D01*
X7680485Y-4324500D01*
X7572215Y-4324500D01*
X7570568Y-4324726D01*
X7570562Y-4324726D01*
X7516267Y-4332164D01*
X7460568Y-4339794D01*
X7457502Y-4341121D01*
X7457501Y-4341121D01*
X7325211Y-4398368D01*
X7325210Y-4398369D01*
X7322145Y-4399695D01*
X7204930Y-4494614D01*
X7151277Y-4570111D01*
X7120264Y-4613751D01*
X7117558Y-4617558D01*
X7116427Y-4620698D01*
X7116426Y-4620701D01*
X7068505Y-4753807D01*
X7066467Y-4759468D01*
X7055420Y-4909891D01*
X6830500Y-4909891D01*
X6830500Y-3804075D01*
X6815071Y-3681942D01*
X6754568Y-3529129D01*
X6657963Y-3396163D01*
X6531326Y-3291400D01*
X6445004Y-3250780D01*
X6385398Y-3222731D01*
X6385394Y-3222730D01*
X6382613Y-3221421D01*
X6295950Y-3204889D01*
X6224196Y-3191201D01*
X6224194Y-3191201D01*
X6221170Y-3190624D01*
X6057140Y-3200944D01*
X6054215Y-3201894D01*
X6054212Y-3201895D01*
X5903758Y-3250780D01*
X5903756Y-3250781D01*
X5900829Y-3251732D01*
X5846439Y-3286249D01*
X5764661Y-3338147D01*
X5764659Y-3338148D01*
X5762060Y-3339798D01*
X5649552Y-3459607D01*
X5570373Y-3603632D01*
X5529500Y-3762823D01*
X5529500Y-4985925D01*
X1572100Y-4985925D01*
X1572100Y-4175430D01*
X1586452Y-4140782D01*
X2314575Y-3412659D01*
X2341558Y-3398910D01*
X2421498Y-3386249D01*
X2421499Y-3386249D01*
X2425304Y-3385646D01*
X2481823Y-3356848D01*
X2534908Y-3329800D01*
X2534909Y-3329799D01*
X2538342Y-3328050D01*
X2615352Y-3251040D01*
X2650000Y-3236688D01*
X2684648Y-3251040D01*
X2761658Y-3328050D01*
X2765091Y-3329799D01*
X2765092Y-3329800D01*
X2818177Y-3356848D01*
X2874696Y-3385646D01*
X2878501Y-3386249D01*
X2878502Y-3386249D01*
X2996193Y-3404889D01*
X3000000Y-3405492D01*
X3003807Y-3404889D01*
X3121498Y-3386249D01*
X3121499Y-3386249D01*
X3125304Y-3385646D01*
X3181823Y-3356848D01*
X3234908Y-3329800D01*
X3234909Y-3329799D01*
X3238342Y-3328050D01*
X3328050Y-3238342D01*
X3332403Y-3229800D01*
X3383896Y-3128738D01*
X3385646Y-3125304D01*
X3405492Y-3000000D01*
X3394205Y-2928738D01*
X3386249Y-2878502D01*
X3386249Y-2878501D01*
X3385646Y-2874696D01*
X3345201Y-2795318D01*
X3329800Y-2765092D01*
X3329799Y-2765091D01*
X3328050Y-2761658D01*
X3238342Y-2671950D01*
X3234909Y-2670201D01*
X3234908Y-2670200D01*
X3153534Y-2628738D01*
X3125304Y-2614354D01*
X3121499Y-2613751D01*
X3121498Y-2613751D01*
X3003807Y-2595111D01*
X3000000Y-2594508D01*
X2996193Y-2595111D01*
X2878502Y-2613751D01*
X2878501Y-2613751D01*
X2874696Y-2614354D01*
X2846466Y-2628738D01*
X2765092Y-2670200D01*
X2765091Y-2670201D01*
X2761658Y-2671950D01*
X2684648Y-2748960D01*
X2650000Y-2763312D01*
X2615352Y-2748960D01*
X2551040Y-2684648D01*
X2536688Y-2650000D01*
X2551040Y-2615352D01*
X2628050Y-2538342D01*
X2632509Y-2529592D01*
X2647587Y-2500000D01*
X15394508Y-2500000D01*
X15395111Y-2503807D01*
X15404274Y-2561658D01*
X15414354Y-2625304D01*
X15432877Y-2661658D01*
X15461874Y-2718566D01*
X15471950Y-2738342D01*
X15561658Y-2828050D01*
X15565091Y-2829799D01*
X15565092Y-2829800D01*
X15618177Y-2856848D01*
X15674696Y-2885646D01*
X15678501Y-2886249D01*
X15678502Y-2886249D01*
X15796193Y-2904889D01*
X15800000Y-2905492D01*
X15803807Y-2904889D01*
X15921498Y-2886249D01*
X15921499Y-2886249D01*
X15925304Y-2885646D01*
X15981823Y-2856848D01*
X16034908Y-2829800D01*
X16034909Y-2829799D01*
X16038342Y-2828050D01*
X16128050Y-2738342D01*
X16138127Y-2718566D01*
X16167123Y-2661658D01*
X16185646Y-2625304D01*
X16195727Y-2561658D01*
X16204889Y-2503807D01*
X16205492Y-2500000D01*
X16194205Y-2428738D01*
X16186249Y-2378502D01*
X16186249Y-2378501D01*
X16185646Y-2374696D01*
X16128050Y-2261658D01*
X16038342Y-2171950D01*
X16034909Y-2170201D01*
X16034908Y-2170200D01*
X15946794Y-2125304D01*
X15925304Y-2114354D01*
X15921499Y-2113751D01*
X15921498Y-2113751D01*
X15803807Y-2095111D01*
X15800000Y-2094508D01*
X15796193Y-2095111D01*
X15678502Y-2113751D01*
X15678501Y-2113751D01*
X15674696Y-2114354D01*
X15653206Y-2125304D01*
X15565092Y-2170200D01*
X15565091Y-2170201D01*
X15561658Y-2171950D01*
X15471950Y-2261658D01*
X15414354Y-2374696D01*
X15413751Y-2378501D01*
X15413751Y-2378502D01*
X15405795Y-2428738D01*
X15394508Y-2500000D01*
X2647587Y-2500000D01*
X2683896Y-2428738D01*
X2685646Y-2425304D01*
X2690332Y-2395721D01*
X2704889Y-2303807D01*
X2705492Y-2300000D01*
X2696158Y-2241068D01*
X2686249Y-2178502D01*
X2686249Y-2178501D01*
X2685646Y-2174696D01*
X2628050Y-2061658D01*
X2538342Y-1971950D01*
X2534909Y-1970201D01*
X2534908Y-1970200D01*
X2481823Y-1943152D01*
X2425304Y-1914354D01*
X2421499Y-1913751D01*
X2421498Y-1913751D01*
X2322418Y-1898059D01*
X2300000Y-1894508D01*
X2277582Y-1898059D01*
X2178502Y-1913751D01*
X2178501Y-1913751D01*
X2174696Y-1914354D01*
X2118177Y-1943152D01*
X2065092Y-1970200D01*
X2065091Y-1970201D01*
X2061658Y-1971950D01*
X1984648Y-2048960D01*
X1950000Y-2063312D01*
X1915352Y-2048960D01*
X1838342Y-1971950D01*
X1834909Y-1970201D01*
X1834908Y-1970200D01*
X1781823Y-1943152D01*
X1725304Y-1914354D01*
X1721499Y-1913751D01*
X1721498Y-1913751D01*
X1622418Y-1898059D01*
X1600000Y-1894508D01*
X1577582Y-1898059D01*
X1478502Y-1913751D01*
X1478501Y-1913751D01*
X1474696Y-1914354D01*
X1418177Y-1943152D01*
X1365092Y-1970200D01*
X1365091Y-1970201D01*
X1361658Y-1971950D01*
X1271950Y-2061658D01*
X1214354Y-2174696D01*
X1213751Y-2178501D01*
X1213751Y-2178502D01*
X1203842Y-2241068D01*
X1194508Y-2300000D01*
X1195111Y-2303807D01*
X1209669Y-2395721D01*
X1214354Y-2425304D01*
X1216104Y-2428738D01*
X1267492Y-2529592D01*
X1271950Y-2538342D01*
X1361658Y-2628050D01*
X1365091Y-2629799D01*
X1365092Y-2629800D01*
X1376668Y-2635698D01*
X1474696Y-2685646D01*
X1478501Y-2686249D01*
X1478502Y-2686249D01*
X1596193Y-2704889D01*
X1600000Y-2705492D01*
X1603807Y-2704889D01*
X1721498Y-2686249D01*
X1721499Y-2686249D01*
X1725304Y-2685646D01*
X1823332Y-2635698D01*
X1834908Y-2629800D01*
X1834909Y-2629799D01*
X1838342Y-2628050D01*
X1915352Y-2551040D01*
X1950000Y-2536688D01*
X1984648Y-2551040D01*
X2048960Y-2615352D01*
X2063312Y-2650000D01*
X2048960Y-2684648D01*
X1971950Y-2761658D01*
X1970201Y-2765091D01*
X1970200Y-2765092D01*
X1954799Y-2795318D01*
X1914354Y-2874696D01*
X1913751Y-2878501D01*
X1913751Y-2878502D01*
X1901090Y-2958442D01*
X1887341Y-2985425D01*
X1095935Y-3776831D01*
X1090722Y-3781332D01*
X1086760Y-3783268D01*
X1083683Y-3786585D01*
X1052279Y-3820439D01*
X1051003Y-3821763D01*
X1036515Y-3836251D01*
X1035236Y-3838115D01*
X1034359Y-3839171D01*
X1030960Y-3843422D01*
X1010223Y-3865776D01*
X1008546Y-3869978D01*
X1008546Y-3869979D01*
X1003851Y-3881748D01*
X998745Y-3891310D01*
X989020Y-3905487D01*
X987976Y-3909887D01*
X987975Y-3909889D01*
X981982Y-3935143D01*
X979818Y-3941986D01*
X969800Y-3967095D01*
X969799Y-3967099D01*
X968520Y-3970305D01*
X967900Y-3976628D01*
X967900Y-3988748D01*
X966576Y-4000062D01*
X963034Y-4014987D01*
X963645Y-4019474D01*
X967452Y-4047450D01*
X967900Y-4054058D01*
X967900Y-7705940D01*
X953548Y-7740588D01*
X935860Y-7751911D01*
X801057Y-7801642D01*
X801054Y-7801643D01*
X798949Y-7802420D01*
X797021Y-7803567D01*
X797019Y-7803568D01*
X785312Y-7810533D01*
X626864Y-7904799D01*
X625176Y-7906279D01*
X625175Y-7906280D01*
X580167Y-7945751D01*
X476319Y-8036824D01*
X474934Y-8038580D01*
X474930Y-8038585D01*
X353744Y-8192309D01*
X353741Y-8192313D01*
X352354Y-8194073D01*
X259121Y-8371280D01*
X199742Y-8562510D01*
X199478Y-8564742D01*
X199477Y-8564746D01*
X196417Y-8590604D01*
X176207Y-8761358D01*
X-178463Y-8761358D01*
X-193948Y-8592841D01*
X-193949Y-8592836D01*
X-194154Y-8590604D01*
X-229492Y-8465305D01*
X-247894Y-8400054D01*
X-247895Y-8400051D01*
X-248506Y-8397885D01*
X-337068Y-8218299D01*
X-456875Y-8057859D01*
X-513525Y-8005492D01*
X-602262Y-7923464D01*
X-602263Y-7923463D01*
X-603913Y-7921938D01*
X-631076Y-7904799D01*
X-684128Y-7871326D01*
X-773258Y-7815089D01*
X-800998Y-7804022D01*
X-957155Y-7741721D01*
X-957159Y-7741720D01*
X-959239Y-7740890D01*
X-961440Y-7740452D01*
X-961444Y-7740451D01*
X-1093424Y-7714199D01*
X-1155628Y-7701826D01*
X-1251028Y-7700577D01*
X-1353599Y-7699234D01*
X-1353604Y-7699234D01*
X-1355847Y-7699205D01*
X-1358064Y-7699586D01*
X-1358065Y-7699586D01*
X-1419089Y-7710072D01*
X-1553192Y-7733115D01*
X-1555296Y-7733891D01*
X-1555299Y-7733892D01*
X-1738943Y-7801642D01*
X-1738946Y-7801643D01*
X-1741051Y-7802420D01*
X-1742979Y-7803567D01*
X-1742981Y-7803568D01*
X-1754688Y-7810533D01*
X-1913136Y-7904799D01*
X-1914824Y-7906279D01*
X-1914825Y-7906280D01*
X-1959833Y-7945751D01*
X-2063681Y-8036824D01*
X-2065066Y-8038580D01*
X-2065070Y-8038585D01*
X-2186256Y-8192309D01*
X-2186259Y-8192313D01*
X-2187646Y-8194073D01*
X-2280879Y-8371280D01*
X-2340258Y-8562510D01*
X-2340522Y-8564742D01*
X-2340523Y-8564746D01*
X-2343583Y-8590604D01*
X-2363793Y-8761358D01*
X-2718967Y-8761358D01*
X-2734443Y-8592940D01*
X-2735261Y-8588526D01*
X-2788367Y-8400227D01*
X-2789968Y-8396054D01*
X-2876503Y-8220578D01*
X-2878844Y-8216759D01*
X-2965563Y-8100628D01*
X-2971976Y-8096813D01*
X-2976554Y-8097975D01*
X-3661686Y-8783107D01*
X-3664541Y-8790000D01*
X-3955459Y-8790000D01*
X-3958314Y-8783107D01*
X-4640917Y-8100504D01*
X-4647810Y-8097649D01*
X-4652536Y-8099606D01*
X-4725833Y-8192581D01*
X-4728272Y-8196338D01*
X-4819366Y-8369479D01*
X-4821082Y-8373621D01*
X-4879099Y-8560466D01*
X-4880031Y-8564850D01*
X-4903026Y-8759139D01*
X-4903143Y-8763613D01*
X-30752837Y-8763613D01*
X-30785148Y-8731302D01*
X-30799500Y-8696654D01*
X-30799500Y-7951594D01*
X-4501954Y-7951594D01*
X-4498918Y-7959661D01*
X-3816893Y-8641686D01*
X-3810000Y-8644541D01*
X-3803107Y-8641686D01*
X-3119694Y-7958273D01*
X-3117055Y-7951903D01*
X-3120326Y-7944424D01*
X-3142574Y-7923857D01*
X-3146116Y-7921140D01*
X-3311585Y-7816737D01*
X-3315574Y-7814704D01*
X-3497298Y-7742203D01*
X-3501586Y-7740934D01*
X-3693475Y-7702765D01*
X-3697926Y-7702297D01*
X-3893560Y-7699735D01*
X-3898026Y-7700087D01*
X-4090848Y-7733221D01*
X-4095168Y-7734378D01*
X-4278727Y-7802096D01*
X-4282765Y-7804022D01*
X-4450910Y-7904057D01*
X-4454529Y-7906687D01*
X-4499073Y-7945751D01*
X-4501954Y-7951594D01*
X-30799500Y-7951594D01*
X-30799500Y-7600000D01*
X-405492Y-7600000D01*
X-385646Y-7725304D01*
X-357977Y-7779607D01*
X-339058Y-7816737D01*
X-328050Y-7838342D01*
X-238342Y-7928050D01*
X-234909Y-7929799D01*
X-234908Y-7929800D01*
X-203602Y-7945751D01*
X-125304Y-7985646D01*
X-121499Y-7986249D01*
X-121498Y-7986249D01*
X-3807Y-8004889D01*
X0Y-8005492D01*
X3807Y-8004889D01*
X121498Y-7986249D01*
X121499Y-7986249D01*
X125304Y-7985646D01*
X203602Y-7945751D01*
X234908Y-7929800D01*
X234909Y-7929799D01*
X238342Y-7928050D01*
X328050Y-7838342D01*
X339059Y-7816737D01*
X357977Y-7779607D01*
X385646Y-7725304D01*
X405492Y-7600000D01*
X391367Y-7510818D01*
X386249Y-7478502D01*
X386249Y-7478501D01*
X385646Y-7474696D01*
X328050Y-7361658D01*
X238342Y-7271950D01*
X234909Y-7270201D01*
X234908Y-7270200D01*
X165643Y-7234908D01*
X125304Y-7214354D01*
X121499Y-7213751D01*
X121498Y-7213751D01*
X3807Y-7195111D01*
X0Y-7194508D01*
X-3807Y-7195111D01*
X-121498Y-7213751D01*
X-121499Y-7213751D01*
X-125304Y-7214354D01*
X-165643Y-7234908D01*
X-234908Y-7270200D01*
X-234909Y-7270201D01*
X-238342Y-7271950D01*
X-328050Y-7361658D01*
X-385646Y-7474696D01*
X-386249Y-7478501D01*
X-386249Y-7478502D01*
X-391367Y-7510818D01*
X-405492Y-7600000D01*
X-30799500Y-7600000D01*
X-30799500Y-5700000D01*
X-21805492Y-5700000D01*
X-21785646Y-5825304D01*
X-21728050Y-5938342D01*
X-21638342Y-6028050D01*
X-21634909Y-6029799D01*
X-21634908Y-6029800D01*
X-21581823Y-6056848D01*
X-21525304Y-6085646D01*
X-21521499Y-6086249D01*
X-21521498Y-6086249D01*
X-21403807Y-6104889D01*
X-21400000Y-6105492D01*
X-21396193Y-6104889D01*
X-21278502Y-6086249D01*
X-21278501Y-6086249D01*
X-21274696Y-6085646D01*
X-21218177Y-6056848D01*
X-21165092Y-6029800D01*
X-21165091Y-6029799D01*
X-21161658Y-6028050D01*
X-21071950Y-5938342D01*
X-21014354Y-5825304D01*
X-20994508Y-5700000D01*
X-21012049Y-5589249D01*
X-21013751Y-5578502D01*
X-21013751Y-5578501D01*
X-21014354Y-5574696D01*
X-21071950Y-5461658D01*
X-21161658Y-5371950D01*
X-21165091Y-5370201D01*
X-21165092Y-5370200D01*
X-21244382Y-5329800D01*
X-21274696Y-5314354D01*
X-21278501Y-5313751D01*
X-21278502Y-5313751D01*
X-21396193Y-5295111D01*
X-21400000Y-5294508D01*
X-21403807Y-5295111D01*
X-21521498Y-5313751D01*
X-21521499Y-5313751D01*
X-21525304Y-5314354D01*
X-21555618Y-5329800D01*
X-21634908Y-5370200D01*
X-21634909Y-5370201D01*
X-21638342Y-5371950D01*
X-21728050Y-5461658D01*
X-21785646Y-5574696D01*
X-21786249Y-5578501D01*
X-21786249Y-5578502D01*
X-21787951Y-5589249D01*
X-21805492Y-5700000D01*
X-30799500Y-5700000D01*
X-30799500Y-4975000D01*
X-7280492Y-4975000D01*
X-7279889Y-4978807D01*
X-7263893Y-5079800D01*
X-7260646Y-5100304D01*
X-7238913Y-5142958D01*
X-7207479Y-5204649D01*
X-7203050Y-5213342D01*
X-7113342Y-5303050D01*
X-7109909Y-5304799D01*
X-7109908Y-5304800D01*
X-7069627Y-5325324D01*
X-7000304Y-5360646D01*
X-6996499Y-5361249D01*
X-6996498Y-5361249D01*
X-6878807Y-5379889D01*
X-6875000Y-5380492D01*
X-6871193Y-5379889D01*
X-6753502Y-5361249D01*
X-6753501Y-5361249D01*
X-6749696Y-5360646D01*
X-6680373Y-5325324D01*
X-6640092Y-5304800D01*
X-6640091Y-5304799D01*
X-6636658Y-5303050D01*
X-6546950Y-5213342D01*
X-6542520Y-5204649D01*
X-6511087Y-5142958D01*
X-6489354Y-5100304D01*
X-6486106Y-5079800D01*
X-6470111Y-4978807D01*
X-6469508Y-4975000D01*
X-6482161Y-4895111D01*
X-6488751Y-4853502D01*
X-6488751Y-4853501D01*
X-6489354Y-4849696D01*
X-6534212Y-4761658D01*
X-6545200Y-4740092D01*
X-6545201Y-4740091D01*
X-6546950Y-4736658D01*
X-6636658Y-4646950D01*
X-6640091Y-4645201D01*
X-6640092Y-4645200D01*
X-6719833Y-4604570D01*
X-6749696Y-4589354D01*
X-6753501Y-4588751D01*
X-6753502Y-4588751D01*
X-6871193Y-4570111D01*
X-6875000Y-4569508D01*
X-6878807Y-4570111D01*
X-6996498Y-4588751D01*
X-6996499Y-4588751D01*
X-7000304Y-4589354D01*
X-7030167Y-4604570D01*
X-7109908Y-4645200D01*
X-7109909Y-4645201D01*
X-7113342Y-4646950D01*
X-7203050Y-4736658D01*
X-7204799Y-4740091D01*
X-7204800Y-4740092D01*
X-7215788Y-4761658D01*
X-7260646Y-4849696D01*
X-7261249Y-4853501D01*
X-7261249Y-4853502D01*
X-7267839Y-4895111D01*
X-7280492Y-4975000D01*
X-30799500Y-4975000D01*
X-30799500Y-3100000D01*
X-21805492Y-3100000D01*
X-21804889Y-3103807D01*
X-21786352Y-3220844D01*
X-21785646Y-3225304D01*
X-21779003Y-3238342D01*
X-21732402Y-3329800D01*
X-21728050Y-3338342D01*
X-21638342Y-3428050D01*
X-21634909Y-3429799D01*
X-21634908Y-3429800D01*
X-21581823Y-3456848D01*
X-21525304Y-3485646D01*
X-21521499Y-3486249D01*
X-21521498Y-3486249D01*
X-21403807Y-3504889D01*
X-21400000Y-3505492D01*
X-21396193Y-3504889D01*
X-21278502Y-3486249D01*
X-21278501Y-3486249D01*
X-21274696Y-3485646D01*
X-21218177Y-3456848D01*
X-21165092Y-3429800D01*
X-21165091Y-3429799D01*
X-21161658Y-3428050D01*
X-21071950Y-3338342D01*
X-21067597Y-3329800D01*
X-21020997Y-3238342D01*
X-21014354Y-3225304D01*
X-21013647Y-3220844D01*
X-20995111Y-3103807D01*
X-20994508Y-3100000D01*
X-21003842Y-3041068D01*
X-21013751Y-2978502D01*
X-21013751Y-2978501D01*
X-21014354Y-2974696D01*
X-21052414Y-2900000D01*
X-13505492Y-2900000D01*
X-13504889Y-2903807D01*
X-13493661Y-2974696D01*
X-13485646Y-3025304D01*
X-13483896Y-3028738D01*
X-13432402Y-3129800D01*
X-13428050Y-3138342D01*
X-13338342Y-3228050D01*
X-13334909Y-3229799D01*
X-13334908Y-3229800D01*
X-13321389Y-3236688D01*
X-13225304Y-3285646D01*
X-13221499Y-3286249D01*
X-13221498Y-3286249D01*
X-13103807Y-3304889D01*
X-13100000Y-3305492D01*
X-13096193Y-3304889D01*
X-12978502Y-3286249D01*
X-12978501Y-3286249D01*
X-12974696Y-3285646D01*
X-12878611Y-3236688D01*
X-12865092Y-3229800D01*
X-12865091Y-3229799D01*
X-12861658Y-3228050D01*
X-12771950Y-3138342D01*
X-12767597Y-3129800D01*
X-12716104Y-3028738D01*
X-12714354Y-3025304D01*
X-12706338Y-2974696D01*
X-12695111Y-2903807D01*
X-12694508Y-2900000D01*
X-12709743Y-2803807D01*
X-12713751Y-2778502D01*
X-12713751Y-2778501D01*
X-12714354Y-2774696D01*
X-12760619Y-2683896D01*
X-12770200Y-2665092D01*
X-12770201Y-2665091D01*
X-12771950Y-2661658D01*
X-12861658Y-2571950D01*
X-12865091Y-2570201D01*
X-12865092Y-2570200D01*
X-12949618Y-2527132D01*
X-12974696Y-2514354D01*
X-12978501Y-2513751D01*
X-12978502Y-2513751D01*
X-13075446Y-2498397D01*
X-13099681Y-2483546D01*
X-13103417Y-2489642D01*
X-13124554Y-2498397D01*
X-13221498Y-2513751D01*
X-13221499Y-2513751D01*
X-13225304Y-2514354D01*
X-13250382Y-2527132D01*
X-13334908Y-2570200D01*
X-13334909Y-2570201D01*
X-13338342Y-2571950D01*
X-13428050Y-2661658D01*
X-13429799Y-2665091D01*
X-13429800Y-2665092D01*
X-13439381Y-2683896D01*
X-13485646Y-2774696D01*
X-13486249Y-2778501D01*
X-13486249Y-2778502D01*
X-13490257Y-2803807D01*
X-13505492Y-2900000D01*
X-21052414Y-2900000D01*
X-21060619Y-2883896D01*
X-21070200Y-2865092D01*
X-21070201Y-2865091D01*
X-21071950Y-2861658D01*
X-21161658Y-2771950D01*
X-21165091Y-2770201D01*
X-21165092Y-2770200D01*
X-21268257Y-2717635D01*
X-21274696Y-2714354D01*
X-21278501Y-2713751D01*
X-21278502Y-2713751D01*
X-21396193Y-2695111D01*
X-21400000Y-2694508D01*
X-21403807Y-2695111D01*
X-21521498Y-2713751D01*
X-21521499Y-2713751D01*
X-21525304Y-2714354D01*
X-21531743Y-2717635D01*
X-21634908Y-2770200D01*
X-21634909Y-2770201D01*
X-21638342Y-2771950D01*
X-21728050Y-2861658D01*
X-21729799Y-2865091D01*
X-21729800Y-2865092D01*
X-21739381Y-2883896D01*
X-21785646Y-2974696D01*
X-21786249Y-2978501D01*
X-21786249Y-2978502D01*
X-21796158Y-3041068D01*
X-21805492Y-3100000D01*
X-30799500Y-3100000D01*
X-30799500Y-2000000D01*
X-13505492Y-2000000D01*
X-13504889Y-2003807D01*
X-13488903Y-2104737D01*
X-13485646Y-2125304D01*
X-13428050Y-2238342D01*
X-13338342Y-2328050D01*
X-13334909Y-2329799D01*
X-13334908Y-2329800D01*
X-13326494Y-2334087D01*
X-13225304Y-2385646D01*
X-13221499Y-2386249D01*
X-13221498Y-2386249D01*
X-13124554Y-2401603D01*
X-13100319Y-2416454D01*
X-13096583Y-2410358D01*
X-13075446Y-2401603D01*
X-12978502Y-2386249D01*
X-12978501Y-2386249D01*
X-12974696Y-2385646D01*
X-12873506Y-2334087D01*
X-12865092Y-2329800D01*
X-12865091Y-2329799D01*
X-12861658Y-2328050D01*
X-12771950Y-2238342D01*
X-12714354Y-2125304D01*
X-12711096Y-2104737D01*
X-12695111Y-2003807D01*
X-12694508Y-2000000D01*
X-12711004Y-1895848D01*
X-12713751Y-1878502D01*
X-12713751Y-1878501D01*
X-12714354Y-1874696D01*
X-12760412Y-1784302D01*
X-12770200Y-1765092D01*
X-12770201Y-1765091D01*
X-12771950Y-1761658D01*
X-12861658Y-1671950D01*
X-12865091Y-1670201D01*
X-12865092Y-1670200D01*
X-12944382Y-1629800D01*
X-12974696Y-1614354D01*
X-12978501Y-1613751D01*
X-12978502Y-1613751D01*
X-13096193Y-1595111D01*
X-13100000Y-1594508D01*
X-13103807Y-1595111D01*
X-13221498Y-1613751D01*
X-13221499Y-1613751D01*
X-13225304Y-1614354D01*
X-13255618Y-1629800D01*
X-13334908Y-1670200D01*
X-13334909Y-1670201D01*
X-13338342Y-1671950D01*
X-13428050Y-1761658D01*
X-13429799Y-1765091D01*
X-13429800Y-1765092D01*
X-13439588Y-1784302D01*
X-13485646Y-1874696D01*
X-13486249Y-1878501D01*
X-13486249Y-1878502D01*
X-13488996Y-1895848D01*
X-13505492Y-2000000D01*
X-30799500Y-2000000D01*
X-30799500Y-769748D01*
X-11625500Y-769748D01*
X-11613867Y-828231D01*
X-11569552Y-894552D01*
X-11503231Y-938867D01*
X-11444748Y-950500D01*
X-9705252Y-950500D01*
X-9646769Y-938867D01*
X-9580448Y-894552D01*
X-9536133Y-828231D01*
X-9524500Y-769748D01*
X-9524500Y114738D01*
X-9090480Y114738D01*
X-9090280Y112356D01*
X-9090280Y112352D01*
X-9086654Y69172D01*
X-9073241Y-90553D01*
X-9016456Y-288586D01*
X-9015362Y-290715D01*
X-9015361Y-290717D01*
X-9009543Y-302037D01*
X-8922288Y-471818D01*
X-8920802Y-473693D01*
X-8920800Y-473696D01*
X-8844312Y-570200D01*
X-8794323Y-633270D01*
X-8792497Y-634824D01*
X-8792496Y-634825D01*
X-8699049Y-714354D01*
X-8637436Y-766791D01*
X-8457602Y-867297D01*
X-8447233Y-870666D01*
X-8263953Y-930218D01*
X-8263949Y-930219D01*
X-8261671Y-930959D01*
X-8057106Y-955351D01*
X-7851700Y-939546D01*
X-7710061Y-900000D01*
X6894508Y-900000D01*
X6895111Y-903807D01*
X6908034Y-985398D01*
X6914354Y-1025304D01*
X6934627Y-1065092D01*
X6969585Y-1133700D01*
X6971950Y-1138342D01*
X7061658Y-1228050D01*
X7065091Y-1229799D01*
X7065092Y-1229800D01*
X7115706Y-1255589D01*
X7174696Y-1285646D01*
X7178501Y-1286249D01*
X7178502Y-1286249D01*
X7296193Y-1304889D01*
X7300000Y-1305492D01*
X7303807Y-1304889D01*
X7421498Y-1286249D01*
X7421499Y-1286249D01*
X7425304Y-1285646D01*
X7484294Y-1255589D01*
X7534908Y-1229800D01*
X7534909Y-1229799D01*
X7538342Y-1228050D01*
X7628050Y-1138342D01*
X7630416Y-1133700D01*
X7656341Y-1082818D01*
X7684858Y-1058462D01*
X7722246Y-1061405D01*
X7743659Y-1082818D01*
X7769585Y-1133700D01*
X7771950Y-1138342D01*
X7861658Y-1228050D01*
X7865091Y-1229799D01*
X7865092Y-1229800D01*
X7915706Y-1255589D01*
X7974696Y-1285646D01*
X7978501Y-1286249D01*
X7978502Y-1286249D01*
X8096193Y-1304889D01*
X8100000Y-1305492D01*
X8103807Y-1304889D01*
X8221498Y-1286249D01*
X8221499Y-1286249D01*
X8225304Y-1285646D01*
X8284294Y-1255589D01*
X8334908Y-1229800D01*
X8334909Y-1229799D01*
X8338342Y-1228050D01*
X8422663Y-1143729D01*
X8457311Y-1129377D01*
X8491959Y-1143729D01*
X8505707Y-1170711D01*
X8514354Y-1225304D01*
X8516104Y-1228738D01*
X8556663Y-1308339D01*
X8571950Y-1338342D01*
X8661658Y-1428050D01*
X8665091Y-1429799D01*
X8665092Y-1429800D01*
X8666466Y-1430500D01*
X8774696Y-1485646D01*
X8778501Y-1486249D01*
X8778502Y-1486249D01*
X8896193Y-1504889D01*
X8900000Y-1505492D01*
X8903807Y-1504889D01*
X9021498Y-1486249D01*
X9021499Y-1486249D01*
X9025304Y-1485646D01*
X9133534Y-1430500D01*
X9134908Y-1429800D01*
X9134909Y-1429799D01*
X9138342Y-1428050D01*
X9228050Y-1338342D01*
X9243338Y-1308339D01*
X9283896Y-1228738D01*
X9285646Y-1225304D01*
X9293662Y-1174696D01*
X9304889Y-1103807D01*
X9305492Y-1100000D01*
X11394508Y-1100000D01*
X11395111Y-1103807D01*
X11406339Y-1174696D01*
X11414354Y-1225304D01*
X11416104Y-1228738D01*
X11456663Y-1308339D01*
X11471950Y-1338342D01*
X11561658Y-1428050D01*
X11565091Y-1429799D01*
X11565092Y-1429800D01*
X11566466Y-1430500D01*
X11674696Y-1485646D01*
X11678501Y-1486249D01*
X11678502Y-1486249D01*
X11796193Y-1504889D01*
X11800000Y-1505492D01*
X11803807Y-1504889D01*
X11921498Y-1486249D01*
X11921499Y-1486249D01*
X11925304Y-1485646D01*
X12033534Y-1430500D01*
X12034908Y-1429800D01*
X12034909Y-1429799D01*
X12038342Y-1428050D01*
X12128050Y-1338342D01*
X12143338Y-1308339D01*
X12183896Y-1228738D01*
X12185646Y-1225304D01*
X12193662Y-1174696D01*
X12204889Y-1103807D01*
X12205492Y-1100000D01*
X12198913Y-1058462D01*
X12186249Y-978502D01*
X12186249Y-978501D01*
X12185646Y-974696D01*
X12154034Y-912655D01*
X12129800Y-865092D01*
X12129799Y-865091D01*
X12128050Y-861658D01*
X12038342Y-771950D01*
X12034909Y-770201D01*
X12034908Y-770200D01*
X11930854Y-717182D01*
X11925304Y-714354D01*
X11921499Y-713751D01*
X11921498Y-713751D01*
X11803807Y-695111D01*
X11800000Y-694508D01*
X11796193Y-695111D01*
X11678502Y-713751D01*
X11678501Y-713751D01*
X11674696Y-714354D01*
X11669146Y-717182D01*
X11565092Y-770200D01*
X11565091Y-770201D01*
X11561658Y-771950D01*
X11471950Y-861658D01*
X11470201Y-865091D01*
X11470200Y-865092D01*
X11445966Y-912655D01*
X11414354Y-974696D01*
X11413751Y-978501D01*
X11413751Y-978502D01*
X11401087Y-1058462D01*
X11394508Y-1100000D01*
X9305492Y-1100000D01*
X9298913Y-1058462D01*
X9286249Y-978502D01*
X9286249Y-978501D01*
X9285646Y-974696D01*
X9254034Y-912655D01*
X9229800Y-865092D01*
X9229799Y-865091D01*
X9228050Y-861658D01*
X9138342Y-771950D01*
X9134909Y-770201D01*
X9134908Y-770200D01*
X9030854Y-717182D01*
X9025304Y-714354D01*
X9021499Y-713751D01*
X9021498Y-713751D01*
X8903807Y-695111D01*
X8900000Y-694508D01*
X8896193Y-695111D01*
X8778502Y-713751D01*
X8778501Y-713751D01*
X8774696Y-714354D01*
X8769146Y-717182D01*
X8665092Y-770200D01*
X8665091Y-770201D01*
X8661658Y-771950D01*
X8577337Y-856271D01*
X8542689Y-870623D01*
X8508041Y-856271D01*
X8494292Y-829288D01*
X8493375Y-823494D01*
X8485646Y-774696D01*
X8444788Y-694508D01*
X8429800Y-665092D01*
X8429799Y-665091D01*
X8428050Y-661658D01*
X8338342Y-571950D01*
X8334909Y-570201D01*
X8334908Y-570200D01*
X8281823Y-543152D01*
X8225304Y-514354D01*
X8221499Y-513751D01*
X8221498Y-513751D01*
X8103807Y-495111D01*
X8100000Y-494508D01*
X8096193Y-495111D01*
X7978502Y-513751D01*
X7978501Y-513751D01*
X7974696Y-514354D01*
X7918177Y-543152D01*
X7865092Y-570200D01*
X7865091Y-570201D01*
X7861658Y-571950D01*
X7771950Y-661658D01*
X7770201Y-665091D01*
X7770200Y-665092D01*
X7743659Y-717182D01*
X7715142Y-741538D01*
X7677754Y-738595D01*
X7656341Y-717182D01*
X7629800Y-665092D01*
X7629799Y-665091D01*
X7628050Y-661658D01*
X7538342Y-571950D01*
X7534909Y-570201D01*
X7534908Y-570200D01*
X7481823Y-543152D01*
X7425304Y-514354D01*
X7421499Y-513751D01*
X7421498Y-513751D01*
X7303807Y-495111D01*
X7300000Y-494508D01*
X7296193Y-495111D01*
X7178502Y-513751D01*
X7178501Y-513751D01*
X7174696Y-514354D01*
X7118177Y-543152D01*
X7065092Y-570200D01*
X7065091Y-570201D01*
X7061658Y-571950D01*
X6971950Y-661658D01*
X6970201Y-665091D01*
X6970200Y-665092D01*
X6955212Y-694508D01*
X6914354Y-774696D01*
X6913751Y-778501D01*
X6913751Y-778502D01*
X6905239Y-832245D01*
X6894508Y-900000D01*
X-7710061Y-900000D01*
X-7653275Y-884145D01*
X-7651146Y-883070D01*
X-7651142Y-883068D01*
X-7564272Y-839186D01*
X-7469390Y-791258D01*
X-7388219Y-727841D01*
X-7308938Y-665900D01*
X-7308937Y-665899D01*
X-7307049Y-664424D01*
X-7304661Y-661658D01*
X-7174007Y-510293D01*
X-7174003Y-510288D01*
X-7172436Y-508472D01*
X-7070677Y-329344D01*
X-7057118Y-288586D01*
X-7017540Y-169608D01*
X-7005649Y-133863D01*
X-7005001Y-128738D01*
X-6980000Y69172D01*
X-6980000Y69173D01*
X-6979829Y70526D01*
X-6979417Y100000D01*
X-6999027Y300000D01*
X4194508Y300000D01*
X4195111Y296193D01*
X4207540Y217721D01*
X4214354Y174696D01*
X4216104Y171262D01*
X4267432Y70526D01*
X4271950Y61658D01*
X4361658Y-28050D01*
X4365091Y-29799D01*
X4365092Y-29800D01*
X4418177Y-56848D01*
X4474696Y-85646D01*
X4478501Y-86249D01*
X4478502Y-86249D01*
X4596193Y-104889D01*
X4600000Y-105492D01*
X4603807Y-104889D01*
X4721498Y-86249D01*
X4721499Y-86249D01*
X4725304Y-85646D01*
X4781823Y-56848D01*
X4834908Y-29800D01*
X4834909Y-29799D01*
X4838342Y-28050D01*
X4928050Y61658D01*
X4932569Y70526D01*
X4983896Y171262D01*
X4985646Y174696D01*
X4992461Y217721D01*
X5002213Y279297D01*
X5021808Y311274D01*
X5058275Y320029D01*
X5067507Y317030D01*
X5067593Y317296D01*
X5071262Y316104D01*
X5074696Y314354D01*
X5078501Y313751D01*
X5078502Y313751D01*
X5196193Y295111D01*
X5200000Y294508D01*
X5203807Y295111D01*
X5321498Y313751D01*
X5321499Y313751D01*
X5325304Y314354D01*
X5401133Y352991D01*
X5434908Y370200D01*
X5434909Y370201D01*
X5438342Y371950D01*
X5528050Y461658D01*
X5532403Y470200D01*
X5557480Y519417D01*
X5585646Y574696D01*
X5587756Y588014D01*
X5604889Y696193D01*
X5605492Y700000D01*
X5598616Y743415D01*
X5589654Y800000D01*
X7294508Y800000D01*
X7295111Y796193D01*
X7313519Y679971D01*
X7314354Y674696D01*
X7337230Y629800D01*
X7363368Y578502D01*
X7371950Y561658D01*
X7461658Y471950D01*
X7465091Y470201D01*
X7465092Y470200D01*
X7481857Y461658D01*
X7574696Y414354D01*
X7578501Y413751D01*
X7578502Y413751D01*
X7696193Y395111D01*
X7700000Y394508D01*
X7703807Y395111D01*
X7821498Y413751D01*
X7821499Y413751D01*
X7825304Y414354D01*
X7918143Y461658D01*
X7934908Y470200D01*
X7934909Y470201D01*
X7938342Y471950D01*
X8028050Y561658D01*
X8036633Y578502D01*
X8056341Y617182D01*
X8084858Y641538D01*
X8122246Y638595D01*
X8143659Y617182D01*
X8163368Y578502D01*
X8171950Y561658D01*
X8261658Y471950D01*
X8265091Y470201D01*
X8265092Y470200D01*
X8281857Y461658D01*
X8374696Y414354D01*
X8378501Y413751D01*
X8378502Y413751D01*
X8496193Y395111D01*
X8500000Y394508D01*
X8503807Y395111D01*
X8621498Y413751D01*
X8621499Y413751D01*
X8625304Y414354D01*
X8718143Y461658D01*
X8734908Y470200D01*
X8734909Y470201D01*
X8738342Y471950D01*
X8828050Y561658D01*
X8836633Y578502D01*
X8862770Y629800D01*
X8885646Y674696D01*
X8886482Y679971D01*
X8904889Y796193D01*
X8905492Y800000D01*
X8896910Y854185D01*
X8886249Y921498D01*
X8886249Y921499D01*
X8885646Y925304D01*
X8855545Y984381D01*
X8829800Y1034908D01*
X8829799Y1034909D01*
X8828050Y1038342D01*
X8738342Y1128050D01*
X8734909Y1129799D01*
X8734908Y1129800D01*
X8646794Y1174696D01*
X8625304Y1185646D01*
X8621499Y1186249D01*
X8621498Y1186249D01*
X8534676Y1200000D01*
X13794508Y1200000D01*
X13795111Y1196193D01*
X13813717Y1078720D01*
X13814354Y1074696D01*
X13832877Y1038342D01*
X13867598Y970200D01*
X13871950Y961658D01*
X13961658Y871950D01*
X13965091Y870201D01*
X13965092Y870200D01*
X14000125Y852350D01*
X14074696Y814354D01*
X14078501Y813751D01*
X14078502Y813751D01*
X14196193Y795111D01*
X14200000Y794508D01*
X14203807Y795111D01*
X14321498Y813751D01*
X14321499Y813751D01*
X14325304Y814354D01*
X14399875Y852350D01*
X14434908Y870200D01*
X14434909Y870201D01*
X14438342Y871950D01*
X14528050Y961658D01*
X14532403Y970200D01*
X14567123Y1038342D01*
X14585646Y1074696D01*
X14586284Y1078720D01*
X14604889Y1196193D01*
X14605492Y1200000D01*
X14585646Y1325304D01*
X14556848Y1381823D01*
X14529800Y1434908D01*
X14529799Y1434909D01*
X14528050Y1438342D01*
X14438342Y1528050D01*
X14434909Y1529799D01*
X14434908Y1529800D01*
X14346794Y1574696D01*
X14325304Y1585646D01*
X14321499Y1586249D01*
X14321498Y1586249D01*
X14203807Y1604889D01*
X14200000Y1605492D01*
X14196193Y1604889D01*
X14078502Y1586249D01*
X14078501Y1586249D01*
X14074696Y1585646D01*
X14053206Y1574696D01*
X13965092Y1529800D01*
X13965091Y1529799D01*
X13961658Y1528050D01*
X13871950Y1438342D01*
X13870201Y1434909D01*
X13870200Y1434908D01*
X13843152Y1381823D01*
X13814354Y1325304D01*
X13794508Y1200000D01*
X8534676Y1200000D01*
X8503807Y1204889D01*
X8500000Y1205492D01*
X8496193Y1204889D01*
X8378502Y1186249D01*
X8378501Y1186249D01*
X8374696Y1185646D01*
X8353206Y1174696D01*
X8265092Y1129800D01*
X8265091Y1129799D01*
X8261658Y1128050D01*
X8171950Y1038342D01*
X8170201Y1034909D01*
X8170200Y1034908D01*
X8143659Y982818D01*
X8115142Y958462D01*
X8077754Y961405D01*
X8056341Y982818D01*
X8029800Y1034908D01*
X8029799Y1034909D01*
X8028050Y1038342D01*
X7938342Y1128050D01*
X7934909Y1129799D01*
X7934908Y1129800D01*
X7846794Y1174696D01*
X7825304Y1185646D01*
X7821499Y1186249D01*
X7821498Y1186249D01*
X7703807Y1204889D01*
X7700000Y1205492D01*
X7696193Y1204889D01*
X7578502Y1186249D01*
X7578501Y1186249D01*
X7574696Y1185646D01*
X7553206Y1174696D01*
X7465092Y1129800D01*
X7465091Y1129799D01*
X7461658Y1128050D01*
X7371950Y1038342D01*
X7370201Y1034909D01*
X7370200Y1034908D01*
X7344455Y984381D01*
X7314354Y925304D01*
X7313751Y921499D01*
X7313751Y921498D01*
X7303090Y854185D01*
X7294508Y800000D01*
X5589654Y800000D01*
X5586249Y821498D01*
X5586249Y821499D01*
X5585646Y825304D01*
X5539381Y916104D01*
X5529800Y934908D01*
X5529799Y934909D01*
X5528050Y938342D01*
X5438342Y1028050D01*
X5434909Y1029799D01*
X5434908Y1029800D01*
X5341077Y1077609D01*
X5325304Y1085646D01*
X5321499Y1086249D01*
X5321498Y1086249D01*
X5203807Y1104889D01*
X5200000Y1105492D01*
X5196193Y1104889D01*
X5078502Y1086249D01*
X5078501Y1086249D01*
X5074696Y1085646D01*
X5058923Y1077609D01*
X4965092Y1029800D01*
X4965091Y1029799D01*
X4961658Y1028050D01*
X4871950Y938342D01*
X4870201Y934909D01*
X4870200Y934908D01*
X4860619Y916104D01*
X4814354Y825304D01*
X4813751Y821499D01*
X4813751Y821498D01*
X4797787Y720703D01*
X4778192Y688726D01*
X4741725Y679971D01*
X4732493Y682970D01*
X4732407Y682704D01*
X4728738Y683896D01*
X4725304Y685646D01*
X4721499Y686249D01*
X4721498Y686249D01*
X4603807Y704889D01*
X4600000Y705492D01*
X4596193Y704889D01*
X4478502Y686249D01*
X4478501Y686249D01*
X4474696Y685646D01*
X4453206Y674696D01*
X4365092Y629800D01*
X4365091Y629799D01*
X4361658Y628050D01*
X4271950Y538342D01*
X4270201Y534909D01*
X4270200Y534908D01*
X4260063Y515013D01*
X4214354Y425304D01*
X4213751Y421499D01*
X4213751Y421498D01*
X4208168Y386249D01*
X4194508Y300000D01*
X-6999027Y300000D01*
X-6999520Y305030D01*
X-7004048Y320029D01*
X-7058374Y499961D01*
X-7059065Y502251D01*
X-7087779Y556255D01*
X-7154658Y682038D01*
X-7154661Y682042D01*
X-7155782Y684151D01*
X-7285989Y843800D01*
X-7444725Y975118D01*
X-7625945Y1073103D01*
X-7822746Y1134023D01*
X-7825121Y1134273D01*
X-7825123Y1134273D01*
X-8025248Y1155307D01*
X-8025253Y1155307D01*
X-8027631Y1155557D01*
X-8030016Y1155340D01*
X-8030021Y1155340D01*
X-8130214Y1146222D01*
X-8232797Y1136886D01*
X-8341513Y1104889D01*
X-8428125Y1079398D01*
X-8428127Y1079397D01*
X-8430428Y1078720D01*
X-8432554Y1077609D01*
X-8432553Y1077609D01*
X-8532564Y1025324D01*
X-8612998Y983274D01*
X-8643273Y958932D01*
X-8771688Y855685D01*
X-8771691Y855682D01*
X-8773553Y854185D01*
X-8775092Y852351D01*
X-8775093Y852350D01*
X-8797787Y825304D01*
X-8905976Y696370D01*
X-8907131Y694269D01*
X-9003256Y519417D01*
X-9005224Y515838D01*
X-9005948Y513557D01*
X-9005948Y513556D01*
X-9015784Y482550D01*
X-9067516Y319468D01*
X-9090480Y114738D01*
X-9524500Y114738D01*
X-9524500Y969748D01*
X-9536133Y1028231D01*
X-9540594Y1034908D01*
X-9577768Y1090541D01*
X-9580448Y1094552D01*
X-9638461Y1133316D01*
X-9642755Y1136185D01*
X-9646769Y1138867D01*
X-9705252Y1150500D01*
X-11444748Y1150500D01*
X-11503231Y1138867D01*
X-11507245Y1136185D01*
X-11511539Y1133316D01*
X-11569552Y1094552D01*
X-11572232Y1090541D01*
X-11609405Y1034908D01*
X-11613867Y1028231D01*
X-11625500Y969748D01*
X-11625500Y-769748D01*
X-30799500Y-769748D01*
X-30799500Y800000D01*
X-21805492Y800000D01*
X-21804889Y796193D01*
X-21786481Y679971D01*
X-21785646Y674696D01*
X-21762770Y629800D01*
X-21736632Y578502D01*
X-21728050Y561658D01*
X-21638342Y471950D01*
X-21634909Y470201D01*
X-21634908Y470200D01*
X-21618143Y461658D01*
X-21525304Y414354D01*
X-21521499Y413751D01*
X-21521498Y413751D01*
X-21403807Y395111D01*
X-21400000Y394508D01*
X-21396193Y395111D01*
X-21278502Y413751D01*
X-21278501Y413751D01*
X-21274696Y414354D01*
X-21181857Y461658D01*
X-21165092Y470200D01*
X-21165091Y470201D01*
X-21161658Y471950D01*
X-21071950Y561658D01*
X-21063367Y578502D01*
X-21037230Y629800D01*
X-21014354Y674696D01*
X-21013518Y679971D01*
X-20995111Y796193D01*
X-20994508Y800000D01*
X-21003090Y854185D01*
X-21013751Y921498D01*
X-21013751Y921499D01*
X-21014354Y925304D01*
X-21044455Y984381D01*
X-21070200Y1034908D01*
X-21070201Y1034909D01*
X-21071950Y1038342D01*
X-21161658Y1128050D01*
X-21165091Y1129799D01*
X-21165092Y1129800D01*
X-21253206Y1174696D01*
X-21274696Y1185646D01*
X-21278501Y1186249D01*
X-21278502Y1186249D01*
X-21396193Y1204889D01*
X-21400000Y1205492D01*
X-21403807Y1204889D01*
X-21521498Y1186249D01*
X-21521499Y1186249D01*
X-21525304Y1185646D01*
X-21546794Y1174696D01*
X-21634908Y1129800D01*
X-21634909Y1129799D01*
X-21638342Y1128050D01*
X-21728050Y1038342D01*
X-21729799Y1034909D01*
X-21729800Y1034908D01*
X-21755545Y984381D01*
X-21785646Y925304D01*
X-21786249Y921499D01*
X-21786249Y921498D01*
X-21796910Y854185D01*
X-21805492Y800000D01*
X-30799500Y800000D01*
X-30799500Y1700000D01*
X4794508Y1700000D01*
X4814354Y1574696D01*
X4871950Y1461658D01*
X4961658Y1371950D01*
X4965091Y1370201D01*
X4965092Y1370200D01*
X5018177Y1343152D01*
X5074696Y1314354D01*
X5078501Y1313751D01*
X5078502Y1313751D01*
X5196193Y1295111D01*
X5200000Y1294508D01*
X5203807Y1295111D01*
X5234676Y1300000D01*
X6494508Y1300000D01*
X6514354Y1174696D01*
X6534951Y1134273D01*
X6563823Y1077609D01*
X6571950Y1061658D01*
X6661658Y971950D01*
X6665091Y970201D01*
X6665092Y970200D01*
X6718177Y943152D01*
X6774696Y914354D01*
X6778501Y913751D01*
X6778502Y913751D01*
X6896193Y895111D01*
X6900000Y894508D01*
X6903807Y895111D01*
X7021498Y913751D01*
X7021499Y913751D01*
X7025304Y914354D01*
X7081823Y943152D01*
X7134908Y970200D01*
X7134909Y970201D01*
X7138342Y971950D01*
X7228050Y1061658D01*
X7236178Y1077609D01*
X7265049Y1134273D01*
X7285646Y1174696D01*
X7305492Y1300000D01*
X7285646Y1425304D01*
X7233294Y1528050D01*
X7229800Y1534908D01*
X7229799Y1534909D01*
X7228050Y1538342D01*
X7138342Y1628050D01*
X7134909Y1629799D01*
X7134908Y1629800D01*
X7081823Y1656848D01*
X7025304Y1685646D01*
X7021499Y1686249D01*
X7021498Y1686249D01*
X6903807Y1704889D01*
X6900000Y1705492D01*
X6896193Y1704889D01*
X6778502Y1686249D01*
X6778501Y1686249D01*
X6774696Y1685646D01*
X6718177Y1656848D01*
X6665092Y1629800D01*
X6665091Y1629799D01*
X6661658Y1628050D01*
X6571950Y1538342D01*
X6570201Y1534909D01*
X6570200Y1534908D01*
X6566706Y1528050D01*
X6514354Y1425304D01*
X6494508Y1300000D01*
X5234676Y1300000D01*
X5321498Y1313751D01*
X5321499Y1313751D01*
X5325304Y1314354D01*
X5381823Y1343152D01*
X5434908Y1370200D01*
X5434909Y1370201D01*
X5438342Y1371950D01*
X5528050Y1461658D01*
X5585646Y1574696D01*
X5605492Y1700000D01*
X5585646Y1825304D01*
X5528050Y1938342D01*
X5438342Y2028050D01*
X5434909Y2029799D01*
X5434908Y2029800D01*
X5365643Y2065092D01*
X5325304Y2085646D01*
X5321499Y2086249D01*
X5321498Y2086249D01*
X5203807Y2104889D01*
X5200000Y2105492D01*
X5196193Y2104889D01*
X5078502Y2086249D01*
X5078501Y2086249D01*
X5074696Y2085646D01*
X5034357Y2065092D01*
X4965092Y2029800D01*
X4965091Y2029799D01*
X4961658Y2028050D01*
X4871950Y1938342D01*
X4814354Y1825304D01*
X4794508Y1700000D01*
X-30799500Y1700000D01*
X-30799500Y2300000D01*
X-5205492Y2300000D01*
X-5185646Y2174696D01*
X-5128050Y2061658D01*
X-5038342Y1971950D01*
X-5034909Y1970201D01*
X-5034908Y1970200D01*
X-4981823Y1943152D01*
X-4925304Y1914354D01*
X-4921499Y1913751D01*
X-4921498Y1913751D01*
X-4803807Y1895111D01*
X-4800000Y1894508D01*
X-4796193Y1895111D01*
X-4678502Y1913751D01*
X-4678501Y1913751D01*
X-4674696Y1914354D01*
X-4618177Y1943152D01*
X-4565092Y1970200D01*
X-4565091Y1970201D01*
X-4561658Y1971950D01*
X-4471950Y2061658D01*
X-4414354Y2174696D01*
X-4394508Y2300000D01*
X-4414354Y2425304D01*
X-4471950Y2538342D01*
X-4561658Y2628050D01*
X-4565091Y2629799D01*
X-4565092Y2629800D01*
X-4644382Y2670200D01*
X-4674696Y2685646D01*
X-4678501Y2686249D01*
X-4678502Y2686249D01*
X-4796193Y2704889D01*
X-4800000Y2705492D01*
X-4803807Y2704889D01*
X-4921498Y2686249D01*
X-4921499Y2686249D01*
X-4925304Y2685646D01*
X-4955618Y2670200D01*
X-5034908Y2629800D01*
X-5034909Y2629799D01*
X-5038342Y2628050D01*
X-5128050Y2538342D01*
X-5185646Y2425304D01*
X-5205492Y2300000D01*
X-30799500Y2300000D01*
X-30799500Y3100000D01*
X-20305492Y3100000D01*
X-20285646Y2974696D01*
X-20283896Y2971262D01*
X-20236632Y2878502D01*
X-20228050Y2861658D01*
X-20138342Y2771950D01*
X-20134909Y2770201D01*
X-20134908Y2770200D01*
X-20118143Y2761658D01*
X-20025304Y2714354D01*
X-20021499Y2713751D01*
X-20021498Y2713751D01*
X-19903807Y2695111D01*
X-19900000Y2694508D01*
X-19896193Y2695111D01*
X-19778502Y2713751D01*
X-19778501Y2713751D01*
X-19774696Y2714354D01*
X-19681857Y2761658D01*
X-19665092Y2770200D01*
X-19665091Y2770201D01*
X-19661658Y2771950D01*
X-19634648Y2798960D01*
X-19600000Y2813312D01*
X-19565352Y2798960D01*
X-19538342Y2771950D01*
X-19534909Y2770201D01*
X-19534908Y2770200D01*
X-19518143Y2761658D01*
X-19425304Y2714354D01*
X-19421499Y2713751D01*
X-19421498Y2713751D01*
X-19303807Y2695111D01*
X-19300000Y2694508D01*
X-19296193Y2695111D01*
X-19178502Y2713751D01*
X-19178501Y2713751D01*
X-19174696Y2714354D01*
X-19163615Y2720000D01*
X-18285492Y2720000D01*
X-18284889Y2716193D01*
X-18268759Y2614354D01*
X-18265646Y2594696D01*
X-18208050Y2481658D01*
X-18118342Y2391950D01*
X-18114909Y2390201D01*
X-18114908Y2390200D01*
X-18061823Y2363152D01*
X-18005304Y2334354D01*
X-18001499Y2333751D01*
X-18001498Y2333751D01*
X-17883807Y2315111D01*
X-17880000Y2314508D01*
X-17876193Y2315111D01*
X-17758502Y2333751D01*
X-17758501Y2333751D01*
X-17754696Y2334354D01*
X-17698177Y2363152D01*
X-17645092Y2390200D01*
X-17645091Y2390201D01*
X-17641658Y2391950D01*
X-17551950Y2481658D01*
X-17494354Y2594696D01*
X-17491240Y2614354D01*
X-17488794Y2629800D01*
X-17481829Y2673774D01*
X-17462235Y2705750D01*
X-17425768Y2714505D01*
X-17425451Y2714429D01*
X-17425304Y2714354D01*
X-17300000Y2694508D01*
X-17296193Y2695111D01*
X-17178502Y2713751D01*
X-17178501Y2713751D01*
X-17174696Y2714354D01*
X-17081857Y2761658D01*
X-17065092Y2770200D01*
X-17065091Y2770201D01*
X-17061658Y2771950D01*
X-16971950Y2861658D01*
X-16963367Y2878502D01*
X-16916104Y2971262D01*
X-16914354Y2974696D01*
X-16910346Y3000000D01*
X-13105492Y3000000D01*
X-13085646Y2874696D01*
X-13056848Y2818177D01*
X-13032402Y2770200D01*
X-13028050Y2761658D01*
X-12938342Y2671950D01*
X-12934909Y2670201D01*
X-12934908Y2670200D01*
X-12881823Y2643152D01*
X-12825304Y2614354D01*
X-12821499Y2613751D01*
X-12821498Y2613751D01*
X-12703807Y2595111D01*
X-12700000Y2594508D01*
X-12696193Y2595111D01*
X-12578502Y2613751D01*
X-12578501Y2613751D01*
X-12574696Y2614354D01*
X-12518177Y2643152D01*
X-12465092Y2670200D01*
X-12465091Y2670201D01*
X-12461658Y2671950D01*
X-12371950Y2761658D01*
X-12367597Y2770200D01*
X-12343152Y2818177D01*
X-12314354Y2874696D01*
X-12294508Y3000000D01*
X-9505492Y3000000D01*
X-9485646Y2874696D01*
X-9456848Y2818177D01*
X-9432402Y2770200D01*
X-9428050Y2761658D01*
X-9338342Y2671950D01*
X-9334909Y2670201D01*
X-9334908Y2670200D01*
X-9281823Y2643152D01*
X-9225304Y2614354D01*
X-9221499Y2613751D01*
X-9221498Y2613751D01*
X-9103807Y2595111D01*
X-9100000Y2594508D01*
X-9096193Y2595111D01*
X-8978502Y2613751D01*
X-8978501Y2613751D01*
X-8974696Y2614354D01*
X-8918177Y2643152D01*
X-8865092Y2670200D01*
X-8865091Y2670201D01*
X-8861658Y2671950D01*
X-8771950Y2761658D01*
X-8767597Y2770200D01*
X-8743152Y2818177D01*
X-8714354Y2874696D01*
X-8694508Y3000000D01*
X-8698059Y3022418D01*
X-8713751Y3121498D01*
X-8713751Y3121499D01*
X-8714354Y3125304D01*
X-8743152Y3181823D01*
X-8770200Y3234908D01*
X-8770201Y3234909D01*
X-8771950Y3238342D01*
X-8861658Y3328050D01*
X-8865091Y3329799D01*
X-8865092Y3329800D01*
X-8936908Y3366392D01*
X-8974696Y3385646D01*
X-8978501Y3386249D01*
X-8978502Y3386249D01*
X-9096193Y3404889D01*
X-9100000Y3405492D01*
X-9103807Y3404889D01*
X-9221498Y3386249D01*
X-9221499Y3386249D01*
X-9225304Y3385646D01*
X-9263092Y3366392D01*
X-9334908Y3329800D01*
X-9334909Y3329799D01*
X-9338342Y3328050D01*
X-9428050Y3238342D01*
X-9429799Y3234909D01*
X-9429800Y3234908D01*
X-9456848Y3181823D01*
X-9485646Y3125304D01*
X-9486249Y3121499D01*
X-9486249Y3121498D01*
X-9501941Y3022418D01*
X-9505492Y3000000D01*
X-12294508Y3000000D01*
X-12298059Y3022418D01*
X-12313751Y3121498D01*
X-12313751Y3121499D01*
X-12314354Y3125304D01*
X-12343152Y3181823D01*
X-12370200Y3234908D01*
X-12370201Y3234909D01*
X-12371950Y3238342D01*
X-12461658Y3328050D01*
X-12465091Y3329799D01*
X-12465092Y3329800D01*
X-12536908Y3366392D01*
X-12574696Y3385646D01*
X-12578501Y3386249D01*
X-12578502Y3386249D01*
X-12696193Y3404889D01*
X-12700000Y3405492D01*
X-12703807Y3404889D01*
X-12821498Y3386249D01*
X-12821499Y3386249D01*
X-12825304Y3385646D01*
X-12863092Y3366392D01*
X-12934908Y3329800D01*
X-12934909Y3329799D01*
X-12938342Y3328050D01*
X-13028050Y3238342D01*
X-13029799Y3234909D01*
X-13029800Y3234908D01*
X-13056848Y3181823D01*
X-13085646Y3125304D01*
X-13086249Y3121499D01*
X-13086249Y3121498D01*
X-13101941Y3022418D01*
X-13105492Y3000000D01*
X-16910346Y3000000D01*
X-16894508Y3100000D01*
X-16914354Y3225304D01*
X-16966706Y3328050D01*
X-16970200Y3334908D01*
X-16970201Y3334909D01*
X-16971950Y3338342D01*
X-17061658Y3428050D01*
X-17065091Y3429799D01*
X-17065092Y3429800D01*
X-17118177Y3456848D01*
X-17174696Y3485646D01*
X-17178501Y3486249D01*
X-17178502Y3486249D01*
X-17296193Y3504889D01*
X-17300000Y3505492D01*
X-17303807Y3504889D01*
X-17421498Y3486249D01*
X-17421499Y3486249D01*
X-17425304Y3485646D01*
X-17481823Y3456848D01*
X-17534908Y3429800D01*
X-17534909Y3429799D01*
X-17538342Y3428050D01*
X-17628050Y3338342D01*
X-17629799Y3334909D01*
X-17629800Y3334908D01*
X-17633294Y3328050D01*
X-17685646Y3225304D01*
X-17686249Y3221499D01*
X-17686249Y3221498D01*
X-17698170Y3146227D01*
X-17717765Y3114250D01*
X-17754232Y3105495D01*
X-17754549Y3105571D01*
X-17754696Y3105646D01*
X-17880000Y3125492D01*
X-17883807Y3124889D01*
X-18001498Y3106249D01*
X-18001499Y3106249D01*
X-18005304Y3105646D01*
X-18023856Y3096193D01*
X-18114908Y3049800D01*
X-18114909Y3049799D01*
X-18118342Y3048050D01*
X-18208050Y2958342D01*
X-18265646Y2845304D01*
X-18266249Y2841499D01*
X-18266249Y2841498D01*
X-18270713Y2813312D01*
X-18285492Y2720000D01*
X-19163615Y2720000D01*
X-19081857Y2761658D01*
X-19065092Y2770200D01*
X-19065091Y2770201D01*
X-19061658Y2771950D01*
X-18971950Y2861658D01*
X-18963367Y2878502D01*
X-18916104Y2971262D01*
X-18914354Y2974696D01*
X-18894508Y3100000D01*
X-18914354Y3225304D01*
X-18966706Y3328050D01*
X-18970200Y3334908D01*
X-18970201Y3334909D01*
X-18971950Y3338342D01*
X-19061658Y3428050D01*
X-19065091Y3429799D01*
X-19065092Y3429800D01*
X-19118177Y3456848D01*
X-19174696Y3485646D01*
X-19178501Y3486249D01*
X-19178502Y3486249D01*
X-19296193Y3504889D01*
X-19300000Y3505492D01*
X-19303807Y3504889D01*
X-19421498Y3486249D01*
X-19421499Y3486249D01*
X-19425304Y3485646D01*
X-19481823Y3456848D01*
X-19534908Y3429800D01*
X-19534909Y3429799D01*
X-19538342Y3428050D01*
X-19565352Y3401040D01*
X-19600000Y3386688D01*
X-19634648Y3401040D01*
X-19661658Y3428050D01*
X-19665091Y3429799D01*
X-19665092Y3429800D01*
X-19718177Y3456848D01*
X-19774696Y3485646D01*
X-19778501Y3486249D01*
X-19778502Y3486249D01*
X-19896193Y3504889D01*
X-19900000Y3505492D01*
X-19903807Y3504889D01*
X-20021498Y3486249D01*
X-20021499Y3486249D01*
X-20025304Y3485646D01*
X-20081823Y3456848D01*
X-20134908Y3429800D01*
X-20134909Y3429799D01*
X-20138342Y3428050D01*
X-20228050Y3338342D01*
X-20229799Y3334909D01*
X-20229800Y3334908D01*
X-20233294Y3328050D01*
X-20285646Y3225304D01*
X-20305492Y3100000D01*
X-30799500Y3100000D01*
X-30799500Y4050000D01*
X-16255492Y4050000D01*
X-16254889Y4046193D01*
X-16241068Y3958932D01*
X-16235646Y3924696D01*
X-16220264Y3894508D01*
X-16180315Y3816104D01*
X-16178050Y3811658D01*
X-16088342Y3721950D01*
X-16084909Y3720201D01*
X-16084908Y3720200D01*
X-16031823Y3693152D01*
X-15975304Y3664354D01*
X-15971499Y3663751D01*
X-15971498Y3663751D01*
X-15853807Y3645111D01*
X-15850000Y3644508D01*
X-15846193Y3645111D01*
X-15728502Y3663751D01*
X-15728501Y3663751D01*
X-15724696Y3664354D01*
X-15668177Y3693152D01*
X-15615092Y3720200D01*
X-15615091Y3720201D01*
X-15611658Y3721950D01*
X-15521950Y3811658D01*
X-15519684Y3816104D01*
X-15479736Y3894508D01*
X-15464354Y3924696D01*
X-15458931Y3958932D01*
X-15445111Y4046193D01*
X-15444508Y4050000D01*
X-15454605Y4113751D01*
X-15463751Y4171498D01*
X-15463751Y4171499D01*
X-15464354Y4175304D01*
X-15476937Y4200000D01*
X-14405492Y4200000D01*
X-14404889Y4196193D01*
X-14388879Y4095111D01*
X-14385646Y4074696D01*
X-14383896Y4071262D01*
X-14332402Y3970200D01*
X-14328050Y3961658D01*
X-14238342Y3871950D01*
X-14234909Y3870201D01*
X-14234908Y3870200D01*
X-14181823Y3843152D01*
X-14125304Y3814354D01*
X-14121499Y3813751D01*
X-14121498Y3813751D01*
X-14003807Y3795111D01*
X-14000000Y3794508D01*
X-13996193Y3795111D01*
X-13878502Y3813751D01*
X-13878501Y3813751D01*
X-13874696Y3814354D01*
X-13818177Y3843152D01*
X-13765092Y3870200D01*
X-13765091Y3870201D01*
X-13761658Y3871950D01*
X-13671950Y3961658D01*
X-13667597Y3970200D01*
X-13616104Y4071262D01*
X-13614354Y4074696D01*
X-13611120Y4095111D01*
X-13595111Y4196193D01*
X-13594508Y4200000D01*
X-13603842Y4258932D01*
X-13613751Y4321498D01*
X-13613751Y4321499D01*
X-13614354Y4325304D01*
X-13643152Y4381823D01*
X-13670200Y4434908D01*
X-13670201Y4434909D01*
X-13671950Y4438342D01*
X-13761658Y4528050D01*
X-13765091Y4529799D01*
X-13765092Y4529800D01*
X-13818177Y4556848D01*
X-13874696Y4585646D01*
X-13878501Y4586249D01*
X-13878502Y4586249D01*
X-13996193Y4604889D01*
X-14000000Y4605492D01*
X-14003807Y4604889D01*
X-14121498Y4586249D01*
X-14121499Y4586249D01*
X-14125304Y4585646D01*
X-14181823Y4556848D01*
X-14234908Y4529800D01*
X-14234909Y4529799D01*
X-14238342Y4528050D01*
X-14328050Y4438342D01*
X-14329799Y4434909D01*
X-14329800Y4434908D01*
X-14356848Y4381823D01*
X-14385646Y4325304D01*
X-14386249Y4321499D01*
X-14386249Y4321498D01*
X-14396158Y4258932D01*
X-14405492Y4200000D01*
X-15476937Y4200000D01*
X-15510103Y4265092D01*
X-15520200Y4284908D01*
X-15520201Y4284909D01*
X-15521950Y4288342D01*
X-15611658Y4378050D01*
X-15615091Y4379799D01*
X-15615092Y4379800D01*
X-15704399Y4425304D01*
X-15724696Y4435646D01*
X-15728501Y4436249D01*
X-15728502Y4436249D01*
X-15846193Y4454889D01*
X-15850000Y4455492D01*
X-15853807Y4454889D01*
X-15971498Y4436249D01*
X-15971499Y4436249D01*
X-15975304Y4435646D01*
X-15995601Y4425304D01*
X-16084908Y4379800D01*
X-16084909Y4379799D01*
X-16088342Y4378050D01*
X-16178050Y4288342D01*
X-16179799Y4284909D01*
X-16179800Y4284908D01*
X-16189897Y4265092D01*
X-16235646Y4175304D01*
X-16236249Y4171499D01*
X-16236249Y4171498D01*
X-16245395Y4113751D01*
X-16255492Y4050000D01*
X-30799500Y4050000D01*
X-30799500Y5900000D01*
X-24305492Y5900000D01*
X-24304889Y5896193D01*
X-24289541Y5799291D01*
X-24285646Y5774696D01*
X-24275739Y5755252D01*
X-24232402Y5670200D01*
X-24228050Y5661658D01*
X-24138342Y5571950D01*
X-24134909Y5570201D01*
X-24134908Y5570200D01*
X-24122251Y5563751D01*
X-24025304Y5514354D01*
X-24021499Y5513751D01*
X-24021498Y5513751D01*
X-23903807Y5495111D01*
X-23900000Y5494508D01*
X-23896193Y5495111D01*
X-23778502Y5513751D01*
X-23778501Y5513751D01*
X-23774696Y5514354D01*
X-23677749Y5563751D01*
X-23665092Y5570200D01*
X-23665091Y5570201D01*
X-23661658Y5571950D01*
X-23571950Y5661658D01*
X-23567597Y5670200D01*
X-23524261Y5755252D01*
X-23514354Y5774696D01*
X-23510458Y5799291D01*
X-23495111Y5896193D01*
X-23494508Y5900000D01*
X-23514354Y6025304D01*
X-23543152Y6081823D01*
X-23570200Y6134908D01*
X-23570201Y6134909D01*
X-23571950Y6138342D01*
X-23661658Y6228050D01*
X-23665091Y6229799D01*
X-23665092Y6229800D01*
X-23754438Y6275324D01*
X-23774696Y6285646D01*
X-23778501Y6286249D01*
X-23778502Y6286249D01*
X-23896193Y6304889D01*
X-23900000Y6305492D01*
X-23903807Y6304889D01*
X-24021498Y6286249D01*
X-24021499Y6286249D01*
X-24025304Y6285646D01*
X-24045562Y6275324D01*
X-24134908Y6229800D01*
X-24134909Y6229799D01*
X-24138342Y6228050D01*
X-24228050Y6138342D01*
X-24229799Y6134909D01*
X-24229800Y6134908D01*
X-24256848Y6081823D01*
X-24285646Y6025304D01*
X-24305492Y5900000D01*
X-30799500Y5900000D01*
X-30799500Y6750000D01*
X-22105492Y6750000D01*
X-22104889Y6746193D01*
X-22099504Y6712196D01*
X-22085646Y6624696D01*
X-22028050Y6511658D01*
X-21938342Y6421950D01*
X-21934911Y6420202D01*
X-21934907Y6420199D01*
X-21934121Y6419799D01*
X-21933737Y6419350D01*
X-21931786Y6417932D01*
X-21932126Y6417463D01*
X-21909766Y6391280D01*
X-21912711Y6353893D01*
X-21927568Y6336499D01*
X-21929904Y6334802D01*
X-21933342Y6333050D01*
X-22023050Y6243342D01*
X-22024799Y6239909D01*
X-22024800Y6239908D01*
X-22029950Y6229800D01*
X-22080646Y6130304D01*
X-22100492Y6005000D01*
X-22080646Y5879696D01*
X-22054561Y5828502D01*
X-22039677Y5799291D01*
X-22023050Y5766658D01*
X-21933342Y5676950D01*
X-21929909Y5675201D01*
X-21929908Y5675200D01*
X-21903330Y5661658D01*
X-21820304Y5619354D01*
X-21816499Y5618751D01*
X-21816498Y5618751D01*
X-21698807Y5600111D01*
X-21695000Y5599508D01*
X-21691193Y5600111D01*
X-21573502Y5618751D01*
X-21573501Y5618751D01*
X-21569696Y5619354D01*
X-21486670Y5661658D01*
X-21460092Y5675200D01*
X-21460091Y5675201D01*
X-21456658Y5676950D01*
X-21366950Y5766658D01*
X-21350322Y5799291D01*
X-21335439Y5828502D01*
X-21309354Y5879696D01*
X-21306138Y5900000D01*
X-16305492Y5900000D01*
X-16304889Y5896193D01*
X-16289541Y5799291D01*
X-16285646Y5774696D01*
X-16275739Y5755252D01*
X-16232402Y5670200D01*
X-16228050Y5661658D01*
X-16138342Y5571950D01*
X-16134909Y5570201D01*
X-16134908Y5570200D01*
X-16122251Y5563751D01*
X-16025304Y5514354D01*
X-16021499Y5513751D01*
X-16021498Y5513751D01*
X-15903807Y5495111D01*
X-15900000Y5494508D01*
X-15896193Y5495111D01*
X-15778502Y5513751D01*
X-15778501Y5513751D01*
X-15774696Y5514354D01*
X-15677749Y5563751D01*
X-15665092Y5570200D01*
X-15665091Y5570201D01*
X-15661658Y5571950D01*
X-15571950Y5661658D01*
X-15567597Y5670200D01*
X-15524261Y5755252D01*
X-15514354Y5774696D01*
X-15510458Y5799291D01*
X-15495111Y5896193D01*
X-15494508Y5900000D01*
X-14805492Y5900000D01*
X-14804889Y5896193D01*
X-14789541Y5799291D01*
X-14785646Y5774696D01*
X-14775739Y5755252D01*
X-14732402Y5670200D01*
X-14728050Y5661658D01*
X-14638342Y5571950D01*
X-14634909Y5570201D01*
X-14634908Y5570200D01*
X-14622251Y5563751D01*
X-14525304Y5514354D01*
X-14521499Y5513751D01*
X-14521498Y5513751D01*
X-14439153Y5500709D01*
X-14407176Y5481113D01*
X-14398421Y5444647D01*
X-14405492Y5400000D01*
X-14385646Y5274696D01*
X-14328050Y5161658D01*
X-14238342Y5071950D01*
X-14234909Y5070201D01*
X-14234908Y5070200D01*
X-14181823Y5043152D01*
X-14125304Y5014354D01*
X-14121499Y5013751D01*
X-14121498Y5013751D01*
X-14003807Y4995111D01*
X-14000000Y4994508D01*
X-13996193Y4995111D01*
X-13965324Y5000000D01*
X4494508Y5000000D01*
X4514354Y4874696D01*
X4571950Y4761658D01*
X4661658Y4671950D01*
X4665091Y4670201D01*
X4665095Y4670198D01*
X4696894Y4653996D01*
X4721251Y4625479D01*
X4718308Y4588092D01*
X4709297Y4575689D01*
X4671950Y4538342D01*
X4670201Y4534909D01*
X4670200Y4534908D01*
X4666706Y4528050D01*
X4614354Y4425304D01*
X4613751Y4421499D01*
X4613751Y4421498D01*
X4605795Y4371262D01*
X4594508Y4300000D01*
X4614354Y4174696D01*
X4632877Y4138342D01*
X4663368Y4078502D01*
X4671950Y4061658D01*
X4761658Y3971950D01*
X4765091Y3970201D01*
X4765092Y3970200D01*
X4781857Y3961658D01*
X4874696Y3914354D01*
X4878501Y3913751D01*
X4878502Y3913751D01*
X4996193Y3895111D01*
X5000000Y3894508D01*
X5003807Y3895111D01*
X5034676Y3900000D01*
X20894508Y3900000D01*
X20895111Y3896193D01*
X20911121Y3795111D01*
X20914354Y3774696D01*
X20916104Y3771262D01*
X20969685Y3666104D01*
X20971950Y3661658D01*
X21061658Y3571950D01*
X21065091Y3570201D01*
X21065092Y3570200D01*
X21118177Y3543152D01*
X21174696Y3514354D01*
X21178501Y3513751D01*
X21178502Y3513751D01*
X21296193Y3495111D01*
X21300000Y3494508D01*
X21303807Y3495111D01*
X21421498Y3513751D01*
X21421499Y3513751D01*
X21425304Y3514354D01*
X21481823Y3543152D01*
X21534908Y3570200D01*
X21534909Y3570201D01*
X21538342Y3571950D01*
X21628050Y3661658D01*
X21630316Y3666104D01*
X21683896Y3771262D01*
X21685646Y3774696D01*
X21688880Y3795111D01*
X21704889Y3896193D01*
X21705492Y3900000D01*
X21696158Y3958932D01*
X21686249Y4021498D01*
X21686249Y4021499D01*
X21685646Y4025304D01*
X21628050Y4138342D01*
X21538342Y4228050D01*
X21534909Y4229799D01*
X21534908Y4229800D01*
X21465643Y4265092D01*
X21425304Y4285646D01*
X21421499Y4286249D01*
X21421498Y4286249D01*
X21303807Y4304889D01*
X21300000Y4305492D01*
X21296193Y4304889D01*
X21178502Y4286249D01*
X21178501Y4286249D01*
X21174696Y4285646D01*
X21134357Y4265092D01*
X21065092Y4229800D01*
X21065091Y4229799D01*
X21061658Y4228050D01*
X20971950Y4138342D01*
X20914354Y4025304D01*
X20913751Y4021499D01*
X20913751Y4021498D01*
X20903842Y3958932D01*
X20894508Y3900000D01*
X5034676Y3900000D01*
X5121498Y3913751D01*
X5121499Y3913751D01*
X5125304Y3914354D01*
X5218143Y3961658D01*
X5234908Y3970200D01*
X5234909Y3970201D01*
X5238342Y3971950D01*
X5328050Y4061658D01*
X5336633Y4078502D01*
X5367123Y4138342D01*
X5385646Y4174696D01*
X5405492Y4300000D01*
X5394205Y4371262D01*
X5386249Y4421498D01*
X5386249Y4421499D01*
X5385646Y4425304D01*
X5347586Y4500000D01*
X18494508Y4500000D01*
X18495111Y4496193D01*
X18513546Y4379800D01*
X18514354Y4374696D01*
X18571950Y4261658D01*
X18661658Y4171950D01*
X18665091Y4170201D01*
X18665092Y4170200D01*
X18718177Y4143152D01*
X18774696Y4114354D01*
X18778501Y4113751D01*
X18778502Y4113751D01*
X18896193Y4095111D01*
X18900000Y4094508D01*
X18903807Y4095111D01*
X19021498Y4113751D01*
X19021499Y4113751D01*
X19025304Y4114354D01*
X19081823Y4143152D01*
X19134908Y4170200D01*
X19134909Y4170201D01*
X19138342Y4171950D01*
X19228050Y4261658D01*
X19285646Y4374696D01*
X19286455Y4379800D01*
X19304889Y4496193D01*
X19305492Y4500000D01*
X19291540Y4588092D01*
X19286249Y4621498D01*
X19286249Y4621499D01*
X19285646Y4625304D01*
X19228050Y4738342D01*
X19138342Y4828050D01*
X19134909Y4829799D01*
X19134908Y4829800D01*
X19046794Y4874696D01*
X19025304Y4885646D01*
X19021499Y4886249D01*
X19021498Y4886249D01*
X18903807Y4904889D01*
X18900000Y4905492D01*
X18896193Y4904889D01*
X18778502Y4886249D01*
X18778501Y4886249D01*
X18774696Y4885646D01*
X18753206Y4874696D01*
X18665092Y4829800D01*
X18665091Y4829799D01*
X18661658Y4828050D01*
X18571950Y4738342D01*
X18514354Y4625304D01*
X18513751Y4621499D01*
X18513751Y4621498D01*
X18508460Y4588092D01*
X18494508Y4500000D01*
X5347586Y4500000D01*
X5333294Y4528050D01*
X5329800Y4534908D01*
X5329799Y4534909D01*
X5328050Y4538342D01*
X5238342Y4628050D01*
X5234909Y4629799D01*
X5234905Y4629802D01*
X5203106Y4646004D01*
X5178749Y4674521D01*
X5181692Y4711908D01*
X5190703Y4724311D01*
X5228050Y4761658D01*
X5285646Y4874696D01*
X5305492Y5000000D01*
X5285646Y5125304D01*
X5228050Y5238342D01*
X5138342Y5328050D01*
X5134909Y5329799D01*
X5134908Y5329800D01*
X5081823Y5356848D01*
X5025304Y5385646D01*
X5021499Y5386249D01*
X5021498Y5386249D01*
X4903807Y5404889D01*
X4900000Y5405492D01*
X4896193Y5404889D01*
X4778502Y5386249D01*
X4778501Y5386249D01*
X4774696Y5385646D01*
X4718177Y5356848D01*
X4665092Y5329800D01*
X4665091Y5329799D01*
X4661658Y5328050D01*
X4571950Y5238342D01*
X4514354Y5125304D01*
X4494508Y5000000D01*
X-13965324Y5000000D01*
X-13878502Y5013751D01*
X-13878501Y5013751D01*
X-13874696Y5014354D01*
X-13818177Y5043152D01*
X-13765092Y5070200D01*
X-13765091Y5070201D01*
X-13761658Y5071950D01*
X-13671950Y5161658D01*
X-13614354Y5274696D01*
X-13594508Y5400000D01*
X-13609720Y5496048D01*
X-13613751Y5521498D01*
X-13613751Y5521499D01*
X-13614354Y5525304D01*
X-13667928Y5630448D01*
X-13670200Y5634908D01*
X-13670201Y5634909D01*
X-13671950Y5638342D01*
X-13761658Y5728050D01*
X-13765091Y5729799D01*
X-13765092Y5729800D01*
X-13853206Y5774696D01*
X-13874696Y5785646D01*
X-13878501Y5786249D01*
X-13878502Y5786249D01*
X-13960847Y5799291D01*
X-13992824Y5818887D01*
X-14001579Y5855353D01*
X-13995111Y5896193D01*
X-13994508Y5900000D01*
X-14010346Y6000000D01*
X6794508Y6000000D01*
X6814354Y5874696D01*
X6816104Y5871262D01*
X6867653Y5770092D01*
X6871950Y5761658D01*
X6961658Y5671950D01*
X6965091Y5670201D01*
X6965092Y5670200D01*
X6981857Y5661658D01*
X7074696Y5614354D01*
X7078501Y5613751D01*
X7078502Y5613751D01*
X7196193Y5595111D01*
X7200000Y5594508D01*
X7203807Y5595111D01*
X7321498Y5613751D01*
X7321499Y5613751D01*
X7325304Y5614354D01*
X7418143Y5661658D01*
X7434908Y5670200D01*
X7434909Y5670201D01*
X7438342Y5671950D01*
X7528050Y5761658D01*
X7532348Y5770092D01*
X7583896Y5871262D01*
X7585646Y5874696D01*
X7597573Y5950000D01*
X9294508Y5950000D01*
X9314354Y5824696D01*
X9371950Y5711658D01*
X9461658Y5621950D01*
X9465091Y5620201D01*
X9465092Y5620200D01*
X9477749Y5613751D01*
X9574696Y5564354D01*
X9578501Y5563751D01*
X9578502Y5563751D01*
X9696193Y5545111D01*
X9700000Y5544508D01*
X9703807Y5545111D01*
X9821498Y5563751D01*
X9821499Y5563751D01*
X9825304Y5564354D01*
X9922251Y5613751D01*
X9934908Y5620200D01*
X9934909Y5620201D01*
X9938342Y5621950D01*
X10028050Y5711658D01*
X10050262Y5755252D01*
X14649500Y5755252D01*
X14661133Y5696769D01*
X14705448Y5630448D01*
X14771769Y5586133D01*
X14830252Y5574500D01*
X16569748Y5574500D01*
X16628231Y5586133D01*
X16694552Y5630448D01*
X16738867Y5696769D01*
X16750500Y5755252D01*
X16750500Y7494748D01*
X16738867Y7553231D01*
X16694552Y7619552D01*
X16628231Y7663867D01*
X16569748Y7675500D01*
X14830252Y7675500D01*
X14771769Y7663867D01*
X14705448Y7619552D01*
X14661133Y7553231D01*
X14649500Y7494748D01*
X14649500Y5755252D01*
X10050262Y5755252D01*
X10085646Y5824696D01*
X10105492Y5950000D01*
X10085646Y6075304D01*
X10028050Y6188342D01*
X9938342Y6278050D01*
X9934909Y6279799D01*
X9934908Y6279800D01*
X9845562Y6325324D01*
X9825304Y6335646D01*
X9821499Y6336249D01*
X9821498Y6336249D01*
X9703807Y6354889D01*
X9700000Y6355492D01*
X9696193Y6354889D01*
X9578502Y6336249D01*
X9578501Y6336249D01*
X9574696Y6335646D01*
X9554438Y6325324D01*
X9465092Y6279800D01*
X9465091Y6279799D01*
X9461658Y6278050D01*
X9371950Y6188342D01*
X9314354Y6075304D01*
X9294508Y5950000D01*
X7597573Y5950000D01*
X7605492Y6000000D01*
X7585646Y6125304D01*
X7533294Y6228050D01*
X7529800Y6234908D01*
X7529799Y6234909D01*
X7528050Y6238342D01*
X7438342Y6328050D01*
X7434909Y6329799D01*
X7434908Y6329800D01*
X7368336Y6363720D01*
X7325304Y6385646D01*
X7321499Y6386249D01*
X7321498Y6386249D01*
X7203807Y6404889D01*
X7200000Y6405492D01*
X7196193Y6404889D01*
X7078502Y6386249D01*
X7078501Y6386249D01*
X7074696Y6385646D01*
X7031664Y6363720D01*
X6965092Y6329800D01*
X6965091Y6329799D01*
X6961658Y6328050D01*
X6871950Y6238342D01*
X6870201Y6234909D01*
X6870200Y6234908D01*
X6866706Y6228050D01*
X6814354Y6125304D01*
X6794508Y6000000D01*
X-14010346Y6000000D01*
X-14014354Y6025304D01*
X-14043152Y6081823D01*
X-14070200Y6134908D01*
X-14070201Y6134909D01*
X-14071950Y6138342D01*
X-14161658Y6228050D01*
X-14165091Y6229799D01*
X-14165092Y6229800D01*
X-14254438Y6275324D01*
X-14274696Y6285646D01*
X-14278501Y6286249D01*
X-14278502Y6286249D01*
X-14396193Y6304889D01*
X-14400000Y6305492D01*
X-14403807Y6304889D01*
X-14521498Y6286249D01*
X-14521499Y6286249D01*
X-14525304Y6285646D01*
X-14545562Y6275324D01*
X-14634908Y6229800D01*
X-14634909Y6229799D01*
X-14638342Y6228050D01*
X-14728050Y6138342D01*
X-14729799Y6134909D01*
X-14729800Y6134908D01*
X-14756848Y6081823D01*
X-14785646Y6025304D01*
X-14805492Y5900000D01*
X-15494508Y5900000D01*
X-15514354Y6025304D01*
X-15543152Y6081823D01*
X-15570200Y6134908D01*
X-15570201Y6134909D01*
X-15571950Y6138342D01*
X-15661658Y6228050D01*
X-15665091Y6229799D01*
X-15665092Y6229800D01*
X-15754438Y6275324D01*
X-15774696Y6285646D01*
X-15778501Y6286249D01*
X-15778502Y6286249D01*
X-15896193Y6304889D01*
X-15900000Y6305492D01*
X-15903807Y6304889D01*
X-16021498Y6286249D01*
X-16021499Y6286249D01*
X-16025304Y6285646D01*
X-16045562Y6275324D01*
X-16134908Y6229800D01*
X-16134909Y6229799D01*
X-16138342Y6228050D01*
X-16228050Y6138342D01*
X-16229799Y6134909D01*
X-16229800Y6134908D01*
X-16256848Y6081823D01*
X-16285646Y6025304D01*
X-16305492Y5900000D01*
X-21306138Y5900000D01*
X-21289508Y6005000D01*
X-21309354Y6130304D01*
X-21360050Y6229800D01*
X-21365200Y6239908D01*
X-21365201Y6239909D01*
X-21366950Y6243342D01*
X-21456658Y6333050D01*
X-21460089Y6334798D01*
X-21460093Y6334801D01*
X-21460879Y6335201D01*
X-21461263Y6335650D01*
X-21463214Y6337068D01*
X-21462874Y6337537D01*
X-21485234Y6363720D01*
X-21482289Y6401107D01*
X-21467432Y6418501D01*
X-21465095Y6420199D01*
X-21461658Y6421950D01*
X-21371950Y6511658D01*
X-21314354Y6624696D01*
X-21300495Y6712196D01*
X-21295111Y6746193D01*
X-21294508Y6750000D01*
X-21303030Y6803807D01*
X-21313751Y6871498D01*
X-21313751Y6871499D01*
X-21314354Y6875304D01*
X-21371950Y6988342D01*
X-21461658Y7078050D01*
X-21465091Y7079799D01*
X-21465092Y7079800D01*
X-21554438Y7125324D01*
X-21574696Y7135646D01*
X-21578501Y7136249D01*
X-21578502Y7136249D01*
X-21696193Y7154889D01*
X-21700000Y7155492D01*
X-21703807Y7154889D01*
X-21821498Y7136249D01*
X-21821499Y7136249D01*
X-21825304Y7135646D01*
X-21845562Y7125324D01*
X-21934908Y7079800D01*
X-21934909Y7079799D01*
X-21938342Y7078050D01*
X-22028050Y6988342D01*
X-22085646Y6875304D01*
X-22086249Y6871499D01*
X-22086249Y6871498D01*
X-22096970Y6803807D01*
X-22105492Y6750000D01*
X-30799500Y6750000D01*
X-30799500Y7500000D01*
X-14905492Y7500000D01*
X-14904889Y7496193D01*
X-14888879Y7395111D01*
X-14885646Y7374696D01*
X-14828050Y7261658D01*
X-14738342Y7171950D01*
X-14734909Y7170201D01*
X-14734908Y7170200D01*
X-14706042Y7155492D01*
X-14625304Y7114354D01*
X-14621499Y7113751D01*
X-14621498Y7113751D01*
X-14539153Y7100709D01*
X-14507176Y7081113D01*
X-14498421Y7044647D01*
X-14499963Y7034908D01*
X-14505492Y7000000D01*
X-14504889Y6996193D01*
X-14493661Y6925304D01*
X-14485646Y6874696D01*
X-14428050Y6761658D01*
X-14338342Y6671950D01*
X-14334909Y6670201D01*
X-14334908Y6670200D01*
X-14281823Y6643152D01*
X-14225304Y6614354D01*
X-14221499Y6613751D01*
X-14221498Y6613751D01*
X-14103807Y6595111D01*
X-14100000Y6594508D01*
X-14096193Y6595111D01*
X-13978502Y6613751D01*
X-13978501Y6613751D01*
X-13974696Y6614354D01*
X-13918177Y6643152D01*
X-13865092Y6670200D01*
X-13865091Y6670201D01*
X-13861658Y6671950D01*
X-13771950Y6761658D01*
X-13752414Y6800000D01*
X-8105492Y6800000D01*
X-8104889Y6796193D01*
X-8091041Y6708762D01*
X-8085646Y6674696D01*
X-8028050Y6561658D01*
X-7938342Y6471950D01*
X-7934909Y6470201D01*
X-7934908Y6470200D01*
X-7902336Y6453604D01*
X-7825304Y6414354D01*
X-7821499Y6413751D01*
X-7821498Y6413751D01*
X-7703807Y6395111D01*
X-7700000Y6394508D01*
X-7696193Y6395111D01*
X-7578502Y6413751D01*
X-7578501Y6413751D01*
X-7574696Y6414354D01*
X-7497664Y6453604D01*
X-7465092Y6470200D01*
X-7465091Y6470201D01*
X-7461658Y6471950D01*
X-7371950Y6561658D01*
X-7314354Y6674696D01*
X-7308958Y6708762D01*
X-7295111Y6796193D01*
X-7294508Y6800000D01*
X-7305832Y6871498D01*
X-7313751Y6921498D01*
X-7313751Y6921499D01*
X-7314354Y6925304D01*
X-7352414Y7000000D01*
X2294508Y7000000D01*
X2295111Y6996193D01*
X2306339Y6925304D01*
X2314354Y6874696D01*
X2371950Y6761658D01*
X2461658Y6671950D01*
X2465091Y6670201D01*
X2465092Y6670200D01*
X2518177Y6643152D01*
X2574696Y6614354D01*
X2578501Y6613751D01*
X2578502Y6613751D01*
X2696193Y6595111D01*
X2700000Y6594508D01*
X2703807Y6595111D01*
X2821498Y6613751D01*
X2821499Y6613751D01*
X2825304Y6614354D01*
X2881823Y6643152D01*
X2934908Y6670200D01*
X2934909Y6670201D01*
X2938342Y6671950D01*
X3028050Y6761658D01*
X3066694Y6837500D01*
X6032008Y6837500D01*
X6032611Y6833693D01*
X6045264Y6753807D01*
X6051854Y6712196D01*
X6072711Y6671262D01*
X6100816Y6616104D01*
X6109450Y6599158D01*
X6199158Y6509450D01*
X6202591Y6507701D01*
X6202592Y6507700D01*
X6255677Y6480652D01*
X6312196Y6451854D01*
X6316001Y6451251D01*
X6316002Y6451251D01*
X6433693Y6432611D01*
X6437500Y6432008D01*
X6441307Y6432611D01*
X6558998Y6451251D01*
X6558999Y6451251D01*
X6562804Y6451854D01*
X6619323Y6480652D01*
X6672408Y6507700D01*
X6672409Y6507701D01*
X6675842Y6509450D01*
X6765550Y6599158D01*
X6774185Y6616104D01*
X6802289Y6671262D01*
X6823146Y6712196D01*
X6829737Y6753807D01*
X6842389Y6833693D01*
X6842992Y6837500D01*
X6837101Y6874696D01*
X6823749Y6958998D01*
X6823749Y6958999D01*
X6823146Y6962804D01*
X6765550Y7075842D01*
X6675842Y7165550D01*
X6672409Y7167299D01*
X6672408Y7167300D01*
X6597452Y7205492D01*
X6562804Y7223146D01*
X6558999Y7223749D01*
X6558998Y7223749D01*
X6441307Y7242389D01*
X6437500Y7242992D01*
X6433693Y7242389D01*
X6316002Y7223749D01*
X6316001Y7223749D01*
X6312196Y7223146D01*
X6277548Y7205492D01*
X6202592Y7167300D01*
X6202591Y7167299D01*
X6199158Y7165550D01*
X6109450Y7075842D01*
X6051854Y6962804D01*
X6051251Y6958999D01*
X6051251Y6958998D01*
X6037899Y6874696D01*
X6032008Y6837500D01*
X3066694Y6837500D01*
X3085646Y6874696D01*
X3093662Y6925304D01*
X3104889Y6996193D01*
X3105492Y7000000D01*
X3090280Y7096048D01*
X3086249Y7121498D01*
X3086249Y7121499D01*
X3085646Y7125304D01*
X3044788Y7205492D01*
X3029800Y7234908D01*
X3029799Y7234909D01*
X3028050Y7238342D01*
X2938342Y7328050D01*
X2934909Y7329799D01*
X2934908Y7329800D01*
X2846794Y7374696D01*
X2825304Y7385646D01*
X2821499Y7386249D01*
X2821498Y7386249D01*
X2703807Y7404889D01*
X2700000Y7405492D01*
X2696193Y7404889D01*
X2578502Y7386249D01*
X2578501Y7386249D01*
X2574696Y7385646D01*
X2553206Y7374696D01*
X2465092Y7329800D01*
X2465091Y7329799D01*
X2461658Y7328050D01*
X2371950Y7238342D01*
X2370201Y7234909D01*
X2370200Y7234908D01*
X2355212Y7205492D01*
X2314354Y7125304D01*
X2313751Y7121499D01*
X2313751Y7121498D01*
X2309720Y7096048D01*
X2294508Y7000000D01*
X-7352414Y7000000D01*
X-7371950Y7038342D01*
X-7461658Y7128050D01*
X-7465091Y7129799D01*
X-7465092Y7129800D01*
X-7544382Y7170200D01*
X-7574696Y7185646D01*
X-7578501Y7186249D01*
X-7578502Y7186249D01*
X-7696193Y7204889D01*
X-7700000Y7205492D01*
X-7703807Y7204889D01*
X-7821498Y7186249D01*
X-7821499Y7186249D01*
X-7825304Y7185646D01*
X-7855618Y7170200D01*
X-7934908Y7129800D01*
X-7934909Y7129799D01*
X-7938342Y7128050D01*
X-8028050Y7038342D01*
X-8085646Y6925304D01*
X-8086249Y6921499D01*
X-8086249Y6921498D01*
X-8094168Y6871498D01*
X-8105492Y6800000D01*
X-13752414Y6800000D01*
X-13714354Y6874696D01*
X-13706338Y6925304D01*
X-13695111Y6996193D01*
X-13694508Y7000000D01*
X-13709720Y7096048D01*
X-13713751Y7121498D01*
X-13713751Y7121499D01*
X-13714354Y7125304D01*
X-13755212Y7205492D01*
X-13770200Y7234908D01*
X-13770201Y7234909D01*
X-13771950Y7238342D01*
X-13861658Y7328050D01*
X-13865091Y7329799D01*
X-13865092Y7329800D01*
X-13953206Y7374696D01*
X-13974696Y7385646D01*
X-13978501Y7386249D01*
X-13978502Y7386249D01*
X-14060847Y7399291D01*
X-14092824Y7418887D01*
X-14101579Y7455353D01*
X-14095111Y7496193D01*
X-14094508Y7500000D01*
X-14103842Y7558932D01*
X-14113751Y7621498D01*
X-14113751Y7621499D01*
X-14114354Y7625304D01*
X-14171950Y7738342D01*
X-14261658Y7828050D01*
X-14265091Y7829799D01*
X-14265092Y7829800D01*
X-14318177Y7856848D01*
X-14374696Y7885646D01*
X-14378501Y7886249D01*
X-14378502Y7886249D01*
X-14496193Y7904889D01*
X-14500000Y7905492D01*
X-14503807Y7904889D01*
X-14621498Y7886249D01*
X-14621499Y7886249D01*
X-14625304Y7885646D01*
X-14681823Y7856848D01*
X-14734908Y7829800D01*
X-14734909Y7829799D01*
X-14738342Y7828050D01*
X-14828050Y7738342D01*
X-14885646Y7625304D01*
X-14886249Y7621499D01*
X-14886249Y7621498D01*
X-14896158Y7558932D01*
X-14905492Y7500000D01*
X-30799500Y7500000D01*
X-30799500Y8600000D01*
X-17205492Y8600000D01*
X-17204889Y8596193D01*
X-17186454Y8479800D01*
X-17185646Y8474696D01*
X-17128050Y8361658D01*
X-17038342Y8271950D01*
X-17034909Y8270201D01*
X-17034908Y8270200D01*
X-16981823Y8243152D01*
X-16925304Y8214354D01*
X-16921499Y8213751D01*
X-16921498Y8213751D01*
X-16803807Y8195111D01*
X-16800000Y8194508D01*
X-16796193Y8195111D01*
X-16678502Y8213751D01*
X-16678501Y8213751D01*
X-16674696Y8214354D01*
X-16618177Y8243152D01*
X-16565092Y8270200D01*
X-16565091Y8270201D01*
X-16561658Y8271950D01*
X-16471950Y8361658D01*
X-16414354Y8474696D01*
X-16413545Y8479800D01*
X-16395111Y8596193D01*
X-16394508Y8600000D01*
X-16414354Y8725304D01*
X-16463155Y8821081D01*
X-16470200Y8834908D01*
X-16470201Y8834909D01*
X-16471950Y8838342D01*
X-16561658Y8928050D01*
X-16565091Y8929799D01*
X-16565092Y8929800D01*
X-16635805Y8965830D01*
X-16674696Y8985646D01*
X-16678501Y8986249D01*
X-16678502Y8986249D01*
X-16796193Y9004889D01*
X-16800000Y9005492D01*
X-16803807Y9004889D01*
X-16921498Y8986249D01*
X-16921499Y8986249D01*
X-16925304Y8985646D01*
X-16964195Y8965830D01*
X-17034908Y8929800D01*
X-17034909Y8929799D01*
X-17038342Y8928050D01*
X-17128050Y8838342D01*
X-17129799Y8834909D01*
X-17129800Y8834908D01*
X-17136845Y8821081D01*
X-17185646Y8725304D01*
X-17205492Y8600000D01*
X-30799500Y8600000D01*
X-30799500Y8696654D01*
X-30785148Y8731302D01*
X-30497808Y9018642D01*
X-4903793Y9018642D01*
X-4890697Y8818834D01*
X-4841408Y8624759D01*
X-4840472Y8622729D01*
X-4840470Y8622723D01*
X-4772228Y8474696D01*
X-4757577Y8442916D01*
X-4642012Y8279395D01*
X-4640404Y8277829D01*
X-4640401Y8277825D01*
X-4566148Y8205492D01*
X-4498582Y8139672D01*
X-4496720Y8138428D01*
X-4496719Y8138427D01*
X-4477109Y8125324D01*
X-4332092Y8028426D01*
X-4148117Y7949384D01*
X-4145925Y7948888D01*
X-3955008Y7905688D01*
X-3955002Y7905687D01*
X-3952818Y7905193D01*
X-3868599Y7901884D01*
X-3754983Y7897420D01*
X-3754980Y7897420D01*
X-3752736Y7897332D01*
X-3750517Y7897654D01*
X-3750512Y7897654D01*
X-3630246Y7915092D01*
X-3554572Y7926064D01*
X-3552450Y7926784D01*
X-3552447Y7926785D01*
X-3454491Y7960037D01*
X-3364962Y7990428D01*
X-3190256Y8088267D01*
X-3164325Y8109833D01*
X-3038029Y8214873D01*
X-3036306Y8216306D01*
X-2908267Y8370256D01*
X-2900061Y8384908D01*
X-2811524Y8543005D01*
X-2810428Y8544962D01*
X-2746064Y8734572D01*
X-2725270Y8877985D01*
X-2717539Y8931306D01*
X-2717539Y8931312D01*
X-2717332Y8932736D01*
X-2715832Y8990000D01*
X-2717200Y9004889D01*
X-2718464Y9018642D01*
X-2363793Y9018642D01*
X-2350697Y8818834D01*
X-2301408Y8624759D01*
X-2300472Y8622729D01*
X-2300470Y8622723D01*
X-2232228Y8474696D01*
X-2217577Y8442916D01*
X-2102012Y8279395D01*
X-2100404Y8277829D01*
X-2100401Y8277825D01*
X-2026148Y8205492D01*
X-1958582Y8139672D01*
X-1956720Y8138428D01*
X-1956719Y8138427D01*
X-1937109Y8125324D01*
X-1792092Y8028426D01*
X-1608117Y7949384D01*
X-1605925Y7948888D01*
X-1415008Y7905688D01*
X-1415002Y7905687D01*
X-1412818Y7905193D01*
X-1328599Y7901884D01*
X-1214983Y7897420D01*
X-1214980Y7897420D01*
X-1212736Y7897332D01*
X-1210517Y7897654D01*
X-1210512Y7897654D01*
X-1090246Y7915092D01*
X-1014572Y7926064D01*
X-1012450Y7926784D01*
X-1012447Y7926785D01*
X-914491Y7960037D01*
X-824962Y7990428D01*
X-650256Y8088267D01*
X-624325Y8109833D01*
X-498029Y8214873D01*
X-496306Y8216306D01*
X-368267Y8370256D01*
X-360061Y8384908D01*
X-271524Y8543005D01*
X-270428Y8544962D01*
X-206064Y8734572D01*
X-185270Y8877985D01*
X-177539Y8931306D01*
X-177539Y8931312D01*
X-177332Y8932736D01*
X-175832Y8990000D01*
X-177200Y9004889D01*
X-178464Y9018642D01*
X176207Y9018642D01*
X189303Y8818834D01*
X238592Y8624759D01*
X239528Y8622729D01*
X239530Y8622723D01*
X307772Y8474696D01*
X322423Y8442916D01*
X437988Y8279395D01*
X439596Y8277829D01*
X439599Y8277825D01*
X513852Y8205492D01*
X581418Y8139672D01*
X583280Y8138428D01*
X583281Y8138427D01*
X602891Y8125324D01*
X747908Y8028426D01*
X931883Y7949384D01*
X934075Y7948888D01*
X1124992Y7905688D01*
X1124998Y7905687D01*
X1127182Y7905193D01*
X1211401Y7901884D01*
X1325017Y7897420D01*
X1325020Y7897420D01*
X1327264Y7897332D01*
X1329483Y7897654D01*
X1329488Y7897654D01*
X1449754Y7915092D01*
X1525428Y7926064D01*
X1527550Y7926784D01*
X1527553Y7926785D01*
X1625509Y7960037D01*
X1715038Y7990428D01*
X1889744Y8088267D01*
X1915675Y8109833D01*
X2041971Y8214873D01*
X2043694Y8216306D01*
X2171733Y8370256D01*
X2179939Y8384908D01*
X2268476Y8543005D01*
X2269572Y8544962D01*
X2333936Y8734572D01*
X2354730Y8877985D01*
X2362461Y8931306D01*
X2362461Y8931312D01*
X2362668Y8932736D01*
X2364168Y8990000D01*
X2362800Y9004889D01*
X2361536Y9018642D01*
X2716207Y9018642D01*
X2729303Y8818834D01*
X2778592Y8624759D01*
X2779528Y8622729D01*
X2779530Y8622723D01*
X2847772Y8474696D01*
X2862423Y8442916D01*
X2977988Y8279395D01*
X2979596Y8277829D01*
X2979599Y8277825D01*
X3053852Y8205492D01*
X3121418Y8139672D01*
X3123280Y8138428D01*
X3123281Y8138427D01*
X3142891Y8125324D01*
X3287908Y8028426D01*
X3471883Y7949384D01*
X3474075Y7948888D01*
X3664992Y7905688D01*
X3664998Y7905687D01*
X3667182Y7905193D01*
X3751401Y7901884D01*
X3865017Y7897420D01*
X3865020Y7897420D01*
X3867264Y7897332D01*
X3869483Y7897654D01*
X3869488Y7897654D01*
X3989754Y7915092D01*
X4065428Y7926064D01*
X4067550Y7926784D01*
X4067553Y7926785D01*
X4165509Y7960037D01*
X4255038Y7990428D01*
X4429744Y8088267D01*
X4455675Y8109833D01*
X4503970Y8150000D01*
X6544508Y8150000D01*
X6545111Y8146193D01*
X6563566Y8029674D01*
X6564354Y8024696D01*
X6582181Y7989709D01*
X6602728Y7949384D01*
X6621950Y7911658D01*
X6711658Y7821950D01*
X6715091Y7820201D01*
X6715092Y7820200D01*
X6747265Y7803807D01*
X6824696Y7764354D01*
X6828501Y7763751D01*
X6828502Y7763751D01*
X6946193Y7745111D01*
X6950000Y7744508D01*
X6953807Y7745111D01*
X7071498Y7763751D01*
X7071499Y7763751D01*
X7075304Y7764354D01*
X7145263Y7800000D01*
X11294508Y7800000D01*
X11295111Y7796193D01*
X11304274Y7738342D01*
X11314354Y7674696D01*
X11371950Y7561658D01*
X11461658Y7471950D01*
X11465091Y7470201D01*
X11465092Y7470200D01*
X11494231Y7455353D01*
X11574696Y7414354D01*
X11578501Y7413751D01*
X11578502Y7413751D01*
X11696193Y7395111D01*
X11700000Y7394508D01*
X11703807Y7395111D01*
X11821498Y7413751D01*
X11821499Y7413751D01*
X11825304Y7414354D01*
X11905769Y7455353D01*
X11934908Y7470200D01*
X11934909Y7470201D01*
X11938342Y7471950D01*
X12028050Y7561658D01*
X12085646Y7674696D01*
X12095727Y7738342D01*
X12104889Y7796193D01*
X12105492Y7800000D01*
X12090025Y7897654D01*
X12086249Y7921498D01*
X12086249Y7921499D01*
X12085646Y7925304D01*
X12035003Y8024696D01*
X12029800Y8034908D01*
X12029799Y8034909D01*
X12028050Y8038342D01*
X11938342Y8128050D01*
X11934909Y8129799D01*
X11934908Y8129800D01*
X11881823Y8156848D01*
X11825304Y8185646D01*
X11821499Y8186249D01*
X11821498Y8186249D01*
X11703807Y8204889D01*
X11700000Y8205492D01*
X11696193Y8204889D01*
X11578502Y8186249D01*
X11578501Y8186249D01*
X11574696Y8185646D01*
X11518177Y8156848D01*
X11465092Y8129800D01*
X11465091Y8129799D01*
X11461658Y8128050D01*
X11371950Y8038342D01*
X11370201Y8034909D01*
X11370200Y8034908D01*
X11364997Y8024696D01*
X11314354Y7925304D01*
X11313751Y7921499D01*
X11313751Y7921498D01*
X11309975Y7897654D01*
X11294508Y7800000D01*
X7145263Y7800000D01*
X7152735Y7803807D01*
X7184908Y7820200D01*
X7184909Y7820201D01*
X7188342Y7821950D01*
X7278050Y7911658D01*
X7297273Y7949384D01*
X7317819Y7989709D01*
X7335646Y8024696D01*
X7336435Y8029674D01*
X7354889Y8146193D01*
X7355492Y8150000D01*
X7345395Y8213751D01*
X7336249Y8271498D01*
X7336249Y8271499D01*
X7335646Y8275304D01*
X7288145Y8368529D01*
X7279800Y8384908D01*
X7279799Y8384909D01*
X7278050Y8388342D01*
X7188342Y8478050D01*
X7184909Y8479799D01*
X7184908Y8479800D01*
X7131823Y8506848D01*
X7075304Y8535646D01*
X7071499Y8536249D01*
X7071498Y8536249D01*
X6953807Y8554889D01*
X6950000Y8555492D01*
X6946193Y8554889D01*
X6828502Y8536249D01*
X6828501Y8536249D01*
X6824696Y8535646D01*
X6768177Y8506848D01*
X6715092Y8479800D01*
X6715091Y8479799D01*
X6711658Y8478050D01*
X6621950Y8388342D01*
X6620201Y8384909D01*
X6620200Y8384908D01*
X6611855Y8368529D01*
X6564354Y8275304D01*
X6563751Y8271499D01*
X6563751Y8271498D01*
X6554605Y8213751D01*
X6544508Y8150000D01*
X4503970Y8150000D01*
X4581971Y8214873D01*
X4583694Y8216306D01*
X4711733Y8370256D01*
X4719939Y8384908D01*
X4808476Y8543005D01*
X4809572Y8544962D01*
X4873936Y8734572D01*
X4894730Y8877985D01*
X4902461Y8931306D01*
X4902461Y8931312D01*
X4902668Y8932736D01*
X4904168Y8990000D01*
X4902800Y9004889D01*
X4886734Y9179738D01*
X14644520Y9179738D01*
X14644720Y9177356D01*
X14644720Y9177352D01*
X14650061Y9113751D01*
X14661759Y8974447D01*
X14675063Y8928050D01*
X14705300Y8822603D01*
X14718544Y8776414D01*
X14812712Y8593182D01*
X14814198Y8591307D01*
X14814200Y8591304D01*
X14857836Y8536249D01*
X14940677Y8431730D01*
X14942503Y8430176D01*
X14942504Y8430175D01*
X15026215Y8358932D01*
X15097564Y8298209D01*
X15277398Y8197703D01*
X15325936Y8181932D01*
X15471047Y8134782D01*
X15471051Y8134781D01*
X15473329Y8134041D01*
X15677894Y8109649D01*
X15883300Y8125454D01*
X16081725Y8180855D01*
X16083854Y8181930D01*
X16083858Y8181932D01*
X16170728Y8225814D01*
X16265610Y8273742D01*
X16382533Y8365092D01*
X16426062Y8399100D01*
X16426063Y8399101D01*
X16427951Y8400576D01*
X16453500Y8430175D01*
X16560993Y8554707D01*
X16560997Y8554712D01*
X16562564Y8556528D01*
X16664323Y8735656D01*
X16677882Y8776414D01*
X16715503Y8889508D01*
X16729351Y8931137D01*
X16750066Y9095111D01*
X16755000Y9134172D01*
X16755000Y9134173D01*
X16755171Y9135526D01*
X16755583Y9165000D01*
X16735480Y9370030D01*
X16734072Y9374696D01*
X16678219Y9559685D01*
X16675935Y9567251D01*
X16608272Y9694508D01*
X16580342Y9747038D01*
X16580339Y9747042D01*
X16579218Y9749151D01*
X16449011Y9908800D01*
X16290275Y10040118D01*
X16179525Y10100000D01*
X22194508Y10100000D01*
X22195111Y10096193D01*
X22204284Y10038279D01*
X22214354Y9974696D01*
X22219340Y9964911D01*
X22264465Y9876349D01*
X22271950Y9861658D01*
X22361658Y9771950D01*
X22365091Y9770201D01*
X22365092Y9770200D01*
X22402761Y9751007D01*
X22474696Y9714354D01*
X22478501Y9713751D01*
X22478502Y9713751D01*
X22596193Y9695111D01*
X22600000Y9694508D01*
X22603807Y9695111D01*
X22721498Y9713751D01*
X22721499Y9713751D01*
X22725304Y9714354D01*
X22797239Y9751007D01*
X22834908Y9770200D01*
X22834909Y9770201D01*
X22838342Y9771950D01*
X22928050Y9861658D01*
X22935536Y9876349D01*
X22980660Y9964911D01*
X22985646Y9974696D01*
X22995717Y10038279D01*
X23004889Y10096193D01*
X23005492Y10100000D01*
X22999345Y10138810D01*
X22986249Y10221498D01*
X22986249Y10221499D01*
X22985646Y10225304D01*
X22928050Y10338342D01*
X22838342Y10428050D01*
X22834909Y10429799D01*
X22834908Y10429800D01*
X22781823Y10456848D01*
X22725304Y10485646D01*
X22721499Y10486249D01*
X22721498Y10486249D01*
X22621398Y10502103D01*
X22601968Y10514009D01*
X22578602Y10502103D01*
X22478502Y10486249D01*
X22478501Y10486249D01*
X22474696Y10485646D01*
X22418177Y10456848D01*
X22365092Y10429800D01*
X22365091Y10429799D01*
X22361658Y10428050D01*
X22271950Y10338342D01*
X22214354Y10225304D01*
X22213751Y10221499D01*
X22213751Y10221498D01*
X22200655Y10138810D01*
X22194508Y10100000D01*
X16179525Y10100000D01*
X16109055Y10138103D01*
X15912254Y10199023D01*
X15909879Y10199273D01*
X15909877Y10199273D01*
X15709752Y10220307D01*
X15709747Y10220307D01*
X15707369Y10220557D01*
X15704984Y10220340D01*
X15704979Y10220340D01*
X15604786Y10211221D01*
X15502203Y10201886D01*
X15361244Y10160400D01*
X15306875Y10144398D01*
X15306873Y10144397D01*
X15304572Y10143720D01*
X15302446Y10142609D01*
X15302447Y10142609D01*
X15183480Y10080414D01*
X15122002Y10048274D01*
X15109571Y10038279D01*
X14963312Y9920685D01*
X14963309Y9920682D01*
X14961447Y9919185D01*
X14959908Y9917351D01*
X14959907Y9917350D01*
X14949957Y9905492D01*
X14829024Y9761370D01*
X14827869Y9759269D01*
X14731479Y9583935D01*
X14729776Y9580838D01*
X14729052Y9578557D01*
X14729052Y9578556D01*
X14724277Y9563504D01*
X14667484Y9384468D01*
X14644520Y9179738D01*
X4886734Y9179738D01*
X4886052Y9187159D01*
X4886051Y9187164D01*
X4885846Y9189396D01*
X4835574Y9367649D01*
X4832106Y9379946D01*
X4832105Y9379949D01*
X4831494Y9382115D01*
X4742932Y9561701D01*
X4623125Y9722141D01*
X4582960Y9759269D01*
X4477738Y9856536D01*
X4477737Y9856537D01*
X4476087Y9858062D01*
X4448924Y9875201D01*
X4379213Y9919185D01*
X4306742Y9964911D01*
X4282216Y9974696D01*
X4122845Y10038279D01*
X4122841Y10038280D01*
X4120761Y10039110D01*
X4118560Y10039548D01*
X4118556Y10039549D01*
X3990854Y10064950D01*
X3924372Y10078174D01*
X3828972Y10079423D01*
X3726401Y10080766D01*
X3726396Y10080766D01*
X3724153Y10080795D01*
X3721936Y10080414D01*
X3721935Y10080414D01*
X3660911Y10069928D01*
X3526808Y10046885D01*
X3524704Y10046109D01*
X3524701Y10046108D01*
X3341057Y9978358D01*
X3341054Y9978357D01*
X3338949Y9977580D01*
X3166864Y9875201D01*
X3016319Y9743176D01*
X3014934Y9741420D01*
X3014930Y9741415D01*
X2893744Y9587691D01*
X2893741Y9587687D01*
X2892354Y9585927D01*
X2799121Y9408720D01*
X2739742Y9217490D01*
X2739478Y9215258D01*
X2739477Y9215254D01*
X2725186Y9094508D01*
X2716207Y9018642D01*
X2361536Y9018642D01*
X2346052Y9187159D01*
X2346051Y9187164D01*
X2345846Y9189396D01*
X2295574Y9367649D01*
X2292106Y9379946D01*
X2292105Y9379949D01*
X2291494Y9382115D01*
X2202932Y9561701D01*
X2083125Y9722141D01*
X2042960Y9759269D01*
X1937738Y9856536D01*
X1937737Y9856537D01*
X1936087Y9858062D01*
X1908924Y9875201D01*
X1839213Y9919185D01*
X1766742Y9964911D01*
X1742216Y9974696D01*
X1582845Y10038279D01*
X1582841Y10038280D01*
X1580761Y10039110D01*
X1578560Y10039548D01*
X1578556Y10039549D01*
X1450854Y10064950D01*
X1384372Y10078174D01*
X1288972Y10079423D01*
X1186401Y10080766D01*
X1186396Y10080766D01*
X1184153Y10080795D01*
X1181936Y10080414D01*
X1181935Y10080414D01*
X1120911Y10069928D01*
X986808Y10046885D01*
X984704Y10046109D01*
X984701Y10046108D01*
X801057Y9978358D01*
X801054Y9978357D01*
X798949Y9977580D01*
X626864Y9875201D01*
X476319Y9743176D01*
X474934Y9741420D01*
X474930Y9741415D01*
X353744Y9587691D01*
X353741Y9587687D01*
X352354Y9585927D01*
X259121Y9408720D01*
X199742Y9217490D01*
X199478Y9215258D01*
X199477Y9215254D01*
X185186Y9094508D01*
X176207Y9018642D01*
X-178464Y9018642D01*
X-193948Y9187159D01*
X-193949Y9187164D01*
X-194154Y9189396D01*
X-244426Y9367649D01*
X-247894Y9379946D01*
X-247895Y9379949D01*
X-248506Y9382115D01*
X-337068Y9561701D01*
X-456875Y9722141D01*
X-497040Y9759269D01*
X-602262Y9856536D01*
X-602263Y9856537D01*
X-603913Y9858062D01*
X-631076Y9875201D01*
X-700787Y9919185D01*
X-773258Y9964911D01*
X-797784Y9974696D01*
X-957155Y10038279D01*
X-957159Y10038280D01*
X-959239Y10039110D01*
X-961440Y10039548D01*
X-961444Y10039549D01*
X-1089146Y10064950D01*
X-1155628Y10078174D01*
X-1251028Y10079423D01*
X-1353599Y10080766D01*
X-1353604Y10080766D01*
X-1355847Y10080795D01*
X-1358064Y10080414D01*
X-1358065Y10080414D01*
X-1419089Y10069928D01*
X-1553192Y10046885D01*
X-1555296Y10046109D01*
X-1555299Y10046108D01*
X-1738943Y9978358D01*
X-1738946Y9978357D01*
X-1741051Y9977580D01*
X-1913136Y9875201D01*
X-2063681Y9743176D01*
X-2065066Y9741420D01*
X-2065070Y9741415D01*
X-2186256Y9587691D01*
X-2186259Y9587687D01*
X-2187646Y9585927D01*
X-2280879Y9408720D01*
X-2340258Y9217490D01*
X-2340522Y9215258D01*
X-2340523Y9215254D01*
X-2354814Y9094508D01*
X-2363793Y9018642D01*
X-2718464Y9018642D01*
X-2733948Y9187159D01*
X-2733949Y9187164D01*
X-2734154Y9189396D01*
X-2784426Y9367649D01*
X-2787894Y9379946D01*
X-2787895Y9379949D01*
X-2788506Y9382115D01*
X-2877068Y9561701D01*
X-2996875Y9722141D01*
X-3037040Y9759269D01*
X-3142262Y9856536D01*
X-3142263Y9856537D01*
X-3143913Y9858062D01*
X-3171076Y9875201D01*
X-3240787Y9919185D01*
X-3313258Y9964911D01*
X-3337784Y9974696D01*
X-3497155Y10038279D01*
X-3497159Y10038280D01*
X-3499239Y10039110D01*
X-3501440Y10039548D01*
X-3501444Y10039549D01*
X-3629146Y10064950D01*
X-3695628Y10078174D01*
X-3791028Y10079423D01*
X-3893599Y10080766D01*
X-3893604Y10080766D01*
X-3895847Y10080795D01*
X-3898064Y10080414D01*
X-3898065Y10080414D01*
X-3959089Y10069928D01*
X-4093192Y10046885D01*
X-4095296Y10046109D01*
X-4095299Y10046108D01*
X-4278943Y9978358D01*
X-4278946Y9978357D01*
X-4281051Y9977580D01*
X-4453136Y9875201D01*
X-4603681Y9743176D01*
X-4605066Y9741420D01*
X-4605070Y9741415D01*
X-4726256Y9587691D01*
X-4726259Y9587687D01*
X-4727646Y9585927D01*
X-4820879Y9408720D01*
X-4880258Y9217490D01*
X-4880522Y9215258D01*
X-4880523Y9215254D01*
X-4894814Y9094508D01*
X-4903793Y9018642D01*
X-30497808Y9018642D01*
X-30016450Y9500000D01*
X-10505492Y9500000D01*
X-10485646Y9374696D01*
X-10428050Y9261658D01*
X-10338342Y9171950D01*
X-10334909Y9170201D01*
X-10334908Y9170200D01*
X-10281823Y9143152D01*
X-10225304Y9114354D01*
X-10221499Y9113751D01*
X-10221498Y9113751D01*
X-10103807Y9095111D01*
X-10100000Y9094508D01*
X-10096193Y9095111D01*
X-9978502Y9113751D01*
X-9978501Y9113751D01*
X-9974696Y9114354D01*
X-9918177Y9143152D01*
X-9865092Y9170200D01*
X-9865091Y9170201D01*
X-9861658Y9171950D01*
X-9771950Y9261658D01*
X-9714354Y9374696D01*
X-9694508Y9500000D01*
X-9714354Y9625304D01*
X-9771950Y9738342D01*
X-9861658Y9828050D01*
X-9865091Y9829799D01*
X-9865092Y9829800D01*
X-9956450Y9876349D01*
X-9974696Y9885646D01*
X-9978501Y9886249D01*
X-9978502Y9886249D01*
X-10096193Y9904889D01*
X-10100000Y9905492D01*
X-10103807Y9904889D01*
X-10221498Y9886249D01*
X-10221499Y9886249D01*
X-10225304Y9885646D01*
X-10243550Y9876349D01*
X-10334908Y9829800D01*
X-10334909Y9829799D01*
X-10338342Y9828050D01*
X-10428050Y9738342D01*
X-10485646Y9625304D01*
X-10505492Y9500000D01*
X-30016450Y9500000D01*
X-29416450Y10100000D01*
X-6205492Y10100000D01*
X-6204889Y10096193D01*
X-6195716Y10038279D01*
X-6185646Y9974696D01*
X-6180660Y9964911D01*
X-6135535Y9876349D01*
X-6128050Y9861658D01*
X-6038342Y9771950D01*
X-6034909Y9770201D01*
X-6034908Y9770200D01*
X-5997239Y9751007D01*
X-5925304Y9714354D01*
X-5921499Y9713751D01*
X-5921498Y9713751D01*
X-5803807Y9695111D01*
X-5800000Y9694508D01*
X-5796193Y9695111D01*
X-5678502Y9713751D01*
X-5678501Y9713751D01*
X-5674696Y9714354D01*
X-5602761Y9751007D01*
X-5565092Y9770200D01*
X-5565091Y9770201D01*
X-5561658Y9771950D01*
X-5471950Y9861658D01*
X-5464464Y9876349D01*
X-5419340Y9964911D01*
X-5414354Y9974696D01*
X-5404283Y10038279D01*
X-5395111Y10096193D01*
X-5394508Y10100000D01*
X-5400655Y10138810D01*
X-5413751Y10221498D01*
X-5413751Y10221499D01*
X-5414354Y10225304D01*
X-5471950Y10338342D01*
X-5561658Y10428050D01*
X-5565091Y10429799D01*
X-5565092Y10429800D01*
X-5618177Y10456848D01*
X-5674696Y10485646D01*
X-5678501Y10486249D01*
X-5678502Y10486249D01*
X-5778602Y10502103D01*
X-5798032Y10514009D01*
X-5821398Y10502103D01*
X-5921498Y10486249D01*
X-5921499Y10486249D01*
X-5925304Y10485646D01*
X-5981823Y10456848D01*
X-6034908Y10429800D01*
X-6034909Y10429799D01*
X-6038342Y10428050D01*
X-6128050Y10338342D01*
X-6185646Y10225304D01*
X-6186249Y10221499D01*
X-6186249Y10221498D01*
X-6199345Y10138810D01*
X-6205492Y10100000D01*
X-29416450Y10100000D01*
X-28931302Y10585148D01*
X-28896654Y10599500D01*
X-5829063Y10599500D01*
X-5801102Y10587918D01*
G37*
%TD.AperFunction*%
%TD*%
M02*
