%TF.GenerationSoftware,KiCad,Pcbnew,(6.0.5)*%
%TF.CreationDate,2022-11-25T19:57:39-05:00*%
%TF.ProjectId,Rotini-Hardware,526f7469-6e69-42d4-9861-726477617265,rev?*%
%TF.SameCoordinates,Original*%
%TF.FileFunction,Copper,L1,Top*%
%TF.FilePolarity,Positive*%
%FSLAX46Y46*%
G04 Gerber Fmt 4.6, Leading zero omitted, Abs format (unit mm)*
G04 Created by KiCad (PCBNEW (6.0.5)) date 2022-11-25 19:57:39*
%MOMM*%
%LPD*%
G01*
G04 APERTURE LIST*
G04 Aperture macros list*
%AMRoundRect*
0 Rectangle with rounded corners*
0 $1 Rounding radius*
0 $2 $3 $4 $5 $6 $7 $8 $9 X,Y pos of 4 corners*
0 Add a 4 corners polygon primitive as box body*
4,1,4,$2,$3,$4,$5,$6,$7,$8,$9,$2,$3,0*
0 Add four circle primitives for the rounded corners*
1,1,$1+$1,$2,$3*
1,1,$1+$1,$4,$5*
1,1,$1+$1,$6,$7*
1,1,$1+$1,$8,$9*
0 Add four rect primitives between the rounded corners*
20,1,$1+$1,$2,$3,$4,$5,0*
20,1,$1+$1,$4,$5,$6,$7,0*
20,1,$1+$1,$6,$7,$8,$9,0*
20,1,$1+$1,$8,$9,$2,$3,0*%
%AMRotRect*
0 Rectangle, with rotation*
0 The origin of the aperture is its center*
0 $1 length*
0 $2 width*
0 $3 Rotation angle, in degrees counterclockwise*
0 Add horizontal line*
21,1,$1,$2,0,0,$3*%
%AMFreePoly0*
4,1,13,0.500000,-0.500000,0.000000,-0.500000,-0.095671,-0.480970,-0.176777,-0.426777,-0.230970,-0.345671,-0.250000,-0.250000,-0.250000,0.250000,-0.230970,0.345671,-0.176777,0.426777,-0.095671,0.480970,0.000000,0.500000,0.500000,0.500000,0.500000,-0.500000,0.500000,-0.500000,$1*%
%AMFreePoly1*
4,1,13,0.095671,0.480970,0.176777,0.426777,0.230970,0.345671,0.250000,0.250000,0.250000,-0.250000,0.230970,-0.345671,0.176777,-0.426777,0.095671,-0.480970,0.000000,-0.500000,-0.500000,-0.500000,-0.500000,0.500000,0.000000,0.500000,0.095671,0.480970,0.095671,0.480970,$1*%
G04 Aperture macros list end*
%TA.AperFunction,SMDPad,CuDef*%
%ADD10RoundRect,0.135000X0.185000X-0.135000X0.185000X0.135000X-0.185000X0.135000X-0.185000X-0.135000X0*%
%TD*%
%TA.AperFunction,SMDPad,CuDef*%
%ADD11RoundRect,0.135000X0.135000X0.185000X-0.135000X0.185000X-0.135000X-0.185000X0.135000X-0.185000X0*%
%TD*%
%TA.AperFunction,SMDPad,CuDef*%
%ADD12RoundRect,0.135000X-0.135000X-0.185000X0.135000X-0.185000X0.135000X0.185000X-0.135000X0.185000X0*%
%TD*%
%TA.AperFunction,SMDPad,CuDef*%
%ADD13FreePoly0,270.000000*%
%TD*%
%TA.AperFunction,SMDPad,CuDef*%
%ADD14FreePoly1,270.000000*%
%TD*%
%TA.AperFunction,SMDPad,CuDef*%
%ADD15RoundRect,0.140000X-0.170000X0.140000X-0.170000X-0.140000X0.170000X-0.140000X0.170000X0.140000X0*%
%TD*%
%TA.AperFunction,SMDPad,CuDef*%
%ADD16R,1.000000X1.000000*%
%TD*%
%TA.AperFunction,SMDPad,CuDef*%
%ADD17RoundRect,0.218750X-0.218750X-0.256250X0.218750X-0.256250X0.218750X0.256250X-0.218750X0.256250X0*%
%TD*%
%TA.AperFunction,SMDPad,CuDef*%
%ADD18RoundRect,0.150000X-0.587500X-0.150000X0.587500X-0.150000X0.587500X0.150000X-0.587500X0.150000X0*%
%TD*%
%TA.AperFunction,SMDPad,CuDef*%
%ADD19RoundRect,0.135000X-0.185000X0.135000X-0.185000X-0.135000X0.185000X-0.135000X0.185000X0.135000X0*%
%TD*%
%TA.AperFunction,SMDPad,CuDef*%
%ADD20RoundRect,0.140000X-0.140000X-0.170000X0.140000X-0.170000X0.140000X0.170000X-0.140000X0.170000X0*%
%TD*%
%TA.AperFunction,ComponentPad*%
%ADD21R,1.700000X1.700000*%
%TD*%
%TA.AperFunction,ComponentPad*%
%ADD22O,1.700000X1.700000*%
%TD*%
%TA.AperFunction,SMDPad,CuDef*%
%ADD23RoundRect,0.225000X0.250000X-0.225000X0.250000X0.225000X-0.250000X0.225000X-0.250000X-0.225000X0*%
%TD*%
%TA.AperFunction,SMDPad,CuDef*%
%ADD24RoundRect,0.140000X0.140000X0.170000X-0.140000X0.170000X-0.140000X-0.170000X0.140000X-0.170000X0*%
%TD*%
%TA.AperFunction,SMDPad,CuDef*%
%ADD25RoundRect,0.140000X0.170000X-0.140000X0.170000X0.140000X-0.170000X0.140000X-0.170000X-0.140000X0*%
%TD*%
%TA.AperFunction,SMDPad,CuDef*%
%ADD26R,1.160000X0.600000*%
%TD*%
%TA.AperFunction,SMDPad,CuDef*%
%ADD27R,1.160000X0.300000*%
%TD*%
%TA.AperFunction,ComponentPad*%
%ADD28O,2.000000X0.900000*%
%TD*%
%TA.AperFunction,ComponentPad*%
%ADD29O,1.700000X0.900000*%
%TD*%
%TA.AperFunction,SMDPad,CuDef*%
%ADD30RoundRect,0.250000X-0.312500X-0.625000X0.312500X-0.625000X0.312500X0.625000X-0.312500X0.625000X0*%
%TD*%
%TA.AperFunction,SMDPad,CuDef*%
%ADD31RoundRect,0.050000X-0.387500X-0.050000X0.387500X-0.050000X0.387500X0.050000X-0.387500X0.050000X0*%
%TD*%
%TA.AperFunction,SMDPad,CuDef*%
%ADD32RoundRect,0.050000X-0.050000X-0.387500X0.050000X-0.387500X0.050000X0.387500X-0.050000X0.387500X0*%
%TD*%
%TA.AperFunction,SMDPad,CuDef*%
%ADD33R,4.000000X4.000000*%
%TD*%
%TA.AperFunction,SMDPad,CuDef*%
%ADD34RoundRect,0.150000X0.587500X0.150000X-0.587500X0.150000X-0.587500X-0.150000X0.587500X-0.150000X0*%
%TD*%
%TA.AperFunction,SMDPad,CuDef*%
%ADD35RoundRect,0.212500X0.887500X-0.212500X0.887500X0.212500X-0.887500X0.212500X-0.887500X-0.212500X0*%
%TD*%
%TA.AperFunction,SMDPad,CuDef*%
%ADD36RoundRect,0.075000X-0.350000X-0.075000X0.350000X-0.075000X0.350000X0.075000X-0.350000X0.075000X0*%
%TD*%
%TA.AperFunction,SMDPad,CuDef*%
%ADD37RoundRect,0.075000X-0.075000X-0.350000X0.075000X-0.350000X0.075000X0.350000X-0.075000X0.350000X0*%
%TD*%
%TA.AperFunction,SMDPad,CuDef*%
%ADD38R,2.650000X2.650000*%
%TD*%
%TA.AperFunction,SMDPad,CuDef*%
%ADD39RoundRect,0.140000X0.219203X0.021213X0.021213X0.219203X-0.219203X-0.021213X-0.021213X-0.219203X0*%
%TD*%
%TA.AperFunction,ComponentPad*%
%ADD40C,1.778000*%
%TD*%
%TA.AperFunction,SMDPad,CuDef*%
%ADD41RotRect,1.000000X0.300000X135.000000*%
%TD*%
%TA.AperFunction,SMDPad,CuDef*%
%ADD42RotRect,0.300000X1.000000X135.000000*%
%TD*%
%TA.AperFunction,SMDPad,CuDef*%
%ADD43R,0.600000X1.160000*%
%TD*%
%TA.AperFunction,SMDPad,CuDef*%
%ADD44R,0.300000X1.160000*%
%TD*%
%TA.AperFunction,ComponentPad*%
%ADD45O,0.900000X2.000000*%
%TD*%
%TA.AperFunction,ComponentPad*%
%ADD46O,0.900000X1.700000*%
%TD*%
%TA.AperFunction,SMDPad,CuDef*%
%ADD47RoundRect,0.062500X0.337500X0.062500X-0.337500X0.062500X-0.337500X-0.062500X0.337500X-0.062500X0*%
%TD*%
%TA.AperFunction,SMDPad,CuDef*%
%ADD48RoundRect,0.062500X0.062500X0.337500X-0.062500X0.337500X-0.062500X-0.337500X0.062500X-0.337500X0*%
%TD*%
%TA.AperFunction,SMDPad,CuDef*%
%ADD49R,3.350000X3.350000*%
%TD*%
%TA.AperFunction,SMDPad,CuDef*%
%ADD50R,0.800000X0.900000*%
%TD*%
%TA.AperFunction,SMDPad,CuDef*%
%ADD51RoundRect,0.147500X0.172500X-0.147500X0.172500X0.147500X-0.172500X0.147500X-0.172500X-0.147500X0*%
%TD*%
%TA.AperFunction,SMDPad,CuDef*%
%ADD52RoundRect,0.150000X-0.150000X0.512500X-0.150000X-0.512500X0.150000X-0.512500X0.150000X0.512500X0*%
%TD*%
%TA.AperFunction,SMDPad,CuDef*%
%ADD53FreePoly0,90.000000*%
%TD*%
%TA.AperFunction,SMDPad,CuDef*%
%ADD54FreePoly1,90.000000*%
%TD*%
%TA.AperFunction,SMDPad,CuDef*%
%ADD55RoundRect,0.150000X-0.625000X0.150000X-0.625000X-0.150000X0.625000X-0.150000X0.625000X0.150000X0*%
%TD*%
%TA.AperFunction,SMDPad,CuDef*%
%ADD56RoundRect,0.250000X-0.650000X0.350000X-0.650000X-0.350000X0.650000X-0.350000X0.650000X0.350000X0*%
%TD*%
%TA.AperFunction,SMDPad,CuDef*%
%ADD57R,1.000000X1.050000*%
%TD*%
%TA.AperFunction,SMDPad,CuDef*%
%ADD58R,1.050000X2.200000*%
%TD*%
%TA.AperFunction,SMDPad,CuDef*%
%ADD59RoundRect,0.147500X0.147500X0.172500X-0.147500X0.172500X-0.147500X-0.172500X0.147500X-0.172500X0*%
%TD*%
%TA.AperFunction,SMDPad,CuDef*%
%ADD60R,0.900000X0.800000*%
%TD*%
%TA.AperFunction,SMDPad,CuDef*%
%ADD61RoundRect,0.062500X-0.062500X0.337500X-0.062500X-0.337500X0.062500X-0.337500X0.062500X0.337500X0*%
%TD*%
%TA.AperFunction,SMDPad,CuDef*%
%ADD62RoundRect,0.062500X-0.337500X0.062500X-0.337500X-0.062500X0.337500X-0.062500X0.337500X0.062500X0*%
%TD*%
%TA.AperFunction,SMDPad,CuDef*%
%ADD63R,3.700000X3.700000*%
%TD*%
%TA.AperFunction,SMDPad,CuDef*%
%ADD64RoundRect,0.150000X0.625000X-0.150000X0.625000X0.150000X-0.625000X0.150000X-0.625000X-0.150000X0*%
%TD*%
%TA.AperFunction,SMDPad,CuDef*%
%ADD65RoundRect,0.250000X0.650000X-0.350000X0.650000X0.350000X-0.650000X0.350000X-0.650000X-0.350000X0*%
%TD*%
%TA.AperFunction,ViaPad*%
%ADD66C,0.400000*%
%TD*%
%TA.AperFunction,Conductor*%
%ADD67C,0.406400*%
%TD*%
%TA.AperFunction,Conductor*%
%ADD68C,0.203200*%
%TD*%
%TA.AperFunction,Conductor*%
%ADD69C,0.200000*%
%TD*%
%TA.AperFunction,Conductor*%
%ADD70C,0.279400*%
%TD*%
G04 APERTURE END LIST*
D10*
%TO.P,R52,1*%
%TO.N,Net-(R52-Pad1)*%
X19800000Y-2930000D03*
%TO.P,R52,2*%
%TO.N,+3V3*%
X19800000Y-1910000D03*
%TD*%
D11*
%TO.P,R60,1*%
%TO.N,+3V3*%
X-5765000Y9400000D03*
%TO.P,R60,2*%
%TO.N,Net-(C64-Pad2)*%
X-6785000Y9400000D03*
%TD*%
D12*
%TO.P,R63,1*%
%TO.N,CHIP_EN*%
X-12385000Y10275000D03*
%TO.P,R63,2*%
%TO.N,+3V3*%
X-11365000Y10275000D03*
%TD*%
D13*
%TO.P,JP2,1,A*%
%TO.N,GND*%
X18800000Y6200000D03*
D14*
%TO.P,JP2,2,B*%
%TO.N,E_EN*%
X18800000Y5000000D03*
%TD*%
D15*
%TO.P,C50,1*%
%TO.N,GND*%
X22200000Y-1940000D03*
%TO.P,C50,2*%
%TO.N,Net-(C50-Pad2)*%
X22200000Y-2900000D03*
%TD*%
D16*
%TO.P,D42,1,K*%
%TO.N,SNS_VIN*%
X-14200000Y-7450000D03*
%TO.P,D42,2,A*%
%TO.N,GND*%
X-14200000Y-9950000D03*
%TD*%
D17*
%TO.P,D60,1,K*%
%TO.N,GND*%
X-16687500Y10100000D03*
%TO.P,D60,2,A*%
%TO.N,Net-(D60-Pad2)*%
X-15112500Y10100000D03*
%TD*%
D16*
%TO.P,D20,1,K*%
%TO.N,VCC*%
X-16600000Y-7450000D03*
%TO.P,D20,2,A*%
%TO.N,VBUS*%
X-16600000Y-9950000D03*
%TD*%
D18*
%TO.P,Q50,1,B*%
%TO.N,Net-(Q50-Pad1)*%
X17025000Y2850000D03*
%TO.P,Q50,2,E*%
%TO.N,CP_RTS*%
X17025000Y950000D03*
%TO.P,Q50,3,C*%
%TO.N,E_EN*%
X18900000Y1900000D03*
%TD*%
D19*
%TO.P,R33,1*%
%TO.N,VCC*%
X-19800000Y1610000D03*
%TO.P,R33,2*%
%TO.N,Net-(Q32-Pad1)*%
X-19800000Y590000D03*
%TD*%
D15*
%TO.P,C12,1*%
%TO.N,GND*%
X10700000Y9580000D03*
%TO.P,C12,2*%
%TO.N,Net-(C12-Pad2)*%
X10700000Y8620000D03*
%TD*%
D20*
%TO.P,C63,1*%
%TO.N,+3V3*%
X-8455000Y10275000D03*
%TO.P,C63,2*%
%TO.N,GND*%
X-7495000Y10275000D03*
%TD*%
D10*
%TO.P,R41,1*%
%TO.N,LED_MISC*%
X21000000Y8190000D03*
%TO.P,R41,2*%
%TO.N,Net-(D41-Pad2)*%
X21000000Y9210000D03*
%TD*%
D20*
%TO.P,C10,1*%
%TO.N,GND*%
X5820000Y8600000D03*
%TO.P,C10,2*%
%TO.N,+3V3*%
X6780000Y8600000D03*
%TD*%
D17*
%TO.P,D40,1,K*%
%TO.N,GND*%
X18412500Y10000000D03*
%TO.P,D40,2,A*%
%TO.N,Net-(D40-Pad2)*%
X19987500Y10000000D03*
%TD*%
D20*
%TO.P,C62,1*%
%TO.N,+3V3*%
X-6755000Y7000000D03*
%TO.P,C62,2*%
%TO.N,GND*%
X-5795000Y7000000D03*
%TD*%
D19*
%TO.P,R56,1*%
%TO.N,GND*%
X4800000Y-4000000D03*
%TO.P,R56,2*%
%TO.N,Net-(R56-Pad2)*%
X4800000Y-5020000D03*
%TD*%
D12*
%TO.P,R51,1*%
%TO.N,CP_RTS*%
X19552500Y0D03*
%TO.P,R51,2*%
%TO.N,Net-(Q51-Pad1)*%
X20572500Y0D03*
%TD*%
D13*
%TO.P,JP60,1,A*%
%TO.N,GPIO0*%
X-13100000Y700000D03*
D14*
%TO.P,JP60,2,B*%
%TO.N,GND*%
X-13100000Y-500000D03*
%TD*%
D21*
%TO.P,J2,1,Pin_1*%
%TO.N,E_RXD*%
X15700000Y6625000D03*
D22*
%TO.P,J2,2,Pin_2*%
%TO.N,E_TXD*%
X15700000Y9165000D03*
%TD*%
D23*
%TO.P,C20,1*%
%TO.N,VCC*%
X-10700000Y-9975000D03*
%TO.P,C20,2*%
%TO.N,GND*%
X-10700000Y-8425000D03*
%TD*%
D20*
%TO.P,C4,1*%
%TO.N,GND*%
X7520000Y-1800000D03*
%TO.P,C4,2*%
%TO.N,+3V3*%
X8480000Y-1800000D03*
%TD*%
D19*
%TO.P,R54,1*%
%TO.N,GND*%
X27200000Y1710000D03*
%TO.P,R54,2*%
%TO.N,Net-(R54-Pad2)*%
X27200000Y690000D03*
%TD*%
D15*
%TO.P,C52,1*%
%TO.N,GND*%
X20600000Y-1940000D03*
%TO.P,C52,2*%
%TO.N,VBUS*%
X20600000Y-2900000D03*
%TD*%
D24*
%TO.P,C102,1*%
%TO.N,Net-(C102-Pad1)*%
X-23240000Y10200000D03*
%TO.P,C102,2*%
%TO.N,GND*%
X-24200000Y10200000D03*
%TD*%
D25*
%TO.P,C7,1*%
%TO.N,GND*%
X14800000Y-100000D03*
%TO.P,C7,2*%
%TO.N,+3V3*%
X14800000Y860000D03*
%TD*%
D11*
%TO.P,R67,1*%
%TO.N,GPIO16*%
X-13090000Y10275000D03*
%TO.P,R67,2*%
%TO.N,Net-(D60-Pad2)*%
X-14110000Y10275000D03*
%TD*%
D26*
%TO.P,U51,A1,GND*%
%TO.N,GND*%
X24090000Y-8300000D03*
%TO.P,U51,A4,VBUS*%
%TO.N,VBUS*%
X24090000Y-7500000D03*
D27*
%TO.P,U51,A5,CC1*%
%TO.N,Net-(R54-Pad2)*%
X24090000Y-6350000D03*
%TO.P,U51,A6,D+*%
%TO.N,Net-(U50-Pad4)*%
X24090000Y-5350000D03*
%TO.P,U51,A7,D-*%
%TO.N,Net-(U50-Pad5)*%
X24090000Y-4850000D03*
%TO.P,U51,A8,SBU1*%
%TO.N,unconnected-(U51-PadA8)*%
X24090000Y-3850000D03*
D26*
%TO.P,U51,A9,VBUS*%
%TO.N,VBUS*%
X24090000Y-2700000D03*
%TO.P,U51,A12,GND*%
%TO.N,GND*%
X24090000Y-1900000D03*
%TO.P,U51,B1,GND*%
X24090000Y-1900000D03*
%TO.P,U51,B4,VBUS*%
%TO.N,VBUS*%
X24090000Y-2700000D03*
D27*
%TO.P,U51,B5,CC2*%
%TO.N,Net-(R55-Pad2)*%
X24090000Y-3350000D03*
%TO.P,U51,B6,D+*%
%TO.N,Net-(U50-Pad4)*%
X24090000Y-4350000D03*
%TO.P,U51,B7,D-*%
%TO.N,Net-(U50-Pad5)*%
X24090000Y-5850000D03*
%TO.P,U51,B8,SBU2*%
%TO.N,unconnected-(U51-PadB8)*%
X24090000Y-6850000D03*
D26*
%TO.P,U51,B9,VBUS*%
%TO.N,VBUS*%
X24090000Y-7500000D03*
%TO.P,U51,B12,GND*%
%TO.N,GND*%
X24090000Y-8300000D03*
D28*
%TO.P,U51,S1,SHIELD*%
%TO.N,unconnected-(U51-PadS1)*%
X24670000Y-9420000D03*
X24670000Y-780000D03*
D29*
X28840000Y-9420000D03*
X28840000Y-780000D03*
%TD*%
D24*
%TO.P,C13,1*%
%TO.N,E_EN*%
X4280000Y6200000D03*
%TO.P,C13,2*%
%TO.N,GND*%
X3320000Y6200000D03*
%TD*%
D30*
%TO.P,R8,1*%
%TO.N,unconnected-(R8-Pad1)*%
X-2462500Y4400000D03*
%TO.P,R8,2*%
%TO.N,unconnected-(R8-Pad2)*%
X462500Y4400000D03*
%TD*%
D24*
%TO.P,C61,1*%
%TO.N,GND*%
X-5420000Y3175000D03*
%TO.P,C61,2*%
%TO.N,Net-(C61-Pad2)*%
X-6380000Y3175000D03*
%TD*%
D12*
%TO.P,R4,1*%
%TO.N,Net-(R4-Pad1)*%
X14790000Y-1800000D03*
%TO.P,R4,2*%
%TO.N,+3V3*%
X15810000Y-1800000D03*
%TD*%
D17*
%TO.P,D41,1,K*%
%TO.N,GND*%
X18412500Y8400000D03*
%TO.P,D41,2,A*%
%TO.N,Net-(D41-Pad2)*%
X19987500Y8400000D03*
%TD*%
D11*
%TO.P,R50,1*%
%TO.N,CP_DTR*%
X20572500Y800000D03*
%TO.P,R50,2*%
%TO.N,Net-(Q50-Pad1)*%
X19552500Y800000D03*
%TD*%
D10*
%TO.P,R36,1*%
%TO.N,Net-(Q33-Pad1)*%
X-14800000Y-1310000D03*
%TO.P,R36,2*%
%TO.N,LED_2*%
X-14800000Y-290000D03*
%TD*%
D11*
%TO.P,R20,1*%
%TO.N,+3V3*%
X-8290000Y-5000000D03*
%TO.P,R20,2*%
%TO.N,Net-(C22-Pad2)*%
X-9310000Y-5000000D03*
%TD*%
D24*
%TO.P,C11,1*%
%TO.N,Net-(C11-Pad1)*%
X6780000Y10200000D03*
%TO.P,C11,2*%
%TO.N,GND*%
X5820000Y10200000D03*
%TD*%
D20*
%TO.P,C70,1*%
%TO.N,Net-(C70-Pad1)*%
X-16780000Y2050000D03*
%TO.P,C70,2*%
%TO.N,GND*%
X-15820000Y2050000D03*
%TD*%
D31*
%TO.P,U1,1,VDDA*%
%TO.N,+3V3*%
X6062500Y6000000D03*
%TO.P,U1,2,LNA_IN*%
%TO.N,unconnected-(U1-Pad2)*%
X6062500Y5600000D03*
%TO.P,U1,3,VDD3P3*%
%TO.N,+3V3*%
X6062500Y5200000D03*
%TO.P,U1,4,VDD3P3*%
X6062500Y4800000D03*
%TO.P,U1,5,GPIO0*%
%TO.N,E_IO0*%
X6062500Y4400000D03*
%TO.P,U1,6,GPIO1*%
%TO.N,unconnected-(U1-Pad6)*%
X6062500Y4000000D03*
%TO.P,U1,7,GPIO2*%
%TO.N,unconnected-(U1-Pad7)*%
X6062500Y3600000D03*
%TO.P,U1,8,GPIO3*%
%TO.N,SNS_VIN*%
X6062500Y3200000D03*
%TO.P,U1,9,GPIO4*%
%TO.N,unconnected-(U1-Pad9)*%
X6062500Y2800000D03*
%TO.P,U1,10,GPIO5*%
%TO.N,unconnected-(U1-Pad10)*%
X6062500Y2400000D03*
%TO.P,U1,11,GPIO6*%
%TO.N,unconnected-(U1-Pad11)*%
X6062500Y2000000D03*
%TO.P,U1,12,GPIO7*%
%TO.N,X_TX*%
X6062500Y1600000D03*
%TO.P,U1,13,GPIO8*%
%TO.N,X_RX*%
X6062500Y1200000D03*
%TO.P,U1,14,GPIO9*%
%TO.N,LED_2*%
X6062500Y800000D03*
D32*
%TO.P,U1,15,GPIO10*%
%TO.N,LED_1*%
X6900000Y-37500D03*
%TO.P,U1,16,GPIO11*%
%TO.N,P_SCK*%
X7300000Y-37500D03*
%TO.P,U1,17,GPIO12*%
%TO.N,A1_CS*%
X7700000Y-37500D03*
%TO.P,U1,18,GPIO13*%
%TO.N,P_MOSI*%
X8100000Y-37500D03*
%TO.P,U1,19,GPIO14*%
%TO.N,P_MISO*%
X8500000Y-37500D03*
%TO.P,U1,20,VDD3P3_RTC*%
%TO.N,+3V3*%
X8900000Y-37500D03*
%TO.P,U1,21,XTAL32K_P*%
%TO.N,unconnected-(U1-Pad21)*%
X9300000Y-37500D03*
%TO.P,U1,22,XTAL_32K_N*%
%TO.N,unconnected-(U1-Pad22)*%
X9700000Y-37500D03*
%TO.P,U1,23,DAC_1*%
%TO.N,unconnected-(U1-Pad23)*%
X10100000Y-37500D03*
%TO.P,U1,24,DAC_2*%
%TO.N,Net-(R3-Pad1)*%
X10500000Y-37500D03*
%TO.P,U1,25,GPIO19*%
%TO.N,E_D-*%
X10900000Y-37500D03*
%TO.P,U1,26,GPIO20*%
%TO.N,E_D+*%
X11300000Y-37500D03*
%TO.P,U1,27,VDD3P3_RTC_IO*%
%TO.N,+3V3*%
X11700000Y-37500D03*
%TO.P,U1,28,GPIO21*%
%TO.N,Net-(R4-Pad1)*%
X12100000Y-37500D03*
D31*
%TO.P,U1,29,29SPIS1*%
%TO.N,unconnected-(U1-Pad29)*%
X12937500Y800000D03*
%TO.P,U1,30,VDD_SPI*%
%TO.N,+3V3*%
X12937500Y1200000D03*
%TO.P,U1,31,SPIHD*%
%TO.N,unconnected-(U1-Pad31)*%
X12937500Y1600000D03*
%TO.P,U1,32,SPIWD*%
%TO.N,unconnected-(U1-Pad32)*%
X12937500Y2000000D03*
%TO.P,U1,33,SPIS0*%
%TO.N,unconnected-(U1-Pad33)*%
X12937500Y2400000D03*
%TO.P,U1,34,SPICLK*%
%TO.N,unconnected-(U1-Pad34)*%
X12937500Y2800000D03*
%TO.P,U1,35,SPIQ*%
%TO.N,unconnected-(U1-Pad35)*%
X12937500Y3200000D03*
%TO.P,U1,36,SPID*%
%TO.N,unconnected-(U1-Pad36)*%
X12937500Y3600000D03*
%TO.P,U1,37,GPIO33*%
%TO.N,unconnected-(U1-Pad37)*%
X12937500Y4000000D03*
%TO.P,U1,38,GPIO34*%
%TO.N,PPM_F*%
X12937500Y4400000D03*
%TO.P,U1,39,GPIO35*%
%TO.N,PPM_B*%
X12937500Y4800000D03*
%TO.P,U1,40,GPIO36*%
%TO.N,LED_MISC*%
X12937500Y5200000D03*
%TO.P,U1,41,GPIO37*%
%TO.N,unconnected-(U1-Pad41)*%
X12937500Y5600000D03*
%TO.P,U1,42,GPIO38*%
%TO.N,unconnected-(U1-Pad42)*%
X12937500Y6000000D03*
D32*
%TO.P,U1,43,MTCK*%
%TO.N,unconnected-(U1-Pad43)*%
X12100000Y6837500D03*
%TO.P,U1,44,MTDO*%
%TO.N,unconnected-(U1-Pad44)*%
X11700000Y6837500D03*
%TO.P,U1,45,VDD3P3_CPU*%
%TO.N,+3V3*%
X11300000Y6837500D03*
%TO.P,U1,46,MTDI*%
%TO.N,unconnected-(U1-Pad46)*%
X10900000Y6837500D03*
%TO.P,U1,47,MTMS*%
%TO.N,unconnected-(U1-Pad47)*%
X10500000Y6837500D03*
%TO.P,U1,48,U0TXD*%
%TO.N,Net-(R2-Pad2)*%
X10100000Y6837500D03*
%TO.P,U1,49,U0RXD*%
%TO.N,E_RXD*%
X9700000Y6837500D03*
%TO.P,U1,50,GPIO45*%
%TO.N,unconnected-(U1-Pad50)*%
X9300000Y6837500D03*
%TO.P,U1,51,VDDA*%
%TO.N,+3V3*%
X8900000Y6837500D03*
%TO.P,U1,52,XTAL_N*%
%TO.N,Net-(C12-Pad2)*%
X8500000Y6837500D03*
%TO.P,U1,53,XTAL_P*%
%TO.N,Net-(C11-Pad1)*%
X8100000Y6837500D03*
%TO.P,U1,54,VDDA*%
%TO.N,+3V3*%
X7700000Y6837500D03*
%TO.P,U1,55,GPIO46*%
%TO.N,A2_CS*%
X7300000Y6837500D03*
%TO.P,U1,56,CHIP_PU*%
%TO.N,E_EN*%
X6900000Y6837500D03*
D33*
%TO.P,U1,57,EPAD*%
%TO.N,GND*%
X9500000Y3400000D03*
%TD*%
D20*
%TO.P,C9,1*%
%TO.N,GND*%
X5820000Y9400000D03*
%TO.P,C9,2*%
%TO.N,+3V3*%
X6780000Y9400000D03*
%TD*%
D34*
%TO.P,Q20,1,G*%
%TO.N,Net-(D21-Pad2)*%
X-21362500Y-8250000D03*
%TO.P,Q20,2,S*%
%TO.N,VCC*%
X-21362500Y-6350000D03*
%TO.P,Q20,3,D*%
%TO.N,Net-(J202-Pad3)*%
X-23237500Y-7300000D03*
%TD*%
D24*
%TO.P,C74,1*%
%TO.N,Net-(C74-Pad1)*%
X-22320000Y7550000D03*
%TO.P,C74,2*%
%TO.N,GND*%
X-23280000Y7550000D03*
%TD*%
D11*
%TO.P,R1,1*%
%TO.N,E_EN*%
X4310000Y7000000D03*
%TO.P,R1,2*%
%TO.N,+3V3*%
X3290000Y7000000D03*
%TD*%
D35*
%TO.P,L20,1,1*%
%TO.N,Net-(C21-Pad2)*%
X-5500000Y-6625000D03*
%TO.P,L20,2,2*%
%TO.N,+3V3*%
X-5500000Y-4975000D03*
%TD*%
D10*
%TO.P,R32,1*%
%TO.N,Net-(Q31-Pad1)*%
X-14800000Y-5010000D03*
%TO.P,R32,2*%
%TO.N,LED_1*%
X-14800000Y-3990000D03*
%TD*%
D19*
%TO.P,R43,1*%
%TO.N,GND*%
X-11900000Y-6490000D03*
%TO.P,R43,2*%
%TO.N,SNS_VIN*%
X-11900000Y-7510000D03*
%TD*%
%TO.P,R2,1*%
%TO.N,E_TXD*%
X11700000Y9610000D03*
%TO.P,R2,2*%
%TO.N,Net-(R2-Pad2)*%
X11700000Y8590000D03*
%TD*%
D15*
%TO.P,C6,1*%
%TO.N,GND*%
X14800000Y2560000D03*
%TO.P,C6,2*%
%TO.N,+3V3*%
X14800000Y1600000D03*
%TD*%
D24*
%TO.P,C14,1*%
%TO.N,E_IO0*%
X4280000Y3000000D03*
%TO.P,C14,2*%
%TO.N,GND*%
X3320000Y3000000D03*
%TD*%
%TO.P,C104,1*%
%TO.N,Net-(C101-Pad1)*%
X-21525000Y10200000D03*
%TO.P,C104,2*%
%TO.N,Net-(C102-Pad1)*%
X-22485000Y10200000D03*
%TD*%
D20*
%TO.P,C1,1*%
%TO.N,GND*%
X3320000Y5400000D03*
%TO.P,C1,2*%
%TO.N,+3V3*%
X4280000Y5400000D03*
%TD*%
D36*
%TO.P,U70,1,VR_PA*%
%TO.N,Net-(C74-Pad1)*%
X-20580000Y7005000D03*
%TO.P,U70,2,VDD_IN*%
%TO.N,Net-(C70-Pad1)*%
X-20580000Y6505000D03*
%TO.P,U70,3,NRESET*%
%TO.N,GPIO2*%
X-20580000Y6005000D03*
%TO.P,U70,4,XTA*%
%TO.N,Net-(U70-Pad4)*%
X-20580000Y5505000D03*
%TO.P,U70,5,GND*%
%TO.N,GND*%
X-20580000Y5005000D03*
%TO.P,U70,6,XTB*%
%TO.N,Net-(U70-Pad6)*%
X-20580000Y4505000D03*
D37*
%TO.P,U70,7,BUSY*%
%TO.N,GPIO5*%
X-19880000Y3805000D03*
%TO.P,U70,8,DIO1*%
%TO.N,GPIO4*%
X-19380000Y3805000D03*
%TO.P,U70,9,DIO2*%
%TO.N,unconnected-(U70-Pad9)*%
X-18880000Y3805000D03*
%TO.P,U70,10,DIO3*%
%TO.N,unconnected-(U70-Pad10)*%
X-18380000Y3805000D03*
%TO.P,U70,11,VBAT_IO*%
%TO.N,+3V3*%
X-17880000Y3805000D03*
%TO.P,U70,12,DCC_FB*%
%TO.N,Net-(C70-Pad1)*%
X-17380000Y3805000D03*
D36*
%TO.P,U70,13,GND*%
%TO.N,GND*%
X-16680000Y4505000D03*
%TO.P,U70,14,DCC_SW*%
%TO.N,unconnected-(U70-Pad14)*%
X-16680000Y5005000D03*
%TO.P,U70,15,VBAT*%
%TO.N,+3V3*%
X-16680000Y5505000D03*
%TO.P,U70,16,MISO_TX*%
%TO.N,GPIO12*%
X-16680000Y6005000D03*
%TO.P,U70,17,MOSI_RX*%
%TO.N,GPIO13*%
X-16680000Y6505000D03*
%TO.P,U70,18,SCK_RTSN*%
%TO.N,GPIO14*%
X-16680000Y7005000D03*
D37*
%TO.P,U70,19,NSS_CTS*%
%TO.N,GPIO15*%
X-17380000Y7705000D03*
%TO.P,U70,20,GND*%
%TO.N,GND*%
X-17880000Y7705000D03*
%TO.P,U70,21,GND*%
X-18380000Y7705000D03*
%TO.P,U70,22,RFIO*%
%TO.N,Net-(C100-Pad1)*%
X-18880000Y7705000D03*
%TO.P,U70,23,GND*%
%TO.N,GND*%
X-19380000Y7705000D03*
%TO.P,U70,24,GND*%
X-19880000Y7705000D03*
D38*
%TO.P,U70,25,GND_PAD*%
X-18630000Y5755000D03*
%TD*%
D34*
%TO.P,Q33,1,G*%
%TO.N,Net-(Q33-Pad1)*%
X-16362500Y-1150000D03*
%TO.P,Q33,2,S*%
%TO.N,GND*%
X-16362500Y750000D03*
%TO.P,Q33,3,D*%
%TO.N,Net-(Q33-Pad3)*%
X-18237500Y-200000D03*
%TD*%
D15*
%TO.P,C51,1*%
%TO.N,GND*%
X21400000Y-1940000D03*
%TO.P,C51,2*%
%TO.N,VBUS*%
X21400000Y-2900000D03*
%TD*%
D19*
%TO.P,R66,1*%
%TO.N,GPIO15*%
X-15000000Y6210000D03*
%TO.P,R66,2*%
%TO.N,GND*%
X-15000000Y5190000D03*
%TD*%
D39*
%TO.P,C31,1*%
%TO.N,+3V3*%
X-2560589Y-6539411D03*
%TO.P,C31,2*%
%TO.N,GND*%
X-3239411Y-5860589D03*
%TD*%
D19*
%TO.P,R55,1*%
%TO.N,GND*%
X26100000Y1710000D03*
%TO.P,R55,2*%
%TO.N,Net-(R55-Pad2)*%
X26100000Y690000D03*
%TD*%
D20*
%TO.P,C3,1*%
%TO.N,GND*%
X3320000Y4600000D03*
%TO.P,C3,2*%
%TO.N,+3V3*%
X4280000Y4600000D03*
%TD*%
D40*
%TO.P,U30,1,CS*%
%TO.N,A2_CS*%
X3810000Y8990000D03*
%TO.P,U30,2,SA0*%
%TO.N,P_MISO*%
X1270000Y8990000D03*
%TO.P,U30,3,INT2*%
%TO.N,unconnected-(U30-Pad3)*%
X-1270000Y8990000D03*
%TO.P,U30,4,INT1*%
%TO.N,unconnected-(U30-Pad4)*%
X-3810000Y8990000D03*
%TO.P,U30,5,GND*%
%TO.N,GND*%
X-3810000Y-8790000D03*
%TO.P,U30,6,3V3*%
%TO.N,+3V3*%
X-1270000Y-8790000D03*
%TO.P,U30,7,SDA*%
%TO.N,P_MOSI*%
X1270000Y-8790000D03*
%TO.P,U30,8,SCL*%
%TO.N,P_SCK*%
X3810000Y-8790000D03*
%TD*%
D11*
%TO.P,R40,1*%
%TO.N,+3V3*%
X22010000Y10100000D03*
%TO.P,R40,2*%
%TO.N,Net-(D40-Pad2)*%
X20990000Y10100000D03*
%TD*%
D30*
%TO.P,R7,1*%
%TO.N,unconnected-(R7-Pad1)*%
X-2462500Y6500000D03*
%TO.P,R7,2*%
%TO.N,unconnected-(R7-Pad2)*%
X462500Y6500000D03*
%TD*%
D41*
%TO.P,U31,1,VDDIO*%
%TO.N,+3V3*%
X318198Y-6332412D03*
%TO.P,U31,2,NC*%
%TO.N,unconnected-(U31-Pad2)*%
X671751Y-5978858D03*
%TO.P,U31,3,NC*%
%TO.N,unconnected-(U31-Pad3)*%
X1025305Y-5625305D03*
%TO.P,U31,4,SCK*%
%TO.N,P_SCK*%
X1378858Y-5271751D03*
%TO.P,U31,5,GND*%
%TO.N,GND*%
X1732412Y-4918198D03*
D42*
%TO.P,U31,6,MOSI*%
%TO.N,P_MOSI*%
X1378858Y-3928249D03*
%TO.P,U31,7,MISO*%
%TO.N,P_MISO*%
X1025305Y-3574695D03*
%TO.P,U31,8,CS*%
%TO.N,A1_CS*%
X671751Y-3221142D03*
D41*
%TO.P,U31,9,INT2*%
%TO.N,unconnected-(U31-Pad9)*%
X-318198Y-2867588D03*
%TO.P,U31,10,GNDR*%
%TO.N,GND*%
X-671751Y-3221142D03*
%TO.P,U31,11,INT1*%
%TO.N,unconnected-(U31-Pad11)*%
X-1025305Y-3574695D03*
%TO.P,U31,12,GND*%
%TO.N,GND*%
X-1378858Y-3928249D03*
%TO.P,U31,13,GND*%
X-1732412Y-4281802D03*
D42*
%TO.P,U31,14,VDD*%
%TO.N,+3V3*%
X-1378858Y-5271751D03*
%TO.P,U31,15,VDDR*%
X-1025305Y-5625305D03*
%TO.P,U31,16,GND*%
%TO.N,GND*%
X-671751Y-5978858D03*
%TD*%
D43*
%TO.P,U52,A1,GND*%
%TO.N,GND*%
X7300000Y-3815000D03*
%TO.P,U52,A4,VBUS*%
%TO.N,VBUS*%
X8100000Y-3815000D03*
D44*
%TO.P,U52,A5,CC1*%
%TO.N,Net-(R56-Pad2)*%
X9250000Y-3815000D03*
%TO.P,U52,A6,D+*%
%TO.N,E_D+*%
X10250000Y-3815000D03*
%TO.P,U52,A7,D-*%
%TO.N,E_D-*%
X10750000Y-3815000D03*
%TO.P,U52,A8,SBU1*%
%TO.N,unconnected-(U52-PadA8)*%
X11750000Y-3815000D03*
D43*
%TO.P,U52,A9,VBUS*%
%TO.N,VBUS*%
X12900000Y-3815000D03*
%TO.P,U52,A12,GND*%
%TO.N,GND*%
X13700000Y-3815000D03*
%TO.P,U52,B1,GND*%
X13700000Y-3815000D03*
%TO.P,U52,B4,VBUS*%
%TO.N,VBUS*%
X12900000Y-3815000D03*
D44*
%TO.P,U52,B5,CC2*%
%TO.N,Net-(R57-Pad2)*%
X12250000Y-3815000D03*
%TO.P,U52,B6,D+*%
%TO.N,E_D+*%
X11250000Y-3815000D03*
%TO.P,U52,B7,D-*%
%TO.N,E_D-*%
X9750000Y-3815000D03*
%TO.P,U52,B8,SBU2*%
%TO.N,unconnected-(U52-PadB8)*%
X8750000Y-3815000D03*
D43*
%TO.P,U52,B9,VBUS*%
%TO.N,VBUS*%
X8100000Y-3815000D03*
%TO.P,U52,B12,GND*%
%TO.N,GND*%
X7300000Y-3815000D03*
D45*
%TO.P,U52,S1,SHIELD*%
%TO.N,unconnected-(U52-PadS1)*%
X6180000Y-4395000D03*
D46*
X14820000Y-8565000D03*
X6180000Y-8565000D03*
D45*
X14820000Y-4395000D03*
%TD*%
D34*
%TO.P,Q30,1,G*%
%TO.N,Net-(Q30-Pad1)*%
X-21362500Y-4350000D03*
%TO.P,Q30,2,S*%
%TO.N,VCC*%
X-21362500Y-2450000D03*
%TO.P,Q30,3,D*%
%TO.N,/LED1/LED_out*%
X-23237500Y-3400000D03*
%TD*%
D19*
%TO.P,R65,1*%
%TO.N,GPIO0*%
X-15000000Y4410000D03*
%TO.P,R65,2*%
%TO.N,+3V3*%
X-15000000Y3390000D03*
%TD*%
D24*
%TO.P,C5,1*%
%TO.N,GND*%
X12880000Y-1800000D03*
%TO.P,C5,2*%
%TO.N,+3V3*%
X11920000Y-1800000D03*
%TD*%
D11*
%TO.P,R64,1*%
%TO.N,GPIO2*%
X-22290000Y5900000D03*
%TO.P,R64,2*%
%TO.N,+3V3*%
X-23310000Y5900000D03*
%TD*%
D24*
%TO.P,C65,1*%
%TO.N,+3V3*%
X-9195000Y10275000D03*
%TO.P,C65,2*%
%TO.N,GND*%
X-10155000Y10275000D03*
%TD*%
D47*
%TO.P,U50,1,DCD*%
%TO.N,unconnected-(U50-Pad1)*%
X21850000Y-8500000D03*
%TO.P,U50,2,RI*%
%TO.N,unconnected-(U50-Pad2)*%
X21850000Y-8000000D03*
%TO.P,U50,3,GND*%
%TO.N,GND*%
X21850000Y-7500000D03*
%TO.P,U50,4,D+*%
%TO.N,Net-(U50-Pad4)*%
X21850000Y-7000000D03*
%TO.P,U50,5,D-*%
%TO.N,Net-(U50-Pad5)*%
X21850000Y-6500000D03*
%TO.P,U50,6,VDD*%
%TO.N,Net-(C50-Pad2)*%
X21850000Y-6000000D03*
%TO.P,U50,7,REGIN*%
%TO.N,VBUS*%
X21850000Y-5500000D03*
D48*
%TO.P,U50,8,VBUS*%
X20900000Y-4550000D03*
%TO.P,U50,9,RST*%
%TO.N,Net-(R52-Pad1)*%
X20400000Y-4550000D03*
%TO.P,U50,10*%
%TO.N,N/C*%
X19900000Y-4550000D03*
%TO.P,U50,11,SUSPEND*%
%TO.N,Net-(R53-Pad1)*%
X19400000Y-4550000D03*
%TO.P,U50,12,SUSPEND*%
%TO.N,unconnected-(U50-Pad12)*%
X18900000Y-4550000D03*
%TO.P,U50,13*%
%TO.N,N/C*%
X18400000Y-4550000D03*
%TO.P,U50,14*%
X17900000Y-4550000D03*
D47*
%TO.P,U50,15*%
X16950000Y-5500000D03*
%TO.P,U50,16*%
X16950000Y-6000000D03*
%TO.P,U50,17*%
X16950000Y-6500000D03*
%TO.P,U50,18*%
X16950000Y-7000000D03*
%TO.P,U50,19*%
X16950000Y-7500000D03*
%TO.P,U50,20*%
X16950000Y-8000000D03*
%TO.P,U50,21*%
X16950000Y-8500000D03*
D48*
%TO.P,U50,22*%
X17900000Y-9450000D03*
%TO.P,U50,23,CTS*%
%TO.N,unconnected-(U50-Pad23)*%
X18400000Y-9450000D03*
%TO.P,U50,24,RTS*%
%TO.N,CP_RTS*%
X18900000Y-9450000D03*
%TO.P,U50,25,RXD*%
%TO.N,E_RXD*%
X19400000Y-9450000D03*
%TO.P,U50,26,TXD*%
%TO.N,E_TXD*%
X19900000Y-9450000D03*
%TO.P,U50,27,DSR*%
%TO.N,unconnected-(U50-Pad27)*%
X20400000Y-9450000D03*
%TO.P,U50,28,DTR*%
%TO.N,CP_DTR*%
X20900000Y-9450000D03*
D49*
%TO.P,U50,29,PGND*%
%TO.N,GND*%
X19400000Y-7000000D03*
%TD*%
D50*
%TO.P,U2,1,1*%
%TO.N,Net-(C12-Pad2)*%
X9450000Y8700000D03*
%TO.P,U2,2,2*%
%TO.N,GND*%
X9450000Y10100000D03*
%TO.P,U2,3,3*%
%TO.N,Net-(C11-Pad1)*%
X8350000Y10100000D03*
%TO.P,U2,4,4*%
%TO.N,GND*%
X8350000Y8700000D03*
%TD*%
D24*
%TO.P,C40,1*%
%TO.N,SNS_VIN*%
X4280000Y2200000D03*
%TO.P,C40,2*%
%TO.N,GND*%
X3320000Y2200000D03*
%TD*%
D10*
%TO.P,R53,1*%
%TO.N,Net-(R53-Pad1)*%
X19000000Y-2930000D03*
%TO.P,R53,2*%
%TO.N,GND*%
X19000000Y-1910000D03*
%TD*%
D34*
%TO.P,Q31,1,G*%
%TO.N,Net-(Q31-Pad1)*%
X-16362500Y-5050000D03*
%TO.P,Q31,2,S*%
%TO.N,GND*%
X-16362500Y-3150000D03*
%TO.P,Q31,3,D*%
%TO.N,Net-(Q31-Pad3)*%
X-18237500Y-4100000D03*
%TD*%
D24*
%TO.P,C72,1*%
%TO.N,+3V3*%
X-17520000Y2050000D03*
%TO.P,C72,2*%
%TO.N,GND*%
X-18480000Y2050000D03*
%TD*%
D25*
%TO.P,C60,1*%
%TO.N,GND*%
X-3975000Y4495000D03*
%TO.P,C60,2*%
%TO.N,Net-(C60-Pad2)*%
X-3975000Y5455000D03*
%TD*%
D51*
%TO.P,L101,1,1*%
%TO.N,Net-(C100-Pad1)*%
X-20720000Y9315000D03*
%TO.P,L101,2,2*%
%TO.N,Net-(C101-Pad1)*%
X-20720000Y10285000D03*
%TD*%
D30*
%TO.P,R9,1*%
%TO.N,unconnected-(R9-Pad1)*%
X-4262500Y200000D03*
%TO.P,R9,2*%
%TO.N,unconnected-(R9-Pad2)*%
X-1337500Y200000D03*
%TD*%
D24*
%TO.P,C71,1*%
%TO.N,Net-(C70-Pad1)*%
X-22320000Y6750000D03*
%TO.P,C71,2*%
%TO.N,GND*%
X-23280000Y6750000D03*
%TD*%
D52*
%TO.P,U20,1,BS*%
%TO.N,Net-(C21-Pad1)*%
X-7550000Y-7462500D03*
%TO.P,U20,2,GND*%
%TO.N,GND*%
X-8500000Y-7462500D03*
%TO.P,U20,3,FB*%
%TO.N,Net-(C22-Pad2)*%
X-9450000Y-7462500D03*
%TO.P,U20,4,EN*%
%TO.N,VCC*%
X-9450000Y-9737500D03*
%TO.P,U20,5,IN*%
X-8500000Y-9737500D03*
%TO.P,U20,6,LX*%
%TO.N,Net-(C21-Pad2)*%
X-7550000Y-9737500D03*
%TD*%
D15*
%TO.P,C73,1*%
%TO.N,+3V3*%
X-15000000Y2580000D03*
%TO.P,C73,2*%
%TO.N,GND*%
X-15000000Y1620000D03*
%TD*%
D16*
%TO.P,D21,1,K*%
%TO.N,VCC*%
X-19000000Y-7450000D03*
%TO.P,D21,2,A*%
%TO.N,Net-(D21-Pad2)*%
X-19000000Y-9950000D03*
%TD*%
D30*
%TO.P,R10,1*%
%TO.N,unconnected-(R10-Pad1)*%
X-6262500Y-1900000D03*
%TO.P,R10,2*%
%TO.N,unconnected-(R10-Pad2)*%
X-3337500Y-1900000D03*
%TD*%
D53*
%TO.P,JP1,1,A*%
%TO.N,E_IO0*%
X21300000Y5000000D03*
D54*
%TO.P,JP1,2,B*%
%TO.N,GND*%
X21300000Y6200000D03*
%TD*%
D20*
%TO.P,C101,1*%
%TO.N,Net-(C101-Pad1)*%
X-19900000Y10200000D03*
%TO.P,C101,2*%
%TO.N,GND*%
X-18940000Y10200000D03*
%TD*%
D55*
%TO.P,J201,1,Pin_1*%
%TO.N,GND*%
X-25800000Y3600000D03*
%TO.P,J201,2,Pin_2*%
%TO.N,/LED2/LED_out*%
X-25800000Y2600000D03*
%TO.P,J201,3,Pin_3*%
%TO.N,GND*%
X-25800000Y1600000D03*
%TO.P,J201,4,Pin_4*%
%TO.N,/LED1/LED_out*%
X-25800000Y600000D03*
D56*
%TO.P,J201,MP*%
%TO.N,N/C*%
X-29675000Y4900000D03*
X-29675000Y-700000D03*
%TD*%
D57*
%TO.P,J60,1,In*%
%TO.N,Net-(C103-Pad2)*%
X-28000000Y9750000D03*
D58*
%TO.P,J60,2,Ext*%
%TO.N,GND*%
X-26525000Y8225000D03*
X-29475000Y8225000D03*
%TD*%
D19*
%TO.P,R21,1*%
%TO.N,Net-(C22-Pad2)*%
X-10200000Y-4990000D03*
%TO.P,R21,2*%
%TO.N,GND*%
X-10200000Y-6010000D03*
%TD*%
D59*
%TO.P,L102,1,1*%
%TO.N,Net-(C101-Pad1)*%
X-21520000Y9400000D03*
%TO.P,L102,2,2*%
%TO.N,Net-(C102-Pad1)*%
X-22490000Y9400000D03*
%TD*%
D11*
%TO.P,R5,1*%
%TO.N,GND*%
X15810000Y-910000D03*
%TO.P,R5,2*%
%TO.N,Net-(R4-Pad1)*%
X14790000Y-910000D03*
%TD*%
D55*
%TO.P,J202,1,Pin_1*%
%TO.N,GND*%
X-25800000Y-3900000D03*
%TO.P,J202,2,Pin_2*%
X-25800000Y-4900000D03*
%TO.P,J202,3,Pin_3*%
%TO.N,Net-(J202-Pad3)*%
X-25800000Y-5900000D03*
%TO.P,J202,4,Pin_4*%
X-25800000Y-6900000D03*
D56*
%TO.P,J202,MP*%
%TO.N,N/C*%
X-29675000Y-8200000D03*
X-29675000Y-2600000D03*
%TD*%
D24*
%TO.P,C103,1*%
%TO.N,Net-(C102-Pad1)*%
X-23240000Y9400000D03*
%TO.P,C103,2*%
%TO.N,Net-(C103-Pad2)*%
X-24200000Y9400000D03*
%TD*%
D34*
%TO.P,Q51,1,B*%
%TO.N,Net-(Q51-Pad1)*%
X23100000Y950000D03*
%TO.P,Q51,2,E*%
%TO.N,CP_DTR*%
X23100000Y2850000D03*
%TO.P,Q51,3,C*%
%TO.N,E_IO0*%
X21225000Y1900000D03*
%TD*%
D24*
%TO.P,C8,1*%
%TO.N,GND*%
X13780000Y8600000D03*
%TO.P,C8,2*%
%TO.N,+3V3*%
X12820000Y8600000D03*
%TD*%
D34*
%TO.P,Q32,1,G*%
%TO.N,Net-(Q32-Pad1)*%
X-21362500Y-450000D03*
%TO.P,Q32,2,S*%
%TO.N,VCC*%
X-21362500Y1450000D03*
%TO.P,Q32,3,D*%
%TO.N,/LED2/LED_out*%
X-23237500Y500000D03*
%TD*%
D15*
%TO.P,C21,1*%
%TO.N,Net-(C21-Pad1)*%
X-6200000Y-7920000D03*
%TO.P,C21,2*%
%TO.N,Net-(C21-Pad2)*%
X-6200000Y-8880000D03*
%TD*%
D21*
%TO.P,J1,1,Pin_1*%
%TO.N,X_RX*%
X-10575000Y100000D03*
D22*
%TO.P,J1,2,Pin_2*%
%TO.N,X_TX*%
X-8035000Y100000D03*
%TD*%
D11*
%TO.P,R22,1*%
%TO.N,Net-(D21-Pad2)*%
X-20990000Y-10000000D03*
%TO.P,R22,2*%
%TO.N,GND*%
X-22010000Y-10000000D03*
%TD*%
D19*
%TO.P,R31,1*%
%TO.N,Net-(Q30-Pad1)*%
X-19800000Y-3790000D03*
%TO.P,R31,2*%
%TO.N,Net-(Q31-Pad3)*%
X-19800000Y-4810000D03*
%TD*%
D24*
%TO.P,C64,1*%
%TO.N,GND*%
X-5795000Y8600000D03*
%TO.P,C64,2*%
%TO.N,Net-(C64-Pad2)*%
X-6755000Y8600000D03*
%TD*%
D12*
%TO.P,R68,1*%
%TO.N,X_TX*%
X-6410000Y2300000D03*
%TO.P,R68,2*%
%TO.N,+3V3*%
X-5390000Y2300000D03*
%TD*%
D19*
%TO.P,R42,1*%
%TO.N,SNS_VIN*%
X-11900000Y-8290000D03*
%TO.P,R42,2*%
%TO.N,VCC*%
X-11900000Y-9310000D03*
%TD*%
%TO.P,R30,1*%
%TO.N,VCC*%
X-19800000Y-1990000D03*
%TO.P,R30,2*%
%TO.N,Net-(Q30-Pad1)*%
X-19800000Y-3010000D03*
%TD*%
D10*
%TO.P,R57,1*%
%TO.N,GND*%
X4800000Y-6820000D03*
%TO.P,R57,2*%
%TO.N,Net-(R57-Pad2)*%
X4800000Y-5800000D03*
%TD*%
D50*
%TO.P,U71,1,1*%
%TO.N,Net-(U70-Pad6)*%
X-22450000Y3100000D03*
%TO.P,U71,2,2*%
%TO.N,GND*%
X-22450000Y4500000D03*
%TO.P,U71,3,3*%
%TO.N,Net-(U70-Pad4)*%
X-23550000Y4500000D03*
%TO.P,U71,4,4*%
%TO.N,GND*%
X-23550000Y3100000D03*
%TD*%
D60*
%TO.P,U61,1,1*%
%TO.N,Net-(C60-Pad2)*%
X-5175000Y5525000D03*
%TO.P,U61,2,2*%
%TO.N,GND*%
X-6575000Y5525000D03*
%TO.P,U61,3,3*%
%TO.N,Net-(C61-Pad2)*%
X-6575000Y4425000D03*
%TO.P,U61,4,4*%
%TO.N,GND*%
X-5175000Y4425000D03*
%TD*%
D61*
%TO.P,U60,1,VDDA*%
%TO.N,+3V3*%
X-9125000Y8650000D03*
%TO.P,U60,2,LNA*%
%TO.N,unconnected-(U60-Pad2)*%
X-9625000Y8650000D03*
%TO.P,U60,3,VDD3P3*%
%TO.N,+3V3*%
X-10125000Y8650000D03*
%TO.P,U60,4,VDD3P3*%
X-10625000Y8650000D03*
%TO.P,U60,5,VDD_RTC*%
%TO.N,unconnected-(U60-Pad5)*%
X-11125000Y8650000D03*
%TO.P,U60,6,TOUT*%
%TO.N,ADC*%
X-11625000Y8650000D03*
%TO.P,U60,7,CHIP_EN*%
%TO.N,CHIP_EN*%
X-12125000Y8650000D03*
%TO.P,U60,8,XDP_DCDC*%
%TO.N,GPIO16*%
X-12625000Y8650000D03*
D62*
%TO.P,U60,9,MTMS*%
%TO.N,GPIO14*%
X-13325000Y7950000D03*
%TO.P,U60,10,MTDI*%
%TO.N,GPIO12*%
X-13325000Y7450000D03*
%TO.P,U60,11,VDDPST*%
%TO.N,+3V3*%
X-13325000Y6950000D03*
%TO.P,U60,12,MTCK*%
%TO.N,GPIO13*%
X-13325000Y6450000D03*
%TO.P,U60,13,MTDO*%
%TO.N,GPIO15*%
X-13325000Y5950000D03*
%TO.P,U60,14,GPIO2*%
%TO.N,GPIO2*%
X-13325000Y5450000D03*
%TO.P,U60,15,GPIO0*%
%TO.N,GPIO0*%
X-13325000Y4950000D03*
%TO.P,U60,16,GPIO4*%
%TO.N,GPIO4*%
X-13325000Y4450000D03*
D61*
%TO.P,U60,17,VDDPST*%
%TO.N,+3V3*%
X-12625000Y3750000D03*
%TO.P,U60,18,SD_DATA_2*%
%TO.N,GPIO9*%
X-12125000Y3750000D03*
%TO.P,U60,19,SD_DATA_3*%
%TO.N,GPIO10*%
X-11625000Y3750000D03*
%TO.P,U60,20,SD_CMD*%
%TO.N,SD_CMD*%
X-11125000Y3750000D03*
%TO.P,U60,21,SD_CLK*%
%TO.N,SD_CLK*%
X-10625000Y3750000D03*
%TO.P,U60,22,SD_DATA_0*%
%TO.N,SD_D0*%
X-10125000Y3750000D03*
%TO.P,U60,23,SD_DATA_1*%
%TO.N,SD_D1*%
X-9625000Y3750000D03*
%TO.P,U60,24,GPIO5*%
%TO.N,GPIO5*%
X-9125000Y3750000D03*
D62*
%TO.P,U60,25,U0RXD*%
%TO.N,X_RX*%
X-8425000Y4450000D03*
%TO.P,U60,26,U0TXD*%
%TO.N,X_TX*%
X-8425000Y4950000D03*
%TO.P,U60,27,XTAL_OUT*%
%TO.N,Net-(C61-Pad2)*%
X-8425000Y5450000D03*
%TO.P,U60,28,XTAL_IN*%
%TO.N,Net-(C60-Pad2)*%
X-8425000Y5950000D03*
%TO.P,U60,29,VDDD*%
%TO.N,+3V3*%
X-8425000Y6450000D03*
%TO.P,U60,30,VDDA*%
X-8425000Y6950000D03*
%TO.P,U60,31,RES12K*%
%TO.N,Net-(R62-Pad2)*%
X-8425000Y7450000D03*
%TO.P,U60,32,EXT_RSTB*%
%TO.N,Net-(C64-Pad2)*%
X-8425000Y7950000D03*
D63*
%TO.P,U60,33,GND*%
%TO.N,GND*%
X-10875000Y6200000D03*
%TD*%
D20*
%TO.P,C2,1*%
%TO.N,GND*%
X3320000Y3800000D03*
%TO.P,C2,2*%
%TO.N,+3V3*%
X4280000Y3800000D03*
%TD*%
D15*
%TO.P,C23,1*%
%TO.N,+3V3*%
X-7400000Y-5020000D03*
%TO.P,C23,2*%
%TO.N,GND*%
X-7400000Y-5980000D03*
%TD*%
D19*
%TO.P,R34,1*%
%TO.N,Net-(Q32-Pad1)*%
X-19800000Y-190000D03*
%TO.P,R34,2*%
%TO.N,Net-(Q33-Pad3)*%
X-19800000Y-1210000D03*
%TD*%
D64*
%TO.P,J200,1,Pin_1*%
%TO.N,GND*%
X25700000Y4300000D03*
%TO.P,J200,2,Pin_2*%
%TO.N,PPM_F*%
X25700000Y5300000D03*
%TO.P,J200,3,Pin_3*%
%TO.N,GND*%
X25700000Y6300000D03*
%TO.P,J200,4,Pin_4*%
%TO.N,PPM_B*%
X25700000Y7300000D03*
D65*
%TO.P,J200,MP*%
%TO.N,N/C*%
X29575000Y8600000D03*
X29575000Y3000000D03*
%TD*%
D11*
%TO.P,R3,1*%
%TO.N,Net-(R3-Pad1)*%
X10210000Y-1800000D03*
%TO.P,R3,2*%
%TO.N,+3V3*%
X9190000Y-1800000D03*
%TD*%
D24*
%TO.P,C22,1*%
%TO.N,+3V3*%
X-8340000Y-5900000D03*
%TO.P,C22,2*%
%TO.N,Net-(C22-Pad2)*%
X-9300000Y-5900000D03*
%TD*%
D11*
%TO.P,R62,1*%
%TO.N,GND*%
X-5765000Y7800000D03*
%TO.P,R62,2*%
%TO.N,Net-(R62-Pad2)*%
X-6785000Y7800000D03*
%TD*%
D20*
%TO.P,C100,1*%
%TO.N,Net-(C100-Pad1)*%
X-19900000Y9400000D03*
%TO.P,C100,2*%
%TO.N,GND*%
X-18940000Y9400000D03*
%TD*%
D30*
%TO.P,R6,1*%
%TO.N,unconnected-(R6-Pad1)*%
X-2452500Y2300000D03*
%TO.P,R6,2*%
%TO.N,unconnected-(R6-Pad2)*%
X472500Y2300000D03*
%TD*%
D66*
%TO.N,GND*%
X-12300000Y7600000D03*
X20100000Y6200000D03*
X5200000Y8600000D03*
X19000000Y-1300000D03*
X-17700000Y4800000D03*
X18400000Y-8000000D03*
X-19600000Y4800000D03*
X21400000Y-1300000D03*
X-18500000Y1300000D03*
X26900000Y4300000D03*
X-22800000Y-10000000D03*
X-9500000Y4800000D03*
X9550000Y3400000D03*
X10850000Y2050000D03*
X-5200000Y7000000D03*
X-7300000Y5700000D03*
X2700000Y6200000D03*
X5200000Y10200000D03*
X-10800000Y6200000D03*
X-7600000Y9600000D03*
X5500000Y-6800000D03*
X-27000000Y10400000D03*
X10850000Y4750000D03*
X-12300000Y4800000D03*
X13800000Y-2900000D03*
X14200000Y-100000D03*
X8150000Y4750000D03*
X-26900000Y-3900000D03*
X-17400000Y-3100000D03*
X2700000Y2200000D03*
X-5420000Y3780000D03*
X20400000Y-8000000D03*
X-24300000Y3100000D03*
X2875000Y-5825000D03*
X-14200000Y-9100000D03*
X2700000Y5400000D03*
X20400000Y-6000000D03*
X23200000Y-8400000D03*
X-26900000Y-4900000D03*
X-16700000Y9300000D03*
X13800000Y8000000D03*
X26900000Y6300000D03*
X-17700000Y6700000D03*
X-26900000Y1600000D03*
X-29100000Y9800000D03*
X4100000Y-4000000D03*
X12900000Y-2400000D03*
X14200000Y2600000D03*
X-25000000Y10400000D03*
X9400000Y10000000D03*
X15800000Y-200000D03*
X-18587500Y5712500D03*
X-1500000Y-6850000D03*
X8400000Y8700000D03*
X-12600000Y-6500000D03*
X-15800000Y1300000D03*
X-8500000Y-8600000D03*
X-9500000Y7600000D03*
X2700000Y3000000D03*
X18400000Y9200000D03*
X-10600000Y10300000D03*
X-15000000Y5200000D03*
X-21800000Y4500000D03*
X-3250000Y-4300000D03*
X8000000Y-2500000D03*
X19400000Y-7000000D03*
X23200000Y-1800000D03*
X18400000Y-6000000D03*
X26700000Y2300000D03*
X-26900000Y3600000D03*
X-13100000Y-1100000D03*
X-19600000Y6700000D03*
X8150000Y2050000D03*
%TO.N,+3V3*%
X4900000Y5000000D03*
X-6875000Y-4975000D03*
X-23900000Y5900000D03*
X-12700000Y3000000D03*
X0Y-7600000D03*
X-4800000Y2300000D03*
X-17880000Y2720000D03*
X6950000Y8150000D03*
X-5800000Y10100000D03*
X11800000Y-1100000D03*
X2700000Y7000000D03*
X8900000Y-1100000D03*
X11700000Y7800000D03*
X22600000Y10100000D03*
X-15850000Y4050000D03*
X-10100000Y9500000D03*
X-14100000Y7000000D03*
X19800000Y-1300000D03*
X15800000Y-2500000D03*
X-7700000Y6800000D03*
X14200000Y1200000D03*
%TO.N,E_EN*%
X18900000Y4500000D03*
X6437500Y6837500D03*
%TO.N,E_IO0*%
X21300000Y3900000D03*
X5000000Y4300000D03*
%TO.N,VCC*%
X-21400000Y-5700000D03*
X-21400000Y-3100000D03*
X-21400000Y800000D03*
%TO.N,VBUS*%
X12600000Y-5000000D03*
X21650000Y-4750000D03*
X25700000Y-2800000D03*
X8400000Y-5000000D03*
X25100000Y-7200000D03*
X-15400000Y-10300000D03*
%TO.N,Net-(C70-Pad1)*%
X-21700000Y6750000D03*
X-17300000Y3100000D03*
%TO.N,X_TX*%
X5200000Y1700000D03*
%TO.N,X_RX*%
X6900000Y1300000D03*
%TO.N,E_TXD*%
X20000000Y-10300000D03*
%TO.N,E_RXD*%
X19400000Y-10300000D03*
X9700000Y5950000D03*
%TO.N,P_MOSI*%
X2300000Y-3000000D03*
X8100000Y-900000D03*
%TO.N,P_MISO*%
X8500000Y800000D03*
X2300000Y-2300000D03*
%TO.N,P_SCK*%
X7300000Y-900000D03*
X3000000Y-3000000D03*
%TO.N,CP_RTS*%
X19000000Y0D03*
X18800000Y-10300000D03*
%TO.N,CP_DTR*%
X21100000Y800000D03*
X20900000Y-10300000D03*
%TO.N,LED_1*%
X-13100000Y-2900000D03*
X4600000Y300000D03*
%TO.N,LED_2*%
X-13100000Y-2000000D03*
X5200000Y700000D03*
%TO.N,GPIO2*%
X-21695000Y6005000D03*
X-14000000Y5400000D03*
%TO.N,GPIO15*%
X-14400000Y5900000D03*
X-16800000Y8600000D03*
%TO.N,A2_CS*%
X7200000Y6000000D03*
%TO.N,Net-(U50-Pad4)*%
X25000000Y-5300000D03*
X22600000Y-7000000D03*
%TO.N,GPIO12*%
X-15900000Y5900000D03*
X-14500000Y7500000D03*
%TO.N,GPIO4*%
X-19300000Y3100000D03*
X-14000000Y4200000D03*
%TO.N,GPIO5*%
X-19900000Y3100000D03*
X-9100000Y3000000D03*
%TO.N,A1_CS*%
X7700000Y800000D03*
X1600000Y-2300000D03*
%TD*%
D67*
%TO.N,GND*%
X-25800000Y3600000D02*
X-26900000Y3600000D01*
D68*
X21460000Y-1940000D02*
X22200000Y-1940000D01*
X-16412500Y-3100000D02*
X-16362500Y-3150000D01*
X12880000Y-2380000D02*
X12900000Y-2400000D01*
X3320000Y5400000D02*
X3320000Y3800000D01*
X1732412Y-4918198D02*
X1732412Y-4932412D01*
X-11900000Y-6490000D02*
X-12590000Y-6490000D01*
X-17300000Y4650000D02*
X-17525000Y4650000D01*
X23200000Y-1800000D02*
X23990000Y-1800000D01*
X1732412Y-4932412D02*
X2625000Y-5825000D01*
X-17400000Y-3100000D02*
X-16412500Y-3100000D01*
X-5795000Y8600000D02*
X-5795000Y7000000D01*
X-15800000Y1400000D02*
X-15220000Y1400000D01*
X2625000Y-5825000D02*
X2875000Y-5825000D01*
X15810000Y-910000D02*
X15800000Y-900000D01*
X13800000Y-3715000D02*
X13700000Y-3815000D01*
X10700000Y9580000D02*
X9970000Y9580000D01*
D67*
X-25800000Y1600000D02*
X-26900000Y1600000D01*
D68*
X14800000Y-100000D02*
X14200000Y-100000D01*
X-19380000Y7705000D02*
X-19380000Y6505000D01*
X-5105000Y4495000D02*
X-5175000Y4425000D01*
X8000000Y-2600000D02*
X7300000Y-3300000D01*
X-6750000Y5700000D02*
X-6575000Y5525000D01*
X20600000Y-1940000D02*
X21460000Y-1940000D01*
X13800000Y-2900000D02*
X13800000Y-3715000D01*
X-18480000Y2050000D02*
X-18480000Y1420000D01*
X2700000Y6200000D02*
X3320000Y6200000D01*
X13800000Y8580000D02*
X13780000Y8600000D01*
X-16680000Y4505000D02*
X-17155000Y4505000D01*
X-17525000Y4650000D02*
X-17587500Y4712500D01*
X-10525000Y-8600000D02*
X-10700000Y-8425000D01*
X-10200000Y-6010000D02*
X-10200000Y-7925000D01*
X-5420000Y3175000D02*
X-5420000Y3780000D01*
D67*
X-14200000Y-9100000D02*
X-14200000Y-9950000D01*
D68*
X-18380000Y6005000D02*
X-18630000Y5755000D01*
D67*
X-22800000Y-10000000D02*
X-22010000Y-10000000D01*
D68*
X-8500000Y-8600000D02*
X-10525000Y-8600000D01*
X-1732412Y-4267588D02*
X-2475000Y-3525000D01*
X-1500000Y-6850000D02*
X-1500000Y-6807107D01*
X27200000Y1800000D02*
X27200000Y1710000D01*
X14200000Y2600000D02*
X14760000Y2600000D01*
X-8500000Y-8600000D02*
X-8500000Y-7000000D01*
X-3250000Y-4300000D02*
X-2475000Y-3525000D01*
X-15800000Y1400000D02*
X-15800000Y1100000D01*
X26900000Y4300000D02*
X25700000Y4300000D01*
X14760000Y2600000D02*
X14800000Y2560000D01*
X-3975000Y4495000D02*
X-5105000Y4495000D01*
X26900000Y6300000D02*
X25700000Y6300000D01*
X7300000Y-3300000D02*
X7300000Y-3815000D01*
X7520000Y-2020000D02*
X7520000Y-1800000D01*
X-2475000Y-3525000D02*
X-2125000Y-3175000D01*
X-7300000Y5700000D02*
X-6750000Y5700000D01*
X2700000Y2200000D02*
X3320000Y2200000D01*
X-8500000Y-7000000D02*
X-7480000Y-5980000D01*
X-12590000Y-6490000D02*
X-12600000Y-6500000D01*
X-5420000Y3780000D02*
X-5420000Y4180000D01*
D69*
X-19380000Y5005000D02*
X-18630000Y5755000D01*
D68*
X-1732412Y-4281802D02*
X-1732412Y-4267588D01*
X5500000Y-6800000D02*
X5480000Y-6820000D01*
D67*
X-25800000Y-3900000D02*
X-26900000Y-3900000D01*
D68*
X-16150000Y750000D02*
X-16362500Y750000D01*
X5820000Y8600000D02*
X5820000Y9400000D01*
X18412500Y8400000D02*
X18412500Y10000000D01*
X21850000Y-7500000D02*
X19900000Y-7500000D01*
X21400000Y-1300000D02*
X21400000Y-1940000D01*
X-15820000Y2050000D02*
X-15820000Y1420000D01*
X-15800000Y1100000D02*
X-16150000Y750000D01*
X3320000Y3000000D02*
X2700000Y3000000D01*
X-7600000Y10170000D02*
X-7495000Y10275000D01*
X5480000Y-6820000D02*
X4800000Y-6820000D01*
X-15820000Y1420000D02*
X-15800000Y1400000D01*
X-24300000Y3100000D02*
X-23550000Y3100000D01*
X-2125000Y-3175000D02*
X-1500000Y-2550000D01*
X-17587500Y4712500D02*
X-18587500Y5712500D01*
X-18380000Y7705000D02*
X-18380000Y6005000D01*
X-18480000Y1420000D02*
X-18500000Y1400000D01*
X26110000Y1710000D02*
X26100000Y1710000D01*
D67*
X-26900000Y-4900000D02*
X-25800000Y-4900000D01*
D68*
X-10180000Y10300000D02*
X-10155000Y10275000D01*
X-1342893Y-2550000D02*
X-671751Y-3221142D01*
X-16700000Y9300000D02*
X-16700000Y10087500D01*
D69*
X-21295000Y5005000D02*
X-20580000Y5005000D01*
D68*
X19900000Y-7500000D02*
X19400000Y-7000000D01*
X3320000Y5400000D02*
X2700000Y5400000D01*
X15800000Y-900000D02*
X15800000Y-200000D01*
X9970000Y9580000D02*
X9450000Y10100000D01*
X-5420000Y4180000D02*
X-5175000Y4425000D01*
D69*
X-20580000Y5005000D02*
X-19380000Y5005000D01*
D68*
X-13100000Y-1100000D02*
X-13100000Y-500000D01*
X-1378858Y-3928249D02*
X-1378858Y-3921142D01*
X-19380000Y6505000D02*
X-18630000Y5755000D01*
X5820000Y10200000D02*
X5200000Y10200000D01*
X-3250000Y-5850000D02*
X-3239411Y-5860589D01*
X-16700000Y10087500D02*
X-16687500Y10100000D01*
X8000000Y-2500000D02*
X8000000Y-2600000D01*
X-1378858Y-3921142D02*
X-2125000Y-3175000D01*
X-10200000Y-7925000D02*
X-10700000Y-8425000D01*
X26700000Y2300000D02*
X26110000Y1710000D01*
X23990000Y-1800000D02*
X24090000Y-1900000D01*
X26700000Y2300000D02*
X27200000Y1800000D01*
X-7600000Y9600000D02*
X-7600000Y10170000D01*
X-10600000Y10300000D02*
X-10180000Y10300000D01*
X-1500000Y-6807107D02*
X-671751Y-5978858D01*
X12880000Y-1800000D02*
X12880000Y-2380000D01*
X5820000Y8600000D02*
X5200000Y8600000D01*
X-15220000Y1400000D02*
X-15000000Y1620000D01*
X8000000Y-2500000D02*
X7520000Y-2020000D01*
X-1500000Y-2550000D02*
X-1342893Y-2550000D01*
X-3250000Y-4300000D02*
X-3250000Y-5850000D01*
D69*
X-21800000Y4500000D02*
X-22450000Y4500000D01*
D68*
X-5200000Y7000000D02*
X-5795000Y7000000D01*
X13800000Y8000000D02*
X13800000Y8580000D01*
X20100000Y6200000D02*
X21100000Y6200000D01*
X23200000Y-8400000D02*
X23990000Y-8400000D01*
D69*
X-21800000Y4500000D02*
X-21295000Y5005000D01*
D68*
X-18587500Y5712500D02*
X-18630000Y5755000D01*
X23990000Y-8400000D02*
X24090000Y-8300000D01*
X19000000Y-1300000D02*
X19000000Y-1910000D01*
X-23280000Y6750000D02*
X-23280000Y7550000D01*
X-17155000Y4505000D02*
X-17300000Y4650000D01*
X-7480000Y-5980000D02*
X-7400000Y-5980000D01*
X4100000Y-4000000D02*
X4800000Y-4000000D01*
X20100000Y6200000D02*
X19000000Y6200000D01*
%TO.N,+3V3*%
X318198Y-6332412D02*
X332412Y-6332412D01*
X700000Y-7400000D02*
X-2200000Y-7400000D01*
X7900000Y6000000D02*
X7700000Y6200000D01*
X11700000Y-37500D02*
X11700000Y-1200000D01*
X-10100000Y9600000D02*
X-10200000Y9600000D01*
X8900000Y-37500D02*
X8900000Y-1380000D01*
X5300000Y5000000D02*
X4800000Y5000000D01*
X-10625000Y9535000D02*
X-10690000Y9600000D01*
X4680000Y5000000D02*
X4280000Y5400000D01*
X-4800000Y2300000D02*
X-5390000Y2300000D01*
X950000Y-6950000D02*
X950000Y-7150000D01*
X8900000Y-1100000D02*
X8900000Y-1510000D01*
X332412Y-6332412D02*
X950000Y-6950000D01*
X4800000Y5000000D02*
X4680000Y5000000D01*
X-7550000Y6950000D02*
X-6805000Y6950000D01*
X7700000Y7400000D02*
X6950000Y8150000D01*
X-9200000Y9600000D02*
X-10100000Y9600000D01*
X15800000Y-2500000D02*
X15810000Y-2490000D01*
X-15000000Y2580000D02*
X-15000000Y3390000D01*
X-1939411Y-6539411D02*
X-2560589Y-6539411D01*
X6062500Y5200000D02*
X5500000Y5200000D01*
X-2560589Y-6460589D02*
X-2560589Y-6539411D01*
X14800000Y860000D02*
X14740000Y860000D01*
D67*
X-6875000Y-4975000D02*
X-8265000Y-4975000D01*
D68*
X11300000Y6837500D02*
X11300000Y7600000D01*
X5500000Y6000000D02*
X5300000Y5800000D01*
X5300000Y5800000D02*
X5300000Y5000000D01*
X4680000Y5000000D02*
X4280000Y4600000D01*
X-2560589Y-7039411D02*
X-2560589Y-6539411D01*
X22600000Y10100000D02*
X22010000Y10100000D01*
X-10125000Y8650000D02*
X-10125000Y9525000D01*
X8900000Y-1510000D02*
X9190000Y-1800000D01*
X14200000Y1200000D02*
X13800000Y1200000D01*
X11450000Y7750000D02*
X11600000Y7900000D01*
X11700000Y-1200000D02*
X11700000Y-1580000D01*
X-23900000Y5900000D02*
X-23310000Y5900000D01*
X-16680000Y5505000D02*
X-16205000Y5505000D01*
X-8425000Y6950000D02*
X-7550000Y6950000D01*
X-15850000Y4050000D02*
X-15190000Y3390000D01*
X19800000Y-1300000D02*
X19800000Y-1910000D01*
X-10625000Y8650000D02*
X-10625000Y9535000D01*
X14400000Y1200000D02*
X14200000Y1200000D01*
X6062500Y4800000D02*
X5500000Y4800000D01*
X-7700000Y6800000D02*
X-7550000Y6950000D01*
X4280000Y4600000D02*
X4280000Y3800000D01*
X12200000Y7900000D02*
X12820000Y8520000D01*
X8900000Y-1380000D02*
X8480000Y-1800000D01*
X-2200000Y-7400000D02*
X-2560589Y-7039411D01*
X12820000Y8520000D02*
X12820000Y8600000D01*
X13800000Y1200000D02*
X12937500Y1200000D01*
X-8425000Y6450000D02*
X-8050000Y6450000D01*
X-17880000Y2720000D02*
X-17880000Y2410000D01*
X6780000Y9400000D02*
X6780000Y8600000D01*
X15810000Y-2490000D02*
X15810000Y-1700000D01*
X-8455000Y10275000D02*
X-9195000Y10275000D01*
X-17880000Y3805000D02*
X-17880000Y2720000D01*
X-5800000Y9435000D02*
X-5765000Y9400000D01*
X7700000Y6837500D02*
X7700000Y7400000D01*
X-6805000Y6950000D02*
X-6755000Y7000000D01*
X-9125000Y9325000D02*
X-9125000Y9675000D01*
X5500000Y4800000D02*
X5300000Y5000000D01*
X11300000Y7600000D02*
X11450000Y7750000D01*
X-17880000Y2410000D02*
X-17520000Y2050000D01*
X6950000Y8150000D02*
X6780000Y8320000D01*
X14400000Y1200000D02*
X14800000Y1600000D01*
D67*
X-5500000Y-4975000D02*
X-6875000Y-4975000D01*
X-8290000Y-5850000D02*
X-8340000Y-5900000D01*
D68*
X6780000Y8320000D02*
X6780000Y8600000D01*
X-5800000Y10100000D02*
X-5800000Y9435000D01*
X-15190000Y3390000D02*
X-15000000Y3390000D01*
X950000Y-7150000D02*
X700000Y-7400000D01*
X-10690000Y9600000D02*
X-11365000Y10275000D01*
X-15900000Y4100000D02*
X-15850000Y4050000D01*
X8900000Y-37500D02*
X8900000Y-1100000D01*
X5500000Y5200000D02*
X5300000Y5000000D01*
X8900000Y6200000D02*
X8700000Y6000000D01*
X-10200000Y9600000D02*
X-10690000Y9600000D01*
X11700000Y-1580000D02*
X11920000Y-1800000D01*
X-9125000Y9675000D02*
X-9125000Y10205000D01*
X-12625000Y3075000D02*
X-12700000Y3000000D01*
X3290000Y7000000D02*
X2700000Y7000000D01*
X-10125000Y9525000D02*
X-10200000Y9600000D01*
X-9125000Y10205000D02*
X-9195000Y10275000D01*
X-8050000Y6450000D02*
X-7700000Y6800000D01*
X-1378858Y-5278858D02*
X-2560589Y-6460589D01*
X8900000Y6837500D02*
X8900000Y6200000D01*
X-15900000Y5200000D02*
X-15900000Y4100000D01*
X14740000Y860000D02*
X14400000Y1200000D01*
D67*
X-8265000Y-4975000D02*
X-8290000Y-5000000D01*
D68*
X7700000Y6200000D02*
X7700000Y6837500D01*
X-1025305Y-5625305D02*
X-1939411Y-6539411D01*
X8700000Y6000000D02*
X7900000Y6000000D01*
X-14050000Y6950000D02*
X-13325000Y6950000D01*
X-12625000Y3750000D02*
X-12625000Y3075000D01*
X-9125000Y8650000D02*
X-9125000Y9325000D01*
X-9125000Y9675000D02*
X-9200000Y9600000D01*
D67*
X-8290000Y-5000000D02*
X-8290000Y-5850000D01*
D68*
X-1378858Y-5271751D02*
X-1378858Y-5278858D01*
X11600000Y7900000D02*
X12200000Y7900000D01*
X-14100000Y7000000D02*
X-14050000Y6950000D01*
X-16205000Y5505000D02*
X-15900000Y5200000D01*
X6062500Y6000000D02*
X5500000Y6000000D01*
%TO.N,Net-(C11-Pad1)*%
X7600000Y9400000D02*
X7600000Y8100000D01*
X8250000Y10200000D02*
X8350000Y10100000D01*
X6780000Y10200000D02*
X8250000Y10200000D01*
X8100000Y7600000D02*
X8100000Y6837500D01*
X8300000Y10100000D02*
X7600000Y9400000D01*
X8350000Y10100000D02*
X8300000Y10100000D01*
X7600000Y8100000D02*
X8100000Y7600000D01*
%TO.N,Net-(C12-Pad2)*%
X9450000Y8450000D02*
X9450000Y8700000D01*
X8500000Y6837500D02*
X8500000Y7500000D01*
X8500000Y7500000D02*
X9450000Y8450000D01*
X9530000Y8620000D02*
X9450000Y8700000D01*
X10700000Y8620000D02*
X9530000Y8620000D01*
%TO.N,E_EN*%
X6437500Y6837500D02*
X4472500Y6837500D01*
X4280000Y6200000D02*
X4280000Y6970000D01*
X18900000Y1900000D02*
X18900000Y4500000D01*
X4280000Y6970000D02*
X4310000Y7000000D01*
X4472500Y6837500D02*
X4310000Y7000000D01*
X6900000Y6837500D02*
X6437500Y6837500D01*
X18900000Y4500000D02*
X18900000Y4900000D01*
X18900000Y4900000D02*
X18800000Y5000000D01*
%TO.N,E_IO0*%
X21300000Y1975000D02*
X21225000Y1900000D01*
X6062500Y4400000D02*
X5200000Y4400000D01*
X21300000Y5200000D02*
X21300000Y3900000D01*
X4900000Y4100000D02*
X4900000Y3400000D01*
X4500000Y3000000D02*
X4280000Y3000000D01*
X21300000Y3900000D02*
X21300000Y1975000D01*
X5200000Y4400000D02*
X4900000Y4100000D01*
X4900000Y3400000D02*
X4500000Y3000000D01*
D67*
%TO.N,VCC*%
X-19000000Y-7450000D02*
X-16600000Y-7450000D01*
X-21400000Y-6312500D02*
X-21362500Y-6350000D01*
X-21400000Y1412500D02*
X-21362500Y1450000D01*
X-19800000Y1610000D02*
X-20190000Y1610000D01*
X-20150000Y-6350000D02*
X-21350000Y-6350000D01*
X-10700000Y-9975000D02*
X-8737500Y-9975000D01*
X-21400000Y-3100000D02*
X-21400000Y-2487500D01*
X-20090000Y-1990000D02*
X-20550000Y-2450000D01*
X-20190000Y1610000D02*
X-20350000Y1450000D01*
X-21400000Y-2487500D02*
X-21362500Y-2450000D01*
X-13100000Y-8400000D02*
X-15650000Y-8400000D01*
X-21050000Y1450000D02*
X-21362500Y1450000D01*
X-8737500Y-9975000D02*
X-8500000Y-9737500D01*
X-19050000Y-7450000D02*
X-20150000Y-6350000D01*
X-10700000Y-9975000D02*
X-11525000Y-9975000D01*
X-21350000Y-6350000D02*
X-21362500Y-6350000D01*
X-15650000Y-8400000D02*
X-16600000Y-7450000D01*
X-21250000Y-2450000D02*
X-21362500Y-2450000D01*
X-21400000Y800000D02*
X-21400000Y1412500D01*
X-20550000Y-2450000D02*
X-21250000Y-2450000D01*
X-11525000Y-9975000D02*
X-13100000Y-8400000D01*
X-21400000Y-5700000D02*
X-21400000Y-6312500D01*
X-19800000Y-1990000D02*
X-20090000Y-1990000D01*
X-19000000Y-7450000D02*
X-19050000Y-7450000D01*
X-20350000Y1450000D02*
X-21050000Y1450000D01*
D68*
%TO.N,Net-(C21-Pad1)*%
X-7092500Y-7920000D02*
X-7550000Y-7462500D01*
X-6200000Y-7920000D02*
X-7092500Y-7920000D01*
D67*
%TO.N,Net-(C21-Pad2)*%
X-5400000Y-6725000D02*
X-5500000Y-6625000D01*
X-7550000Y-9737500D02*
X-6837500Y-9737500D01*
X-6837500Y-9737500D02*
X-6200000Y-9100000D01*
X-5980000Y-8880000D02*
X-5400000Y-8300000D01*
X-5400000Y-8300000D02*
X-5400000Y-6725000D01*
X-6200000Y-9100000D02*
X-6200000Y-8880000D01*
X-6200000Y-8880000D02*
X-5980000Y-8880000D01*
D68*
%TO.N,Net-(C22-Pad2)*%
X-9300000Y-5900000D02*
X-9300000Y-5010000D01*
X-9310000Y-5000000D02*
X-10190000Y-5000000D01*
X-10190000Y-5000000D02*
X-10200000Y-4990000D01*
X-9300000Y-5010000D02*
X-9310000Y-5000000D01*
X-9450000Y-7462500D02*
X-9450000Y-6050000D01*
X-9450000Y-6050000D02*
X-9300000Y-5900000D01*
%TO.N,SNS_VIN*%
X1800000Y1500000D02*
X3800000Y1500000D01*
X4280000Y2200000D02*
X4500000Y2200000D01*
X-11100000Y-4700000D02*
X-10600000Y-4200000D01*
X3800000Y1500000D02*
X4280000Y1980000D01*
X-12610000Y-7510000D02*
X-14140000Y-7510000D01*
X-11900000Y-7510000D02*
X-12610000Y-7510000D01*
X4280000Y1980000D02*
X4280000Y2200000D01*
X-10600000Y-4200000D02*
X-3900000Y-4200000D01*
X5500000Y3200000D02*
X6062500Y3200000D01*
X-3900000Y-4200000D02*
X1800000Y1500000D01*
X-14140000Y-7510000D02*
X-14200000Y-7450000D01*
X-11510000Y-7510000D02*
X-11100000Y-7100000D01*
X4500000Y2200000D02*
X5500000Y3200000D01*
X-11900000Y-8290000D02*
X-11900000Y-7510000D01*
X-11900000Y-7510000D02*
X-11510000Y-7510000D01*
X-11100000Y-7100000D02*
X-11100000Y-4700000D01*
%TO.N,Net-(C50-Pad2)*%
X22300000Y-6000000D02*
X22700000Y-5600000D01*
X21850000Y-6000000D02*
X22300000Y-6000000D01*
X22700000Y-5600000D02*
X22700000Y-3400000D01*
X22700000Y-3400000D02*
X22200000Y-2900000D01*
D67*
%TO.N,VBUS*%
X-16000000Y-10300000D02*
X-16350000Y-9950000D01*
D68*
X21100000Y-3000000D02*
X20900000Y-3200000D01*
X24290000Y-7300000D02*
X24090000Y-7500000D01*
D67*
X-15400000Y-10300000D02*
X-16000000Y-10300000D01*
D68*
X21650000Y-5300000D02*
X21850000Y-5500000D01*
X12600000Y-5000000D02*
X12700000Y-4900000D01*
X20900000Y-3200000D02*
X20600000Y-2900000D01*
X8400000Y-5000000D02*
X8300000Y-4900000D01*
X20900000Y-4550000D02*
X20900000Y-3200000D01*
X25000000Y-7300000D02*
X24290000Y-7300000D01*
X8300000Y-4015000D02*
X8100000Y-3815000D01*
X21100000Y-4750000D02*
X20900000Y-4550000D01*
X25700000Y-2800000D02*
X25600000Y-2900000D01*
X21400000Y-2900000D02*
X21300000Y-3000000D01*
X8300000Y-4900000D02*
X8300000Y-4015000D01*
X21650000Y-4750000D02*
X21100000Y-4750000D01*
D67*
X-16350000Y-9950000D02*
X-16600000Y-9950000D01*
D68*
X24290000Y-2900000D02*
X24090000Y-2700000D01*
X21300000Y-3000000D02*
X21100000Y-3000000D01*
X25100000Y-7200000D02*
X25000000Y-7300000D01*
X25600000Y-2900000D02*
X24290000Y-2900000D01*
X12700000Y-4900000D02*
X12700000Y-4015000D01*
X21650000Y-4750000D02*
X21650000Y-5300000D01*
X12700000Y-4015000D02*
X12900000Y-3815000D01*
%TO.N,Net-(C60-Pad2)*%
X-3975000Y5455000D02*
X-5105000Y5455000D01*
X-5175000Y5525000D02*
X-5175000Y5575000D01*
X-5105000Y5455000D02*
X-5175000Y5525000D01*
X-5175000Y5575000D02*
X-5900000Y6300000D01*
X-5900000Y6300000D02*
X-7600000Y6300000D01*
X-7600000Y6300000D02*
X-7950000Y5950000D01*
X-7950000Y5950000D02*
X-8425000Y5950000D01*
%TO.N,Net-(C61-Pad2)*%
X-8425000Y5450000D02*
X-7850000Y5450000D01*
X-6825000Y4425000D02*
X-6575000Y4425000D01*
X-6380000Y4230000D02*
X-6575000Y4425000D01*
X-7850000Y5450000D02*
X-6825000Y4425000D01*
X-6380000Y3175000D02*
X-6380000Y4230000D01*
%TO.N,Net-(C64-Pad2)*%
X-7000000Y8600000D02*
X-6755000Y8600000D01*
X-8425000Y7950000D02*
X-7650000Y7950000D01*
X-6785000Y9400000D02*
X-6785000Y8630000D01*
X-7650000Y7950000D02*
X-7000000Y8600000D01*
X-6785000Y8630000D02*
X-6755000Y8600000D01*
D69*
%TO.N,Net-(C70-Pad1)*%
X-21700000Y6750000D02*
X-21350000Y6750000D01*
X-21105000Y6505000D02*
X-20580000Y6505000D01*
X-21700000Y6750000D02*
X-22320000Y6750000D01*
D68*
X-16780000Y2580000D02*
X-17300000Y3100000D01*
D69*
X-21350000Y6750000D02*
X-21105000Y6505000D01*
D68*
X-17380000Y3180000D02*
X-17300000Y3100000D01*
X-17380000Y3805000D02*
X-17380000Y3180000D01*
X-16780000Y2050000D02*
X-16780000Y2580000D01*
D69*
%TO.N,Net-(C74-Pad1)*%
X-21005000Y7005000D02*
X-21550000Y7550000D01*
X-20580000Y7005000D02*
X-21005000Y7005000D01*
X-21550000Y7550000D02*
X-22320000Y7550000D01*
D70*
%TO.N,Net-(C100-Pad1)*%
X-18880000Y8280000D02*
X-19900000Y9300000D01*
X-18880000Y7705000D02*
X-18880000Y8280000D01*
X-19985000Y9315000D02*
X-19900000Y9400000D01*
X-20720000Y9315000D02*
X-19985000Y9315000D01*
X-19900000Y9300000D02*
X-19900000Y9400000D01*
%TO.N,Net-(C101-Pad1)*%
X-21520000Y10195000D02*
X-21525000Y10200000D01*
X-19900000Y10200000D02*
X-21525000Y10200000D01*
X-21520000Y9400000D02*
X-21520000Y10195000D01*
%TO.N,Net-(C102-Pad1)*%
X-22485000Y10200000D02*
X-22485000Y9405000D01*
X-22485000Y10200000D02*
X-23240000Y10200000D01*
X-22485000Y9405000D02*
X-22490000Y9400000D01*
X-23240000Y10200000D02*
X-23240000Y9400000D01*
%TO.N,Net-(C103-Pad2)*%
X-24200000Y9400000D02*
X-24300000Y9500000D01*
X-24300000Y9500000D02*
X-25000000Y9500000D01*
X-25000000Y9500000D02*
X-25300000Y9800000D01*
X-25300000Y9800000D02*
X-27950000Y9800000D01*
X-27950000Y9800000D02*
X-28000000Y9750000D01*
D67*
%TO.N,/LED2/LED_out*%
X-25200000Y2600000D02*
X-25800000Y2600000D01*
X-23237500Y637500D02*
X-25200000Y2600000D01*
X-23237500Y500000D02*
X-23237500Y637500D01*
D68*
%TO.N,Net-(D40-Pad2)*%
X19987500Y10000000D02*
X20890000Y10000000D01*
X20890000Y10000000D02*
X20990000Y10100000D01*
%TO.N,Net-(D41-Pad2)*%
X20797500Y9210000D02*
X19987500Y8400000D01*
X21000000Y9210000D02*
X20797500Y9210000D01*
%TO.N,Net-(D60-Pad2)*%
X-14110000Y10275000D02*
X-14937500Y10275000D01*
X-14937500Y10275000D02*
X-15112500Y10100000D01*
%TO.N,X_TX*%
X5300000Y1600000D02*
X6062500Y1600000D01*
X-7400000Y4400000D02*
X-7400000Y2800000D01*
X5200000Y1700000D02*
X5300000Y1600000D01*
X-7950000Y4950000D02*
X-7400000Y4400000D01*
X-6900000Y2300000D02*
X-6410000Y2300000D01*
X-7400000Y2800000D02*
X-7400000Y735000D01*
X-8425000Y4950000D02*
X-7950000Y4950000D01*
X-7400000Y2800000D02*
X-6900000Y2300000D01*
X-7400000Y735000D02*
X-8035000Y100000D01*
%TO.N,X_RX*%
X-10200000Y100000D02*
X-10575000Y100000D01*
X-7900000Y2400000D02*
X-10200000Y100000D01*
X-8050000Y4450000D02*
X-7900000Y4300000D01*
X-7900000Y4300000D02*
X-7900000Y2400000D01*
X6800000Y1200000D02*
X6900000Y1300000D01*
X-8425000Y4450000D02*
X-8050000Y4450000D01*
X6062500Y1200000D02*
X6800000Y1200000D01*
%TO.N,E_TXD*%
X15365000Y9500000D02*
X11810000Y9500000D01*
X15700000Y9165000D02*
X15365000Y9500000D01*
X19900000Y-10200000D02*
X20000000Y-10300000D01*
X19900000Y-9450000D02*
X19900000Y-10200000D01*
X11810000Y9500000D02*
X11700000Y9610000D01*
%TO.N,E_RXD*%
X19400000Y-9450000D02*
X19400000Y-10300000D01*
X9700000Y6837500D02*
X9700000Y5950000D01*
D67*
%TO.N,/LED1/LED_out*%
X-23600000Y-1600000D02*
X-23600000Y-3037500D01*
X-25800000Y600000D02*
X-23600000Y-1600000D01*
X-23600000Y-3037500D02*
X-23237500Y-3400000D01*
D68*
%TO.N,P_MOSI*%
X8100000Y-900000D02*
X8100000Y-37500D01*
X2300000Y-3000000D02*
X1378858Y-3921142D01*
X1378858Y-3921142D02*
X1378858Y-3928249D01*
%TO.N,P_MISO*%
X8500000Y800000D02*
X8500000Y-37500D01*
X2300000Y-2300000D02*
X1025305Y-3574695D01*
%TO.N,P_SCK*%
X3000000Y-5200000D02*
X3810000Y-6010000D01*
X7300000Y-900000D02*
X7300000Y-37500D01*
X3810000Y-6010000D02*
X3810000Y-7710000D01*
X3050000Y-6950000D02*
X3810000Y-7710000D01*
X1378858Y-5278858D02*
X3050000Y-6950000D01*
X3810000Y-7710000D02*
X3810000Y-8790000D01*
X1378858Y-5271751D02*
X1378858Y-5278858D01*
X3000000Y-3000000D02*
X3000000Y-5200000D01*
D67*
%TO.N,Net-(J202-Pad3)*%
X-23237500Y-7300000D02*
X-23900000Y-7300000D01*
X-25800000Y-6900000D02*
X-25800000Y-5900000D01*
X-23900000Y-7300000D02*
X-24300000Y-6900000D01*
X-24300000Y-6900000D02*
X-25800000Y-6900000D01*
D68*
%TO.N,GPIO0*%
X-14000000Y4887500D02*
X-13812500Y4887500D01*
X-13100000Y700000D02*
X-14300000Y1900000D01*
X-15000000Y4410000D02*
X-14690000Y4410000D01*
X-14300000Y1900000D02*
X-14300000Y3710000D01*
X-14690000Y4410000D02*
X-14300000Y4800000D01*
X-14087500Y4800000D02*
X-14000000Y4887500D01*
X-13750000Y4950000D02*
X-13325000Y4950000D01*
X-14300000Y3710000D02*
X-15000000Y4410000D01*
X-14300000Y4800000D02*
X-14087500Y4800000D01*
X-13812500Y4887500D02*
X-13750000Y4950000D01*
%TO.N,Net-(Q30-Pad1)*%
X-21362500Y-4350000D02*
X-20360000Y-4350000D01*
X-20360000Y-4350000D02*
X-19800000Y-3790000D01*
X-19800000Y-3790000D02*
X-19800000Y-3010000D01*
%TO.N,Net-(Q31-Pad1)*%
X-14800000Y-5010000D02*
X-16322500Y-5010000D01*
X-16322500Y-5010000D02*
X-16362500Y-5050000D01*
%TO.N,Net-(Q31-Pad3)*%
X-19090000Y-4100000D02*
X-18237500Y-4100000D01*
X-19800000Y-4810000D02*
X-19090000Y-4100000D01*
%TO.N,Net-(Q32-Pad1)*%
X-19800000Y590000D02*
X-19800000Y-190000D01*
X-21362500Y-450000D02*
X-20060000Y-450000D01*
X-20060000Y-450000D02*
X-19800000Y-190000D01*
%TO.N,Net-(Q33-Pad1)*%
X-16302500Y-1210000D02*
X-16362500Y-1150000D01*
X-14800000Y-1210000D02*
X-16302500Y-1210000D01*
%TO.N,Net-(Q33-Pad3)*%
X-18790000Y-200000D02*
X-19800000Y-1210000D01*
X-18237500Y-200000D02*
X-18790000Y-200000D01*
%TO.N,Net-(Q50-Pad1)*%
X18600000Y800000D02*
X17025000Y2375000D01*
X19552500Y800000D02*
X18600000Y800000D01*
X17025000Y2375000D02*
X17025000Y2850000D01*
%TO.N,CP_RTS*%
X18900000Y-9450000D02*
X18900000Y-10200000D01*
X18900000Y-10200000D02*
X18800000Y-10300000D01*
X19000000Y0D02*
X17975000Y0D01*
X17975000Y0D02*
X17025000Y950000D01*
X19552500Y0D02*
X19000000Y0D01*
%TO.N,Net-(Q51-Pad1)*%
X22150000Y0D02*
X23100000Y950000D01*
X20572500Y0D02*
X22150000Y0D01*
%TO.N,CP_DTR*%
X20572500Y800000D02*
X21500000Y800000D01*
X20900000Y-9450000D02*
X20900000Y-10300000D01*
X21550000Y800000D02*
X23100000Y2350000D01*
X23100000Y2350000D02*
X23100000Y2850000D01*
X21500000Y800000D02*
X21550000Y800000D01*
%TO.N,Net-(R2-Pad2)*%
X10100000Y7600000D02*
X10100000Y6837500D01*
X11000000Y7900000D02*
X10400000Y7900000D01*
X11690000Y8590000D02*
X11000000Y7900000D01*
X11700000Y8590000D02*
X11690000Y8590000D01*
X10400000Y7900000D02*
X10100000Y7600000D01*
%TO.N,Net-(R3-Pad1)*%
X10500000Y-37500D02*
X10500000Y-1510000D01*
X10500000Y-1510000D02*
X10210000Y-1800000D01*
%TO.N,LED_1*%
X-13100000Y-2900000D02*
X-14190000Y-3990000D01*
X4800000Y100000D02*
X4600000Y300000D01*
X6762500Y100000D02*
X4800000Y100000D01*
X-14190000Y-3990000D02*
X-14800000Y-3990000D01*
X6900000Y-37500D02*
X6762500Y100000D01*
%TO.N,LED_2*%
X5200000Y700000D02*
X5300000Y800000D01*
X-13100000Y-2000000D02*
X-14800000Y-300000D01*
X5300000Y800000D02*
X6062500Y800000D01*
X-14800000Y-300000D02*
X-14800000Y-290000D01*
%TO.N,LED_MISC*%
X17000000Y5700000D02*
X17000000Y6700000D01*
X12937500Y5200000D02*
X16500000Y5200000D01*
X20410000Y7600000D02*
X21000000Y8190000D01*
X16500000Y5200000D02*
X17000000Y5700000D01*
X17900000Y7600000D02*
X20410000Y7600000D01*
X17000000Y6700000D02*
X17900000Y7600000D01*
%TO.N,Net-(R52-Pad1)*%
X20400000Y-4100000D02*
X19800000Y-3500000D01*
X19800000Y-3500000D02*
X19800000Y-2930000D01*
X20400000Y-4550000D02*
X20400000Y-4100000D01*
%TO.N,Net-(R53-Pad1)*%
X19400000Y-4550000D02*
X19400000Y-4100000D01*
X19000000Y-3700000D02*
X19000000Y-2930000D01*
X19400000Y-4100000D02*
X19000000Y-3700000D01*
%TO.N,Net-(R54-Pad2)*%
X24950000Y-6350000D02*
X27000000Y-4300000D01*
X27000000Y-4300000D02*
X27000000Y690000D01*
X24090000Y-6350000D02*
X24950000Y-6350000D01*
%TO.N,Net-(R55-Pad2)*%
X24090000Y-3350000D02*
X25950000Y-3350000D01*
X25950000Y-3350000D02*
X26300000Y-3000000D01*
X26300000Y490000D02*
X26100000Y690000D01*
X26300000Y-3000000D02*
X26300000Y490000D01*
%TO.N,Net-(R56-Pad2)*%
X4800000Y-5020000D02*
X5120000Y-5020000D01*
X5120000Y-5020000D02*
X5800000Y-5700000D01*
X8600000Y-5700000D02*
X9250000Y-5050000D01*
X9250000Y-5050000D02*
X9250000Y-3815000D01*
X5800000Y-5700000D02*
X8600000Y-5700000D01*
%TO.N,Net-(R57-Pad2)*%
X5200000Y-6200000D02*
X4800000Y-5800000D01*
X12250000Y-4550000D02*
X10600000Y-6200000D01*
X10600000Y-6200000D02*
X5200000Y-6200000D01*
X12250000Y-3815000D02*
X12250000Y-4550000D01*
D67*
%TO.N,Net-(D21-Pad2)*%
X-20925000Y-9950000D02*
X-20975000Y-10000000D01*
X-20975000Y-8637500D02*
X-21362500Y-8250000D01*
X-19000000Y-9950000D02*
X-20925000Y-9950000D01*
X-20975000Y-10000000D02*
X-20975000Y-8637500D01*
D68*
%TO.N,Net-(R62-Pad2)*%
X-8425000Y7450000D02*
X-7350000Y7450000D01*
X-7000000Y7800000D02*
X-6785000Y7800000D01*
X-7350000Y7450000D02*
X-7000000Y7800000D01*
%TO.N,CHIP_EN*%
X-12125000Y10015000D02*
X-12385000Y10275000D01*
X-12125000Y8650000D02*
X-12125000Y10015000D01*
D69*
%TO.N,GPIO2*%
X-22185000Y6005000D02*
X-22290000Y5900000D01*
X-21695000Y6005000D02*
X-22185000Y6005000D01*
X-20580000Y6005000D02*
X-21695000Y6005000D01*
D68*
X-14000000Y5400000D02*
X-13950000Y5450000D01*
X-13950000Y5450000D02*
X-13325000Y5450000D01*
%TO.N,GPIO15*%
X-16800000Y8600000D02*
X-17100000Y8600000D01*
X-14400000Y5900000D02*
X-14690000Y5900000D01*
X-14350000Y5950000D02*
X-13325000Y5950000D01*
X-17380000Y8320000D02*
X-17380000Y7705000D01*
X-14400000Y5900000D02*
X-14350000Y5950000D01*
X-14690000Y5900000D02*
X-15000000Y6210000D01*
X-17100000Y8600000D02*
X-17380000Y8320000D01*
%TO.N,GPIO16*%
X-13100000Y9800000D02*
X-13100000Y10265000D01*
X-13100000Y10265000D02*
X-13090000Y10275000D01*
X-12625000Y8650000D02*
X-12625000Y9325000D01*
X-12625000Y9325000D02*
X-13100000Y9800000D01*
%TO.N,A2_CS*%
X7300000Y6100000D02*
X7300000Y6837500D01*
X7200000Y6000000D02*
X7300000Y6100000D01*
%TO.N,Net-(U50-Pad4)*%
X21850000Y-7000000D02*
X22600000Y-7000000D01*
X24850000Y-4350000D02*
X24090000Y-4350000D01*
X25000000Y-5300000D02*
X25000000Y-4500000D01*
X24090000Y-5350000D02*
X24950000Y-5350000D01*
X24950000Y-5350000D02*
X25000000Y-5300000D01*
X25000000Y-4500000D02*
X24850000Y-4350000D01*
%TO.N,Net-(U50-Pad5)*%
X23200000Y-5700000D02*
X22400000Y-6500000D01*
X23200000Y-5000000D02*
X23200000Y-5700000D01*
X23350000Y-4850000D02*
X23200000Y-5000000D01*
X23200000Y-5700000D02*
X23350000Y-5850000D01*
X24090000Y-4850000D02*
X23350000Y-4850000D01*
X22400000Y-6500000D02*
X21850000Y-6500000D01*
X23350000Y-5850000D02*
X24090000Y-5850000D01*
%TO.N,E_D+*%
X11250000Y-3815000D02*
X11250000Y-3050000D01*
X11250000Y-3050000D02*
X11300000Y-3000000D01*
X10400000Y-4900000D02*
X11100000Y-4900000D01*
X10250000Y-4750000D02*
X10400000Y-4900000D01*
X11300000Y-37500D02*
X11300000Y-3000000D01*
X11100000Y-4900000D02*
X11250000Y-4750000D01*
X10250000Y-3815000D02*
X10250000Y-4750000D01*
X11250000Y-4750000D02*
X11250000Y-3815000D01*
%TO.N,E_D-*%
X10000000Y-2700000D02*
X9750000Y-2950000D01*
X9750000Y-2950000D02*
X9750000Y-3815000D01*
X10400000Y-2700000D02*
X10000000Y-2700000D01*
X10750000Y-3815000D02*
X10750000Y-2350000D01*
X10750000Y-2350000D02*
X10400000Y-2700000D01*
X10750000Y-2350000D02*
X10900000Y-2200000D01*
X10900000Y-37500D02*
X10900000Y-2200000D01*
%TO.N,GPIO14*%
X-14800000Y8100000D02*
X-14150000Y8100000D01*
X-14000000Y7950000D02*
X-13325000Y7950000D01*
X-15895000Y7005000D02*
X-14800000Y8100000D01*
X-16680000Y7005000D02*
X-15895000Y7005000D01*
X-14150000Y8100000D02*
X-14000000Y7950000D01*
%TO.N,GPIO12*%
X-15900000Y5900000D02*
X-16005000Y6005000D01*
X-16005000Y6005000D02*
X-16680000Y6005000D01*
X-14500000Y7500000D02*
X-13850000Y7500000D01*
X-13800000Y7450000D02*
X-13325000Y7450000D01*
X-13850000Y7500000D02*
X-13800000Y7450000D01*
%TO.N,GPIO13*%
X-14250000Y6450000D02*
X-14600000Y6800000D01*
X-13325000Y6450000D02*
X-14250000Y6450000D01*
X-15400000Y6800000D02*
X-15700000Y6500000D01*
X-16675000Y6500000D02*
X-16680000Y6505000D01*
X-14600000Y6800000D02*
X-15400000Y6800000D01*
X-15700000Y6500000D02*
X-16675000Y6500000D01*
%TO.N,GPIO4*%
X-19380000Y3180000D02*
X-19300000Y3100000D01*
X-13325000Y4450000D02*
X-13750000Y4450000D01*
X-19380000Y3805000D02*
X-19380000Y3180000D01*
X-13750000Y4450000D02*
X-14000000Y4200000D01*
%TO.N,GPIO5*%
X-19880000Y3805000D02*
X-19880000Y3120000D01*
X-9125000Y3750000D02*
X-9125000Y3025000D01*
X-19880000Y3120000D02*
X-19900000Y3100000D01*
X-9125000Y3025000D02*
X-9100000Y3000000D01*
D69*
%TO.N,Net-(U70-Pad4)*%
X-21595000Y5505000D02*
X-20580000Y5505000D01*
X-23000000Y5300000D02*
X-21800000Y5300000D01*
X-23550000Y4500000D02*
X-23550000Y4750000D01*
X-21800000Y5300000D02*
X-21595000Y5505000D01*
X-23550000Y4750000D02*
X-23000000Y5300000D01*
%TO.N,Net-(U70-Pad6)*%
X-20580000Y4505000D02*
X-20995000Y4505000D01*
X-20995000Y4505000D02*
X-22400000Y3100000D01*
X-22400000Y3100000D02*
X-22450000Y3100000D01*
D68*
%TO.N,PPM_F*%
X12937500Y4400000D02*
X16900000Y4400000D01*
X18300000Y6800000D02*
X23700000Y6800000D01*
X16900000Y4400000D02*
X17800000Y5300000D01*
X17800000Y6300000D02*
X18300000Y6800000D01*
X25000000Y5500000D02*
X25800000Y5500000D01*
X23700000Y6800000D02*
X25000000Y5500000D01*
X17800000Y5300000D02*
X17800000Y6300000D01*
%TO.N,PPM_B*%
X18100000Y7200000D02*
X25000000Y7200000D01*
X25000000Y7200000D02*
X25300000Y7500000D01*
X25300000Y7500000D02*
X25800000Y7500000D01*
X16700000Y4800000D02*
X17400000Y5500000D01*
X17400000Y5500000D02*
X17400000Y6500000D01*
X12937500Y4800000D02*
X16700000Y4800000D01*
X17400000Y6500000D02*
X18100000Y7200000D01*
%TO.N,A1_CS*%
X1600000Y-2300000D02*
X678858Y-3221142D01*
X678858Y-3221142D02*
X671751Y-3221142D01*
X7700000Y800000D02*
X7700000Y-37500D01*
%TO.N,Net-(R4-Pad1)*%
X12100000Y-600000D02*
X12410000Y-910000D01*
X12410000Y-910000D02*
X14790000Y-910000D01*
X12100000Y-37500D02*
X12100000Y-600000D01*
X14790000Y-1700000D02*
X14790000Y-910000D01*
%TD*%
%TA.AperFunction,Conductor*%
%TO.N,GND*%
G36*
X-24650397Y10585148D02*
G01*
X-24636045Y10550500D01*
X-24640636Y10529792D01*
X-24671897Y10462754D01*
X-24673970Y10455640D01*
X-24679791Y10411425D01*
X-24680000Y10408240D01*
X-24680000Y10309747D01*
X-24677145Y10302855D01*
X-24670253Y10300000D01*
X-24149000Y10300000D01*
X-24114352Y10285648D01*
X-24100000Y10251000D01*
X-24100000Y10149000D01*
X-24114352Y10114352D01*
X-24149000Y10100000D01*
X-24670253Y10100000D01*
X-24677145Y10097145D01*
X-24680000Y10090253D01*
X-24680000Y9991760D01*
X-24679791Y9988575D01*
X-24673970Y9944360D01*
X-24671897Y9937246D01*
X-24659149Y9909908D01*
X-24657513Y9872440D01*
X-24682850Y9844791D01*
X-24703558Y9840200D01*
X-24838789Y9840200D01*
X-24873437Y9854552D01*
X-25047424Y10028539D01*
X-25050312Y10031691D01*
X-25075195Y10061346D01*
X-25075196Y10061347D01*
X-25077950Y10064629D01*
X-25115191Y10086130D01*
X-25118796Y10088427D01*
X-25150495Y10110623D01*
X-25150496Y10110623D01*
X-25154007Y10113082D01*
X-25162461Y10115347D01*
X-25174273Y10120241D01*
X-25178136Y10122471D01*
X-25178137Y10122471D01*
X-25181850Y10124615D01*
X-25224202Y10132083D01*
X-25228364Y10133007D01*
X-25255904Y10140386D01*
X-25265752Y10143025D01*
X-25265754Y10143025D01*
X-25269892Y10144134D01*
X-25274157Y10143761D01*
X-25274159Y10143761D01*
X-25312729Y10140386D01*
X-25317000Y10140200D01*
X-27250500Y10140200D01*
X-27285148Y10154552D01*
X-27299500Y10189200D01*
X-27299500Y10294748D01*
X-27311133Y10353231D01*
X-27355448Y10419552D01*
X-27421769Y10463867D01*
X-27480252Y10475500D01*
X-28519748Y10475500D01*
X-28578231Y10463867D01*
X-28644552Y10419552D01*
X-28688867Y10353231D01*
X-28700500Y10294748D01*
X-28700500Y9473119D01*
X-28714852Y9438471D01*
X-28749500Y9424119D01*
X-28784148Y9438471D01*
X-28790242Y9445896D01*
X-28803128Y9465181D01*
X-28809819Y9471872D01*
X-28867951Y9510715D01*
X-28876697Y9514337D01*
X-28927948Y9524532D01*
X-28932705Y9525000D01*
X-29365253Y9525000D01*
X-29372145Y9522145D01*
X-29375000Y9515253D01*
X-29375000Y8334747D01*
X-29372145Y8327855D01*
X-29365253Y8325000D01*
X-28759747Y8325000D01*
X-28752855Y8327855D01*
X-28750000Y8334747D01*
X-28750000Y9076730D01*
X-28735648Y9111378D01*
X-28701000Y9125730D01*
X-28666352Y9111378D01*
X-28660258Y9103953D01*
X-28644552Y9080448D01*
X-28578231Y9036133D01*
X-28519748Y9024500D01*
X-27480252Y9024500D01*
X-27421769Y9036133D01*
X-27355448Y9080448D01*
X-27339742Y9103953D01*
X-27308559Y9124789D01*
X-27271777Y9117472D01*
X-27250941Y9086289D01*
X-27250000Y9076730D01*
X-27250000Y8334747D01*
X-27247145Y8327855D01*
X-27240253Y8325000D01*
X-25809747Y8325000D01*
X-25802855Y8327855D01*
X-25800000Y8334747D01*
X-25800000Y9342295D01*
X-25800469Y9347062D01*
X-25811246Y9401241D01*
X-25803930Y9438023D01*
X-25772747Y9458858D01*
X-25763188Y9459800D01*
X-25461211Y9459800D01*
X-25426563Y9445448D01*
X-25252576Y9271461D01*
X-25249689Y9268310D01*
X-25222050Y9235371D01*
X-25189626Y9216651D01*
X-25184809Y9213870D01*
X-25181204Y9211573D01*
X-25145993Y9186918D01*
X-25141853Y9185809D01*
X-25141854Y9185809D01*
X-25137540Y9184653D01*
X-25125727Y9179759D01*
X-25121864Y9177529D01*
X-25118150Y9175385D01*
X-25075798Y9167917D01*
X-25071636Y9166993D01*
X-25054421Y9162381D01*
X-25034248Y9156975D01*
X-25034246Y9156975D01*
X-25030108Y9155866D01*
X-25025843Y9156239D01*
X-25025841Y9156239D01*
X-24987271Y9159614D01*
X-24983000Y9159800D01*
X-24714182Y9159800D01*
X-24679534Y9145448D01*
X-24669773Y9131508D01*
X-24623224Y9031684D01*
X-24538316Y8946776D01*
X-24524364Y8940270D01*
X-24432885Y8897612D01*
X-24432882Y8897611D01*
X-24429487Y8896028D01*
X-24379901Y8889500D01*
X-24200113Y8889500D01*
X-24020100Y8889501D01*
X-23998989Y8892280D01*
X-23974227Y8895539D01*
X-23974226Y8895539D01*
X-23970513Y8896028D01*
X-23861684Y8946776D01*
X-23776776Y9031684D01*
X-23764409Y9058205D01*
X-23736759Y9083542D01*
X-23699292Y9081906D01*
X-23675591Y9058205D01*
X-23663224Y9031684D01*
X-23578316Y8946776D01*
X-23564364Y8940270D01*
X-23472885Y8897612D01*
X-23472882Y8897611D01*
X-23469487Y8896028D01*
X-23419901Y8889500D01*
X-23240113Y8889500D01*
X-23060100Y8889501D01*
X-23038989Y8892280D01*
X-23014227Y8895539D01*
X-23014226Y8895539D01*
X-23010513Y8896028D01*
X-22901684Y8946776D01*
X-22901439Y8946251D01*
X-22868184Y8953628D01*
X-22848231Y8945262D01*
X-22845248Y8943134D01*
X-22842379Y8940270D01*
X-22838739Y8938491D01*
X-22838738Y8938490D01*
X-22822672Y8930637D01*
X-22738294Y8889392D01*
X-22670486Y8879500D01*
X-22309514Y8879500D01*
X-22307757Y8879759D01*
X-22307752Y8879759D01*
X-22269710Y8885360D01*
X-22241116Y8889569D01*
X-22137120Y8940628D01*
X-22055270Y9022621D01*
X-22050840Y9031684D01*
X-22048980Y9035488D01*
X-22020871Y9060314D01*
X-21983440Y9057992D01*
X-21960973Y9035565D01*
X-21954372Y9022120D01*
X-21872379Y8940270D01*
X-21868739Y8938491D01*
X-21868738Y8938490D01*
X-21852672Y8930637D01*
X-21768294Y8889392D01*
X-21700486Y8879500D01*
X-21339514Y8879500D01*
X-21337757Y8879759D01*
X-21337752Y8879759D01*
X-21299710Y8885360D01*
X-21271116Y8889569D01*
X-21192331Y8928250D01*
X-21154905Y8930637D01*
X-21136120Y8918943D01*
X-21097379Y8880270D01*
X-21093739Y8878491D01*
X-21093738Y8878490D01*
X-21086901Y8875148D01*
X-20993294Y8829392D01*
X-20925486Y8819500D01*
X-20514514Y8819500D01*
X-20512757Y8819759D01*
X-20512752Y8819759D01*
X-20474710Y8825360D01*
X-20446116Y8829569D01*
X-20422833Y8841000D01*
X-20353282Y8875148D01*
X-20342120Y8880628D01*
X-20288352Y8934490D01*
X-20253717Y8948872D01*
X-20232966Y8944281D01*
X-20132885Y8897612D01*
X-20132882Y8897611D01*
X-20129487Y8896028D01*
X-20079901Y8889500D01*
X-19990911Y8889500D01*
X-19956263Y8875148D01*
X-19487712Y8406597D01*
X-19473360Y8371949D01*
X-19487712Y8337301D01*
X-19512801Y8323891D01*
X-19557563Y8314987D01*
X-19566314Y8311363D01*
X-19602777Y8286999D01*
X-19639559Y8279682D01*
X-19657223Y8286999D01*
X-19693686Y8311363D01*
X-19702437Y8314987D01*
X-19772738Y8328971D01*
X-19777145Y8327145D01*
X-19780000Y8320253D01*
X-19780000Y7814747D01*
X-19777145Y7807855D01*
X-19770253Y7805000D01*
X-19329000Y7805000D01*
X-19294352Y7790648D01*
X-19280000Y7756000D01*
X-19280000Y7654000D01*
X-19294352Y7619352D01*
X-19329000Y7605000D01*
X-20220253Y7605000D01*
X-20227145Y7602145D01*
X-20230000Y7595253D01*
X-20230000Y7404500D01*
X-20244352Y7369852D01*
X-20279000Y7355500D01*
X-20777373Y7355499D01*
X-20910232Y7355499D01*
X-20944880Y7369851D01*
X-21298179Y7723150D01*
X-21302648Y7728327D01*
X-21304575Y7732269D01*
X-21341541Y7766560D01*
X-21342865Y7767836D01*
X-21357277Y7782248D01*
X-21359134Y7783522D01*
X-21360271Y7784467D01*
X-21364428Y7787791D01*
X-21383332Y7805327D01*
X-21386646Y7808401D01*
X-21390841Y7810075D01*
X-21390848Y7810079D01*
X-21402509Y7814731D01*
X-21402539Y7814747D01*
X-20230000Y7814747D01*
X-20227145Y7807855D01*
X-20220253Y7805000D01*
X-19989747Y7805000D01*
X-19982855Y7807855D01*
X-19980000Y7814747D01*
X-19980000Y8320253D01*
X-19982855Y8327145D01*
X-19987262Y8328971D01*
X-20057563Y8314987D01*
X-20066314Y8311363D01*
X-20149253Y8255944D01*
X-20155944Y8249253D01*
X-20211363Y8166314D01*
X-20214987Y8157563D01*
X-20229529Y8084455D01*
X-20230000Y8079678D01*
X-20230000Y7814747D01*
X-21402539Y7814747D01*
X-21412069Y7819835D01*
X-21422416Y7826933D01*
X-21422415Y7826933D01*
X-21426146Y7829492D01*
X-21430548Y7830537D01*
X-21430549Y7830537D01*
X-21439837Y7832741D01*
X-21455631Y7836489D01*
X-21462473Y7838653D01*
X-21487403Y7848599D01*
X-21487405Y7848599D01*
X-21490622Y7849883D01*
X-21494067Y7850221D01*
X-21494068Y7850221D01*
X-21495729Y7850384D01*
X-21495735Y7850384D01*
X-21496915Y7850500D01*
X-21508936Y7850500D01*
X-21520250Y7851824D01*
X-21530662Y7854295D01*
X-21530663Y7854295D01*
X-21535066Y7855340D01*
X-21560901Y7851824D01*
X-21567338Y7850948D01*
X-21573946Y7850500D01*
X-21833937Y7850500D01*
X-21868585Y7864852D01*
X-21878346Y7878792D01*
X-21894965Y7914432D01*
X-21896776Y7918316D01*
X-21981684Y8003224D01*
X-22007862Y8015431D01*
X-22087115Y8052388D01*
X-22087118Y8052389D01*
X-22090513Y8053972D01*
X-22140099Y8060500D01*
X-22319887Y8060500D01*
X-22499900Y8060499D01*
X-22521011Y8057720D01*
X-22545773Y8054461D01*
X-22545774Y8054461D01*
X-22549487Y8053972D01*
X-22658316Y8003224D01*
X-22743224Y7918316D01*
X-22745035Y7914432D01*
X-22755867Y7891203D01*
X-22783517Y7865866D01*
X-22820984Y7867502D01*
X-22844685Y7891202D01*
X-22855382Y7914142D01*
X-22860222Y7921054D01*
X-22938946Y7999778D01*
X-22945860Y8004619D01*
X-23047246Y8051897D01*
X-23054360Y8053970D01*
X-23098575Y8059791D01*
X-23101760Y8060000D01*
X-23170253Y8060000D01*
X-23177145Y8057145D01*
X-23180000Y8050253D01*
X-23180000Y6699000D01*
X-23194352Y6664352D01*
X-23229000Y6650000D01*
X-23750253Y6650000D01*
X-23757145Y6647145D01*
X-23760000Y6640253D01*
X-23760000Y6541760D01*
X-23759791Y6538575D01*
X-23753970Y6494360D01*
X-23751897Y6487246D01*
X-23704619Y6385860D01*
X-23699778Y6378946D01*
X-23697299Y6376467D01*
X-23682947Y6341819D01*
X-23697299Y6307171D01*
X-23712510Y6291960D01*
X-23747158Y6277608D01*
X-23769407Y6282951D01*
X-23771261Y6283896D01*
X-23771262Y6283896D01*
X-23774696Y6285646D01*
X-23778501Y6286249D01*
X-23778502Y6286249D01*
X-23896193Y6304889D01*
X-23900000Y6305492D01*
X-23903807Y6304889D01*
X-24021498Y6286249D01*
X-24021499Y6286249D01*
X-24025304Y6285646D01*
X-24068191Y6263794D01*
X-24134908Y6229800D01*
X-24134909Y6229799D01*
X-24138342Y6228050D01*
X-24228050Y6138342D01*
X-24285646Y6025304D01*
X-24305492Y5900000D01*
X-24285646Y5774696D01*
X-24283888Y5771246D01*
X-24283887Y5771233D01*
X-24282704Y5767593D01*
X-24283578Y5767309D01*
X-24280945Y5733860D01*
X-24305300Y5705341D01*
X-24327547Y5700000D01*
X-28963571Y5700000D01*
X-28968162Y5700216D01*
X-28971166Y5700500D01*
X-30378834Y5700500D01*
X-30381838Y5700216D01*
X-30386429Y5700000D01*
X-30750500Y5700000D01*
X-30785148Y5714352D01*
X-30799500Y5749000D01*
X-30799500Y6859747D01*
X-23760000Y6859747D01*
X-23757145Y6852855D01*
X-23750253Y6850000D01*
X-23389747Y6850000D01*
X-23382855Y6852855D01*
X-23380000Y6859747D01*
X-23380000Y7440253D01*
X-23382855Y7447145D01*
X-23389747Y7450000D01*
X-23750253Y7450000D01*
X-23757145Y7447145D01*
X-23760000Y7440253D01*
X-23760000Y7341760D01*
X-23759791Y7338575D01*
X-23753970Y7294360D01*
X-23751897Y7287246D01*
X-23704619Y7185860D01*
X-23699189Y7178105D01*
X-23691071Y7141491D01*
X-23699189Y7121895D01*
X-23704619Y7114140D01*
X-23751897Y7012754D01*
X-23753970Y7005640D01*
X-23759791Y6961425D01*
X-23760000Y6958240D01*
X-23760000Y6859747D01*
X-30799500Y6859747D01*
X-30799500Y7107705D01*
X-30200000Y7107705D01*
X-30199532Y7102948D01*
X-30189337Y7051697D01*
X-30185715Y7042951D01*
X-30146872Y6984819D01*
X-30140181Y6978128D01*
X-30082049Y6939285D01*
X-30073303Y6935663D01*
X-30022052Y6925468D01*
X-30017295Y6925000D01*
X-29584747Y6925000D01*
X-29577855Y6927855D01*
X-29575000Y6934747D01*
X-29375000Y6934747D01*
X-29372145Y6927855D01*
X-29365253Y6925000D01*
X-28932705Y6925000D01*
X-28927948Y6925468D01*
X-28876697Y6935663D01*
X-28867951Y6939285D01*
X-28809819Y6978128D01*
X-28803128Y6984819D01*
X-28764285Y7042951D01*
X-28760663Y7051697D01*
X-28750468Y7102948D01*
X-28750000Y7107705D01*
X-27250000Y7107705D01*
X-27249532Y7102948D01*
X-27239337Y7051697D01*
X-27235715Y7042951D01*
X-27196872Y6984819D01*
X-27190181Y6978128D01*
X-27132049Y6939285D01*
X-27123303Y6935663D01*
X-27072052Y6925468D01*
X-27067295Y6925000D01*
X-26634747Y6925000D01*
X-26627855Y6927855D01*
X-26625000Y6934747D01*
X-26425000Y6934747D01*
X-26422145Y6927855D01*
X-26415253Y6925000D01*
X-25982705Y6925000D01*
X-25977948Y6925468D01*
X-25926697Y6935663D01*
X-25917951Y6939285D01*
X-25859819Y6978128D01*
X-25853128Y6984819D01*
X-25814285Y7042951D01*
X-25810663Y7051697D01*
X-25800468Y7102948D01*
X-25800000Y7107705D01*
X-25800000Y7659747D01*
X-23760000Y7659747D01*
X-23757145Y7652855D01*
X-23750253Y7650000D01*
X-23389747Y7650000D01*
X-23382855Y7652855D01*
X-23380000Y7659747D01*
X-23380000Y8050253D01*
X-23382855Y8057145D01*
X-23389747Y8060000D01*
X-23458240Y8060000D01*
X-23461425Y8059791D01*
X-23505640Y8053970D01*
X-23512754Y8051897D01*
X-23614140Y8004619D01*
X-23621054Y7999778D01*
X-23699778Y7921054D01*
X-23704619Y7914140D01*
X-23751897Y7812754D01*
X-23753970Y7805640D01*
X-23759791Y7761425D01*
X-23760000Y7758240D01*
X-23760000Y7659747D01*
X-25800000Y7659747D01*
X-25800000Y8115253D01*
X-25802855Y8122145D01*
X-25809747Y8125000D01*
X-26415253Y8125000D01*
X-26422145Y8122145D01*
X-26425000Y8115253D01*
X-26425000Y6934747D01*
X-26625000Y6934747D01*
X-26625000Y8115253D01*
X-26627855Y8122145D01*
X-26634747Y8125000D01*
X-27240253Y8125000D01*
X-27247145Y8122145D01*
X-27250000Y8115253D01*
X-27250000Y7107705D01*
X-28750000Y7107705D01*
X-28750000Y8115253D01*
X-28752855Y8122145D01*
X-28759747Y8125000D01*
X-29365253Y8125000D01*
X-29372145Y8122145D01*
X-29375000Y8115253D01*
X-29375000Y6934747D01*
X-29575000Y6934747D01*
X-29575000Y8115253D01*
X-29577855Y8122145D01*
X-29584747Y8125000D01*
X-30190253Y8125000D01*
X-30197145Y8122145D01*
X-30200000Y8115253D01*
X-30200000Y7107705D01*
X-30799500Y7107705D01*
X-30799500Y8696654D01*
X-30785148Y8731302D01*
X-30283648Y9232802D01*
X-30249000Y9247154D01*
X-30214352Y9232802D01*
X-30200000Y9198154D01*
X-30200000Y8334747D01*
X-30197145Y8327855D01*
X-30190253Y8325000D01*
X-29584747Y8325000D01*
X-29577855Y8327855D01*
X-29575000Y8334747D01*
X-29575000Y9515253D01*
X-29577855Y9522145D01*
X-29584747Y9525000D01*
X-29873154Y9525000D01*
X-29907802Y9539352D01*
X-29922154Y9574000D01*
X-29907802Y9608648D01*
X-28931302Y10585148D01*
X-28896654Y10599500D01*
X-24685045Y10599500D01*
X-24650397Y10585148D01*
G37*
%TD.AperFunction*%
%TA.AperFunction,Conductor*%
G36*
X-17514352Y10585148D02*
G01*
X-17500000Y10550500D01*
X-17500000Y8647530D01*
X-17514352Y8612882D01*
X-17554065Y8573169D01*
X-17559278Y8568668D01*
X-17563240Y8566732D01*
X-17566317Y8563415D01*
X-17597721Y8529561D01*
X-17598997Y8528237D01*
X-17613485Y8513749D01*
X-17614764Y8511885D01*
X-17615641Y8510829D01*
X-17619040Y8506578D01*
X-17639777Y8484224D01*
X-17641454Y8480022D01*
X-17641454Y8480021D01*
X-17646149Y8468252D01*
X-17651255Y8458690D01*
X-17660980Y8444513D01*
X-17662024Y8440113D01*
X-17662025Y8440111D01*
X-17668018Y8414857D01*
X-17670182Y8408014D01*
X-17680200Y8382905D01*
X-17680201Y8382901D01*
X-17681480Y8379695D01*
X-17682100Y8373372D01*
X-17682100Y8370648D01*
X-17696452Y8336000D01*
X-17731100Y8321648D01*
X-17740659Y8322590D01*
X-17772738Y8328971D01*
X-17777145Y8327145D01*
X-17780000Y8320253D01*
X-17780000Y7654000D01*
X-17794352Y7619352D01*
X-17829000Y7605000D01*
X-18431000Y7605000D01*
X-18465648Y7619352D01*
X-18480000Y7654000D01*
X-18480000Y7814747D01*
X-18280000Y7814747D01*
X-18277145Y7807855D01*
X-18270253Y7805000D01*
X-17989747Y7805000D01*
X-17982855Y7807855D01*
X-17980000Y7814747D01*
X-17980000Y8320253D01*
X-17982855Y8327145D01*
X-17987262Y8328971D01*
X-18057563Y8314987D01*
X-18066314Y8311363D01*
X-18102777Y8286999D01*
X-18139559Y8279682D01*
X-18157223Y8286999D01*
X-18193686Y8311363D01*
X-18202437Y8314987D01*
X-18272738Y8328971D01*
X-18277145Y8327145D01*
X-18280000Y8320253D01*
X-18280000Y7814747D01*
X-18480000Y7814747D01*
X-18480000Y8320253D01*
X-18482855Y8327145D01*
X-18487262Y8328971D01*
X-18492173Y8327994D01*
X-18528955Y8335311D01*
X-18549987Y8367544D01*
X-18554639Y8393925D01*
X-18554641Y8393930D01*
X-18555385Y8398150D01*
X-18557529Y8401864D01*
X-18559759Y8405727D01*
X-18564653Y8417540D01*
X-18565809Y8421854D01*
X-18566918Y8425993D01*
X-18576803Y8440111D01*
X-18591573Y8461204D01*
X-18593870Y8464809D01*
X-18602653Y8480021D01*
X-18615371Y8502050D01*
X-18648310Y8529689D01*
X-18651461Y8532576D01*
X-18925237Y8806352D01*
X-18939589Y8841000D01*
X-18925237Y8875648D01*
X-18890589Y8890000D01*
X-18761760Y8890000D01*
X-18758575Y8890209D01*
X-18714360Y8896030D01*
X-18707246Y8898103D01*
X-18605860Y8945381D01*
X-18598946Y8950222D01*
X-18520222Y9028946D01*
X-18515381Y9035860D01*
X-18468103Y9137246D01*
X-18466030Y9144360D01*
X-18460209Y9188575D01*
X-18460000Y9191760D01*
X-18460000Y9290253D01*
X-18462855Y9297145D01*
X-18469747Y9300000D01*
X-18991000Y9300000D01*
X-19025648Y9314352D01*
X-19040000Y9349000D01*
X-19040000Y9509747D01*
X-18840000Y9509747D01*
X-18837145Y9502855D01*
X-18830253Y9500000D01*
X-18469747Y9500000D01*
X-18462855Y9502855D01*
X-18460000Y9509747D01*
X-18460000Y9608240D01*
X-18460209Y9611425D01*
X-18466030Y9655640D01*
X-18468103Y9662754D01*
X-18515381Y9764140D01*
X-18520811Y9771895D01*
X-18528929Y9808509D01*
X-18520811Y9828105D01*
X-18515381Y9835860D01*
X-18468103Y9937246D01*
X-18466030Y9944360D01*
X-18460209Y9988575D01*
X-18460000Y9991760D01*
X-18460000Y10090253D01*
X-18462855Y10097145D01*
X-18469747Y10100000D01*
X-18830253Y10100000D01*
X-18837145Y10097145D01*
X-18840000Y10090253D01*
X-18840000Y9509747D01*
X-19040000Y9509747D01*
X-19040000Y10251000D01*
X-19025648Y10285648D01*
X-18991000Y10300000D01*
X-18469747Y10300000D01*
X-18462855Y10302855D01*
X-18460000Y10309747D01*
X-18460000Y10408240D01*
X-18460209Y10411425D01*
X-18466030Y10455640D01*
X-18468103Y10462754D01*
X-18499364Y10529792D01*
X-18501000Y10567259D01*
X-18475663Y10594909D01*
X-18454955Y10599500D01*
X-17549000Y10599500D01*
X-17514352Y10585148D01*
G37*
%TD.AperFunction*%
%TD*%
M02*
