M48
; DRILL file {KiCad (6.0.5)} date Wed Dec  7 13:08:00 2022
; FORMAT={-:-/ absolute / inch / decimal}
; #@! TF.CreationDate,2022-12-07T13:08:00-05:00
; #@! TF.GenerationSoftware,Kicad,Pcbnew,(6.0.5)
; #@! TF.FileFunction,Plated,1,4,PTH
FMAT,2
INCH
; #@! TA.AperFunction,Plated,PTH,ViaDrill
T1C0.0079
; #@! TA.AperFunction,Plated,PTH,ComponentDrill
T2C0.0236
; #@! TA.AperFunction,Plated,PTH,ComponentDrill
T3C0.0315
; #@! TA.AperFunction,Plated,PTH,ComponentDrill
T4C0.0350
%
G90
G05
T1
X-0.8435Y0.3278
X-0.8435Y0.2441
X-0.7913Y-0.4016
X-0.7702Y0.3661
X-0.7697Y0.2313
X-0.7608Y0.0266
X-0.7608Y-0.0531
X-0.6693Y0.065
X-0.6693Y-0.0138
X-0.6634Y-0.2205
X-0.6171Y0.3287
X-0.6171Y0.2441
X-0.5846Y0.1063
X-0.5827Y0.3248
X-0.5827Y0.25
X-0.5807Y0.1693
X-0.5691Y-0.003
X-0.5571Y0.4016
X-0.5492Y-0.1929
X-0.5335Y0.3524
X-0.5276Y0.3071
X-0.5258Y0.0522
X-0.5236Y0.2126
X-0.5079Y-0.3346
X-0.4963Y0.1407
X-0.4961Y0.1114
X-0.4852Y-0.0541
X-0.4685Y0.2126
X-0.4293Y-0.0069
X-0.4136Y0.1388
X-0.4136Y0.064
X-0.4114Y0.2303
X-0.4018Y-0.003
X-0.3976Y0.3976
X-0.3737Y0.0999
X-0.3504Y-0.0177
X-0.3388Y0.1388
X-0.3388Y0.064
X-0.3366Y0.4035
X-0.3346Y0.3543
X-0.323Y-0.003
X-0.3051Y-0.0797
X-0.3033Y0.2136
X-0.2756Y0.4055
X-0.2659Y0.0344
X-0.264Y0.1073
X-0.2343Y-0.0827
X-0.2325Y0.0797
X-0.2128Y0.1703
X-0.2089Y0.1073
X-0.2087Y0.3543
X-0.2067Y0.4035
X-0.2028Y0.2343
X-0.1951Y0.1506
X-0.1931Y0.0876
X-0.1931Y0.0404
X-0.1929Y0.0079
X-0.187Y0.3071
X-0.1496Y-0.0157
X-0.1262Y0.1742
X-0.1262Y0.064
X-0.122Y-0.2835
X-0.1201Y-0.2106
X-0.1181Y-0.0157
X-0.0671Y0.1191
X-0.0591Y-0.2747
X-0.0551Y0.252
X-0.0197Y0.252
X-0.0159Y0.1742
X-0.0159Y0.064
X-0.0002Y-0.0069
X0.0157Y0.252
X0.0177Y0.3051
X0.0276Y-0.0059
X0.0551Y-0.0059
X0.0591Y-0.0945
X0.063Y0.1378
X0.0669Y-0.2795
X0.0906Y-0.063
X0.0906Y-0.2559
X0.1083Y0.0827
X0.1142Y-0.2323
X0.1181Y-0.1496
X0.1516Y0.1378
X0.1644Y0.0413
X0.1772Y0.1969
X0.1909Y0.311
X0.2205Y0.2461
X0.2362Y-0.0197
X0.2411Y-0.0551
X0.247Y0.0955
X0.2559Y0.374
X0.2559Y0.3386
X0.3287Y0.1713
X0.3287Y-0.0551
X0.3465Y0.3583
X0.3484Y-0.0059
X0.3602Y0.0846
X0.376Y0.3583
X0.3819Y0.311
X0.3819Y0.2126
X0.3819Y-0.0827
X0.3917Y0.0846
X0.4055Y0.3583
X0.4193Y-0.0059
X0.4331Y0.2461
X0.439Y0.0846
X0.4409Y-0.0315
X0.4508Y-0.1083
X0.4705Y0.0846
X0.4803Y0.311
X0.4803Y0.2126
X0.4921Y-0.0059
X0.502Y0.0846
X0.5138Y0.1594
X0.5295Y0.2205
X0.5295Y0.1909
X0.5315Y0.3268
X0.5335Y0.0846
X0.5433Y-0.0984
X0.5669Y0.0846
X0.6043Y0.4055
X0.6043Y0.2067
X0.6043Y0.1752
X0.6102Y0.311
X0.628Y0.1949
X0.6358Y0.1112
X0.6594Y-0.0896
X0.6634Y0.0807
X0.6772Y0.3386
X0.6988Y-0.0896
X0.7362Y0.3406
X0.75Y-0.0453
X0.7648Y0.2244
X0.7648Y0.185
X0.7648Y0.1447
X0.7795Y0.3445
X0.7953Y-0.0984
X0.811Y0.4075
X0.8425Y0.3445
X0.8878Y-0.0177
X0.9016Y-0.1496
X0.9016Y-0.315
T3
X-0.7677Y-0.1811
X-0.7677Y-0.3346
X-0.4705Y0.3268
X0.7677Y0.2815
X0.7677Y0.0886
T4
X-0.15Y0.35
X-0.15Y-0.35
X-0.05Y0.35
X-0.05Y-0.35
X0.05Y0.35
X0.05Y-0.35
X0.15Y0.35
X0.15Y-0.35
T2
G00X0.4992Y-0.1785
M15
G01X0.4992Y-0.1352
M16
G05
G00X0.4992Y-0.3368
M15
G01X0.4992Y-0.3053
M16
G05
G00X0.8394Y-0.1785
M15
G01X0.8394Y-0.1352
M16
G05
G00X0.8394Y-0.3368
M15
G01X0.8394Y-0.3053
M16
G05
T0
M30
