M48
; DRILL file {KiCad (6.0.5)} date Fri Nov 25 19:57:39 2022
; FORMAT={-:-/ absolute / inch / decimal}
; #@! TF.CreationDate,2022-11-25T19:57:39-05:00
; #@! TF.GenerationSoftware,Kicad,Pcbnew,(6.0.5)
; #@! TF.FileFunction,Plated,1,4,PTH
FMAT,2
INCH
; #@! TA.AperFunction,Plated,PTH,ViaDrill
T1C0.0079
; #@! TA.AperFunction,Plated,PTH,ComponentDrill
T2C0.0236
; #@! TA.AperFunction,Plated,PTH,ComponentDrill
T3C0.0350
; #@! TA.AperFunction,Plated,PTH,ComponentDrill
T4C0.0394
%
G90
G05
T1
X-1.1457Y0.3858
X-1.063Y0.4094
X-1.0591Y0.1417
X-1.0591Y0.063
X-1.0591Y-0.1535
X-1.0591Y-0.1929
X-0.9843Y0.4094
X-0.9567Y0.122
X-0.9409Y0.2323
X-0.8976Y-0.3937
X-0.8583Y0.1772
X-0.8543Y0.2657
X-0.8541Y0.2364
X-0.8425Y0.0315
X-0.8425Y-0.122
X-0.8425Y-0.2244
X-0.7835Y0.122
X-0.7717Y0.2638
X-0.7717Y0.189
X-0.7598Y0.122
X-0.7318Y0.2249
X-0.7283Y0.0512
X-0.7039Y0.1071
X-0.6969Y0.2638
X-0.6969Y0.189
X-0.685Y-0.122
X-0.6811Y0.122
X-0.6614Y0.3386
X-0.6575Y0.3661
X-0.626Y0.2323
X-0.624Y0.1594
X-0.622Y0.0512
X-0.6063Y-0.4055
X-0.5906Y0.2047
X-0.5709Y0.2953
X-0.5669Y0.2323
X-0.5591Y-0.3583
X-0.5551Y0.2756
X-0.5512Y0.2126
X-0.5512Y0.1654
X-0.5157Y-0.0433
X-0.5157Y-0.0787
X-0.5157Y-0.1142
X-0.5Y0.1181
X-0.4961Y-0.2559
X-0.4843Y0.2992
X-0.4843Y0.189
X-0.4252Y0.2441
X-0.4173Y0.4055
X-0.3976Y0.374
X-0.374Y0.2992
X-0.374Y0.189
X-0.3583Y0.1181
X-0.3346Y-0.3386
X-0.3031Y0.2677
X-0.2992Y0.378
X-0.2874Y0.2244
X-0.2707Y-0.1959
X-0.2283Y0.3976
X-0.2134Y0.1488
X-0.2047Y0.2756
X-0.189Y0.0906
X-0.128Y-0.1693
X-0.0591Y-0.2697
X0.0Y-0.2992
X0.063Y-0.0906
X0.0906Y-0.0906
X0.0906Y-0.1181
X0.1063Y0.2756
X0.1063Y0.2441
X0.1063Y0.2126
X0.1063Y0.1181
X0.1063Y0.0866
X0.1132Y-0.2293
X0.1181Y-0.1181
X0.1614Y-0.1575
X0.1811Y0.0118
X0.1929Y0.1969
X0.1969Y0.1693
X0.2047Y0.4016
X0.2047Y0.3386
X0.2047Y0.0669
X0.2047Y0.0276
X0.2165Y-0.2677
X0.2534Y0.2692
X0.2717Y0.0512
X0.2736Y0.3209
X0.2835Y0.2362
X0.2874Y-0.0354
X0.3031Y0.0315
X0.315Y-0.0984
X0.3189Y-0.0354
X0.3209Y0.187
X0.3209Y0.0807
X0.3307Y0.3425
X0.3307Y-0.1969
X0.3346Y0.0315
X0.3504Y-0.0433
X0.3701Y0.3937
X0.376Y0.1339
X0.3819Y0.2343
X0.4272Y0.187
X0.4272Y0.0807
X0.4606Y0.3071
X0.4646Y-0.0433
X0.4961Y-0.1969
X0.5079Y-0.0945
X0.5433Y0.315
X0.5433Y-0.1142
X0.5591Y0.1024
X0.5591Y0.0472
X0.5591Y-0.0039
X0.622Y-0.0079
X0.622Y-0.0984
X0.7244Y0.3622
X0.7244Y-0.2362
X0.7244Y-0.315
X0.7402Y-0.4055
X0.7441Y0.1772
X0.748Y0.0
X0.748Y-0.0512
X0.7638Y-0.2756
X0.7638Y-0.4055
X0.7795Y-0.0512
X0.7874Y-0.4055
X0.7913Y0.2441
X0.8031Y-0.2362
X0.8031Y-0.315
X0.8228Y-0.4055
X0.8307Y0.0315
X0.8386Y0.1535
X0.8425Y-0.0512
X0.8524Y-0.187
X0.8898Y0.3976
X0.8898Y-0.2756
X0.9134Y-0.0709
X0.9134Y-0.3307
X0.9843Y-0.2087
X0.9882Y-0.2835
X1.0118Y-0.1102
X1.0512Y0.0906
X1.0591Y0.248
X1.0591Y0.1693
T3
X-0.15Y0.3539
X-0.15Y-0.3461
X-0.05Y0.3539
X-0.05Y-0.3461
X0.05Y0.3539
X0.05Y-0.3461
X0.15Y0.3539
X0.15Y-0.3461
T4
X-0.4163Y0.0039
X-0.3163Y0.0039
X0.6181Y0.3608
X0.6181Y0.2608
T2
G00X0.2433Y-0.1947
M15
G01X0.2433Y-0.1514
M16
G05
G00X0.2433Y-0.353
M15
G01X0.2433Y-0.3215
M16
G05
G00X0.5835Y-0.1947
M15
G01X0.5835Y-0.1514
M16
G05
G00X0.5835Y-0.353
M15
G01X0.5835Y-0.3215
M16
G05
G00X0.9929Y-0.0307
M15
G01X0.9496Y-0.0307
M16
G05
G00X0.9929Y-0.3709
M15
G01X0.9496Y-0.3709
M16
G05
G00X1.1512Y-0.0307
M15
G01X1.1197Y-0.0307
M16
G05
G00X1.1512Y-0.3709
M15
G01X1.1197Y-0.3709
M16
G05
T0
M30
