%TF.GenerationSoftware,KiCad,Pcbnew,(6.0.5)*%
%TF.CreationDate,2022-11-25T19:57:39-05:00*%
%TF.ProjectId,Rotini-Hardware,526f7469-6e69-42d4-9861-726477617265,rev?*%
%TF.SameCoordinates,Original*%
%TF.FileFunction,Copper,L4,Bot*%
%TF.FilePolarity,Positive*%
%FSLAX46Y46*%
G04 Gerber Fmt 4.6, Leading zero omitted, Abs format (unit mm)*
G04 Created by KiCad (PCBNEW (6.0.5)) date 2022-11-25 19:57:39*
%MOMM*%
%LPD*%
G01*
G04 APERTURE LIST*
%TA.AperFunction,ComponentPad*%
%ADD10R,1.700000X1.700000*%
%TD*%
%TA.AperFunction,ComponentPad*%
%ADD11O,1.700000X1.700000*%
%TD*%
%TA.AperFunction,ComponentPad*%
%ADD12O,2.000000X0.900000*%
%TD*%
%TA.AperFunction,ComponentPad*%
%ADD13O,1.700000X0.900000*%
%TD*%
%TA.AperFunction,ComponentPad*%
%ADD14C,1.778000*%
%TD*%
%TA.AperFunction,ComponentPad*%
%ADD15O,0.900000X2.000000*%
%TD*%
%TA.AperFunction,ComponentPad*%
%ADD16O,0.900000X1.700000*%
%TD*%
%TA.AperFunction,ViaPad*%
%ADD17C,0.400000*%
%TD*%
%TA.AperFunction,Conductor*%
%ADD18C,0.203200*%
%TD*%
%TA.AperFunction,Conductor*%
%ADD19C,0.406400*%
%TD*%
G04 APERTURE END LIST*
D10*
%TO.P,J2,1,Pin_1*%
%TO.N,E_RXD*%
X15700000Y6625000D03*
D11*
%TO.P,J2,2,Pin_2*%
%TO.N,E_TXD*%
X15700000Y9165000D03*
%TD*%
D12*
%TO.P,U51,S1,SHIELD*%
%TO.N,unconnected-(U51-PadS1)*%
X24670000Y-9420000D03*
X24670000Y-780000D03*
D13*
X28840000Y-9420000D03*
X28840000Y-780000D03*
%TD*%
D14*
%TO.P,U30,1,CS*%
%TO.N,A2_CS*%
X3810000Y8990000D03*
%TO.P,U30,2,SA0*%
%TO.N,P_MISO*%
X1270000Y8990000D03*
%TO.P,U30,3,INT2*%
%TO.N,unconnected-(U30-Pad3)*%
X-1270000Y8990000D03*
%TO.P,U30,4,INT1*%
%TO.N,unconnected-(U30-Pad4)*%
X-3810000Y8990000D03*
%TO.P,U30,5,GND*%
%TO.N,GND*%
X-3810000Y-8790000D03*
%TO.P,U30,6,3V3*%
%TO.N,+3V3*%
X-1270000Y-8790000D03*
%TO.P,U30,7,SDA*%
%TO.N,P_MOSI*%
X1270000Y-8790000D03*
%TO.P,U30,8,SCL*%
%TO.N,P_SCK*%
X3810000Y-8790000D03*
%TD*%
D15*
%TO.P,U52,S1,SHIELD*%
%TO.N,unconnected-(U52-PadS1)*%
X6180000Y-4395000D03*
D16*
X14820000Y-8565000D03*
X6180000Y-8565000D03*
D15*
X14820000Y-4395000D03*
%TD*%
D10*
%TO.P,J1,1,Pin_1*%
%TO.N,X_RX*%
X-10575000Y100000D03*
D11*
%TO.P,J1,2,Pin_2*%
%TO.N,X_TX*%
X-8035000Y100000D03*
%TD*%
D17*
%TO.N,GND*%
X-12300000Y7600000D03*
X20100000Y6200000D03*
X5200000Y8600000D03*
X19000000Y-1300000D03*
X-17700000Y4800000D03*
X18400000Y-8000000D03*
X-19600000Y4800000D03*
X21400000Y-1300000D03*
X-18500000Y1300000D03*
X26900000Y4300000D03*
X-22800000Y-10000000D03*
X-9500000Y4800000D03*
X9550000Y3400000D03*
X10850000Y2050000D03*
X-5200000Y7000000D03*
X-7300000Y5700000D03*
X2700000Y6200000D03*
X5200000Y10200000D03*
X-10800000Y6200000D03*
X-7600000Y9600000D03*
X5500000Y-6800000D03*
X-27000000Y10400000D03*
X10850000Y4750000D03*
X-12300000Y4800000D03*
X13800000Y-2900000D03*
X14200000Y-100000D03*
X8150000Y4750000D03*
X-26900000Y-3900000D03*
X-17400000Y-3100000D03*
X2700000Y2200000D03*
X-5420000Y3780000D03*
X20400000Y-8000000D03*
X-24300000Y3100000D03*
X2875000Y-5825000D03*
X-14200000Y-9100000D03*
X2700000Y5400000D03*
X20400000Y-6000000D03*
X23200000Y-8400000D03*
X-26900000Y-4900000D03*
X-16700000Y9300000D03*
X13800000Y8000000D03*
X26900000Y6300000D03*
X-17700000Y6700000D03*
X-26900000Y1600000D03*
X-29100000Y9800000D03*
X4100000Y-4000000D03*
X12900000Y-2400000D03*
X14200000Y2600000D03*
X-25000000Y10400000D03*
X9400000Y10000000D03*
X15800000Y-200000D03*
X-18587500Y5712500D03*
X-1500000Y-6850000D03*
X8400000Y8700000D03*
X-12600000Y-6500000D03*
X-15800000Y1300000D03*
X-8500000Y-8600000D03*
X-9500000Y7600000D03*
X2700000Y3000000D03*
X18400000Y9200000D03*
X-10600000Y10300000D03*
X-15000000Y5200000D03*
X-21800000Y4500000D03*
X-3250000Y-4300000D03*
X8000000Y-2500000D03*
X19400000Y-7000000D03*
X23200000Y-1800000D03*
X18400000Y-6000000D03*
X26700000Y2300000D03*
X-26900000Y3600000D03*
X-13100000Y-1100000D03*
X-19600000Y6700000D03*
X8150000Y2050000D03*
%TO.N,+3V3*%
X4900000Y5000000D03*
X-6875000Y-4975000D03*
X-23900000Y5900000D03*
X-12700000Y3000000D03*
X0Y-7600000D03*
X-4800000Y2300000D03*
X-17880000Y2720000D03*
X6950000Y8150000D03*
X-5800000Y10100000D03*
X11800000Y-1100000D03*
X2700000Y7000000D03*
X8900000Y-1100000D03*
X11700000Y7800000D03*
X22600000Y10100000D03*
X-15850000Y4050000D03*
X-10100000Y9500000D03*
X-14100000Y7000000D03*
X19800000Y-1300000D03*
X15800000Y-2500000D03*
X-7700000Y6800000D03*
X14200000Y1200000D03*
%TO.N,E_EN*%
X18900000Y4500000D03*
X6437500Y6837500D03*
%TO.N,E_IO0*%
X21300000Y3900000D03*
X5000000Y4300000D03*
%TO.N,VCC*%
X-21400000Y-5700000D03*
X-21400000Y-3100000D03*
X-21400000Y800000D03*
%TO.N,VBUS*%
X12600000Y-5000000D03*
X21650000Y-4750000D03*
X25700000Y-2800000D03*
X8400000Y-5000000D03*
X25100000Y-7200000D03*
X-15400000Y-10300000D03*
%TO.N,Net-(C70-Pad1)*%
X-21700000Y6750000D03*
X-17300000Y3100000D03*
%TO.N,X_TX*%
X5200000Y1700000D03*
%TO.N,X_RX*%
X6900000Y1300000D03*
%TO.N,E_TXD*%
X20000000Y-10300000D03*
%TO.N,E_RXD*%
X19400000Y-10300000D03*
X9700000Y5950000D03*
%TO.N,P_MOSI*%
X2300000Y-3000000D03*
X8100000Y-900000D03*
%TO.N,P_MISO*%
X8500000Y800000D03*
X2300000Y-2300000D03*
%TO.N,P_SCK*%
X7300000Y-900000D03*
X3000000Y-3000000D03*
%TO.N,CP_RTS*%
X19000000Y0D03*
X18800000Y-10300000D03*
%TO.N,CP_DTR*%
X21100000Y800000D03*
X20900000Y-10300000D03*
%TO.N,LED_1*%
X-13100000Y-2900000D03*
X4600000Y300000D03*
%TO.N,LED_2*%
X-13100000Y-2000000D03*
X5200000Y700000D03*
%TO.N,GPIO2*%
X-21695000Y6005000D03*
X-14000000Y5400000D03*
%TO.N,GPIO15*%
X-14400000Y5900000D03*
X-16800000Y8600000D03*
%TO.N,A2_CS*%
X7200000Y6000000D03*
%TO.N,Net-(U50-Pad4)*%
X25000000Y-5300000D03*
X22600000Y-7000000D03*
%TO.N,GPIO12*%
X-15900000Y5900000D03*
X-14500000Y7500000D03*
%TO.N,GPIO4*%
X-19300000Y3100000D03*
X-14000000Y4200000D03*
%TO.N,GPIO5*%
X-19900000Y3100000D03*
X-9100000Y3000000D03*
%TO.N,A1_CS*%
X7700000Y800000D03*
X1600000Y-2300000D03*
%TD*%
D18*
%TO.N,E_EN*%
X11400000Y5400000D02*
X7000000Y5400000D01*
X6437500Y5962500D02*
X6437500Y6837500D01*
X18900000Y4500000D02*
X12300000Y4500000D01*
X7000000Y5400000D02*
X6437500Y5962500D01*
X12300000Y4500000D02*
X11400000Y5400000D01*
%TO.N,E_IO0*%
X21300000Y3900000D02*
X5400000Y3900000D01*
X5400000Y3900000D02*
X5000000Y4300000D01*
D19*
%TO.N,VCC*%
X-21400000Y-5700000D02*
X-21400000Y-3100000D01*
X-21400000Y800000D02*
X-21400000Y-3100000D01*
D18*
%TO.N,VBUS*%
X12600000Y-9800000D02*
X12100000Y-10300000D01*
D19*
X22100000Y-9600000D02*
X22800000Y-10300000D01*
X-15400000Y-10300000D02*
X7900000Y-10300000D01*
D18*
X26400000Y-3500000D02*
X25700000Y-2800000D01*
X8400000Y-5000000D02*
X8400000Y-9800000D01*
X26400000Y-5150000D02*
X26400000Y-3500000D01*
X12600000Y-5000000D02*
X12600000Y-9800000D01*
X25900000Y-7200000D02*
X25100000Y-7200000D01*
X26200000Y-7700000D02*
X26200000Y-7500000D01*
D19*
X7900000Y-10300000D02*
X11800000Y-10300000D01*
D18*
X26400000Y-7700000D02*
X26400000Y-5150000D01*
X26300000Y-7800000D02*
X26400000Y-7700000D01*
D19*
X25800000Y-10300000D02*
X26300000Y-9800000D01*
D18*
X26300000Y-7800000D02*
X26200000Y-7700000D01*
D19*
X11800000Y-10300000D02*
X12100000Y-10300000D01*
X26300000Y-9800000D02*
X26300000Y-7800000D01*
D18*
X8400000Y-9800000D02*
X7900000Y-10300000D01*
D19*
X17100000Y-10300000D02*
X17800000Y-9600000D01*
D18*
X26200000Y-7500000D02*
X25900000Y-7200000D01*
D19*
X11800000Y-10300000D02*
X17100000Y-10300000D01*
X22800000Y-10300000D02*
X25800000Y-10300000D01*
X17800000Y-9600000D02*
X22100000Y-9600000D01*
D18*
X26000000Y-4750000D02*
X26400000Y-5150000D01*
X21650000Y-4750000D02*
X26000000Y-4750000D01*
%TO.N,Net-(C70-Pad1)*%
X-20200000Y3700000D02*
X-22200000Y5700000D01*
X-22200000Y6250000D02*
X-21700000Y6750000D01*
X-22200000Y5700000D02*
X-22200000Y6250000D01*
X-17300000Y3100000D02*
X-17900000Y3700000D01*
X-17900000Y3700000D02*
X-20200000Y3700000D01*
%TO.N,E_RXD*%
X9700000Y5950000D02*
X15025000Y5950000D01*
X15025000Y5950000D02*
X15700000Y6625000D01*
%TO.N,P_MISO*%
X1300000Y-1300000D02*
X1300000Y8960000D01*
X1300000Y8960000D02*
X1270000Y8990000D01*
X2300000Y-2300000D02*
X1300000Y-1300000D01*
%TO.N,GPIO2*%
X-19890000Y4200000D02*
X-21695000Y6005000D01*
X-14000000Y5400000D02*
X-14800000Y4600000D01*
X-14800000Y4600000D02*
X-17100000Y4600000D01*
X-17100000Y4600000D02*
X-17500000Y4200000D01*
X-17500000Y4200000D02*
X-19890000Y4200000D01*
%TO.N,GPIO15*%
X-14400000Y5900000D02*
X-13500000Y6800000D01*
X-14600000Y8600000D02*
X-16800000Y8600000D01*
X-13500000Y6800000D02*
X-13500000Y7500000D01*
X-13500000Y7500000D02*
X-14600000Y8600000D01*
%TO.N,A2_CS*%
X6500000Y7600000D02*
X5200000Y7600000D01*
X5200000Y7600000D02*
X3810000Y8990000D01*
X7200000Y6000000D02*
X7200000Y6900000D01*
X7200000Y6900000D02*
X6500000Y7600000D01*
%TO.N,Net-(U50-Pad4)*%
X22600000Y-5600000D02*
X22600000Y-7000000D01*
X22900000Y-5300000D02*
X22600000Y-5600000D01*
X25000000Y-5300000D02*
X22900000Y-5300000D01*
%TO.N,GPIO12*%
X-15900000Y6100000D02*
X-15900000Y5900000D01*
X-14500000Y7500000D02*
X-15900000Y6100000D01*
%TO.N,GPIO4*%
X-16000000Y2200000D02*
X-18400000Y2200000D01*
X-18400000Y2200000D02*
X-19300000Y3100000D01*
X-14000000Y4200000D02*
X-16000000Y2200000D01*
%TO.N,GPIO5*%
X-19900000Y3100000D02*
X-19900000Y2900000D01*
X-19900000Y2900000D02*
X-18800000Y1800000D01*
X-18800000Y1800000D02*
X-10300000Y1800000D01*
X-10300000Y1800000D02*
X-9100000Y3000000D01*
%TD*%
M02*
