%TF.GenerationSoftware,KiCad,Pcbnew,(6.0.5)*%
%TF.CreationDate,2022-11-25T19:57:39-05:00*%
%TF.ProjectId,Rotini-Hardware,526f7469-6e69-42d4-9861-726477617265,rev?*%
%TF.SameCoordinates,Original*%
%TF.FileFunction,Legend,Bot*%
%TF.FilePolarity,Positive*%
%FSLAX46Y46*%
G04 Gerber Fmt 4.6, Leading zero omitted, Abs format (unit mm)*
G04 Created by KiCad (PCBNEW (6.0.5)) date 2022-11-25 19:57:39*
%MOMM*%
%LPD*%
G01*
G04 APERTURE LIST*
%ADD10C,0.300000*%
%ADD11C,0.010000*%
%ADD12R,1.700000X1.700000*%
%ADD13O,1.700000X1.700000*%
%ADD14C,0.600000*%
%ADD15O,2.000000X0.900000*%
%ADD16O,1.700000X0.900000*%
%ADD17C,1.778000*%
%ADD18O,0.900000X2.000000*%
%ADD19O,0.900000X1.700000*%
G04 APERTURE END LIST*
D10*
X-29064285Y-6721428D02*
X-29564285Y-7435714D01*
X-29921428Y-6721428D02*
X-29921428Y-8221428D01*
X-29350000Y-8221428D01*
X-29207142Y-8150000D01*
X-29135714Y-8078571D01*
X-29064285Y-7935714D01*
X-29064285Y-7721428D01*
X-29135714Y-7578571D01*
X-29207142Y-7507142D01*
X-29350000Y-7435714D01*
X-29921428Y-7435714D01*
X-28207142Y-6721428D02*
X-28350000Y-6792857D01*
X-28421428Y-6864285D01*
X-28492857Y-7007142D01*
X-28492857Y-7435714D01*
X-28421428Y-7578571D01*
X-28350000Y-7650000D01*
X-28207142Y-7721428D01*
X-27992857Y-7721428D01*
X-27850000Y-7650000D01*
X-27778571Y-7578571D01*
X-27707142Y-7435714D01*
X-27707142Y-7007142D01*
X-27778571Y-6864285D01*
X-27850000Y-6792857D01*
X-27992857Y-6721428D01*
X-28207142Y-6721428D01*
X-27278571Y-7721428D02*
X-26707142Y-7721428D01*
X-27064285Y-8221428D02*
X-27064285Y-6935714D01*
X-26992857Y-6792857D01*
X-26850000Y-6721428D01*
X-26707142Y-6721428D01*
X-26207142Y-6721428D02*
X-26207142Y-7721428D01*
X-26207142Y-8221428D02*
X-26278571Y-8150000D01*
X-26207142Y-8078571D01*
X-26135714Y-8150000D01*
X-26207142Y-8221428D01*
X-26207142Y-8078571D01*
X-25492857Y-7721428D02*
X-25492857Y-6721428D01*
X-25492857Y-7578571D02*
X-25421428Y-7650000D01*
X-25278571Y-7721428D01*
X-25064285Y-7721428D01*
X-24921428Y-7650000D01*
X-24850000Y-7507142D01*
X-24850000Y-6721428D01*
X-24135714Y-6721428D02*
X-24135714Y-7721428D01*
X-24135714Y-8221428D02*
X-24207142Y-8150000D01*
X-24135714Y-8078571D01*
X-24064285Y-8150000D01*
X-24135714Y-8221428D01*
X-24135714Y-8078571D01*
X-22492857Y-8221428D02*
X-21992857Y-6721428D01*
X-21492857Y-8221428D01*
X-20207142Y-6721428D02*
X-21064285Y-6721428D01*
X-20635714Y-6721428D02*
X-20635714Y-8221428D01*
X-20778571Y-8007142D01*
X-20921428Y-7864285D01*
X-21064285Y-7792857D01*
X-28885714Y-5364285D02*
X-29028571Y-5435714D01*
X-29314285Y-5435714D01*
X-29457142Y-5364285D01*
X-29600000Y-5221428D01*
X-29671428Y-5078571D01*
X-29671428Y-4792857D01*
X-29600000Y-4649999D01*
X-29457142Y-4507142D01*
X-29314285Y-4435714D01*
X-29028571Y-4435714D01*
X-28885714Y-4507142D01*
X-29171428Y-5935714D02*
X-29528571Y-5864285D01*
X-29885714Y-5649999D01*
X-30100000Y-5292857D01*
X-30171428Y-4935714D01*
X-30100000Y-4578571D01*
X-29885714Y-4221428D01*
X-29528571Y-4007142D01*
X-29171428Y-3935714D01*
X-28814285Y-4007142D01*
X-28457142Y-4221428D01*
X-28242857Y-4578571D01*
X-28171428Y-4935714D01*
X-28242857Y-5292857D01*
X-28457142Y-5649999D01*
X-28814285Y-5864285D01*
X-29171428Y-5935714D01*
X-26457142Y-5578571D02*
X-26385714Y-5649999D01*
X-26242857Y-5721428D01*
X-25885714Y-5721428D01*
X-25742857Y-5649999D01*
X-25671428Y-5578571D01*
X-25600000Y-5435714D01*
X-25600000Y-5292857D01*
X-25671428Y-5078571D01*
X-26528571Y-4221428D01*
X-25600000Y-4221428D01*
X-24671428Y-5721428D02*
X-24528571Y-5721428D01*
X-24385714Y-5649999D01*
X-24314285Y-5578571D01*
X-24242857Y-5435714D01*
X-24171428Y-5149999D01*
X-24171428Y-4792857D01*
X-24242857Y-4507142D01*
X-24314285Y-4364285D01*
X-24385714Y-4292857D01*
X-24528571Y-4221428D01*
X-24671428Y-4221428D01*
X-24814285Y-4292857D01*
X-24885714Y-4364285D01*
X-24957142Y-4507142D01*
X-25028571Y-4792857D01*
X-25028571Y-5149999D01*
X-24957142Y-5435714D01*
X-24885714Y-5578571D01*
X-24814285Y-5649999D01*
X-24671428Y-5721428D01*
X-23600000Y-5578571D02*
X-23528571Y-5649999D01*
X-23385714Y-5721428D01*
X-23028571Y-5721428D01*
X-22885714Y-5649999D01*
X-22814285Y-5578571D01*
X-22742857Y-5435714D01*
X-22742857Y-5292857D01*
X-22814285Y-5078571D01*
X-23671428Y-4221428D01*
X-22742857Y-4221428D01*
X-22171428Y-5578571D02*
X-22100000Y-5649999D01*
X-21957142Y-5721428D01*
X-21600000Y-5721428D01*
X-21457142Y-5649999D01*
X-21385714Y-5578571D01*
X-21314285Y-5435714D01*
X-21314285Y-5292857D01*
X-21385714Y-5078571D01*
X-22242857Y-4221428D01*
X-21314285Y-4221428D01*
X-19600000Y-4650000D02*
X-18885714Y-4650000D01*
X-19742857Y-4221428D02*
X-19242857Y-5721428D01*
X-18742857Y-4221428D01*
X-18028571Y-4221428D02*
X-18171428Y-4292857D01*
X-18242857Y-4435714D01*
X-18242857Y-5721428D01*
X-17671428Y-5221428D02*
X-17100000Y-5221428D01*
X-17457142Y-4221428D02*
X-17457142Y-5507142D01*
X-17385714Y-5650000D01*
X-17242857Y-5721428D01*
X-17100000Y-5721428D01*
X-16600000Y-4221428D02*
X-16600000Y-5221428D01*
X-16600000Y-4935714D02*
X-16528571Y-5078571D01*
X-16457142Y-5150000D01*
X-16314285Y-5221428D01*
X-16171428Y-5221428D01*
X-15100000Y-4292857D02*
X-15242857Y-4221428D01*
X-15528571Y-4221428D01*
X-15671428Y-4292857D01*
X-15742857Y-4435714D01*
X-15742857Y-5007142D01*
X-15671428Y-5150000D01*
X-15528571Y-5221428D01*
X-15242857Y-5221428D01*
X-15100000Y-5150000D01*
X-15028571Y-5007142D01*
X-15028571Y-4864285D01*
X-15742857Y-4721428D01*
X-13742857Y-4221428D02*
X-13742857Y-5721428D01*
X-13742857Y-4292857D02*
X-13885714Y-4221428D01*
X-14171428Y-4221428D01*
X-14314285Y-4292857D01*
X-14385714Y-4364285D01*
X-14457142Y-4507142D01*
X-14457142Y-4935714D01*
X-14385714Y-5078571D01*
X-14314285Y-5150000D01*
X-14171428Y-5221428D01*
X-13885714Y-5221428D01*
X-13742857Y-5150000D01*
X-12814285Y-4221428D02*
X-12957142Y-4292857D01*
X-13028571Y-4364285D01*
X-13100000Y-4507142D01*
X-13100000Y-4935714D01*
X-13028571Y-5078571D01*
X-12957142Y-5150000D01*
X-12814285Y-5221428D01*
X-12600000Y-5221428D01*
X-12457142Y-5150000D01*
X-12385714Y-5078571D01*
X-12314285Y-4935714D01*
X-12314285Y-4507142D01*
X-12385714Y-4364285D01*
X-12457142Y-4292857D01*
X-12600000Y-4221428D01*
X-12814285Y-4221428D01*
X-10600000Y-4292857D02*
X-10385714Y-4221428D01*
X-10028571Y-4221428D01*
X-9885714Y-4292857D01*
X-9814285Y-4364285D01*
X-9742857Y-4507142D01*
X-9742857Y-4650000D01*
X-9814285Y-4792857D01*
X-9885714Y-4864285D01*
X-10028571Y-4935714D01*
X-10314285Y-5007142D01*
X-10457142Y-5078571D01*
X-10528571Y-5150000D01*
X-10600000Y-5292857D01*
X-10600000Y-5435714D01*
X-10528571Y-5578571D01*
X-10457142Y-5650000D01*
X-10314285Y-5721428D01*
X-9957142Y-5721428D01*
X-9742857Y-5650000D01*
X-9242857Y-5221428D02*
X-8885714Y-4221428D01*
X-8528571Y-5221428D02*
X-8885714Y-4221428D01*
X-9028571Y-3864285D01*
X-9100000Y-3792857D01*
X-9242857Y-3721428D01*
X-8028571Y-4292857D02*
X-7885714Y-4221428D01*
X-7600000Y-4221428D01*
X-7457142Y-4292857D01*
X-7385714Y-4435714D01*
X-7385714Y-4507142D01*
X-7457142Y-4650000D01*
X-7600000Y-4721428D01*
X-7814285Y-4721428D01*
X-7957142Y-4792857D01*
X-8028571Y-4935714D01*
X-8028571Y-5007142D01*
X-7957142Y-5150000D01*
X-7814285Y-5221428D01*
X-7600000Y-5221428D01*
X-7457142Y-5150000D01*
X-6957142Y-5221428D02*
X-6385714Y-5221428D01*
X-6742857Y-5721428D02*
X-6742857Y-4435714D01*
X-6671428Y-4292857D01*
X-6528571Y-4221428D01*
X-6385714Y-4221428D01*
X-5314285Y-4292857D02*
X-5457142Y-4221428D01*
X-5742857Y-4221428D01*
X-5885714Y-4292857D01*
X-5957142Y-4435714D01*
X-5957142Y-5007142D01*
X-5885714Y-5150000D01*
X-5742857Y-5221428D01*
X-5457142Y-5221428D01*
X-5314285Y-5150000D01*
X-5242857Y-5007142D01*
X-5242857Y-4864285D01*
X-5957142Y-4721428D01*
X-4600000Y-4221428D02*
X-4600000Y-5221428D01*
X-4600000Y-5078571D02*
X-4528571Y-5150000D01*
X-4385714Y-5221428D01*
X-4171428Y-5221428D01*
X-4028571Y-5150000D01*
X-3957142Y-5007142D01*
X-3957142Y-4221428D01*
X-3957142Y-5007142D02*
X-3885714Y-5150000D01*
X-3742857Y-5221428D01*
X-3528571Y-5221428D01*
X-3385714Y-5150000D01*
X-3314285Y-5007142D01*
X-3314285Y-4221428D01*
X-2671428Y-4292857D02*
X-2528571Y-4221428D01*
X-2242857Y-4221428D01*
X-2100000Y-4292857D01*
X-2028571Y-4435714D01*
X-2028571Y-4507142D01*
X-2100000Y-4650000D01*
X-2242857Y-4721428D01*
X-2457142Y-4721428D01*
X-2600000Y-4792857D01*
X-2671428Y-4935714D01*
X-2671428Y-5007142D01*
X-2600000Y-5150000D01*
X-2457142Y-5221428D01*
X-2242857Y-5221428D01*
X-2100000Y-5150000D01*
%TO.C,G\u002A\u002A\u002A*%
G36*
X-30366091Y6413375D02*
G01*
X-30305879Y6525392D01*
X-30209390Y6634429D01*
X-30078784Y6739598D01*
X-29916220Y6840007D01*
X-29723858Y6934767D01*
X-29503857Y7022987D01*
X-29258376Y7103776D01*
X-28989575Y7176245D01*
X-28699613Y7239504D01*
X-28390649Y7292661D01*
X-28064842Y7334828D01*
X-27925114Y7346952D01*
X-27762257Y7355789D01*
X-27588576Y7360997D01*
X-27414011Y7362491D01*
X-27248498Y7360190D01*
X-27101977Y7354009D01*
X-26984385Y7343866D01*
X-26982553Y7343643D01*
X-26755832Y7306362D01*
X-26535758Y7251956D01*
X-26328755Y7182873D01*
X-26141248Y7101558D01*
X-25979661Y7010459D01*
X-25850419Y6912022D01*
X-25821671Y6884922D01*
X-25692255Y6734335D01*
X-25599476Y6570325D01*
X-25543427Y6393095D01*
X-25524199Y6202846D01*
X-25524249Y6179778D01*
X-25526500Y6114297D01*
X-25532963Y6049733D01*
X-25545008Y5981469D01*
X-25564004Y5904889D01*
X-25591321Y5815377D01*
X-25628330Y5708318D01*
X-25676399Y5579095D01*
X-25736900Y5423091D01*
X-25811200Y5235692D01*
X-25856766Y5120951D01*
X-25938083Y4912308D01*
X-26006462Y4730319D01*
X-26063938Y4568957D01*
X-26112548Y4422192D01*
X-26154329Y4283997D01*
X-26191316Y4148344D01*
X-26225547Y4009205D01*
X-26247279Y3911293D01*
X-26263438Y3819716D01*
X-26273005Y3731047D01*
X-26277445Y3631313D01*
X-26278220Y3506538D01*
X-26278189Y3500030D01*
X-26272275Y3323155D01*
X-26254792Y3171571D01*
X-26222916Y3032875D01*
X-26173822Y2894665D01*
X-26104686Y2744538D01*
X-26084845Y2704091D01*
X-26042318Y2606400D01*
X-26021336Y2531383D01*
X-26021500Y2471938D01*
X-26042408Y2420962D01*
X-26083662Y2371354D01*
X-26121680Y2337087D01*
X-26169946Y2311574D01*
X-26228701Y2304923D01*
X-26255806Y2306410D01*
X-26323433Y2326865D01*
X-26384745Y2374367D01*
X-26443824Y2452774D01*
X-26504751Y2565945D01*
X-26505574Y2567665D01*
X-26615426Y2839737D01*
X-26686925Y3117198D01*
X-26720199Y3401138D01*
X-26715377Y3692652D01*
X-26672587Y3992831D01*
X-26630288Y4182264D01*
X-26564363Y4433626D01*
X-26488344Y4686301D01*
X-26407382Y4922234D01*
X-26380873Y4995039D01*
X-26356417Y5064374D01*
X-26340512Y5112124D01*
X-26335738Y5130786D01*
X-26335831Y5130848D01*
X-26357058Y5132851D01*
X-26409373Y5135460D01*
X-26485105Y5138346D01*
X-26576581Y5141177D01*
X-26813547Y5147769D01*
X-26924211Y4858533D01*
X-27038850Y4534984D01*
X-27136991Y4194488D01*
X-27204241Y3872683D01*
X-27240876Y3567168D01*
X-27247170Y3275548D01*
X-27223402Y2995423D01*
X-27169846Y2724396D01*
X-27144638Y2633292D01*
X-27088570Y2472958D01*
X-27017290Y2320003D01*
X-26925605Y2163946D01*
X-26808326Y1994303D01*
X-26784508Y1956926D01*
X-26759505Y1876659D01*
X-26773362Y1800104D01*
X-26826123Y1726585D01*
X-26832260Y1720596D01*
X-26906448Y1670686D01*
X-26983576Y1659510D01*
X-27063785Y1687116D01*
X-27147217Y1753549D01*
X-27234014Y1858855D01*
X-27353120Y2050479D01*
X-27467267Y2292895D01*
X-27558205Y2556437D01*
X-27624429Y2834619D01*
X-27664432Y3120956D01*
X-27676708Y3408963D01*
X-27659752Y3692154D01*
X-27636375Y3857492D01*
X-27590261Y4098584D01*
X-27529658Y4353928D01*
X-27457503Y4612381D01*
X-27376734Y4862799D01*
X-27290288Y5094038D01*
X-27287234Y5101578D01*
X-27265847Y5156322D01*
X-27258984Y5184558D01*
X-27266455Y5195064D01*
X-27288072Y5196615D01*
X-27297052Y5196939D01*
X-27343242Y5200319D01*
X-27417006Y5206789D01*
X-27510294Y5215624D01*
X-27615056Y5226097D01*
X-27728037Y5238047D01*
X-28137116Y5288081D01*
X-28513987Y5345289D01*
X-28858099Y5409438D01*
X-29168899Y5480299D01*
X-29445836Y5557641D01*
X-29688358Y5641232D01*
X-29895914Y5730841D01*
X-30067951Y5826239D01*
X-30203919Y5927192D01*
X-30303266Y6033472D01*
X-30365439Y6144846D01*
X-30389888Y6261084D01*
X-30387766Y6279628D01*
X-29941421Y6279628D01*
X-29926558Y6218528D01*
X-29875971Y6157460D01*
X-29788683Y6094501D01*
X-29663719Y6027729D01*
X-29612853Y6004052D01*
X-29387712Y5914570D01*
X-29126433Y5832827D01*
X-28828639Y5758748D01*
X-28493955Y5692256D01*
X-28122006Y5633274D01*
X-27712415Y5581724D01*
X-27264807Y5537532D01*
X-27115383Y5524553D01*
X-27081306Y5639007D01*
X-27064285Y5710174D01*
X-27048205Y5806977D01*
X-27038834Y5900000D01*
X-27042229Y6028116D01*
X-27070416Y6130030D01*
X-27125391Y6208595D01*
X-27209077Y6267967D01*
X-27230299Y6278664D01*
X-27268054Y6294396D01*
X-27307793Y6303687D01*
X-27358771Y6307543D01*
X-27430243Y6306969D01*
X-27531462Y6302968D01*
X-27603479Y6298545D01*
X-27843166Y6269729D01*
X-28108962Y6218424D01*
X-28396972Y6145342D01*
X-28433094Y6135589D01*
X-28520223Y6115025D01*
X-28596616Y6100770D01*
X-28648980Y6095458D01*
X-28683788Y6097694D01*
X-28764769Y6122131D01*
X-28826662Y6168480D01*
X-28862844Y6230464D01*
X-28866692Y6301807D01*
X-28865523Y6306980D01*
X-28853681Y6333151D01*
X-28829991Y6357634D01*
X-28791136Y6381548D01*
X-28733796Y6406009D01*
X-28654653Y6432137D01*
X-28550387Y6461048D01*
X-28417681Y6493861D01*
X-28253214Y6531695D01*
X-28053669Y6575665D01*
X-28011562Y6584738D01*
X-27883235Y6610840D01*
X-27778332Y6628738D01*
X-27685675Y6639863D01*
X-27594085Y6645646D01*
X-27492385Y6647517D01*
X-27329458Y6642922D01*
X-27141059Y6620277D01*
X-26982721Y6578079D01*
X-26851882Y6515587D01*
X-26745980Y6432062D01*
X-26710423Y6393695D01*
X-26656474Y6315935D01*
X-26620136Y6226691D01*
X-26598309Y6117064D01*
X-26587894Y5978154D01*
X-26585746Y5904840D01*
X-26586462Y5825834D01*
X-26593011Y5763529D01*
X-26607002Y5704906D01*
X-26630041Y5636947D01*
X-26634102Y5625776D01*
X-26656588Y5561851D01*
X-26671484Y5515911D01*
X-26675742Y5497265D01*
X-26675099Y5497044D01*
X-26650153Y5495063D01*
X-26594705Y5492486D01*
X-26516225Y5489622D01*
X-26422185Y5486779D01*
X-26172601Y5479923D01*
X-26116263Y5626462D01*
X-26091887Y5690769D01*
X-26048916Y5812490D01*
X-26019432Y5913514D01*
X-26001181Y6003909D01*
X-25991908Y6093741D01*
X-25989359Y6193077D01*
X-25989401Y6210162D01*
X-25991680Y6300865D01*
X-25998953Y6367093D01*
X-26013328Y6421411D01*
X-26036916Y6476385D01*
X-26102840Y6583027D01*
X-26213295Y6697273D01*
X-26358146Y6796058D01*
X-26538075Y6879832D01*
X-26753761Y6949044D01*
X-26773566Y6954254D01*
X-26837495Y6969923D01*
X-26897198Y6981738D01*
X-26959892Y6990345D01*
X-27032794Y6996391D01*
X-27123122Y7000524D01*
X-27238093Y7003390D01*
X-27384923Y7005637D01*
X-27494843Y7006529D01*
X-27718552Y7004429D01*
X-27911060Y6996804D01*
X-28068608Y6983771D01*
X-28254831Y6959953D01*
X-28521779Y6916125D01*
X-28777889Y6862846D01*
X-29019128Y6801394D01*
X-29241462Y6733046D01*
X-29440857Y6659079D01*
X-29613280Y6580769D01*
X-29754696Y6499395D01*
X-29861073Y6416234D01*
X-29867882Y6409612D01*
X-29921537Y6342682D01*
X-29941421Y6279628D01*
X-30387766Y6279628D01*
X-30376060Y6381955D01*
X-30366091Y6413375D01*
G37*
D11*
X-30366091Y6413375D02*
X-30305879Y6525392D01*
X-30209390Y6634429D01*
X-30078784Y6739598D01*
X-29916220Y6840007D01*
X-29723858Y6934767D01*
X-29503857Y7022987D01*
X-29258376Y7103776D01*
X-28989575Y7176245D01*
X-28699613Y7239504D01*
X-28390649Y7292661D01*
X-28064842Y7334828D01*
X-27925114Y7346952D01*
X-27762257Y7355789D01*
X-27588576Y7360997D01*
X-27414011Y7362491D01*
X-27248498Y7360190D01*
X-27101977Y7354009D01*
X-26984385Y7343866D01*
X-26982553Y7343643D01*
X-26755832Y7306362D01*
X-26535758Y7251956D01*
X-26328755Y7182873D01*
X-26141248Y7101558D01*
X-25979661Y7010459D01*
X-25850419Y6912022D01*
X-25821671Y6884922D01*
X-25692255Y6734335D01*
X-25599476Y6570325D01*
X-25543427Y6393095D01*
X-25524199Y6202846D01*
X-25524249Y6179778D01*
X-25526500Y6114297D01*
X-25532963Y6049733D01*
X-25545008Y5981469D01*
X-25564004Y5904889D01*
X-25591321Y5815377D01*
X-25628330Y5708318D01*
X-25676399Y5579095D01*
X-25736900Y5423091D01*
X-25811200Y5235692D01*
X-25856766Y5120951D01*
X-25938083Y4912308D01*
X-26006462Y4730319D01*
X-26063938Y4568957D01*
X-26112548Y4422192D01*
X-26154329Y4283997D01*
X-26191316Y4148344D01*
X-26225547Y4009205D01*
X-26247279Y3911293D01*
X-26263438Y3819716D01*
X-26273005Y3731047D01*
X-26277445Y3631313D01*
X-26278220Y3506538D01*
X-26278189Y3500030D01*
X-26272275Y3323155D01*
X-26254792Y3171571D01*
X-26222916Y3032875D01*
X-26173822Y2894665D01*
X-26104686Y2744538D01*
X-26084845Y2704091D01*
X-26042318Y2606400D01*
X-26021336Y2531383D01*
X-26021500Y2471938D01*
X-26042408Y2420962D01*
X-26083662Y2371354D01*
X-26121680Y2337087D01*
X-26169946Y2311574D01*
X-26228701Y2304923D01*
X-26255806Y2306410D01*
X-26323433Y2326865D01*
X-26384745Y2374367D01*
X-26443824Y2452774D01*
X-26504751Y2565945D01*
X-26505574Y2567665D01*
X-26615426Y2839737D01*
X-26686925Y3117198D01*
X-26720199Y3401138D01*
X-26715377Y3692652D01*
X-26672587Y3992831D01*
X-26630288Y4182264D01*
X-26564363Y4433626D01*
X-26488344Y4686301D01*
X-26407382Y4922234D01*
X-26380873Y4995039D01*
X-26356417Y5064374D01*
X-26340512Y5112124D01*
X-26335738Y5130786D01*
X-26335831Y5130848D01*
X-26357058Y5132851D01*
X-26409373Y5135460D01*
X-26485105Y5138346D01*
X-26576581Y5141177D01*
X-26813547Y5147769D01*
X-26924211Y4858533D01*
X-27038850Y4534984D01*
X-27136991Y4194488D01*
X-27204241Y3872683D01*
X-27240876Y3567168D01*
X-27247170Y3275548D01*
X-27223402Y2995423D01*
X-27169846Y2724396D01*
X-27144638Y2633292D01*
X-27088570Y2472958D01*
X-27017290Y2320003D01*
X-26925605Y2163946D01*
X-26808326Y1994303D01*
X-26784508Y1956926D01*
X-26759505Y1876659D01*
X-26773362Y1800104D01*
X-26826123Y1726585D01*
X-26832260Y1720596D01*
X-26906448Y1670686D01*
X-26983576Y1659510D01*
X-27063785Y1687116D01*
X-27147217Y1753549D01*
X-27234014Y1858855D01*
X-27353120Y2050479D01*
X-27467267Y2292895D01*
X-27558205Y2556437D01*
X-27624429Y2834619D01*
X-27664432Y3120956D01*
X-27676708Y3408963D01*
X-27659752Y3692154D01*
X-27636375Y3857492D01*
X-27590261Y4098584D01*
X-27529658Y4353928D01*
X-27457503Y4612381D01*
X-27376734Y4862799D01*
X-27290288Y5094038D01*
X-27287234Y5101578D01*
X-27265847Y5156322D01*
X-27258984Y5184558D01*
X-27266455Y5195064D01*
X-27288072Y5196615D01*
X-27297052Y5196939D01*
X-27343242Y5200319D01*
X-27417006Y5206789D01*
X-27510294Y5215624D01*
X-27615056Y5226097D01*
X-27728037Y5238047D01*
X-28137116Y5288081D01*
X-28513987Y5345289D01*
X-28858099Y5409438D01*
X-29168899Y5480299D01*
X-29445836Y5557641D01*
X-29688358Y5641232D01*
X-29895914Y5730841D01*
X-30067951Y5826239D01*
X-30203919Y5927192D01*
X-30303266Y6033472D01*
X-30365439Y6144846D01*
X-30389888Y6261084D01*
X-30387766Y6279628D01*
X-29941421Y6279628D01*
X-29926558Y6218528D01*
X-29875971Y6157460D01*
X-29788683Y6094501D01*
X-29663719Y6027729D01*
X-29612853Y6004052D01*
X-29387712Y5914570D01*
X-29126433Y5832827D01*
X-28828639Y5758748D01*
X-28493955Y5692256D01*
X-28122006Y5633274D01*
X-27712415Y5581724D01*
X-27264807Y5537532D01*
X-27115383Y5524553D01*
X-27081306Y5639007D01*
X-27064285Y5710174D01*
X-27048205Y5806977D01*
X-27038834Y5900000D01*
X-27042229Y6028116D01*
X-27070416Y6130030D01*
X-27125391Y6208595D01*
X-27209077Y6267967D01*
X-27230299Y6278664D01*
X-27268054Y6294396D01*
X-27307793Y6303687D01*
X-27358771Y6307543D01*
X-27430243Y6306969D01*
X-27531462Y6302968D01*
X-27603479Y6298545D01*
X-27843166Y6269729D01*
X-28108962Y6218424D01*
X-28396972Y6145342D01*
X-28433094Y6135589D01*
X-28520223Y6115025D01*
X-28596616Y6100770D01*
X-28648980Y6095458D01*
X-28683788Y6097694D01*
X-28764769Y6122131D01*
X-28826662Y6168480D01*
X-28862844Y6230464D01*
X-28866692Y6301807D01*
X-28865523Y6306980D01*
X-28853681Y6333151D01*
X-28829991Y6357634D01*
X-28791136Y6381548D01*
X-28733796Y6406009D01*
X-28654653Y6432137D01*
X-28550387Y6461048D01*
X-28417681Y6493861D01*
X-28253214Y6531695D01*
X-28053669Y6575665D01*
X-28011562Y6584738D01*
X-27883235Y6610840D01*
X-27778332Y6628738D01*
X-27685675Y6639863D01*
X-27594085Y6645646D01*
X-27492385Y6647517D01*
X-27329458Y6642922D01*
X-27141059Y6620277D01*
X-26982721Y6578079D01*
X-26851882Y6515587D01*
X-26745980Y6432062D01*
X-26710423Y6393695D01*
X-26656474Y6315935D01*
X-26620136Y6226691D01*
X-26598309Y6117064D01*
X-26587894Y5978154D01*
X-26585746Y5904840D01*
X-26586462Y5825834D01*
X-26593011Y5763529D01*
X-26607002Y5704906D01*
X-26630041Y5636947D01*
X-26634102Y5625776D01*
X-26656588Y5561851D01*
X-26671484Y5515911D01*
X-26675742Y5497265D01*
X-26675099Y5497044D01*
X-26650153Y5495063D01*
X-26594705Y5492486D01*
X-26516225Y5489622D01*
X-26422185Y5486779D01*
X-26172601Y5479923D01*
X-26116263Y5626462D01*
X-26091887Y5690769D01*
X-26048916Y5812490D01*
X-26019432Y5913514D01*
X-26001181Y6003909D01*
X-25991908Y6093741D01*
X-25989359Y6193077D01*
X-25989401Y6210162D01*
X-25991680Y6300865D01*
X-25998953Y6367093D01*
X-26013328Y6421411D01*
X-26036916Y6476385D01*
X-26102840Y6583027D01*
X-26213295Y6697273D01*
X-26358146Y6796058D01*
X-26538075Y6879832D01*
X-26753761Y6949044D01*
X-26773566Y6954254D01*
X-26837495Y6969923D01*
X-26897198Y6981738D01*
X-26959892Y6990345D01*
X-27032794Y6996391D01*
X-27123122Y7000524D01*
X-27238093Y7003390D01*
X-27384923Y7005637D01*
X-27494843Y7006529D01*
X-27718552Y7004429D01*
X-27911060Y6996804D01*
X-28068608Y6983771D01*
X-28254831Y6959953D01*
X-28521779Y6916125D01*
X-28777889Y6862846D01*
X-29019128Y6801394D01*
X-29241462Y6733046D01*
X-29440857Y6659079D01*
X-29613280Y6580769D01*
X-29754696Y6499395D01*
X-29861073Y6416234D01*
X-29867882Y6409612D01*
X-29921537Y6342682D01*
X-29941421Y6279628D01*
X-30387766Y6279628D01*
X-30376060Y6381955D01*
X-30366091Y6413375D01*
G36*
X-29746976Y8409773D02*
G01*
X-29549841Y8670111D01*
X-29529006Y8694572D01*
X-29336726Y8894234D01*
X-29111374Y9088231D01*
X-28858268Y9273204D01*
X-28582722Y9445792D01*
X-28290050Y9602635D01*
X-27985569Y9740373D01*
X-27674593Y9855646D01*
X-27616625Y9874490D01*
X-27426856Y9931984D01*
X-27244931Y9979518D01*
X-27061465Y10018957D01*
X-26867077Y10052166D01*
X-26652383Y10081009D01*
X-26408000Y10107352D01*
X-26348780Y10111445D01*
X-26245655Y10114949D01*
X-26120070Y10116611D01*
X-25981300Y10116505D01*
X-25838623Y10114706D01*
X-25701317Y10111288D01*
X-25578658Y10106327D01*
X-25479923Y10099895D01*
X-25366359Y10089226D01*
X-24919957Y10026962D01*
X-24497345Y9934071D01*
X-24097650Y9810158D01*
X-23719999Y9654827D01*
X-23363520Y9467684D01*
X-23027340Y9248333D01*
X-22710586Y8996380D01*
X-22412385Y8711430D01*
X-22273945Y8560396D01*
X-22047640Y8276505D01*
X-21858194Y7983760D01*
X-21704362Y7679539D01*
X-21584898Y7361215D01*
X-21498556Y7026167D01*
X-21444091Y6671769D01*
X-21439372Y6624656D01*
X-21429479Y6463531D01*
X-21433231Y6330482D01*
X-21451127Y6218542D01*
X-21483667Y6120743D01*
X-21530614Y6037340D01*
X-21621048Y5932474D01*
X-21738376Y5837487D01*
X-21875725Y5758723D01*
X-22017661Y5695372D01*
X-22276091Y5596721D01*
X-22559059Y5508575D01*
X-22868866Y5430436D01*
X-23207813Y5361805D01*
X-23578203Y5302186D01*
X-23982336Y5251081D01*
X-24422514Y5207991D01*
X-24506531Y5200326D01*
X-24606692Y5189797D01*
X-24688108Y5179620D01*
X-24744040Y5170660D01*
X-24767746Y5163778D01*
X-24778117Y5147630D01*
X-24802326Y5097283D01*
X-24835072Y5020818D01*
X-24873802Y4924624D01*
X-24915962Y4815091D01*
X-24958999Y4698609D01*
X-25000361Y4581568D01*
X-25077647Y4341813D01*
X-25155232Y4048403D01*
X-25206355Y3774804D01*
X-25231616Y3516513D01*
X-25231613Y3269028D01*
X-25206944Y3027846D01*
X-25158203Y2781817D01*
X-25080221Y2529953D01*
X-24977063Y2304283D01*
X-24847632Y2101983D01*
X-24831211Y2079534D01*
X-24775875Y1991139D01*
X-24749226Y1917095D01*
X-24749485Y1849539D01*
X-24774872Y1780608D01*
X-24790829Y1755487D01*
X-24851528Y1703823D01*
X-24929340Y1676945D01*
X-25012810Y1677484D01*
X-25090483Y1708074D01*
X-25145270Y1756015D01*
X-25212196Y1836801D01*
X-25283773Y1941399D01*
X-25355959Y2062975D01*
X-25424714Y2194695D01*
X-25485997Y2329725D01*
X-25535768Y2461231D01*
X-25567204Y2563689D01*
X-25621163Y2793543D01*
X-25659368Y3038188D01*
X-25680588Y3285638D01*
X-25683594Y3523905D01*
X-25667155Y3741000D01*
X-25612009Y4060143D01*
X-25525823Y4407181D01*
X-25410036Y4773729D01*
X-25265286Y5157538D01*
X-25231907Y5240176D01*
X-25157124Y5429805D01*
X-25096904Y5591114D01*
X-25049833Y5729201D01*
X-25014494Y5849169D01*
X-24989472Y5956116D01*
X-24973352Y6055144D01*
X-24964717Y6151354D01*
X-24962154Y6249844D01*
X-24971390Y6410241D01*
X-25015472Y6627686D01*
X-25094480Y6831467D01*
X-25206841Y7019805D01*
X-25350985Y7190919D01*
X-25525340Y7343032D01*
X-25728335Y7474362D01*
X-25958399Y7583131D01*
X-26213961Y7667559D01*
X-26221712Y7669628D01*
X-26364616Y7705485D01*
X-26497466Y7733411D01*
X-26628436Y7754296D01*
X-26765701Y7769025D01*
X-26917434Y7778486D01*
X-27091809Y7783568D01*
X-27297000Y7785157D01*
X-27576534Y7780807D01*
X-27958962Y7759607D01*
X-28345770Y7719954D01*
X-28743915Y7660930D01*
X-29160355Y7581616D01*
X-29602048Y7481095D01*
X-29688675Y7460610D01*
X-29796223Y7438563D01*
X-29877781Y7427920D01*
X-29940167Y7428368D01*
X-29990196Y7439596D01*
X-30034685Y7461291D01*
X-30078060Y7494994D01*
X-30102844Y7536915D01*
X-30108153Y7593036D01*
X-30094605Y7670250D01*
X-30062817Y7775450D01*
X-30031115Y7864524D01*
X-30029671Y7867749D01*
X-29558602Y7867749D01*
X-29473109Y7878306D01*
X-29432084Y7884450D01*
X-29357487Y7897071D01*
X-29259680Y7914467D01*
X-29146593Y7935226D01*
X-29026154Y7957934D01*
X-28827664Y7994190D01*
X-28353229Y8066420D01*
X-27902515Y8113955D01*
X-27476252Y8136887D01*
X-27075170Y8135310D01*
X-26700001Y8109318D01*
X-26351473Y8059005D01*
X-26030318Y7984464D01*
X-25737266Y7885788D01*
X-25473047Y7763072D01*
X-25238391Y7616409D01*
X-25034029Y7445893D01*
X-24946055Y7356744D01*
X-24812018Y7196477D01*
X-24705148Y7028812D01*
X-24619364Y6843534D01*
X-24548584Y6630426D01*
X-24522740Y6514908D01*
X-24504849Y6308156D01*
X-24516834Y6077404D01*
X-24558702Y5822066D01*
X-24561265Y5809963D01*
X-24580465Y5718082D01*
X-24596097Y5641159D01*
X-24606612Y5586943D01*
X-24610462Y5563182D01*
X-24603156Y5555740D01*
X-24565821Y5549958D01*
X-24495565Y5550200D01*
X-24390977Y5556529D01*
X-24250644Y5569011D01*
X-24073154Y5587708D01*
X-23848752Y5614259D01*
X-23511713Y5661536D01*
X-23207236Y5714494D01*
X-22931428Y5774008D01*
X-22680393Y5840956D01*
X-22450239Y5916211D01*
X-22237071Y6000651D01*
X-22198243Y6017716D01*
X-22073132Y6077413D01*
X-21982252Y6130752D01*
X-21922790Y6180588D01*
X-21891929Y6229775D01*
X-21886853Y6281168D01*
X-21904749Y6337622D01*
X-21923397Y6367279D01*
X-21970162Y6420558D01*
X-22027003Y6470503D01*
X-22164467Y6559506D01*
X-22350161Y6650065D01*
X-22572370Y6733699D01*
X-22830027Y6810097D01*
X-23122065Y6878944D01*
X-23447417Y6939926D01*
X-23805016Y6992731D01*
X-23865368Y7000761D01*
X-23986524Y7018754D01*
X-24076535Y7036149D01*
X-24140923Y7054793D01*
X-24185209Y7076531D01*
X-24214915Y7103209D01*
X-24235564Y7136674D01*
X-24248882Y7170563D01*
X-24247873Y7206733D01*
X-24224974Y7253727D01*
X-24195942Y7293260D01*
X-24144275Y7330770D01*
X-24073144Y7351071D01*
X-23976748Y7355584D01*
X-23849283Y7345728D01*
X-23751510Y7334063D01*
X-23361531Y7277268D01*
X-22994330Y7207003D01*
X-22653661Y7124155D01*
X-22343281Y7029612D01*
X-22066942Y6924263D01*
X-22046966Y6915758D01*
X-21979029Y6888260D01*
X-21939282Y6875958D01*
X-21921938Y6877562D01*
X-21921213Y6891782D01*
X-21921725Y6893632D01*
X-21932044Y6937637D01*
X-21943361Y6994154D01*
X-21953565Y7042293D01*
X-21989931Y7172130D01*
X-22041203Y7321313D01*
X-22103466Y7480164D01*
X-22172803Y7639002D01*
X-22245299Y7788148D01*
X-22317039Y7917924D01*
X-22354551Y7978676D01*
X-22537081Y8235345D01*
X-22751832Y8483686D01*
X-22993279Y8718221D01*
X-23255892Y8933472D01*
X-23534144Y9123963D01*
X-23694551Y9218833D01*
X-24020503Y9383917D01*
X-24361043Y9519749D01*
X-24721872Y9628462D01*
X-25108692Y9712183D01*
X-25129660Y9715734D01*
X-25252162Y9731260D01*
X-25403691Y9743965D01*
X-25575993Y9753689D01*
X-25760815Y9760274D01*
X-25949903Y9763560D01*
X-26135004Y9763391D01*
X-26307863Y9759605D01*
X-26460229Y9752046D01*
X-26583846Y9740553D01*
X-26717361Y9721809D01*
X-27120838Y9642551D01*
X-27509188Y9531882D01*
X-27879487Y9391013D01*
X-28228815Y9221155D01*
X-28554249Y9023522D01*
X-28852868Y8799326D01*
X-28938119Y8724685D01*
X-29143824Y8512570D01*
X-29324941Y8277959D01*
X-29474383Y8029630D01*
X-29558602Y7867749D01*
X-30029671Y7867749D01*
X-29906875Y8142161D01*
X-29746976Y8409773D01*
G37*
X-29746976Y8409773D02*
X-29549841Y8670111D01*
X-29529006Y8694572D01*
X-29336726Y8894234D01*
X-29111374Y9088231D01*
X-28858268Y9273204D01*
X-28582722Y9445792D01*
X-28290050Y9602635D01*
X-27985569Y9740373D01*
X-27674593Y9855646D01*
X-27616625Y9874490D01*
X-27426856Y9931984D01*
X-27244931Y9979518D01*
X-27061465Y10018957D01*
X-26867077Y10052166D01*
X-26652383Y10081009D01*
X-26408000Y10107352D01*
X-26348780Y10111445D01*
X-26245655Y10114949D01*
X-26120070Y10116611D01*
X-25981300Y10116505D01*
X-25838623Y10114706D01*
X-25701317Y10111288D01*
X-25578658Y10106327D01*
X-25479923Y10099895D01*
X-25366359Y10089226D01*
X-24919957Y10026962D01*
X-24497345Y9934071D01*
X-24097650Y9810158D01*
X-23719999Y9654827D01*
X-23363520Y9467684D01*
X-23027340Y9248333D01*
X-22710586Y8996380D01*
X-22412385Y8711430D01*
X-22273945Y8560396D01*
X-22047640Y8276505D01*
X-21858194Y7983760D01*
X-21704362Y7679539D01*
X-21584898Y7361215D01*
X-21498556Y7026167D01*
X-21444091Y6671769D01*
X-21439372Y6624656D01*
X-21429479Y6463531D01*
X-21433231Y6330482D01*
X-21451127Y6218542D01*
X-21483667Y6120743D01*
X-21530614Y6037340D01*
X-21621048Y5932474D01*
X-21738376Y5837487D01*
X-21875725Y5758723D01*
X-22017661Y5695372D01*
X-22276091Y5596721D01*
X-22559059Y5508575D01*
X-22868866Y5430436D01*
X-23207813Y5361805D01*
X-23578203Y5302186D01*
X-23982336Y5251081D01*
X-24422514Y5207991D01*
X-24506531Y5200326D01*
X-24606692Y5189797D01*
X-24688108Y5179620D01*
X-24744040Y5170660D01*
X-24767746Y5163778D01*
X-24778117Y5147630D01*
X-24802326Y5097283D01*
X-24835072Y5020818D01*
X-24873802Y4924624D01*
X-24915962Y4815091D01*
X-24958999Y4698609D01*
X-25000361Y4581568D01*
X-25077647Y4341813D01*
X-25155232Y4048403D01*
X-25206355Y3774804D01*
X-25231616Y3516513D01*
X-25231613Y3269028D01*
X-25206944Y3027846D01*
X-25158203Y2781817D01*
X-25080221Y2529953D01*
X-24977063Y2304283D01*
X-24847632Y2101983D01*
X-24831211Y2079534D01*
X-24775875Y1991139D01*
X-24749226Y1917095D01*
X-24749485Y1849539D01*
X-24774872Y1780608D01*
X-24790829Y1755487D01*
X-24851528Y1703823D01*
X-24929340Y1676945D01*
X-25012810Y1677484D01*
X-25090483Y1708074D01*
X-25145270Y1756015D01*
X-25212196Y1836801D01*
X-25283773Y1941399D01*
X-25355959Y2062975D01*
X-25424714Y2194695D01*
X-25485997Y2329725D01*
X-25535768Y2461231D01*
X-25567204Y2563689D01*
X-25621163Y2793543D01*
X-25659368Y3038188D01*
X-25680588Y3285638D01*
X-25683594Y3523905D01*
X-25667155Y3741000D01*
X-25612009Y4060143D01*
X-25525823Y4407181D01*
X-25410036Y4773729D01*
X-25265286Y5157538D01*
X-25231907Y5240176D01*
X-25157124Y5429805D01*
X-25096904Y5591114D01*
X-25049833Y5729201D01*
X-25014494Y5849169D01*
X-24989472Y5956116D01*
X-24973352Y6055144D01*
X-24964717Y6151354D01*
X-24962154Y6249844D01*
X-24971390Y6410241D01*
X-25015472Y6627686D01*
X-25094480Y6831467D01*
X-25206841Y7019805D01*
X-25350985Y7190919D01*
X-25525340Y7343032D01*
X-25728335Y7474362D01*
X-25958399Y7583131D01*
X-26213961Y7667559D01*
X-26221712Y7669628D01*
X-26364616Y7705485D01*
X-26497466Y7733411D01*
X-26628436Y7754296D01*
X-26765701Y7769025D01*
X-26917434Y7778486D01*
X-27091809Y7783568D01*
X-27297000Y7785157D01*
X-27576534Y7780807D01*
X-27958962Y7759607D01*
X-28345770Y7719954D01*
X-28743915Y7660930D01*
X-29160355Y7581616D01*
X-29602048Y7481095D01*
X-29688675Y7460610D01*
X-29796223Y7438563D01*
X-29877781Y7427920D01*
X-29940167Y7428368D01*
X-29990196Y7439596D01*
X-30034685Y7461291D01*
X-30078060Y7494994D01*
X-30102844Y7536915D01*
X-30108153Y7593036D01*
X-30094605Y7670250D01*
X-30062817Y7775450D01*
X-30031115Y7864524D01*
X-30029671Y7867749D01*
X-29558602Y7867749D01*
X-29473109Y7878306D01*
X-29432084Y7884450D01*
X-29357487Y7897071D01*
X-29259680Y7914467D01*
X-29146593Y7935226D01*
X-29026154Y7957934D01*
X-28827664Y7994190D01*
X-28353229Y8066420D01*
X-27902515Y8113955D01*
X-27476252Y8136887D01*
X-27075170Y8135310D01*
X-26700001Y8109318D01*
X-26351473Y8059005D01*
X-26030318Y7984464D01*
X-25737266Y7885788D01*
X-25473047Y7763072D01*
X-25238391Y7616409D01*
X-25034029Y7445893D01*
X-24946055Y7356744D01*
X-24812018Y7196477D01*
X-24705148Y7028812D01*
X-24619364Y6843534D01*
X-24548584Y6630426D01*
X-24522740Y6514908D01*
X-24504849Y6308156D01*
X-24516834Y6077404D01*
X-24558702Y5822066D01*
X-24561265Y5809963D01*
X-24580465Y5718082D01*
X-24596097Y5641159D01*
X-24606612Y5586943D01*
X-24610462Y5563182D01*
X-24603156Y5555740D01*
X-24565821Y5549958D01*
X-24495565Y5550200D01*
X-24390977Y5556529D01*
X-24250644Y5569011D01*
X-24073154Y5587708D01*
X-23848752Y5614259D01*
X-23511713Y5661536D01*
X-23207236Y5714494D01*
X-22931428Y5774008D01*
X-22680393Y5840956D01*
X-22450239Y5916211D01*
X-22237071Y6000651D01*
X-22198243Y6017716D01*
X-22073132Y6077413D01*
X-21982252Y6130752D01*
X-21922790Y6180588D01*
X-21891929Y6229775D01*
X-21886853Y6281168D01*
X-21904749Y6337622D01*
X-21923397Y6367279D01*
X-21970162Y6420558D01*
X-22027003Y6470503D01*
X-22164467Y6559506D01*
X-22350161Y6650065D01*
X-22572370Y6733699D01*
X-22830027Y6810097D01*
X-23122065Y6878944D01*
X-23447417Y6939926D01*
X-23805016Y6992731D01*
X-23865368Y7000761D01*
X-23986524Y7018754D01*
X-24076535Y7036149D01*
X-24140923Y7054793D01*
X-24185209Y7076531D01*
X-24214915Y7103209D01*
X-24235564Y7136674D01*
X-24248882Y7170563D01*
X-24247873Y7206733D01*
X-24224974Y7253727D01*
X-24195942Y7293260D01*
X-24144275Y7330770D01*
X-24073144Y7351071D01*
X-23976748Y7355584D01*
X-23849283Y7345728D01*
X-23751510Y7334063D01*
X-23361531Y7277268D01*
X-22994330Y7207003D01*
X-22653661Y7124155D01*
X-22343281Y7029612D01*
X-22066942Y6924263D01*
X-22046966Y6915758D01*
X-21979029Y6888260D01*
X-21939282Y6875958D01*
X-21921938Y6877562D01*
X-21921213Y6891782D01*
X-21921725Y6893632D01*
X-21932044Y6937637D01*
X-21943361Y6994154D01*
X-21953565Y7042293D01*
X-21989931Y7172130D01*
X-22041203Y7321313D01*
X-22103466Y7480164D01*
X-22172803Y7639002D01*
X-22245299Y7788148D01*
X-22317039Y7917924D01*
X-22354551Y7978676D01*
X-22537081Y8235345D01*
X-22751832Y8483686D01*
X-22993279Y8718221D01*
X-23255892Y8933472D01*
X-23534144Y9123963D01*
X-23694551Y9218833D01*
X-24020503Y9383917D01*
X-24361043Y9519749D01*
X-24721872Y9628462D01*
X-25108692Y9712183D01*
X-25129660Y9715734D01*
X-25252162Y9731260D01*
X-25403691Y9743965D01*
X-25575993Y9753689D01*
X-25760815Y9760274D01*
X-25949903Y9763560D01*
X-26135004Y9763391D01*
X-26307863Y9759605D01*
X-26460229Y9752046D01*
X-26583846Y9740553D01*
X-26717361Y9721809D01*
X-27120838Y9642551D01*
X-27509188Y9531882D01*
X-27879487Y9391013D01*
X-28228815Y9221155D01*
X-28554249Y9023522D01*
X-28852868Y8799326D01*
X-28938119Y8724685D01*
X-29143824Y8512570D01*
X-29324941Y8277959D01*
X-29474383Y8029630D01*
X-29558602Y7867749D01*
X-30029671Y7867749D01*
X-29906875Y8142161D01*
X-29746976Y8409773D01*
%TD*%
%LPC*%
D12*
%TO.C,J2*%
X15700000Y6625000D03*
D13*
X15700000Y9165000D03*
%TD*%
D14*
%TO.C,U51*%
X25150000Y-2210000D03*
X25150000Y-7990000D03*
D15*
X24670000Y-9420000D03*
X24670000Y-780000D03*
D16*
X28840000Y-9420000D03*
X28840000Y-780000D03*
%TD*%
D17*
%TO.C,U30*%
X3810000Y8990000D03*
X1270000Y8990000D03*
X-1270000Y8990000D03*
X-3810000Y8990000D03*
X-3810000Y-8790000D03*
X-1270000Y-8790000D03*
X1270000Y-8790000D03*
X3810000Y-8790000D03*
%TD*%
D14*
%TO.C,U52*%
X7610000Y-4875000D03*
X13390000Y-4875000D03*
D18*
X6180000Y-4395000D03*
D19*
X14820000Y-8565000D03*
X6180000Y-8565000D03*
D18*
X14820000Y-4395000D03*
%TD*%
D12*
%TO.C,J1*%
X-10575000Y100000D03*
D13*
X-8035000Y100000D03*
%TD*%
M02*
