%TF.GenerationSoftware,KiCad,Pcbnew,(6.0.5)*%
%TF.CreationDate,2022-12-07T13:07:59-05:00*%
%TF.ProjectId,Rotini-Hardware,526f7469-6e69-42d4-9861-726477617265,rev?*%
%TF.SameCoordinates,Original*%
%TF.FileFunction,Copper,L1,Top*%
%TF.FilePolarity,Positive*%
%FSLAX46Y46*%
G04 Gerber Fmt 4.6, Leading zero omitted, Abs format (unit mm)*
G04 Created by KiCad (PCBNEW (6.0.5)) date 2022-12-07 13:07:59*
%MOMM*%
%LPD*%
G01*
G04 APERTURE LIST*
G04 Aperture macros list*
%AMRoundRect*
0 Rectangle with rounded corners*
0 $1 Rounding radius*
0 $2 $3 $4 $5 $6 $7 $8 $9 X,Y pos of 4 corners*
0 Add a 4 corners polygon primitive as box body*
4,1,4,$2,$3,$4,$5,$6,$7,$8,$9,$2,$3,0*
0 Add four circle primitives for the rounded corners*
1,1,$1+$1,$2,$3*
1,1,$1+$1,$4,$5*
1,1,$1+$1,$6,$7*
1,1,$1+$1,$8,$9*
0 Add four rect primitives between the rounded corners*
20,1,$1+$1,$2,$3,$4,$5,0*
20,1,$1+$1,$4,$5,$6,$7,0*
20,1,$1+$1,$6,$7,$8,$9,0*
20,1,$1+$1,$8,$9,$2,$3,0*%
%AMRotRect*
0 Rectangle, with rotation*
0 The origin of the aperture is its center*
0 $1 length*
0 $2 width*
0 $3 Rotation angle, in degrees counterclockwise*
0 Add horizontal line*
21,1,$1,$2,0,0,$3*%
G04 Aperture macros list end*
%TA.AperFunction,ComponentPad*%
%ADD10RoundRect,0.375000X0.375000X-0.375000X0.375000X0.375000X-0.375000X0.375000X-0.375000X-0.375000X0*%
%TD*%
%TA.AperFunction,ComponentPad*%
%ADD11RoundRect,0.375000X-0.375000X0.375000X-0.375000X-0.375000X0.375000X-0.375000X0.375000X0.375000X0*%
%TD*%
%TA.AperFunction,SMDPad,CuDef*%
%ADD12RoundRect,0.150000X0.625000X-0.150000X0.625000X0.150000X-0.625000X0.150000X-0.625000X-0.150000X0*%
%TD*%
%TA.AperFunction,SMDPad,CuDef*%
%ADD13RoundRect,0.250000X0.650000X-0.350000X0.650000X0.350000X-0.650000X0.350000X-0.650000X-0.350000X0*%
%TD*%
%TA.AperFunction,SMDPad,CuDef*%
%ADD14RoundRect,0.150000X-0.625000X0.150000X-0.625000X-0.150000X0.625000X-0.150000X0.625000X0.150000X0*%
%TD*%
%TA.AperFunction,SMDPad,CuDef*%
%ADD15RoundRect,0.250000X-0.650000X0.350000X-0.650000X-0.350000X0.650000X-0.350000X0.650000X0.350000X0*%
%TD*%
%TA.AperFunction,SMDPad,CuDef*%
%ADD16RoundRect,0.135000X0.135000X0.185000X-0.135000X0.185000X-0.135000X-0.185000X0.135000X-0.185000X0*%
%TD*%
%TA.AperFunction,SMDPad,CuDef*%
%ADD17RoundRect,0.135000X-0.135000X-0.185000X0.135000X-0.185000X0.135000X0.185000X-0.135000X0.185000X0*%
%TD*%
%TA.AperFunction,SMDPad,CuDef*%
%ADD18R,1.000000X1.000000*%
%TD*%
%TA.AperFunction,SMDPad,CuDef*%
%ADD19RoundRect,0.218750X0.218750X0.256250X-0.218750X0.256250X-0.218750X-0.256250X0.218750X-0.256250X0*%
%TD*%
%TA.AperFunction,SMDPad,CuDef*%
%ADD20RoundRect,0.135000X-0.185000X0.135000X-0.185000X-0.135000X0.185000X-0.135000X0.185000X0.135000X0*%
%TD*%
%TA.AperFunction,SMDPad,CuDef*%
%ADD21RoundRect,0.140000X-0.170000X0.140000X-0.170000X-0.140000X0.170000X-0.140000X0.170000X0.140000X0*%
%TD*%
%TA.AperFunction,SMDPad,CuDef*%
%ADD22RoundRect,0.140000X-0.140000X-0.170000X0.140000X-0.170000X0.140000X0.170000X-0.140000X0.170000X0*%
%TD*%
%TA.AperFunction,SMDPad,CuDef*%
%ADD23RoundRect,0.135000X0.185000X-0.135000X0.185000X0.135000X-0.185000X0.135000X-0.185000X-0.135000X0*%
%TD*%
%TA.AperFunction,SMDPad,CuDef*%
%ADD24RoundRect,0.225000X0.250000X-0.225000X0.250000X0.225000X-0.250000X0.225000X-0.250000X-0.225000X0*%
%TD*%
%TA.AperFunction,SMDPad,CuDef*%
%ADD25RoundRect,0.140000X0.170000X-0.140000X0.170000X0.140000X-0.170000X0.140000X-0.170000X-0.140000X0*%
%TD*%
%TA.AperFunction,SMDPad,CuDef*%
%ADD26RoundRect,0.140000X0.140000X0.170000X-0.140000X0.170000X-0.140000X-0.170000X0.140000X-0.170000X0*%
%TD*%
%TA.AperFunction,SMDPad,CuDef*%
%ADD27RoundRect,0.050000X0.050000X-0.387500X0.050000X0.387500X-0.050000X0.387500X-0.050000X-0.387500X0*%
%TD*%
%TA.AperFunction,SMDPad,CuDef*%
%ADD28RoundRect,0.050000X0.387500X-0.050000X0.387500X0.050000X-0.387500X0.050000X-0.387500X-0.050000X0*%
%TD*%
%TA.AperFunction,SMDPad,CuDef*%
%ADD29R,4.000000X4.000000*%
%TD*%
%TA.AperFunction,SMDPad,CuDef*%
%ADD30RoundRect,0.150000X0.587500X0.150000X-0.587500X0.150000X-0.587500X-0.150000X0.587500X-0.150000X0*%
%TD*%
%TA.AperFunction,SMDPad,CuDef*%
%ADD31RoundRect,0.212500X0.887500X-0.212500X0.887500X0.212500X-0.887500X0.212500X-0.887500X-0.212500X0*%
%TD*%
%TA.AperFunction,SMDPad,CuDef*%
%ADD32RoundRect,0.075000X-0.350000X-0.075000X0.350000X-0.075000X0.350000X0.075000X-0.350000X0.075000X0*%
%TD*%
%TA.AperFunction,SMDPad,CuDef*%
%ADD33RoundRect,0.075000X-0.075000X-0.350000X0.075000X-0.350000X0.075000X0.350000X-0.075000X0.350000X0*%
%TD*%
%TA.AperFunction,SMDPad,CuDef*%
%ADD34R,2.650000X2.650000*%
%TD*%
%TA.AperFunction,SMDPad,CuDef*%
%ADD35RoundRect,0.140000X0.219203X0.021213X0.021213X0.219203X-0.219203X-0.021213X-0.021213X-0.219203X0*%
%TD*%
%TA.AperFunction,ComponentPad*%
%ADD36C,1.778000*%
%TD*%
%TA.AperFunction,SMDPad,CuDef*%
%ADD37RotRect,1.000000X0.300000X135.000000*%
%TD*%
%TA.AperFunction,SMDPad,CuDef*%
%ADD38RotRect,0.300000X1.000000X135.000000*%
%TD*%
%TA.AperFunction,SMDPad,CuDef*%
%ADD39R,0.600000X1.160000*%
%TD*%
%TA.AperFunction,SMDPad,CuDef*%
%ADD40R,0.300000X1.160000*%
%TD*%
%TA.AperFunction,ComponentPad*%
%ADD41O,0.900000X2.000000*%
%TD*%
%TA.AperFunction,ComponentPad*%
%ADD42O,0.900000X1.700000*%
%TD*%
%TA.AperFunction,SMDPad,CuDef*%
%ADD43R,0.800000X0.900000*%
%TD*%
%TA.AperFunction,SMDPad,CuDef*%
%ADD44RoundRect,0.147500X-0.147500X-0.172500X0.147500X-0.172500X0.147500X0.172500X-0.147500X0.172500X0*%
%TD*%
%TA.AperFunction,SMDPad,CuDef*%
%ADD45RoundRect,0.150000X-0.150000X0.512500X-0.150000X-0.512500X0.150000X-0.512500X0.150000X0.512500X0*%
%TD*%
%TA.AperFunction,SMDPad,CuDef*%
%ADD46R,2.200000X1.050000*%
%TD*%
%TA.AperFunction,SMDPad,CuDef*%
%ADD47R,1.050000X1.000000*%
%TD*%
%TA.AperFunction,SMDPad,CuDef*%
%ADD48RoundRect,0.147500X0.172500X-0.147500X0.172500X0.147500X-0.172500X0.147500X-0.172500X-0.147500X0*%
%TD*%
%TA.AperFunction,SMDPad,CuDef*%
%ADD49R,0.900000X0.800000*%
%TD*%
%TA.AperFunction,SMDPad,CuDef*%
%ADD50RoundRect,0.062500X-0.062500X0.337500X-0.062500X-0.337500X0.062500X-0.337500X0.062500X0.337500X0*%
%TD*%
%TA.AperFunction,SMDPad,CuDef*%
%ADD51RoundRect,0.062500X-0.337500X0.062500X-0.337500X-0.062500X0.337500X-0.062500X0.337500X0.062500X0*%
%TD*%
%TA.AperFunction,SMDPad,CuDef*%
%ADD52R,3.700000X3.700000*%
%TD*%
%TA.AperFunction,ViaPad*%
%ADD53C,0.450000*%
%TD*%
%TA.AperFunction,Conductor*%
%ADD54C,0.203200*%
%TD*%
%TA.AperFunction,Conductor*%
%ADD55C,0.406400*%
%TD*%
%TA.AperFunction,Conductor*%
%ADD56C,0.279400*%
%TD*%
%TA.AperFunction,Conductor*%
%ADD57C,0.250000*%
%TD*%
%TA.AperFunction,Conductor*%
%ADD58C,0.200000*%
%TD*%
G04 APERTURE END LIST*
D10*
%TO.P,J208,1,Pin_1*%
%TO.N,PPM_B*%
X19500000Y7150000D03*
%TD*%
%TO.P,J207,1,Pin_1*%
%TO.N,PPM_F*%
X19500000Y2250000D03*
%TD*%
D11*
%TO.P,J206,1,Pin_1*%
%TO.N,GND*%
X-19500000Y-4600000D03*
%TD*%
%TO.P,J205,1,Pin_1*%
%TO.N,Net-(J202-Pad2)*%
X-19500000Y-8500000D03*
%TD*%
D12*
%TO.P,J203,1,Pin_1*%
%TO.N,GND*%
X18200000Y3700000D03*
%TO.P,J203,2,Pin_2*%
%TO.N,PPM_F*%
X18200000Y4700000D03*
%TO.P,J203,3,Pin_3*%
%TO.N,PPM_B*%
X18200000Y5700000D03*
D13*
%TO.P,J203,MP*%
%TO.N,N/C*%
X22075000Y7000000D03*
X22075000Y2400000D03*
%TD*%
D14*
%TO.P,J202,1,Pin_1*%
%TO.N,GND*%
X-18200000Y-6050000D03*
%TO.P,J202,2,Pin_2*%
%TO.N,Net-(J202-Pad2)*%
X-18200000Y-7050000D03*
D15*
%TO.P,J202,MP*%
%TO.N,N/C*%
X-22075000Y-4750000D03*
X-22075000Y-8350000D03*
%TD*%
D10*
%TO.P,J61,1,Pin_1*%
%TO.N,Net-(C103-Pad2)*%
X-11950000Y8300000D03*
%TD*%
D16*
%TO.P,R60,1*%
%TO.N,+3V3*%
X3310000Y6250000D03*
%TO.P,R60,2*%
%TO.N,Net-(C64-Pad2)*%
X2290000Y6250000D03*
%TD*%
D17*
%TO.P,R63,1*%
%TO.N,CHIP_EN*%
X-2335000Y7150000D03*
%TO.P,R63,2*%
%TO.N,+3V3*%
X-1315000Y7150000D03*
%TD*%
D18*
%TO.P,D42,1,K*%
%TO.N,SNS_VIN*%
X-5950000Y-3750000D03*
%TO.P,D42,2,A*%
%TO.N,GND*%
X-5950000Y-1250000D03*
%TD*%
D19*
%TO.P,D60,2,A*%
%TO.N,Net-(D60-Pad2)*%
X19812500Y9500000D03*
%TO.P,D60,1,K*%
%TO.N,GND*%
X21387500Y9500000D03*
%TD*%
D18*
%TO.P,D20,2,A*%
%TO.N,VBUS*%
X16450000Y-450000D03*
%TO.P,D20,1,K*%
%TO.N,VCC*%
X13950000Y-450000D03*
%TD*%
D20*
%TO.P,R33,1*%
%TO.N,VCC*%
X-22950000Y7370000D03*
%TO.P,R33,2*%
%TO.N,Net-(Q32-Pad1)*%
X-22950000Y6350000D03*
%TD*%
D21*
%TO.P,C12,1*%
%TO.N,GND*%
X5550000Y8480000D03*
%TO.P,C12,2*%
%TO.N,Net-(C12-Pad2)*%
X5550000Y7520000D03*
%TD*%
D22*
%TO.P,C63,1*%
%TO.N,+3V3*%
X2370000Y7150000D03*
%TO.P,C63,2*%
%TO.N,GND*%
X3330000Y7150000D03*
%TD*%
D17*
%TO.P,R41,1*%
%TO.N,LED_MISC*%
X18890000Y500000D03*
%TO.P,R41,2*%
%TO.N,Net-(D41-Pad2)*%
X19910000Y500000D03*
%TD*%
D21*
%TO.P,C10,1*%
%TO.N,GND*%
X5700000Y2980000D03*
%TO.P,C10,2*%
%TO.N,+3V3*%
X5700000Y2020000D03*
%TD*%
D19*
%TO.P,D40,1,K*%
%TO.N,GND*%
X22537500Y-1250000D03*
%TO.P,D40,2,A*%
%TO.N,Net-(D40-Pad2)*%
X20962500Y-1250000D03*
%TD*%
D22*
%TO.P,C62,1*%
%TO.N,+3V3*%
X2320000Y3500000D03*
%TO.P,C62,2*%
%TO.N,GND*%
X3280000Y3500000D03*
%TD*%
D23*
%TO.P,R56,1*%
%TO.N,GND*%
X22900000Y-7410000D03*
%TO.P,R56,2*%
%TO.N,Net-(R56-Pad2)*%
X22900000Y-6390000D03*
%TD*%
D24*
%TO.P,C20,1*%
%TO.N,VCC*%
X-16150000Y-6375000D03*
%TO.P,C20,2*%
%TO.N,GND*%
X-16150000Y-4825000D03*
%TD*%
D25*
%TO.P,C4,1*%
%TO.N,GND*%
X16150000Y3420000D03*
%TO.P,C4,2*%
%TO.N,+3V3*%
X16150000Y4380000D03*
%TD*%
D22*
%TO.P,C102,1*%
%TO.N,Net-(C102-Pad1)*%
X-6980000Y8400000D03*
%TO.P,C102,2*%
%TO.N,GND*%
X-6020000Y8400000D03*
%TD*%
D25*
%TO.P,C7,1*%
%TO.N,GND*%
X16100000Y9350000D03*
%TO.P,C7,2*%
%TO.N,+3V3*%
X16100000Y10310000D03*
%TD*%
D16*
%TO.P,R67,1*%
%TO.N,GPIO16*%
X-3340000Y7150000D03*
%TO.P,R67,2*%
%TO.N,Net-(D60-Pad2)*%
X-4360000Y7150000D03*
%TD*%
D21*
%TO.P,C13,2*%
%TO.N,GND*%
X7700000Y-1380000D03*
%TO.P,C13,1*%
%TO.N,E_EN*%
X7700000Y-420000D03*
%TD*%
D26*
%TO.P,C61,2*%
%TO.N,Net-(C61-Pad2)*%
X2350000Y-300000D03*
%TO.P,C61,1*%
%TO.N,GND*%
X3310000Y-300000D03*
%TD*%
D20*
%TO.P,R4,1*%
%TO.N,SNS_VER*%
X18700000Y10310000D03*
%TO.P,R4,2*%
%TO.N,+3V3*%
X18700000Y9290000D03*
%TD*%
D19*
%TO.P,D41,1,K*%
%TO.N,GND*%
X22537500Y350000D03*
%TO.P,D41,2,A*%
%TO.N,Net-(D41-Pad2)*%
X20962500Y350000D03*
%TD*%
D23*
%TO.P,R35,1*%
%TO.N,Net-(Q33-Pad1)*%
X-14200000Y5340000D03*
%TO.P,R35,2*%
%TO.N,LED_2*%
X-14200000Y6360000D03*
%TD*%
D16*
%TO.P,R20,1*%
%TO.N,+3V3*%
X-13740000Y-1400000D03*
%TO.P,R20,2*%
%TO.N,Net-(C22-Pad2)*%
X-14760000Y-1400000D03*
%TD*%
D26*
%TO.P,C11,1*%
%TO.N,Net-(C11-Pad1)*%
X5730000Y3850000D03*
%TO.P,C11,2*%
%TO.N,GND*%
X4770000Y3850000D03*
%TD*%
D22*
%TO.P,C70,1*%
%TO.N,Net-(C70-Pad1)*%
X-8130000Y-1125000D03*
%TO.P,C70,2*%
%TO.N,GND*%
X-7170000Y-1125000D03*
%TD*%
D27*
%TO.P,U1,1,VDDA*%
%TO.N,+3V3*%
X8350000Y3212500D03*
%TO.P,U1,2,LNA_IN*%
%TO.N,unconnected-(U1-Pad2)*%
X8750000Y3212500D03*
%TO.P,U1,3,VDD3P3*%
%TO.N,+3V3*%
X9150000Y3212500D03*
%TO.P,U1,4,VDD3P3*%
X9550000Y3212500D03*
%TO.P,U1,5,GPIO0*%
%TO.N,E_IO0*%
X9950000Y3212500D03*
%TO.P,U1,6,GPIO1*%
%TO.N,unconnected-(U1-Pad6)*%
X10350000Y3212500D03*
%TO.P,U1,7,GPIO2*%
%TO.N,unconnected-(U1-Pad7)*%
X10750000Y3212500D03*
%TO.P,U1,8,GPIO3*%
%TO.N,SNS_VIN*%
X11150000Y3212500D03*
%TO.P,U1,9,GPIO4*%
%TO.N,unconnected-(U1-Pad9)*%
X11550000Y3212500D03*
%TO.P,U1,10,GPIO5*%
%TO.N,SNS_VER*%
X11950000Y3212500D03*
%TO.P,U1,11,GPIO6*%
%TO.N,unconnected-(U1-Pad11)*%
X12350000Y3212500D03*
%TO.P,U1,12,GPIO7*%
%TO.N,X_TX*%
X12750000Y3212500D03*
%TO.P,U1,13,GPIO8*%
%TO.N,X_RX*%
X13150000Y3212500D03*
%TO.P,U1,14,GPIO9*%
%TO.N,LED_2*%
X13550000Y3212500D03*
D28*
%TO.P,U1,15,GPIO10*%
%TO.N,LED_1*%
X14387500Y4050000D03*
%TO.P,U1,16,GPIO11*%
%TO.N,P_SCK*%
X14387500Y4450000D03*
%TO.P,U1,17,GPIO12*%
%TO.N,A1_CS*%
X14387500Y4850000D03*
%TO.P,U1,18,GPIO13*%
%TO.N,P_MOSI*%
X14387500Y5250000D03*
%TO.P,U1,19,GPIO14*%
%TO.N,P_MISO*%
X14387500Y5650000D03*
%TO.P,U1,20,VDD3P3_RTC*%
%TO.N,+3V3*%
X14387500Y6050000D03*
%TO.P,U1,21,XTAL32K_P*%
%TO.N,unconnected-(U1-Pad21)*%
X14387500Y6450000D03*
%TO.P,U1,22,XTAL_32K_N*%
%TO.N,unconnected-(U1-Pad22)*%
X14387500Y6850000D03*
%TO.P,U1,23,DAC_1*%
%TO.N,unconnected-(U1-Pad23)*%
X14387500Y7250000D03*
%TO.P,U1,24,DAC_2*%
%TO.N,Net-(R3-Pad1)*%
X14387500Y7650000D03*
%TO.P,U1,25,GPIO19*%
%TO.N,E_D-*%
X14387500Y8050000D03*
%TO.P,U1,26,GPIO20*%
%TO.N,E_D+*%
X14387500Y8450000D03*
%TO.P,U1,27,VDD3P3_RTC_IO*%
%TO.N,+3V3*%
X14387500Y8850000D03*
%TO.P,U1,28,GPIO21*%
%TO.N,unconnected-(U1-Pad28)*%
X14387500Y9250000D03*
D27*
%TO.P,U1,29,29SPIS1*%
%TO.N,unconnected-(U1-Pad29)*%
X13550000Y10087500D03*
%TO.P,U1,30,VDD_SPI*%
%TO.N,+3V3*%
X13150000Y10087500D03*
%TO.P,U1,31,SPIHD*%
%TO.N,unconnected-(U1-Pad31)*%
X12750000Y10087500D03*
%TO.P,U1,32,SPIWD*%
%TO.N,unconnected-(U1-Pad32)*%
X12350000Y10087500D03*
%TO.P,U1,33,SPIS0*%
%TO.N,unconnected-(U1-Pad33)*%
X11950000Y10087500D03*
%TO.P,U1,34,SPICLK*%
%TO.N,unconnected-(U1-Pad34)*%
X11550000Y10087500D03*
%TO.P,U1,35,SPIQ*%
%TO.N,unconnected-(U1-Pad35)*%
X11150000Y10087500D03*
%TO.P,U1,36,SPID*%
%TO.N,unconnected-(U1-Pad36)*%
X10750000Y10087500D03*
%TO.P,U1,37,GPIO33*%
%TO.N,unconnected-(U1-Pad37)*%
X10350000Y10087500D03*
%TO.P,U1,38,GPIO34*%
%TO.N,PPM_F*%
X9950000Y10087500D03*
%TO.P,U1,39,GPIO35*%
%TO.N,PPM_B*%
X9550000Y10087500D03*
%TO.P,U1,40,GPIO36*%
%TO.N,LED_MISC*%
X9150000Y10087500D03*
%TO.P,U1,41,GPIO37*%
%TO.N,unconnected-(U1-Pad41)*%
X8750000Y10087500D03*
%TO.P,U1,42,GPIO38*%
%TO.N,unconnected-(U1-Pad42)*%
X8350000Y10087500D03*
D28*
%TO.P,U1,43,MTCK*%
%TO.N,unconnected-(U1-Pad43)*%
X7512500Y9250000D03*
%TO.P,U1,44,MTDO*%
%TO.N,unconnected-(U1-Pad44)*%
X7512500Y8850000D03*
%TO.P,U1,45,VDD3P3_CPU*%
%TO.N,+3V3*%
X7512500Y8450000D03*
%TO.P,U1,46,MTDI*%
%TO.N,unconnected-(U1-Pad46)*%
X7512500Y8050000D03*
%TO.P,U1,47,MTMS*%
%TO.N,unconnected-(U1-Pad47)*%
X7512500Y7650000D03*
%TO.P,U1,48,U0TXD*%
%TO.N,unconnected-(U1-Pad48)*%
X7512500Y7250000D03*
%TO.P,U1,49,U0RXD*%
%TO.N,unconnected-(U1-Pad49)*%
X7512500Y6850000D03*
%TO.P,U1,50,GPIO45*%
%TO.N,unconnected-(U1-Pad50)*%
X7512500Y6450000D03*
%TO.P,U1,51,VDDA*%
%TO.N,+3V3*%
X7512500Y6050000D03*
%TO.P,U1,52,XTAL_N*%
%TO.N,Net-(C12-Pad2)*%
X7512500Y5650000D03*
%TO.P,U1,53,XTAL_P*%
%TO.N,Net-(C11-Pad1)*%
X7512500Y5250000D03*
%TO.P,U1,54,VDDA*%
%TO.N,+3V3*%
X7512500Y4850000D03*
%TO.P,U1,55,GPIO46*%
%TO.N,A2_CS*%
X7512500Y4450000D03*
%TO.P,U1,56,CHIP_PU*%
%TO.N,E_EN*%
X7512500Y4050000D03*
D29*
%TO.P,U1,57,EPAD*%
%TO.N,GND*%
X10950000Y6650000D03*
%TD*%
D25*
%TO.P,C9,2*%
%TO.N,+3V3*%
X6600000Y1430000D03*
%TO.P,C9,1*%
%TO.N,GND*%
X6600000Y470000D03*
%TD*%
D30*
%TO.P,Q20,3,D*%
%TO.N,Net-(J202-Pad2)*%
X-16837500Y-9050000D03*
%TO.P,Q20,2,S*%
%TO.N,VCC*%
X-14962500Y-8100000D03*
%TO.P,Q20,1,G*%
%TO.N,Net-(D21-Pad2)*%
X-14962500Y-10000000D03*
%TD*%
D26*
%TO.P,C74,1*%
%TO.N,Net-(C74-Pad1)*%
X-13225000Y4450000D03*
%TO.P,C74,2*%
%TO.N,GND*%
X-14185000Y4450000D03*
%TD*%
D20*
%TO.P,R1,2*%
%TO.N,+3V3*%
X6800000Y-1410000D03*
%TO.P,R1,1*%
%TO.N,E_EN*%
X6800000Y-390000D03*
%TD*%
D31*
%TO.P,L20,1,1*%
%TO.N,Net-(C21-Pad2)*%
X-10950000Y-3025000D03*
%TO.P,L20,2,2*%
%TO.N,+3V3*%
X-10950000Y-1375000D03*
%TD*%
D23*
%TO.P,R32,1*%
%TO.N,Net-(Q31-Pad1)*%
X-14200000Y7180000D03*
%TO.P,R32,2*%
%TO.N,LED_1*%
X-14200000Y8200000D03*
%TD*%
D17*
%TO.P,R43,1*%
%TO.N,GND*%
X-8760000Y-3150000D03*
%TO.P,R43,2*%
%TO.N,SNS_VIN*%
X-7740000Y-3150000D03*
%TD*%
D25*
%TO.P,C6,1*%
%TO.N,GND*%
X16950000Y9350000D03*
%TO.P,C6,2*%
%TO.N,+3V3*%
X16950000Y10310000D03*
%TD*%
D21*
%TO.P,C14,2*%
%TO.N,GND*%
X10650000Y470000D03*
%TO.P,C14,1*%
%TO.N,E_IO0*%
X10650000Y1430000D03*
%TD*%
D25*
%TO.P,C104,1*%
%TO.N,Net-(C101-Pad1)*%
X-6000000Y6420000D03*
%TO.P,C104,2*%
%TO.N,Net-(C102-Pad1)*%
X-6000000Y7380000D03*
%TD*%
%TO.P,C1,2*%
%TO.N,+3V3*%
X7950000Y1400000D03*
%TO.P,C1,1*%
%TO.N,GND*%
X7950000Y440000D03*
%TD*%
D32*
%TO.P,U70,1,VR_PA*%
%TO.N,Net-(C74-Pad1)*%
X-11485000Y3830000D03*
%TO.P,U70,2,VDD_IN*%
%TO.N,Net-(C70-Pad1)*%
X-11485000Y3330000D03*
%TO.P,U70,3,NRESET*%
%TO.N,GPIO2*%
X-11485000Y2830000D03*
%TO.P,U70,4,XTA*%
%TO.N,Net-(U70-Pad4)*%
X-11485000Y2330000D03*
%TO.P,U70,5,GND*%
%TO.N,GND*%
X-11485000Y1830000D03*
%TO.P,U70,6,XTB*%
%TO.N,Net-(U70-Pad6)*%
X-11485000Y1330000D03*
D33*
%TO.P,U70,7,BUSY*%
%TO.N,GPIO5*%
X-10785000Y630000D03*
%TO.P,U70,8,DIO1*%
%TO.N,GPIO4*%
X-10285000Y630000D03*
%TO.P,U70,9,DIO2*%
%TO.N,unconnected-(U70-Pad9)*%
X-9785000Y630000D03*
%TO.P,U70,10,DIO3*%
%TO.N,unconnected-(U70-Pad10)*%
X-9285000Y630000D03*
%TO.P,U70,11,VBAT_IO*%
%TO.N,+3V3*%
X-8785000Y630000D03*
%TO.P,U70,12,DCC_FB*%
%TO.N,Net-(C70-Pad1)*%
X-8285000Y630000D03*
D32*
%TO.P,U70,13,GND*%
%TO.N,GND*%
X-7585000Y1330000D03*
%TO.P,U70,14,DCC_SW*%
%TO.N,unconnected-(U70-Pad14)*%
X-7585000Y1830000D03*
%TO.P,U70,15,VBAT*%
%TO.N,+3V3*%
X-7585000Y2330000D03*
%TO.P,U70,16,MISO_TX*%
%TO.N,GPIO12*%
X-7585000Y2830000D03*
%TO.P,U70,17,MOSI_RX*%
%TO.N,GPIO13*%
X-7585000Y3330000D03*
%TO.P,U70,18,SCK_RTSN*%
%TO.N,GPIO14*%
X-7585000Y3830000D03*
D33*
%TO.P,U70,19,NSS_CTS*%
%TO.N,GPIO15*%
X-8285000Y4530000D03*
%TO.P,U70,20,GND*%
%TO.N,GND*%
X-8785000Y4530000D03*
%TO.P,U70,21,GND*%
X-9285000Y4530000D03*
%TO.P,U70,22,RFIO*%
%TO.N,Net-(C100-Pad1)*%
X-9785000Y4530000D03*
%TO.P,U70,23,GND*%
%TO.N,GND*%
X-10285000Y4530000D03*
%TO.P,U70,24,GND*%
X-10785000Y4530000D03*
D34*
%TO.P,U70,25,GND_PAD*%
X-9535000Y2580000D03*
%TD*%
D30*
%TO.P,Q33,1,G*%
%TO.N,Net-(Q33-Pad1)*%
X-15662500Y3650000D03*
%TO.P,Q33,2,S*%
%TO.N,GND*%
X-15662500Y5550000D03*
%TO.P,Q33,3,D*%
%TO.N,Net-(Q33-Pad3)*%
X-17537500Y4600000D03*
%TD*%
D20*
%TO.P,R66,1*%
%TO.N,GPIO15*%
X-5905000Y3035000D03*
%TO.P,R66,2*%
%TO.N,GND*%
X-5905000Y2015000D03*
%TD*%
D35*
%TO.P,C31,2*%
%TO.N,GND*%
X-3239411Y-5988838D03*
%TO.P,C31,1*%
%TO.N,+3V3*%
X-2560589Y-6667660D03*
%TD*%
D25*
%TO.P,C3,2*%
%TO.N,+3V3*%
X8850000Y1400000D03*
%TO.P,C3,1*%
%TO.N,GND*%
X8850000Y440000D03*
%TD*%
D36*
%TO.P,U30,8,SCL*%
%TO.N,P_SCK*%
X3810000Y-8890000D03*
%TO.P,U30,7,SDA*%
%TO.N,P_MOSI*%
X1270000Y-8890000D03*
%TO.P,U30,6,3V3*%
%TO.N,+3V3*%
X-1270000Y-8890000D03*
%TO.P,U30,5,GND*%
%TO.N,GND*%
X-3810000Y-8890000D03*
%TO.P,U30,4,INT1*%
%TO.N,unconnected-(U30-Pad4)*%
X-3810000Y8890000D03*
%TO.P,U30,3,INT2*%
%TO.N,unconnected-(U30-Pad3)*%
X-1270000Y8890000D03*
%TO.P,U30,2,SA0*%
%TO.N,P_MISO*%
X1270000Y8890000D03*
%TO.P,U30,1,CS*%
%TO.N,A2_CS*%
X3810000Y8890000D03*
%TD*%
D17*
%TO.P,R40,1*%
%TO.N,+3V3*%
X18890000Y-500000D03*
%TO.P,R40,2*%
%TO.N,Net-(D40-Pad2)*%
X19910000Y-500000D03*
%TD*%
D37*
%TO.P,U31,1,VDDIO*%
%TO.N,+3V3*%
X318198Y-6432412D03*
%TO.P,U31,2,NC*%
%TO.N,unconnected-(U31-Pad2)*%
X671751Y-6078858D03*
%TO.P,U31,3,NC*%
%TO.N,unconnected-(U31-Pad3)*%
X1025305Y-5725305D03*
%TO.P,U31,4,SCK*%
%TO.N,P_SCK*%
X1378858Y-5371751D03*
%TO.P,U31,5,GND*%
%TO.N,GND*%
X1732412Y-5018198D03*
D38*
%TO.P,U31,6,MOSI*%
%TO.N,P_MOSI*%
X1378858Y-4028249D03*
%TO.P,U31,7,MISO*%
%TO.N,P_MISO*%
X1025305Y-3674695D03*
%TO.P,U31,8,CS*%
%TO.N,A1_CS*%
X671751Y-3321142D03*
D37*
%TO.P,U31,9,INT2*%
%TO.N,unconnected-(U31-Pad9)*%
X-318198Y-2967588D03*
%TO.P,U31,10,GNDR*%
%TO.N,GND*%
X-671751Y-3321142D03*
%TO.P,U31,11,INT1*%
%TO.N,unconnected-(U31-Pad11)*%
X-1025305Y-3674695D03*
%TO.P,U31,12,GND*%
%TO.N,GND*%
X-1378858Y-4028249D03*
%TO.P,U31,13,GND*%
X-1732412Y-4381802D03*
D38*
%TO.P,U31,14,VDD*%
%TO.N,+3V3*%
X-1378858Y-5371751D03*
%TO.P,U31,15,VDDR*%
X-1025305Y-5725305D03*
%TO.P,U31,16,GND*%
%TO.N,GND*%
X-671751Y-6078858D03*
%TD*%
D39*
%TO.P,U52,A1,GND*%
%TO.N,GND*%
X13800000Y-3405000D03*
%TO.P,U52,A4,VBUS*%
%TO.N,VBUS*%
X14600000Y-3405000D03*
D40*
%TO.P,U52,A5,CC1*%
%TO.N,Net-(R56-Pad2)*%
X15750000Y-3405000D03*
%TO.P,U52,A6,D+*%
%TO.N,E_D+*%
X16750000Y-3405000D03*
%TO.P,U52,A7,D-*%
%TO.N,E_D-*%
X17250000Y-3405000D03*
%TO.P,U52,A8,SBU1*%
%TO.N,unconnected-(U52-PadA8)*%
X18250000Y-3405000D03*
D39*
%TO.P,U52,A9,VBUS*%
%TO.N,VBUS*%
X19400000Y-3405000D03*
%TO.P,U52,A12,GND*%
%TO.N,GND*%
X20200000Y-3405000D03*
%TO.P,U52,B1,GND*%
X20200000Y-3405000D03*
%TO.P,U52,B4,VBUS*%
%TO.N,VBUS*%
X19400000Y-3405000D03*
D40*
%TO.P,U52,B5,CC2*%
%TO.N,Net-(R57-Pad2)*%
X18750000Y-3405000D03*
%TO.P,U52,B6,D+*%
%TO.N,E_D+*%
X17750000Y-3405000D03*
%TO.P,U52,B7,D-*%
%TO.N,E_D-*%
X16250000Y-3405000D03*
%TO.P,U52,B8,SBU2*%
%TO.N,unconnected-(U52-PadB8)*%
X15250000Y-3405000D03*
D39*
%TO.P,U52,B9,VBUS*%
%TO.N,VBUS*%
X14600000Y-3405000D03*
%TO.P,U52,B12,GND*%
%TO.N,GND*%
X13800000Y-3405000D03*
D41*
%TO.P,U52,S1,SHIELD*%
%TO.N,unconnected-(U52-PadS1)*%
X12680000Y-3985000D03*
D42*
X21320000Y-8155000D03*
X12680000Y-8155000D03*
D41*
X21320000Y-3985000D03*
%TD*%
D30*
%TO.P,Q30,1,G*%
%TO.N,Net-(Q30-Pad1)*%
X-19562500Y8000000D03*
%TO.P,Q30,2,S*%
%TO.N,VCC*%
X-19562500Y9900000D03*
%TO.P,Q30,3,D*%
%TO.N,/LED1/LED_out*%
X-21437500Y8950000D03*
%TD*%
D20*
%TO.P,R65,1*%
%TO.N,GPIO0*%
X-5905000Y1235000D03*
%TO.P,R65,2*%
%TO.N,+3V3*%
X-5905000Y215000D03*
%TD*%
D25*
%TO.P,C5,1*%
%TO.N,GND*%
X16300000Y7550000D03*
%TO.P,C5,2*%
%TO.N,+3V3*%
X16300000Y8510000D03*
%TD*%
D16*
%TO.P,R64,1*%
%TO.N,GPIO2*%
X-13195000Y2725000D03*
%TO.P,R64,2*%
%TO.N,+3V3*%
X-14215000Y2725000D03*
%TD*%
D26*
%TO.P,C65,1*%
%TO.N,+3V3*%
X1380000Y7150000D03*
%TO.P,C65,2*%
%TO.N,GND*%
X420000Y7150000D03*
%TD*%
D43*
%TO.P,U2,1,1*%
%TO.N,Net-(C12-Pad2)*%
X4500000Y6400000D03*
%TO.P,U2,2,2*%
%TO.N,GND*%
X4500000Y5000000D03*
%TO.P,U2,3,3*%
%TO.N,Net-(C11-Pad1)*%
X5600000Y5000000D03*
%TO.P,U2,4,4*%
%TO.N,GND*%
X5600000Y6400000D03*
%TD*%
D21*
%TO.P,C40,2*%
%TO.N,GND*%
X11550000Y470000D03*
%TO.P,C40,1*%
%TO.N,SNS_VIN*%
X11550000Y1430000D03*
%TD*%
D30*
%TO.P,Q31,1,G*%
%TO.N,Net-(Q31-Pad1)*%
X-15662500Y7050000D03*
%TO.P,Q31,2,S*%
%TO.N,GND*%
X-15662500Y8950000D03*
%TO.P,Q31,3,D*%
%TO.N,Net-(Q31-Pad3)*%
X-17537500Y8000000D03*
%TD*%
D21*
%TO.P,C72,1*%
%TO.N,+3V3*%
X-9050000Y-1070000D03*
%TO.P,C72,2*%
%TO.N,GND*%
X-9050000Y-2030000D03*
%TD*%
D25*
%TO.P,C60,2*%
%TO.N,Net-(C60-Pad2)*%
X5700000Y1150000D03*
%TO.P,C60,1*%
%TO.N,GND*%
X5700000Y190000D03*
%TD*%
D44*
%TO.P,L101,1,1*%
%TO.N,Net-(C100-Pad1)*%
X-8985000Y6400000D03*
%TO.P,L101,2,2*%
%TO.N,Net-(C101-Pad1)*%
X-8015000Y6400000D03*
%TD*%
D26*
%TO.P,C71,1*%
%TO.N,Net-(C70-Pad1)*%
X-13225000Y3600000D03*
%TO.P,C71,2*%
%TO.N,GND*%
X-14185000Y3600000D03*
%TD*%
D45*
%TO.P,U20,1,BS*%
%TO.N,Net-(C21-Pad1)*%
X-13000000Y-3762500D03*
%TO.P,U20,2,GND*%
%TO.N,GND*%
X-13950000Y-3762500D03*
%TO.P,U20,3,FB*%
%TO.N,Net-(C22-Pad2)*%
X-14900000Y-3762500D03*
%TO.P,U20,4,EN*%
%TO.N,VCC*%
X-14900000Y-6037500D03*
%TO.P,U20,5,IN*%
X-13950000Y-6037500D03*
%TO.P,U20,6,LX*%
%TO.N,Net-(C21-Pad2)*%
X-13000000Y-6037500D03*
%TD*%
D22*
%TO.P,C73,1*%
%TO.N,+3V3*%
X-4730000Y-1150000D03*
%TO.P,C73,2*%
%TO.N,GND*%
X-3770000Y-1150000D03*
%TD*%
D18*
%TO.P,D21,2,A*%
%TO.N,Net-(D21-Pad2)*%
X-12900000Y-10150000D03*
%TO.P,D21,1,K*%
%TO.N,VCC*%
X-12900000Y-7650000D03*
%TD*%
D25*
%TO.P,C101,1*%
%TO.N,Net-(C101-Pad1)*%
X-8000000Y7420000D03*
%TO.P,C101,2*%
%TO.N,GND*%
X-8000000Y8380000D03*
%TD*%
D15*
%TO.P,J204,MP*%
%TO.N,N/C*%
X-22075000Y-2650000D03*
X-22075000Y2950000D03*
D14*
%TO.P,J204,4,Pin_4*%
%TO.N,/LED1/LED_out*%
X-18200000Y-1350000D03*
%TO.P,J204,3,Pin_3*%
%TO.N,GND*%
X-18200000Y-350000D03*
%TO.P,J204,2,Pin_2*%
%TO.N,/LED2/LED_out*%
X-18200000Y650000D03*
%TO.P,J204,1,Pin_1*%
%TO.N,GND*%
X-18200000Y1650000D03*
%TD*%
D46*
%TO.P,J60,2,Ext*%
%TO.N,GND*%
X-11875000Y9775000D03*
X-11875000Y6825000D03*
D47*
%TO.P,J60,1,In*%
%TO.N,Net-(C103-Pad2)*%
X-10350000Y8300000D03*
%TD*%
D20*
%TO.P,R21,1*%
%TO.N,Net-(C22-Pad2)*%
X-15650000Y-1390000D03*
%TO.P,R21,2*%
%TO.N,GND*%
X-15650000Y-2410000D03*
%TD*%
D48*
%TO.P,L102,1,1*%
%TO.N,Net-(C101-Pad1)*%
X-7000000Y6415000D03*
%TO.P,L102,2,2*%
%TO.N,Net-(C102-Pad1)*%
X-7000000Y7385000D03*
%TD*%
D23*
%TO.P,R5,1*%
%TO.N,GND*%
X17850000Y9290000D03*
%TO.P,R5,2*%
%TO.N,SNS_VER*%
X17850000Y10310000D03*
%TD*%
D26*
%TO.P,C103,2*%
%TO.N,Net-(C103-Pad2)*%
X-7280000Y9400000D03*
%TO.P,C103,1*%
%TO.N,Net-(C102-Pad1)*%
X-6320000Y9400000D03*
%TD*%
D21*
%TO.P,C8,1*%
%TO.N,GND*%
X5600000Y10230000D03*
%TO.P,C8,2*%
%TO.N,+3V3*%
X5600000Y9270000D03*
%TD*%
D30*
%TO.P,Q32,1,G*%
%TO.N,Net-(Q32-Pad1)*%
X-19562500Y4600000D03*
%TO.P,Q32,2,S*%
%TO.N,VCC*%
X-19562500Y6500000D03*
%TO.P,Q32,3,D*%
%TO.N,/LED2/LED_out*%
X-21437500Y5550000D03*
%TD*%
D21*
%TO.P,C21,1*%
%TO.N,Net-(C21-Pad1)*%
X-11650000Y-4320000D03*
%TO.P,C21,2*%
%TO.N,Net-(C21-Pad2)*%
X-11650000Y-5280000D03*
%TD*%
D16*
%TO.P,R22,2*%
%TO.N,GND*%
X-19410000Y-10200000D03*
%TO.P,R22,1*%
%TO.N,Net-(D21-Pad2)*%
X-18390000Y-10200000D03*
%TD*%
D17*
%TO.P,R31,1*%
%TO.N,Net-(Q30-Pad1)*%
X-16010000Y10250000D03*
%TO.P,R31,2*%
%TO.N,Net-(Q31-Pad3)*%
X-14990000Y10250000D03*
%TD*%
D26*
%TO.P,C64,1*%
%TO.N,GND*%
X3300000Y5300000D03*
%TO.P,C64,2*%
%TO.N,Net-(C64-Pad2)*%
X2340000Y5300000D03*
%TD*%
D20*
%TO.P,R68,2*%
%TO.N,+3V3*%
X12500000Y440000D03*
%TO.P,R68,1*%
%TO.N,X_TX*%
X12500000Y1460000D03*
%TD*%
D16*
%TO.P,R42,1*%
%TO.N,SNS_VIN*%
X-7740000Y-4050000D03*
%TO.P,R42,2*%
%TO.N,VCC*%
X-8760000Y-4050000D03*
%TD*%
D17*
%TO.P,R30,1*%
%TO.N,VCC*%
X-17810000Y10250000D03*
%TO.P,R30,2*%
%TO.N,Net-(Q30-Pad1)*%
X-16790000Y10250000D03*
%TD*%
D20*
%TO.P,R57,1*%
%TO.N,GND*%
X22900000Y-4390000D03*
%TO.P,R57,2*%
%TO.N,Net-(R57-Pad2)*%
X22900000Y-5410000D03*
%TD*%
D43*
%TO.P,U71,1,1*%
%TO.N,Net-(U70-Pad6)*%
X-13355000Y-75000D03*
%TO.P,U71,2,2*%
%TO.N,GND*%
X-13355000Y1325000D03*
%TO.P,U71,3,3*%
%TO.N,Net-(U70-Pad4)*%
X-14455000Y1325000D03*
%TO.P,U71,4,4*%
%TO.N,GND*%
X-14455000Y-75000D03*
%TD*%
D49*
%TO.P,U61,1,1*%
%TO.N,Net-(C60-Pad2)*%
X4150000Y2100000D03*
%TO.P,U61,2,2*%
%TO.N,GND*%
X2750000Y2100000D03*
%TO.P,U61,3,3*%
%TO.N,Net-(C61-Pad2)*%
X2750000Y1000000D03*
%TO.P,U61,4,4*%
%TO.N,GND*%
X4150000Y1000000D03*
%TD*%
D50*
%TO.P,U60,1,VDDA*%
%TO.N,+3V3*%
X-30000Y5475000D03*
%TO.P,U60,2,LNA*%
%TO.N,/ExpressLRS-RX/trace_antenna*%
X-530000Y5475000D03*
%TO.P,U60,3,VDD3P3*%
%TO.N,+3V3*%
X-1030000Y5475000D03*
%TO.P,U60,4,VDD3P3*%
X-1530000Y5475000D03*
%TO.P,U60,5,VDD_RTC*%
%TO.N,unconnected-(U60-Pad5)*%
X-2030000Y5475000D03*
%TO.P,U60,6,TOUT*%
%TO.N,ADC*%
X-2530000Y5475000D03*
%TO.P,U60,7,CHIP_EN*%
%TO.N,CHIP_EN*%
X-3030000Y5475000D03*
%TO.P,U60,8,XDP_DCDC*%
%TO.N,GPIO16*%
X-3530000Y5475000D03*
D51*
%TO.P,U60,9,MTMS*%
%TO.N,GPIO14*%
X-4230000Y4775000D03*
%TO.P,U60,10,MTDI*%
%TO.N,GPIO12*%
X-4230000Y4275000D03*
%TO.P,U60,11,VDDPST*%
%TO.N,+3V3*%
X-4230000Y3775000D03*
%TO.P,U60,12,MTCK*%
%TO.N,GPIO13*%
X-4230000Y3275000D03*
%TO.P,U60,13,MTDO*%
%TO.N,GPIO15*%
X-4230000Y2775000D03*
%TO.P,U60,14,GPIO2*%
%TO.N,GPIO2*%
X-4230000Y2275000D03*
%TO.P,U60,15,GPIO0*%
%TO.N,GPIO0*%
X-4230000Y1775000D03*
%TO.P,U60,16,GPIO4*%
%TO.N,GPIO4*%
X-4230000Y1275000D03*
D50*
%TO.P,U60,17,VDDPST*%
%TO.N,+3V3*%
X-3530000Y575000D03*
%TO.P,U60,18,SD_DATA_2*%
%TO.N,GPIO9*%
X-3030000Y575000D03*
%TO.P,U60,19,SD_DATA_3*%
%TO.N,GPIO10*%
X-2530000Y575000D03*
%TO.P,U60,20,SD_CMD*%
%TO.N,SD_CMD*%
X-2030000Y575000D03*
%TO.P,U60,21,SD_CLK*%
%TO.N,SD_CLK*%
X-1530000Y575000D03*
%TO.P,U60,22,SD_DATA_0*%
%TO.N,SD_D0*%
X-1030000Y575000D03*
%TO.P,U60,23,SD_DATA_1*%
%TO.N,SD_D1*%
X-530000Y575000D03*
%TO.P,U60,24,GPIO5*%
%TO.N,GPIO5*%
X-30000Y575000D03*
D51*
%TO.P,U60,25,U0RXD*%
%TO.N,X_RX*%
X670000Y1275000D03*
%TO.P,U60,26,U0TXD*%
%TO.N,X_TX*%
X670000Y1775000D03*
%TO.P,U60,27,XTAL_OUT*%
%TO.N,Net-(C61-Pad2)*%
X670000Y2275000D03*
%TO.P,U60,28,XTAL_IN*%
%TO.N,Net-(C60-Pad2)*%
X670000Y2775000D03*
%TO.P,U60,29,VDDD*%
%TO.N,+3V3*%
X670000Y3275000D03*
%TO.P,U60,30,VDDA*%
X670000Y3775000D03*
%TO.P,U60,31,RES12K*%
%TO.N,Net-(R62-Pad2)*%
X670000Y4275000D03*
%TO.P,U60,32,EXT_RSTB*%
%TO.N,Net-(C64-Pad2)*%
X670000Y4775000D03*
D52*
%TO.P,U60,33,GND*%
%TO.N,GND*%
X-1780000Y3025000D03*
%TD*%
D25*
%TO.P,C2,2*%
%TO.N,+3V3*%
X9750000Y1400000D03*
%TO.P,C2,1*%
%TO.N,GND*%
X9750000Y440000D03*
%TD*%
D21*
%TO.P,C23,1*%
%TO.N,+3V3*%
X-12850000Y-1420000D03*
%TO.P,C23,2*%
%TO.N,GND*%
X-12850000Y-2380000D03*
%TD*%
D20*
%TO.P,R34,1*%
%TO.N,Net-(Q32-Pad1)*%
X-22950000Y5470000D03*
%TO.P,R34,2*%
%TO.N,Net-(Q33-Pad3)*%
X-22950000Y4450000D03*
%TD*%
%TO.P,R3,1*%
%TO.N,Net-(R3-Pad1)*%
X16150000Y6740000D03*
%TO.P,R3,2*%
%TO.N,+3V3*%
X16150000Y5720000D03*
%TD*%
D26*
%TO.P,C22,1*%
%TO.N,+3V3*%
X-13790000Y-2300000D03*
%TO.P,C22,2*%
%TO.N,Net-(C22-Pad2)*%
X-14750000Y-2300000D03*
%TD*%
D16*
%TO.P,R62,1*%
%TO.N,GND*%
X3330000Y4400000D03*
%TO.P,R62,2*%
%TO.N,Net-(R62-Pad2)*%
X2310000Y4400000D03*
%TD*%
D25*
%TO.P,C100,1*%
%TO.N,Net-(C100-Pad1)*%
X-9000000Y7420000D03*
%TO.P,C100,2*%
%TO.N,GND*%
X-9000000Y8380000D03*
%TD*%
D53*
%TO.N,SNS_VER*%
X11950000Y2150000D03*
%TO.N,SNS_VIN*%
X11200000Y-800000D03*
%TO.N,GND*%
X-5300000Y9000000D03*
X-5250000Y10250000D03*
X-7000000Y10300000D03*
X-8550000Y10250000D03*
X-10100000Y10100000D03*
X-14150000Y10200000D03*
X-13550000Y8950000D03*
X-13400000Y7800000D03*
X-13300000Y5400000D03*
X-11900000Y5400000D03*
X-10450000Y5850000D03*
X-5150000Y5950000D03*
%TO.N,LED_2*%
X13550000Y2150000D03*
%TO.N,LED_1*%
X14400000Y2150000D03*
X-14800000Y8250000D03*
%TO.N,LED_2*%
X-14800000Y6350000D03*
%TO.N,+3V3*%
X15950000Y4950000D03*
%TO.N,GND*%
X9700000Y-2100000D03*
%TO.N,E_EN*%
X6000000Y-500000D03*
%TO.N,LED_MISC*%
X16850000Y2050000D03*
%TO.N,GND*%
X4850000Y7900000D03*
X6500000Y9500000D03*
%TO.N,+3V3*%
X6500000Y8600000D03*
%TO.N,Net-(D60-Pad2)*%
X-4750000Y7800000D03*
%TO.N,E_D-*%
X16750000Y-2275000D03*
%TO.N,E_D+*%
X17750000Y-2275000D03*
%TO.N,VCC*%
X-12900000Y-8500000D03*
X11450000Y-2750000D03*
%TO.N,PPM_B*%
X19425000Y5700000D03*
%TO.N,PPM_F*%
X19425000Y4700000D03*
%TO.N,GND*%
X19425000Y3675000D03*
X16150000Y2825000D03*
%TO.N,+3V3*%
X6125000Y-1400000D03*
%TO.N,GND*%
X8350000Y-1400000D03*
%TO.N,GPIO0*%
X-4900000Y200000D03*
%TO.N,/LED1/LED_out*%
X-19325000Y-1350000D03*
%TO.N,/LED2/LED_out*%
X-19325000Y675000D03*
%TO.N,GND*%
X-17000000Y1650000D03*
X-17000000Y-350000D03*
%TO.N,/LED1/LED_out*%
X-21425000Y8325000D03*
%TO.N,/LED2/LED_out*%
X-21425000Y6200000D03*
%TO.N,VCC*%
X-19550000Y5875000D03*
X-19562500Y9300000D03*
%TO.N,GND*%
X-15675000Y8350000D03*
X-15675000Y6200000D03*
%TO.N,+3V3*%
X1600000Y3500000D03*
X6275000Y2425000D03*
%TO.N,GND*%
X3850000Y3500000D03*
X-14455000Y-75000D03*
X-13355000Y1325000D03*
X2750000Y2100000D03*
X4175000Y1050000D03*
X4500000Y5000000D03*
X5600000Y6250000D03*
%TO.N,X_RX*%
X700000Y-150000D03*
%TO.N,X_TX*%
X1400000Y-150000D03*
%TO.N,GND*%
X450000Y7750000D03*
%TO.N,/ExpressLRS-RX/trace_antenna*%
X-500000Y6400000D03*
%TO.N,+3V3*%
X400000Y6400000D03*
X-1400000Y6400000D03*
%TO.N,PPM_F*%
X10300000Y9100000D03*
%TO.N,PPM_B*%
X9550000Y9100000D03*
%TO.N,LED_MISC*%
X8800000Y9100000D03*
%TO.N,GND*%
X17200000Y8600000D03*
%TO.N,+3V3*%
X18700000Y8650000D03*
%TO.N,GND*%
X-16850000Y-5600000D03*
X-20100000Y-10200000D03*
X-7750000Y-2025000D03*
X-3000000Y-400000D03*
X-5950000Y-2100000D03*
X22900000Y-8000000D03*
X22900000Y-3800000D03*
X20200000Y-2500000D03*
X13800000Y-2500000D03*
%TO.N,+3V3*%
X15350000Y10300000D03*
%TO.N,GND*%
X21400000Y8750000D03*
%TO.N,Net-(D60-Pad2)*%
X19800000Y8750000D03*
%TO.N,GND*%
X-14750000Y4300000D03*
X-8500000Y9000000D03*
%TO.N,E_D+*%
X13500000Y8300000D03*
%TO.N,E_D-*%
X15500000Y7900000D03*
%TO.N,SNS_VER*%
X20600000Y10350000D03*
%TO.N,SNS_VIN*%
X11150000Y2150000D03*
%TO.N,GND*%
X8850000Y-150000D03*
X10650000Y-150000D03*
%TO.N,+3V3*%
X12500000Y-150000D03*
X1700000Y-7100000D03*
%TO.N,X_TX*%
X12750000Y2150000D03*
%TO.N,GND*%
X-3205000Y4425000D03*
X-8605000Y1625000D03*
X-10505000Y1625000D03*
X-405000Y1625000D03*
X11000000Y6250000D03*
X12200000Y7900000D03*
X-1705000Y3025000D03*
X9700000Y7900000D03*
X-3205000Y1625000D03*
X9700000Y5400000D03*
X2900000Y-5900000D03*
X-8605000Y3525000D03*
X-9492500Y2537500D03*
X-1500000Y-6978249D03*
X-13950000Y-4900000D03*
X-405000Y4425000D03*
X22550000Y-450000D03*
X-5905000Y2025000D03*
X-3050000Y-5350000D03*
X-10505000Y3525000D03*
X12200000Y5400000D03*
%TO.N,+3V3*%
X9150000Y2150000D03*
X-12325000Y-1375000D03*
X-14850000Y2700000D03*
X-3800000Y-400000D03*
X-3100000Y-7200000D03*
X-8900000Y-450000D03*
X19050000Y-1150000D03*
X-6755000Y875000D03*
X-4955000Y3825000D03*
%TO.N,E_IO0*%
X9950000Y2150000D03*
%TO.N,Net-(C70-Pad1)*%
X-12605000Y3575000D03*
X-8205000Y-75000D03*
%TO.N,X_RX*%
X13050000Y4050000D03*
%TO.N,P_MOSI*%
X3000000Y-3800000D03*
X15350000Y5250000D03*
%TO.N,P_MISO*%
X13450000Y5600000D03*
X2300000Y-1600000D03*
%TO.N,P_SCK*%
X15350000Y4450000D03*
X2300000Y-6500000D03*
%TO.N,GPIO2*%
X-12600000Y2830000D03*
X-4905000Y2225000D03*
%TO.N,GPIO15*%
X-5305000Y2725000D03*
X-7705000Y5425000D03*
%TO.N,A2_CS*%
X8350000Y4350000D03*
%TO.N,GPIO12*%
X-6705000Y2725000D03*
X-5405000Y4325000D03*
%TO.N,GPIO4*%
X-10205000Y-75000D03*
X-4905000Y1025000D03*
%TO.N,GPIO5*%
X-10905000Y-175000D03*
X-5000Y-175000D03*
%TO.N,A1_CS*%
X13450000Y4850000D03*
X1500000Y-2400000D03*
%TD*%
D54*
%TO.N,P_MISO*%
X1025305Y-3702944D02*
X2300000Y-2428249D01*
X2300000Y-2428249D02*
X2300000Y-1600000D01*
D55*
%TO.N,Net-(J202-Pad2)*%
X-19250000Y-7050000D02*
X-19500000Y-7300000D01*
X-19500000Y-7300000D02*
X-19500000Y-8500000D01*
X-18200000Y-7050000D02*
X-19250000Y-7050000D01*
%TO.N,GND*%
X-19500000Y-5800000D02*
X-19500000Y-4600000D01*
X-19250000Y-6050000D02*
X-19500000Y-5800000D01*
X-18200000Y-6050000D02*
X-19250000Y-6050000D01*
D54*
%TO.N,PPM_F*%
X20100000Y4350000D02*
X20100000Y2850000D01*
X19750000Y4700000D02*
X20100000Y4350000D01*
X19425000Y4700000D02*
X19750000Y4700000D01*
X20100000Y2850000D02*
X19500000Y2250000D01*
%TO.N,PPM_B*%
X19425000Y7075000D02*
X19500000Y7150000D01*
X19425000Y5700000D02*
X19425000Y7075000D01*
%TO.N,SNS_VER*%
X11950000Y3212500D02*
X11950000Y2150000D01*
%TO.N,X_TX*%
X12500000Y1900000D02*
X12500000Y1460000D01*
X12750000Y2150000D02*
X12750000Y3212500D01*
X12750000Y2150000D02*
X12500000Y1900000D01*
D55*
%TO.N,VBUS*%
X19400000Y-2500000D02*
X17350000Y-450000D01*
X17350000Y-450000D02*
X16450000Y-450000D01*
X19400000Y-3405000D02*
X19400000Y-2500000D01*
X14600000Y-2300000D02*
X16450000Y-450000D01*
X14600000Y-3405000D02*
X14600000Y-2300000D01*
%TO.N,VCC*%
X13750000Y-450000D02*
X13950000Y-450000D01*
X11450000Y-2750000D02*
X13750000Y-450000D01*
D54*
%TO.N,SNS_VIN*%
X-5550000Y-3350000D02*
X-5950000Y-3750000D01*
X-2500000Y-1050000D02*
X-4800000Y-3350000D01*
X4450000Y-1050000D02*
X-2500000Y-1050000D01*
X8250000Y-2250000D02*
X5650000Y-2250000D01*
X5650000Y-2250000D02*
X4450000Y-1050000D01*
X9700000Y-800000D02*
X8250000Y-2250000D01*
X-4800000Y-3350000D02*
X-5550000Y-3350000D01*
X11200000Y-800000D02*
X9700000Y-800000D01*
%TO.N,LED_MISC*%
X18400000Y500000D02*
X18890000Y500000D01*
X16850000Y2050000D02*
X18400000Y500000D01*
%TO.N,+3V3*%
X19050000Y-660000D02*
X18890000Y-500000D01*
X19050000Y-1150000D02*
X19050000Y-660000D01*
%TO.N,GND*%
X5660000Y190000D02*
X5700000Y190000D01*
X5150000Y700000D02*
X5660000Y190000D01*
X4525000Y700000D02*
X5150000Y700000D01*
X4175000Y1050000D02*
X4525000Y700000D01*
X4175000Y1050000D02*
X4175000Y1025000D01*
X4175000Y1025000D02*
X4150000Y1000000D01*
%TO.N,P_MOSI*%
X2207107Y-3200000D02*
X1378858Y-4028249D01*
X2400000Y-3200000D02*
X2207107Y-3200000D01*
X3000000Y-3800000D02*
X2400000Y-3200000D01*
%TO.N,SNS_VIN*%
X11550000Y1450000D02*
X11550000Y1430000D01*
%TO.N,+3V3*%
X6650000Y8450000D02*
X6500000Y8600000D01*
X7512500Y8450000D02*
X6650000Y8450000D01*
%TO.N,GND*%
X3950000Y7150000D02*
X3330000Y7150000D01*
X4900000Y8100000D02*
X3950000Y7150000D01*
D55*
X-17300000Y-6050000D02*
X-18200000Y-6050000D01*
X-16850000Y-5600000D02*
X-17300000Y-6050000D01*
X-17000000Y-350000D02*
X-18200000Y-350000D01*
X-18200000Y1650000D02*
X-17000000Y1650000D01*
D54*
%TO.N,Net-(D60-Pad2)*%
X19812500Y8762500D02*
X19812500Y9500000D01*
X19800000Y8750000D02*
X19812500Y8762500D01*
%TO.N,+3V3*%
X15360000Y10310000D02*
X16100000Y10310000D01*
X15300000Y10250000D02*
X15360000Y10310000D01*
X15300000Y9450000D02*
X15300000Y10250000D01*
%TO.N,GND*%
X-7750000Y-2025000D02*
X-9045000Y-2025000D01*
X-9045000Y-2025000D02*
X-9050000Y-2030000D01*
%TO.N,SNS_VER*%
X20600000Y10350000D02*
X18740000Y10350000D01*
X20600000Y10250000D02*
X20600000Y10350000D01*
X18740000Y10350000D02*
X18700000Y10310000D01*
%TO.N,LED_MISC*%
X8800000Y9100000D02*
X9150000Y9450000D01*
X9150000Y9450000D02*
X9150000Y10087500D01*
%TO.N,PPM_F*%
X9950000Y9450000D02*
X9950000Y10087500D01*
X10300000Y9100000D02*
X9950000Y9450000D01*
%TO.N,E_D+*%
X17750000Y-2275000D02*
X17750000Y-3405000D01*
D56*
%TO.N,Net-(C103-Pad2)*%
X-10350000Y8650000D02*
X-10350000Y8300000D01*
X-9400000Y9600000D02*
X-10350000Y8650000D01*
X-7500000Y9600000D02*
X-9400000Y9600000D01*
X-7300000Y9400000D02*
X-7500000Y9600000D01*
X-7280000Y9400000D02*
X-7300000Y9400000D01*
D54*
%TO.N,GND*%
X-10750000Y3795000D02*
X-9535000Y2580000D01*
X-10750000Y4495000D02*
X-10750000Y3795000D01*
X-10785000Y4530000D02*
X-10750000Y4495000D01*
X-8785000Y3330000D02*
X-9535000Y2580000D01*
X-8785000Y4530000D02*
X-8785000Y3330000D01*
%TO.N,+3V3*%
X16150000Y4750000D02*
X16150000Y5720000D01*
X16150000Y4750000D02*
X16150000Y4380000D01*
X15950000Y4950000D02*
X16150000Y4750000D01*
%TO.N,Net-(D60-Pad2)*%
X-4750000Y7700000D02*
X-4750000Y7800000D01*
X-4360000Y7310000D02*
X-4750000Y7700000D01*
X-4360000Y7150000D02*
X-4360000Y7310000D01*
%TO.N,LED_1*%
X14387500Y4050000D02*
X14387500Y2162500D01*
X14387500Y2162500D02*
X14400000Y2150000D01*
%TO.N,LED_2*%
X13550000Y3212500D02*
X13550000Y2150000D01*
%TO.N,LED_1*%
X-14250000Y8250000D02*
X-14200000Y8200000D01*
X-14800000Y8250000D02*
X-14250000Y8250000D01*
%TO.N,LED_2*%
X-14210000Y6350000D02*
X-14200000Y6360000D01*
X-14800000Y6350000D02*
X-14210000Y6350000D01*
%TO.N,Net-(Q31-Pad1)*%
X-15532500Y7180000D02*
X-15662500Y7050000D01*
X-14200000Y7180000D02*
X-15532500Y7180000D01*
%TO.N,Net-(Q33-Pad1)*%
X-14460000Y5340000D02*
X-14200000Y5340000D01*
X-15675000Y4125000D02*
X-14460000Y5340000D01*
X-15675000Y3662500D02*
X-15675000Y4125000D01*
X-15662500Y3650000D02*
X-15675000Y3662500D01*
%TO.N,GND*%
X-14600000Y4450000D02*
X-14185000Y4450000D01*
X-14750000Y4300000D02*
X-14600000Y4450000D01*
%TO.N,A1_CS*%
X13450000Y4850000D02*
X14387500Y4850000D01*
%TO.N,+3V3*%
X15250000Y6050000D02*
X14387500Y6050000D01*
%TO.N,GND*%
X17200000Y8450000D02*
X16300000Y7550000D01*
X17200000Y8600000D02*
X17200000Y8450000D01*
X17200000Y9350000D02*
X16950000Y9350000D01*
X17200000Y8600000D02*
X17200000Y9350000D01*
%TO.N,E_D-*%
X15350000Y8050000D02*
X14387500Y8050000D01*
X15500000Y7900000D02*
X15350000Y8050000D01*
%TO.N,Net-(R3-Pad1)*%
X14950000Y7650000D02*
X14387500Y7650000D01*
X15860000Y6740000D02*
X14950000Y7650000D01*
X16150000Y6740000D02*
X15860000Y6740000D01*
D55*
%TO.N,GND*%
X-15675000Y5537500D02*
X-15662500Y5550000D01*
X-15675000Y6200000D02*
X-15675000Y5537500D01*
D54*
%TO.N,E_EN*%
X6690000Y-500000D02*
X6800000Y-390000D01*
X6000000Y-500000D02*
X6690000Y-500000D01*
%TO.N,GND*%
X-2475000Y-3653249D02*
X-3050000Y-4228249D01*
X-3050000Y-4228249D02*
X-3050000Y-5799427D01*
X-3050000Y-5799427D02*
X-3239411Y-5988838D01*
X5330000Y8530000D02*
X4900000Y8100000D01*
X5550000Y8530000D02*
X5330000Y8530000D01*
X5720000Y10280000D02*
X5600000Y10280000D01*
X6500000Y9500000D02*
X5720000Y10280000D01*
%TO.N,+3V3*%
X5780000Y9320000D02*
X5600000Y9320000D01*
X6500000Y8600000D02*
X5780000Y9320000D01*
%TO.N,E_D-*%
X16625000Y-2400000D02*
X16450000Y-2400000D01*
D55*
%TO.N,VCC*%
X-13300000Y-8100000D02*
X-13350000Y-8100000D01*
X-12900000Y-8500000D02*
X-13300000Y-8100000D01*
X-12900000Y-8500000D02*
X-12900000Y-7650000D01*
X-12925000Y-7675000D02*
X-12900000Y-7650000D01*
D54*
%TO.N,+3V3*%
X15350000Y6050000D02*
X15250000Y6050000D01*
%TO.N,GND*%
X16150000Y2825000D02*
X16150000Y3420000D01*
%TO.N,PPM_B*%
X19425000Y5700000D02*
X18200000Y5700000D01*
%TO.N,PPM_F*%
X19425000Y4700000D02*
X18200000Y4700000D01*
%TO.N,GND*%
X19400000Y3700000D02*
X18200000Y3700000D01*
X19425000Y3675000D02*
X19400000Y3700000D01*
X5860000Y350000D02*
X5700000Y190000D01*
X6470000Y470000D02*
X6350000Y350000D01*
X6350000Y350000D02*
X5860000Y350000D01*
X6600000Y470000D02*
X6470000Y470000D01*
%TO.N,+3V3*%
X6135000Y-1410000D02*
X6125000Y-1400000D01*
X6800000Y-1410000D02*
X6135000Y-1410000D01*
%TO.N,GND*%
X7720000Y-1400000D02*
X7700000Y-1380000D01*
X8350000Y-1400000D02*
X7720000Y-1400000D01*
%TO.N,SNS_VIN*%
X-6250000Y-4050000D02*
X-7740000Y-4050000D01*
X-5950000Y-3750000D02*
X-6250000Y-4050000D01*
%TO.N,VCC*%
X-8760000Y-4050000D02*
X-9300000Y-4050000D01*
X-9300000Y-4050000D02*
X-12900000Y-7650000D01*
%TO.N,GND*%
X-7170000Y-1345000D02*
X-7170000Y-1125000D01*
X-7750000Y-1925000D02*
X-7170000Y-1345000D01*
X-7750000Y-2025000D02*
X-7750000Y-1925000D01*
X-7775000Y-2025000D02*
X-7750000Y-2025000D01*
X-8760000Y-3010000D02*
X-7775000Y-2025000D01*
X-8760000Y-3150000D02*
X-8760000Y-3010000D01*
%TO.N,GPIO0*%
X-5905000Y1205000D02*
X-5905000Y1235000D01*
X-4900000Y200000D02*
X-5905000Y1205000D01*
X-5540000Y1290000D02*
X-5205000Y1625000D01*
%TO.N,Net-(Q31-Pad1)*%
X-15675000Y7062500D02*
X-15662500Y7050000D01*
%TO.N,Net-(Q32-Pad1)*%
X-22950000Y6350000D02*
X-22950000Y5470000D01*
%TO.N,VCC*%
X-20625000Y6500000D02*
X-19562500Y6500000D01*
X-21495000Y7370000D02*
X-20625000Y6500000D01*
X-22950000Y7370000D02*
X-21495000Y7370000D01*
D55*
%TO.N,/LED2/LED_out*%
X-19300000Y650000D02*
X-19325000Y675000D01*
X-18200000Y650000D02*
X-19300000Y650000D01*
%TO.N,/LED1/LED_out*%
X-19325000Y-1350000D02*
X-18200000Y-1350000D01*
X-21425000Y8937500D02*
X-21437500Y8950000D01*
X-21425000Y8325000D02*
X-21425000Y8937500D01*
%TO.N,VCC*%
X-19562500Y9300000D02*
X-19562500Y9900000D01*
X-19550000Y6487500D02*
X-19562500Y6500000D01*
X-19550000Y5875000D02*
X-19550000Y6487500D01*
%TO.N,/LED2/LED_out*%
X-21425000Y5562500D02*
X-21437500Y5550000D01*
X-21425000Y6200000D02*
X-21425000Y5562500D01*
%TO.N,GND*%
X-15675000Y8937500D02*
X-15662500Y8950000D01*
X-15675000Y8350000D02*
X-15675000Y8937500D01*
D54*
%TO.N,+3V3*%
X1325000Y3775000D02*
X1600000Y3500000D01*
X670000Y3775000D02*
X1325000Y3775000D01*
X1600000Y3500000D02*
X2320000Y3500000D01*
X1375000Y3275000D02*
X1600000Y3500000D01*
X670000Y3275000D02*
X1375000Y3275000D01*
X6400000Y2450000D02*
X6400000Y1630000D01*
%TO.N,E_EN*%
X7700000Y-350000D02*
X7250000Y100000D01*
X7700000Y-420000D02*
X7700000Y-350000D01*
X7250000Y3787500D02*
X7512500Y4050000D01*
X7250000Y100000D02*
X7250000Y3787500D01*
X6800000Y-390000D02*
X6800000Y-350000D01*
X6800000Y-350000D02*
X7250000Y100000D01*
%TO.N,+3V3*%
X6355000Y2670000D02*
X6350000Y2670000D01*
X6400000Y4675000D02*
X6400000Y2625000D01*
X7512500Y4850000D02*
X6575000Y4850000D01*
X6575000Y4850000D02*
X6400000Y4675000D01*
X6400000Y2625000D02*
X6355000Y2670000D01*
X6400000Y1630000D02*
X6600000Y1430000D01*
X6400000Y2620000D02*
X6400000Y2450000D01*
X6350000Y2670000D02*
X6400000Y2620000D01*
X6350000Y2670000D02*
X5700000Y2020000D01*
%TO.N,GND*%
X5700000Y2980000D02*
X4370000Y2980000D01*
X4370000Y2980000D02*
X3850000Y3500000D01*
X3850000Y3500000D02*
X3280000Y3500000D01*
X4770000Y4730000D02*
X4500000Y5000000D01*
X4770000Y3850000D02*
X4770000Y4730000D01*
%TO.N,Net-(C11-Pad1)*%
X5730000Y4870000D02*
X5600000Y5000000D01*
X5730000Y3850000D02*
X5730000Y4870000D01*
X5850000Y5250000D02*
X5600000Y5000000D01*
X7512500Y5250000D02*
X5850000Y5250000D01*
%TO.N,Net-(C12-Pad2)*%
X5470000Y7570000D02*
X4500000Y6600000D01*
X4500000Y6600000D02*
X4500000Y6400000D01*
X5550000Y7570000D02*
X5470000Y7570000D01*
X5720000Y7400000D02*
X5550000Y7570000D01*
X5950000Y7400000D02*
X5720000Y7400000D01*
X6350000Y7000000D02*
X5950000Y7400000D01*
X6350000Y5800000D02*
X6350000Y7000000D01*
X6500000Y5650000D02*
X6350000Y5800000D01*
X7512500Y5650000D02*
X6500000Y5650000D01*
%TO.N,X_RX*%
X700000Y1245000D02*
X670000Y1275000D01*
X700000Y-150000D02*
X700000Y1245000D01*
%TO.N,X_TX*%
X1275000Y1775000D02*
X1450000Y1600000D01*
X1450000Y1600000D02*
X1450000Y-100000D01*
X670000Y1775000D02*
X1275000Y1775000D01*
X1450000Y-100000D02*
X1400000Y-150000D01*
%TO.N,Net-(C60-Pad2)*%
X4850000Y1800000D02*
X4450000Y1800000D01*
X4450000Y1800000D02*
X4150000Y2100000D01*
X5500000Y1150000D02*
X4850000Y1800000D01*
X5700000Y1150000D02*
X5500000Y1150000D01*
%TO.N,GND*%
X3310000Y160000D02*
X3310000Y-300000D01*
X4150000Y1000000D02*
X3310000Y160000D01*
%TO.N,Net-(C61-Pad2)*%
X2525000Y1000000D02*
X2750000Y1000000D01*
X1900000Y1625000D02*
X2525000Y1000000D01*
X1900000Y2050000D02*
X1900000Y1625000D01*
X1675000Y2275000D02*
X1900000Y2050000D01*
X670000Y2275000D02*
X1675000Y2275000D01*
X2400000Y650000D02*
X2750000Y1000000D01*
X2400000Y-250000D02*
X2400000Y650000D01*
X2350000Y-300000D02*
X2400000Y-250000D01*
%TO.N,Net-(C60-Pad2)*%
X2025000Y2775000D02*
X670000Y2775000D01*
X2100000Y2850000D02*
X2025000Y2775000D01*
X3400000Y2850000D02*
X2100000Y2850000D01*
X4150000Y2100000D02*
X3400000Y2850000D01*
%TO.N,GND*%
X450000Y7750000D02*
X450000Y7220000D01*
%TO.N,/ExpressLRS-RX/trace_antenna*%
X-500000Y5505000D02*
X-530000Y5475000D01*
X-500000Y6400000D02*
X-500000Y5505000D01*
%TO.N,+3V3*%
X350000Y6350000D02*
X-30000Y5970000D01*
X450000Y6450000D02*
X350000Y6350000D01*
X1480000Y7150000D02*
X780000Y6450000D01*
X780000Y6450000D02*
X450000Y6450000D01*
X-30000Y5970000D02*
X-30000Y5475000D01*
X2370000Y7150000D02*
X1480000Y7150000D01*
X3270000Y6250000D02*
X2370000Y7150000D01*
X3310000Y6250000D02*
X3270000Y6250000D01*
X-1475000Y6425000D02*
X-1550000Y6350000D01*
X-1030000Y5475000D02*
X-1030000Y6150000D01*
X-1030000Y6150000D02*
X-1390000Y6510000D01*
X-1550000Y6350000D02*
X-1550000Y5495000D01*
X-1390000Y6510000D02*
X-1475000Y6425000D01*
X-1390000Y7150000D02*
X-1390000Y6510000D01*
X-1550000Y5495000D02*
X-1530000Y5475000D01*
%TO.N,GPIO16*%
X-3530000Y6960000D02*
X-3340000Y7150000D01*
X-3530000Y5475000D02*
X-3530000Y6960000D01*
%TO.N,CHIP_EN*%
X-2410000Y6790000D02*
X-2410000Y7150000D01*
X-3030000Y5475000D02*
X-3030000Y6170000D01*
X-3030000Y6170000D02*
X-2410000Y6790000D01*
%TO.N,PPM_F*%
X10200000Y9100000D02*
X10300000Y9100000D01*
%TO.N,PPM_B*%
X9550000Y10087500D02*
X9550000Y9100000D01*
%TO.N,GND*%
X17000000Y9350000D02*
X17790000Y9350000D01*
%TO.N,+3V3*%
X18700000Y8650000D02*
X18700000Y9290000D01*
%TO.N,SNS_VER*%
X18700000Y10310000D02*
X17850000Y10310000D01*
%TO.N,GND*%
X-20100000Y-10200000D02*
X-19410000Y-10200000D01*
%TO.N,Net-(D21-Pad2)*%
X-18150000Y-10000000D02*
X-14962500Y-10000000D01*
X-18350000Y-10200000D02*
X-18150000Y-10000000D01*
X-18390000Y-10200000D02*
X-18350000Y-10200000D01*
D55*
X-14962500Y-10000000D02*
X-13050000Y-10000000D01*
X-13050000Y-10000000D02*
X-12900000Y-10150000D01*
%TO.N,Net-(J202-Pad2)*%
X-16837500Y-8712500D02*
X-16837500Y-9050000D01*
X-18200000Y-7050000D02*
X-18200000Y-7350000D01*
X-18200000Y-7350000D02*
X-16837500Y-8712500D01*
%TO.N,VCC*%
X-13350000Y-8100000D02*
X-12925000Y-7675000D01*
X-14962500Y-8100000D02*
X-13350000Y-8100000D01*
X-14900000Y-8037500D02*
X-14962500Y-8100000D01*
X-14900000Y-6037500D02*
X-14900000Y-8037500D01*
D54*
%TO.N,SNS_VIN*%
X-7740000Y-3150000D02*
X-7740000Y-4050000D01*
%TO.N,GND*%
X-5950000Y-2100000D02*
X-5950000Y-1250000D01*
X-9030000Y-2050000D02*
X-9050000Y-2030000D01*
X-3020000Y-400000D02*
X-3770000Y-1150000D01*
X-3000000Y-400000D02*
X-3020000Y-400000D01*
%TO.N,+3V3*%
X-3530000Y-130000D02*
X-3530000Y575000D01*
X-3800000Y-400000D02*
X-3530000Y-130000D01*
X-4730000Y-1150000D02*
X-4730000Y-960000D01*
X-4730000Y-960000D02*
X-5905000Y215000D01*
%TO.N,Net-(C70-Pad1)*%
X-8205000Y-1050000D02*
X-8130000Y-1125000D01*
X-8205000Y-75000D02*
X-8205000Y-1050000D01*
%TO.N,+3V3*%
X-8900000Y-920000D02*
X-9050000Y-1070000D01*
X-8900000Y-450000D02*
X-8900000Y-920000D01*
D55*
%TO.N,GND*%
X20200000Y-2500000D02*
X20200000Y-3405000D01*
X13800000Y-2500000D02*
X13800000Y-3405000D01*
D54*
X22900000Y-3800000D02*
X22900000Y-4390000D01*
X22900000Y-8000000D02*
X22900000Y-7410000D01*
%TO.N,Net-(R56-Pad2)*%
X16290000Y-6390000D02*
X15750000Y-5850000D01*
X15750000Y-5850000D02*
X15750000Y-3405000D01*
X22900000Y-6390000D02*
X16290000Y-6390000D01*
%TO.N,Net-(R57-Pad2)*%
X19210000Y-5410000D02*
X22900000Y-5410000D01*
X18750000Y-4950000D02*
X19210000Y-5410000D01*
X18750000Y-3405000D02*
X18750000Y-4950000D01*
%TO.N,+3V3*%
X15640000Y8510000D02*
X15350000Y8800000D01*
X15300000Y9100000D02*
X15300000Y8850000D01*
X15300000Y9100000D02*
X15300000Y9450000D01*
X15300000Y9000000D02*
X15300000Y9100000D01*
X15350000Y8800000D02*
X15300000Y8850000D01*
X15300000Y9450000D02*
X15300000Y9800000D01*
%TO.N,GND*%
X21400000Y8750000D02*
X21400000Y9437500D01*
%TO.N,Net-(D60-Pad2)*%
X19800000Y9837500D02*
X19812500Y9850000D01*
X19800000Y9100000D02*
X19800000Y9837500D01*
%TO.N,Net-(Q33-Pad3)*%
X-18800000Y3950000D02*
X-22450000Y3950000D01*
X-22450000Y3950000D02*
X-22950000Y4450000D01*
X-18150000Y4600000D02*
X-18800000Y3950000D01*
X-17537500Y4600000D02*
X-18150000Y4600000D01*
%TO.N,Net-(Q32-Pad1)*%
X-22870000Y5470000D02*
X-22000000Y4600000D01*
X-22950000Y5470000D02*
X-22870000Y5470000D01*
X-22000000Y4600000D02*
X-19562500Y4600000D01*
%TO.N,+3V3*%
X-14825000Y2725000D02*
X-14850000Y2700000D01*
X-14215000Y2725000D02*
X-14825000Y2725000D01*
%TO.N,VCC*%
X-18550000Y9900000D02*
X-19562500Y9900000D01*
X-18200000Y10250000D02*
X-18550000Y9900000D01*
X-17810000Y10250000D02*
X-18200000Y10250000D01*
%TO.N,Net-(Q31-Pad3)*%
X-15640000Y9600000D02*
X-14990000Y10250000D01*
X-16600000Y9600000D02*
X-15640000Y9600000D01*
X-17537500Y8662500D02*
X-16600000Y9600000D01*
X-17537500Y8000000D02*
X-17537500Y8662500D01*
%TO.N,Net-(Q30-Pad1)*%
X-16850000Y10250000D02*
X-19100000Y8000000D01*
X-16790000Y10250000D02*
X-16850000Y10250000D01*
X-19100000Y8000000D02*
X-19562500Y8000000D01*
X-16010000Y10250000D02*
X-16790000Y10250000D01*
D56*
%TO.N,Net-(C103-Pad2)*%
X-10350000Y8300000D02*
X-11950000Y8300000D01*
%TO.N,Net-(C102-Pad1)*%
X-6980000Y8570000D02*
X-6980000Y8400000D01*
X-6320000Y9230000D02*
X-6980000Y8570000D01*
X-6320000Y9400000D02*
X-6320000Y9230000D01*
X-7000000Y8380000D02*
X-6980000Y8400000D01*
X-7000000Y7385000D02*
X-7000000Y8380000D01*
X-6995000Y7380000D02*
X-7000000Y7385000D01*
X-6000000Y7380000D02*
X-6995000Y7380000D01*
%TO.N,Net-(C101-Pad1)*%
X-8015000Y6400000D02*
X-6020000Y6400000D01*
X-6020000Y6400000D02*
X-6000000Y6420000D01*
X-8000000Y6415000D02*
X-8015000Y6400000D01*
X-8000000Y7420000D02*
X-8000000Y6415000D01*
%TO.N,Net-(C100-Pad1)*%
X-9000000Y6415000D02*
X-8985000Y6400000D01*
X-9000000Y7420000D02*
X-9000000Y6415000D01*
X-9785000Y5600000D02*
X-8985000Y6400000D01*
X-9785000Y4530000D02*
X-9785000Y5600000D01*
D54*
%TO.N,E_D+*%
X13500000Y8450000D02*
X14387500Y8450000D01*
%TO.N,+3V3*%
X16150000Y8510000D02*
X15640000Y8510000D01*
X15300000Y8850000D02*
X15150000Y8850000D01*
%TO.N,E_D+*%
X17575000Y-4425000D02*
X17750000Y-4250000D01*
%TO.N,E_D-*%
X16750000Y-2400000D02*
X16625000Y-2400000D01*
%TO.N,+3V3*%
X15850000Y6050000D02*
X15350000Y6050000D01*
X16150000Y5750000D02*
X15850000Y6050000D01*
X16150000Y5720000D02*
X16150000Y5750000D01*
X15150000Y8850000D02*
X15300000Y9000000D01*
X14387500Y8850000D02*
X15150000Y8850000D01*
X13550000Y8850000D02*
X14387500Y8850000D01*
X13150000Y9250000D02*
X13550000Y8850000D01*
X13150000Y10087500D02*
X13150000Y9250000D01*
%TO.N,SNS_VER*%
X18700000Y10360000D02*
X18610000Y10360000D01*
X17840000Y10360000D02*
X17800000Y10360000D01*
%TO.N,GND*%
X17790000Y9350000D02*
X17800000Y9340000D01*
X16100000Y9350000D02*
X17000000Y9350000D01*
%TO.N,+3V3*%
X16950000Y10310000D02*
X16100000Y10310000D01*
%TO.N,SNS_VIN*%
X11150000Y2150000D02*
X11150000Y2050000D01*
%TO.N,+3V3*%
X12500000Y440000D02*
X12500000Y-150000D01*
%TO.N,GND*%
X10650000Y470000D02*
X10650000Y-150000D01*
X8850000Y-150000D02*
X8850000Y440000D01*
X8990000Y440000D02*
X9750000Y440000D01*
%TO.N,SNS_VIN*%
X11150000Y3212500D02*
X11150000Y2150000D01*
X11150000Y2050000D02*
X11550000Y1650000D01*
X11550000Y1650000D02*
X11550000Y1450000D01*
%TO.N,E_IO0*%
X10650000Y1450000D02*
X9950000Y2150000D01*
X10650000Y1430000D02*
X10650000Y1450000D01*
X9950000Y2150000D02*
X9950000Y3212500D01*
%TO.N,+3V3*%
X9050000Y2050000D02*
X9050000Y1600000D01*
X9050000Y1600000D02*
X8850000Y1400000D01*
X9150000Y2150000D02*
X9050000Y2050000D01*
X8750000Y2150000D02*
X9150000Y2150000D01*
X8350000Y2550000D02*
X8750000Y2150000D01*
X8350000Y3212500D02*
X8350000Y2550000D01*
X9150000Y3212500D02*
X9150000Y2150000D01*
X9550000Y2550000D02*
X9150000Y2150000D01*
X9550000Y3212500D02*
X9550000Y2550000D01*
%TO.N,GND*%
X10650000Y470000D02*
X11550000Y470000D01*
X7950000Y440000D02*
X8990000Y440000D01*
%TO.N,+3V3*%
X9750000Y1400000D02*
X7950000Y1400000D01*
%TO.N,GND*%
X-16075000Y-4900000D02*
X-13950000Y-4900000D01*
X-13950000Y-3412020D02*
X-13950000Y-4900000D01*
X-12850000Y-2380000D02*
X-12917980Y-2380000D01*
X-16150000Y-4825000D02*
X-16075000Y-4900000D01*
X-12917980Y-2380000D02*
X-13950000Y-3412020D01*
%TO.N,E_D-*%
X16250000Y-2600000D02*
X16250000Y-3405000D01*
X17077222Y-2400000D02*
X16750000Y-2400000D01*
X16450000Y-2400000D02*
X16250000Y-2600000D01*
X17250000Y-2572778D02*
X17077222Y-2400000D01*
X17250000Y-3405000D02*
X17250000Y-2572778D01*
%TO.N,Net-(D41-Pad2)*%
X20962500Y350000D02*
X20060000Y350000D01*
X20060000Y350000D02*
X19910000Y500000D01*
%TO.N,Net-(D40-Pad2)*%
X20660000Y-1250000D02*
X19910000Y-500000D01*
X20962500Y-1250000D02*
X20660000Y-1250000D01*
%TO.N,Net-(R62-Pad2)*%
X2185000Y4275000D02*
X2310000Y4400000D01*
X670000Y4275000D02*
X2185000Y4275000D01*
%TO.N,Net-(C64-Pad2)*%
X2310000Y5510000D02*
X2310000Y6225000D01*
X1575000Y4775000D02*
X2310000Y5510000D01*
X670000Y4775000D02*
X1575000Y4775000D01*
%TO.N,GPIO0*%
X-5595000Y1235000D02*
X-5540000Y1290000D01*
X-5905000Y1235000D02*
X-5595000Y1235000D01*
X-5205000Y1625000D02*
X-4230000Y1775000D01*
%TO.N,GND*%
X3325000Y3700000D02*
X3300000Y3725000D01*
X3300000Y3725000D02*
X3300000Y5425000D01*
%TO.N,E_D+*%
X17750000Y-4250000D02*
X17750000Y-3405000D01*
X17000000Y-4500000D02*
X17500000Y-4500000D01*
X17500000Y-4500000D02*
X17575000Y-4425000D01*
X16750000Y-4250000D02*
X17000000Y-4500000D01*
X16750000Y-3405000D02*
X16750000Y-4250000D01*
D57*
%TO.N,+3V3*%
X-3092929Y-7200000D02*
X-2560589Y-6667660D01*
X-3100000Y-7200000D02*
X-3092929Y-7200000D01*
%TO.N,A1_CS*%
X1592893Y-2400000D02*
X671751Y-3321142D01*
X1600000Y-2400000D02*
X1592893Y-2400000D01*
%TO.N,+3V3*%
X1500000Y-7300000D02*
X1700000Y-7100000D01*
X1185786Y-7300000D02*
X1500000Y-7300000D01*
X318198Y-6432412D02*
X1185786Y-7300000D01*
%TO.N,GND*%
X2600000Y-5900000D02*
X2900000Y-5900000D01*
X1732412Y-5032412D02*
X2600000Y-5900000D01*
X1732412Y-5018198D02*
X1732412Y-5032412D01*
%TO.N,P_SCK*%
X2300000Y-6292893D02*
X1378858Y-5371751D01*
X2300000Y-6500000D02*
X2300000Y-6292893D01*
D58*
%TO.N,Net-(U70-Pad4)*%
X-12605000Y2075000D02*
X-12350000Y2330000D01*
X-13955000Y2075000D02*
X-12605000Y2075000D01*
X-14455000Y1575000D02*
X-13955000Y2075000D01*
X-14455000Y1325000D02*
X-14455000Y1575000D01*
X-12350000Y2330000D02*
X-11485000Y2330000D01*
D54*
%TO.N,GPIO5*%
X-10785000Y-55000D02*
X-10785000Y630000D01*
X-10905000Y-175000D02*
X-10785000Y-55000D01*
%TO.N,GPIO14*%
X-4555000Y4775000D02*
X-4230000Y4775000D01*
X-4705000Y4925000D02*
X-4555000Y4775000D01*
X-5705000Y4925000D02*
X-4705000Y4925000D01*
X-6800000Y3830000D02*
X-5705000Y4925000D01*
X-7585000Y3830000D02*
X-6800000Y3830000D01*
%TO.N,GPIO12*%
X-4655000Y4275000D02*
X-4230000Y4275000D01*
X-5305000Y4425000D02*
X-4805000Y4425000D01*
X-4805000Y4425000D02*
X-4655000Y4275000D01*
X-5405000Y4325000D02*
X-5305000Y4425000D01*
%TO.N,+3V3*%
X-4905000Y3775000D02*
X-4230000Y3775000D01*
X-4955000Y3825000D02*
X-4905000Y3775000D01*
%TO.N,GPIO13*%
X-7580000Y3325000D02*
X-7585000Y3330000D01*
X-6605000Y3325000D02*
X-7580000Y3325000D01*
X-6305000Y3625000D02*
X-6605000Y3325000D01*
X-5530000Y3625000D02*
X-6305000Y3625000D01*
X-5180000Y3275000D02*
X-5530000Y3625000D01*
X-4230000Y3275000D02*
X-5180000Y3275000D01*
%TO.N,GPIO4*%
X-4805000Y1025000D02*
X-4905000Y1025000D01*
X-4555000Y1275000D02*
X-4805000Y1025000D01*
X-4230000Y1275000D02*
X-4555000Y1275000D01*
%TO.N,GPIO2*%
X-4855000Y2275000D02*
X-4230000Y2275000D01*
X-4905000Y2225000D02*
X-4855000Y2275000D01*
%TO.N,P_SCK*%
X15350000Y4450000D02*
X14387500Y4450000D01*
%TO.N,P_MOSI*%
X1378858Y-4049391D02*
X1378858Y-4056498D01*
D58*
%TO.N,GND*%
X-12200000Y1830000D02*
X-11485000Y1830000D01*
X-12705000Y1325000D02*
X-13355000Y1325000D01*
X-12705000Y1325000D02*
X-12200000Y1830000D01*
D54*
%TO.N,GPIO12*%
X-6810000Y2830000D02*
X-7585000Y2830000D01*
X-6705000Y2725000D02*
X-6810000Y2830000D01*
%TO.N,GND*%
X1732412Y-5046447D02*
X1732412Y-5060661D01*
X-8205000Y1475000D02*
X-8430000Y1475000D01*
X-10285000Y4530000D02*
X-10285000Y3330000D01*
X-7585000Y1330000D02*
X-8060000Y1330000D01*
X-8430000Y1475000D02*
X-8492500Y1537500D01*
X-15650000Y-2410000D02*
X-15650000Y-4325000D01*
X-9285000Y2830000D02*
X-9535000Y2580000D01*
X-1732412Y-4395837D02*
X-2475000Y-3653249D01*
X-1500000Y-6978249D02*
X-1500000Y-6935356D01*
X-2475000Y-3653249D02*
X-2125000Y-3303249D01*
D58*
X-10285000Y1830000D02*
X-9535000Y2580000D01*
D54*
X-1732412Y-4410051D02*
X-1732412Y-4395837D01*
X22537500Y250000D02*
X22537500Y-1350000D01*
X-2125000Y-3303249D02*
X-1500000Y-2678249D01*
X-8492500Y1537500D02*
X-9492500Y2537500D01*
X-9285000Y4530000D02*
X-9285000Y2830000D01*
X-1342893Y-2678249D02*
X-671751Y-3349391D01*
D58*
X-11485000Y1830000D02*
X-10285000Y1830000D01*
D54*
X-1378858Y-4056498D02*
X-1378858Y-4049391D01*
X-10285000Y3330000D02*
X-9535000Y2580000D01*
X-1378858Y-4049391D02*
X-2125000Y-3303249D01*
X-15650000Y-4325000D02*
X-16150000Y-4825000D01*
X-1500000Y-6935356D02*
X-671751Y-6107107D01*
X-1500000Y-2678249D02*
X-1342893Y-2678249D01*
X-9492500Y2537500D02*
X-9535000Y2580000D01*
X-14185000Y3575000D02*
X-14185000Y4375000D01*
X-8060000Y1330000D02*
X-8205000Y1475000D01*
%TO.N,+3V3*%
X318198Y-6460661D02*
X332412Y-6460661D01*
X8350000Y5050000D02*
X8150000Y4850000D01*
X-1939411Y-6667660D02*
X-2560589Y-6667660D01*
X-2560589Y-6588838D02*
X-2560589Y-6667660D01*
D55*
X-12325000Y-1375000D02*
X-13715000Y-1375000D01*
D54*
X-7585000Y2330000D02*
X-7110000Y2330000D01*
X-6755000Y875000D02*
X-6095000Y215000D01*
X-8785000Y630000D02*
X-8785000Y-455000D01*
X3295000Y6260000D02*
X3330000Y6225000D01*
D55*
X-10950000Y-1375000D02*
X-12325000Y-1375000D01*
X-13740000Y-2250000D02*
X-13790000Y-2300000D01*
D54*
X-6095000Y215000D02*
X-5905000Y215000D01*
X-6805000Y925000D02*
X-6755000Y875000D01*
X8150000Y6050000D02*
X8350000Y5850000D01*
X-1378858Y-5407107D02*
X-2560589Y-6588838D01*
X7512500Y6050000D02*
X8150000Y6050000D01*
X-6805000Y2025000D02*
X-6805000Y925000D01*
D55*
X-13715000Y-1375000D02*
X-13740000Y-1400000D01*
D54*
X8150000Y4850000D02*
X7512500Y4850000D01*
X-1025305Y-5753554D02*
X-1939411Y-6667660D01*
X8350000Y5850000D02*
X8350000Y5050000D01*
D55*
X-13740000Y-1400000D02*
X-13740000Y-2250000D01*
D54*
X-1378858Y-5400000D02*
X-1378858Y-5407107D01*
X-7110000Y2330000D02*
X-6805000Y2025000D01*
D55*
%TO.N,VCC*%
X-16150000Y-6375000D02*
X-14187500Y-6375000D01*
X-14187500Y-6375000D02*
X-13950000Y-6137500D01*
D54*
%TO.N,Net-(C21-Pad1)*%
X-12542500Y-4320000D02*
X-13000000Y-3862500D01*
X-11650000Y-4320000D02*
X-12542500Y-4320000D01*
D55*
%TO.N,Net-(C21-Pad2)*%
X-10850000Y-3125000D02*
X-10950000Y-3025000D01*
X-13000000Y-6137500D02*
X-12287500Y-6137500D01*
X-12287500Y-6137500D02*
X-11650000Y-5500000D01*
X-11430000Y-5280000D02*
X-10850000Y-4700000D01*
X-10850000Y-4700000D02*
X-10850000Y-3125000D01*
X-11650000Y-5500000D02*
X-11650000Y-5280000D01*
X-11650000Y-5280000D02*
X-11430000Y-5280000D01*
D54*
%TO.N,Net-(C22-Pad2)*%
X-14750000Y-2300000D02*
X-14750000Y-1410000D01*
X-14760000Y-1400000D02*
X-15640000Y-1400000D01*
X-15640000Y-1400000D02*
X-15650000Y-1390000D01*
X-14750000Y-1410000D02*
X-14760000Y-1400000D01*
X-14900000Y-3862500D02*
X-14900000Y-2450000D01*
X-14900000Y-2450000D02*
X-14750000Y-2300000D01*
D58*
%TO.N,Net-(C70-Pad1)*%
X-12605000Y3575000D02*
X-12255000Y3575000D01*
X-12010000Y3330000D02*
X-11485000Y3330000D01*
X-12605000Y3575000D02*
X-13225000Y3575000D01*
X-12255000Y3575000D02*
X-12010000Y3330000D01*
D54*
X-8285000Y5000D02*
X-8205000Y-75000D01*
X-8285000Y630000D02*
X-8285000Y5000D01*
D58*
%TO.N,Net-(C74-Pad1)*%
X-11910000Y3830000D02*
X-12455000Y4375000D01*
X-11485000Y3830000D02*
X-11910000Y3830000D01*
X-12455000Y4375000D02*
X-13225000Y4375000D01*
D54*
%TO.N,X_RX*%
X13150000Y3950000D02*
X13050000Y4050000D01*
X13150000Y3212500D02*
X13150000Y3950000D01*
%TO.N,P_MOSI*%
X15250000Y5250000D02*
X14387500Y5250000D01*
%TO.N,P_MISO*%
X13550000Y5650000D02*
X14387500Y5650000D01*
%TO.N,P_SCK*%
X1378858Y-5400000D02*
X1378858Y-5407107D01*
D58*
%TO.N,GPIO2*%
X-13090000Y2830000D02*
X-13195000Y2725000D01*
X-12600000Y2830000D02*
X-13090000Y2830000D01*
X-11485000Y2830000D02*
X-12600000Y2830000D01*
D54*
%TO.N,GPIO15*%
X-7705000Y5425000D02*
X-8005000Y5425000D01*
X-5305000Y2725000D02*
X-5595000Y2725000D01*
X-5255000Y2775000D02*
X-4230000Y2775000D01*
X-8285000Y5145000D02*
X-8285000Y4530000D01*
X-5305000Y2725000D02*
X-5255000Y2775000D01*
X-5595000Y2725000D02*
X-5905000Y3035000D01*
X-8005000Y5425000D02*
X-8285000Y5145000D01*
%TO.N,A2_CS*%
X8250000Y4450000D02*
X7512500Y4450000D01*
X8350000Y4350000D02*
X8250000Y4450000D01*
%TO.N,GPIO4*%
X-10285000Y5000D02*
X-10205000Y-75000D01*
X-10285000Y630000D02*
X-10285000Y5000D01*
%TO.N,GPIO5*%
X-30000Y575000D02*
X-30000Y-150000D01*
X-30000Y-150000D02*
X-5000Y-175000D01*
D58*
%TO.N,Net-(U70-Pad6)*%
X-11485000Y1330000D02*
X-11900000Y1330000D01*
X-11900000Y1330000D02*
X-13305000Y-75000D01*
X-13305000Y-75000D02*
X-13355000Y-75000D01*
%TD*%
%TA.AperFunction,Conductor*%
%TO.N,GND*%
G36*
X-4764352Y10585148D02*
G01*
X-4750000Y10550500D01*
X-4750000Y9455542D01*
X-4755636Y9432727D01*
X-4820879Y9308720D01*
X-4880258Y9117490D01*
X-4880522Y9115258D01*
X-4880523Y9115254D01*
X-4903117Y8924352D01*
X-4903793Y8918642D01*
X-4890697Y8718834D01*
X-4841408Y8524759D01*
X-4840472Y8522729D01*
X-4840470Y8522723D01*
X-4776114Y8383126D01*
X-4757577Y8342916D01*
X-4756526Y8341429D01*
X-4750000Y8317075D01*
X-4750000Y8272654D01*
X-4764352Y8238006D01*
X-4791334Y8224257D01*
X-4830690Y8218024D01*
X-4879320Y8210322D01*
X-4879321Y8210322D01*
X-4883126Y8209719D01*
X-4898746Y8201760D01*
X-4999786Y8150278D01*
X-4999787Y8150277D01*
X-5003220Y8148528D01*
X-5098528Y8053220D01*
X-5100277Y8049787D01*
X-5100278Y8049786D01*
X-5107522Y8035568D01*
X-5159719Y7933126D01*
X-5160322Y7929321D01*
X-5160322Y7929320D01*
X-5169781Y7869596D01*
X-5180804Y7800000D01*
X-5180201Y7796193D01*
X-5167251Y7714432D01*
X-5159719Y7666874D01*
X-5130838Y7610191D01*
X-5121875Y7592602D01*
X-5098528Y7546780D01*
X-5003220Y7451472D01*
X-4999787Y7449723D01*
X-4999786Y7449722D01*
X-4965100Y7432049D01*
X-4883126Y7390281D01*
X-4879319Y7389678D01*
X-4875648Y7388485D01*
X-4875933Y7387609D01*
X-4853318Y7376084D01*
X-4844852Y7367618D01*
X-4830500Y7332970D01*
X-4830500Y6925684D01*
X-4824068Y6876827D01*
X-4822485Y6873432D01*
X-4822484Y6873429D01*
X-4810097Y6846866D01*
X-4774065Y6769596D01*
X-4764352Y6759883D01*
X-4750000Y6725235D01*
X-4750000Y5276100D01*
X-4764352Y5241452D01*
X-4799000Y5227100D01*
X-5649062Y5227100D01*
X-5655936Y5227605D01*
X-5660104Y5229036D01*
X-5710768Y5227134D01*
X-5712606Y5227100D01*
X-5733097Y5227100D01*
X-5735311Y5226688D01*
X-5736631Y5226566D01*
X-5742101Y5225958D01*
X-5768042Y5224984D01*
X-5768043Y5224984D01*
X-5772566Y5224814D01*
X-5776724Y5223027D01*
X-5776726Y5223027D01*
X-5788365Y5218026D01*
X-5798737Y5214875D01*
X-5803147Y5214053D01*
X-5811190Y5212556D01*
X-5811192Y5212555D01*
X-5815639Y5211727D01*
X-5819492Y5209352D01*
X-5841588Y5195732D01*
X-5847958Y5192423D01*
X-5872791Y5181754D01*
X-5875968Y5180389D01*
X-5878639Y5178195D01*
X-5878641Y5178194D01*
X-5879943Y5177125D01*
X-5879953Y5177116D01*
X-5880877Y5176357D01*
X-5889445Y5167789D01*
X-5898381Y5160725D01*
X-5911442Y5152674D01*
X-5923845Y5136363D01*
X-5931280Y5126586D01*
X-5935636Y5121598D01*
X-5999399Y5057835D01*
X-6033798Y5043484D01*
X-7132263Y5037907D01*
X-7373023Y5036685D01*
X-7407744Y5050860D01*
X-7422271Y5085435D01*
X-7407920Y5120332D01*
X-7356472Y5171780D01*
X-7354575Y5175502D01*
X-7320972Y5241452D01*
X-7295281Y5291874D01*
X-7287603Y5340348D01*
X-7274799Y5421193D01*
X-7274196Y5425000D01*
X-7277718Y5447236D01*
X-7294678Y5554320D01*
X-7294678Y5554321D01*
X-7295281Y5558126D01*
X-7341621Y5649073D01*
X-7354722Y5674786D01*
X-7354723Y5674787D01*
X-7356472Y5678220D01*
X-7451780Y5773528D01*
X-7455213Y5775277D01*
X-7455214Y5775278D01*
X-7524342Y5810500D01*
X-7571874Y5834719D01*
X-7575679Y5835322D01*
X-7575680Y5835322D01*
X-7601900Y5839475D01*
X-7650408Y5847157D01*
X-7682384Y5866752D01*
X-7691139Y5903219D01*
X-7671544Y5935196D01*
X-7667150Y5937844D01*
X-7665753Y5938844D01*
X-7662120Y5940628D01*
X-7580270Y6022621D01*
X-7578489Y6026264D01*
X-7578488Y6026265D01*
X-7575528Y6032320D01*
X-7547418Y6057145D01*
X-7531507Y6059800D01*
X-7477319Y6059800D01*
X-7442701Y6045478D01*
X-7419804Y6022621D01*
X-7377379Y5980270D01*
X-7273294Y5929392D01*
X-7205486Y5919500D01*
X-6794514Y5919500D01*
X-6792757Y5919759D01*
X-6792752Y5919759D01*
X-6754710Y5925360D01*
X-6726116Y5929569D01*
X-6709261Y5937844D01*
X-6678682Y5952858D01*
X-6622120Y5980628D01*
X-6557443Y6045418D01*
X-6522765Y6059800D01*
X-6451636Y6059800D01*
X-6416988Y6045448D01*
X-6368316Y5996776D01*
X-6364431Y5994965D01*
X-6364432Y5994965D01*
X-6262885Y5947612D01*
X-6262882Y5947611D01*
X-6259487Y5946028D01*
X-6209901Y5939500D01*
X-6000066Y5939500D01*
X-5790100Y5939501D01*
X-5754978Y5944124D01*
X-5744227Y5945539D01*
X-5744226Y5945539D01*
X-5740513Y5946028D01*
X-5631684Y5996776D01*
X-5546776Y6081684D01*
X-5510341Y6159819D01*
X-5497612Y6187115D01*
X-5497611Y6187118D01*
X-5496028Y6190513D01*
X-5489500Y6240099D01*
X-5489501Y6599900D01*
X-5496028Y6649487D01*
X-5546776Y6758316D01*
X-5631684Y6843224D01*
X-5658205Y6855591D01*
X-5683542Y6883241D01*
X-5681906Y6920708D01*
X-5658205Y6944409D01*
X-5657469Y6944752D01*
X-5631684Y6956776D01*
X-5546776Y7041684D01*
X-5530987Y7075544D01*
X-5497612Y7147115D01*
X-5497611Y7147118D01*
X-5496028Y7150513D01*
X-5489500Y7200099D01*
X-5489501Y7559900D01*
X-5494556Y7598301D01*
X-5495539Y7605773D01*
X-5495539Y7605774D01*
X-5496028Y7609487D01*
X-5546776Y7718316D01*
X-5631684Y7803224D01*
X-5715965Y7842525D01*
X-5741302Y7870175D01*
X-5739666Y7907642D01*
X-5715965Y7931343D01*
X-5685860Y7945381D01*
X-5678946Y7950222D01*
X-5600222Y8028946D01*
X-5595381Y8035860D01*
X-5548103Y8137246D01*
X-5546030Y8144360D01*
X-5540209Y8188575D01*
X-5540000Y8191760D01*
X-5540000Y8290253D01*
X-5542855Y8297145D01*
X-5549747Y8300000D01*
X-6071000Y8300000D01*
X-6105648Y8314352D01*
X-6120000Y8349000D01*
X-6120000Y8451000D01*
X-6105648Y8485648D01*
X-6071000Y8500000D01*
X-5549747Y8500000D01*
X-5542855Y8502855D01*
X-5540000Y8509747D01*
X-5540000Y8608240D01*
X-5540209Y8611425D01*
X-5546030Y8655640D01*
X-5548103Y8662754D01*
X-5595381Y8764140D01*
X-5600222Y8771054D01*
X-5678946Y8849778D01*
X-5685860Y8854619D01*
X-5787246Y8901897D01*
X-5794360Y8903970D01*
X-5838575Y8909791D01*
X-5841760Y8910000D01*
X-5900164Y8910000D01*
X-5934812Y8924352D01*
X-5949164Y8959000D01*
X-5934812Y8993648D01*
X-5896776Y9031684D01*
X-5881574Y9064285D01*
X-5847612Y9137115D01*
X-5847611Y9137118D01*
X-5846028Y9140513D01*
X-5839500Y9190099D01*
X-5839501Y9609900D01*
X-5846028Y9659487D01*
X-5896776Y9768316D01*
X-5981684Y9853224D01*
X-6010296Y9866566D01*
X-6087115Y9902388D01*
X-6087118Y9902389D01*
X-6090513Y9903972D01*
X-6140099Y9910500D01*
X-6319887Y9910500D01*
X-6499900Y9910499D01*
X-6521011Y9907720D01*
X-6545773Y9904461D01*
X-6545774Y9904461D01*
X-6549487Y9903972D01*
X-6658316Y9853224D01*
X-6743224Y9768316D01*
X-6755248Y9742531D01*
X-6755591Y9741795D01*
X-6783241Y9716458D01*
X-6820708Y9718094D01*
X-6844409Y9741795D01*
X-6844752Y9742531D01*
X-6856776Y9768316D01*
X-6941684Y9853224D01*
X-6970296Y9866566D01*
X-7047115Y9902388D01*
X-7047118Y9902389D01*
X-7050513Y9903972D01*
X-7100099Y9910500D01*
X-7131994Y9910500D01*
X-7339367Y9910499D01*
X-7353841Y9913709D01*
X-7354009Y9913083D01*
X-7362461Y9915347D01*
X-7374273Y9920241D01*
X-7378136Y9922471D01*
X-7378137Y9922471D01*
X-7381850Y9924615D01*
X-7424202Y9932083D01*
X-7428364Y9933007D01*
X-7455904Y9940386D01*
X-7465752Y9943025D01*
X-7465754Y9943025D01*
X-7469892Y9944134D01*
X-7474157Y9943761D01*
X-7474159Y9943761D01*
X-7512729Y9940386D01*
X-7517000Y9940200D01*
X-9383000Y9940200D01*
X-9387271Y9940386D01*
X-9425841Y9943761D01*
X-9425843Y9943761D01*
X-9430108Y9944134D01*
X-9434246Y9943025D01*
X-9434248Y9943025D01*
X-9444096Y9940386D01*
X-9471636Y9933007D01*
X-9475798Y9932083D01*
X-9518150Y9924615D01*
X-9521863Y9922471D01*
X-9521864Y9922471D01*
X-9525727Y9920241D01*
X-9537539Y9915347D01*
X-9545993Y9913082D01*
X-9549504Y9910623D01*
X-9549505Y9910623D01*
X-9581204Y9888427D01*
X-9584809Y9886130D01*
X-9622050Y9864629D01*
X-9624804Y9861347D01*
X-9624805Y9861346D01*
X-9649688Y9831691D01*
X-9652576Y9828539D01*
X-10466263Y9014852D01*
X-10500911Y9000500D01*
X-10626881Y9000500D01*
X-10661529Y9014852D01*
X-10675881Y9049500D01*
X-10661529Y9084148D01*
X-10654104Y9090242D01*
X-10634819Y9103128D01*
X-10628128Y9109819D01*
X-10589285Y9167951D01*
X-10585663Y9176697D01*
X-10575468Y9227948D01*
X-10575000Y9232705D01*
X-10575000Y9665253D01*
X-10577855Y9672145D01*
X-10584747Y9675000D01*
X-13165253Y9675000D01*
X-13172145Y9672145D01*
X-13175000Y9665253D01*
X-13175000Y9232705D01*
X-13174532Y9227948D01*
X-13164337Y9176697D01*
X-13160715Y9167951D01*
X-13121872Y9109819D01*
X-13115181Y9103128D01*
X-13057049Y9064285D01*
X-13048303Y9060663D01*
X-12997052Y9050468D01*
X-12992295Y9050000D01*
X-12862016Y9050000D01*
X-12827368Y9035648D01*
X-12813016Y9001000D01*
X-12823139Y8971174D01*
X-12827698Y8965233D01*
X-12828925Y8962270D01*
X-12828927Y8962267D01*
X-12884459Y8828202D01*
X-12884460Y8828198D01*
X-12885687Y8825236D01*
X-12900500Y8712720D01*
X-12900500Y7887280D01*
X-12885687Y7774764D01*
X-12884460Y7771802D01*
X-12884459Y7771798D01*
X-12828927Y7637733D01*
X-12827698Y7634767D01*
X-12823140Y7628826D01*
X-12813435Y7592602D01*
X-12832188Y7560124D01*
X-12862016Y7550000D01*
X-12992295Y7550000D01*
X-12997052Y7549532D01*
X-13048303Y7539337D01*
X-13057049Y7535715D01*
X-13115181Y7496872D01*
X-13121872Y7490181D01*
X-13160715Y7432049D01*
X-13164337Y7423303D01*
X-13174532Y7372052D01*
X-13175000Y7367295D01*
X-13175000Y6934747D01*
X-13172145Y6927855D01*
X-13165253Y6925000D01*
X-10584747Y6925000D01*
X-10577855Y6927855D01*
X-10575000Y6934747D01*
X-10575000Y7367295D01*
X-10575468Y7372052D01*
X-10585663Y7423303D01*
X-10589285Y7432049D01*
X-10628128Y7490181D01*
X-10634819Y7496872D01*
X-10654104Y7509758D01*
X-10674940Y7540941D01*
X-10667623Y7577723D01*
X-10636440Y7598559D01*
X-10626881Y7599500D01*
X-9805252Y7599500D01*
X-9746769Y7611133D01*
X-9737340Y7617433D01*
X-9684459Y7652768D01*
X-9680448Y7655448D01*
X-9658694Y7688005D01*
X-9638815Y7717755D01*
X-9636133Y7721769D01*
X-9624500Y7780252D01*
X-9624500Y8489747D01*
X-9510000Y8489747D01*
X-9507145Y8482855D01*
X-9500253Y8480000D01*
X-9109747Y8480000D01*
X-9102855Y8482855D01*
X-9100000Y8489747D01*
X-8900000Y8489747D01*
X-8897145Y8482855D01*
X-8890253Y8480000D01*
X-8109747Y8480000D01*
X-8102855Y8482855D01*
X-8100000Y8489747D01*
X-8100000Y8850253D01*
X-8102855Y8857145D01*
X-8109747Y8860000D01*
X-8208240Y8860000D01*
X-8211425Y8859791D01*
X-8255640Y8853970D01*
X-8262754Y8851897D01*
X-8364140Y8804619D01*
X-8371054Y8799778D01*
X-8449778Y8721054D01*
X-8454618Y8714142D01*
X-8455591Y8712055D01*
X-8456953Y8710807D01*
X-8457079Y8710627D01*
X-8457119Y8710655D01*
X-8483241Y8686719D01*
X-8520709Y8688355D01*
X-8544409Y8712055D01*
X-8545382Y8714142D01*
X-8550222Y8721054D01*
X-8628946Y8799778D01*
X-8635860Y8804619D01*
X-8737246Y8851897D01*
X-8744360Y8853970D01*
X-8788575Y8859791D01*
X-8791760Y8860000D01*
X-8890253Y8860000D01*
X-8897145Y8857145D01*
X-8900000Y8850253D01*
X-8900000Y8489747D01*
X-9100000Y8489747D01*
X-9100000Y8850253D01*
X-9102855Y8857145D01*
X-9109747Y8860000D01*
X-9208240Y8860000D01*
X-9211425Y8859791D01*
X-9255640Y8853970D01*
X-9262754Y8851897D01*
X-9364140Y8804619D01*
X-9371054Y8799778D01*
X-9449778Y8721054D01*
X-9454619Y8714140D01*
X-9501897Y8612754D01*
X-9503970Y8605640D01*
X-9509791Y8561425D01*
X-9510000Y8558240D01*
X-9510000Y8489747D01*
X-9624500Y8489747D01*
X-9624500Y8819748D01*
X-9625591Y8825236D01*
X-9626540Y8830001D01*
X-9631774Y8856315D01*
X-9624458Y8893095D01*
X-9618364Y8900521D01*
X-9273437Y9245448D01*
X-9238789Y9259800D01*
X-7809499Y9259800D01*
X-7774851Y9245448D01*
X-7760499Y9210800D01*
X-7760499Y9190100D01*
X-7753972Y9140513D01*
X-7703224Y9031684D01*
X-7618316Y8946776D01*
X-7592138Y8934569D01*
X-7512885Y8897612D01*
X-7512882Y8897611D01*
X-7509487Y8896028D01*
X-7459901Y8889500D01*
X-7400336Y8889500D01*
X-7365688Y8875148D01*
X-7351336Y8840500D01*
X-7365688Y8805852D01*
X-7403224Y8768316D01*
X-7405035Y8764432D01*
X-7442525Y8684035D01*
X-7470175Y8658698D01*
X-7507642Y8660334D01*
X-7531343Y8684035D01*
X-7545381Y8714140D01*
X-7550222Y8721054D01*
X-7628946Y8799778D01*
X-7635860Y8804619D01*
X-7737246Y8851897D01*
X-7744360Y8853970D01*
X-7788575Y8859791D01*
X-7791760Y8860000D01*
X-7890253Y8860000D01*
X-7897145Y8857145D01*
X-7900000Y8850253D01*
X-7900000Y8329000D01*
X-7914352Y8294352D01*
X-7949000Y8280000D01*
X-9500253Y8280000D01*
X-9507145Y8277145D01*
X-9510000Y8270253D01*
X-9510000Y8201760D01*
X-9509791Y8198575D01*
X-9503970Y8154360D01*
X-9501897Y8147246D01*
X-9454619Y8045860D01*
X-9449778Y8038946D01*
X-9371054Y7960222D01*
X-9364142Y7955382D01*
X-9341202Y7944685D01*
X-9315866Y7917035D01*
X-9317502Y7879567D01*
X-9341203Y7855867D01*
X-9368316Y7843224D01*
X-9453224Y7758316D01*
X-9462785Y7737813D01*
X-9502388Y7652885D01*
X-9502389Y7652882D01*
X-9503972Y7649487D01*
X-9510500Y7599901D01*
X-9510499Y7240100D01*
X-9503972Y7190513D01*
X-9453224Y7081684D01*
X-9368316Y6996776D01*
X-9364429Y6994964D01*
X-9361094Y6992628D01*
X-9340944Y6960998D01*
X-9340200Y6952490D01*
X-9340200Y6877319D01*
X-9354522Y6842701D01*
X-9419730Y6777379D01*
X-9421509Y6773739D01*
X-9421510Y6773738D01*
X-9428762Y6758902D01*
X-9470608Y6673294D01*
X-9480500Y6605486D01*
X-9480500Y6405911D01*
X-9494852Y6371263D01*
X-10013539Y5852576D01*
X-10016690Y5849689D01*
X-10049629Y5822050D01*
X-10060925Y5802484D01*
X-10071130Y5784809D01*
X-10073427Y5781204D01*
X-10080710Y5770802D01*
X-10098082Y5745993D01*
X-10099191Y5741854D01*
X-10100347Y5737540D01*
X-10105241Y5725727D01*
X-10107471Y5721864D01*
X-10109615Y5718150D01*
X-10116984Y5676357D01*
X-10117082Y5675803D01*
X-10118008Y5671630D01*
X-10123087Y5652674D01*
X-10129134Y5630108D01*
X-10128761Y5625843D01*
X-10128761Y5625841D01*
X-10125386Y5587271D01*
X-10125200Y5583000D01*
X-10125200Y5203142D01*
X-10139552Y5168494D01*
X-10174200Y5154142D01*
X-10176993Y5154279D01*
X-10182145Y5152145D01*
X-10185000Y5145253D01*
X-10185000Y5022411D01*
X-10385000Y5021396D01*
X-10385000Y5145253D01*
X-10387855Y5152145D01*
X-10392262Y5153971D01*
X-10462563Y5139987D01*
X-10471314Y5136363D01*
X-10507777Y5111999D01*
X-10544559Y5104682D01*
X-10562223Y5111999D01*
X-10598686Y5136363D01*
X-10607437Y5139987D01*
X-10677738Y5153971D01*
X-10682145Y5152145D01*
X-10685000Y5145253D01*
X-10685000Y5019873D01*
X-10885000Y5018858D01*
X-10885000Y5145253D01*
X-10887855Y5152145D01*
X-10892262Y5153971D01*
X-10962563Y5139987D01*
X-10971314Y5136363D01*
X-11054253Y5080944D01*
X-11060944Y5074253D01*
X-11084221Y5039417D01*
X-11115404Y5018581D01*
X-11124714Y5017641D01*
X-13661025Y5004766D01*
X-13695745Y5018941D01*
X-13710272Y5053516D01*
X-13705682Y5074473D01*
X-13687516Y5113429D01*
X-13687515Y5113432D01*
X-13685932Y5116827D01*
X-13679500Y5165684D01*
X-13679500Y5514316D01*
X-13685932Y5563173D01*
X-13687515Y5566568D01*
X-13687516Y5566571D01*
X-13734124Y5666520D01*
X-13735935Y5670404D01*
X-13819596Y5754065D01*
X-13926827Y5804068D01*
X-13926721Y5804295D01*
X-13954304Y5826432D01*
X-13958386Y5863712D01*
X-13934912Y5892960D01*
X-13928160Y5895757D01*
X-13926827Y5895932D01*
X-13819596Y5945935D01*
X-13735935Y6029596D01*
X-13711646Y6081684D01*
X-13687516Y6133429D01*
X-13687515Y6133432D01*
X-13685932Y6136827D01*
X-13679500Y6185684D01*
X-13679500Y6282705D01*
X-13175000Y6282705D01*
X-13174532Y6277948D01*
X-13164337Y6226697D01*
X-13160715Y6217951D01*
X-13121872Y6159819D01*
X-13115181Y6153128D01*
X-13057049Y6114285D01*
X-13048303Y6110663D01*
X-12997052Y6100468D01*
X-12992295Y6100000D01*
X-11984747Y6100000D01*
X-11977855Y6102855D01*
X-11975000Y6109747D01*
X-11775000Y6109747D01*
X-11772145Y6102855D01*
X-11765253Y6100000D01*
X-10757705Y6100000D01*
X-10752948Y6100468D01*
X-10701697Y6110663D01*
X-10692951Y6114285D01*
X-10634819Y6153128D01*
X-10628128Y6159819D01*
X-10589285Y6217951D01*
X-10585663Y6226697D01*
X-10575468Y6277948D01*
X-10575000Y6282705D01*
X-10575000Y6715253D01*
X-10577855Y6722145D01*
X-10584747Y6725000D01*
X-11765253Y6725000D01*
X-11772145Y6722145D01*
X-11775000Y6715253D01*
X-11775000Y6109747D01*
X-11975000Y6109747D01*
X-11975000Y6715253D01*
X-11977855Y6722145D01*
X-11984747Y6725000D01*
X-13165253Y6725000D01*
X-13172145Y6722145D01*
X-13175000Y6715253D01*
X-13175000Y6282705D01*
X-13679500Y6282705D01*
X-13679500Y6534316D01*
X-13685932Y6583173D01*
X-13687515Y6586568D01*
X-13687516Y6586571D01*
X-13734124Y6686520D01*
X-13735935Y6690404D01*
X-13780883Y6735352D01*
X-13795235Y6770000D01*
X-13780883Y6804648D01*
X-13735935Y6849596D01*
X-13712457Y6899945D01*
X-13687516Y6953429D01*
X-13687515Y6953432D01*
X-13685932Y6956827D01*
X-13679500Y7005684D01*
X-13679500Y7354316D01*
X-13685932Y7403173D01*
X-13687515Y7406568D01*
X-13687516Y7406571D01*
X-13734124Y7506520D01*
X-13735935Y7510404D01*
X-13819596Y7594065D01*
X-13926827Y7644068D01*
X-13926721Y7644295D01*
X-13954304Y7666432D01*
X-13958386Y7703712D01*
X-13934912Y7732960D01*
X-13928160Y7735757D01*
X-13926827Y7735932D01*
X-13819596Y7785935D01*
X-13735935Y7869596D01*
X-13711972Y7920984D01*
X-13687516Y7973429D01*
X-13687515Y7973432D01*
X-13685932Y7976827D01*
X-13679500Y8025684D01*
X-13679500Y8374316D01*
X-13685932Y8423173D01*
X-13687515Y8426568D01*
X-13687516Y8426571D01*
X-13734124Y8526520D01*
X-13735935Y8530404D01*
X-13819596Y8614065D01*
X-13869708Y8637433D01*
X-13923429Y8662484D01*
X-13923432Y8662485D01*
X-13926827Y8664068D01*
X-13975684Y8670500D01*
X-14424316Y8670500D01*
X-14453958Y8666598D01*
X-14469460Y8664557D01*
X-14469461Y8664557D01*
X-14473173Y8664068D01*
X-14476567Y8662485D01*
X-14476568Y8662485D01*
X-14530291Y8637433D01*
X-14567759Y8635797D01*
X-14595409Y8661133D01*
X-14600000Y8681842D01*
X-14600000Y9825235D01*
X-14585648Y9859883D01*
X-14575935Y9869596D01*
X-14568870Y9884747D01*
X-13175000Y9884747D01*
X-13172145Y9877855D01*
X-13165253Y9875000D01*
X-11984747Y9875000D01*
X-11977855Y9877855D01*
X-11975000Y9884747D01*
X-11775000Y9884747D01*
X-11772145Y9877855D01*
X-11765253Y9875000D01*
X-10584747Y9875000D01*
X-10577855Y9877855D01*
X-10575000Y9884747D01*
X-10575000Y10317295D01*
X-10575468Y10322052D01*
X-10585663Y10373303D01*
X-10589285Y10382049D01*
X-10628128Y10440181D01*
X-10634819Y10446872D01*
X-10692951Y10485715D01*
X-10701697Y10489337D01*
X-10752948Y10499532D01*
X-10757705Y10500000D01*
X-11765253Y10500000D01*
X-11772145Y10497145D01*
X-11775000Y10490253D01*
X-11775000Y9884747D01*
X-11975000Y9884747D01*
X-11975000Y10490253D01*
X-11977855Y10497145D01*
X-11984747Y10500000D01*
X-12992295Y10500000D01*
X-12997052Y10499532D01*
X-13048303Y10489337D01*
X-13057049Y10485715D01*
X-13115181Y10446872D01*
X-13121872Y10440181D01*
X-13160715Y10382049D01*
X-13164337Y10373303D01*
X-13174532Y10322052D01*
X-13175000Y10317295D01*
X-13175000Y9884747D01*
X-14568870Y9884747D01*
X-14554601Y9915347D01*
X-14527516Y9973429D01*
X-14527515Y9973432D01*
X-14525932Y9976827D01*
X-14519500Y10025684D01*
X-14519500Y10474316D01*
X-14525932Y10523173D01*
X-14529018Y10529791D01*
X-14530656Y10567256D01*
X-14505321Y10594908D01*
X-14484610Y10599500D01*
X-4799000Y10599500D01*
X-4764352Y10585148D01*
G37*
%TD.AperFunction*%
%TD*%
M02*
