%TF.GenerationSoftware,KiCad,Pcbnew,(6.0.5)*%
%TF.CreationDate,2022-11-18T19:02:11-05:00*%
%TF.ProjectId,SimpleMelt-Hardware,53696d70-6c65-44d6-956c-742d48617264,rev?*%
%TF.SameCoordinates,Original*%
%TF.FileFunction,Legend,Top*%
%TF.FilePolarity,Positive*%
%FSLAX46Y46*%
G04 Gerber Fmt 4.6, Leading zero omitted, Abs format (unit mm)*
G04 Created by KiCad (PCBNEW (6.0.5)) date 2022-11-18 19:02:11*
%MOMM*%
%LPD*%
G01*
G04 APERTURE LIST*
G04 Aperture macros list*
%AMRoundRect*
0 Rectangle with rounded corners*
0 $1 Rounding radius*
0 $2 $3 $4 $5 $6 $7 $8 $9 X,Y pos of 4 corners*
0 Add a 4 corners polygon primitive as box body*
4,1,4,$2,$3,$4,$5,$6,$7,$8,$9,$2,$3,0*
0 Add four circle primitives for the rounded corners*
1,1,$1+$1,$2,$3*
1,1,$1+$1,$4,$5*
1,1,$1+$1,$6,$7*
1,1,$1+$1,$8,$9*
0 Add four rect primitives between the rounded corners*
20,1,$1+$1,$2,$3,$4,$5,0*
20,1,$1+$1,$4,$5,$6,$7,0*
20,1,$1+$1,$6,$7,$8,$9,0*
20,1,$1+$1,$8,$9,$2,$3,0*%
%AMRotRect*
0 Rectangle, with rotation*
0 The origin of the aperture is its center*
0 $1 length*
0 $2 width*
0 $3 Rotation angle, in degrees counterclockwise*
0 Add horizontal line*
21,1,$1,$2,0,0,$3*%
%AMFreePoly0*
4,1,13,0.500000,-0.500000,0.000000,-0.500000,-0.095671,-0.480970,-0.176777,-0.426777,-0.230970,-0.345671,-0.250000,-0.250000,-0.250000,0.250000,-0.230970,0.345671,-0.176777,0.426777,-0.095671,0.480970,0.000000,0.500000,0.500000,0.500000,0.500000,-0.500000,0.500000,-0.500000,$1*%
%AMFreePoly1*
4,1,13,0.095671,0.480970,0.176777,0.426777,0.230970,0.345671,0.250000,0.250000,0.250000,-0.250000,0.230970,-0.345671,0.176777,-0.426777,0.095671,-0.480970,0.000000,-0.500000,-0.500000,-0.500000,-0.500000,0.500000,0.000000,0.500000,0.095671,0.480970,0.095671,0.480970,$1*%
G04 Aperture macros list end*
%ADD10C,0.120000*%
%ADD11C,0.200000*%
%ADD12C,0.100000*%
%ADD13RoundRect,0.250000X-0.312500X-0.625000X0.312500X-0.625000X0.312500X0.625000X-0.312500X0.625000X0*%
%ADD14RoundRect,0.135000X0.185000X-0.135000X0.185000X0.135000X-0.185000X0.135000X-0.185000X-0.135000X0*%
%ADD15RoundRect,0.135000X0.135000X0.185000X-0.135000X0.185000X-0.135000X-0.185000X0.135000X-0.185000X0*%
%ADD16RoundRect,0.135000X-0.135000X-0.185000X0.135000X-0.185000X0.135000X0.185000X-0.135000X0.185000X0*%
%ADD17FreePoly0,270.000000*%
%ADD18FreePoly1,270.000000*%
%ADD19RoundRect,0.140000X-0.170000X0.140000X-0.170000X-0.140000X0.170000X-0.140000X0.170000X0.140000X0*%
%ADD20R,1.000000X1.000000*%
%ADD21RoundRect,0.218750X-0.218750X-0.256250X0.218750X-0.256250X0.218750X0.256250X-0.218750X0.256250X0*%
%ADD22RoundRect,0.150000X-0.587500X-0.150000X0.587500X-0.150000X0.587500X0.150000X-0.587500X0.150000X0*%
%ADD23RoundRect,0.135000X-0.185000X0.135000X-0.185000X-0.135000X0.185000X-0.135000X0.185000X0.135000X0*%
%ADD24RoundRect,0.140000X-0.140000X-0.170000X0.140000X-0.170000X0.140000X0.170000X-0.140000X0.170000X0*%
%ADD25R,1.700000X1.700000*%
%ADD26O,1.700000X1.700000*%
%ADD27RoundRect,0.225000X0.250000X-0.225000X0.250000X0.225000X-0.250000X0.225000X-0.250000X-0.225000X0*%
%ADD28RoundRect,0.140000X0.140000X0.170000X-0.140000X0.170000X-0.140000X-0.170000X0.140000X-0.170000X0*%
%ADD29RoundRect,0.140000X0.170000X-0.140000X0.170000X0.140000X-0.170000X0.140000X-0.170000X-0.140000X0*%
%ADD30C,0.600000*%
%ADD31R,1.160000X0.600000*%
%ADD32R,1.160000X0.300000*%
%ADD33O,2.000000X0.900000*%
%ADD34O,1.700000X0.900000*%
%ADD35RoundRect,0.050000X-0.387500X-0.050000X0.387500X-0.050000X0.387500X0.050000X-0.387500X0.050000X0*%
%ADD36RoundRect,0.050000X-0.050000X-0.387500X0.050000X-0.387500X0.050000X0.387500X-0.050000X0.387500X0*%
%ADD37R,4.000000X4.000000*%
%ADD38RoundRect,0.150000X0.587500X0.150000X-0.587500X0.150000X-0.587500X-0.150000X0.587500X-0.150000X0*%
%ADD39RoundRect,0.212500X0.887500X-0.212500X0.887500X0.212500X-0.887500X0.212500X-0.887500X-0.212500X0*%
%ADD40RoundRect,0.075000X-0.350000X-0.075000X0.350000X-0.075000X0.350000X0.075000X-0.350000X0.075000X0*%
%ADD41RoundRect,0.075000X-0.075000X-0.350000X0.075000X-0.350000X0.075000X0.350000X-0.075000X0.350000X0*%
%ADD42R,2.650000X2.650000*%
%ADD43RoundRect,0.140000X0.219203X0.021213X0.021213X0.219203X-0.219203X-0.021213X-0.021213X-0.219203X0*%
%ADD44C,1.778000*%
%ADD45RotRect,1.000000X0.300000X135.000000*%
%ADD46RotRect,0.300000X1.000000X135.000000*%
%ADD47R,0.600000X1.160000*%
%ADD48R,0.300000X1.160000*%
%ADD49O,0.900000X2.000000*%
%ADD50O,0.900000X1.700000*%
%ADD51RoundRect,0.062500X0.337500X0.062500X-0.337500X0.062500X-0.337500X-0.062500X0.337500X-0.062500X0*%
%ADD52RoundRect,0.062500X0.062500X0.337500X-0.062500X0.337500X-0.062500X-0.337500X0.062500X-0.337500X0*%
%ADD53R,3.350000X3.350000*%
%ADD54R,0.800000X0.900000*%
%ADD55RoundRect,0.147500X0.172500X-0.147500X0.172500X0.147500X-0.172500X0.147500X-0.172500X-0.147500X0*%
%ADD56RoundRect,0.150000X-0.150000X0.512500X-0.150000X-0.512500X0.150000X-0.512500X0.150000X0.512500X0*%
%ADD57FreePoly0,90.000000*%
%ADD58FreePoly1,90.000000*%
%ADD59RoundRect,0.150000X-0.625000X0.150000X-0.625000X-0.150000X0.625000X-0.150000X0.625000X0.150000X0*%
%ADD60RoundRect,0.250000X-0.650000X0.350000X-0.650000X-0.350000X0.650000X-0.350000X0.650000X0.350000X0*%
%ADD61R,1.000000X1.050000*%
%ADD62R,1.050000X2.200000*%
%ADD63RoundRect,0.147500X0.147500X0.172500X-0.147500X0.172500X-0.147500X-0.172500X0.147500X-0.172500X0*%
%ADD64R,0.900000X0.800000*%
%ADD65RoundRect,0.062500X-0.062500X0.337500X-0.062500X-0.337500X0.062500X-0.337500X0.062500X0.337500X0*%
%ADD66RoundRect,0.062500X-0.337500X0.062500X-0.337500X-0.062500X0.337500X-0.062500X0.337500X0.062500X0*%
%ADD67R,3.700000X3.700000*%
%ADD68RoundRect,0.150000X0.625000X-0.150000X0.625000X0.150000X-0.625000X0.150000X-0.625000X-0.150000X0*%
%ADD69RoundRect,0.250000X0.650000X-0.350000X0.650000X0.350000X-0.650000X0.350000X-0.650000X-0.350000X0*%
G04 APERTURE END LIST*
D10*
X4600000Y8200000D02*
X14400000Y8200000D01*
X14400000Y8200000D02*
X14400000Y-1600000D01*
X14400000Y-1600000D02*
X4600000Y-1600000D01*
X4600000Y-1600000D02*
X4600000Y8200000D01*
X-22000000Y2250000D02*
X-15300000Y2250000D01*
X-15300000Y2250000D02*
X-15300000Y8950000D01*
X-15300000Y8950000D02*
X-22000000Y8950000D01*
X-22000000Y8950000D02*
X-22000000Y2250000D01*
X-5100000Y-7600000D02*
X5100000Y-7600000D01*
X5100000Y-7600000D02*
X5100000Y-10200000D01*
X5100000Y-10200000D02*
X-5100000Y-10200000D01*
X-5100000Y-10200000D02*
X-5100000Y-7600000D01*
X23200000Y-10900000D02*
X15600000Y-10900000D01*
X15600000Y-10900000D02*
X15600000Y-3300000D01*
X15600000Y-3300000D02*
X23200000Y-3300000D01*
X23200000Y-3300000D02*
X23200000Y-10900000D01*
X-7075000Y9900000D02*
X-14675000Y9900000D01*
X-14675000Y9900000D02*
X-14675000Y2300000D01*
X-14675000Y2300000D02*
X-7075000Y2300000D01*
X-7075000Y2300000D02*
X-7075000Y9900000D01*
X-5100000Y10200000D02*
X5100000Y10200000D01*
X5100000Y10200000D02*
X5100000Y7600000D01*
X5100000Y7600000D02*
X-5100000Y7600000D01*
X-5100000Y7600000D02*
X-5100000Y10200000D01*
D11*
X16490476Y-1052380D02*
X16823809Y-2052380D01*
X17157142Y-1052380D01*
X18014285Y-2052380D02*
X17442857Y-2052380D01*
X17728571Y-2052380D02*
X17728571Y-1052380D01*
X17633333Y-1195238D01*
X17538095Y-1290476D01*
X17442857Y-1338095D01*
X-13271428Y-1100000D02*
X-13347619Y-1061904D01*
X-13461904Y-1061904D01*
X-13576190Y-1100000D01*
X-13652380Y-1176190D01*
X-13690476Y-1252380D01*
X-13728571Y-1404761D01*
X-13728571Y-1519047D01*
X-13690476Y-1671428D01*
X-13652380Y-1747619D01*
X-13576190Y-1823809D01*
X-13461904Y-1861904D01*
X-13385714Y-1861904D01*
X-13271428Y-1823809D01*
X-13233333Y-1785714D01*
X-13233333Y-1519047D01*
X-13385714Y-1519047D01*
X-12738095Y-1061904D02*
X-12661904Y-1061904D01*
X-12585714Y-1100000D01*
X-12547619Y-1138095D01*
X-12509523Y-1214285D01*
X-12471428Y-1366666D01*
X-12471428Y-1557142D01*
X-12509523Y-1709523D01*
X-12547619Y-1785714D01*
X-12585714Y-1823809D01*
X-12661904Y-1861904D01*
X-12738095Y-1861904D01*
X-12814285Y-1823809D01*
X-12852380Y-1785714D01*
X-12890476Y-1709523D01*
X-12928571Y-1557142D01*
X-12928571Y-1366666D01*
X-12890476Y-1214285D01*
X-12852380Y-1138095D01*
X-12814285Y-1100000D01*
X-12738095Y-1061904D01*
X21052380Y4257142D02*
X21166666Y4219047D01*
X21204761Y4180952D01*
X21242857Y4104761D01*
X21242857Y3990476D01*
X21204761Y3914285D01*
X21166666Y3876190D01*
X21090476Y3838095D01*
X20785714Y3838095D01*
X20785714Y4638095D01*
X21052380Y4638095D01*
X21128571Y4600000D01*
X21166666Y4561904D01*
X21204761Y4485714D01*
X21204761Y4409523D01*
X21166666Y4333333D01*
X21128571Y4295238D01*
X21052380Y4257142D01*
X20785714Y4257142D01*
X21471428Y4638095D02*
X21928571Y4638095D01*
X21700000Y3838095D02*
X21700000Y4638095D01*
X18209523Y4257142D02*
X18476190Y4257142D01*
X18590476Y3838095D02*
X18209523Y3838095D01*
X18209523Y4638095D01*
X18590476Y4638095D01*
X18933333Y3838095D02*
X18933333Y4638095D01*
X19390476Y3838095D01*
X19390476Y4638095D01*
%TO.C,C12*%
X10185714Y7414285D02*
X10147619Y7376190D01*
X10033333Y7338095D01*
X9957142Y7338095D01*
X9842857Y7376190D01*
X9766666Y7452380D01*
X9728571Y7528571D01*
X9690476Y7680952D01*
X9690476Y7795238D01*
X9728571Y7947619D01*
X9766666Y8023809D01*
X9842857Y8100000D01*
X9957142Y8138095D01*
X10033333Y8138095D01*
X10147619Y8100000D01*
X10185714Y8061904D01*
X10947619Y7338095D02*
X10490476Y7338095D01*
X10719047Y7338095D02*
X10719047Y8138095D01*
X10642857Y8023809D01*
X10566666Y7947619D01*
X10490476Y7909523D01*
X11252380Y8061904D02*
X11290476Y8100000D01*
X11366666Y8138095D01*
X11557142Y8138095D01*
X11633333Y8100000D01*
X11671428Y8061904D01*
X11709523Y7985714D01*
X11709523Y7909523D01*
X11671428Y7795238D01*
X11214285Y7338095D01*
X11709523Y7338095D01*
%TO.C,R41*%
X22085714Y8538095D02*
X21819047Y8919047D01*
X21628571Y8538095D02*
X21628571Y9338095D01*
X21933333Y9338095D01*
X22009523Y9300000D01*
X22047619Y9261904D01*
X22085714Y9185714D01*
X22085714Y9071428D01*
X22047619Y8995238D01*
X22009523Y8957142D01*
X21933333Y8919047D01*
X21628571Y8919047D01*
X22771428Y9071428D02*
X22771428Y8538095D01*
X22580952Y9376190D02*
X22390476Y8804761D01*
X22885714Y8804761D01*
X23609523Y8538095D02*
X23152380Y8538095D01*
X23380952Y8538095D02*
X23380952Y9338095D01*
X23304761Y9223809D01*
X23228571Y9147619D01*
X23152380Y9109523D01*
%TO.C,C62*%
X-4614285Y6639285D02*
X-4652380Y6601190D01*
X-4766666Y6563095D01*
X-4842857Y6563095D01*
X-4957142Y6601190D01*
X-5033333Y6677380D01*
X-5071428Y6753571D01*
X-5109523Y6905952D01*
X-5109523Y7020238D01*
X-5071428Y7172619D01*
X-5033333Y7248809D01*
X-4957142Y7325000D01*
X-4842857Y7363095D01*
X-4766666Y7363095D01*
X-4652380Y7325000D01*
X-4614285Y7286904D01*
X-3928571Y7363095D02*
X-4080952Y7363095D01*
X-4157142Y7325000D01*
X-4195238Y7286904D01*
X-4271428Y7172619D01*
X-4309523Y7020238D01*
X-4309523Y6715476D01*
X-4271428Y6639285D01*
X-4233333Y6601190D01*
X-4157142Y6563095D01*
X-4004761Y6563095D01*
X-3928571Y6601190D01*
X-3890476Y6639285D01*
X-3852380Y6715476D01*
X-3852380Y6905952D01*
X-3890476Y6982142D01*
X-3928571Y7020238D01*
X-4004761Y7058333D01*
X-4157142Y7058333D01*
X-4233333Y7020238D01*
X-4271428Y6982142D01*
X-4309523Y6905952D01*
X-3547619Y7286904D02*
X-3509523Y7325000D01*
X-3433333Y7363095D01*
X-3242857Y7363095D01*
X-3166666Y7325000D01*
X-3128571Y7286904D01*
X-3090476Y7210714D01*
X-3090476Y7134523D01*
X-3128571Y7020238D01*
X-3585714Y6563095D01*
X-3090476Y6563095D01*
%TO.C,R56*%
X4161904Y-4424285D02*
X3780952Y-4690952D01*
X4161904Y-4881428D02*
X3361904Y-4881428D01*
X3361904Y-4576666D01*
X3400000Y-4500476D01*
X3438095Y-4462380D01*
X3514285Y-4424285D01*
X3628571Y-4424285D01*
X3704761Y-4462380D01*
X3742857Y-4500476D01*
X3780952Y-4576666D01*
X3780952Y-4881428D01*
X3361904Y-3700476D02*
X3361904Y-4081428D01*
X3742857Y-4119523D01*
X3704761Y-4081428D01*
X3666666Y-4005238D01*
X3666666Y-3814761D01*
X3704761Y-3738571D01*
X3742857Y-3700476D01*
X3819047Y-3662380D01*
X4009523Y-3662380D01*
X4085714Y-3700476D01*
X4123809Y-3738571D01*
X4161904Y-3814761D01*
X4161904Y-4005238D01*
X4123809Y-4081428D01*
X4085714Y-4119523D01*
X3361904Y-2976666D02*
X3361904Y-3129047D01*
X3400000Y-3205238D01*
X3438095Y-3243333D01*
X3552380Y-3319523D01*
X3704761Y-3357619D01*
X4009523Y-3357619D01*
X4085714Y-3319523D01*
X4123809Y-3281428D01*
X4161904Y-3205238D01*
X4161904Y-3052857D01*
X4123809Y-2976666D01*
X4085714Y-2938571D01*
X4009523Y-2900476D01*
X3819047Y-2900476D01*
X3742857Y-2938571D01*
X3704761Y-2976666D01*
X3666666Y-3052857D01*
X3666666Y-3205238D01*
X3704761Y-3281428D01*
X3742857Y-3319523D01*
X3819047Y-3357619D01*
%TO.C,C20*%
X-10614285Y-7514285D02*
X-10576190Y-7552380D01*
X-10538095Y-7666666D01*
X-10538095Y-7742857D01*
X-10576190Y-7857142D01*
X-10652380Y-7933333D01*
X-10728571Y-7971428D01*
X-10880952Y-8009523D01*
X-10995238Y-8009523D01*
X-11147619Y-7971428D01*
X-11223809Y-7933333D01*
X-11300000Y-7857142D01*
X-11338095Y-7742857D01*
X-11338095Y-7666666D01*
X-11300000Y-7552380D01*
X-11261904Y-7514285D01*
X-11261904Y-7209523D02*
X-11300000Y-7171428D01*
X-11338095Y-7095238D01*
X-11338095Y-6904761D01*
X-11300000Y-6828571D01*
X-11261904Y-6790476D01*
X-11185714Y-6752380D01*
X-11109523Y-6752380D01*
X-10995238Y-6790476D01*
X-10538095Y-7247619D01*
X-10538095Y-6752380D01*
X-11338095Y-6257142D02*
X-11338095Y-6180952D01*
X-11300000Y-6104761D01*
X-11261904Y-6066666D01*
X-11185714Y-6028571D01*
X-11033333Y-5990476D01*
X-10842857Y-5990476D01*
X-10690476Y-6028571D01*
X-10614285Y-6066666D01*
X-10576190Y-6104761D01*
X-10538095Y-6180952D01*
X-10538095Y-6257142D01*
X-10576190Y-6333333D01*
X-10614285Y-6371428D01*
X-10690476Y-6409523D01*
X-10842857Y-6447619D01*
X-11033333Y-6447619D01*
X-11185714Y-6409523D01*
X-11261904Y-6371428D01*
X-11300000Y-6333333D01*
X-11338095Y-6257142D01*
%TO.C,C4*%
X7866666Y-2985714D02*
X7828571Y-3023809D01*
X7714285Y-3061904D01*
X7638095Y-3061904D01*
X7523809Y-3023809D01*
X7447619Y-2947619D01*
X7409523Y-2871428D01*
X7371428Y-2719047D01*
X7371428Y-2604761D01*
X7409523Y-2452380D01*
X7447619Y-2376190D01*
X7523809Y-2300000D01*
X7638095Y-2261904D01*
X7714285Y-2261904D01*
X7828571Y-2300000D01*
X7866666Y-2338095D01*
X8552380Y-2528571D02*
X8552380Y-3061904D01*
X8361904Y-2223809D02*
X8171428Y-2795238D01*
X8666666Y-2795238D01*
%TO.C,R54*%
X28661904Y585714D02*
X28280952Y319047D01*
X28661904Y128571D02*
X27861904Y128571D01*
X27861904Y433333D01*
X27900000Y509523D01*
X27938095Y547619D01*
X28014285Y585714D01*
X28128571Y585714D01*
X28204761Y547619D01*
X28242857Y509523D01*
X28280952Y433333D01*
X28280952Y128571D01*
X27861904Y1309523D02*
X27861904Y928571D01*
X28242857Y890476D01*
X28204761Y928571D01*
X28166666Y1004761D01*
X28166666Y1195238D01*
X28204761Y1271428D01*
X28242857Y1309523D01*
X28319047Y1347619D01*
X28509523Y1347619D01*
X28585714Y1309523D01*
X28623809Y1271428D01*
X28661904Y1195238D01*
X28661904Y1004761D01*
X28623809Y928571D01*
X28585714Y890476D01*
X28128571Y2033333D02*
X28661904Y2033333D01*
X27823809Y1842857D02*
X28395238Y1652380D01*
X28395238Y2147619D01*
%TO.C,C7*%
X14285714Y146666D02*
X14323809Y108571D01*
X14361904Y-5714D01*
X14361904Y-81904D01*
X14323809Y-196190D01*
X14247619Y-272380D01*
X14171428Y-310476D01*
X14019047Y-348571D01*
X13904761Y-348571D01*
X13752380Y-310476D01*
X13676190Y-272380D01*
X13600000Y-196190D01*
X13561904Y-81904D01*
X13561904Y-5714D01*
X13600000Y108571D01*
X13638095Y146666D01*
X13561904Y413333D02*
X13561904Y946666D01*
X14361904Y603809D01*
%TO.C,C13*%
X1285714Y5714285D02*
X1247619Y5676190D01*
X1133333Y5638095D01*
X1057142Y5638095D01*
X942857Y5676190D01*
X866666Y5752380D01*
X828571Y5828571D01*
X790476Y5980952D01*
X790476Y6095238D01*
X828571Y6247619D01*
X866666Y6323809D01*
X942857Y6400000D01*
X1057142Y6438095D01*
X1133333Y6438095D01*
X1247619Y6400000D01*
X1285714Y6361904D01*
X2047619Y5638095D02*
X1590476Y5638095D01*
X1819047Y5638095D02*
X1819047Y6438095D01*
X1742857Y6323809D01*
X1666666Y6247619D01*
X1590476Y6209523D01*
X2314285Y6438095D02*
X2809523Y6438095D01*
X2542857Y6133333D01*
X2657142Y6133333D01*
X2733333Y6095238D01*
X2771428Y6057142D01*
X2809523Y5980952D01*
X2809523Y5790476D01*
X2771428Y5714285D01*
X2733333Y5676190D01*
X2657142Y5638095D01*
X2428571Y5638095D01*
X2352380Y5676190D01*
X2314285Y5714285D01*
%TO.C,C61*%
X-4414285Y2814285D02*
X-4452380Y2776190D01*
X-4566666Y2738095D01*
X-4642857Y2738095D01*
X-4757142Y2776190D01*
X-4833333Y2852380D01*
X-4871428Y2928571D01*
X-4909523Y3080952D01*
X-4909523Y3195238D01*
X-4871428Y3347619D01*
X-4833333Y3423809D01*
X-4757142Y3500000D01*
X-4642857Y3538095D01*
X-4566666Y3538095D01*
X-4452380Y3500000D01*
X-4414285Y3461904D01*
X-3728571Y3538095D02*
X-3880952Y3538095D01*
X-3957142Y3500000D01*
X-3995238Y3461904D01*
X-4071428Y3347619D01*
X-4109523Y3195238D01*
X-4109523Y2890476D01*
X-4071428Y2814285D01*
X-4033333Y2776190D01*
X-3957142Y2738095D01*
X-3804761Y2738095D01*
X-3728571Y2776190D01*
X-3690476Y2814285D01*
X-3652380Y2890476D01*
X-3652380Y3080952D01*
X-3690476Y3157142D01*
X-3728571Y3195238D01*
X-3804761Y3233333D01*
X-3957142Y3233333D01*
X-4033333Y3195238D01*
X-4071428Y3157142D01*
X-4109523Y3080952D01*
X-2890476Y2738095D02*
X-3347619Y2738095D01*
X-3119047Y2738095D02*
X-3119047Y3538095D01*
X-3195238Y3423809D01*
X-3271428Y3347619D01*
X-3347619Y3309523D01*
%TO.C,R36*%
X-14438095Y-3214285D02*
X-14819047Y-3480952D01*
X-14438095Y-3671428D02*
X-15238095Y-3671428D01*
X-15238095Y-3366666D01*
X-15200000Y-3290476D01*
X-15161904Y-3252380D01*
X-15085714Y-3214285D01*
X-14971428Y-3214285D01*
X-14895238Y-3252380D01*
X-14857142Y-3290476D01*
X-14819047Y-3366666D01*
X-14819047Y-3671428D01*
X-15238095Y-2947619D02*
X-15238095Y-2452380D01*
X-14933333Y-2719047D01*
X-14933333Y-2604761D01*
X-14895238Y-2528571D01*
X-14857142Y-2490476D01*
X-14780952Y-2452380D01*
X-14590476Y-2452380D01*
X-14514285Y-2490476D01*
X-14476190Y-2528571D01*
X-14438095Y-2604761D01*
X-14438095Y-2833333D01*
X-14476190Y-2909523D01*
X-14514285Y-2947619D01*
X-15238095Y-1766666D02*
X-15238095Y-1919047D01*
X-15200000Y-1995238D01*
X-15161904Y-2033333D01*
X-15047619Y-2109523D01*
X-14895238Y-2147619D01*
X-14590476Y-2147619D01*
X-14514285Y-2109523D01*
X-14476190Y-2071428D01*
X-14438095Y-1995238D01*
X-14438095Y-1842857D01*
X-14476190Y-1766666D01*
X-14514285Y-1728571D01*
X-14590476Y-1690476D01*
X-14780952Y-1690476D01*
X-14857142Y-1728571D01*
X-14895238Y-1766666D01*
X-14933333Y-1842857D01*
X-14933333Y-1995238D01*
X-14895238Y-2071428D01*
X-14857142Y-2109523D01*
X-14780952Y-2147619D01*
%TO.C,R20*%
X-9814285Y-4461904D02*
X-10080952Y-4080952D01*
X-10271428Y-4461904D02*
X-10271428Y-3661904D01*
X-9966666Y-3661904D01*
X-9890476Y-3700000D01*
X-9852380Y-3738095D01*
X-9814285Y-3814285D01*
X-9814285Y-3928571D01*
X-9852380Y-4004761D01*
X-9890476Y-4042857D01*
X-9966666Y-4080952D01*
X-10271428Y-4080952D01*
X-9509523Y-3738095D02*
X-9471428Y-3700000D01*
X-9395238Y-3661904D01*
X-9204761Y-3661904D01*
X-9128571Y-3700000D01*
X-9090476Y-3738095D01*
X-9052380Y-3814285D01*
X-9052380Y-3890476D01*
X-9090476Y-4004761D01*
X-9547619Y-4461904D01*
X-9052380Y-4461904D01*
X-8557142Y-3661904D02*
X-8480952Y-3661904D01*
X-8404761Y-3700000D01*
X-8366666Y-3738095D01*
X-8328571Y-3814285D01*
X-8290476Y-3966666D01*
X-8290476Y-4157142D01*
X-8328571Y-4309523D01*
X-8366666Y-4385714D01*
X-8404761Y-4423809D01*
X-8480952Y-4461904D01*
X-8557142Y-4461904D01*
X-8633333Y-4423809D01*
X-8671428Y-4385714D01*
X-8709523Y-4309523D01*
X-8747619Y-4157142D01*
X-8747619Y-3966666D01*
X-8709523Y-3814285D01*
X-8671428Y-3738095D01*
X-8633333Y-3700000D01*
X-8557142Y-3661904D01*
%TO.C,C70*%
X-17214285Y2414285D02*
X-17252380Y2376190D01*
X-17366666Y2338095D01*
X-17442857Y2338095D01*
X-17557142Y2376190D01*
X-17633333Y2452380D01*
X-17671428Y2528571D01*
X-17709523Y2680952D01*
X-17709523Y2795238D01*
X-17671428Y2947619D01*
X-17633333Y3023809D01*
X-17557142Y3100000D01*
X-17442857Y3138095D01*
X-17366666Y3138095D01*
X-17252380Y3100000D01*
X-17214285Y3061904D01*
X-16947619Y3138095D02*
X-16414285Y3138095D01*
X-16757142Y2338095D01*
X-15957142Y3138095D02*
X-15880952Y3138095D01*
X-15804761Y3100000D01*
X-15766666Y3061904D01*
X-15728571Y2985714D01*
X-15690476Y2833333D01*
X-15690476Y2642857D01*
X-15728571Y2490476D01*
X-15766666Y2414285D01*
X-15804761Y2376190D01*
X-15880952Y2338095D01*
X-15957142Y2338095D01*
X-16033333Y2376190D01*
X-16071428Y2414285D01*
X-16109523Y2490476D01*
X-16147619Y2642857D01*
X-16147619Y2833333D01*
X-16109523Y2985714D01*
X-16071428Y3061904D01*
X-16033333Y3100000D01*
X-15957142Y3138095D01*
%TO.C,Q20*%
X-23161904Y-9557142D02*
X-23200000Y-9633333D01*
X-23276190Y-9709523D01*
X-23390476Y-9823809D01*
X-23428571Y-9900000D01*
X-23428571Y-9976190D01*
X-23238095Y-9938095D02*
X-23276190Y-10014285D01*
X-23352380Y-10090476D01*
X-23504761Y-10128571D01*
X-23771428Y-10128571D01*
X-23923809Y-10090476D01*
X-24000000Y-10014285D01*
X-24038095Y-9938095D01*
X-24038095Y-9785714D01*
X-24000000Y-9709523D01*
X-23923809Y-9633333D01*
X-23771428Y-9595238D01*
X-23504761Y-9595238D01*
X-23352380Y-9633333D01*
X-23276190Y-9709523D01*
X-23238095Y-9785714D01*
X-23238095Y-9938095D01*
X-23961904Y-9290476D02*
X-24000000Y-9252380D01*
X-24038095Y-9176190D01*
X-24038095Y-8985714D01*
X-24000000Y-8909523D01*
X-23961904Y-8871428D01*
X-23885714Y-8833333D01*
X-23809523Y-8833333D01*
X-23695238Y-8871428D01*
X-23238095Y-9328571D01*
X-23238095Y-8833333D01*
X-24038095Y-8338095D02*
X-24038095Y-8261904D01*
X-24000000Y-8185714D01*
X-23961904Y-8147619D01*
X-23885714Y-8109523D01*
X-23733333Y-8071428D01*
X-23542857Y-8071428D01*
X-23390476Y-8109523D01*
X-23314285Y-8147619D01*
X-23276190Y-8185714D01*
X-23238095Y-8261904D01*
X-23238095Y-8338095D01*
X-23276190Y-8414285D01*
X-23314285Y-8452380D01*
X-23390476Y-8490476D01*
X-23542857Y-8528571D01*
X-23733333Y-8528571D01*
X-23885714Y-8490476D01*
X-23961904Y-8452380D01*
X-24000000Y-8414285D01*
X-24038095Y-8338095D01*
%TO.C,C74*%
X-25214285Y7514285D02*
X-25252380Y7476190D01*
X-25366666Y7438095D01*
X-25442857Y7438095D01*
X-25557142Y7476190D01*
X-25633333Y7552380D01*
X-25671428Y7628571D01*
X-25709523Y7780952D01*
X-25709523Y7895238D01*
X-25671428Y8047619D01*
X-25633333Y8123809D01*
X-25557142Y8200000D01*
X-25442857Y8238095D01*
X-25366666Y8238095D01*
X-25252380Y8200000D01*
X-25214285Y8161904D01*
X-24947619Y8238095D02*
X-24414285Y8238095D01*
X-24757142Y7438095D01*
X-23766666Y7971428D02*
X-23766666Y7438095D01*
X-23957142Y8276190D02*
X-24147619Y7704761D01*
X-23652380Y7704761D01*
%TO.C,R1*%
X2066666Y6738095D02*
X1800000Y7119047D01*
X1609523Y6738095D02*
X1609523Y7538095D01*
X1914285Y7538095D01*
X1990476Y7500000D01*
X2028571Y7461904D01*
X2066666Y7385714D01*
X2066666Y7271428D01*
X2028571Y7195238D01*
X1990476Y7157142D01*
X1914285Y7119047D01*
X1609523Y7119047D01*
X2828571Y6738095D02*
X2371428Y6738095D01*
X2600000Y6738095D02*
X2600000Y7538095D01*
X2523809Y7423809D01*
X2447619Y7347619D01*
X2371428Y7309523D01*
%TO.C,L20*%
X-5314285Y-4261904D02*
X-5695238Y-4261904D01*
X-5695238Y-3461904D01*
X-5085714Y-3538095D02*
X-5047619Y-3500000D01*
X-4971428Y-3461904D01*
X-4780952Y-3461904D01*
X-4704761Y-3500000D01*
X-4666666Y-3538095D01*
X-4628571Y-3614285D01*
X-4628571Y-3690476D01*
X-4666666Y-3804761D01*
X-5123809Y-4261904D01*
X-4628571Y-4261904D01*
X-4133333Y-3461904D02*
X-4057142Y-3461904D01*
X-3980952Y-3500000D01*
X-3942857Y-3538095D01*
X-3904761Y-3614285D01*
X-3866666Y-3766666D01*
X-3866666Y-3957142D01*
X-3904761Y-4109523D01*
X-3942857Y-4185714D01*
X-3980952Y-4223809D01*
X-4057142Y-4261904D01*
X-4133333Y-4261904D01*
X-4209523Y-4223809D01*
X-4247619Y-4185714D01*
X-4285714Y-4109523D01*
X-4323809Y-3957142D01*
X-4323809Y-3766666D01*
X-4285714Y-3614285D01*
X-4247619Y-3538095D01*
X-4209523Y-3500000D01*
X-4133333Y-3461904D01*
%TO.C,R32*%
X-13438095Y-5214285D02*
X-13819047Y-5480952D01*
X-13438095Y-5671428D02*
X-14238095Y-5671428D01*
X-14238095Y-5366666D01*
X-14200000Y-5290476D01*
X-14161904Y-5252380D01*
X-14085714Y-5214285D01*
X-13971428Y-5214285D01*
X-13895238Y-5252380D01*
X-13857142Y-5290476D01*
X-13819047Y-5366666D01*
X-13819047Y-5671428D01*
X-14238095Y-4947619D02*
X-14238095Y-4452380D01*
X-13933333Y-4719047D01*
X-13933333Y-4604761D01*
X-13895238Y-4528571D01*
X-13857142Y-4490476D01*
X-13780952Y-4452380D01*
X-13590476Y-4452380D01*
X-13514285Y-4490476D01*
X-13476190Y-4528571D01*
X-13438095Y-4604761D01*
X-13438095Y-4833333D01*
X-13476190Y-4909523D01*
X-13514285Y-4947619D01*
X-14161904Y-4147619D02*
X-14200000Y-4109523D01*
X-14238095Y-4033333D01*
X-14238095Y-3842857D01*
X-14200000Y-3766666D01*
X-14161904Y-3728571D01*
X-14085714Y-3690476D01*
X-14009523Y-3690476D01*
X-13895238Y-3728571D01*
X-13438095Y-4185714D01*
X-13438095Y-3690476D01*
%TO.C,R2*%
X11866666Y9738095D02*
X11600000Y10119047D01*
X11409523Y9738095D02*
X11409523Y10538095D01*
X11714285Y10538095D01*
X11790476Y10500000D01*
X11828571Y10461904D01*
X11866666Y10385714D01*
X11866666Y10271428D01*
X11828571Y10195238D01*
X11790476Y10157142D01*
X11714285Y10119047D01*
X11409523Y10119047D01*
X12171428Y10461904D02*
X12209523Y10500000D01*
X12285714Y10538095D01*
X12476190Y10538095D01*
X12552380Y10500000D01*
X12590476Y10461904D01*
X12628571Y10385714D01*
X12628571Y10309523D01*
X12590476Y10195238D01*
X12133333Y9738095D01*
X12628571Y9738095D01*
%TO.C,C6*%
X14285714Y1954502D02*
X14323809Y1916407D01*
X14361904Y1802121D01*
X14361904Y1725931D01*
X14323809Y1611645D01*
X14247619Y1535455D01*
X14171428Y1497359D01*
X14019047Y1459264D01*
X13904761Y1459264D01*
X13752380Y1497359D01*
X13676190Y1535455D01*
X13600000Y1611645D01*
X13561904Y1725931D01*
X13561904Y1802121D01*
X13600000Y1916407D01*
X13638095Y1954502D01*
X13561904Y2640216D02*
X13561904Y2487836D01*
X13600000Y2411645D01*
X13638095Y2373550D01*
X13752380Y2297359D01*
X13904761Y2259264D01*
X14209523Y2259264D01*
X14285714Y2297359D01*
X14323809Y2335455D01*
X14361904Y2411645D01*
X14361904Y2564026D01*
X14323809Y2640216D01*
X14285714Y2678312D01*
X14209523Y2716407D01*
X14019047Y2716407D01*
X13942857Y2678312D01*
X13904761Y2640216D01*
X13866666Y2564026D01*
X13866666Y2411645D01*
X13904761Y2335455D01*
X13942857Y2297359D01*
X14019047Y2259264D01*
%TO.C,C14*%
X1285714Y1314285D02*
X1247619Y1276190D01*
X1133333Y1238095D01*
X1057142Y1238095D01*
X942857Y1276190D01*
X866666Y1352380D01*
X828571Y1428571D01*
X790476Y1580952D01*
X790476Y1695238D01*
X828571Y1847619D01*
X866666Y1923809D01*
X942857Y2000000D01*
X1057142Y2038095D01*
X1133333Y2038095D01*
X1247619Y2000000D01*
X1285714Y1961904D01*
X2047619Y1238095D02*
X1590476Y1238095D01*
X1819047Y1238095D02*
X1819047Y2038095D01*
X1742857Y1923809D01*
X1666666Y1847619D01*
X1590476Y1809523D01*
X2733333Y1771428D02*
X2733333Y1238095D01*
X2542857Y2076190D02*
X2352380Y1504761D01*
X2847619Y1504761D01*
%TO.C,C1*%
X2066666Y4614285D02*
X2028571Y4576190D01*
X1914285Y4538095D01*
X1838095Y4538095D01*
X1723809Y4576190D01*
X1647619Y4652380D01*
X1609523Y4728571D01*
X1571428Y4880952D01*
X1571428Y4995238D01*
X1609523Y5147619D01*
X1647619Y5223809D01*
X1723809Y5300000D01*
X1838095Y5338095D01*
X1914285Y5338095D01*
X2028571Y5300000D01*
X2066666Y5261904D01*
X2828571Y4538095D02*
X2371428Y4538095D01*
X2600000Y4538095D02*
X2600000Y5338095D01*
X2523809Y5223809D01*
X2447619Y5147619D01*
X2371428Y5109523D01*
%TO.C,Q33*%
X-18161904Y-2257142D02*
X-18200000Y-2333333D01*
X-18276190Y-2409523D01*
X-18390476Y-2523809D01*
X-18428571Y-2600000D01*
X-18428571Y-2676190D01*
X-18238095Y-2638095D02*
X-18276190Y-2714285D01*
X-18352380Y-2790476D01*
X-18504761Y-2828571D01*
X-18771428Y-2828571D01*
X-18923809Y-2790476D01*
X-19000000Y-2714285D01*
X-19038095Y-2638095D01*
X-19038095Y-2485714D01*
X-19000000Y-2409523D01*
X-18923809Y-2333333D01*
X-18771428Y-2295238D01*
X-18504761Y-2295238D01*
X-18352380Y-2333333D01*
X-18276190Y-2409523D01*
X-18238095Y-2485714D01*
X-18238095Y-2638095D01*
X-19038095Y-2028571D02*
X-19038095Y-1533333D01*
X-18733333Y-1800000D01*
X-18733333Y-1685714D01*
X-18695238Y-1609523D01*
X-18657142Y-1571428D01*
X-18580952Y-1533333D01*
X-18390476Y-1533333D01*
X-18314285Y-1571428D01*
X-18276190Y-1609523D01*
X-18238095Y-1685714D01*
X-18238095Y-1914285D01*
X-18276190Y-1990476D01*
X-18314285Y-2028571D01*
X-19038095Y-1266666D02*
X-19038095Y-771428D01*
X-18733333Y-1038095D01*
X-18733333Y-923809D01*
X-18695238Y-847619D01*
X-18657142Y-809523D01*
X-18580952Y-771428D01*
X-18390476Y-771428D01*
X-18314285Y-809523D01*
X-18276190Y-847619D01*
X-18238095Y-923809D01*
X-18238095Y-1152380D01*
X-18276190Y-1228571D01*
X-18314285Y-1266666D01*
%TO.C,R66*%
X-15438095Y5385714D02*
X-15819047Y5119047D01*
X-15438095Y4928571D02*
X-16238095Y4928571D01*
X-16238095Y5233333D01*
X-16200000Y5309523D01*
X-16161904Y5347619D01*
X-16085714Y5385714D01*
X-15971428Y5385714D01*
X-15895238Y5347619D01*
X-15857142Y5309523D01*
X-15819047Y5233333D01*
X-15819047Y4928571D01*
X-16238095Y6071428D02*
X-16238095Y5919047D01*
X-16200000Y5842857D01*
X-16161904Y5804761D01*
X-16047619Y5728571D01*
X-15895238Y5690476D01*
X-15590476Y5690476D01*
X-15514285Y5728571D01*
X-15476190Y5766666D01*
X-15438095Y5842857D01*
X-15438095Y5995238D01*
X-15476190Y6071428D01*
X-15514285Y6109523D01*
X-15590476Y6147619D01*
X-15780952Y6147619D01*
X-15857142Y6109523D01*
X-15895238Y6071428D01*
X-15933333Y5995238D01*
X-15933333Y5842857D01*
X-15895238Y5766666D01*
X-15857142Y5728571D01*
X-15780952Y5690476D01*
X-16238095Y6833333D02*
X-16238095Y6680952D01*
X-16200000Y6604761D01*
X-16161904Y6566666D01*
X-16047619Y6490476D01*
X-15895238Y6452380D01*
X-15590476Y6452380D01*
X-15514285Y6490476D01*
X-15476190Y6528571D01*
X-15438095Y6604761D01*
X-15438095Y6757142D01*
X-15476190Y6833333D01*
X-15514285Y6871428D01*
X-15590476Y6909523D01*
X-15780952Y6909523D01*
X-15857142Y6871428D01*
X-15895238Y6833333D01*
X-15933333Y6757142D01*
X-15933333Y6604761D01*
X-15895238Y6528571D01*
X-15857142Y6490476D01*
X-15780952Y6452380D01*
%TO.C,C31*%
X-2834314Y-7261624D02*
X-2780439Y-7261624D01*
X-2672690Y-7315499D01*
X-2618815Y-7369374D01*
X-2564940Y-7477123D01*
X-2564940Y-7584873D01*
X-2591877Y-7665685D01*
X-2672690Y-7800372D01*
X-2753502Y-7881184D01*
X-2888189Y-7961996D01*
X-2969001Y-7988934D01*
X-3076751Y-7988934D01*
X-3184500Y-7935059D01*
X-3238375Y-7881184D01*
X-3292250Y-7773435D01*
X-3292250Y-7719560D01*
X-3534687Y-7584873D02*
X-3884873Y-7234687D01*
X-3480812Y-7207749D01*
X-3561624Y-7126937D01*
X-3588561Y-7046125D01*
X-3588561Y-6992250D01*
X-3561624Y-6911438D01*
X-3426937Y-6776751D01*
X-3346125Y-6749813D01*
X-3292250Y-6749813D01*
X-3211438Y-6776751D01*
X-3049813Y-6938375D01*
X-3022876Y-7019187D01*
X-3022876Y-7073062D01*
X-3857935Y-6130253D02*
X-3534687Y-6453502D01*
X-3696311Y-6291877D02*
X-4261996Y-6857563D01*
X-4127309Y-6830625D01*
X-4019560Y-6830625D01*
X-3938748Y-6857563D01*
%TO.C,R55*%
X25461904Y575714D02*
X25080952Y309047D01*
X25461904Y118571D02*
X24661904Y118571D01*
X24661904Y423333D01*
X24700000Y499523D01*
X24738095Y537619D01*
X24814285Y575714D01*
X24928571Y575714D01*
X25004761Y537619D01*
X25042857Y499523D01*
X25080952Y423333D01*
X25080952Y118571D01*
X24661904Y1299523D02*
X24661904Y918571D01*
X25042857Y880476D01*
X25004761Y918571D01*
X24966666Y994761D01*
X24966666Y1185238D01*
X25004761Y1261428D01*
X25042857Y1299523D01*
X25119047Y1337619D01*
X25309523Y1337619D01*
X25385714Y1299523D01*
X25423809Y1261428D01*
X25461904Y1185238D01*
X25461904Y994761D01*
X25423809Y918571D01*
X25385714Y880476D01*
X24661904Y2061428D02*
X24661904Y1680476D01*
X25042857Y1642380D01*
X25004761Y1680476D01*
X24966666Y1756666D01*
X24966666Y1947142D01*
X25004761Y2023333D01*
X25042857Y2061428D01*
X25119047Y2099523D01*
X25309523Y2099523D01*
X25385714Y2061428D01*
X25423809Y2023333D01*
X25461904Y1947142D01*
X25461904Y1756666D01*
X25423809Y1680476D01*
X25385714Y1642380D01*
%TO.C,C3*%
X2066666Y3514285D02*
X2028571Y3476190D01*
X1914285Y3438095D01*
X1838095Y3438095D01*
X1723809Y3476190D01*
X1647619Y3552380D01*
X1609523Y3628571D01*
X1571428Y3780952D01*
X1571428Y3895238D01*
X1609523Y4047619D01*
X1647619Y4123809D01*
X1723809Y4200000D01*
X1838095Y4238095D01*
X1914285Y4238095D01*
X2028571Y4200000D01*
X2066666Y4161904D01*
X2333333Y4238095D02*
X2828571Y4238095D01*
X2561904Y3933333D01*
X2676190Y3933333D01*
X2752380Y3895238D01*
X2790476Y3857142D01*
X2828571Y3780952D01*
X2828571Y3590476D01*
X2790476Y3514285D01*
X2752380Y3476190D01*
X2676190Y3438095D01*
X2447619Y3438095D01*
X2371428Y3476190D01*
X2333333Y3514285D01*
%TO.C,R40*%
X22885714Y9638095D02*
X22619047Y10019047D01*
X22428571Y9638095D02*
X22428571Y10438095D01*
X22733333Y10438095D01*
X22809523Y10400000D01*
X22847619Y10361904D01*
X22885714Y10285714D01*
X22885714Y10171428D01*
X22847619Y10095238D01*
X22809523Y10057142D01*
X22733333Y10019047D01*
X22428571Y10019047D01*
X23571428Y10171428D02*
X23571428Y9638095D01*
X23380952Y10476190D02*
X23190476Y9904761D01*
X23685714Y9904761D01*
X24142857Y10438095D02*
X24219047Y10438095D01*
X24295238Y10400000D01*
X24333333Y10361904D01*
X24371428Y10285714D01*
X24409523Y10133333D01*
X24409523Y9942857D01*
X24371428Y9790476D01*
X24333333Y9714285D01*
X24295238Y9676190D01*
X24219047Y9638095D01*
X24142857Y9638095D01*
X24066666Y9676190D01*
X24028571Y9714285D01*
X23990476Y9790476D01*
X23952380Y9942857D01*
X23952380Y10133333D01*
X23990476Y10285714D01*
X24028571Y10361904D01*
X24066666Y10400000D01*
X24142857Y10438095D01*
%TO.C,Q30*%
X-23261904Y-5657142D02*
X-23300000Y-5733333D01*
X-23376190Y-5809523D01*
X-23490476Y-5923809D01*
X-23528571Y-6000000D01*
X-23528571Y-6076190D01*
X-23338095Y-6038095D02*
X-23376190Y-6114285D01*
X-23452380Y-6190476D01*
X-23604761Y-6228571D01*
X-23871428Y-6228571D01*
X-24023809Y-6190476D01*
X-24100000Y-6114285D01*
X-24138095Y-6038095D01*
X-24138095Y-5885714D01*
X-24100000Y-5809523D01*
X-24023809Y-5733333D01*
X-23871428Y-5695238D01*
X-23604761Y-5695238D01*
X-23452380Y-5733333D01*
X-23376190Y-5809523D01*
X-23338095Y-5885714D01*
X-23338095Y-6038095D01*
X-24138095Y-5428571D02*
X-24138095Y-4933333D01*
X-23833333Y-5200000D01*
X-23833333Y-5085714D01*
X-23795238Y-5009523D01*
X-23757142Y-4971428D01*
X-23680952Y-4933333D01*
X-23490476Y-4933333D01*
X-23414285Y-4971428D01*
X-23376190Y-5009523D01*
X-23338095Y-5085714D01*
X-23338095Y-5314285D01*
X-23376190Y-5390476D01*
X-23414285Y-5428571D01*
X-24138095Y-4438095D02*
X-24138095Y-4361904D01*
X-24100000Y-4285714D01*
X-24061904Y-4247619D01*
X-23985714Y-4209523D01*
X-23833333Y-4171428D01*
X-23642857Y-4171428D01*
X-23490476Y-4209523D01*
X-23414285Y-4247619D01*
X-23376190Y-4285714D01*
X-23338095Y-4361904D01*
X-23338095Y-4438095D01*
X-23376190Y-4514285D01*
X-23414285Y-4552380D01*
X-23490476Y-4590476D01*
X-23642857Y-4628571D01*
X-23833333Y-4628571D01*
X-23985714Y-4590476D01*
X-24061904Y-4552380D01*
X-24100000Y-4514285D01*
X-24138095Y-4438095D01*
%TO.C,R65*%
X-13738095Y2985714D02*
X-14119047Y2719047D01*
X-13738095Y2528571D02*
X-14538095Y2528571D01*
X-14538095Y2833333D01*
X-14500000Y2909523D01*
X-14461904Y2947619D01*
X-14385714Y2985714D01*
X-14271428Y2985714D01*
X-14195238Y2947619D01*
X-14157142Y2909523D01*
X-14119047Y2833333D01*
X-14119047Y2528571D01*
X-14538095Y3671428D02*
X-14538095Y3519047D01*
X-14500000Y3442857D01*
X-14461904Y3404761D01*
X-14347619Y3328571D01*
X-14195238Y3290476D01*
X-13890476Y3290476D01*
X-13814285Y3328571D01*
X-13776190Y3366666D01*
X-13738095Y3442857D01*
X-13738095Y3595238D01*
X-13776190Y3671428D01*
X-13814285Y3709523D01*
X-13890476Y3747619D01*
X-14080952Y3747619D01*
X-14157142Y3709523D01*
X-14195238Y3671428D01*
X-14233333Y3595238D01*
X-14233333Y3442857D01*
X-14195238Y3366666D01*
X-14157142Y3328571D01*
X-14080952Y3290476D01*
X-14538095Y4471428D02*
X-14538095Y4090476D01*
X-14157142Y4052380D01*
X-14195238Y4090476D01*
X-14233333Y4166666D01*
X-14233333Y4357142D01*
X-14195238Y4433333D01*
X-14157142Y4471428D01*
X-14080952Y4509523D01*
X-13890476Y4509523D01*
X-13814285Y4471428D01*
X-13776190Y4433333D01*
X-13738095Y4357142D01*
X-13738095Y4166666D01*
X-13776190Y4090476D01*
X-13814285Y4052380D01*
%TO.C,C5*%
X12266666Y-1285714D02*
X12228571Y-1323809D01*
X12114285Y-1361904D01*
X12038095Y-1361904D01*
X11923809Y-1323809D01*
X11847619Y-1247619D01*
X11809523Y-1171428D01*
X11771428Y-1019047D01*
X11771428Y-904761D01*
X11809523Y-752380D01*
X11847619Y-676190D01*
X11923809Y-600000D01*
X12038095Y-561904D01*
X12114285Y-561904D01*
X12228571Y-600000D01*
X12266666Y-638095D01*
X12990476Y-561904D02*
X12609523Y-561904D01*
X12571428Y-942857D01*
X12609523Y-904761D01*
X12685714Y-866666D01*
X12876190Y-866666D01*
X12952380Y-904761D01*
X12990476Y-942857D01*
X13028571Y-1019047D01*
X13028571Y-1209523D01*
X12990476Y-1285714D01*
X12952380Y-1323809D01*
X12876190Y-1361904D01*
X12685714Y-1361904D01*
X12609523Y-1323809D01*
X12571428Y-1285714D01*
%TO.C,R64*%
X-25214285Y5238095D02*
X-25480952Y5619047D01*
X-25671428Y5238095D02*
X-25671428Y6038095D01*
X-25366666Y6038095D01*
X-25290476Y6000000D01*
X-25252380Y5961904D01*
X-25214285Y5885714D01*
X-25214285Y5771428D01*
X-25252380Y5695238D01*
X-25290476Y5657142D01*
X-25366666Y5619047D01*
X-25671428Y5619047D01*
X-24528571Y6038095D02*
X-24680952Y6038095D01*
X-24757142Y6000000D01*
X-24795238Y5961904D01*
X-24871428Y5847619D01*
X-24909523Y5695238D01*
X-24909523Y5390476D01*
X-24871428Y5314285D01*
X-24833333Y5276190D01*
X-24757142Y5238095D01*
X-24604761Y5238095D01*
X-24528571Y5276190D01*
X-24490476Y5314285D01*
X-24452380Y5390476D01*
X-24452380Y5580952D01*
X-24490476Y5657142D01*
X-24528571Y5695238D01*
X-24604761Y5733333D01*
X-24757142Y5733333D01*
X-24833333Y5695238D01*
X-24871428Y5657142D01*
X-24909523Y5580952D01*
X-23766666Y5771428D02*
X-23766666Y5238095D01*
X-23957142Y6076190D02*
X-24147619Y5504761D01*
X-23652380Y5504761D01*
%TO.C,C40*%
X1385714Y214285D02*
X1347619Y176190D01*
X1233333Y138095D01*
X1157142Y138095D01*
X1042857Y176190D01*
X966666Y252380D01*
X928571Y328571D01*
X890476Y480952D01*
X890476Y595238D01*
X928571Y747619D01*
X966666Y823809D01*
X1042857Y900000D01*
X1157142Y938095D01*
X1233333Y938095D01*
X1347619Y900000D01*
X1385714Y861904D01*
X2071428Y671428D02*
X2071428Y138095D01*
X1880952Y976190D02*
X1690476Y404761D01*
X2185714Y404761D01*
X2642857Y938095D02*
X2719047Y938095D01*
X2795238Y900000D01*
X2833333Y861904D01*
X2871428Y785714D01*
X2909523Y633333D01*
X2909523Y442857D01*
X2871428Y290476D01*
X2833333Y214285D01*
X2795238Y176190D01*
X2719047Y138095D01*
X2642857Y138095D01*
X2566666Y176190D01*
X2528571Y214285D01*
X2490476Y290476D01*
X2452380Y442857D01*
X2452380Y633333D01*
X2490476Y785714D01*
X2528571Y861904D01*
X2566666Y900000D01*
X2642857Y938095D01*
%TO.C,Q31*%
X-18161904Y-6157142D02*
X-18200000Y-6233333D01*
X-18276190Y-6309523D01*
X-18390476Y-6423809D01*
X-18428571Y-6500000D01*
X-18428571Y-6576190D01*
X-18238095Y-6538095D02*
X-18276190Y-6614285D01*
X-18352380Y-6690476D01*
X-18504761Y-6728571D01*
X-18771428Y-6728571D01*
X-18923809Y-6690476D01*
X-19000000Y-6614285D01*
X-19038095Y-6538095D01*
X-19038095Y-6385714D01*
X-19000000Y-6309523D01*
X-18923809Y-6233333D01*
X-18771428Y-6195238D01*
X-18504761Y-6195238D01*
X-18352380Y-6233333D01*
X-18276190Y-6309523D01*
X-18238095Y-6385714D01*
X-18238095Y-6538095D01*
X-19038095Y-5928571D02*
X-19038095Y-5433333D01*
X-18733333Y-5700000D01*
X-18733333Y-5585714D01*
X-18695238Y-5509523D01*
X-18657142Y-5471428D01*
X-18580952Y-5433333D01*
X-18390476Y-5433333D01*
X-18314285Y-5471428D01*
X-18276190Y-5509523D01*
X-18238095Y-5585714D01*
X-18238095Y-5814285D01*
X-18276190Y-5890476D01*
X-18314285Y-5928571D01*
X-18238095Y-4671428D02*
X-18238095Y-5128571D01*
X-18238095Y-4900000D02*
X-19038095Y-4900000D01*
X-18923809Y-4976190D01*
X-18847619Y-5052380D01*
X-18809523Y-5128571D01*
%TO.C,C72*%
X-20614285Y2214285D02*
X-20652380Y2176190D01*
X-20766666Y2138095D01*
X-20842857Y2138095D01*
X-20957142Y2176190D01*
X-21033333Y2252380D01*
X-21071428Y2328571D01*
X-21109523Y2480952D01*
X-21109523Y2595238D01*
X-21071428Y2747619D01*
X-21033333Y2823809D01*
X-20957142Y2900000D01*
X-20842857Y2938095D01*
X-20766666Y2938095D01*
X-20652380Y2900000D01*
X-20614285Y2861904D01*
X-20347619Y2938095D02*
X-19814285Y2938095D01*
X-20157142Y2138095D01*
X-19547619Y2861904D02*
X-19509523Y2900000D01*
X-19433333Y2938095D01*
X-19242857Y2938095D01*
X-19166666Y2900000D01*
X-19128571Y2861904D01*
X-19090476Y2785714D01*
X-19090476Y2709523D01*
X-19128571Y2595238D01*
X-19585714Y2138095D01*
X-19090476Y2138095D01*
%TO.C,C60*%
X-2589285Y4360714D02*
X-2551190Y4322619D01*
X-2513095Y4208333D01*
X-2513095Y4132142D01*
X-2551190Y4017857D01*
X-2627380Y3941666D01*
X-2703571Y3903571D01*
X-2855952Y3865476D01*
X-2970238Y3865476D01*
X-3122619Y3903571D01*
X-3198809Y3941666D01*
X-3275000Y4017857D01*
X-3313095Y4132142D01*
X-3313095Y4208333D01*
X-3275000Y4322619D01*
X-3236904Y4360714D01*
X-3313095Y5046428D02*
X-3313095Y4894047D01*
X-3275000Y4817857D01*
X-3236904Y4779761D01*
X-3122619Y4703571D01*
X-2970238Y4665476D01*
X-2665476Y4665476D01*
X-2589285Y4703571D01*
X-2551190Y4741666D01*
X-2513095Y4817857D01*
X-2513095Y4970238D01*
X-2551190Y5046428D01*
X-2589285Y5084523D01*
X-2665476Y5122619D01*
X-2855952Y5122619D01*
X-2932142Y5084523D01*
X-2970238Y5046428D01*
X-3008333Y4970238D01*
X-3008333Y4817857D01*
X-2970238Y4741666D01*
X-2932142Y4703571D01*
X-2855952Y4665476D01*
X-3313095Y5617857D02*
X-3313095Y5694047D01*
X-3275000Y5770238D01*
X-3236904Y5808333D01*
X-3160714Y5846428D01*
X-3008333Y5884523D01*
X-2817857Y5884523D01*
X-2665476Y5846428D01*
X-2589285Y5808333D01*
X-2551190Y5770238D01*
X-2513095Y5694047D01*
X-2513095Y5617857D01*
X-2551190Y5541666D01*
X-2589285Y5503571D01*
X-2665476Y5465476D01*
X-2817857Y5427380D01*
X-3008333Y5427380D01*
X-3160714Y5465476D01*
X-3236904Y5503571D01*
X-3275000Y5541666D01*
X-3313095Y5617857D01*
%TO.C,C71*%
X-25214285Y6414285D02*
X-25252380Y6376190D01*
X-25366666Y6338095D01*
X-25442857Y6338095D01*
X-25557142Y6376190D01*
X-25633333Y6452380D01*
X-25671428Y6528571D01*
X-25709523Y6680952D01*
X-25709523Y6795238D01*
X-25671428Y6947619D01*
X-25633333Y7023809D01*
X-25557142Y7100000D01*
X-25442857Y7138095D01*
X-25366666Y7138095D01*
X-25252380Y7100000D01*
X-25214285Y7061904D01*
X-24947619Y7138095D02*
X-24414285Y7138095D01*
X-24757142Y6338095D01*
X-23690476Y6338095D02*
X-24147619Y6338095D01*
X-23919047Y6338095D02*
X-23919047Y7138095D01*
X-23995238Y7023809D01*
X-24071428Y6947619D01*
X-24147619Y6909523D01*
%TO.C,C73*%
X-14114285Y1014285D02*
X-14152380Y976190D01*
X-14266666Y938095D01*
X-14342857Y938095D01*
X-14457142Y976190D01*
X-14533333Y1052380D01*
X-14571428Y1128571D01*
X-14609523Y1280952D01*
X-14609523Y1395238D01*
X-14571428Y1547619D01*
X-14533333Y1623809D01*
X-14457142Y1700000D01*
X-14342857Y1738095D01*
X-14266666Y1738095D01*
X-14152380Y1700000D01*
X-14114285Y1661904D01*
X-13847619Y1738095D02*
X-13314285Y1738095D01*
X-13657142Y938095D01*
X-13085714Y1738095D02*
X-12590476Y1738095D01*
X-12857142Y1433333D01*
X-12742857Y1433333D01*
X-12666666Y1395238D01*
X-12628571Y1357142D01*
X-12590476Y1280952D01*
X-12590476Y1090476D01*
X-12628571Y1014285D01*
X-12666666Y976190D01*
X-12742857Y938095D01*
X-12971428Y938095D01*
X-13047619Y976190D01*
X-13085714Y1014285D01*
%TO.C,R21*%
X-10938095Y-5214285D02*
X-11319047Y-5480952D01*
X-10938095Y-5671428D02*
X-11738095Y-5671428D01*
X-11738095Y-5366666D01*
X-11700000Y-5290476D01*
X-11661904Y-5252380D01*
X-11585714Y-5214285D01*
X-11471428Y-5214285D01*
X-11395238Y-5252380D01*
X-11357142Y-5290476D01*
X-11319047Y-5366666D01*
X-11319047Y-5671428D01*
X-11661904Y-4909523D02*
X-11700000Y-4871428D01*
X-11738095Y-4795238D01*
X-11738095Y-4604761D01*
X-11700000Y-4528571D01*
X-11661904Y-4490476D01*
X-11585714Y-4452380D01*
X-11509523Y-4452380D01*
X-11395238Y-4490476D01*
X-10938095Y-4947619D01*
X-10938095Y-4452380D01*
X-10938095Y-3690476D02*
X-10938095Y-4147619D01*
X-10938095Y-3919047D02*
X-11738095Y-3919047D01*
X-11623809Y-3995238D01*
X-11547619Y-4071428D01*
X-11509523Y-4147619D01*
%TO.C,C8*%
X13166666Y7414285D02*
X13128571Y7376190D01*
X13014285Y7338095D01*
X12938095Y7338095D01*
X12823809Y7376190D01*
X12747619Y7452380D01*
X12709523Y7528571D01*
X12671428Y7680952D01*
X12671428Y7795238D01*
X12709523Y7947619D01*
X12747619Y8023809D01*
X12823809Y8100000D01*
X12938095Y8138095D01*
X13014285Y8138095D01*
X13128571Y8100000D01*
X13166666Y8061904D01*
X13623809Y7795238D02*
X13547619Y7833333D01*
X13509523Y7871428D01*
X13471428Y7947619D01*
X13471428Y7985714D01*
X13509523Y8061904D01*
X13547619Y8100000D01*
X13623809Y8138095D01*
X13776190Y8138095D01*
X13852380Y8100000D01*
X13890476Y8061904D01*
X13928571Y7985714D01*
X13928571Y7947619D01*
X13890476Y7871428D01*
X13852380Y7833333D01*
X13776190Y7795238D01*
X13623809Y7795238D01*
X13547619Y7757142D01*
X13509523Y7719047D01*
X13471428Y7642857D01*
X13471428Y7490476D01*
X13509523Y7414285D01*
X13547619Y7376190D01*
X13623809Y7338095D01*
X13776190Y7338095D01*
X13852380Y7376190D01*
X13890476Y7414285D01*
X13928571Y7490476D01*
X13928571Y7642857D01*
X13890476Y7719047D01*
X13852380Y7757142D01*
X13776190Y7795238D01*
%TO.C,Q32*%
X-23161904Y-1757142D02*
X-23200000Y-1833333D01*
X-23276190Y-1909523D01*
X-23390476Y-2023809D01*
X-23428571Y-2100000D01*
X-23428571Y-2176190D01*
X-23238095Y-2138095D02*
X-23276190Y-2214285D01*
X-23352380Y-2290476D01*
X-23504761Y-2328571D01*
X-23771428Y-2328571D01*
X-23923809Y-2290476D01*
X-24000000Y-2214285D01*
X-24038095Y-2138095D01*
X-24038095Y-1985714D01*
X-24000000Y-1909523D01*
X-23923809Y-1833333D01*
X-23771428Y-1795238D01*
X-23504761Y-1795238D01*
X-23352380Y-1833333D01*
X-23276190Y-1909523D01*
X-23238095Y-1985714D01*
X-23238095Y-2138095D01*
X-24038095Y-1528571D02*
X-24038095Y-1033333D01*
X-23733333Y-1300000D01*
X-23733333Y-1185714D01*
X-23695238Y-1109523D01*
X-23657142Y-1071428D01*
X-23580952Y-1033333D01*
X-23390476Y-1033333D01*
X-23314285Y-1071428D01*
X-23276190Y-1109523D01*
X-23238095Y-1185714D01*
X-23238095Y-1414285D01*
X-23276190Y-1490476D01*
X-23314285Y-1528571D01*
X-23961904Y-728571D02*
X-24000000Y-690476D01*
X-24038095Y-614285D01*
X-24038095Y-423809D01*
X-24000000Y-347619D01*
X-23961904Y-309523D01*
X-23885714Y-271428D01*
X-23809523Y-271428D01*
X-23695238Y-309523D01*
X-23238095Y-766666D01*
X-23238095Y-271428D01*
%TO.C,C21*%
X-6614285Y-10385714D02*
X-6652380Y-10423809D01*
X-6766666Y-10461904D01*
X-6842857Y-10461904D01*
X-6957142Y-10423809D01*
X-7033333Y-10347619D01*
X-7071428Y-10271428D01*
X-7109523Y-10119047D01*
X-7109523Y-10004761D01*
X-7071428Y-9852380D01*
X-7033333Y-9776190D01*
X-6957142Y-9700000D01*
X-6842857Y-9661904D01*
X-6766666Y-9661904D01*
X-6652380Y-9700000D01*
X-6614285Y-9738095D01*
X-6309523Y-9738095D02*
X-6271428Y-9700000D01*
X-6195238Y-9661904D01*
X-6004761Y-9661904D01*
X-5928571Y-9700000D01*
X-5890476Y-9738095D01*
X-5852380Y-9814285D01*
X-5852380Y-9890476D01*
X-5890476Y-10004761D01*
X-6347619Y-10461904D01*
X-5852380Y-10461904D01*
X-5090476Y-10461904D02*
X-5547619Y-10461904D01*
X-5319047Y-10461904D02*
X-5319047Y-9661904D01*
X-5395238Y-9776190D01*
X-5471428Y-9852380D01*
X-5547619Y-9890476D01*
%TO.C,R68*%
X-6114285Y838095D02*
X-6380952Y1219047D01*
X-6571428Y838095D02*
X-6571428Y1638095D01*
X-6266666Y1638095D01*
X-6190476Y1600000D01*
X-6152380Y1561904D01*
X-6114285Y1485714D01*
X-6114285Y1371428D01*
X-6152380Y1295238D01*
X-6190476Y1257142D01*
X-6266666Y1219047D01*
X-6571428Y1219047D01*
X-5428571Y1638095D02*
X-5580952Y1638095D01*
X-5657142Y1600000D01*
X-5695238Y1561904D01*
X-5771428Y1447619D01*
X-5809523Y1295238D01*
X-5809523Y990476D01*
X-5771428Y914285D01*
X-5733333Y876190D01*
X-5657142Y838095D01*
X-5504761Y838095D01*
X-5428571Y876190D01*
X-5390476Y914285D01*
X-5352380Y990476D01*
X-5352380Y1180952D01*
X-5390476Y1257142D01*
X-5428571Y1295238D01*
X-5504761Y1333333D01*
X-5657142Y1333333D01*
X-5733333Y1295238D01*
X-5771428Y1257142D01*
X-5809523Y1180952D01*
X-4895238Y1295238D02*
X-4971428Y1333333D01*
X-5009523Y1371428D01*
X-5047619Y1447619D01*
X-5047619Y1485714D01*
X-5009523Y1561904D01*
X-4971428Y1600000D01*
X-4895238Y1638095D01*
X-4742857Y1638095D01*
X-4666666Y1600000D01*
X-4628571Y1561904D01*
X-4590476Y1485714D01*
X-4590476Y1447619D01*
X-4628571Y1371428D01*
X-4666666Y1333333D01*
X-4742857Y1295238D01*
X-4895238Y1295238D01*
X-4971428Y1257142D01*
X-5009523Y1219047D01*
X-5047619Y1142857D01*
X-5047619Y990476D01*
X-5009523Y914285D01*
X-4971428Y876190D01*
X-4895238Y838095D01*
X-4742857Y838095D01*
X-4666666Y876190D01*
X-4628571Y914285D01*
X-4590476Y990476D01*
X-4590476Y1142857D01*
X-4628571Y1219047D01*
X-4666666Y1257142D01*
X-4742857Y1295238D01*
%TO.C,R57*%
X4161904Y-6724285D02*
X3780952Y-6990952D01*
X4161904Y-7181428D02*
X3361904Y-7181428D01*
X3361904Y-6876666D01*
X3400000Y-6800476D01*
X3438095Y-6762380D01*
X3514285Y-6724285D01*
X3628571Y-6724285D01*
X3704761Y-6762380D01*
X3742857Y-6800476D01*
X3780952Y-6876666D01*
X3780952Y-7181428D01*
X3361904Y-6000476D02*
X3361904Y-6381428D01*
X3742857Y-6419523D01*
X3704761Y-6381428D01*
X3666666Y-6305238D01*
X3666666Y-6114761D01*
X3704761Y-6038571D01*
X3742857Y-6000476D01*
X3819047Y-5962380D01*
X4009523Y-5962380D01*
X4085714Y-6000476D01*
X4123809Y-6038571D01*
X4161904Y-6114761D01*
X4161904Y-6305238D01*
X4123809Y-6381428D01*
X4085714Y-6419523D01*
X3361904Y-5695714D02*
X3361904Y-5162380D01*
X4161904Y-5505238D01*
%TO.C,C2*%
X2066666Y2414285D02*
X2028571Y2376190D01*
X1914285Y2338095D01*
X1838095Y2338095D01*
X1723809Y2376190D01*
X1647619Y2452380D01*
X1609523Y2528571D01*
X1571428Y2680952D01*
X1571428Y2795238D01*
X1609523Y2947619D01*
X1647619Y3023809D01*
X1723809Y3100000D01*
X1838095Y3138095D01*
X1914285Y3138095D01*
X2028571Y3100000D01*
X2066666Y3061904D01*
X2371428Y3061904D02*
X2409523Y3100000D01*
X2485714Y3138095D01*
X2676190Y3138095D01*
X2752380Y3100000D01*
X2790476Y3061904D01*
X2828571Y2985714D01*
X2828571Y2909523D01*
X2790476Y2795238D01*
X2333333Y2338095D01*
X2828571Y2338095D01*
%TO.C,C23*%
X-7514285Y-4285714D02*
X-7552380Y-4323809D01*
X-7666666Y-4361904D01*
X-7742857Y-4361904D01*
X-7857142Y-4323809D01*
X-7933333Y-4247619D01*
X-7971428Y-4171428D01*
X-8009523Y-4019047D01*
X-8009523Y-3904761D01*
X-7971428Y-3752380D01*
X-7933333Y-3676190D01*
X-7857142Y-3600000D01*
X-7742857Y-3561904D01*
X-7666666Y-3561904D01*
X-7552380Y-3600000D01*
X-7514285Y-3638095D01*
X-7209523Y-3638095D02*
X-7171428Y-3600000D01*
X-7095238Y-3561904D01*
X-6904761Y-3561904D01*
X-6828571Y-3600000D01*
X-6790476Y-3638095D01*
X-6752380Y-3714285D01*
X-6752380Y-3790476D01*
X-6790476Y-3904761D01*
X-7247619Y-4361904D01*
X-6752380Y-4361904D01*
X-6485714Y-3561904D02*
X-5990476Y-3561904D01*
X-6257142Y-3866666D01*
X-6142857Y-3866666D01*
X-6066666Y-3904761D01*
X-6028571Y-3942857D01*
X-5990476Y-4019047D01*
X-5990476Y-4209523D01*
X-6028571Y-4285714D01*
X-6066666Y-4323809D01*
X-6142857Y-4361904D01*
X-6371428Y-4361904D01*
X-6447619Y-4323809D01*
X-6485714Y-4285714D01*
%TO.C,R3*%
X9766666Y-3161904D02*
X9500000Y-2780952D01*
X9309523Y-3161904D02*
X9309523Y-2361904D01*
X9614285Y-2361904D01*
X9690476Y-2400000D01*
X9728571Y-2438095D01*
X9766666Y-2514285D01*
X9766666Y-2628571D01*
X9728571Y-2704761D01*
X9690476Y-2742857D01*
X9614285Y-2780952D01*
X9309523Y-2780952D01*
X10033333Y-2361904D02*
X10528571Y-2361904D01*
X10261904Y-2666666D01*
X10376190Y-2666666D01*
X10452380Y-2704761D01*
X10490476Y-2742857D01*
X10528571Y-2819047D01*
X10528571Y-3009523D01*
X10490476Y-3085714D01*
X10452380Y-3123809D01*
X10376190Y-3161904D01*
X10147619Y-3161904D01*
X10071428Y-3123809D01*
X10033333Y-3085714D01*
D10*
%TO.C,R10*%
X-5527064Y-2910000D02*
X-4072936Y-2910000D01*
X-5527064Y-1090000D02*
X-4072936Y-1090000D01*
%TO.C,R9*%
X-3527064Y-810000D02*
X-2072936Y-810000D01*
X-3527064Y1010000D02*
X-2072936Y1010000D01*
%TO.C,R8*%
X-1727064Y3390000D02*
X-272936Y3390000D01*
X-1727064Y5210000D02*
X-272936Y5210000D01*
%TO.C,R7*%
X-1727064Y5490000D02*
X-272936Y5490000D01*
X-1727064Y7310000D02*
X-272936Y7310000D01*
%TO.C,R6*%
X-1717064Y1290000D02*
X-262936Y1290000D01*
X-1717064Y3110000D02*
X-262936Y3110000D01*
%TO.C,R52*%
X19420000Y-2673641D02*
X19420000Y-2366359D01*
X20180000Y-2673641D02*
X20180000Y-2366359D01*
%TO.C,R60*%
X-6121359Y8920000D02*
X-6428641Y8920000D01*
X-6121359Y9680000D02*
X-6428641Y9680000D01*
%TO.C,R63*%
X-12028641Y9795000D02*
X-11721359Y9795000D01*
X-12028641Y10555000D02*
X-11721359Y10555000D01*
%TO.C,JP2*%
X18200000Y4800000D02*
X18200000Y6200000D01*
X19400000Y6200000D02*
X19400000Y4800000D01*
%TO.C,C50*%
X21840000Y-2412164D02*
X21840000Y-2627836D01*
X22560000Y-2412164D02*
X22560000Y-2627836D01*
%TO.C,D42*%
X-13350000Y-6900000D02*
X-15050000Y-6900000D01*
X-13350000Y-6900000D02*
X-13350000Y-10050000D01*
X-15050000Y-6900000D02*
X-15050000Y-10050000D01*
%TO.C,D60*%
X-17385000Y10735000D02*
X-17385000Y9265000D01*
X-17385000Y9265000D02*
X-15100000Y9265000D01*
X-15100000Y10735000D02*
X-17385000Y10735000D01*
%TO.C,D20*%
X-15750000Y-6900000D02*
X-17450000Y-6900000D01*
X-15750000Y-6900000D02*
X-15750000Y-10050000D01*
X-17450000Y-6900000D02*
X-17450000Y-10050000D01*
%TO.C,Q50*%
X17962500Y3360000D02*
X16287500Y3360000D01*
X17962500Y240000D02*
X18612500Y240000D01*
X17962500Y240000D02*
X17312500Y240000D01*
X17962500Y3360000D02*
X18612500Y3360000D01*
%TO.C,R33*%
X-20180000Y1153641D02*
X-20180000Y846359D01*
X-19420000Y1153641D02*
X-19420000Y846359D01*
%TO.C,C12*%
X10340000Y9107836D02*
X10340000Y8892164D01*
X11060000Y9107836D02*
X11060000Y8892164D01*
%TO.C,C63*%
X-8082836Y9815000D02*
X-7867164Y9815000D01*
X-8082836Y10535000D02*
X-7867164Y10535000D01*
%TO.C,R41*%
X20620000Y8446359D02*
X20620000Y8753641D01*
X21380000Y8446359D02*
X21380000Y8753641D01*
%TO.C,C10*%
X6192164Y8860000D02*
X6407836Y8860000D01*
X6192164Y8140000D02*
X6407836Y8140000D01*
%TO.C,D40*%
X17715000Y10635000D02*
X17715000Y9165000D01*
X20000000Y10635000D02*
X17715000Y10635000D01*
X17715000Y9165000D02*
X20000000Y9165000D01*
%TO.C,C62*%
X-6382836Y7260000D02*
X-6167164Y7260000D01*
X-6382836Y6540000D02*
X-6167164Y6540000D01*
%TO.C,R56*%
X5180000Y-4456359D02*
X5180000Y-4763641D01*
X4420000Y-4456359D02*
X4420000Y-4763641D01*
%TO.C,R51*%
X19908859Y-480000D02*
X20216141Y-480000D01*
X19908859Y280000D02*
X20216141Y280000D01*
%TO.C,JP60*%
X-13700000Y-700000D02*
X-13700000Y700000D01*
X-12500000Y700000D02*
X-12500000Y-700000D01*
%TO.C,J2*%
X17030000Y5195000D02*
X15700000Y5195000D01*
X14370000Y7795000D02*
X14370000Y10395000D01*
X17030000Y6525000D02*
X17030000Y5195000D01*
X17030000Y7795000D02*
X17030000Y10395000D01*
X17030000Y7795000D02*
X14370000Y7795000D01*
X17030000Y10395000D02*
X14370000Y10395000D01*
%TO.C,C20*%
X-11210000Y-9440580D02*
X-11210000Y-9159420D01*
X-10190000Y-9440580D02*
X-10190000Y-9159420D01*
%TO.C,C4*%
X7892164Y-1540000D02*
X8107836Y-1540000D01*
X7892164Y-2260000D02*
X8107836Y-2260000D01*
%TO.C,R54*%
X27580000Y1253641D02*
X27580000Y946359D01*
X26820000Y1253641D02*
X26820000Y946359D01*
%TO.C,C52*%
X20240000Y-2412164D02*
X20240000Y-2627836D01*
X20960000Y-2412164D02*
X20960000Y-2627836D01*
%TO.C,C102*%
X-23612164Y9740000D02*
X-23827836Y9740000D01*
X-23612164Y10460000D02*
X-23827836Y10460000D01*
%TO.C,C7*%
X14440000Y172164D02*
X14440000Y387836D01*
X15160000Y172164D02*
X15160000Y387836D01*
%TO.C,R67*%
X-13446359Y10555000D02*
X-13753641Y10555000D01*
X-13446359Y9795000D02*
X-13753641Y9795000D01*
%TO.C,U51*%
X25930000Y-9670000D02*
X27730000Y-9670000D01*
X31440000Y-9670000D02*
X29980000Y-9670000D01*
X31440000Y-730000D02*
X29980000Y-730000D01*
X25930000Y-730000D02*
X27730000Y-730000D01*
X31440000Y-730000D02*
X31440000Y-9670000D01*
%TO.C,C13*%
X3907836Y6460000D02*
X3692164Y6460000D01*
X3907836Y5740000D02*
X3692164Y5740000D01*
%TO.C,C61*%
X-5792164Y3435000D02*
X-6007836Y3435000D01*
X-5792164Y2715000D02*
X-6007836Y2715000D01*
%TO.C,R4*%
X15146359Y-1520000D02*
X15453641Y-1520000D01*
X15146359Y-2280000D02*
X15453641Y-2280000D01*
%TO.C,D41*%
X17715000Y7565000D02*
X20000000Y7565000D01*
X20000000Y9035000D02*
X17715000Y9035000D01*
X17715000Y9035000D02*
X17715000Y7565000D01*
%TO.C,R50*%
X20216141Y1080000D02*
X19908859Y1080000D01*
X20216141Y320000D02*
X19908859Y320000D01*
%TO.C,R36*%
X-15180000Y-1053641D02*
X-15180000Y-746359D01*
X-14420000Y-1053641D02*
X-14420000Y-746359D01*
%TO.C,R20*%
X-8646359Y-5480000D02*
X-8953641Y-5480000D01*
X-8646359Y-4720000D02*
X-8953641Y-4720000D01*
%TO.C,C11*%
X6407836Y10460000D02*
X6192164Y10460000D01*
X6407836Y9740000D02*
X6192164Y9740000D01*
%TO.C,C70*%
X-16407836Y2310000D02*
X-16192164Y2310000D01*
X-16407836Y1590000D02*
X-16192164Y1590000D01*
%TO.C,U1*%
X5890000Y-310000D02*
X5890000Y340000D01*
X12460000Y6910000D02*
X13110000Y6910000D01*
X12460000Y-310000D02*
X13110000Y-310000D01*
X13110000Y-310000D02*
X13110000Y340000D01*
X6540000Y-310000D02*
X5890000Y-310000D01*
X6540000Y6910000D02*
X5890000Y6910000D01*
X13110000Y6910000D02*
X13110000Y6260000D01*
%TO.C,C9*%
X6192164Y9660000D02*
X6407836Y9660000D01*
X6192164Y8940000D02*
X6407836Y8940000D01*
%TO.C,Q20*%
X-22300000Y-5840000D02*
X-22950000Y-5840000D01*
X-22300000Y-8960000D02*
X-20625000Y-8960000D01*
X-22300000Y-5840000D02*
X-21650000Y-5840000D01*
X-22300000Y-8960000D02*
X-22950000Y-8960000D01*
%TO.C,C74*%
X-22692164Y7090000D02*
X-22907836Y7090000D01*
X-22692164Y7810000D02*
X-22907836Y7810000D01*
%TO.C,R1*%
X3953641Y7280000D02*
X3646359Y7280000D01*
X3953641Y6520000D02*
X3646359Y6520000D01*
%TO.C,R32*%
X-15180000Y-4753641D02*
X-15180000Y-4446359D01*
X-14420000Y-4753641D02*
X-14420000Y-4446359D01*
%TO.C,R43*%
X-12280000Y-6946359D02*
X-12280000Y-7253641D01*
X-11520000Y-6946359D02*
X-11520000Y-7253641D01*
%TO.C,R2*%
X11320000Y9153641D02*
X11320000Y8846359D01*
X12080000Y9153641D02*
X12080000Y8846359D01*
%TO.C,C6*%
X14440000Y2087836D02*
X14440000Y1872164D01*
X15160000Y2087836D02*
X15160000Y1872164D01*
%TO.C,C14*%
X3907836Y2540000D02*
X3692164Y2540000D01*
X3907836Y3260000D02*
X3692164Y3260000D01*
%TO.C,C104*%
X-21897164Y10460000D02*
X-22112836Y10460000D01*
X-21897164Y9740000D02*
X-22112836Y9740000D01*
%TO.C,C1*%
X3692164Y4940000D02*
X3907836Y4940000D01*
X3692164Y5660000D02*
X3907836Y5660000D01*
%TO.C,U70*%
X-20290000Y7765000D02*
X-20740000Y7765000D01*
X-20740000Y3545000D02*
X-20740000Y3995000D01*
X-16520000Y3545000D02*
X-16520000Y3995000D01*
X-16970000Y7765000D02*
X-16520000Y7765000D01*
X-20290000Y3545000D02*
X-20740000Y3545000D01*
X-16520000Y7765000D02*
X-16520000Y7315000D01*
X-16970000Y3545000D02*
X-16520000Y3545000D01*
%TO.C,Q33*%
X-17300000Y-1860000D02*
X-17950000Y-1860000D01*
X-17300000Y1260000D02*
X-17950000Y1260000D01*
X-17300000Y-1860000D02*
X-15625000Y-1860000D01*
X-17300000Y1260000D02*
X-16650000Y1260000D01*
%TO.C,C51*%
X21760000Y-2412164D02*
X21760000Y-2627836D01*
X21040000Y-2412164D02*
X21040000Y-2627836D01*
%TO.C,R66*%
X-14620000Y5753641D02*
X-14620000Y5446359D01*
X-15380000Y5753641D02*
X-15380000Y5446359D01*
%TO.C,C31*%
X-2569190Y-6121693D02*
X-2721693Y-5969190D01*
X-3078307Y-6630810D02*
X-3230810Y-6478307D01*
%TO.C,R55*%
X26480000Y1253641D02*
X26480000Y946359D01*
X25720000Y1253641D02*
X25720000Y946359D01*
%TO.C,C3*%
X3692164Y4140000D02*
X3907836Y4140000D01*
X3692164Y4860000D02*
X3907836Y4860000D01*
%TO.C,U30*%
X10160000Y10668000D02*
X-10160000Y10668000D01*
X-10160000Y10668000D02*
X-10160000Y-10668000D01*
X-10160000Y-10668000D02*
X10160000Y-10668000D01*
X10160000Y-10668000D02*
X10160000Y10668000D01*
X1500000Y1500000D02*
X-1500000Y1500000D01*
X-1500000Y1500000D02*
X-1500000Y-1500000D01*
X-1500000Y-1500000D02*
X1500000Y-1500000D01*
X1500000Y-1500000D02*
X1500000Y1500000D01*
X-2500000Y2000000D02*
X-4500000Y2000000D01*
X-4500000Y2000000D02*
X-4500000Y-2000000D01*
X-4500000Y-2000000D02*
X-2500000Y-2000000D01*
X-2500000Y-2000000D02*
X-2500000Y2000000D01*
X-6350000Y-7620000D02*
G75*
G03*
X-6350000Y-7620000I-1270000J0D01*
G01*
X8890000Y7620000D02*
G75*
G03*
X8890000Y7620000I-1270000J0D01*
G01*
X8890000Y-7620000D02*
G75*
G03*
X8890000Y-7620000I-1270000J0D01*
G01*
X-6350000Y7620000D02*
G75*
G03*
X-6350000Y7620000I-1270000J0D01*
G01*
%TO.C,R40*%
X21653641Y10380000D02*
X21346359Y10380000D01*
X21653641Y9620000D02*
X21346359Y9620000D01*
D12*
%TO.C,U31*%
X-2262742Y-4700000D02*
X-2050610Y-4487868D01*
X247487Y-2684746D02*
X0Y-2437258D01*
X212132Y-6750610D02*
X636396Y-7174874D01*
X-247487Y-6715254D02*
X0Y-6962742D01*
X-2050610Y-4912132D02*
X-2262742Y-4700000D01*
X0Y-2437258D02*
X-212132Y-2649390D01*
X0Y-6962742D02*
X212132Y-6750610D01*
X2050610Y-4912132D02*
X2262742Y-4700000D01*
X2262742Y-4700000D02*
X2050610Y-4487868D01*
D10*
%TO.C,U52*%
X6030000Y-11265000D02*
X6030000Y-9805000D01*
X6030000Y-5755000D02*
X6030000Y-7555000D01*
X14970000Y-5755000D02*
X14970000Y-7555000D01*
X14970000Y-11265000D02*
X6030000Y-11265000D01*
X14970000Y-11265000D02*
X14970000Y-9805000D01*
%TO.C,Q30*%
X-22300000Y-1940000D02*
X-21650000Y-1940000D01*
X-22300000Y-5060000D02*
X-20625000Y-5060000D01*
X-22300000Y-5060000D02*
X-22950000Y-5060000D01*
X-22300000Y-1940000D02*
X-22950000Y-1940000D01*
%TO.C,R65*%
X-14620000Y3953641D02*
X-14620000Y3646359D01*
X-15380000Y3953641D02*
X-15380000Y3646359D01*
%TO.C,C5*%
X12507836Y-1540000D02*
X12292164Y-1540000D01*
X12507836Y-2260000D02*
X12292164Y-2260000D01*
%TO.C,R64*%
X-22646359Y5420000D02*
X-22953641Y5420000D01*
X-22646359Y6180000D02*
X-22953641Y6180000D01*
%TO.C,C65*%
X-9567164Y9815000D02*
X-9782836Y9815000D01*
X-9567164Y10535000D02*
X-9782836Y10535000D01*
%TO.C,U50*%
X17515000Y-4490000D02*
X16790000Y-4490000D01*
X16790000Y-4490000D02*
X16790000Y-5215000D01*
X21285000Y-4490000D02*
X22010000Y-4490000D01*
X22010000Y-4490000D02*
X22010000Y-5215000D01*
X17515000Y-9710000D02*
X16790000Y-9710000D01*
X21285000Y-9710000D02*
X22010000Y-9710000D01*
X16790000Y-9710000D02*
X16790000Y-8985000D01*
%TO.C,U2*%
X10050000Y7950000D02*
X10050000Y10650000D01*
X7750000Y7950000D02*
X10050000Y7950000D01*
%TO.C,C40*%
X3907836Y1740000D02*
X3692164Y1740000D01*
X3907836Y2460000D02*
X3692164Y2460000D01*
%TO.C,R53*%
X19380000Y-2673641D02*
X19380000Y-2366359D01*
X18620000Y-2673641D02*
X18620000Y-2366359D01*
%TO.C,Q31*%
X-17300000Y-2640000D02*
X-17950000Y-2640000D01*
X-17300000Y-5760000D02*
X-17950000Y-5760000D01*
X-17300000Y-2640000D02*
X-16650000Y-2640000D01*
X-17300000Y-5760000D02*
X-15625000Y-5760000D01*
%TO.C,C72*%
X-17892164Y1590000D02*
X-18107836Y1590000D01*
X-17892164Y2310000D02*
X-18107836Y2310000D01*
%TO.C,C60*%
X-3615000Y4767164D02*
X-3615000Y4982836D01*
X-4335000Y4767164D02*
X-4335000Y4982836D01*
%TO.C,C71*%
X-22692164Y6290000D02*
X-22907836Y6290000D01*
X-22692164Y7010000D02*
X-22907836Y7010000D01*
%TO.C,U20*%
X-10060000Y-8700000D02*
X-10060000Y-7900000D01*
X-10060000Y-8700000D02*
X-10060000Y-9500000D01*
X-6940000Y-8700000D02*
X-6940000Y-9500000D01*
X-6940000Y-8700000D02*
X-6940000Y-6900000D01*
%TO.C,C73*%
X-15360000Y2107836D02*
X-15360000Y1892164D01*
X-14640000Y2107836D02*
X-14640000Y1892164D01*
%TO.C,D21*%
X-19850000Y-6900000D02*
X-19850000Y-10050000D01*
X-18150000Y-6900000D02*
X-19850000Y-6900000D01*
X-18150000Y-6900000D02*
X-18150000Y-10050000D01*
%TO.C,JP1*%
X21900000Y6200000D02*
X21900000Y4800000D01*
X20700000Y4800000D02*
X20700000Y6200000D01*
%TO.C,C101*%
X-19527836Y10460000D02*
X-19312164Y10460000D01*
X-19527836Y9740000D02*
X-19312164Y9740000D01*
%TO.C,J201*%
X-28515000Y5110000D02*
X-26015000Y5110000D01*
X-28515000Y-1110000D02*
X-26015000Y-1110000D01*
X-26015000Y-1110000D02*
X-26015000Y-60000D01*
X-26015000Y4060000D02*
X-25025000Y4060000D01*
X-26015000Y5110000D02*
X-26015000Y4060000D01*
X-30485000Y3940000D02*
X-30485000Y60000D01*
%TO.C,J60*%
X-27240000Y9485000D02*
X-27240000Y10115000D01*
X-26600000Y9485000D02*
X-27240000Y9485000D01*
X-26650000Y6765000D02*
X-29350000Y6765000D01*
X-29400000Y9485000D02*
X-28760000Y9485000D01*
%TO.C,R21*%
X-10580000Y-5446359D02*
X-10580000Y-5753641D01*
X-9820000Y-5446359D02*
X-9820000Y-5753641D01*
%TO.C,R5*%
X15453641Y-630000D02*
X15146359Y-630000D01*
X15453641Y-1390000D02*
X15146359Y-1390000D01*
%TO.C,J202*%
X-28515000Y-2390000D02*
X-26015000Y-2390000D01*
X-26015000Y-3440000D02*
X-25025000Y-3440000D01*
X-28515000Y-8610000D02*
X-26015000Y-8610000D01*
X-30485000Y-3560000D02*
X-30485000Y-7440000D01*
X-26015000Y-2390000D02*
X-26015000Y-3440000D01*
X-26015000Y-8610000D02*
X-26015000Y-7560000D01*
%TO.C,C103*%
X-23612164Y9660000D02*
X-23827836Y9660000D01*
X-23612164Y8940000D02*
X-23827836Y8940000D01*
%TO.C,Q51*%
X22162500Y3360000D02*
X22812500Y3360000D01*
X22162500Y240000D02*
X21512500Y240000D01*
X22162500Y240000D02*
X23837500Y240000D01*
X22162500Y3360000D02*
X21512500Y3360000D01*
%TO.C,C8*%
X13407836Y8860000D02*
X13192164Y8860000D01*
X13407836Y8140000D02*
X13192164Y8140000D01*
%TO.C,Q32*%
X-22300000Y-1160000D02*
X-22950000Y-1160000D01*
X-22300000Y-1160000D02*
X-20625000Y-1160000D01*
X-22300000Y1960000D02*
X-22950000Y1960000D01*
X-22300000Y1960000D02*
X-21650000Y1960000D01*
%TO.C,C21*%
X-6560000Y-8392164D02*
X-6560000Y-8607836D01*
X-5840000Y-8392164D02*
X-5840000Y-8607836D01*
%TO.C,J1*%
X-6705000Y-1330000D02*
X-6705000Y1330000D01*
X-10575000Y-1330000D02*
X-11905000Y-1330000D01*
X-9305000Y-1330000D02*
X-6705000Y-1330000D01*
X-9305000Y-1330000D02*
X-9305000Y1330000D01*
X-11905000Y-1330000D02*
X-11905000Y0D01*
X-9305000Y1330000D02*
X-6705000Y1330000D01*
%TO.C,R22*%
X-21346359Y-9720000D02*
X-21653641Y-9720000D01*
X-21346359Y-10480000D02*
X-21653641Y-10480000D01*
%TO.C,R31*%
X-20180000Y-4246359D02*
X-20180000Y-4553641D01*
X-19420000Y-4246359D02*
X-19420000Y-4553641D01*
%TO.C,C64*%
X-6167164Y8140000D02*
X-6382836Y8140000D01*
X-6167164Y8860000D02*
X-6382836Y8860000D01*
%TO.C,R68*%
X-6053641Y1820000D02*
X-5746359Y1820000D01*
X-6053641Y2580000D02*
X-5746359Y2580000D01*
%TO.C,R42*%
X-12280000Y-8746359D02*
X-12280000Y-9053641D01*
X-11520000Y-8746359D02*
X-11520000Y-9053641D01*
%TO.C,R30*%
X-20180000Y-2446359D02*
X-20180000Y-2753641D01*
X-19420000Y-2446359D02*
X-19420000Y-2753641D01*
%TO.C,R57*%
X4420000Y-6563641D02*
X4420000Y-6256359D01*
X5180000Y-6563641D02*
X5180000Y-6256359D01*
%TO.C,U71*%
X-21850000Y2350000D02*
X-21850000Y5050000D01*
X-24150000Y2350000D02*
X-21850000Y2350000D01*
%TO.C,U61*%
X-4525000Y6025000D02*
X-7225000Y6025000D01*
X-4525000Y3725000D02*
X-4525000Y6025000D01*
%TO.C,U60*%
X-8265000Y3965000D02*
X-8265000Y3490000D01*
X-8265000Y3490000D02*
X-8740000Y3490000D01*
X-13485000Y3490000D02*
X-13010000Y3490000D01*
X-13485000Y8710000D02*
X-13010000Y8710000D01*
X-13485000Y8235000D02*
X-13485000Y8710000D01*
X-13485000Y3965000D02*
X-13485000Y3490000D01*
X-8265000Y8235000D02*
X-8265000Y8710000D01*
%TO.C,C2*%
X3692164Y3340000D02*
X3907836Y3340000D01*
X3692164Y4060000D02*
X3907836Y4060000D01*
%TO.C,C23*%
X-7760000Y-5492164D02*
X-7760000Y-5707836D01*
X-7040000Y-5492164D02*
X-7040000Y-5707836D01*
%TO.C,R34*%
X-19420000Y-646359D02*
X-19420000Y-953641D01*
X-20180000Y-646359D02*
X-20180000Y-953641D01*
%TO.C,J200*%
X30385000Y3760000D02*
X30385000Y7640000D01*
X25915000Y2590000D02*
X25915000Y3640000D01*
X25915000Y8810000D02*
X25915000Y7760000D01*
X25915000Y3640000D02*
X24925000Y3640000D01*
X28415000Y2590000D02*
X25915000Y2590000D01*
X28415000Y8810000D02*
X25915000Y8810000D01*
%TO.C,R3*%
X9853641Y-1520000D02*
X9546359Y-1520000D01*
X9853641Y-2280000D02*
X9546359Y-2280000D01*
%TO.C,C22*%
X-8712164Y-5640000D02*
X-8927836Y-5640000D01*
X-8712164Y-6360000D02*
X-8927836Y-6360000D01*
%TO.C,R62*%
X-6121359Y8080000D02*
X-6428641Y8080000D01*
X-6121359Y7320000D02*
X-6428641Y7320000D01*
%TO.C,C100*%
X-19527836Y8940000D02*
X-19312164Y8940000D01*
X-19527836Y9660000D02*
X-19312164Y9660000D01*
%TD*%
%LPC*%
D13*
%TO.C,R10*%
X-6262500Y-2000000D03*
X-3337500Y-2000000D03*
%TD*%
%TO.C,R9*%
X-4262500Y100000D03*
X-1337500Y100000D03*
%TD*%
%TO.C,R8*%
X-2462500Y4300000D03*
X462500Y4300000D03*
%TD*%
%TO.C,R7*%
X-2462500Y6400000D03*
X462500Y6400000D03*
%TD*%
%TO.C,R6*%
X-2452500Y2200000D03*
X472500Y2200000D03*
%TD*%
D14*
%TO.C,R52*%
X19800000Y-3030000D03*
X19800000Y-2010000D03*
%TD*%
D15*
%TO.C,R60*%
X-5765000Y9300000D03*
X-6785000Y9300000D03*
%TD*%
D16*
%TO.C,R63*%
X-12385000Y10175000D03*
X-11365000Y10175000D03*
%TD*%
D17*
%TO.C,JP2*%
X18800000Y6100000D03*
D18*
X18800000Y4900000D03*
%TD*%
D19*
%TO.C,C50*%
X22200000Y-2040000D03*
X22200000Y-3000000D03*
%TD*%
D20*
%TO.C,D42*%
X-14200000Y-7550000D03*
X-14200000Y-10050000D03*
%TD*%
D21*
%TO.C,D60*%
X-16687500Y10000000D03*
X-15112500Y10000000D03*
%TD*%
D20*
%TO.C,D20*%
X-16600000Y-7550000D03*
X-16600000Y-10050000D03*
%TD*%
D22*
%TO.C,Q50*%
X17025000Y2750000D03*
X17025000Y850000D03*
X18900000Y1800000D03*
%TD*%
D23*
%TO.C,R33*%
X-19800000Y1510000D03*
X-19800000Y490000D03*
%TD*%
D19*
%TO.C,C12*%
X10700000Y9480000D03*
X10700000Y8520000D03*
%TD*%
D24*
%TO.C,C63*%
X-8455000Y10175000D03*
X-7495000Y10175000D03*
%TD*%
D14*
%TO.C,R41*%
X21000000Y8090000D03*
X21000000Y9110000D03*
%TD*%
D24*
%TO.C,C10*%
X5820000Y8500000D03*
X6780000Y8500000D03*
%TD*%
D21*
%TO.C,D40*%
X18412500Y9900000D03*
X19987500Y9900000D03*
%TD*%
D24*
%TO.C,C62*%
X-6755000Y6900000D03*
X-5795000Y6900000D03*
%TD*%
D23*
%TO.C,R56*%
X4800000Y-4100000D03*
X4800000Y-5120000D03*
%TD*%
D16*
%TO.C,R51*%
X19552500Y-100000D03*
X20572500Y-100000D03*
%TD*%
D17*
%TO.C,JP60*%
X-13100000Y600000D03*
D18*
X-13100000Y-600000D03*
%TD*%
D25*
%TO.C,J2*%
X15700000Y6525000D03*
D26*
X15700000Y9065000D03*
%TD*%
D27*
%TO.C,C20*%
X-10700000Y-10075000D03*
X-10700000Y-8525000D03*
%TD*%
D24*
%TO.C,C4*%
X7520000Y-1900000D03*
X8480000Y-1900000D03*
%TD*%
D23*
%TO.C,R54*%
X27200000Y1610000D03*
X27200000Y590000D03*
%TD*%
D19*
%TO.C,C52*%
X20600000Y-2040000D03*
X20600000Y-3000000D03*
%TD*%
D28*
%TO.C,C102*%
X-23240000Y10100000D03*
X-24200000Y10100000D03*
%TD*%
D29*
%TO.C,C7*%
X14800000Y-200000D03*
X14800000Y760000D03*
%TD*%
D15*
%TO.C,R67*%
X-13090000Y10175000D03*
X-14110000Y10175000D03*
%TD*%
D30*
%TO.C,U51*%
X25150000Y-2310000D03*
X25150000Y-8090000D03*
D31*
X24090000Y-8400000D03*
X24090000Y-7600000D03*
D32*
X24090000Y-6450000D03*
X24090000Y-5450000D03*
X24090000Y-4950000D03*
X24090000Y-3950000D03*
D31*
X24090000Y-2800000D03*
X24090000Y-2000000D03*
X24090000Y-2000000D03*
X24090000Y-2800000D03*
D32*
X24090000Y-3450000D03*
X24090000Y-4450000D03*
X24090000Y-5950000D03*
X24090000Y-6950000D03*
D31*
X24090000Y-7600000D03*
X24090000Y-8400000D03*
D33*
X24670000Y-9520000D03*
X24670000Y-880000D03*
D34*
X28840000Y-9520000D03*
X28840000Y-880000D03*
%TD*%
D28*
%TO.C,C13*%
X4280000Y6100000D03*
X3320000Y6100000D03*
%TD*%
%TO.C,C61*%
X-5420000Y3075000D03*
X-6380000Y3075000D03*
%TD*%
D16*
%TO.C,R4*%
X14790000Y-1900000D03*
X15810000Y-1900000D03*
%TD*%
D21*
%TO.C,D41*%
X18412500Y8300000D03*
X19987500Y8300000D03*
%TD*%
D15*
%TO.C,R50*%
X20572500Y700000D03*
X19552500Y700000D03*
%TD*%
D14*
%TO.C,R36*%
X-14800000Y-1410000D03*
X-14800000Y-390000D03*
%TD*%
D15*
%TO.C,R20*%
X-8290000Y-5100000D03*
X-9310000Y-5100000D03*
%TD*%
D28*
%TO.C,C11*%
X6780000Y10100000D03*
X5820000Y10100000D03*
%TD*%
D24*
%TO.C,C70*%
X-16780000Y1950000D03*
X-15820000Y1950000D03*
%TD*%
D35*
%TO.C,U1*%
X6062500Y5900000D03*
X6062500Y5500000D03*
X6062500Y5100000D03*
X6062500Y4700000D03*
X6062500Y4300000D03*
X6062500Y3900000D03*
X6062500Y3500000D03*
X6062500Y3100000D03*
X6062500Y2700000D03*
X6062500Y2300000D03*
X6062500Y1900000D03*
X6062500Y1500000D03*
X6062500Y1100000D03*
X6062500Y700000D03*
D36*
X6900000Y-137500D03*
X7300000Y-137500D03*
X7700000Y-137500D03*
X8100000Y-137500D03*
X8500000Y-137500D03*
X8900000Y-137500D03*
X9300000Y-137500D03*
X9700000Y-137500D03*
X10100000Y-137500D03*
X10500000Y-137500D03*
X10900000Y-137500D03*
X11300000Y-137500D03*
X11700000Y-137500D03*
X12100000Y-137500D03*
D35*
X12937500Y700000D03*
X12937500Y1100000D03*
X12937500Y1500000D03*
X12937500Y1900000D03*
X12937500Y2300000D03*
X12937500Y2700000D03*
X12937500Y3100000D03*
X12937500Y3500000D03*
X12937500Y3900000D03*
X12937500Y4300000D03*
X12937500Y4700000D03*
X12937500Y5100000D03*
X12937500Y5500000D03*
X12937500Y5900000D03*
D36*
X12100000Y6737500D03*
X11700000Y6737500D03*
X11300000Y6737500D03*
X10900000Y6737500D03*
X10500000Y6737500D03*
X10100000Y6737500D03*
X9700000Y6737500D03*
X9300000Y6737500D03*
X8900000Y6737500D03*
X8500000Y6737500D03*
X8100000Y6737500D03*
X7700000Y6737500D03*
X7300000Y6737500D03*
X6900000Y6737500D03*
D37*
X9500000Y3300000D03*
%TD*%
D24*
%TO.C,C9*%
X5820000Y9300000D03*
X6780000Y9300000D03*
%TD*%
D38*
%TO.C,Q20*%
X-21362500Y-8350000D03*
X-21362500Y-6450000D03*
X-23237500Y-7400000D03*
%TD*%
D28*
%TO.C,C74*%
X-22320000Y7450000D03*
X-23280000Y7450000D03*
%TD*%
D15*
%TO.C,R1*%
X4310000Y6900000D03*
X3290000Y6900000D03*
%TD*%
D39*
%TO.C,L20*%
X-5500000Y-6725000D03*
X-5500000Y-5075000D03*
%TD*%
D14*
%TO.C,R32*%
X-14800000Y-5110000D03*
X-14800000Y-4090000D03*
%TD*%
D23*
%TO.C,R43*%
X-11900000Y-6590000D03*
X-11900000Y-7610000D03*
%TD*%
%TO.C,R2*%
X11700000Y9510000D03*
X11700000Y8490000D03*
%TD*%
D19*
%TO.C,C6*%
X14800000Y2460000D03*
X14800000Y1500000D03*
%TD*%
D28*
%TO.C,C14*%
X4280000Y2900000D03*
X3320000Y2900000D03*
%TD*%
%TO.C,C104*%
X-21525000Y10100000D03*
X-22485000Y10100000D03*
%TD*%
D24*
%TO.C,C1*%
X3320000Y5300000D03*
X4280000Y5300000D03*
%TD*%
D40*
%TO.C,U70*%
X-20580000Y6905000D03*
X-20580000Y6405000D03*
X-20580000Y5905000D03*
X-20580000Y5405000D03*
X-20580000Y4905000D03*
X-20580000Y4405000D03*
D41*
X-19880000Y3705000D03*
X-19380000Y3705000D03*
X-18880000Y3705000D03*
X-18380000Y3705000D03*
X-17880000Y3705000D03*
X-17380000Y3705000D03*
D40*
X-16680000Y4405000D03*
X-16680000Y4905000D03*
X-16680000Y5405000D03*
X-16680000Y5905000D03*
X-16680000Y6405000D03*
X-16680000Y6905000D03*
D41*
X-17380000Y7605000D03*
X-17880000Y7605000D03*
X-18380000Y7605000D03*
X-18880000Y7605000D03*
X-19380000Y7605000D03*
X-19880000Y7605000D03*
D42*
X-18630000Y5655000D03*
%TD*%
D38*
%TO.C,Q33*%
X-16362500Y-1250000D03*
X-16362500Y650000D03*
X-18237500Y-300000D03*
%TD*%
D19*
%TO.C,C51*%
X21400000Y-2040000D03*
X21400000Y-3000000D03*
%TD*%
D23*
%TO.C,R66*%
X-15000000Y6110000D03*
X-15000000Y5090000D03*
%TD*%
D43*
%TO.C,C31*%
X-2560589Y-6639411D03*
X-3239411Y-5960589D03*
%TD*%
D23*
%TO.C,R55*%
X26100000Y1610000D03*
X26100000Y590000D03*
%TD*%
D24*
%TO.C,C3*%
X3320000Y4500000D03*
X4280000Y4500000D03*
%TD*%
D44*
%TO.C,U30*%
X3810000Y8890000D03*
X1270000Y8890000D03*
X-1270000Y8890000D03*
X-3810000Y8890000D03*
X-3810000Y-8890000D03*
X-1270000Y-8890000D03*
X1270000Y-8890000D03*
X3810000Y-8890000D03*
%TD*%
D15*
%TO.C,R40*%
X22010000Y10000000D03*
X20990000Y10000000D03*
%TD*%
D45*
%TO.C,U31*%
X318198Y-6432412D03*
X671751Y-6078858D03*
X1025305Y-5725305D03*
X1378858Y-5371751D03*
X1732412Y-5018198D03*
D46*
X1378858Y-4028249D03*
X1025305Y-3674695D03*
X671751Y-3321142D03*
D45*
X-318198Y-2967588D03*
X-671751Y-3321142D03*
X-1025305Y-3674695D03*
X-1378858Y-4028249D03*
X-1732412Y-4381802D03*
D46*
X-1378858Y-5371751D03*
X-1025305Y-5725305D03*
X-671751Y-6078858D03*
%TD*%
D30*
%TO.C,U52*%
X7610000Y-4975000D03*
X13390000Y-4975000D03*
D47*
X7300000Y-3915000D03*
X8100000Y-3915000D03*
D48*
X9250000Y-3915000D03*
X10250000Y-3915000D03*
X10750000Y-3915000D03*
X11750000Y-3915000D03*
D47*
X12900000Y-3915000D03*
X13700000Y-3915000D03*
X13700000Y-3915000D03*
X12900000Y-3915000D03*
D48*
X12250000Y-3915000D03*
X11250000Y-3915000D03*
X9750000Y-3915000D03*
X8750000Y-3915000D03*
D47*
X8100000Y-3915000D03*
X7300000Y-3915000D03*
D49*
X6180000Y-4495000D03*
D50*
X14820000Y-8665000D03*
X6180000Y-8665000D03*
D49*
X14820000Y-4495000D03*
%TD*%
D38*
%TO.C,Q30*%
X-21362500Y-4450000D03*
X-21362500Y-2550000D03*
X-23237500Y-3500000D03*
%TD*%
D23*
%TO.C,R65*%
X-15000000Y4310000D03*
X-15000000Y3290000D03*
%TD*%
D28*
%TO.C,C5*%
X12880000Y-1900000D03*
X11920000Y-1900000D03*
%TD*%
D15*
%TO.C,R64*%
X-22290000Y5800000D03*
X-23310000Y5800000D03*
%TD*%
D28*
%TO.C,C65*%
X-9195000Y10175000D03*
X-10155000Y10175000D03*
%TD*%
D51*
%TO.C,U50*%
X21850000Y-8600000D03*
X21850000Y-8100000D03*
X21850000Y-7600000D03*
X21850000Y-7100000D03*
X21850000Y-6600000D03*
X21850000Y-6100000D03*
X21850000Y-5600000D03*
D52*
X20900000Y-4650000D03*
X20400000Y-4650000D03*
X19900000Y-4650000D03*
X19400000Y-4650000D03*
X18900000Y-4650000D03*
X18400000Y-4650000D03*
X17900000Y-4650000D03*
D51*
X16950000Y-5600000D03*
X16950000Y-6100000D03*
X16950000Y-6600000D03*
X16950000Y-7100000D03*
X16950000Y-7600000D03*
X16950000Y-8100000D03*
X16950000Y-8600000D03*
D52*
X17900000Y-9550000D03*
X18400000Y-9550000D03*
X18900000Y-9550000D03*
X19400000Y-9550000D03*
X19900000Y-9550000D03*
X20400000Y-9550000D03*
X20900000Y-9550000D03*
D53*
X19400000Y-7100000D03*
%TD*%
D54*
%TO.C,U2*%
X9450000Y8600000D03*
X9450000Y10000000D03*
X8350000Y10000000D03*
X8350000Y8600000D03*
%TD*%
D28*
%TO.C,C40*%
X4280000Y2100000D03*
X3320000Y2100000D03*
%TD*%
D14*
%TO.C,R53*%
X19000000Y-3030000D03*
X19000000Y-2010000D03*
%TD*%
D38*
%TO.C,Q31*%
X-16362500Y-5150000D03*
X-16362500Y-3250000D03*
X-18237500Y-4200000D03*
%TD*%
D28*
%TO.C,C72*%
X-17520000Y1950000D03*
X-18480000Y1950000D03*
%TD*%
D29*
%TO.C,C60*%
X-3975000Y4395000D03*
X-3975000Y5355000D03*
%TD*%
D55*
%TO.C,L101*%
X-20720000Y9215000D03*
X-20720000Y10185000D03*
%TD*%
D28*
%TO.C,C71*%
X-22320000Y6650000D03*
X-23280000Y6650000D03*
%TD*%
D56*
%TO.C,U20*%
X-7550000Y-7562500D03*
X-8500000Y-7562500D03*
X-9450000Y-7562500D03*
X-9450000Y-9837500D03*
X-8500000Y-9837500D03*
X-7550000Y-9837500D03*
%TD*%
D19*
%TO.C,C73*%
X-15000000Y2480000D03*
X-15000000Y1520000D03*
%TD*%
D20*
%TO.C,D21*%
X-19000000Y-7550000D03*
X-19000000Y-10050000D03*
%TD*%
D57*
%TO.C,JP1*%
X21300000Y4900000D03*
D58*
X21300000Y6100000D03*
%TD*%
D24*
%TO.C,C101*%
X-19900000Y10100000D03*
X-18940000Y10100000D03*
%TD*%
D59*
%TO.C,J201*%
X-25800000Y3500000D03*
X-25800000Y2500000D03*
X-25800000Y1500000D03*
X-25800000Y500000D03*
D60*
X-29675000Y4800000D03*
X-29675000Y-800000D03*
%TD*%
D61*
%TO.C,J60*%
X-28000000Y9650000D03*
D62*
X-26525000Y8125000D03*
X-29475000Y8125000D03*
%TD*%
D23*
%TO.C,R21*%
X-10200000Y-5090000D03*
X-10200000Y-6110000D03*
%TD*%
D63*
%TO.C,L102*%
X-21520000Y9300000D03*
X-22490000Y9300000D03*
%TD*%
D15*
%TO.C,R5*%
X15810000Y-1010000D03*
X14790000Y-1010000D03*
%TD*%
D59*
%TO.C,J202*%
X-25800000Y-4000000D03*
X-25800000Y-5000000D03*
X-25800000Y-6000000D03*
X-25800000Y-7000000D03*
D60*
X-29675000Y-8300000D03*
X-29675000Y-2700000D03*
%TD*%
D28*
%TO.C,C103*%
X-23240000Y9300000D03*
X-24200000Y9300000D03*
%TD*%
D38*
%TO.C,Q51*%
X23100000Y850000D03*
X23100000Y2750000D03*
X21225000Y1800000D03*
%TD*%
D28*
%TO.C,C8*%
X13780000Y8500000D03*
X12820000Y8500000D03*
%TD*%
D38*
%TO.C,Q32*%
X-21362500Y-550000D03*
X-21362500Y1350000D03*
X-23237500Y400000D03*
%TD*%
D19*
%TO.C,C21*%
X-6200000Y-8020000D03*
X-6200000Y-8980000D03*
%TD*%
D25*
%TO.C,J1*%
X-10575000Y0D03*
D26*
X-8035000Y0D03*
%TD*%
D15*
%TO.C,R22*%
X-20990000Y-10100000D03*
X-22010000Y-10100000D03*
%TD*%
D23*
%TO.C,R31*%
X-19800000Y-3890000D03*
X-19800000Y-4910000D03*
%TD*%
D28*
%TO.C,C64*%
X-5795000Y8500000D03*
X-6755000Y8500000D03*
%TD*%
D16*
%TO.C,R68*%
X-6410000Y2200000D03*
X-5390000Y2200000D03*
%TD*%
D23*
%TO.C,R42*%
X-11900000Y-8390000D03*
X-11900000Y-9410000D03*
%TD*%
%TO.C,R30*%
X-19800000Y-2090000D03*
X-19800000Y-3110000D03*
%TD*%
D14*
%TO.C,R57*%
X4800000Y-6920000D03*
X4800000Y-5900000D03*
%TD*%
D54*
%TO.C,U71*%
X-22450000Y3000000D03*
X-22450000Y4400000D03*
X-23550000Y4400000D03*
X-23550000Y3000000D03*
%TD*%
D64*
%TO.C,U61*%
X-5175000Y5425000D03*
X-6575000Y5425000D03*
X-6575000Y4325000D03*
X-5175000Y4325000D03*
%TD*%
D65*
%TO.C,U60*%
X-9125000Y8550000D03*
X-9625000Y8550000D03*
X-10125000Y8550000D03*
X-10625000Y8550000D03*
X-11125000Y8550000D03*
X-11625000Y8550000D03*
X-12125000Y8550000D03*
X-12625000Y8550000D03*
D66*
X-13325000Y7850000D03*
X-13325000Y7350000D03*
X-13325000Y6850000D03*
X-13325000Y6350000D03*
X-13325000Y5850000D03*
X-13325000Y5350000D03*
X-13325000Y4850000D03*
X-13325000Y4350000D03*
D65*
X-12625000Y3650000D03*
X-12125000Y3650000D03*
X-11625000Y3650000D03*
X-11125000Y3650000D03*
X-10625000Y3650000D03*
X-10125000Y3650000D03*
X-9625000Y3650000D03*
X-9125000Y3650000D03*
D66*
X-8425000Y4350000D03*
X-8425000Y4850000D03*
X-8425000Y5350000D03*
X-8425000Y5850000D03*
X-8425000Y6350000D03*
X-8425000Y6850000D03*
X-8425000Y7350000D03*
X-8425000Y7850000D03*
D67*
X-10875000Y6100000D03*
%TD*%
D24*
%TO.C,C2*%
X3320000Y3700000D03*
X4280000Y3700000D03*
%TD*%
D19*
%TO.C,C23*%
X-7400000Y-5120000D03*
X-7400000Y-6080000D03*
%TD*%
D23*
%TO.C,R34*%
X-19800000Y-290000D03*
X-19800000Y-1310000D03*
%TD*%
D68*
%TO.C,J200*%
X25700000Y4200000D03*
X25700000Y5200000D03*
X25700000Y6200000D03*
X25700000Y7200000D03*
D69*
X29575000Y8500000D03*
X29575000Y2900000D03*
%TD*%
D15*
%TO.C,R3*%
X10210000Y-1900000D03*
X9190000Y-1900000D03*
%TD*%
D28*
%TO.C,C22*%
X-8340000Y-6000000D03*
X-9300000Y-6000000D03*
%TD*%
D15*
%TO.C,R62*%
X-5765000Y7700000D03*
X-6785000Y7700000D03*
%TD*%
D24*
%TO.C,C100*%
X-19900000Y9300000D03*
X-18940000Y9300000D03*
%TD*%
M02*
