%TF.GenerationSoftware,KiCad,Pcbnew,(6.0.5)*%
%TF.CreationDate,2022-11-18T19:02:11-05:00*%
%TF.ProjectId,SimpleMelt-Hardware,53696d70-6c65-44d6-956c-742d48617264,rev?*%
%TF.SameCoordinates,Original*%
%TF.FileFunction,Soldermask,Top*%
%TF.FilePolarity,Negative*%
%FSLAX46Y46*%
G04 Gerber Fmt 4.6, Leading zero omitted, Abs format (unit mm)*
G04 Created by KiCad (PCBNEW (6.0.5)) date 2022-11-18 19:02:11*
%MOMM*%
%LPD*%
G01*
G04 APERTURE LIST*
G04 Aperture macros list*
%AMRoundRect*
0 Rectangle with rounded corners*
0 $1 Rounding radius*
0 $2 $3 $4 $5 $6 $7 $8 $9 X,Y pos of 4 corners*
0 Add a 4 corners polygon primitive as box body*
4,1,4,$2,$3,$4,$5,$6,$7,$8,$9,$2,$3,0*
0 Add four circle primitives for the rounded corners*
1,1,$1+$1,$2,$3*
1,1,$1+$1,$4,$5*
1,1,$1+$1,$6,$7*
1,1,$1+$1,$8,$9*
0 Add four rect primitives between the rounded corners*
20,1,$1+$1,$2,$3,$4,$5,0*
20,1,$1+$1,$4,$5,$6,$7,0*
20,1,$1+$1,$6,$7,$8,$9,0*
20,1,$1+$1,$8,$9,$2,$3,0*%
%AMRotRect*
0 Rectangle, with rotation*
0 The origin of the aperture is its center*
0 $1 length*
0 $2 width*
0 $3 Rotation angle, in degrees counterclockwise*
0 Add horizontal line*
21,1,$1,$2,0,0,$3*%
%AMFreePoly0*
4,1,13,0.500000,-0.500000,0.000000,-0.500000,-0.095671,-0.480970,-0.176777,-0.426777,-0.230970,-0.345671,-0.250000,-0.250000,-0.250000,0.250000,-0.230970,0.345671,-0.176777,0.426777,-0.095671,0.480970,0.000000,0.500000,0.500000,0.500000,0.500000,-0.500000,0.500000,-0.500000,$1*%
%AMFreePoly1*
4,1,13,0.095671,0.480970,0.176777,0.426777,0.230970,0.345671,0.250000,0.250000,0.250000,-0.250000,0.230970,-0.345671,0.176777,-0.426777,0.095671,-0.480970,0.000000,-0.500000,-0.500000,-0.500000,-0.500000,0.500000,0.000000,0.500000,0.095671,0.480970,0.095671,0.480970,$1*%
G04 Aperture macros list end*
%ADD10RoundRect,0.250000X-0.312500X-0.625000X0.312500X-0.625000X0.312500X0.625000X-0.312500X0.625000X0*%
%ADD11RoundRect,0.135000X0.185000X-0.135000X0.185000X0.135000X-0.185000X0.135000X-0.185000X-0.135000X0*%
%ADD12RoundRect,0.135000X0.135000X0.185000X-0.135000X0.185000X-0.135000X-0.185000X0.135000X-0.185000X0*%
%ADD13RoundRect,0.135000X-0.135000X-0.185000X0.135000X-0.185000X0.135000X0.185000X-0.135000X0.185000X0*%
%ADD14FreePoly0,270.000000*%
%ADD15FreePoly1,270.000000*%
%ADD16RoundRect,0.140000X-0.170000X0.140000X-0.170000X-0.140000X0.170000X-0.140000X0.170000X0.140000X0*%
%ADD17R,1.000000X1.000000*%
%ADD18RoundRect,0.218750X-0.218750X-0.256250X0.218750X-0.256250X0.218750X0.256250X-0.218750X0.256250X0*%
%ADD19RoundRect,0.150000X-0.587500X-0.150000X0.587500X-0.150000X0.587500X0.150000X-0.587500X0.150000X0*%
%ADD20RoundRect,0.135000X-0.185000X0.135000X-0.185000X-0.135000X0.185000X-0.135000X0.185000X0.135000X0*%
%ADD21RoundRect,0.140000X-0.140000X-0.170000X0.140000X-0.170000X0.140000X0.170000X-0.140000X0.170000X0*%
%ADD22R,1.700000X1.700000*%
%ADD23O,1.700000X1.700000*%
%ADD24RoundRect,0.225000X0.250000X-0.225000X0.250000X0.225000X-0.250000X0.225000X-0.250000X-0.225000X0*%
%ADD25RoundRect,0.140000X0.140000X0.170000X-0.140000X0.170000X-0.140000X-0.170000X0.140000X-0.170000X0*%
%ADD26RoundRect,0.140000X0.170000X-0.140000X0.170000X0.140000X-0.170000X0.140000X-0.170000X-0.140000X0*%
%ADD27C,0.600000*%
%ADD28R,1.160000X0.600000*%
%ADD29R,1.160000X0.300000*%
%ADD30O,2.000000X0.900000*%
%ADD31O,1.700000X0.900000*%
%ADD32RoundRect,0.050000X-0.387500X-0.050000X0.387500X-0.050000X0.387500X0.050000X-0.387500X0.050000X0*%
%ADD33RoundRect,0.050000X-0.050000X-0.387500X0.050000X-0.387500X0.050000X0.387500X-0.050000X0.387500X0*%
%ADD34R,4.000000X4.000000*%
%ADD35RoundRect,0.150000X0.587500X0.150000X-0.587500X0.150000X-0.587500X-0.150000X0.587500X-0.150000X0*%
%ADD36RoundRect,0.212500X0.887500X-0.212500X0.887500X0.212500X-0.887500X0.212500X-0.887500X-0.212500X0*%
%ADD37RoundRect,0.075000X-0.350000X-0.075000X0.350000X-0.075000X0.350000X0.075000X-0.350000X0.075000X0*%
%ADD38RoundRect,0.075000X-0.075000X-0.350000X0.075000X-0.350000X0.075000X0.350000X-0.075000X0.350000X0*%
%ADD39R,2.650000X2.650000*%
%ADD40RoundRect,0.140000X0.219203X0.021213X0.021213X0.219203X-0.219203X-0.021213X-0.021213X-0.219203X0*%
%ADD41C,1.778000*%
%ADD42RotRect,1.000000X0.300000X135.000000*%
%ADD43RotRect,0.300000X1.000000X135.000000*%
%ADD44R,0.600000X1.160000*%
%ADD45R,0.300000X1.160000*%
%ADD46O,0.900000X2.000000*%
%ADD47O,0.900000X1.700000*%
%ADD48RoundRect,0.062500X0.337500X0.062500X-0.337500X0.062500X-0.337500X-0.062500X0.337500X-0.062500X0*%
%ADD49RoundRect,0.062500X0.062500X0.337500X-0.062500X0.337500X-0.062500X-0.337500X0.062500X-0.337500X0*%
%ADD50R,3.350000X3.350000*%
%ADD51R,0.800000X0.900000*%
%ADD52RoundRect,0.147500X0.172500X-0.147500X0.172500X0.147500X-0.172500X0.147500X-0.172500X-0.147500X0*%
%ADD53RoundRect,0.150000X-0.150000X0.512500X-0.150000X-0.512500X0.150000X-0.512500X0.150000X0.512500X0*%
%ADD54FreePoly0,90.000000*%
%ADD55FreePoly1,90.000000*%
%ADD56RoundRect,0.150000X-0.625000X0.150000X-0.625000X-0.150000X0.625000X-0.150000X0.625000X0.150000X0*%
%ADD57RoundRect,0.250000X-0.650000X0.350000X-0.650000X-0.350000X0.650000X-0.350000X0.650000X0.350000X0*%
%ADD58R,1.000000X1.050000*%
%ADD59R,1.050000X2.200000*%
%ADD60RoundRect,0.147500X0.147500X0.172500X-0.147500X0.172500X-0.147500X-0.172500X0.147500X-0.172500X0*%
%ADD61R,0.900000X0.800000*%
%ADD62RoundRect,0.062500X-0.062500X0.337500X-0.062500X-0.337500X0.062500X-0.337500X0.062500X0.337500X0*%
%ADD63RoundRect,0.062500X-0.337500X0.062500X-0.337500X-0.062500X0.337500X-0.062500X0.337500X0.062500X0*%
%ADD64R,3.700000X3.700000*%
%ADD65RoundRect,0.150000X0.625000X-0.150000X0.625000X0.150000X-0.625000X0.150000X-0.625000X-0.150000X0*%
%ADD66RoundRect,0.250000X0.650000X-0.350000X0.650000X0.350000X-0.650000X0.350000X-0.650000X-0.350000X0*%
G04 APERTURE END LIST*
D10*
%TO.C,R10*%
X-6262500Y-2000000D03*
X-3337500Y-2000000D03*
%TD*%
%TO.C,R9*%
X-4262500Y100000D03*
X-1337500Y100000D03*
%TD*%
%TO.C,R8*%
X-2462500Y4300000D03*
X462500Y4300000D03*
%TD*%
%TO.C,R7*%
X-2462500Y6400000D03*
X462500Y6400000D03*
%TD*%
%TO.C,R6*%
X-2452500Y2200000D03*
X472500Y2200000D03*
%TD*%
D11*
%TO.C,R52*%
X19800000Y-3030000D03*
X19800000Y-2010000D03*
%TD*%
D12*
%TO.C,R60*%
X-5765000Y9300000D03*
X-6785000Y9300000D03*
%TD*%
D13*
%TO.C,R63*%
X-12385000Y10175000D03*
X-11365000Y10175000D03*
%TD*%
D14*
%TO.C,JP2*%
X18800000Y6100000D03*
D15*
X18800000Y4900000D03*
%TD*%
D16*
%TO.C,C50*%
X22200000Y-2040000D03*
X22200000Y-3000000D03*
%TD*%
D17*
%TO.C,D42*%
X-14200000Y-7550000D03*
X-14200000Y-10050000D03*
%TD*%
D18*
%TO.C,D60*%
X-16687500Y10000000D03*
X-15112500Y10000000D03*
%TD*%
D17*
%TO.C,D20*%
X-16600000Y-7550000D03*
X-16600000Y-10050000D03*
%TD*%
D19*
%TO.C,Q50*%
X17025000Y2750000D03*
X17025000Y850000D03*
X18900000Y1800000D03*
%TD*%
D20*
%TO.C,R33*%
X-19800000Y1510000D03*
X-19800000Y490000D03*
%TD*%
D16*
%TO.C,C12*%
X10700000Y9480000D03*
X10700000Y8520000D03*
%TD*%
D21*
%TO.C,C63*%
X-8455000Y10175000D03*
X-7495000Y10175000D03*
%TD*%
D11*
%TO.C,R41*%
X21000000Y8090000D03*
X21000000Y9110000D03*
%TD*%
D21*
%TO.C,C10*%
X5820000Y8500000D03*
X6780000Y8500000D03*
%TD*%
D18*
%TO.C,D40*%
X18412500Y9900000D03*
X19987500Y9900000D03*
%TD*%
D21*
%TO.C,C62*%
X-6755000Y6900000D03*
X-5795000Y6900000D03*
%TD*%
D20*
%TO.C,R56*%
X4800000Y-4100000D03*
X4800000Y-5120000D03*
%TD*%
D13*
%TO.C,R51*%
X19552500Y-100000D03*
X20572500Y-100000D03*
%TD*%
D14*
%TO.C,JP60*%
X-13100000Y600000D03*
D15*
X-13100000Y-600000D03*
%TD*%
D22*
%TO.C,J2*%
X15700000Y6525000D03*
D23*
X15700000Y9065000D03*
%TD*%
D24*
%TO.C,C20*%
X-10700000Y-10075000D03*
X-10700000Y-8525000D03*
%TD*%
D21*
%TO.C,C4*%
X7520000Y-1900000D03*
X8480000Y-1900000D03*
%TD*%
D20*
%TO.C,R54*%
X27200000Y1610000D03*
X27200000Y590000D03*
%TD*%
D16*
%TO.C,C52*%
X20600000Y-2040000D03*
X20600000Y-3000000D03*
%TD*%
D25*
%TO.C,C102*%
X-23240000Y10100000D03*
X-24200000Y10100000D03*
%TD*%
D26*
%TO.C,C7*%
X14800000Y-200000D03*
X14800000Y760000D03*
%TD*%
D12*
%TO.C,R67*%
X-13090000Y10175000D03*
X-14110000Y10175000D03*
%TD*%
D27*
%TO.C,U51*%
X25150000Y-2310000D03*
X25150000Y-8090000D03*
D28*
X24090000Y-8400000D03*
X24090000Y-7600000D03*
D29*
X24090000Y-6450000D03*
X24090000Y-5450000D03*
X24090000Y-4950000D03*
X24090000Y-3950000D03*
D28*
X24090000Y-2800000D03*
X24090000Y-2000000D03*
X24090000Y-2000000D03*
X24090000Y-2800000D03*
D29*
X24090000Y-3450000D03*
X24090000Y-4450000D03*
X24090000Y-5950000D03*
X24090000Y-6950000D03*
D28*
X24090000Y-7600000D03*
X24090000Y-8400000D03*
D30*
X24670000Y-9520000D03*
X24670000Y-880000D03*
D31*
X28840000Y-9520000D03*
X28840000Y-880000D03*
%TD*%
D25*
%TO.C,C13*%
X4280000Y6100000D03*
X3320000Y6100000D03*
%TD*%
%TO.C,C61*%
X-5420000Y3075000D03*
X-6380000Y3075000D03*
%TD*%
D13*
%TO.C,R4*%
X14790000Y-1900000D03*
X15810000Y-1900000D03*
%TD*%
D18*
%TO.C,D41*%
X18412500Y8300000D03*
X19987500Y8300000D03*
%TD*%
D12*
%TO.C,R50*%
X20572500Y700000D03*
X19552500Y700000D03*
%TD*%
D11*
%TO.C,R36*%
X-14800000Y-1410000D03*
X-14800000Y-390000D03*
%TD*%
D12*
%TO.C,R20*%
X-8290000Y-5100000D03*
X-9310000Y-5100000D03*
%TD*%
D25*
%TO.C,C11*%
X6780000Y10100000D03*
X5820000Y10100000D03*
%TD*%
D21*
%TO.C,C70*%
X-16780000Y1950000D03*
X-15820000Y1950000D03*
%TD*%
D32*
%TO.C,U1*%
X6062500Y5900000D03*
X6062500Y5500000D03*
X6062500Y5100000D03*
X6062500Y4700000D03*
X6062500Y4300000D03*
X6062500Y3900000D03*
X6062500Y3500000D03*
X6062500Y3100000D03*
X6062500Y2700000D03*
X6062500Y2300000D03*
X6062500Y1900000D03*
X6062500Y1500000D03*
X6062500Y1100000D03*
X6062500Y700000D03*
D33*
X6900000Y-137500D03*
X7300000Y-137500D03*
X7700000Y-137500D03*
X8100000Y-137500D03*
X8500000Y-137500D03*
X8900000Y-137500D03*
X9300000Y-137500D03*
X9700000Y-137500D03*
X10100000Y-137500D03*
X10500000Y-137500D03*
X10900000Y-137500D03*
X11300000Y-137500D03*
X11700000Y-137500D03*
X12100000Y-137500D03*
D32*
X12937500Y700000D03*
X12937500Y1100000D03*
X12937500Y1500000D03*
X12937500Y1900000D03*
X12937500Y2300000D03*
X12937500Y2700000D03*
X12937500Y3100000D03*
X12937500Y3500000D03*
X12937500Y3900000D03*
X12937500Y4300000D03*
X12937500Y4700000D03*
X12937500Y5100000D03*
X12937500Y5500000D03*
X12937500Y5900000D03*
D33*
X12100000Y6737500D03*
X11700000Y6737500D03*
X11300000Y6737500D03*
X10900000Y6737500D03*
X10500000Y6737500D03*
X10100000Y6737500D03*
X9700000Y6737500D03*
X9300000Y6737500D03*
X8900000Y6737500D03*
X8500000Y6737500D03*
X8100000Y6737500D03*
X7700000Y6737500D03*
X7300000Y6737500D03*
X6900000Y6737500D03*
D34*
X9500000Y3300000D03*
%TD*%
D21*
%TO.C,C9*%
X5820000Y9300000D03*
X6780000Y9300000D03*
%TD*%
D35*
%TO.C,Q20*%
X-21362500Y-8350000D03*
X-21362500Y-6450000D03*
X-23237500Y-7400000D03*
%TD*%
D25*
%TO.C,C74*%
X-22320000Y7450000D03*
X-23280000Y7450000D03*
%TD*%
D12*
%TO.C,R1*%
X4310000Y6900000D03*
X3290000Y6900000D03*
%TD*%
D36*
%TO.C,L20*%
X-5500000Y-6725000D03*
X-5500000Y-5075000D03*
%TD*%
D11*
%TO.C,R32*%
X-14800000Y-5110000D03*
X-14800000Y-4090000D03*
%TD*%
D20*
%TO.C,R43*%
X-11900000Y-6590000D03*
X-11900000Y-7610000D03*
%TD*%
%TO.C,R2*%
X11700000Y9510000D03*
X11700000Y8490000D03*
%TD*%
D16*
%TO.C,C6*%
X14800000Y2460000D03*
X14800000Y1500000D03*
%TD*%
D25*
%TO.C,C14*%
X4280000Y2900000D03*
X3320000Y2900000D03*
%TD*%
%TO.C,C104*%
X-21525000Y10100000D03*
X-22485000Y10100000D03*
%TD*%
D21*
%TO.C,C1*%
X3320000Y5300000D03*
X4280000Y5300000D03*
%TD*%
D37*
%TO.C,U70*%
X-20580000Y6905000D03*
X-20580000Y6405000D03*
X-20580000Y5905000D03*
X-20580000Y5405000D03*
X-20580000Y4905000D03*
X-20580000Y4405000D03*
D38*
X-19880000Y3705000D03*
X-19380000Y3705000D03*
X-18880000Y3705000D03*
X-18380000Y3705000D03*
X-17880000Y3705000D03*
X-17380000Y3705000D03*
D37*
X-16680000Y4405000D03*
X-16680000Y4905000D03*
X-16680000Y5405000D03*
X-16680000Y5905000D03*
X-16680000Y6405000D03*
X-16680000Y6905000D03*
D38*
X-17380000Y7605000D03*
X-17880000Y7605000D03*
X-18380000Y7605000D03*
X-18880000Y7605000D03*
X-19380000Y7605000D03*
X-19880000Y7605000D03*
D39*
X-18630000Y5655000D03*
%TD*%
D35*
%TO.C,Q33*%
X-16362500Y-1250000D03*
X-16362500Y650000D03*
X-18237500Y-300000D03*
%TD*%
D16*
%TO.C,C51*%
X21400000Y-2040000D03*
X21400000Y-3000000D03*
%TD*%
D20*
%TO.C,R66*%
X-15000000Y6110000D03*
X-15000000Y5090000D03*
%TD*%
D40*
%TO.C,C31*%
X-2560589Y-6639411D03*
X-3239411Y-5960589D03*
%TD*%
D20*
%TO.C,R55*%
X26100000Y1610000D03*
X26100000Y590000D03*
%TD*%
D21*
%TO.C,C3*%
X3320000Y4500000D03*
X4280000Y4500000D03*
%TD*%
D41*
%TO.C,U30*%
X3810000Y8890000D03*
X1270000Y8890000D03*
X-1270000Y8890000D03*
X-3810000Y8890000D03*
X-3810000Y-8890000D03*
X-1270000Y-8890000D03*
X1270000Y-8890000D03*
X3810000Y-8890000D03*
%TD*%
D12*
%TO.C,R40*%
X22010000Y10000000D03*
X20990000Y10000000D03*
%TD*%
D42*
%TO.C,U31*%
X318198Y-6432412D03*
X671751Y-6078858D03*
X1025305Y-5725305D03*
X1378858Y-5371751D03*
X1732412Y-5018198D03*
D43*
X1378858Y-4028249D03*
X1025305Y-3674695D03*
X671751Y-3321142D03*
D42*
X-318198Y-2967588D03*
X-671751Y-3321142D03*
X-1025305Y-3674695D03*
X-1378858Y-4028249D03*
X-1732412Y-4381802D03*
D43*
X-1378858Y-5371751D03*
X-1025305Y-5725305D03*
X-671751Y-6078858D03*
%TD*%
D27*
%TO.C,U52*%
X7610000Y-4975000D03*
X13390000Y-4975000D03*
D44*
X7300000Y-3915000D03*
X8100000Y-3915000D03*
D45*
X9250000Y-3915000D03*
X10250000Y-3915000D03*
X10750000Y-3915000D03*
X11750000Y-3915000D03*
D44*
X12900000Y-3915000D03*
X13700000Y-3915000D03*
X13700000Y-3915000D03*
X12900000Y-3915000D03*
D45*
X12250000Y-3915000D03*
X11250000Y-3915000D03*
X9750000Y-3915000D03*
X8750000Y-3915000D03*
D44*
X8100000Y-3915000D03*
X7300000Y-3915000D03*
D46*
X6180000Y-4495000D03*
D47*
X14820000Y-8665000D03*
X6180000Y-8665000D03*
D46*
X14820000Y-4495000D03*
%TD*%
D35*
%TO.C,Q30*%
X-21362500Y-4450000D03*
X-21362500Y-2550000D03*
X-23237500Y-3500000D03*
%TD*%
D20*
%TO.C,R65*%
X-15000000Y4310000D03*
X-15000000Y3290000D03*
%TD*%
D25*
%TO.C,C5*%
X12880000Y-1900000D03*
X11920000Y-1900000D03*
%TD*%
D12*
%TO.C,R64*%
X-22290000Y5800000D03*
X-23310000Y5800000D03*
%TD*%
D25*
%TO.C,C65*%
X-9195000Y10175000D03*
X-10155000Y10175000D03*
%TD*%
D48*
%TO.C,U50*%
X21850000Y-8600000D03*
X21850000Y-8100000D03*
X21850000Y-7600000D03*
X21850000Y-7100000D03*
X21850000Y-6600000D03*
X21850000Y-6100000D03*
X21850000Y-5600000D03*
D49*
X20900000Y-4650000D03*
X20400000Y-4650000D03*
X19900000Y-4650000D03*
X19400000Y-4650000D03*
X18900000Y-4650000D03*
X18400000Y-4650000D03*
X17900000Y-4650000D03*
D48*
X16950000Y-5600000D03*
X16950000Y-6100000D03*
X16950000Y-6600000D03*
X16950000Y-7100000D03*
X16950000Y-7600000D03*
X16950000Y-8100000D03*
X16950000Y-8600000D03*
D49*
X17900000Y-9550000D03*
X18400000Y-9550000D03*
X18900000Y-9550000D03*
X19400000Y-9550000D03*
X19900000Y-9550000D03*
X20400000Y-9550000D03*
X20900000Y-9550000D03*
D50*
X19400000Y-7100000D03*
%TD*%
D51*
%TO.C,U2*%
X9450000Y8600000D03*
X9450000Y10000000D03*
X8350000Y10000000D03*
X8350000Y8600000D03*
%TD*%
D25*
%TO.C,C40*%
X4280000Y2100000D03*
X3320000Y2100000D03*
%TD*%
D11*
%TO.C,R53*%
X19000000Y-3030000D03*
X19000000Y-2010000D03*
%TD*%
D35*
%TO.C,Q31*%
X-16362500Y-5150000D03*
X-16362500Y-3250000D03*
X-18237500Y-4200000D03*
%TD*%
D25*
%TO.C,C72*%
X-17520000Y1950000D03*
X-18480000Y1950000D03*
%TD*%
D26*
%TO.C,C60*%
X-3975000Y4395000D03*
X-3975000Y5355000D03*
%TD*%
D52*
%TO.C,L101*%
X-20720000Y9215000D03*
X-20720000Y10185000D03*
%TD*%
D25*
%TO.C,C71*%
X-22320000Y6650000D03*
X-23280000Y6650000D03*
%TD*%
D53*
%TO.C,U20*%
X-7550000Y-7562500D03*
X-8500000Y-7562500D03*
X-9450000Y-7562500D03*
X-9450000Y-9837500D03*
X-8500000Y-9837500D03*
X-7550000Y-9837500D03*
%TD*%
D16*
%TO.C,C73*%
X-15000000Y2480000D03*
X-15000000Y1520000D03*
%TD*%
D17*
%TO.C,D21*%
X-19000000Y-7550000D03*
X-19000000Y-10050000D03*
%TD*%
D54*
%TO.C,JP1*%
X21300000Y4900000D03*
D55*
X21300000Y6100000D03*
%TD*%
D21*
%TO.C,C101*%
X-19900000Y10100000D03*
X-18940000Y10100000D03*
%TD*%
D56*
%TO.C,J201*%
X-25800000Y3500000D03*
X-25800000Y2500000D03*
X-25800000Y1500000D03*
X-25800000Y500000D03*
D57*
X-29675000Y4800000D03*
X-29675000Y-800000D03*
%TD*%
D58*
%TO.C,J60*%
X-28000000Y9650000D03*
D59*
X-26525000Y8125000D03*
X-29475000Y8125000D03*
%TD*%
D20*
%TO.C,R21*%
X-10200000Y-5090000D03*
X-10200000Y-6110000D03*
%TD*%
D60*
%TO.C,L102*%
X-21520000Y9300000D03*
X-22490000Y9300000D03*
%TD*%
D12*
%TO.C,R5*%
X15810000Y-1010000D03*
X14790000Y-1010000D03*
%TD*%
D56*
%TO.C,J202*%
X-25800000Y-4000000D03*
X-25800000Y-5000000D03*
X-25800000Y-6000000D03*
X-25800000Y-7000000D03*
D57*
X-29675000Y-8300000D03*
X-29675000Y-2700000D03*
%TD*%
D25*
%TO.C,C103*%
X-23240000Y9300000D03*
X-24200000Y9300000D03*
%TD*%
D35*
%TO.C,Q51*%
X23100000Y850000D03*
X23100000Y2750000D03*
X21225000Y1800000D03*
%TD*%
D25*
%TO.C,C8*%
X13780000Y8500000D03*
X12820000Y8500000D03*
%TD*%
D35*
%TO.C,Q32*%
X-21362500Y-550000D03*
X-21362500Y1350000D03*
X-23237500Y400000D03*
%TD*%
D16*
%TO.C,C21*%
X-6200000Y-8020000D03*
X-6200000Y-8980000D03*
%TD*%
D22*
%TO.C,J1*%
X-10575000Y0D03*
D23*
X-8035000Y0D03*
%TD*%
D12*
%TO.C,R22*%
X-20990000Y-10100000D03*
X-22010000Y-10100000D03*
%TD*%
D20*
%TO.C,R31*%
X-19800000Y-3890000D03*
X-19800000Y-4910000D03*
%TD*%
D25*
%TO.C,C64*%
X-5795000Y8500000D03*
X-6755000Y8500000D03*
%TD*%
D13*
%TO.C,R68*%
X-6410000Y2200000D03*
X-5390000Y2200000D03*
%TD*%
D20*
%TO.C,R42*%
X-11900000Y-8390000D03*
X-11900000Y-9410000D03*
%TD*%
%TO.C,R30*%
X-19800000Y-2090000D03*
X-19800000Y-3110000D03*
%TD*%
D11*
%TO.C,R57*%
X4800000Y-6920000D03*
X4800000Y-5900000D03*
%TD*%
D51*
%TO.C,U71*%
X-22450000Y3000000D03*
X-22450000Y4400000D03*
X-23550000Y4400000D03*
X-23550000Y3000000D03*
%TD*%
D61*
%TO.C,U61*%
X-5175000Y5425000D03*
X-6575000Y5425000D03*
X-6575000Y4325000D03*
X-5175000Y4325000D03*
%TD*%
D62*
%TO.C,U60*%
X-9125000Y8550000D03*
X-9625000Y8550000D03*
X-10125000Y8550000D03*
X-10625000Y8550000D03*
X-11125000Y8550000D03*
X-11625000Y8550000D03*
X-12125000Y8550000D03*
X-12625000Y8550000D03*
D63*
X-13325000Y7850000D03*
X-13325000Y7350000D03*
X-13325000Y6850000D03*
X-13325000Y6350000D03*
X-13325000Y5850000D03*
X-13325000Y5350000D03*
X-13325000Y4850000D03*
X-13325000Y4350000D03*
D62*
X-12625000Y3650000D03*
X-12125000Y3650000D03*
X-11625000Y3650000D03*
X-11125000Y3650000D03*
X-10625000Y3650000D03*
X-10125000Y3650000D03*
X-9625000Y3650000D03*
X-9125000Y3650000D03*
D63*
X-8425000Y4350000D03*
X-8425000Y4850000D03*
X-8425000Y5350000D03*
X-8425000Y5850000D03*
X-8425000Y6350000D03*
X-8425000Y6850000D03*
X-8425000Y7350000D03*
X-8425000Y7850000D03*
D64*
X-10875000Y6100000D03*
%TD*%
D21*
%TO.C,C2*%
X3320000Y3700000D03*
X4280000Y3700000D03*
%TD*%
D16*
%TO.C,C23*%
X-7400000Y-5120000D03*
X-7400000Y-6080000D03*
%TD*%
D20*
%TO.C,R34*%
X-19800000Y-290000D03*
X-19800000Y-1310000D03*
%TD*%
D65*
%TO.C,J200*%
X25700000Y4200000D03*
X25700000Y5200000D03*
X25700000Y6200000D03*
X25700000Y7200000D03*
D66*
X29575000Y8500000D03*
X29575000Y2900000D03*
%TD*%
D12*
%TO.C,R3*%
X10210000Y-1900000D03*
X9190000Y-1900000D03*
%TD*%
D25*
%TO.C,C22*%
X-8340000Y-6000000D03*
X-9300000Y-6000000D03*
%TD*%
D12*
%TO.C,R62*%
X-5765000Y7700000D03*
X-6785000Y7700000D03*
%TD*%
D21*
%TO.C,C100*%
X-19900000Y9300000D03*
X-18940000Y9300000D03*
%TD*%
M02*
