%TF.GenerationSoftware,KiCad,Pcbnew,(6.0.5)*%
%TF.CreationDate,2022-11-18T19:02:11-05:00*%
%TF.ProjectId,SimpleMelt-Hardware,53696d70-6c65-44d6-956c-742d48617264,rev?*%
%TF.SameCoordinates,Original*%
%TF.FileFunction,Legend,Bot*%
%TF.FilePolarity,Positive*%
%FSLAX46Y46*%
G04 Gerber Fmt 4.6, Leading zero omitted, Abs format (unit mm)*
G04 Created by KiCad (PCBNEW (6.0.5)) date 2022-11-18 19:02:11*
%MOMM*%
%LPD*%
G01*
G04 APERTURE LIST*
%ADD10C,0.300000*%
%ADD11C,0.010000*%
%ADD12R,1.700000X1.700000*%
%ADD13O,1.700000X1.700000*%
%ADD14C,0.600000*%
%ADD15O,2.000000X0.900000*%
%ADD16O,1.700000X0.900000*%
%ADD17C,1.778000*%
%ADD18O,0.900000X2.000000*%
%ADD19O,0.900000X1.700000*%
G04 APERTURE END LIST*
D10*
X-29064285Y-6821428D02*
X-29564285Y-7535714D01*
X-29921428Y-6821428D02*
X-29921428Y-8321428D01*
X-29350000Y-8321428D01*
X-29207142Y-8250000D01*
X-29135714Y-8178571D01*
X-29064285Y-8035714D01*
X-29064285Y-7821428D01*
X-29135714Y-7678571D01*
X-29207142Y-7607142D01*
X-29350000Y-7535714D01*
X-29921428Y-7535714D01*
X-28207142Y-6821428D02*
X-28350000Y-6892857D01*
X-28421428Y-6964285D01*
X-28492857Y-7107142D01*
X-28492857Y-7535714D01*
X-28421428Y-7678571D01*
X-28350000Y-7750000D01*
X-28207142Y-7821428D01*
X-27992857Y-7821428D01*
X-27850000Y-7750000D01*
X-27778571Y-7678571D01*
X-27707142Y-7535714D01*
X-27707142Y-7107142D01*
X-27778571Y-6964285D01*
X-27850000Y-6892857D01*
X-27992857Y-6821428D01*
X-28207142Y-6821428D01*
X-27278571Y-7821428D02*
X-26707142Y-7821428D01*
X-27064285Y-8321428D02*
X-27064285Y-7035714D01*
X-26992857Y-6892857D01*
X-26850000Y-6821428D01*
X-26707142Y-6821428D01*
X-26207142Y-6821428D02*
X-26207142Y-7821428D01*
X-26207142Y-8321428D02*
X-26278571Y-8250000D01*
X-26207142Y-8178571D01*
X-26135714Y-8250000D01*
X-26207142Y-8321428D01*
X-26207142Y-8178571D01*
X-25492857Y-7821428D02*
X-25492857Y-6821428D01*
X-25492857Y-7678571D02*
X-25421428Y-7750000D01*
X-25278571Y-7821428D01*
X-25064285Y-7821428D01*
X-24921428Y-7750000D01*
X-24850000Y-7607142D01*
X-24850000Y-6821428D01*
X-24135714Y-6821428D02*
X-24135714Y-7821428D01*
X-24135714Y-8321428D02*
X-24207142Y-8250000D01*
X-24135714Y-8178571D01*
X-24064285Y-8250000D01*
X-24135714Y-8321428D01*
X-24135714Y-8178571D01*
X-22492857Y-8321428D02*
X-21992857Y-6821428D01*
X-21492857Y-8321428D01*
X-20207142Y-6821428D02*
X-21064285Y-6821428D01*
X-20635714Y-6821428D02*
X-20635714Y-8321428D01*
X-20778571Y-8107142D01*
X-20921428Y-7964285D01*
X-21064285Y-7892857D01*
X-28885714Y-5464285D02*
X-29028571Y-5535714D01*
X-29314285Y-5535714D01*
X-29457142Y-5464285D01*
X-29600000Y-5321428D01*
X-29671428Y-5178571D01*
X-29671428Y-4892857D01*
X-29600000Y-4749999D01*
X-29457142Y-4607142D01*
X-29314285Y-4535714D01*
X-29028571Y-4535714D01*
X-28885714Y-4607142D01*
X-29171428Y-6035714D02*
X-29528571Y-5964285D01*
X-29885714Y-5749999D01*
X-30100000Y-5392857D01*
X-30171428Y-5035714D01*
X-30100000Y-4678571D01*
X-29885714Y-4321428D01*
X-29528571Y-4107142D01*
X-29171428Y-4035714D01*
X-28814285Y-4107142D01*
X-28457142Y-4321428D01*
X-28242857Y-4678571D01*
X-28171428Y-5035714D01*
X-28242857Y-5392857D01*
X-28457142Y-5749999D01*
X-28814285Y-5964285D01*
X-29171428Y-6035714D01*
X-26457142Y-5678571D02*
X-26385714Y-5749999D01*
X-26242857Y-5821428D01*
X-25885714Y-5821428D01*
X-25742857Y-5749999D01*
X-25671428Y-5678571D01*
X-25600000Y-5535714D01*
X-25600000Y-5392857D01*
X-25671428Y-5178571D01*
X-26528571Y-4321428D01*
X-25600000Y-4321428D01*
X-24671428Y-5821428D02*
X-24528571Y-5821428D01*
X-24385714Y-5749999D01*
X-24314285Y-5678571D01*
X-24242857Y-5535714D01*
X-24171428Y-5249999D01*
X-24171428Y-4892857D01*
X-24242857Y-4607142D01*
X-24314285Y-4464285D01*
X-24385714Y-4392857D01*
X-24528571Y-4321428D01*
X-24671428Y-4321428D01*
X-24814285Y-4392857D01*
X-24885714Y-4464285D01*
X-24957142Y-4607142D01*
X-25028571Y-4892857D01*
X-25028571Y-5249999D01*
X-24957142Y-5535714D01*
X-24885714Y-5678571D01*
X-24814285Y-5749999D01*
X-24671428Y-5821428D01*
X-23600000Y-5678571D02*
X-23528571Y-5749999D01*
X-23385714Y-5821428D01*
X-23028571Y-5821428D01*
X-22885714Y-5749999D01*
X-22814285Y-5678571D01*
X-22742857Y-5535714D01*
X-22742857Y-5392857D01*
X-22814285Y-5178571D01*
X-23671428Y-4321428D01*
X-22742857Y-4321428D01*
X-22171428Y-5678571D02*
X-22100000Y-5749999D01*
X-21957142Y-5821428D01*
X-21600000Y-5821428D01*
X-21457142Y-5749999D01*
X-21385714Y-5678571D01*
X-21314285Y-5535714D01*
X-21314285Y-5392857D01*
X-21385714Y-5178571D01*
X-22242857Y-4321428D01*
X-21314285Y-4321428D01*
X-19600000Y-4750000D02*
X-18885714Y-4750000D01*
X-19742857Y-4321428D02*
X-19242857Y-5821428D01*
X-18742857Y-4321428D01*
X-18028571Y-4321428D02*
X-18171428Y-4392857D01*
X-18242857Y-4535714D01*
X-18242857Y-5821428D01*
X-17671428Y-5321428D02*
X-17100000Y-5321428D01*
X-17457142Y-4321428D02*
X-17457142Y-5607142D01*
X-17385714Y-5750000D01*
X-17242857Y-5821428D01*
X-17100000Y-5821428D01*
X-16600000Y-4321428D02*
X-16600000Y-5321428D01*
X-16600000Y-5035714D02*
X-16528571Y-5178571D01*
X-16457142Y-5250000D01*
X-16314285Y-5321428D01*
X-16171428Y-5321428D01*
X-15100000Y-4392857D02*
X-15242857Y-4321428D01*
X-15528571Y-4321428D01*
X-15671428Y-4392857D01*
X-15742857Y-4535714D01*
X-15742857Y-5107142D01*
X-15671428Y-5250000D01*
X-15528571Y-5321428D01*
X-15242857Y-5321428D01*
X-15100000Y-5250000D01*
X-15028571Y-5107142D01*
X-15028571Y-4964285D01*
X-15742857Y-4821428D01*
X-13742857Y-4321428D02*
X-13742857Y-5821428D01*
X-13742857Y-4392857D02*
X-13885714Y-4321428D01*
X-14171428Y-4321428D01*
X-14314285Y-4392857D01*
X-14385714Y-4464285D01*
X-14457142Y-4607142D01*
X-14457142Y-5035714D01*
X-14385714Y-5178571D01*
X-14314285Y-5250000D01*
X-14171428Y-5321428D01*
X-13885714Y-5321428D01*
X-13742857Y-5250000D01*
X-12814285Y-4321428D02*
X-12957142Y-4392857D01*
X-13028571Y-4464285D01*
X-13100000Y-4607142D01*
X-13100000Y-5035714D01*
X-13028571Y-5178571D01*
X-12957142Y-5250000D01*
X-12814285Y-5321428D01*
X-12600000Y-5321428D01*
X-12457142Y-5250000D01*
X-12385714Y-5178571D01*
X-12314285Y-5035714D01*
X-12314285Y-4607142D01*
X-12385714Y-4464285D01*
X-12457142Y-4392857D01*
X-12600000Y-4321428D01*
X-12814285Y-4321428D01*
X-10600000Y-4392857D02*
X-10385714Y-4321428D01*
X-10028571Y-4321428D01*
X-9885714Y-4392857D01*
X-9814285Y-4464285D01*
X-9742857Y-4607142D01*
X-9742857Y-4750000D01*
X-9814285Y-4892857D01*
X-9885714Y-4964285D01*
X-10028571Y-5035714D01*
X-10314285Y-5107142D01*
X-10457142Y-5178571D01*
X-10528571Y-5250000D01*
X-10600000Y-5392857D01*
X-10600000Y-5535714D01*
X-10528571Y-5678571D01*
X-10457142Y-5750000D01*
X-10314285Y-5821428D01*
X-9957142Y-5821428D01*
X-9742857Y-5750000D01*
X-9242857Y-5321428D02*
X-8885714Y-4321428D01*
X-8528571Y-5321428D02*
X-8885714Y-4321428D01*
X-9028571Y-3964285D01*
X-9100000Y-3892857D01*
X-9242857Y-3821428D01*
X-8028571Y-4392857D02*
X-7885714Y-4321428D01*
X-7600000Y-4321428D01*
X-7457142Y-4392857D01*
X-7385714Y-4535714D01*
X-7385714Y-4607142D01*
X-7457142Y-4750000D01*
X-7600000Y-4821428D01*
X-7814285Y-4821428D01*
X-7957142Y-4892857D01*
X-8028571Y-5035714D01*
X-8028571Y-5107142D01*
X-7957142Y-5250000D01*
X-7814285Y-5321428D01*
X-7600000Y-5321428D01*
X-7457142Y-5250000D01*
X-6957142Y-5321428D02*
X-6385714Y-5321428D01*
X-6742857Y-5821428D02*
X-6742857Y-4535714D01*
X-6671428Y-4392857D01*
X-6528571Y-4321428D01*
X-6385714Y-4321428D01*
X-5314285Y-4392857D02*
X-5457142Y-4321428D01*
X-5742857Y-4321428D01*
X-5885714Y-4392857D01*
X-5957142Y-4535714D01*
X-5957142Y-5107142D01*
X-5885714Y-5250000D01*
X-5742857Y-5321428D01*
X-5457142Y-5321428D01*
X-5314285Y-5250000D01*
X-5242857Y-5107142D01*
X-5242857Y-4964285D01*
X-5957142Y-4821428D01*
X-4600000Y-4321428D02*
X-4600000Y-5321428D01*
X-4600000Y-5178571D02*
X-4528571Y-5250000D01*
X-4385714Y-5321428D01*
X-4171428Y-5321428D01*
X-4028571Y-5250000D01*
X-3957142Y-5107142D01*
X-3957142Y-4321428D01*
X-3957142Y-5107142D02*
X-3885714Y-5250000D01*
X-3742857Y-5321428D01*
X-3528571Y-5321428D01*
X-3385714Y-5250000D01*
X-3314285Y-5107142D01*
X-3314285Y-4321428D01*
X-2671428Y-4392857D02*
X-2528571Y-4321428D01*
X-2242857Y-4321428D01*
X-2100000Y-4392857D01*
X-2028571Y-4535714D01*
X-2028571Y-4607142D01*
X-2100000Y-4750000D01*
X-2242857Y-4821428D01*
X-2457142Y-4821428D01*
X-2600000Y-4892857D01*
X-2671428Y-5035714D01*
X-2671428Y-5107142D01*
X-2600000Y-5250000D01*
X-2457142Y-5321428D01*
X-2242857Y-5321428D01*
X-2100000Y-5250000D01*
%TO.C,G\u002A\u002A\u002A*%
G36*
X-30366091Y6313375D02*
G01*
X-30305879Y6425392D01*
X-30209390Y6534429D01*
X-30078784Y6639598D01*
X-29916220Y6740007D01*
X-29723858Y6834767D01*
X-29503857Y6922987D01*
X-29258376Y7003776D01*
X-28989575Y7076245D01*
X-28699613Y7139504D01*
X-28390649Y7192661D01*
X-28064842Y7234828D01*
X-27925114Y7246952D01*
X-27762257Y7255789D01*
X-27588576Y7260997D01*
X-27414011Y7262491D01*
X-27248498Y7260190D01*
X-27101977Y7254009D01*
X-26984385Y7243866D01*
X-26982553Y7243643D01*
X-26755832Y7206362D01*
X-26535758Y7151956D01*
X-26328755Y7082873D01*
X-26141248Y7001558D01*
X-25979661Y6910459D01*
X-25850419Y6812022D01*
X-25821671Y6784922D01*
X-25692255Y6634335D01*
X-25599476Y6470325D01*
X-25543427Y6293095D01*
X-25524199Y6102846D01*
X-25524249Y6079778D01*
X-25526500Y6014297D01*
X-25532963Y5949733D01*
X-25545008Y5881469D01*
X-25564004Y5804889D01*
X-25591321Y5715377D01*
X-25628330Y5608318D01*
X-25676399Y5479095D01*
X-25736900Y5323091D01*
X-25811200Y5135692D01*
X-25856766Y5020951D01*
X-25938083Y4812308D01*
X-26006462Y4630319D01*
X-26063938Y4468957D01*
X-26112548Y4322192D01*
X-26154329Y4183997D01*
X-26191316Y4048344D01*
X-26225547Y3909205D01*
X-26247279Y3811293D01*
X-26263438Y3719716D01*
X-26273005Y3631047D01*
X-26277445Y3531313D01*
X-26278220Y3406538D01*
X-26278189Y3400030D01*
X-26272275Y3223155D01*
X-26254792Y3071571D01*
X-26222916Y2932875D01*
X-26173822Y2794665D01*
X-26104686Y2644538D01*
X-26084845Y2604091D01*
X-26042318Y2506400D01*
X-26021336Y2431383D01*
X-26021500Y2371938D01*
X-26042408Y2320962D01*
X-26083662Y2271354D01*
X-26121680Y2237087D01*
X-26169946Y2211574D01*
X-26228701Y2204923D01*
X-26255806Y2206410D01*
X-26323433Y2226865D01*
X-26384745Y2274367D01*
X-26443824Y2352774D01*
X-26504751Y2465945D01*
X-26505574Y2467665D01*
X-26615426Y2739737D01*
X-26686925Y3017198D01*
X-26720199Y3301138D01*
X-26715377Y3592652D01*
X-26672587Y3892831D01*
X-26630288Y4082264D01*
X-26564363Y4333626D01*
X-26488344Y4586301D01*
X-26407382Y4822234D01*
X-26380873Y4895039D01*
X-26356417Y4964374D01*
X-26340512Y5012124D01*
X-26335738Y5030786D01*
X-26335831Y5030848D01*
X-26357058Y5032851D01*
X-26409373Y5035460D01*
X-26485105Y5038346D01*
X-26576581Y5041177D01*
X-26813547Y5047769D01*
X-26924211Y4758533D01*
X-27038850Y4434984D01*
X-27136991Y4094488D01*
X-27204241Y3772683D01*
X-27240876Y3467168D01*
X-27247170Y3175548D01*
X-27223402Y2895423D01*
X-27169846Y2624396D01*
X-27144638Y2533292D01*
X-27088570Y2372958D01*
X-27017290Y2220003D01*
X-26925605Y2063946D01*
X-26808326Y1894303D01*
X-26784508Y1856926D01*
X-26759505Y1776659D01*
X-26773362Y1700104D01*
X-26826123Y1626585D01*
X-26832260Y1620596D01*
X-26906448Y1570686D01*
X-26983576Y1559510D01*
X-27063785Y1587116D01*
X-27147217Y1653549D01*
X-27234014Y1758855D01*
X-27353120Y1950479D01*
X-27467267Y2192895D01*
X-27558205Y2456437D01*
X-27624429Y2734619D01*
X-27664432Y3020956D01*
X-27676708Y3308963D01*
X-27659752Y3592154D01*
X-27636375Y3757492D01*
X-27590261Y3998584D01*
X-27529658Y4253928D01*
X-27457503Y4512381D01*
X-27376734Y4762799D01*
X-27290288Y4994038D01*
X-27287234Y5001578D01*
X-27265847Y5056322D01*
X-27258984Y5084558D01*
X-27266455Y5095064D01*
X-27288072Y5096615D01*
X-27297052Y5096939D01*
X-27343242Y5100319D01*
X-27417006Y5106789D01*
X-27510294Y5115624D01*
X-27615056Y5126097D01*
X-27728037Y5138047D01*
X-28137116Y5188081D01*
X-28513987Y5245289D01*
X-28858099Y5309438D01*
X-29168899Y5380299D01*
X-29445836Y5457641D01*
X-29688358Y5541232D01*
X-29895914Y5630841D01*
X-30067951Y5726239D01*
X-30203919Y5827192D01*
X-30303266Y5933472D01*
X-30365439Y6044846D01*
X-30389888Y6161084D01*
X-30387766Y6179628D01*
X-29941421Y6179628D01*
X-29926558Y6118528D01*
X-29875971Y6057460D01*
X-29788683Y5994501D01*
X-29663719Y5927729D01*
X-29612853Y5904052D01*
X-29387712Y5814570D01*
X-29126433Y5732827D01*
X-28828639Y5658748D01*
X-28493955Y5592256D01*
X-28122006Y5533274D01*
X-27712415Y5481724D01*
X-27264807Y5437532D01*
X-27115383Y5424553D01*
X-27081306Y5539007D01*
X-27064285Y5610174D01*
X-27048205Y5706977D01*
X-27038834Y5800000D01*
X-27042229Y5928116D01*
X-27070416Y6030030D01*
X-27125391Y6108595D01*
X-27209077Y6167967D01*
X-27230299Y6178664D01*
X-27268054Y6194396D01*
X-27307793Y6203687D01*
X-27358771Y6207543D01*
X-27430243Y6206969D01*
X-27531462Y6202968D01*
X-27603479Y6198545D01*
X-27843166Y6169729D01*
X-28108962Y6118424D01*
X-28396972Y6045342D01*
X-28433094Y6035589D01*
X-28520223Y6015025D01*
X-28596616Y6000770D01*
X-28648980Y5995458D01*
X-28683788Y5997694D01*
X-28764769Y6022131D01*
X-28826662Y6068480D01*
X-28862844Y6130464D01*
X-28866692Y6201807D01*
X-28865523Y6206980D01*
X-28853681Y6233151D01*
X-28829991Y6257634D01*
X-28791136Y6281548D01*
X-28733796Y6306009D01*
X-28654653Y6332137D01*
X-28550387Y6361048D01*
X-28417681Y6393861D01*
X-28253214Y6431695D01*
X-28053669Y6475665D01*
X-28011562Y6484738D01*
X-27883235Y6510840D01*
X-27778332Y6528738D01*
X-27685675Y6539863D01*
X-27594085Y6545646D01*
X-27492385Y6547517D01*
X-27329458Y6542922D01*
X-27141059Y6520277D01*
X-26982721Y6478079D01*
X-26851882Y6415587D01*
X-26745980Y6332062D01*
X-26710423Y6293695D01*
X-26656474Y6215935D01*
X-26620136Y6126691D01*
X-26598309Y6017064D01*
X-26587894Y5878154D01*
X-26585746Y5804840D01*
X-26586462Y5725834D01*
X-26593011Y5663529D01*
X-26607002Y5604906D01*
X-26630041Y5536947D01*
X-26634102Y5525776D01*
X-26656588Y5461851D01*
X-26671484Y5415911D01*
X-26675742Y5397265D01*
X-26675099Y5397044D01*
X-26650153Y5395063D01*
X-26594705Y5392486D01*
X-26516225Y5389622D01*
X-26422185Y5386779D01*
X-26172601Y5379923D01*
X-26116263Y5526462D01*
X-26091887Y5590769D01*
X-26048916Y5712490D01*
X-26019432Y5813514D01*
X-26001181Y5903909D01*
X-25991908Y5993741D01*
X-25989359Y6093077D01*
X-25989401Y6110162D01*
X-25991680Y6200865D01*
X-25998953Y6267093D01*
X-26013328Y6321411D01*
X-26036916Y6376385D01*
X-26102840Y6483027D01*
X-26213295Y6597273D01*
X-26358146Y6696058D01*
X-26538075Y6779832D01*
X-26753761Y6849044D01*
X-26773566Y6854254D01*
X-26837495Y6869923D01*
X-26897198Y6881738D01*
X-26959892Y6890345D01*
X-27032794Y6896391D01*
X-27123122Y6900524D01*
X-27238093Y6903390D01*
X-27384923Y6905637D01*
X-27494843Y6906529D01*
X-27718552Y6904429D01*
X-27911060Y6896804D01*
X-28068608Y6883771D01*
X-28254831Y6859953D01*
X-28521779Y6816125D01*
X-28777889Y6762846D01*
X-29019128Y6701394D01*
X-29241462Y6633046D01*
X-29440857Y6559079D01*
X-29613280Y6480769D01*
X-29754696Y6399395D01*
X-29861073Y6316234D01*
X-29867882Y6309612D01*
X-29921537Y6242682D01*
X-29941421Y6179628D01*
X-30387766Y6179628D01*
X-30376060Y6281955D01*
X-30366091Y6313375D01*
G37*
D11*
X-30366091Y6313375D02*
X-30305879Y6425392D01*
X-30209390Y6534429D01*
X-30078784Y6639598D01*
X-29916220Y6740007D01*
X-29723858Y6834767D01*
X-29503857Y6922987D01*
X-29258376Y7003776D01*
X-28989575Y7076245D01*
X-28699613Y7139504D01*
X-28390649Y7192661D01*
X-28064842Y7234828D01*
X-27925114Y7246952D01*
X-27762257Y7255789D01*
X-27588576Y7260997D01*
X-27414011Y7262491D01*
X-27248498Y7260190D01*
X-27101977Y7254009D01*
X-26984385Y7243866D01*
X-26982553Y7243643D01*
X-26755832Y7206362D01*
X-26535758Y7151956D01*
X-26328755Y7082873D01*
X-26141248Y7001558D01*
X-25979661Y6910459D01*
X-25850419Y6812022D01*
X-25821671Y6784922D01*
X-25692255Y6634335D01*
X-25599476Y6470325D01*
X-25543427Y6293095D01*
X-25524199Y6102846D01*
X-25524249Y6079778D01*
X-25526500Y6014297D01*
X-25532963Y5949733D01*
X-25545008Y5881469D01*
X-25564004Y5804889D01*
X-25591321Y5715377D01*
X-25628330Y5608318D01*
X-25676399Y5479095D01*
X-25736900Y5323091D01*
X-25811200Y5135692D01*
X-25856766Y5020951D01*
X-25938083Y4812308D01*
X-26006462Y4630319D01*
X-26063938Y4468957D01*
X-26112548Y4322192D01*
X-26154329Y4183997D01*
X-26191316Y4048344D01*
X-26225547Y3909205D01*
X-26247279Y3811293D01*
X-26263438Y3719716D01*
X-26273005Y3631047D01*
X-26277445Y3531313D01*
X-26278220Y3406538D01*
X-26278189Y3400030D01*
X-26272275Y3223155D01*
X-26254792Y3071571D01*
X-26222916Y2932875D01*
X-26173822Y2794665D01*
X-26104686Y2644538D01*
X-26084845Y2604091D01*
X-26042318Y2506400D01*
X-26021336Y2431383D01*
X-26021500Y2371938D01*
X-26042408Y2320962D01*
X-26083662Y2271354D01*
X-26121680Y2237087D01*
X-26169946Y2211574D01*
X-26228701Y2204923D01*
X-26255806Y2206410D01*
X-26323433Y2226865D01*
X-26384745Y2274367D01*
X-26443824Y2352774D01*
X-26504751Y2465945D01*
X-26505574Y2467665D01*
X-26615426Y2739737D01*
X-26686925Y3017198D01*
X-26720199Y3301138D01*
X-26715377Y3592652D01*
X-26672587Y3892831D01*
X-26630288Y4082264D01*
X-26564363Y4333626D01*
X-26488344Y4586301D01*
X-26407382Y4822234D01*
X-26380873Y4895039D01*
X-26356417Y4964374D01*
X-26340512Y5012124D01*
X-26335738Y5030786D01*
X-26335831Y5030848D01*
X-26357058Y5032851D01*
X-26409373Y5035460D01*
X-26485105Y5038346D01*
X-26576581Y5041177D01*
X-26813547Y5047769D01*
X-26924211Y4758533D01*
X-27038850Y4434984D01*
X-27136991Y4094488D01*
X-27204241Y3772683D01*
X-27240876Y3467168D01*
X-27247170Y3175548D01*
X-27223402Y2895423D01*
X-27169846Y2624396D01*
X-27144638Y2533292D01*
X-27088570Y2372958D01*
X-27017290Y2220003D01*
X-26925605Y2063946D01*
X-26808326Y1894303D01*
X-26784508Y1856926D01*
X-26759505Y1776659D01*
X-26773362Y1700104D01*
X-26826123Y1626585D01*
X-26832260Y1620596D01*
X-26906448Y1570686D01*
X-26983576Y1559510D01*
X-27063785Y1587116D01*
X-27147217Y1653549D01*
X-27234014Y1758855D01*
X-27353120Y1950479D01*
X-27467267Y2192895D01*
X-27558205Y2456437D01*
X-27624429Y2734619D01*
X-27664432Y3020956D01*
X-27676708Y3308963D01*
X-27659752Y3592154D01*
X-27636375Y3757492D01*
X-27590261Y3998584D01*
X-27529658Y4253928D01*
X-27457503Y4512381D01*
X-27376734Y4762799D01*
X-27290288Y4994038D01*
X-27287234Y5001578D01*
X-27265847Y5056322D01*
X-27258984Y5084558D01*
X-27266455Y5095064D01*
X-27288072Y5096615D01*
X-27297052Y5096939D01*
X-27343242Y5100319D01*
X-27417006Y5106789D01*
X-27510294Y5115624D01*
X-27615056Y5126097D01*
X-27728037Y5138047D01*
X-28137116Y5188081D01*
X-28513987Y5245289D01*
X-28858099Y5309438D01*
X-29168899Y5380299D01*
X-29445836Y5457641D01*
X-29688358Y5541232D01*
X-29895914Y5630841D01*
X-30067951Y5726239D01*
X-30203919Y5827192D01*
X-30303266Y5933472D01*
X-30365439Y6044846D01*
X-30389888Y6161084D01*
X-30387766Y6179628D01*
X-29941421Y6179628D01*
X-29926558Y6118528D01*
X-29875971Y6057460D01*
X-29788683Y5994501D01*
X-29663719Y5927729D01*
X-29612853Y5904052D01*
X-29387712Y5814570D01*
X-29126433Y5732827D01*
X-28828639Y5658748D01*
X-28493955Y5592256D01*
X-28122006Y5533274D01*
X-27712415Y5481724D01*
X-27264807Y5437532D01*
X-27115383Y5424553D01*
X-27081306Y5539007D01*
X-27064285Y5610174D01*
X-27048205Y5706977D01*
X-27038834Y5800000D01*
X-27042229Y5928116D01*
X-27070416Y6030030D01*
X-27125391Y6108595D01*
X-27209077Y6167967D01*
X-27230299Y6178664D01*
X-27268054Y6194396D01*
X-27307793Y6203687D01*
X-27358771Y6207543D01*
X-27430243Y6206969D01*
X-27531462Y6202968D01*
X-27603479Y6198545D01*
X-27843166Y6169729D01*
X-28108962Y6118424D01*
X-28396972Y6045342D01*
X-28433094Y6035589D01*
X-28520223Y6015025D01*
X-28596616Y6000770D01*
X-28648980Y5995458D01*
X-28683788Y5997694D01*
X-28764769Y6022131D01*
X-28826662Y6068480D01*
X-28862844Y6130464D01*
X-28866692Y6201807D01*
X-28865523Y6206980D01*
X-28853681Y6233151D01*
X-28829991Y6257634D01*
X-28791136Y6281548D01*
X-28733796Y6306009D01*
X-28654653Y6332137D01*
X-28550387Y6361048D01*
X-28417681Y6393861D01*
X-28253214Y6431695D01*
X-28053669Y6475665D01*
X-28011562Y6484738D01*
X-27883235Y6510840D01*
X-27778332Y6528738D01*
X-27685675Y6539863D01*
X-27594085Y6545646D01*
X-27492385Y6547517D01*
X-27329458Y6542922D01*
X-27141059Y6520277D01*
X-26982721Y6478079D01*
X-26851882Y6415587D01*
X-26745980Y6332062D01*
X-26710423Y6293695D01*
X-26656474Y6215935D01*
X-26620136Y6126691D01*
X-26598309Y6017064D01*
X-26587894Y5878154D01*
X-26585746Y5804840D01*
X-26586462Y5725834D01*
X-26593011Y5663529D01*
X-26607002Y5604906D01*
X-26630041Y5536947D01*
X-26634102Y5525776D01*
X-26656588Y5461851D01*
X-26671484Y5415911D01*
X-26675742Y5397265D01*
X-26675099Y5397044D01*
X-26650153Y5395063D01*
X-26594705Y5392486D01*
X-26516225Y5389622D01*
X-26422185Y5386779D01*
X-26172601Y5379923D01*
X-26116263Y5526462D01*
X-26091887Y5590769D01*
X-26048916Y5712490D01*
X-26019432Y5813514D01*
X-26001181Y5903909D01*
X-25991908Y5993741D01*
X-25989359Y6093077D01*
X-25989401Y6110162D01*
X-25991680Y6200865D01*
X-25998953Y6267093D01*
X-26013328Y6321411D01*
X-26036916Y6376385D01*
X-26102840Y6483027D01*
X-26213295Y6597273D01*
X-26358146Y6696058D01*
X-26538075Y6779832D01*
X-26753761Y6849044D01*
X-26773566Y6854254D01*
X-26837495Y6869923D01*
X-26897198Y6881738D01*
X-26959892Y6890345D01*
X-27032794Y6896391D01*
X-27123122Y6900524D01*
X-27238093Y6903390D01*
X-27384923Y6905637D01*
X-27494843Y6906529D01*
X-27718552Y6904429D01*
X-27911060Y6896804D01*
X-28068608Y6883771D01*
X-28254831Y6859953D01*
X-28521779Y6816125D01*
X-28777889Y6762846D01*
X-29019128Y6701394D01*
X-29241462Y6633046D01*
X-29440857Y6559079D01*
X-29613280Y6480769D01*
X-29754696Y6399395D01*
X-29861073Y6316234D01*
X-29867882Y6309612D01*
X-29921537Y6242682D01*
X-29941421Y6179628D01*
X-30387766Y6179628D01*
X-30376060Y6281955D01*
X-30366091Y6313375D01*
G36*
X-29746976Y8309773D02*
G01*
X-29549841Y8570111D01*
X-29529006Y8594572D01*
X-29336726Y8794234D01*
X-29111374Y8988231D01*
X-28858268Y9173204D01*
X-28582722Y9345792D01*
X-28290050Y9502635D01*
X-27985569Y9640373D01*
X-27674593Y9755646D01*
X-27616625Y9774490D01*
X-27426856Y9831984D01*
X-27244931Y9879518D01*
X-27061465Y9918957D01*
X-26867077Y9952166D01*
X-26652383Y9981009D01*
X-26408000Y10007352D01*
X-26348780Y10011445D01*
X-26245655Y10014949D01*
X-26120070Y10016611D01*
X-25981300Y10016505D01*
X-25838623Y10014706D01*
X-25701317Y10011288D01*
X-25578658Y10006327D01*
X-25479923Y9999895D01*
X-25366359Y9989226D01*
X-24919957Y9926962D01*
X-24497345Y9834071D01*
X-24097650Y9710158D01*
X-23719999Y9554827D01*
X-23363520Y9367684D01*
X-23027340Y9148333D01*
X-22710586Y8896380D01*
X-22412385Y8611430D01*
X-22273945Y8460396D01*
X-22047640Y8176505D01*
X-21858194Y7883760D01*
X-21704362Y7579539D01*
X-21584898Y7261215D01*
X-21498556Y6926167D01*
X-21444091Y6571769D01*
X-21439372Y6524656D01*
X-21429479Y6363531D01*
X-21433231Y6230482D01*
X-21451127Y6118542D01*
X-21483667Y6020743D01*
X-21530614Y5937340D01*
X-21621048Y5832474D01*
X-21738376Y5737487D01*
X-21875725Y5658723D01*
X-22017661Y5595372D01*
X-22276091Y5496721D01*
X-22559059Y5408575D01*
X-22868866Y5330436D01*
X-23207813Y5261805D01*
X-23578203Y5202186D01*
X-23982336Y5151081D01*
X-24422514Y5107991D01*
X-24506531Y5100326D01*
X-24606692Y5089797D01*
X-24688108Y5079620D01*
X-24744040Y5070660D01*
X-24767746Y5063778D01*
X-24778117Y5047630D01*
X-24802326Y4997283D01*
X-24835072Y4920818D01*
X-24873802Y4824624D01*
X-24915962Y4715091D01*
X-24958999Y4598609D01*
X-25000361Y4481568D01*
X-25077647Y4241813D01*
X-25155232Y3948403D01*
X-25206355Y3674804D01*
X-25231616Y3416513D01*
X-25231613Y3169028D01*
X-25206944Y2927846D01*
X-25158203Y2681817D01*
X-25080221Y2429953D01*
X-24977063Y2204283D01*
X-24847632Y2001983D01*
X-24831211Y1979534D01*
X-24775875Y1891139D01*
X-24749226Y1817095D01*
X-24749485Y1749539D01*
X-24774872Y1680608D01*
X-24790829Y1655487D01*
X-24851528Y1603823D01*
X-24929340Y1576945D01*
X-25012810Y1577484D01*
X-25090483Y1608074D01*
X-25145270Y1656015D01*
X-25212196Y1736801D01*
X-25283773Y1841399D01*
X-25355959Y1962975D01*
X-25424714Y2094695D01*
X-25485997Y2229725D01*
X-25535768Y2361231D01*
X-25567204Y2463689D01*
X-25621163Y2693543D01*
X-25659368Y2938188D01*
X-25680588Y3185638D01*
X-25683594Y3423905D01*
X-25667155Y3641000D01*
X-25612009Y3960143D01*
X-25525823Y4307181D01*
X-25410036Y4673729D01*
X-25265286Y5057538D01*
X-25231907Y5140176D01*
X-25157124Y5329805D01*
X-25096904Y5491114D01*
X-25049833Y5629201D01*
X-25014494Y5749169D01*
X-24989472Y5856116D01*
X-24973352Y5955144D01*
X-24964717Y6051354D01*
X-24962154Y6149844D01*
X-24971390Y6310241D01*
X-25015472Y6527686D01*
X-25094480Y6731467D01*
X-25206841Y6919805D01*
X-25350985Y7090919D01*
X-25525340Y7243032D01*
X-25728335Y7374362D01*
X-25958399Y7483131D01*
X-26213961Y7567559D01*
X-26221712Y7569628D01*
X-26364616Y7605485D01*
X-26497466Y7633411D01*
X-26628436Y7654296D01*
X-26765701Y7669025D01*
X-26917434Y7678486D01*
X-27091809Y7683568D01*
X-27297000Y7685157D01*
X-27576534Y7680807D01*
X-27958962Y7659607D01*
X-28345770Y7619954D01*
X-28743915Y7560930D01*
X-29160355Y7481616D01*
X-29602048Y7381095D01*
X-29688675Y7360610D01*
X-29796223Y7338563D01*
X-29877781Y7327920D01*
X-29940167Y7328368D01*
X-29990196Y7339596D01*
X-30034685Y7361291D01*
X-30078060Y7394994D01*
X-30102844Y7436915D01*
X-30108153Y7493036D01*
X-30094605Y7570250D01*
X-30062817Y7675450D01*
X-30031115Y7764524D01*
X-30029671Y7767749D01*
X-29558602Y7767749D01*
X-29473109Y7778306D01*
X-29432084Y7784450D01*
X-29357487Y7797071D01*
X-29259680Y7814467D01*
X-29146593Y7835226D01*
X-29026154Y7857934D01*
X-28827664Y7894190D01*
X-28353229Y7966420D01*
X-27902515Y8013955D01*
X-27476252Y8036887D01*
X-27075170Y8035310D01*
X-26700001Y8009318D01*
X-26351473Y7959005D01*
X-26030318Y7884464D01*
X-25737266Y7785788D01*
X-25473047Y7663072D01*
X-25238391Y7516409D01*
X-25034029Y7345893D01*
X-24946055Y7256744D01*
X-24812018Y7096477D01*
X-24705148Y6928812D01*
X-24619364Y6743534D01*
X-24548584Y6530426D01*
X-24522740Y6414908D01*
X-24504849Y6208156D01*
X-24516834Y5977404D01*
X-24558702Y5722066D01*
X-24561265Y5709963D01*
X-24580465Y5618082D01*
X-24596097Y5541159D01*
X-24606612Y5486943D01*
X-24610462Y5463182D01*
X-24603156Y5455740D01*
X-24565821Y5449958D01*
X-24495565Y5450200D01*
X-24390977Y5456529D01*
X-24250644Y5469011D01*
X-24073154Y5487708D01*
X-23848752Y5514259D01*
X-23511713Y5561536D01*
X-23207236Y5614494D01*
X-22931428Y5674008D01*
X-22680393Y5740956D01*
X-22450239Y5816211D01*
X-22237071Y5900651D01*
X-22198243Y5917716D01*
X-22073132Y5977413D01*
X-21982252Y6030752D01*
X-21922790Y6080588D01*
X-21891929Y6129775D01*
X-21886853Y6181168D01*
X-21904749Y6237622D01*
X-21923397Y6267279D01*
X-21970162Y6320558D01*
X-22027003Y6370503D01*
X-22164467Y6459506D01*
X-22350161Y6550065D01*
X-22572370Y6633699D01*
X-22830027Y6710097D01*
X-23122065Y6778944D01*
X-23447417Y6839926D01*
X-23805016Y6892731D01*
X-23865368Y6900761D01*
X-23986524Y6918754D01*
X-24076535Y6936149D01*
X-24140923Y6954793D01*
X-24185209Y6976531D01*
X-24214915Y7003209D01*
X-24235564Y7036674D01*
X-24248882Y7070563D01*
X-24247873Y7106733D01*
X-24224974Y7153727D01*
X-24195942Y7193260D01*
X-24144275Y7230770D01*
X-24073144Y7251071D01*
X-23976748Y7255584D01*
X-23849283Y7245728D01*
X-23751510Y7234063D01*
X-23361531Y7177268D01*
X-22994330Y7107003D01*
X-22653661Y7024155D01*
X-22343281Y6929612D01*
X-22066942Y6824263D01*
X-22046966Y6815758D01*
X-21979029Y6788260D01*
X-21939282Y6775958D01*
X-21921938Y6777562D01*
X-21921213Y6791782D01*
X-21921725Y6793632D01*
X-21932044Y6837637D01*
X-21943361Y6894154D01*
X-21953565Y6942293D01*
X-21989931Y7072130D01*
X-22041203Y7221313D01*
X-22103466Y7380164D01*
X-22172803Y7539002D01*
X-22245299Y7688148D01*
X-22317039Y7817924D01*
X-22354551Y7878676D01*
X-22537081Y8135345D01*
X-22751832Y8383686D01*
X-22993279Y8618221D01*
X-23255892Y8833472D01*
X-23534144Y9023963D01*
X-23694551Y9118833D01*
X-24020503Y9283917D01*
X-24361043Y9419749D01*
X-24721872Y9528462D01*
X-25108692Y9612183D01*
X-25129660Y9615734D01*
X-25252162Y9631260D01*
X-25403691Y9643965D01*
X-25575993Y9653689D01*
X-25760815Y9660274D01*
X-25949903Y9663560D01*
X-26135004Y9663391D01*
X-26307863Y9659605D01*
X-26460229Y9652046D01*
X-26583846Y9640553D01*
X-26717361Y9621809D01*
X-27120838Y9542551D01*
X-27509188Y9431882D01*
X-27879487Y9291013D01*
X-28228815Y9121155D01*
X-28554249Y8923522D01*
X-28852868Y8699326D01*
X-28938119Y8624685D01*
X-29143824Y8412570D01*
X-29324941Y8177959D01*
X-29474383Y7929630D01*
X-29558602Y7767749D01*
X-30029671Y7767749D01*
X-29906875Y8042161D01*
X-29746976Y8309773D01*
G37*
X-29746976Y8309773D02*
X-29549841Y8570111D01*
X-29529006Y8594572D01*
X-29336726Y8794234D01*
X-29111374Y8988231D01*
X-28858268Y9173204D01*
X-28582722Y9345792D01*
X-28290050Y9502635D01*
X-27985569Y9640373D01*
X-27674593Y9755646D01*
X-27616625Y9774490D01*
X-27426856Y9831984D01*
X-27244931Y9879518D01*
X-27061465Y9918957D01*
X-26867077Y9952166D01*
X-26652383Y9981009D01*
X-26408000Y10007352D01*
X-26348780Y10011445D01*
X-26245655Y10014949D01*
X-26120070Y10016611D01*
X-25981300Y10016505D01*
X-25838623Y10014706D01*
X-25701317Y10011288D01*
X-25578658Y10006327D01*
X-25479923Y9999895D01*
X-25366359Y9989226D01*
X-24919957Y9926962D01*
X-24497345Y9834071D01*
X-24097650Y9710158D01*
X-23719999Y9554827D01*
X-23363520Y9367684D01*
X-23027340Y9148333D01*
X-22710586Y8896380D01*
X-22412385Y8611430D01*
X-22273945Y8460396D01*
X-22047640Y8176505D01*
X-21858194Y7883760D01*
X-21704362Y7579539D01*
X-21584898Y7261215D01*
X-21498556Y6926167D01*
X-21444091Y6571769D01*
X-21439372Y6524656D01*
X-21429479Y6363531D01*
X-21433231Y6230482D01*
X-21451127Y6118542D01*
X-21483667Y6020743D01*
X-21530614Y5937340D01*
X-21621048Y5832474D01*
X-21738376Y5737487D01*
X-21875725Y5658723D01*
X-22017661Y5595372D01*
X-22276091Y5496721D01*
X-22559059Y5408575D01*
X-22868866Y5330436D01*
X-23207813Y5261805D01*
X-23578203Y5202186D01*
X-23982336Y5151081D01*
X-24422514Y5107991D01*
X-24506531Y5100326D01*
X-24606692Y5089797D01*
X-24688108Y5079620D01*
X-24744040Y5070660D01*
X-24767746Y5063778D01*
X-24778117Y5047630D01*
X-24802326Y4997283D01*
X-24835072Y4920818D01*
X-24873802Y4824624D01*
X-24915962Y4715091D01*
X-24958999Y4598609D01*
X-25000361Y4481568D01*
X-25077647Y4241813D01*
X-25155232Y3948403D01*
X-25206355Y3674804D01*
X-25231616Y3416513D01*
X-25231613Y3169028D01*
X-25206944Y2927846D01*
X-25158203Y2681817D01*
X-25080221Y2429953D01*
X-24977063Y2204283D01*
X-24847632Y2001983D01*
X-24831211Y1979534D01*
X-24775875Y1891139D01*
X-24749226Y1817095D01*
X-24749485Y1749539D01*
X-24774872Y1680608D01*
X-24790829Y1655487D01*
X-24851528Y1603823D01*
X-24929340Y1576945D01*
X-25012810Y1577484D01*
X-25090483Y1608074D01*
X-25145270Y1656015D01*
X-25212196Y1736801D01*
X-25283773Y1841399D01*
X-25355959Y1962975D01*
X-25424714Y2094695D01*
X-25485997Y2229725D01*
X-25535768Y2361231D01*
X-25567204Y2463689D01*
X-25621163Y2693543D01*
X-25659368Y2938188D01*
X-25680588Y3185638D01*
X-25683594Y3423905D01*
X-25667155Y3641000D01*
X-25612009Y3960143D01*
X-25525823Y4307181D01*
X-25410036Y4673729D01*
X-25265286Y5057538D01*
X-25231907Y5140176D01*
X-25157124Y5329805D01*
X-25096904Y5491114D01*
X-25049833Y5629201D01*
X-25014494Y5749169D01*
X-24989472Y5856116D01*
X-24973352Y5955144D01*
X-24964717Y6051354D01*
X-24962154Y6149844D01*
X-24971390Y6310241D01*
X-25015472Y6527686D01*
X-25094480Y6731467D01*
X-25206841Y6919805D01*
X-25350985Y7090919D01*
X-25525340Y7243032D01*
X-25728335Y7374362D01*
X-25958399Y7483131D01*
X-26213961Y7567559D01*
X-26221712Y7569628D01*
X-26364616Y7605485D01*
X-26497466Y7633411D01*
X-26628436Y7654296D01*
X-26765701Y7669025D01*
X-26917434Y7678486D01*
X-27091809Y7683568D01*
X-27297000Y7685157D01*
X-27576534Y7680807D01*
X-27958962Y7659607D01*
X-28345770Y7619954D01*
X-28743915Y7560930D01*
X-29160355Y7481616D01*
X-29602048Y7381095D01*
X-29688675Y7360610D01*
X-29796223Y7338563D01*
X-29877781Y7327920D01*
X-29940167Y7328368D01*
X-29990196Y7339596D01*
X-30034685Y7361291D01*
X-30078060Y7394994D01*
X-30102844Y7436915D01*
X-30108153Y7493036D01*
X-30094605Y7570250D01*
X-30062817Y7675450D01*
X-30031115Y7764524D01*
X-30029671Y7767749D01*
X-29558602Y7767749D01*
X-29473109Y7778306D01*
X-29432084Y7784450D01*
X-29357487Y7797071D01*
X-29259680Y7814467D01*
X-29146593Y7835226D01*
X-29026154Y7857934D01*
X-28827664Y7894190D01*
X-28353229Y7966420D01*
X-27902515Y8013955D01*
X-27476252Y8036887D01*
X-27075170Y8035310D01*
X-26700001Y8009318D01*
X-26351473Y7959005D01*
X-26030318Y7884464D01*
X-25737266Y7785788D01*
X-25473047Y7663072D01*
X-25238391Y7516409D01*
X-25034029Y7345893D01*
X-24946055Y7256744D01*
X-24812018Y7096477D01*
X-24705148Y6928812D01*
X-24619364Y6743534D01*
X-24548584Y6530426D01*
X-24522740Y6414908D01*
X-24504849Y6208156D01*
X-24516834Y5977404D01*
X-24558702Y5722066D01*
X-24561265Y5709963D01*
X-24580465Y5618082D01*
X-24596097Y5541159D01*
X-24606612Y5486943D01*
X-24610462Y5463182D01*
X-24603156Y5455740D01*
X-24565821Y5449958D01*
X-24495565Y5450200D01*
X-24390977Y5456529D01*
X-24250644Y5469011D01*
X-24073154Y5487708D01*
X-23848752Y5514259D01*
X-23511713Y5561536D01*
X-23207236Y5614494D01*
X-22931428Y5674008D01*
X-22680393Y5740956D01*
X-22450239Y5816211D01*
X-22237071Y5900651D01*
X-22198243Y5917716D01*
X-22073132Y5977413D01*
X-21982252Y6030752D01*
X-21922790Y6080588D01*
X-21891929Y6129775D01*
X-21886853Y6181168D01*
X-21904749Y6237622D01*
X-21923397Y6267279D01*
X-21970162Y6320558D01*
X-22027003Y6370503D01*
X-22164467Y6459506D01*
X-22350161Y6550065D01*
X-22572370Y6633699D01*
X-22830027Y6710097D01*
X-23122065Y6778944D01*
X-23447417Y6839926D01*
X-23805016Y6892731D01*
X-23865368Y6900761D01*
X-23986524Y6918754D01*
X-24076535Y6936149D01*
X-24140923Y6954793D01*
X-24185209Y6976531D01*
X-24214915Y7003209D01*
X-24235564Y7036674D01*
X-24248882Y7070563D01*
X-24247873Y7106733D01*
X-24224974Y7153727D01*
X-24195942Y7193260D01*
X-24144275Y7230770D01*
X-24073144Y7251071D01*
X-23976748Y7255584D01*
X-23849283Y7245728D01*
X-23751510Y7234063D01*
X-23361531Y7177268D01*
X-22994330Y7107003D01*
X-22653661Y7024155D01*
X-22343281Y6929612D01*
X-22066942Y6824263D01*
X-22046966Y6815758D01*
X-21979029Y6788260D01*
X-21939282Y6775958D01*
X-21921938Y6777562D01*
X-21921213Y6791782D01*
X-21921725Y6793632D01*
X-21932044Y6837637D01*
X-21943361Y6894154D01*
X-21953565Y6942293D01*
X-21989931Y7072130D01*
X-22041203Y7221313D01*
X-22103466Y7380164D01*
X-22172803Y7539002D01*
X-22245299Y7688148D01*
X-22317039Y7817924D01*
X-22354551Y7878676D01*
X-22537081Y8135345D01*
X-22751832Y8383686D01*
X-22993279Y8618221D01*
X-23255892Y8833472D01*
X-23534144Y9023963D01*
X-23694551Y9118833D01*
X-24020503Y9283917D01*
X-24361043Y9419749D01*
X-24721872Y9528462D01*
X-25108692Y9612183D01*
X-25129660Y9615734D01*
X-25252162Y9631260D01*
X-25403691Y9643965D01*
X-25575993Y9653689D01*
X-25760815Y9660274D01*
X-25949903Y9663560D01*
X-26135004Y9663391D01*
X-26307863Y9659605D01*
X-26460229Y9652046D01*
X-26583846Y9640553D01*
X-26717361Y9621809D01*
X-27120838Y9542551D01*
X-27509188Y9431882D01*
X-27879487Y9291013D01*
X-28228815Y9121155D01*
X-28554249Y8923522D01*
X-28852868Y8699326D01*
X-28938119Y8624685D01*
X-29143824Y8412570D01*
X-29324941Y8177959D01*
X-29474383Y7929630D01*
X-29558602Y7767749D01*
X-30029671Y7767749D01*
X-29906875Y8042161D01*
X-29746976Y8309773D01*
%TD*%
%LPC*%
D12*
%TO.C,J2*%
X15700000Y6525000D03*
D13*
X15700000Y9065000D03*
%TD*%
D14*
%TO.C,U51*%
X25150000Y-2310000D03*
X25150000Y-8090000D03*
D15*
X24670000Y-9520000D03*
X24670000Y-880000D03*
D16*
X28840000Y-9520000D03*
X28840000Y-880000D03*
%TD*%
D17*
%TO.C,U30*%
X3810000Y8890000D03*
X1270000Y8890000D03*
X-1270000Y8890000D03*
X-3810000Y8890000D03*
X-3810000Y-8890000D03*
X-1270000Y-8890000D03*
X1270000Y-8890000D03*
X3810000Y-8890000D03*
%TD*%
D14*
%TO.C,U52*%
X7610000Y-4975000D03*
X13390000Y-4975000D03*
D18*
X6180000Y-4495000D03*
D19*
X14820000Y-8665000D03*
X6180000Y-8665000D03*
D18*
X14820000Y-4495000D03*
%TD*%
D12*
%TO.C,J1*%
X-10575000Y0D03*
D13*
X-8035000Y0D03*
%TD*%
M02*
