%TF.GenerationSoftware,KiCad,Pcbnew,(6.0.5)*%
%TF.CreationDate,2022-11-18T19:02:11-05:00*%
%TF.ProjectId,SimpleMelt-Hardware,53696d70-6c65-44d6-956c-742d48617264,rev?*%
%TF.SameCoordinates,Original*%
%TF.FileFunction,Copper,L4,Bot*%
%TF.FilePolarity,Positive*%
%FSLAX46Y46*%
G04 Gerber Fmt 4.6, Leading zero omitted, Abs format (unit mm)*
G04 Created by KiCad (PCBNEW (6.0.5)) date 2022-11-18 19:02:11*
%MOMM*%
%LPD*%
G01*
G04 APERTURE LIST*
%TA.AperFunction,ComponentPad*%
%ADD10R,1.700000X1.700000*%
%TD*%
%TA.AperFunction,ComponentPad*%
%ADD11O,1.700000X1.700000*%
%TD*%
%TA.AperFunction,ComponentPad*%
%ADD12O,2.000000X0.900000*%
%TD*%
%TA.AperFunction,ComponentPad*%
%ADD13O,1.700000X0.900000*%
%TD*%
%TA.AperFunction,ComponentPad*%
%ADD14C,1.778000*%
%TD*%
%TA.AperFunction,ComponentPad*%
%ADD15O,0.900000X2.000000*%
%TD*%
%TA.AperFunction,ComponentPad*%
%ADD16O,0.900000X1.700000*%
%TD*%
%TA.AperFunction,ViaPad*%
%ADD17C,0.400000*%
%TD*%
%TA.AperFunction,Conductor*%
%ADD18C,0.203200*%
%TD*%
%TA.AperFunction,Conductor*%
%ADD19C,0.406400*%
%TD*%
G04 APERTURE END LIST*
D10*
%TO.P,J2,1,Pin_1*%
%TO.N,E_RXD*%
X15700000Y6525000D03*
D11*
%TO.P,J2,2,Pin_2*%
%TO.N,E_TXD*%
X15700000Y9065000D03*
%TD*%
D12*
%TO.P,U51,S1,SHIELD*%
%TO.N,unconnected-(U51-PadS1)*%
X24670000Y-9520000D03*
X24670000Y-880000D03*
D13*
X28840000Y-9520000D03*
X28840000Y-880000D03*
%TD*%
D14*
%TO.P,U30,1,CS*%
%TO.N,A2_CS*%
X3810000Y8890000D03*
%TO.P,U30,2,SA0*%
%TO.N,P_MISO*%
X1270000Y8890000D03*
%TO.P,U30,3,INT2*%
%TO.N,unconnected-(U30-Pad3)*%
X-1270000Y8890000D03*
%TO.P,U30,4,INT1*%
%TO.N,unconnected-(U30-Pad4)*%
X-3810000Y8890000D03*
%TO.P,U30,5,GND*%
%TO.N,GND*%
X-3810000Y-8890000D03*
%TO.P,U30,6,3V3*%
%TO.N,+3V3*%
X-1270000Y-8890000D03*
%TO.P,U30,7,SDA*%
%TO.N,P_MOSI*%
X1270000Y-8890000D03*
%TO.P,U30,8,SCL*%
%TO.N,P_SCK*%
X3810000Y-8890000D03*
%TD*%
D15*
%TO.P,U52,S1,SHIELD*%
%TO.N,unconnected-(U52-PadS1)*%
X6180000Y-4495000D03*
D16*
X14820000Y-8665000D03*
X6180000Y-8665000D03*
D15*
X14820000Y-4495000D03*
%TD*%
D10*
%TO.P,J1,1,Pin_1*%
%TO.N,X_RX*%
X-10575000Y0D03*
D11*
%TO.P,J1,2,Pin_2*%
%TO.N,X_TX*%
X-8035000Y0D03*
%TD*%
D17*
%TO.N,GND*%
X-12300000Y7500000D03*
X20100000Y6100000D03*
X5200000Y8500000D03*
X19000000Y-1400000D03*
X-17700000Y4700000D03*
X18400000Y-8100000D03*
X-19600000Y4700000D03*
X21400000Y-1400000D03*
X-18500000Y1200000D03*
X26900000Y4200000D03*
X-22800000Y-10100000D03*
X-9500000Y4700000D03*
X9550000Y3300000D03*
X10850000Y1950000D03*
X-5200000Y6900000D03*
X-7300000Y5600000D03*
X2700000Y6100000D03*
X5200000Y10100000D03*
X-10800000Y6100000D03*
X-7600000Y9500000D03*
X5500000Y-6900000D03*
X-27000000Y10300000D03*
X10850000Y4650000D03*
X-12300000Y4700000D03*
X13800000Y-3000000D03*
X14200000Y-200000D03*
X8150000Y4650000D03*
X-26900000Y-4000000D03*
X-17400000Y-3200000D03*
X2700000Y2100000D03*
X-5420000Y3680000D03*
X20400000Y-8100000D03*
X-24300000Y3000000D03*
X2875000Y-5925000D03*
X-14200000Y-9200000D03*
X2700000Y5300000D03*
X20400000Y-6100000D03*
X23200000Y-8500000D03*
X-26900000Y-5000000D03*
X-16700000Y9200000D03*
X13800000Y7900000D03*
X26900000Y6200000D03*
X-17700000Y6600000D03*
X-26900000Y1500000D03*
X-29100000Y9700000D03*
X4100000Y-4100000D03*
X12900000Y-2500000D03*
X14200000Y2500000D03*
X-25000000Y10300000D03*
X9400000Y9900000D03*
X15800000Y-300000D03*
X-18587500Y5612500D03*
X-1500000Y-6950000D03*
X8400000Y8600000D03*
X-12600000Y-6600000D03*
X-15800000Y1200000D03*
X-8500000Y-8700000D03*
X-9500000Y7500000D03*
X2700000Y2900000D03*
X18400000Y9100000D03*
X-10600000Y10200000D03*
X-15000000Y5100000D03*
X-21800000Y4400000D03*
X-3250000Y-4400000D03*
X8000000Y-2600000D03*
X19400000Y-7100000D03*
X23200000Y-1900000D03*
X18400000Y-6100000D03*
X26700000Y2200000D03*
X-26900000Y3500000D03*
X-13100000Y-1200000D03*
X-19600000Y6600000D03*
X8150000Y1950000D03*
%TO.N,+3V3*%
X4900000Y4900000D03*
X-6875000Y-5075000D03*
X-23900000Y5800000D03*
X-12700000Y2900000D03*
X0Y-7700000D03*
X-4800000Y2200000D03*
X-17880000Y2620000D03*
X6950000Y8050000D03*
X-5800000Y10000000D03*
X11800000Y-1200000D03*
X2700000Y6900000D03*
X8900000Y-1200000D03*
X11700000Y7700000D03*
X22600000Y10000000D03*
X-15850000Y3950000D03*
X-10100000Y9400000D03*
X-14100000Y6900000D03*
X19800000Y-1400000D03*
X15800000Y-2600000D03*
X-7700000Y6700000D03*
X14200000Y1100000D03*
%TO.N,E_EN*%
X18900000Y4400000D03*
X6437500Y6737500D03*
%TO.N,E_IO0*%
X21300000Y3800000D03*
X5000000Y4200000D03*
%TO.N,VCC*%
X-21400000Y-5800000D03*
X-21400000Y-3200000D03*
X-21400000Y700000D03*
%TO.N,VBUS*%
X12600000Y-5100000D03*
X21650000Y-4850000D03*
X25700000Y-2900000D03*
X8400000Y-5100000D03*
X25100000Y-7300000D03*
X-15400000Y-10400000D03*
%TO.N,Net-(C70-Pad1)*%
X-21700000Y6650000D03*
X-17300000Y3000000D03*
%TO.N,X_TX*%
X5200000Y1600000D03*
%TO.N,X_RX*%
X6900000Y1200000D03*
%TO.N,E_TXD*%
X20000000Y-10400000D03*
%TO.N,E_RXD*%
X19400000Y-10400000D03*
X9700000Y5850000D03*
%TO.N,P_MOSI*%
X2300000Y-3100000D03*
X8100000Y-1000000D03*
%TO.N,P_MISO*%
X8500000Y700000D03*
X2300000Y-2400000D03*
%TO.N,P_SCK*%
X7300000Y-1000000D03*
X3000000Y-3100000D03*
%TO.N,CP_RTS*%
X19000000Y-100000D03*
X18800000Y-10400000D03*
%TO.N,CP_DTR*%
X21100000Y700000D03*
X20900000Y-10400000D03*
%TO.N,LED_1*%
X-13100000Y-3000000D03*
X4600000Y200000D03*
%TO.N,LED_2*%
X-13100000Y-2100000D03*
X5200000Y600000D03*
%TO.N,GPIO2*%
X-21695000Y5905000D03*
X-14000000Y5300000D03*
%TO.N,GPIO15*%
X-14400000Y5800000D03*
X-16800000Y8500000D03*
%TO.N,A2_CS*%
X7200000Y5900000D03*
%TO.N,Net-(U50-Pad4)*%
X25000000Y-5400000D03*
X22600000Y-7100000D03*
%TO.N,GPIO12*%
X-15900000Y5800000D03*
X-14500000Y7400000D03*
%TO.N,GPIO4*%
X-19300000Y3000000D03*
X-14000000Y4100000D03*
%TO.N,GPIO5*%
X-19900000Y3000000D03*
X-9100000Y2900000D03*
%TO.N,A1_CS*%
X7700000Y700000D03*
X1600000Y-2400000D03*
%TD*%
D18*
%TO.N,E_EN*%
X11400000Y5300000D02*
X7000000Y5300000D01*
X6437500Y5862500D02*
X6437500Y6737500D01*
X18900000Y4400000D02*
X12300000Y4400000D01*
X7000000Y5300000D02*
X6437500Y5862500D01*
X12300000Y4400000D02*
X11400000Y5300000D01*
%TO.N,E_IO0*%
X21300000Y3800000D02*
X5400000Y3800000D01*
X5400000Y3800000D02*
X5000000Y4200000D01*
D19*
%TO.N,VCC*%
X-21400000Y-5800000D02*
X-21400000Y-3200000D01*
X-21400000Y700000D02*
X-21400000Y-3200000D01*
D18*
%TO.N,VBUS*%
X12600000Y-9900000D02*
X12100000Y-10400000D01*
D19*
X22100000Y-9700000D02*
X22800000Y-10400000D01*
X-15400000Y-10400000D02*
X7900000Y-10400000D01*
D18*
X26400000Y-3600000D02*
X25700000Y-2900000D01*
X8400000Y-5100000D02*
X8400000Y-9900000D01*
X26400000Y-5250000D02*
X26400000Y-3600000D01*
X12600000Y-5100000D02*
X12600000Y-9900000D01*
X25900000Y-7300000D02*
X25100000Y-7300000D01*
X26200000Y-7800000D02*
X26200000Y-7600000D01*
D19*
X7900000Y-10400000D02*
X11800000Y-10400000D01*
D18*
X26400000Y-7800000D02*
X26400000Y-5250000D01*
X26300000Y-7900000D02*
X26400000Y-7800000D01*
D19*
X25800000Y-10400000D02*
X26300000Y-9900000D01*
D18*
X26300000Y-7900000D02*
X26200000Y-7800000D01*
D19*
X11800000Y-10400000D02*
X12100000Y-10400000D01*
X26300000Y-9900000D02*
X26300000Y-7900000D01*
D18*
X8400000Y-9900000D02*
X7900000Y-10400000D01*
D19*
X17100000Y-10400000D02*
X17800000Y-9700000D01*
D18*
X26200000Y-7600000D02*
X25900000Y-7300000D01*
D19*
X11800000Y-10400000D02*
X17100000Y-10400000D01*
X22800000Y-10400000D02*
X25800000Y-10400000D01*
X17800000Y-9700000D02*
X22100000Y-9700000D01*
D18*
X26000000Y-4850000D02*
X26400000Y-5250000D01*
X21650000Y-4850000D02*
X26000000Y-4850000D01*
%TO.N,Net-(C70-Pad1)*%
X-20200000Y3600000D02*
X-22200000Y5600000D01*
X-22200000Y6150000D02*
X-21700000Y6650000D01*
X-22200000Y5600000D02*
X-22200000Y6150000D01*
X-17300000Y3000000D02*
X-17900000Y3600000D01*
X-17900000Y3600000D02*
X-20200000Y3600000D01*
%TO.N,E_RXD*%
X9700000Y5850000D02*
X15025000Y5850000D01*
X15025000Y5850000D02*
X15700000Y6525000D01*
%TO.N,P_MISO*%
X1300000Y-1400000D02*
X1300000Y8860000D01*
X1300000Y8860000D02*
X1270000Y8890000D01*
X2300000Y-2400000D02*
X1300000Y-1400000D01*
%TO.N,GPIO2*%
X-19890000Y4100000D02*
X-21695000Y5905000D01*
X-14000000Y5300000D02*
X-14800000Y4500000D01*
X-14800000Y4500000D02*
X-17100000Y4500000D01*
X-17100000Y4500000D02*
X-17500000Y4100000D01*
X-17500000Y4100000D02*
X-19890000Y4100000D01*
%TO.N,GPIO15*%
X-14400000Y5800000D02*
X-13500000Y6700000D01*
X-14600000Y8500000D02*
X-16800000Y8500000D01*
X-13500000Y6700000D02*
X-13500000Y7400000D01*
X-13500000Y7400000D02*
X-14600000Y8500000D01*
%TO.N,A2_CS*%
X6500000Y7500000D02*
X5200000Y7500000D01*
X5200000Y7500000D02*
X3810000Y8890000D01*
X7200000Y5900000D02*
X7200000Y6800000D01*
X7200000Y6800000D02*
X6500000Y7500000D01*
%TO.N,Net-(U50-Pad4)*%
X22600000Y-5700000D02*
X22600000Y-7100000D01*
X22900000Y-5400000D02*
X22600000Y-5700000D01*
X25000000Y-5400000D02*
X22900000Y-5400000D01*
%TO.N,GPIO12*%
X-15900000Y6000000D02*
X-15900000Y5800000D01*
X-14500000Y7400000D02*
X-15900000Y6000000D01*
%TO.N,GPIO4*%
X-16000000Y2100000D02*
X-18400000Y2100000D01*
X-18400000Y2100000D02*
X-19300000Y3000000D01*
X-14000000Y4100000D02*
X-16000000Y2100000D01*
%TO.N,GPIO5*%
X-19900000Y3000000D02*
X-19900000Y2800000D01*
X-19900000Y2800000D02*
X-18800000Y1700000D01*
X-18800000Y1700000D02*
X-10300000Y1700000D01*
X-10300000Y1700000D02*
X-9100000Y2900000D01*
%TD*%
M02*
